<?xml version="1.0" encoding="utf-8"?>
<!-- Generator: Adobe Illustrator 16.0.0, SVG Export Plug-In . SVG Version: 6.00 Build 0)  -->
<!DOCTYPE svg PUBLIC "-//W3C//DTD SVG 1.1//EN" "http://www.w3.org/Graphics/SVG/1.1/DTD/svg11.dtd">
<svg version="1.1" id="Calque_1" xmlns="http://www.w3.org/2000/svg" xmlns:xlink="http://www.w3.org/1999/xlink" x="0px" y="0px"
	 width="595.279px" height="841.891px" viewBox="0 0 595.279 841.891" enable-background="new 0 0 595.279 841.891"
	 xml:space="preserve">
<path id="_x32_402" fill="#666666" d="M264.12,337.64l7.46,3.732l-1.091,14.932l-18.021,20.082l24.925,14.243l10.809-14.389
	l13.529-21.854l19.521-21.889V315.16l11.043-21.067l-16.226-34.703l-5.923,3.825c0.296,1.873-1.113,3.992-2.067,4.959
	c-3.391,3.391-8.117,6.136-13.54,11.225c-5.426,5.089-11.874,12.544-19.668,14.921c-7.8,2.376-15.599,6.104-22.042,9.495
	c-6.438,3.391-7.46,7.118-5.76,11.871c1.007,2.821-0.376,5.161-3.089,6.812l14.47,2.771L264.12,337.64z"/>
<path id="ofsnbr_x5F_2403" fill="#7F7F7F" d="M125.764,448.186l36.682-4.668l20.596-7.216l15.292-10.497l11.09-8.399l31.982,20.27
	l26.106-14.242l-9.156-15.258l19.038-17.546l-24.925-14.243l18.021-20.082l1.091-14.932l-7.46-3.732l-5.675-12.386l-14.47-2.773
	c-1.854,1.128-4.329,1.931-7.084,2.35c-6.782,1.02-9.161,2.376-12.547,8.475c-2.877,5.188-4.779,6.695-9.034,9.951l17.968,14.579
	l-13.564,12.658l-10.852,0.456l-15.371,10.396l-7.231,18.54l-15.371,9.946l-9.045-2.258l-52.901,21.703l-5.426-8.14l-9.044,6.326
	l9.256,12.585L125.764,448.186z"/>
<polygon id="ofsnbr_x5F_2406" fill="#999999" points="125.823,526.027 153.566,510.025 186.009,496.043 207.595,476.131 
	232.207,458.794 233.161,449.617 250.556,449.203 241.406,437.674 209.423,417.404 198.333,425.805 183.042,436.296 
	162.446,443.513 125.764,448.186 103.727,440.048 94.471,427.458 78.194,450.973 62.817,460.013 82.713,493.924 80.679,525.8 
	92.484,531.623 "/>
<path id="ofsnbr_x5F_2401" fill="#666666" d="M286.74,476.067c9.495-10.514,22.04-17.974,28.154-21.024
	c3.041-1.526,4.917-3.307,6.062-5.384c1.146-2.077,1.568-4.451,1.729-7.164c0.339-5.425,2.385-6.442,6.104-10.512
	c1.876-2.035,4.493-4.239,7.303-6.443l0.656-28.999l-12.123,2.374l-18.333,12.115l-28.886-20.413l-19.038,17.546l9.156,15.258
	l-26.105,14.242l9.156,11.53l-17.395,0.413l-0.954,9.177l8.17,19.566l3.921,27.188l11.201,11.169
	c2.538-2.936,4.646-5.977,6.146-9.113C265.715,499.127,277.245,486.58,286.74,476.067z"/>
<polygon id="ofsnbr_x5F_2405" fill="#999999" points="324.622,398.92 336.745,396.546 342.912,398.258 379.292,370.824 
	387.464,347.884 397.966,333.642 411.424,306.291 425.751,291.322 381.782,301.387 346.208,314.032 321.263,332.492 301.732,354.38 
	288.208,376.234 277.399,390.623 306.279,411.035 "/>
<path id="ofsnbr_x5F_2404" fill="#7F7F7F" d="M431.548,367.553c4.345-1.356,6.878-2.776,9.822-4.748
	c-3.041-2.376-4.068-3.732,3.054-6.104c2.246-0.755,4.461-1.465,6.602-2.3l-8.403-15.557l8.583-6.782l-39.78-25.772l-13.458,27.351
	l-10.514,14.243l-8.17,22.94l-36.381,27.434l-6.167-1.704l-0.657,28.997c2.798-2.204,5.766-4.408,8.31-6.447
	c5.086-4.069,8.478-4.406,11.868-5.091c3.401-0.683,5.765-1.02,19.329-11.871c8.148-6.527,10.852-6.104,19.329-2.034
	c8.468,4.068,10.852,3.391,15.249,0.678c1.896-1.166,3.104-1.896,4.397-1.537c2.702-3.537,4.218-9.559,5.437-17.79
	C421.374,372.3,426.121,369.251,431.548,367.553z"/>
<g>
	<path id="ID_x5F_9148_Bielersee_x2F_Lac_de_Bienne" fill="#CDD4DB" d="M481.73,346.263c2.713-3.391,2.713-4.578,0.848-6.445
		c-1.87-1.868-4.747-0.167-3.561,2.713c0.53,1.29,0,1.867-2.713,4.914c-2.713,3.052-8.986,6.104-14.073,9.495
		c-4.011,2.671-6.951,4.581-11.365,5.937c-4.408,1.356-7.115,0.678-10.173-1.693c-3.053-2.371-4.069-3.732,3.052-6.104
		c2.247-0.755,4.462-1.465,6.603-2.3c4.663-1.796,9.014-4.146,12.723-8.552c3.768-4.472,8.027-7.969,13.113-11.39
		c2.241-1.502,4.642-2.994,7.231-4.551c8.479-5.089,26.111-17.297,31.537-23.396c4.213-4.747,7.688-7.248,10.721-9.548
		c0.868-0.662,1.699-1.304,2.501-1.98c2.416-2.035,3.963-2.692,4.758-2.459c1.323,0.376,0.571,3.214-1.706,6.191
		c-4.408,5.762-7.805,10.852-11.53,21.367c-2.69,7.574-8.71,16.532-15.599,26.451c-1.409,2.034-2.744,3.841-4.097,5.486
		c-6.761,8.218-13.902,12.38-32.872,20.627c-7.8,3.392-10.513-6.104-10.513-6.104C469.177,356.778,475.636,353.874,481.73,346.263z"
		/>
	<path id="ID_x5F_9151_Lac_de_Neuchâtel" fill="#CDD4DB" d="M292.841,534.807c16.277-10.512,25.438-18.312,33.912-28.483
		c1.827-2.193,3.751-4.255,5.742-6.242c5.973-5.95,12.584-11.169,19.197-16.839c1.409-1.208,2.824-2.442,4.229-3.709
		c4.424-3.979,11.856-10.587,19.566-17.257c10.03-8.681,20.548-17.471,25.533-20.724c8.817-5.766,12.542-7.805,17.968-16.617
		c1.061-1.717,1.998-3.179,2.787-4.472c3.222-5.322,3.836-7.812-0.408-14.176c-3.868-5.799-5.754-8.181-7.471-8.661
		c-1.299-0.352-2.501,0.371-4.398,1.537c-4.401,2.713-6.78,3.391-15.254-0.679c-8.478-4.069-11.175-4.493-19.329,2.034
		c-13.563,10.852-15.938,11.188-19.323,11.871c-3.387,0.684-6.782,1.021-11.874,5.09c-2.543,2.034-5.512,4.238-8.304,6.448
		c-2.798,2.204-5.426,4.402-7.296,6.442c-3.729,4.069-5.76,5.087-6.104,10.513c-0.164,2.713-0.588,5.092-1.732,7.164
		c-1.145,2.076-3.015,3.857-6.062,5.383c-6.104,3.053-18.656,10.514-28.151,21.024c-9.495,10.513-21.024,23.06-25.094,31.537
		c-1.5,3.137-3.614,6.179-6.146,9.113c-4.329,4.99-9.908,9.664-15.891,13.945c-9.495,6.782-46.119,32.889-52.224,38.314
		c-6.104,5.426-6.104,8.472-2.713,11.528c0.722,0.651,1.404,1.33,2.12,1.944c2.655,2.306,5.781,3.805,13.135,0.091
		c28.151-14.243,34.59-15.942,41.716-13.563c5.935,1.98,11.163,3.258,19.812-4.038c1.722-1.457,3.587-3.253,5.617-5.457
		C274.906,548.646,276.564,545.319,292.841,534.807z"/>
</g>
</svg>
