<?xml version="1.0" encoding="utf-8"?>
<!-- Generator: Adobe Illustrator 16.0.0, SVG Export Plug-In . SVG Version: 6.00 Build 0)  -->
<!DOCTYPE svg PUBLIC "-//W3C//DTD SVG 1.1//EN" "http://www.w3.org/Graphics/SVG/1.1/DTD/svg11.dtd">
<svg version="1.1" id="Calque_1" xmlns="http://www.w3.org/2000/svg" xmlns:xlink="http://www.w3.org/1999/xlink" x="0px" y="0px"
	 width="1052px" height="694.488px" viewBox="0 0 1052 694.488" enable-background="new 0 0 1052 694.488" xml:space="preserve">
<path id="TI" fill="#999999" d="M486.785,63.136l-3.772,6.575l-7.518,6.344l-10.809,0.705l-2.819-4.229l-6.578-2.819l-18.562-1.881
	l-5.168-3.759l-10.809-2.582l-13.159,2.582l-8.226,7.988l-3.524,8.459l1.647,10.575l-0.705,6.343l-3.054,3.76l-12.536,4.116
	l-9.354,0.561l-3.96,8.387l-9.145,8.367l-2.335,6.615l-3.115,5.645l-3.891,1.165l-7.588-0.778h-9.729l-5.059-1.361l0.584,10.701
	l-0.195,7.201l-3.96,15.829l15.35-7.375l12.681-2.115l10.563,3.698l8.453,15.848l1.056,6.867l-1.056,13.733v14.792v16.377
	l1.586,17.96l-2.115,13.732l-6.867,13.21l-7.396,8.979l-2.114,12.15l8.983,12.15l3.169,9.508l-1.057,5.284l2.112,7.396
	l11.623,10.037l14.789,8.453l14.793,7.922l8.452,12.682l14.263,21.128l8.452,7.925l1.06,9.509l10.537,11.117l4.856,10.086
	l5.975,0.745l7.472,1.495l5.229,4.485l7.097,4.107l9.711,1.118l5.604,4.111l4.273,2.032l7.306,3.198l14.196-12.328l8.666,5.965
	l7.77,4.121l7.47,6.348l4.11-2.24l5.603-4.856l2.617-2.985l3.732,1.118l12.701,13.075l8.965,10.833l5.229,7.469l0.747,7.846
	l-4.858,5.23l-4.108,2.987l-1.97,0.5l-0.527,3.964l-1.323,8.979l-3.962,3.434l-10.037,6.341l-6.34,5.548l-2.377,6.603l3.169,6.867
	h3.433l6.868,1.056l9.245,3.435l6.076,6.603l7.659,6.602l6.073,6.604l5.413,1.255l5.681,3.237l1.054,7.128l1.057,13.473l6.869,9.773
	l4.203,5.53l3.192,3.976v5.283l4.228,11.095l7.396,12.15l-1.056,6.865l-6.866,6.341l-6.34,10.038v5.28l3.695,0.529l6.337-6.339
	l8.456,0.529l6.337,6.337l7.396,1.586l7.926-0.529l4.755,2.115l1.055,7.922l6.868,2.115l9.507-4.759l2.114-12.676l1.582-7.396
	l4.229-8.982l2.641-10.565l7.923-5.283l5.283-5.81l2.113-7.396l-2.113-1.583c0,0-5.811-7.396-7.924-10.037
	c-2.113-2.643-8.452-6.34-8.452-6.34h-11.094l-5.281-4.227l-1.585-5.813l1.056-7.923l-3.696-6.339l-4.225-5.28l-3.171-8.982
	l-1.057-4.227l3.696-4.757l4.756-4.754l5.81-1.583l0.137-5.415l-0.663-13.075l-2.641-3.171l-3.168-6.337l0.527-10.567l4.229-11.094
	l5.81-3.695l10.037-3.696l10.563-3.697l4.756-3.172l3.696-5.81l2.113-7.925l-0.527-8.449l-4.229-8.982l-1.581-6.34l3.696-8.979
	l15.318-6.34l10.565-10.036l6.339-6.341l4.755-2.112l5.282-8.982l5.375-2.523l-9.687-9.254l-10.341-14.568l-8.928-8.459
	l-12.219-8.928l-1.879-9.398l1.879-12.689l-4.699-12.686l-7.518-12.689l-3.291-8.928l4.229-7.518l4.229-12.218l-0.467-13.16
	l2.817-7.517l5.639-4.702l5.169-8.456l-2.818-14.568l0.471-10.809l3.758-9.871l1.409-7.517l-7.049-8.458l-1.879-8.459l4.699-9.4
	l1.177-13.159l-8.223-9.165l-8.694-2.819l-5.406-0.468l-8.224-8.225l-6.109-9.163l-6.814-15.508l-0.938-12.453l2.114-18.093
	l5.404-3.996l7.517-7.987l-1.409-5.169l-2.585-1.41l-9.631-2.346l-7.751-10.104l-4.701-4.701l-11.278,3.292l-9.396-0.939
	l-1.41-5.874l-0.941-7.991l-1.175-11.747l-1.409-7.988l-1.645,1.881l-4.229,3.053l-14.804,1.176l-8.223,6.579l-2.819,6.107
	l4.935,10.104l2.114,4.229l-0.236,6.578l-6.342,6.112l-6.817,4.697l-6.813,3.054l-9.634,1.646l-9.634,2.582h-4.935l-3.759-2.115
	l-9.398,7.05l-8.459-1.41l-8.224-4.698l-5.64-3.057l-11.514-2.114l-8.928,1.88L506.881,70l-10.301-4.652L486.785,63.136z
	 M652.06,547.218l2.641,2.642l2.641-0.531l2.113-2.638l2.112-3.17l-0.525-3.963l-2.115-0.793l-4.227,4.227L652.06,547.218z"/>
<g>
	<path id="lake_lugano" fill="#CCD3DB" d="M603.754,562.505c0.441,0.805,1.326,1.736,1.572,2.62c0.333,1.213-0.054,2.937,0,4.193
		c0.117,2.759,0.557,6.42,0.785,9.17c0.162,1.967,0.592,4.584,0.526,6.553c-0.058,1.588-1.087,3.679-0.79,5.239
		c0.324,1.694,1.737,3.69,2.883,4.979c0.522,0.588,1.504,1.06,2.098,1.571c0.422,0.365,1.096,0.798,1.31,1.312
		c0.633,1.524-0.946,4.152,0,5.504c0.529,0.752,1.971,1.169,2.881,1.048c1.623-0.215,3.222-2.073,4.455-3.146
		c1.471-1.271,3.113-3.305,4.457-4.716c1.803-1.891,4.127-4.49,6.025-6.287c1.054-0.999,2.861-1.942,3.668-3.147
		c0.558-0.823,0.376-2.412,1.049-3.145c0.808-0.88,2.495-1.332,3.668-1.57c0.771-0.156,1.888-0.289,2.62,0
		c1.397,0.551,2.589,2.363,3.67,3.405c1.682,1.621,4.365,3.463,5.502,5.504c0.67,1.2,0.861,3.096,1.049,4.453
		c0.256,1.87-0.563,4.59,0.261,6.293c0.318,0.651,1.142,1.368,1.834,1.568c0.534,0.155,1.365,0.039,1.835-0.26
		c1.342-0.859,2.392-2.941,2.883-4.455c0.441-1.348,0.566-3.336,0.261-4.717c-0.285-1.306-1.371-2.81-2.095-3.932
		c-0.7-1.086-1.771-2.438-2.62-3.406c-1.029-1.169-2.812-2.371-3.668-3.668c-0.933-1.412-1.607-3.622-2.1-5.241
		c-0.442-1.461-0.891-3.459-1.045-4.98c-0.222-2.11-0.163-4.956,0-7.073c0.154-2.062,0.419-4.842,1.045-6.813
		c0.268-0.837,0.937-1.825,1.31-2.621c0.663-1.399,1.371-3.351,2.1-4.718c0.833-1.558,2.063-3.581,3.145-4.978
		c1.054-1.362,2.608-3.086,3.93-4.193c1.44-1.202,3.578-2.542,5.242-3.405c1.503-0.78,3.659-1.493,5.24-2.098
		c1.72-0.656,4.02-1.513,5.765-2.097c1.793-0.599,4.349-0.964,6.025-1.835c1.593-0.823,3.373-2.483,4.718-3.668
		c1.25-1.101,2.609-2.912,3.929-3.931c0.867-0.669,2.106-1.508,3.145-1.834c1.808-0.571,4.4-0.446,6.293-0.524
		c3.221-0.134,7.521-0.081,10.741,0c1.573,0.039,3.671,0.362,5.242,0.26c2.629-0.169,6.234-0.503,8.646-1.568
		c1.538-0.681,3.141-2.358,4.455-3.408c1.44-1.149,3.401-2.638,4.714-3.931c1.115-1.093,2.398-2.743,3.408-3.933
		c0.396-0.466,1.195-0.97,1.31-1.569c0.187-0.979-0.407-2.385-1.048-3.145c-0.745-0.889-2.245-1.817-3.404-1.835
		c-1.229-0.021-2.646,1.148-3.669,1.835c-0.692,0.465-1.433,1.326-2.097,1.834c-1.126,0.86-2.715,1.893-3.933,2.62
		c-1.148,0.685-2.683,1.625-3.93,2.096c-1.287,0.486-3.106,0.797-4.454,1.048c-1.64,0.31-3.847,0.596-5.504,0.785
		c-1.806,0.209-4.213,0.554-6.028,0.524c-2.056-0.028-4.756-0.819-6.812-0.784c-2.148,0.034-5.049,0.346-7.077,1.049
		c-1.198,0.414-2.557,1.485-3.668,2.095c-1.324,0.73-3.137,1.615-4.453,2.359c-0.397,0.224-0.906,0.569-1.311,0.784
		c-1.151,0.611-2.832,1.139-3.931,1.835c-1.036,0.658-2.217,1.817-3.145,2.621c-0.8,0.692-1.707,1.826-2.623,2.357
		c-0.857,0.5-2.219,0.683-3.145,1.049c-1.048,0.415-2.319,1.285-3.405,1.57c-0.916,0.241-2.208,0.132-3.145,0.264
		c-0.797,0.112-1.825,0.442-2.624,0.525c-1.64,0.161-3.878,0.299-5.504,0c-1.076-0.201-2.319-1.162-3.403-1.311
		c-0.861-0.12-2.052,0.509-2.884,0.261c-0.479-0.145-0.812-0.97-1.309-1.049c-0.664-0.104-1.631,0.304-2.097,0.788
		c-0.863,0.895-1.333,2.688-1.312,3.93c0.015,0.672,0.526,1.48,0.788,2.098c0.503,1.199,1.429,2.694,1.834,3.933
		c0.5,1.521,1.066,3.637,1.049,5.24c-0.018,1.448-0.692,3.312-1.049,4.718c-0.423,1.664-0.998,3.885-1.573,5.502
		c-0.601,1.691-1.782,3.802-2.356,5.504c-0.621,1.841-0.864,4.474-1.572,6.288c-0.717,1.835-2.201,4.035-3.145,5.766
		c-0.943,1.729-2.252,4.008-3.145,5.766c-0.75,1.471-1.351,3.669-2.358,4.979c-0.815,1.062-2.421,1.978-3.405,2.88
		c-1.308,1.206-2.55,3.514-4.191,4.194c-0.799,0.329-2.105,0.375-2.884,0c-1.36-0.653-2.242-2.721-3.145-3.933
		c-0.739-0.996-1.881-2.258-2.357-3.406c-0.494-1.18-0.778-2.913-0.786-4.192c-0.007-1.357,0.7-3.102,0.786-4.453
		c0.104-1.65-0.112-3.858-0.262-5.506c-0.106-1.181-0.29-2.762-0.524-3.929c-0.179-0.879-0.627-2.001-0.787-2.883
		c-0.298-1.631-0.522-3.845-0.522-5.504c0-1.656,0.181-3.877,0.522-5.503c0.258-1.213,0.766-2.811,1.312-3.931
		c0.621-1.272,1.922-2.695,2.62-3.932c0.727-1.287,1.772-3.014,2.096-4.456c0.141-0.611,0.369-1.585,0-2.096
		c-0.578-0.807-2.156-0.926-3.145-1.049c-1.016-0.123-2.457-0.127-3.403,0.264c-1.239,0.507-2.801,1.688-3.407,2.881
		c-0.998,1.969-0.53,5.132-0.525,7.336c0.002,1.029,0.596,2.438,0.266,3.41c-0.383,1.104-1.865,1.99-2.621,2.882
		c-0.654,0.766-1.689,1.697-2.099,2.62c-0.609,1.384-1.017,3.484-0.786,4.979C602.578,560.754,603.332,561.734,603.754,562.505z"/>
	<path id="lake_maggiore" fill="#CCD3DB" d="M497.628,468.694c0,0-0.224-0.528-0.281-0.769c-0.295-1.236-0.612-2.941-0.504-4.21
		c0.115-1.389,0.954-3.107,1.311-4.454c0.618-2.342,1.31-5.499,1.834-7.862c0.33-1.49,0.483-3.562,1.047-4.978
		c1.06-2.657,3.634-5.604,4.981-8.124c1.061-1.983,2.218-4.761,3.145-6.814c0.879-1.957,1.865-4.657,2.879-6.552
		c0.622-1.15,1.525-2.66,2.359-3.667c1.244-1.497,3.257-3.165,4.718-4.455c1.298-1.146,3.074-2.624,4.453-3.667
		c0.991-0.75,2.319-1.752,3.406-2.359c1.201-0.668,2.88-1.437,4.193-1.835c1.301-0.393,3.1-0.844,4.454-0.785
		c1.22,0.052,2.805,0.577,3.932,1.049c1.006,0.421,2.176,1.326,3.146,1.834c1.151,0.604,2.659,1.552,3.929,1.835
		c1.151,0.254,2.842,0.45,3.934,0c0.925-0.385,1.663-1.642,2.356-2.358c1.277-1.318,2.972-3.087,4.192-4.454
		c0.893-1,2.355-2.177,2.883-3.407c0.591-1.382,0.125-3.529,0.524-4.978c0.298-1.087,0.864-2.533,1.571-3.408
		c0.738-0.914,2.105-1.795,3.146-2.356c0.807-0.438,2.023-0.722,2.879-1.05c1.584-0.604,3.56-1.929,5.242-2.094
		c1.273-0.127,3.081,0.15,4.19,0.784c1.453,0.829,2.584,2.924,3.669,4.194c0.798,0.932,1.935,2.127,2.622,3.145
		c0.648,0.962,1.374,2.34,1.834,3.404c0.395,0.912,0.889,2.163,1.048,3.145c0.103,0.623-0.213,1.507,0,2.101
		c0.208,0.574,1.023,1.028,1.31,1.569c0.27,0.507,0.481,1.263,0.524,1.834c0.05,0.633,0.118,1.588-0.262,2.1
		c-0.46,0.621-1.664,0.704-2.355,1.045c-1.044,0.513-2.283,1.552-3.407,1.835c-0.992,0.25-2.395-0.143-3.408,0
		c-1.133,0.159-2.567,0.736-3.667,1.049c-1.65,0.47-3.842,1.134-5.504,1.573c-2.268,0.595-5.4,1.012-7.599,1.831
		c-2.405,0.898-5.62,2.298-7.602,3.934c-1.465,1.209-2.579,3.634-3.931,4.979c-1.627,1.62-4.177,3.353-6.027,4.718
		c-1.771,1.307-4.275,2.853-6.025,4.191c-2.041,1.561-4.887,3.552-6.552,5.502c-0.595,0.696-0.814,2.104-1.572,2.623
		c-0.791,0.536-2.228,0.248-3.145,0.521c-0.74,0.225-1.691,0.654-2.355,1.048c-1.11,0.659-2.463,1.744-3.408,2.621
		c-1.468,1.362-3.266,3.365-4.453,4.979c-1.088,1.475-2.304,3.612-3.145,5.241c-0.988,1.907-2.209,4.514-2.884,6.552
		c-0.333,0.994-0.785,3.403-0.785,3.403L497.628,468.694L497.628,468.694L497.628,468.694z"/>
</g>
</svg>
