<?xml version="1.0" encoding="utf-8"?>
<!-- Generator: Adobe Illustrator 16.0.0, SVG Export Plug-In . SVG Version: 6.00 Build 0)  -->
<!DOCTYPE svg PUBLIC "-//W3C//DTD SVG 1.1//EN" "http://www.w3.org/Graphics/SVG/1.1/DTD/svg11.dtd">
<svg version="1.1" id="Calque_1" xmlns="http://www.w3.org/2000/svg" xmlns:xlink="http://www.w3.org/1999/xlink" x="0px" y="0px"
	 width="1052px" height="694.488px" viewBox="0 0 1052 694.488" enable-background="new 0 0 1052 694.488" xml:space="preserve">
<path id="_x32_311" fill="#999999" d="M567.39,445.109l-4.171-6.748l1.933-7.719l3.534-8.686l-7.068-6.115l-3.861-5.143l1.93-5.785
	l0.973-23.465l1.283-6.756l-9.322-11.576l0.316-5.141l-13.176-3.539l-15.438-17.686l0.647-5.461l-9.646,1.928l-3.54-12.862
	l-6.111-3.856l-7.394-21.548l12.539-7.073l0.319-16.076l-7.398-3.542l0.643-9.002l6.433-2.574l4.177-7.397l-8.357,0.965
	l-6.687-3.712l-3.308,4.548l-17.616,3.299l-12.803,5.369l-4.541-13.624l-11.424,7.842l-12.252,10.891l-14.72,6.839l8.434,6.525
	c7.4,7.401,11.26,18.976,6.752,27.65l-3.026,5.813c-2.8,5.434-4.683,9.676-5.656,15.736c-1.282,8.033-3.536,13.503-6.429,17.363
	c-1.8,2.4-2.355,4.17-2.134,6.035c0.139,1.123,0.561,2.273,1.175,3.609c1.604,3.539,4.756,9.838,4.756,9.838
	c2.296-0.994,4.727-2.562,8.427-4.691c1.687-0.969,4.594-2.527,8.225-4.42l2.065,10.85l5.787,6.744l9.324,2.26l7.716,15.432
	l6.108,2.252l11.573-3.215l-0.646,6.436l3.547,4.498l-7.716,7.4l-1.93,16.721l1.28,8.037l-2.57,7.717l6.744,6.107l7.074,13.506
	l6.117,13.828l14.141,15.432l1.286,9.646l7.718,8.691l9.002,6.43v8.682l3.856,9.004l4.821-1.609l5.473,6.117l20.892-9.652
	l5.789-11.256l13.181-20.576l6.107-18.326l-0.756-9.834l-12.747-4.957L567.39,445.109z"/>
<path id="ofsnbr2313" fill="#666666" d="M765.745,466.033l7.533,10.477l-7.721,24.432l5.142,20.154l-7.716,7.291l-3.855,18.861
	l-12.864,14.574l-37.721-1.285l-9.006,3.43l-13.719,16.721l-6.859,27.861l5.145,12l-7.288,5.145l-27.012-6.436l-9.429,8.15
	l-21.436-18.436l-8.999,0.859l-5.572,9.859h-12.001l-4.719-7.717l1.502-12.861l-16.935-7.289l-12.003-13.289l-14.574,4.709
	l-15.858,0.436l-12.864-3.432l-4.715-10.289l12.749-13.287l5.14-10.287l0.975-8.359l3.213-6.43l4.821-1.611l5.471,6.113
	l20.892-9.646l5.792-11.258l13.178-20.576l6.107-18.326l-0.756-9.832l5.264-5.264h10.537l-2.636-30.273l-0.438-27.652l8.776-8.771
	l4.391-12.291l14.039-2.633l4.829-18.865l13.604-3.52l10.092-7.895l6.149-7.455l0.874-9.221l-8.343-2.193l5.266-22.38l17.113-3.073
	l21.072,3.511l1.165,6.994c3.064-0.069,6.062-0.427,9.002-1.145l2.559,11.704l12.723,16.674l17.556-1.752l-2.19,7.896l2.632,10.088
	l-2.632,14.486l0.875,11.408l6.143,7.463l-1.316,15.359l2.634,10.094l6.143,5.701l-1.321,9.662l6.145,20.619L765.745,466.033z
	 M670.084,248.382l1.32,8.771l-3.073,11.414l15.358,14.036l14.911-24.571l3.084-33.787l-11.854-3.955l-22.823,14.92L670.084,248.382
	z"/>
<path id="ofsnbr2302" fill="#999999" d="M330.431,408.408c0,0,0.003,3.266,0,3.266l4.175,10.283l9.004,5.143l9.322,2.256
	l-0.318,22.506l-2.252,6.113l-5.469,5.789l1.286,13.174l12.544,17.365l10.29-2.258l11.249,14.793l8.359,0.969l0.32-9.004l4.17-5.143
	l-1.927-11.26l-1.282-22.182l-4.505-7.068l-0.318-4.83l12.861-33.121l-5.142-8.357l-8.038-5.471l-10.29-1.287l3.838-14.252
	c-6.204,1.461-10.168,2.904-13.94,4.42l-5.329-9.768l5.785-6.111l-1.928-13.824l0.969-6.754l4.174-7.715l6.752-15.112l-0.643-16.077
	l-8.359-1.929l-6.116-7.716l-17.684,0.646l-28.616,2.571l-9.108-4.853l-8.883,8.885l-1.647,11.831l-1.24,14.041l-22.155,25.873
	l-7.331,2.441l11.465,17.025l12.538,9.004l27.653,6.436l0.455,14.859c4.006-0.043,7.293-0.838,11.309-3.297
	C327.603,409.992,328.948,409.221,330.431,408.408z"/>
<path id="ofsnbr2312" fill="#666666" d="M421.219,350.83l-10.087,1.359l-0.643-11.252l3.213-9.644l-3.858-7.071l0.646-18.648
	l-6.744-6.431l1.928-9.648l-11.579-5.465l-3.992-9.114l-22.158,6.604l-7.026-8.943l3.31-16.106l-14.87,2.476l-14.862,13.619
	c4.338,13.916-2.225,20.759-19.687,20.514l-10.527,10.524l9.108,4.859l28.616-2.574l17.684-0.644l6.114,7.714l8.36,1.93
	l0.642,16.078l-6.751,15.119l-4.172,7.713l-0.972,6.746l1.929,13.832l-5.785,6.105l5.328,9.773c3.776-1.516,7.74-2.959,13.94-4.42
	l-3.838,14.258l10.289,1.283l9.002-4.174l-1.602-6.436l10.605-9.004l16.718-6.43l7.65-11.053c0,0-3.149-6.309-4.758-9.848
	C421.782,353.104,421.357,351.955,421.219,350.83z"/>
<path id="ofsnbr2308" fill="#7F7F7F" d="M117.906,443.504l15.753-7.717l14.464-9.963l1.929-3.861l6.434-1.928l1.606-8.359
	l-2.895-6.111l1.288-11.895l16.4-22.184l2.667-23.041c-4.733-7.443-9.322-12.566-14.154-20.48
	c-7.073-11.578-10.693-17.892-12.299-28.822c-1.617-10.933-4.181-12.219-11.259-15.115c-8.33-3.407-13.012-8.218-10.605-18.324
	c1.604-6.75,0.643-9.002-5.469-15.114c-6.099-6.113-13.172-13.505-13.172-13.505c-0.956,0.152-0.646,1.928-1.929,3.858
	c-1.286,1.932-5.469,0.645-10.931,0.645c-5.471,0-10.316-0.851-15.207-2.938l1.708,10.229l-18.865,12.86l-2.581,8.142l9.005,17.146
	l16.718,14.146l13.717,19.299l8.575,9v21.006l-9.858,3.426l-10.29,14.143l-11.999,23.59l1.286,21.43l-7.722,11.146l4.717,22.721
	l9.431,4.285H96.37l11.252-8.693L117.906,443.504z"/>
<path id="ofsnbr2307" fill="#7F7F7F" d="M217.094,446c-5.787,4.82-8.297,10.357-12.373,16.475c-2.57,3.854-7.383,7.705-12.86,13.176
	c-2.888,2.885-4.501,5.459-5.786,9.645c-1.286,4.184-11.378,9.848-14.81,14.994c-0.723,1.09-7.727,9.605-12.851,15.969l7.672,11.791
	l14.31,27.771l8.145,3.852l10.287,13.717l13.93-6.111l-3.856-7.719l-1.285-15.432l4.499-7.072l30.227-28.295l6.109,1.285
	l-1.286-26.365l22.834-11.254l4.168-7.715l27.01-0.32l16.4-7.398l9.006,4.826l10.933,14.139l8.68,0.973l-1.283-13.174l5.466-5.785
	l2.25-6.117l0.318-22.506l-9.322-2.252l-9.002-5.145l-4.175-10.285v-3.27c-1.484,0.818-2.83,1.596-3.981,2.295
	c-4.01,2.453-7.308,3.254-11.302,3.301c0,0-0.469-14.863-0.466-14.863l-27.649-6.436l-12.542-9.004l-11.463-17.021l-3.82,1.273
	l-4.548,11.557l-21.333,18.861l1.935,8.477l-1.287,11.572l0.646,12.863l-3.546,8.355l-2.249,6.744l0.733,12.197
	c-1.399-0.721-2.679-1.82-3.948-3.191C223.198,452.797,220.004,449.703,217.094,446z"/>
<path id="ofsnbr2310" fill="#999999" d="M175.556,348.441l-2.667,23.043l-16.401,22.186l-1.286,11.893l2.893,6.111l-1.606,8.359
	l-6.433,1.928l-1.929,3.861l-14.464,9.965l-15.754,7.719l-10.286-0.971l-11.253,8.684l35.364,7.293l-7.5,14.574l-1.71,22.721
	l-8.577,19.719l11.575,6.863l23.254-19.725l9.636,13.607c5.12-6.359,12.125-14.887,12.852-15.973
	c3.43-5.143,13.524-10.814,14.811-14.994c1.286-4.184,2.893-6.754,5.785-9.648c5.478-5.475,10.29-9.324,12.86-13.18
	c4.071-6.111,6.586-11.654,12.373-16.469c2.912,3.701,6.104,6.791,8.527,9.396c1.27,1.367,2.543,2.473,3.95,3.184l-0.737-12.188
	l2.249-6.744l3.546-8.361l-0.647-12.859l1.286-11.574l-1.934-8.477l-3.725-6.471l-23.789,13.883
	c-0.667-5.797-2.519-11.311-5.276-13.086c-8.109-5.213-9.006-8.037-10.934-14.465c-1.929-6.434-3.345-10.406-6.346-17.691
	C181.441,356.111,178.818,353.02,175.556,348.441z"/>
<path id="ofsnbr2304" fill="#666666" d="M851.392,263.32c0,0-3.145,14.462-3.148,14.462l20.633,30.258l11.147-24.436l16.721-9.003
	l4.072-10.504l14.791-3.86l15.431-16.718l-5.147-12.862l-7.708-4.503l1.574-11.403l16.744-4.998l20.582-18.97l8.974-2.653L965,180.5
	l2.965-7.8l0.741-17.065l14.108,2.602l13.323-5.199l20.788-27.47l-9.088-7.438l-4.541,4.96l-18.436-12.385l3.715-6.474
	l-11.976-23.95l0.411-13.484l7.848-15.283v-19.4l-4.962-6.883l-8.671,0.824l-15.286,17.614l-4.947,25.884
	c-1.235,18.576-1.647,22.293-13.076,26.834c-7.413,2.945-11.974,5.922-14.873,10.743c-2.881,4.812-5.769,6.872-5.769,6.872
	l-13.489,8.265l-12.808,5.777l-32.483,5.777l-8.673,3.306l-6.193-11.152l-9.498,0.824l-18.026-12.378l-24.374-6.059l-5.778,1.93
	l-20.094-9.361l-8.255,0.817l-14.044,10.185l-12.246,3.311l-2.06,6.601c5.381,11.483,3.039,19.333-7.023,23.542l-6.189,2.895
	l-3.204,3.284l2.448,13.88l14.924,13.161l8.341,0.88l7.903,2.191l7.894-6.578l11.854-3.951l40.367,35.104l-9.219,16.676l8.778,5.701
	l7.446,22.551c9.322-1.909,21.108-8.695,21.978,5.513c0.216,3.531,5.013,11.856,13.484,7.817
	C849.801,264.144,850.596,263.742,851.392,263.32z"/>
<path id="ofsnbr2305" fill="#7F7F7F" d="M436.622,243.667l13.629,10.32l-12.252,10.89l-14.719,6.843l8.433,6.521
	c7.401,7.397,11.26,18.97,6.752,27.653l-3.025,5.812c-2.801,5.441-4.684,9.671-5.656,15.731c-1.286,8.036-3.537,13.5-6.43,17.364
	c-1.799,2.404-2.355,4.178-2.133,6.037l-10.087,1.359l-0.643-11.258l3.215-9.646l-3.862-7.071l0.646-18.65l-6.744-6.431l1.929-9.646
	l-11.58-5.46l-3.992-9.119l12.389-11.013L436.622,243.667z M530.093,546.389l0.97-8.359l3.217-6.43l-3.857-9.004v-8.682
	l-9.004-6.436l-7.717-8.688l-1.286-9.645l-14.139-15.432l-6.118-13.83l-7.073-13.51l-6.744-6.104l2.57-7.719l-1.281-8.035
	l1.931-16.721l7.716-7.398l-3.548-4.5l0.646-6.436l-11.576,3.217l-6.106-2.254l-7.719-15.428l-9.322-2.258l-5.788-6.744
	l-2.062-10.854c-3.637,1.895-6.538,3.457-8.226,4.418c-3.692,2.133-6.13,3.701-8.424,4.693l-7.651,11.057l-16.718,6.432
	l-10.608,9.004l1.604,6.432l-9,4.176l8.038,5.465l5.145,8.359l-12.862,33.115l0.314,4.828l4.505,7.076l1.283,22.184l1.927,11.254
	l-4.171,5.145l-0.32,9.002l3.217,20.58l8.036,20.574l7.071,3.861l2.886,6.113l11.26,9.967l2.891-2.578l9.646,0.963l10.286-0.963
	l9.645,4.506l4.826,8.68l6.151,8.275l-0.789,7.91l11.578-4.717l12.002,4.717l8.143-6.006v-15.432l8.575-4.285h8.145l12.746-13.289
	L530.093,546.389z"/>
<path id="ofsnbr2301" fill="#7F7F7F" d="M799.09,289.629l-27.43-12.016c-2.816,2.839-4.854,5.672-6.215,7.702
	c-2.071,3.104-3.88,4.883-6.888,6.702l-9.488-14.237l1.751-29.398l7.895-12.287l30.282-26.325l-16.234-16.236l-26.324-11.854
	l-7.902-2.189l-8.346-0.881l-6.586,5.267l-3.949,8.776l-29.843,27.643l11.853,3.951l-3.076,33.786l-14.912,24.575l0.434,12.287
	l-4.828,10.088l21.066,3.513l1.171,6.995c3.062-0.075,6.064-0.428,9.004-1.142l2.557,11.702l12.725,16.674l17.554-1.758
	l-2.192,7.898l2.634,10.102l-2.634,14.477l0.875,11.418l6.145,7.455l-1.316,15.355l2.634,10.096l6.141,5.701l-1.317,9.656
	l6.145,20.629l5.262,12.287l7.528,10.473l39.87-8.145l6.001-17.576l21.006-11.146l-4.286-13.291l9.433-16.289l-7.718-12.008
	l-10.074-25.291l-15.215-15.428l-15.434-12.863l34.297-32.153l-7.921-6.456L799.09,289.629z"/>
<polygon id="ofsnbr2303" fill="#666666" points="458.398,579.506 453.574,570.824 443.929,566.324 433.639,567.287 423.994,566.324 
	421.105,568.895 409.844,558.93 406.958,552.818 399.885,548.959 391.842,528.387 388.627,507.807 380.265,506.844 369.018,492.053 
	358.728,494.303 346.184,476.939 337.509,475.975 326.575,461.83 317.573,457.006 301.174,464.402 274.163,464.723 269.99,472.439 
	247.158,483.691 248.447,510.059 242.339,508.771 212.115,537.064 207.615,544.137 208.901,559.572 212.759,567.287 
	198.827,573.396 190.681,582.398 198.397,593.973 209.112,594.828 206.113,606.836 212.115,620.986 222.405,635.982 230.12,652.705 
	239.124,663.424 241.696,674.996 252.841,674.996 265.7,660.85 275.132,659.564 287.138,671.137 296.14,672.854 300.423,661.703 
	315.857,646.271 327.431,647.557 333.434,650.562 354.012,623.121 369.445,632.125 384.876,629.982 404.596,644.129 414.457,634.27 
	424.318,631.697 445.75,611.545 455.614,610.693 456.471,601.689 463.756,595.688 464.551,587.781 "/>
<path id="ofsnbr2309" fill="#999999" d="M851.392,263.32l-3.148,14.462l20.633,30.258l-28.511,12.646l-9.221-8.359l-7.923-6.456
	l-24.136-16.236l-27.43-12.016c-2.815,2.844-4.856,5.677-6.214,7.7c-2.074,3.109-3.88,4.883-6.889,6.706l-9.488-14.241l1.752-29.398
	l7.895-12.292l30.281-26.325l-16.236-16.231l-26.323-11.85l7.895-6.585l11.851-3.946l40.371,35.1l-9.223,16.676l8.781,5.707
	l7.446,22.545c9.322-1.911,21.108-8.695,21.979,5.516c0.217,3.526,5.012,11.854,13.483,7.811
	C849.801,264.144,850.596,263.742,851.392,263.32z M683.96,172.507l-24.288-0.045l-30.899,23.852l-41.986,27.67l-10.171,17.814
	l7.46,3.518l3.513,10.087l0.438,9.216l10.969-4.821l12.988,0.669c-0.19,8.143-0.119,16.919,0.107,20.683
	c0.316,5.46-0.322,10.605-2.895,13.823c-2.571,3.221-2.302,6.33,0.591,14.048l2.377,23.625l-9.214,3.511l8.341,24.57l-6.145,7.898
	l10.537,13.602l14.036-2.631l4.83-18.867l13.604-3.51l10.093-7.896l6.147-7.463l0.871-9.22l-8.34-2.188l5.268-22.386l17.113-3.076
	l4.826-10.089l-0.435-12.287l-15.357-14.042l3.074-11.408l-1.321-8.778l-3.076-13.165l22.823-14.922l29.836-27.64l3.95-8.778
	l6.589-5.26l-14.921-13.17l-2.452-13.879l-7.53,7.721L683.96,172.507z"/>
<path id="ofsnbr2306" fill="#7F7F7F" d="M611.283,360.717l-8.341-24.572l9.214-3.512l-2.377-23.625
	c-2.893-7.716-3.162-10.831-0.592-14.049c2.573-3.213,3.215-8.358,2.895-13.825c-0.222-3.759-0.294-12.54-0.108-20.684
	l-12.988-0.668l-10.967,4.821l-0.438-9.212l-3.513-10.089l-7.46-3.516l10.171-17.813l-9.772-8.26l-39.226-20.646l-11.001,28.495
	l-7.845-2.895l-16.107,4.521l-11.832,3.324l-5.79,8.128l14.731,9.911l6.687,3.714l8.359-0.964l-4.181,7.396l-6.433,2.571
	l-0.645,9.002l7.396,3.542l-0.314,16.075l-12.539,7.075l7.394,21.546l6.111,3.861l3.542,12.862l9.646-1.931l-0.646,5.459
	l15.438,17.688l13.174,3.545l-0.317,5.137l9.322,11.58l-1.284,6.752l-0.972,23.465l-1.93,5.789l3.862,5.143l7.068,6.115
	l-3.535,8.682l-1.929,7.717l4.169,6.748l9.649,16.398l12.745,4.957l5.262-5.26h10.537l-2.637-30.283l-0.437-27.641l8.776-8.781
	l4.391-12.287l-10.533-13.611L611.283,360.717z"/>
<g>
	<path fill="#CDD4DB" d="M141.7,207.185c-4.501-5.787-10.288-7.398-18.008-9.324c-12.495-3.125-15.107-5.792-24.111-15.11
		c-6.392-6.615-16.364-9.757-24.396-9.757c-8.034,0-12.953-1.291-20.614-7.607c-5.469-4.5-9.004-8.043-14.475-4.5
		c-4.118,2.666-8.019,0.222-9.967-1.607c-0.922-0.869-1.888-1.645-2.869-2.378v68.325c11.216,0.385,24.023,4.611,29.242,7.681
		c5.465,3.226,8.038,3.542,13.825,3.542s7.935,1.235,10.193,2.205c4.894,2.092,9.733,2.94,15.208,2.94
		c5.463,0,9.644,1.282,10.93-0.645c1.281-1.929,0.976-3.71,1.929-3.858c6.109-0.968,14.485-1.664,21.863-0.968
		c10.286,0.964,13.088,1.375,15.433-0.965c1.606-1.607,2.37-7.192,3.215-11.254C149.939,219.846,143.954,210.073,141.7,207.185z"/>
</g>
</svg>
