<?xml version="1.0" encoding="utf-8"?>
<!-- Generator: Adobe Illustrator 16.0.0, SVG Export Plug-In . SVG Version: 6.00 Build 0)  -->
<!DOCTYPE svg PUBLIC "-//W3C//DTD SVG 1.1//EN" "http://www.w3.org/Graphics/SVG/1.1/DTD/svg11.dtd">
<svg version="1.1" id="Calque_1" xmlns="http://www.w3.org/2000/svg" xmlns:xlink="http://www.w3.org/1999/xlink" x="0px" y="0px"
	 width="595.279px" height="841.891px" viewBox="0 0 595.279 841.891" enable-background="new 0 0 595.279 841.891"
	 xml:space="preserve">
<path id="_x32_601" fill-rule="evenodd" clip-rule="evenodd" fill="#989898" d="M420.216,332.147l-7.932-17.891l-6.306-0.392
	l-11.038-3.273l-12.615-10.25l0.301-7.39l-25.913,1.717l-22.7,12.851l-11.365,12.992l1.386,13.985l-14.227,21.847l-27,32.919
	l-15.698,18.292l0.276,5.482l22.324-3.304l22.024-1.978l3.424,8.143h53.553l17.344-15.702l21.727-6.145l62.639,10.391l31.586-17.278
	l-10.146,1.526v-8.672l14.914-11.405l-12.51-5.296l-12.043-14.251l-24.839,1.742l-15.371-6.887l-10.592-2.651
	c-0.005,0.002-3.147-12.583-3.147-12.583C425.386,329.494,422.716,330.648,420.216,332.147z"/>
<polygon id="_x32_603" fill-rule="evenodd" clip-rule="evenodd" fill="#666666" points="253.164,371.674 271.088,364.967 
	279.273,372.879 282.807,389.262 309.807,356.343 324.033,334.496 322.648,320.511 334.013,307.519 327.366,290.381 
	310.018,294.879 292.458,291.239 304.238,256.11 307.45,248.831 287.318,250.543 270.182,241.12 238.697,251.828 212.781,239.408 
	191.791,248.831 196.931,282.67 167.374,297.665 165.233,319.512 152.811,319.938 148.097,335.359 136.104,340.5 132.676,361.92 
	146.385,359.776 165.233,360.635 185.365,357.207 208.497,350.781 225.633,354.209 228.632,376.483 237.828,377.056 "/>
<path id="_x32_602" fill-rule="evenodd" clip-rule="evenodd" fill="#7F7F7F" d="M127.109,507.993l10.281,17.56l33.413-27.409
	l17.133,8.564l9.854-15.421l13.707-1.717l21.192-36.596l9.651-5.382l5.14,8.143l33.129-6.556l3.709-0.733l-5.567-16.274
	l12.852-5.994l-1.893-16.445l-22.324,3.304l-0.276-5.482l15.698-18.292l-3.534-16.383l-8.185-7.912l-17.924,6.707l-15.336,5.382
	l-9.196-0.572l-4.714,6.425l-18.847,2.568l-1.24,18.936c-0.836,0.672-1.677,1.436-2.724,2.269c-3.213,2.57-7.068,3.855-12.53,4.498
	s-9.638,2.569-16.064,2.892c-6.425,0.32-6.747,1.605-4.819,5.461c1.927,3.855,1.606,8.354,1.285,16.064
	c-0.321,7.711-0.643,9.316,1.606,13.172c2.249,3.855,2.729,5.08-1.927,7.711c-14.779,8.354-31.164,24.417-35.019,29.236
	c-1.928,1.605-4.177,4.176-4.819,6.426c-0.643,2.248-1.928,4.497-4.177,6.746s-5.141,3.855-9.317,6.426
	c-4.177,2.57-3.855,4.177-2.249,6.747c1.15,1.837,1.428,2.972,1.617,3.945l5.612-3.624L127.109,507.993z"/>
<g display="none">
	<g display="inline">
		<path fill="#1A171B" d="M151.415,415.29v-18.398h12.412v2.174h-9.977v5.692h8.634v2.174h-8.634v8.358H151.415z"/>
		<path fill="#1A171B" d="M166.676,415.29v-13.328h2.033v2.022c0.52-0.948,0.996-1.57,1.438-1.872
			c0.437-0.301,0.921-0.452,1.448-0.452c0.76,0,1.536,0.241,2.322,0.729l-0.778,2.098c-0.552-0.331-1.104-0.491-1.656-0.491
			c-0.495,0-0.937,0.15-1.331,0.446c-0.394,0.297-0.672,0.708-0.841,1.235c-0.251,0.803-0.376,1.682-0.376,2.636v6.978H166.676z"/>
		<path fill="#1A171B" d="M183.957,413.644c-0.836,0.712-1.642,1.214-2.415,1.506c-0.775,0.296-1.606,0.441-2.492,0.441
			c-1.463,0-2.59-0.356-3.376-1.074c-0.786-0.713-1.18-1.626-1.18-2.741c0-0.652,0.148-1.25,0.447-1.787
			c0.296-0.542,0.685-0.974,1.165-1.3c0.482-0.326,1.024-0.572,1.626-0.737c0.444-0.121,1.112-0.231,2.008-0.342
			c1.825-0.216,3.167-0.477,4.028-0.778c0.008-0.312,0.013-0.507,0.013-0.587c0-0.924-0.213-1.571-0.64-1.948
			c-0.578-0.512-1.436-0.763-2.573-0.763c-1.062,0-1.848,0.186-2.354,0.557c-0.504,0.372-0.878,1.029-1.122,1.973l-2.208-0.301
			c0.201-0.943,0.532-1.707,0.991-2.289c0.459-0.582,1.125-1.029,1.996-1.34c0.871-0.316,1.877-0.473,3.024-0.473
			c1.137,0,2.063,0.136,2.773,0.402c0.71,0.266,1.235,0.602,1.569,1.009c0.334,0.406,0.57,0.919,0.703,1.536
			c0.076,0.387,0.113,1.084,0.113,2.088v3.012c0,2.099,0.048,3.424,0.143,3.981c0.098,0.558,0.289,1.089,0.572,1.602h-2.359
			C184.176,414.823,184.025,414.275,183.957,413.644z M183.769,408.604c-0.821,0.331-2.051,0.617-3.689,0.854
			c-0.929,0.13-1.586,0.281-1.971,0.451c-0.384,0.166-0.683,0.412-0.891,0.733c-0.208,0.321-0.314,0.677-0.314,1.074
			c0,0.603,0.229,1.104,0.683,1.506c0.457,0.401,1.125,0.603,2.003,0.603c0.871,0,1.644-0.191,2.322-0.572
			c0.678-0.382,1.175-0.904,1.494-1.566c0.243-0.507,0.364-1.26,0.364-2.259V408.604z"/>
		<path fill="#1A171B" d="M189.554,415.29v-13.328h2.033v1.893c0.979-1.461,2.392-2.194,4.242-2.194
			c0.803,0,1.541,0.146,2.216,0.432c0.672,0.292,1.177,0.668,1.511,1.141c0.334,0.467,0.57,1.023,0.703,1.666
			c0.083,0.417,0.126,1.149,0.126,2.199v8.192h-2.259v-8.107c0-0.919-0.088-1.606-0.263-2.063c-0.176-0.457-0.487-0.823-0.937-1.094
			c-0.447-0.271-0.971-0.407-1.574-0.407c-0.961,0-1.792,0.307-2.493,0.919c-0.697,0.607-1.046,1.767-1.046,3.474v7.279H189.554z"/>
		<path fill="#1A171B" d="M212.546,410.41l2.221,0.286c-0.243,1.531-0.863,2.731-1.865,3.595c-0.999,0.868-2.227,1.3-3.682,1.3
			c-1.825,0-3.291-0.597-4.4-1.787c-1.107-1.194-1.662-2.901-1.662-5.13c0-1.436,0.238-2.696,0.715-3.775s1.202-1.888,2.176-2.43
			c0.976-0.537,2.035-0.809,3.183-0.809c1.448,0,2.63,0.367,3.551,1.1c0.921,0.733,1.511,1.772,1.77,3.117l-2.196,0.337
			c-0.208-0.894-0.58-1.566-1.112-2.019c-0.529-0.451-1.172-0.678-1.925-0.678c-1.137,0-2.063,0.407-2.774,1.226
			c-0.71,0.813-1.066,2.103-1.066,3.87c0,1.792,0.344,3.092,1.029,3.905c0.686,0.809,1.582,1.215,2.686,1.215
			c0.886,0,1.627-0.271,2.222-0.813C212.011,412.373,212.387,411.535,212.546,410.41z"/>
		<path fill="#1A171B" d="M216.699,415.29v-18.398h2.259v6.602c1.054-1.22,2.384-1.833,3.991-1.833c0.986,0,1.845,0.196,2.573,0.583
			c0.728,0.392,1.25,0.929,1.561,1.611c0.316,0.688,0.472,1.687,0.472,2.991v8.444h-2.259v-8.444c0-1.134-0.246-1.952-0.733-2.469
			c-0.492-0.513-1.182-0.773-2.078-0.773c-0.67,0-1.3,0.176-1.887,0.521c-0.593,0.347-1.012,0.818-1.263,1.416
			c-0.251,0.592-0.376,1.41-0.376,2.46v7.289H216.699z"/>
		<path fill="#1A171B" d="M240.117,410.998l2.334,0.286c-0.369,1.365-1.049,2.425-2.045,3.177c-0.997,0.754-2.267,1.13-3.815,1.13
			c-1.95,0-3.496-0.603-4.636-1.802c-1.145-1.2-1.714-2.882-1.714-5.051c0-2.243,0.577-3.98,1.732-5.221
			c1.154-1.239,2.653-1.857,4.493-1.857c1.782,0,3.238,0.607,4.368,1.822c1.129,1.21,1.694,2.917,1.694,5.121
			c0,0.13-0.005,0.331-0.012,0.602h-9.939c0.083,1.461,0.497,2.581,1.242,3.363c0.746,0.773,1.674,1.165,2.786,1.165
			c0.828,0,1.536-0.216,2.121-0.652C239.309,412.645,239.774,411.951,240.117,410.998z M232.7,407.348h7.442
			c-0.101-1.124-0.384-1.962-0.854-2.524c-0.72-0.868-1.651-1.306-2.799-1.306c-1.036,0-1.91,0.347-2.618,1.039
			C233.168,405.255,232.776,406.184,232.7,407.348z"/>
		<path fill="#1A171B" d="M244.385,411.314l2.234-0.352c0.125,0.894,0.475,1.576,1.047,2.058c0.575,0.472,1.375,0.713,2.404,0.713
			c1.037,0,1.808-0.211,2.31-0.632c0.502-0.422,0.753-0.919,0.753-1.486c0-0.512-0.221-0.914-0.665-1.205
			c-0.309-0.201-1.08-0.457-2.31-0.768c-1.656-0.417-2.804-0.778-3.446-1.084c-0.637-0.307-1.124-0.729-1.456-1.271
			c-0.329-0.537-0.495-1.135-0.495-1.787c0-0.593,0.136-1.145,0.409-1.651c0.271-0.508,0.64-0.924,1.109-1.26
			c0.352-0.262,0.831-0.478,1.436-0.658c0.607-0.181,1.258-0.271,1.953-0.271c1.047,0,1.963,0.151,2.756,0.452
			c0.788,0.302,1.373,0.708,1.75,1.225c0.376,0.513,0.635,1.2,0.778,2.063l-2.208,0.301c-0.101-0.688-0.392-1.22-0.871-1.605
			c-0.482-0.387-1.162-0.578-2.041-0.578c-1.037,0-1.777,0.171-2.221,0.518c-0.444,0.342-0.666,0.743-0.666,1.205
			c0,0.291,0.093,0.552,0.276,0.787c0.183,0.241,0.472,0.442,0.866,0.604c0.226,0.085,0.891,0.275,1.996,0.576
			c1.599,0.428,2.713,0.778,3.346,1.05c0.63,0.271,1.127,0.668,1.486,1.185c0.359,0.518,0.54,1.165,0.54,1.933
			c0,0.753-0.218,1.461-0.66,2.129c-0.437,0.662-1.071,1.18-1.9,1.541c-0.828,0.366-1.764,0.547-2.811,0.547
			c-1.732,0-3.052-0.361-3.958-1.079C245.216,413.794,244.635,412.725,244.385,411.314z"/>
		<path fill="#1A171B" d="M257.261,409.768v-2.269h6.94v2.269H257.261z"/>
		<path fill="#1A171B" d="M145.482,440.992v-18.398h3.665l4.355,13.027c0.401,1.215,0.695,2.118,0.878,2.721
			c0.208-0.668,0.535-1.652,0.979-2.947l4.405-12.801h3.275v18.398h-2.347v-15.401l-5.346,15.401h-2.196l-5.321-15.662v15.662
			H145.482z"/>
		<path fill="#1A171B" d="M165.838,434.325c0-2.465,0.685-4.292,2.058-5.481c1.147-0.989,2.542-1.48,4.191-1.48
			c1.833,0,3.331,0.602,4.493,1.802s1.744,2.856,1.744,4.975c0,1.717-0.258,3.062-0.771,4.046c-0.517,0.984-1.265,1.747-2.249,2.294
			c-0.981,0.542-2.056,0.813-3.218,0.813c-1.865,0-3.373-0.598-4.522-1.797C166.412,438.301,165.838,436.579,165.838,434.325z
			 M168.159,434.325c0,1.707,0.371,2.987,1.117,3.835c0.746,0.849,1.682,1.275,2.811,1.275c1.122,0,2.053-0.427,2.799-1.28
			c0.746-0.853,1.117-2.153,1.117-3.9c0-1.651-0.374-2.901-1.125-3.75c-0.748-0.849-1.679-1.27-2.792-1.27
			c-1.129,0-2.065,0.421-2.811,1.265S168.159,432.619,168.159,434.325z"/>
		<path fill="#1A171B" d="M180.973,440.992v-13.328h2.033v1.893c0.979-1.461,2.392-2.193,4.242-2.193
			c0.803,0,1.541,0.145,2.216,0.432c0.672,0.291,1.177,0.667,1.511,1.139c0.334,0.467,0.57,1.024,0.703,1.667
			c0.083,0.417,0.125,1.149,0.125,2.198v8.193h-2.259v-8.107c0-0.919-0.088-1.606-0.264-2.063c-0.176-0.456-0.487-0.823-0.936-1.095
			c-0.447-0.271-0.971-0.406-1.574-0.406c-0.961,0-1.792,0.307-2.492,0.919c-0.698,0.607-1.047,1.767-1.047,3.474v7.279H180.973z"/>
		<path fill="#1A171B" d="M200.199,438.974l0.327,1.993c-0.635,0.136-1.205,0.201-1.707,0.201c-0.821,0-1.456-0.131-1.908-0.387
			c-0.452-0.262-0.771-0.603-0.954-1.024s-0.276-1.315-0.276-2.671v-7.665h-1.656v-1.757h1.656v-3.299l2.247-1.354v4.653h2.271
			v1.757h-2.271v7.796c0,0.643,0.041,1.055,0.118,1.24c0.08,0.186,0.21,0.331,0.392,0.437c0.178,0.11,0.437,0.165,0.771,0.165
			C199.459,439.059,199.79,439.029,200.199,438.974z"/>
		<path fill="#1A171B" d="M211.105,439.346c-0.836,0.713-1.642,1.215-2.415,1.506c-0.775,0.296-1.606,0.441-2.492,0.441
			c-1.463,0-2.59-0.356-3.376-1.074c-0.786-0.713-1.18-1.627-1.18-2.741c0-0.652,0.148-1.249,0.447-1.787
			c0.296-0.542,0.685-0.974,1.165-1.3c0.482-0.326,1.024-0.572,1.626-0.738c0.444-0.12,1.112-0.23,2.008-0.341
			c1.825-0.216,3.168-0.478,4.029-0.778c0.007-0.312,0.012-0.507,0.012-0.588c0-0.923-0.213-1.57-0.64-1.947
			c-0.577-0.512-1.436-0.763-2.573-0.763c-1.062,0-1.847,0.186-2.354,0.557c-0.504,0.372-0.878,1.029-1.122,1.974l-2.208-0.302
			c0.201-0.943,0.532-1.706,0.991-2.289c0.459-0.582,1.125-1.029,1.996-1.341c0.871-0.315,1.877-0.471,3.024-0.471
			c1.137,0,2.063,0.135,2.773,0.401c0.71,0.266,1.235,0.603,1.569,1.009s0.57,0.918,0.703,1.536
			c0.076,0.387,0.113,1.084,0.113,2.088v3.013c0,2.098,0.048,3.423,0.144,3.98c0.098,0.557,0.289,1.089,0.572,1.602h-2.359
			C211.323,440.525,211.173,439.978,211.105,439.346z M210.917,434.305c-0.821,0.332-2.051,0.618-3.69,0.854
			c-0.929,0.131-1.586,0.281-1.97,0.452c-0.384,0.166-0.683,0.412-0.891,0.733c-0.208,0.32-0.313,0.678-0.313,1.074
			c0,0.602,0.229,1.104,0.683,1.506c0.457,0.401,1.125,0.603,2.003,0.603c0.871,0,1.644-0.191,2.322-0.572
			c0.678-0.382,1.175-0.904,1.494-1.566c0.243-0.507,0.364-1.261,0.364-2.259V434.305z"/>
		<path fill="#1A171B" d="M216.288,442.096l2.196,0.327c0.093,0.678,0.346,1.169,0.766,1.48c0.56,0.417,1.325,0.628,2.296,0.628
			c1.047,0,1.853-0.211,2.422-0.628s0.954-1.004,1.155-1.757c0.118-0.462,0.17-1.426,0.163-2.901
			c-0.986,1.164-2.216,1.747-3.69,1.747c-1.832,0-3.25-0.663-4.254-1.983s-1.506-2.906-1.506-4.754c0-1.274,0.231-2.449,0.69-3.523
			c0.459-1.075,1.127-1.903,2-2.49c0.876-0.587,1.903-0.878,3.083-0.878c1.574,0,2.869,0.637,3.891,1.907v-1.606h2.083v11.521
			c0,2.073-0.21,3.544-0.632,4.413c-0.424,0.863-1.095,1.551-2.008,2.053c-0.919,0.502-2.046,0.753-3.384,0.753
			c-1.589,0-2.874-0.361-3.853-1.074C216.727,444.611,216.255,443.537,216.288,442.096z M218.158,434.09
			c0,1.746,0.346,3.026,1.042,3.83c0.695,0.803,1.564,1.205,2.61,1.205c1.037,0,1.908-0.402,2.61-1.2
			c0.703-0.798,1.054-2.054,1.054-3.76c0-1.632-0.361-2.861-1.084-3.69c-0.725-0.828-1.596-1.239-2.618-1.239
			c-1.004,0-1.857,0.406-2.56,1.22C218.509,431.273,218.158,432.483,218.158,434.09z"/>
		<path fill="#1A171B" d="M230.996,440.992v-13.328h2.033v1.893c0.979-1.461,2.392-2.193,4.242-2.193
			c0.803,0,1.542,0.145,2.216,0.432c0.673,0.291,1.177,0.667,1.511,1.139c0.333,0.467,0.57,1.024,0.703,1.667
			c0.083,0.417,0.125,1.149,0.125,2.198v8.193h-2.259v-8.107c0-0.919-0.088-1.606-0.264-2.063c-0.176-0.456-0.487-0.823-0.936-1.095
			c-0.447-0.271-0.972-0.406-1.574-0.406c-0.961,0-1.792,0.307-2.492,0.919c-0.698,0.607-1.047,1.767-1.047,3.474v7.279H230.996z"/>
		<path fill="#1A171B" d="M254.414,436.699l2.334,0.287c-0.369,1.365-1.049,2.424-2.045,3.178c-0.997,0.752-2.267,1.129-3.815,1.129
			c-1.95,0-3.496-0.603-4.636-1.802c-1.145-1.2-1.714-2.882-1.714-5.05c0-2.244,0.577-3.981,1.732-5.222
			c1.154-1.239,2.653-1.856,4.493-1.856c1.782,0,3.238,0.607,4.368,1.822c1.129,1.209,1.694,2.916,1.694,5.119
			c0,0.131-0.005,0.332-0.012,0.604h-9.939c0.083,1.46,0.497,2.58,1.242,3.363c0.745,0.772,1.674,1.164,2.786,1.164
			c0.828,0,1.536-0.216,2.121-0.652C253.606,438.347,254.071,437.653,254.414,436.699z M246.997,433.051h7.442
			c-0.101-1.125-0.384-1.963-0.854-2.525c-0.72-0.869-1.651-1.306-2.799-1.306c-1.036,0-1.91,0.347-2.618,1.04
			C247.464,430.957,247.073,431.886,246.997,433.051z"/>
		<path fill="#1A171B" d="M258.681,437.016l2.234-0.352c0.125,0.895,0.475,1.577,1.047,2.059c0.575,0.473,1.375,0.713,2.404,0.713
			c1.037,0,1.807-0.211,2.309-0.633c0.502-0.421,0.753-0.918,0.753-1.485c0-0.513-0.221-0.914-0.666-1.205
			c-0.309-0.2-1.079-0.456-2.309-0.768c-1.657-0.417-2.804-0.778-3.446-1.085c-0.638-0.306-1.125-0.728-1.456-1.27
			c-0.329-0.537-0.495-1.135-0.495-1.787c0-0.593,0.136-1.145,0.409-1.651c0.271-0.507,0.64-0.924,1.109-1.261
			c0.352-0.261,0.831-0.477,1.436-0.657c0.607-0.181,1.258-0.271,1.953-0.271c1.046,0,1.963,0.15,2.756,0.451
			c0.788,0.301,1.373,0.708,1.75,1.225c0.376,0.513,0.635,1.2,0.778,2.063l-2.208,0.302c-0.101-0.688-0.392-1.221-0.871-1.607
			c-0.482-0.386-1.162-0.577-2.041-0.577c-1.037,0-1.777,0.171-2.222,0.518c-0.444,0.341-0.665,0.743-0.665,1.204
			c0,0.292,0.093,0.553,0.276,0.789c0.183,0.24,0.472,0.441,0.866,0.602c0.226,0.086,0.891,0.276,1.996,0.578
			c1.599,0.426,2.713,0.777,3.346,1.049c0.63,0.271,1.127,0.668,1.486,1.185s0.54,1.165,0.54,1.933c0,0.753-0.218,1.461-0.66,2.129
			c-0.437,0.662-1.071,1.18-1.9,1.541c-0.828,0.366-1.764,0.547-2.811,0.547c-1.732,0-3.052-0.361-3.958-1.079
			C259.512,439.496,258.932,438.427,258.681,437.016z"/>
	</g>
	<g display="inline">
		<path fill="#1A171B" d="M190.387,324.263v-18.398h6.94c1.223,0,2.154,0.06,2.799,0.176c0.904,0.15,1.662,0.437,2.271,0.858
			c0.61,0.421,1.102,1.014,1.474,1.777c0.374,0.763,0.56,1.596,0.56,2.51c0,1.566-0.497,2.886-1.493,3.971
			c-0.997,1.084-2.794,1.626-5.396,1.626h-4.719v7.48H190.387z M192.823,314.615h4.756c1.574,0,2.691-0.296,3.351-0.883
			c0.66-0.583,0.992-1.406,0.992-2.47c0-0.769-0.193-1.431-0.585-1.979c-0.387-0.547-0.901-0.908-1.536-1.084
			c-0.409-0.11-1.167-0.161-2.271-0.161h-4.706V314.615z"/>
		<path fill="#1A171B" d="M206.401,317.597c0-2.465,0.685-4.292,2.058-5.482c1.147-0.989,2.543-1.481,4.192-1.481
			c1.832,0,3.331,0.603,4.493,1.802s1.745,2.856,1.745,4.975c0,1.717-0.259,3.062-0.771,4.046c-0.517,0.984-1.265,1.747-2.249,2.294
			c-0.981,0.542-2.056,0.813-3.218,0.813c-1.865,0-3.374-0.598-4.523-1.797C206.976,321.572,206.401,319.851,206.401,317.597z
			 M208.723,317.597c0,1.707,0.372,2.987,1.117,3.835c0.745,0.849,1.682,1.275,2.811,1.275c1.122,0,2.053-0.427,2.798-1.28
			c0.746-0.854,1.117-2.153,1.117-3.9c0-1.651-0.374-2.901-1.125-3.75c-0.748-0.849-1.679-1.27-2.791-1.27
			c-1.129,0-2.066,0.421-2.811,1.265C209.094,314.615,208.723,315.89,208.723,317.597z"/>
		<path fill="#1A171B" d="M221.511,324.263v-13.328h2.033v2.023c0.52-0.949,0.997-1.571,1.438-1.872
			c0.437-0.302,0.921-0.452,1.448-0.452c0.76,0,1.536,0.241,2.322,0.728l-0.778,2.098c-0.552-0.331-1.104-0.492-1.657-0.492
			c-0.494,0-0.936,0.151-1.33,0.447s-0.673,0.708-0.841,1.235c-0.251,0.803-0.376,1.682-0.376,2.635v6.978H221.511z"/>
		<path fill="#1A171B" d="M230.071,324.263v-13.328h2.033v2.023c0.52-0.949,0.997-1.571,1.438-1.872
			c0.437-0.302,0.921-0.452,1.448-0.452c0.761,0,1.536,0.241,2.322,0.728l-0.778,2.098c-0.552-0.331-1.104-0.492-1.657-0.492
			c-0.494,0-0.936,0.151-1.33,0.447s-0.673,0.708-0.841,1.235c-0.251,0.803-0.376,1.682-0.376,2.635v6.978H230.071z"/>
		<path fill="#1A171B" d="M247.778,319.971l2.334,0.286c-0.369,1.366-1.049,2.425-2.046,3.178c-0.996,0.753-2.267,1.13-3.815,1.13
			c-1.95,0-3.497-0.603-4.636-1.802c-1.145-1.2-1.714-2.881-1.714-5.05c0-2.244,0.577-3.98,1.731-5.221
			c1.155-1.24,2.653-1.857,4.493-1.857c1.782,0,3.238,0.607,4.367,1.822c1.129,1.21,1.694,2.917,1.694,5.12
			c0,0.131-0.005,0.332-0.013,0.603h-9.939c0.083,1.461,0.497,2.581,1.242,3.363c0.746,0.773,1.674,1.165,2.786,1.165
			c0.829,0,1.536-0.216,2.121-0.653C246.97,321.618,247.434,320.925,247.778,319.971z M240.361,316.321h7.442
			c-0.1-1.124-0.384-1.963-0.853-2.525c-0.72-0.869-1.652-1.305-2.799-1.305c-1.037,0-1.91,0.347-2.618,1.039
			C240.828,314.229,240.436,315.157,240.361,316.321z"/>
		<path fill="#1A171B" d="M252.948,324.263v-13.328h2.033v1.893c0.979-1.46,2.392-2.194,4.242-2.194
			c0.803,0,1.541,0.146,2.216,0.432c0.673,0.291,1.177,0.668,1.511,1.14c0.333,0.467,0.57,1.024,0.703,1.667
			c0.083,0.416,0.125,1.149,0.125,2.198v8.193h-2.259v-8.107c0-0.918-0.088-1.606-0.264-2.063s-0.487-0.823-0.936-1.095
			c-0.447-0.271-0.972-0.406-1.574-0.406c-0.961,0-1.792,0.306-2.493,0.918c-0.698,0.607-1.046,1.767-1.046,3.474v7.279H252.948z"/>
		<path fill="#1A171B" d="M272.175,322.245l0.326,1.993c-0.635,0.135-1.205,0.2-1.707,0.2c-0.821,0-1.456-0.13-1.908-0.386
			c-0.452-0.261-0.771-0.602-0.954-1.024s-0.276-1.315-0.276-2.671v-7.665H266v-1.757h1.657v-3.298l2.247-1.355v4.653h2.271v1.757
			h-2.271v7.796c0,0.643,0.04,1.054,0.118,1.24c0.08,0.186,0.21,0.332,0.392,0.437c0.178,0.11,0.437,0.165,0.771,0.165
			C271.435,322.33,271.766,322.3,272.175,322.245z"/>
		<path fill="#1A171B" d="M274.359,324.263v-13.328h2.033v2.023c0.52-0.949,0.997-1.571,1.438-1.872
			c0.437-0.302,0.921-0.452,1.449-0.452c0.76,0,1.536,0.241,2.321,0.728l-0.778,2.098c-0.552-0.331-1.104-0.492-1.657-0.492
			c-0.494,0-0.936,0.151-1.33,0.447c-0.395,0.296-0.673,0.708-0.841,1.235c-0.251,0.803-0.377,1.682-0.377,2.635v6.978H274.359z"/>
		<path fill="#1A171B" d="M291.677,324.263v-1.958c-1.036,1.506-2.447,2.259-4.229,2.259c-0.786,0-1.521-0.151-2.204-0.452
			c-0.68-0.301-1.187-0.678-1.516-1.134c-0.331-0.457-0.564-1.014-0.698-1.677c-0.093-0.442-0.138-1.145-0.138-2.108v-8.258h2.259
			v7.395c0,1.174,0.045,1.973,0.139,2.379c0.143,0.598,0.443,1.064,0.902,1.4c0.46,0.342,1.029,0.507,1.707,0.507
			s1.312-0.17,1.908-0.517c0.595-0.347,1.014-0.823,1.26-1.421c0.248-0.597,0.371-1.466,0.371-2.6v-7.144h2.26v13.328H291.677z"/>
		<path fill="#1A171B" d="M297.137,329.394l-0.251-2.118c0.494,0.135,0.924,0.2,1.293,0.2c0.502,0,0.902-0.085,1.204-0.251
			c0.302-0.166,0.548-0.401,0.74-0.703c0.144-0.226,0.372-0.788,0.69-1.682c0.043-0.125,0.107-0.311,0.201-0.552l-5.058-13.353
			h2.435l2.773,7.716c0.359,0.984,0.683,2.008,0.967,3.092c0.258-1.039,0.569-2.053,0.928-3.042l2.85-7.766h2.259l-5.07,13.554
			c-0.545,1.466-0.966,2.475-1.268,3.027c-0.401,0.743-0.86,1.29-1.38,1.636c-0.52,0.347-1.138,0.522-1.857,0.522
			C298.158,329.675,297.671,329.579,297.137,329.394z"/>
	</g>
	<g display="inline">
		<path fill="#1A171B" d="M323.562,373.81v-18.397h6.34c1.431,0,2.525,0.085,3.278,0.266c1.055,0.241,1.947,0.678,2.695,1.315
			c0.969,0.818,1.697,1.867,2.174,3.143c0.482,1.275,0.723,2.736,0.723,4.377c0,1.396-0.16,2.631-0.486,3.715
			c-0.326,1.074-0.748,1.968-1.255,2.676s-1.069,1.265-1.672,1.672c-0.612,0.406-1.346,0.713-2.199,0.924
			c-0.858,0.206-1.847,0.311-2.956,0.311H323.562z M326.001,371.642h3.926c1.215,0,2.169-0.116,2.852-0.342
			c0.692-0.226,1.245-0.542,1.656-0.954c0.572-0.578,1.024-1.355,1.346-2.33c0.321-0.974,0.481-2.153,0.481-3.544
			c0-1.922-0.311-3.403-0.943-4.438s-1.4-1.727-2.305-2.078c-0.652-0.251-1.701-0.372-3.147-0.372h-3.865V371.642z"/>
		<path fill="#1A171B" d="M350.96,369.518l2.335,0.286c-0.367,1.366-1.05,2.425-2.043,3.178c-0.999,0.753-2.27,1.13-3.815,1.13
			c-1.953,0-3.499-0.603-4.639-1.802c-1.145-1.2-1.717-2.881-1.717-5.05c0-2.244,0.582-3.98,1.737-5.221
			c1.154-1.24,2.65-1.857,4.487-1.857c1.787,0,3.243,0.607,4.367,1.822c1.135,1.21,1.697,2.917,1.697,5.12
			c0,0.131-0.005,0.332-0.011,0.603h-9.939c0.081,1.461,0.492,2.58,1.24,3.363c0.748,0.773,1.672,1.165,2.786,1.165
			c0.828,0,1.536-0.216,2.118-0.653C350.153,371.164,350.619,370.472,350.96,369.518z M343.541,365.868h7.444
			c-0.101-1.124-0.387-1.963-0.854-2.525c-0.718-0.869-1.651-1.305-2.796-1.305c-1.039,0-1.912,0.347-2.62,1.039
			C344.013,363.775,343.621,364.704,343.541,365.868z"/>
		<path fill="#1A171B" d="M356.081,373.81v-18.397h2.259v18.397H356.081z"/>
		<path fill="#1A171B" d="M370.965,369.518l2.334,0.286c-0.371,1.366-1.049,2.425-2.048,3.178c-0.994,0.753-2.264,1.13-3.815,1.13
			c-1.947,0-3.494-0.603-4.633-1.802c-1.145-1.2-1.712-2.881-1.712-5.05c0-2.244,0.572-3.98,1.727-5.221
			c1.154-1.24,2.655-1.857,4.498-1.857c1.777,0,3.232,0.607,4.367,1.822c1.124,1.21,1.691,2.917,1.691,5.12
			c0,0.131-0.005,0.332-0.015,0.603h-9.939c0.085,1.461,0.502,2.58,1.245,3.363c0.743,0.773,1.677,1.165,2.786,1.165
			c0.828,0,1.536-0.216,2.123-0.653C370.156,371.164,370.618,370.472,370.965,369.518z M363.551,365.868h7.439
			c-0.101-1.124-0.382-1.963-0.854-2.525c-0.723-0.869-1.651-1.305-2.802-1.305c-1.034,0-1.907,0.347-2.615,1.039
			C364.012,363.775,363.621,364.704,363.551,365.868z M365.981,358.825l1.671-3.514h2.962l-2.761,3.514H365.981z"/>
		<path fill="#1A171B" d="M376.136,373.81v-13.328h2.022v1.873c0.417-0.652,0.974-1.18,1.667-1.576
			c0.692-0.396,1.485-0.598,2.369-0.598c0.989,0,1.797,0.206,2.43,0.618c0.633,0.407,1.079,0.979,1.335,1.717
			c1.055-1.556,2.43-2.334,4.117-2.334c1.325,0,2.339,0.366,3.052,1.1c0.713,0.733,1.064,1.857,1.064,3.383v9.146h-2.244v-8.393
			c0-0.904-0.075-1.556-0.216-1.953c-0.15-0.396-0.417-0.718-0.804-0.959c-0.381-0.246-0.833-0.366-1.354-0.366
			c-0.935,0-1.712,0.311-2.33,0.934c-0.622,0.623-0.934,1.621-0.934,2.997v7.74h-2.259v-8.659c0-1.004-0.181-1.757-0.552-2.259
			c-0.367-0.502-0.969-0.753-1.808-0.753c-0.633,0-1.225,0.166-1.757,0.502c-0.542,0.336-0.934,0.823-1.175,1.471
			c-0.246,0.643-0.366,1.571-0.366,2.781v6.917H376.136z"/>
		<path fill="#1A171B" d="M396.702,367.144c0-2.465,0.688-4.292,2.058-5.482c1.15-0.989,2.546-1.481,4.197-1.481
			c1.827,0,3.328,0.603,4.487,1.802c1.165,1.2,1.747,2.856,1.747,4.975c0,1.717-0.261,3.062-0.772,4.046
			c-0.513,0.984-1.266,1.747-2.249,2.294c-0.979,0.542-2.054,0.813-3.213,0.813c-1.867,0-3.373-0.598-4.528-1.797
			C397.28,371.119,396.702,369.397,396.702,367.144z M399.027,367.144c0,1.707,0.371,2.987,1.119,3.835
			c0.743,0.849,1.677,1.275,2.812,1.275c1.119,0,2.048-0.427,2.796-1.28s1.119-2.153,1.119-3.9c0-1.651-0.376-2.901-1.124-3.75
			c-0.753-0.849-1.682-1.27-2.791-1.27c-1.135,0-2.068,0.421-2.812,1.265C399.398,364.162,399.027,365.437,399.027,367.144z"/>
		<path fill="#1A171B" d="M411.842,373.81v-13.328h2.028v1.893c0.984-1.461,2.395-2.194,4.247-2.194
			c0.803,0,1.536,0.146,2.214,0.432c0.673,0.291,1.18,0.668,1.511,1.14c0.331,0.467,0.572,1.024,0.703,1.667
			c0.08,0.416,0.125,1.149,0.125,2.198v8.192h-2.259v-8.107c0-0.918-0.085-1.606-0.266-2.063c-0.171-0.457-0.482-0.823-0.934-1.095
			c-0.447-0.271-0.975-0.406-1.577-0.406c-0.958,0-1.787,0.306-2.489,0.918c-0.698,0.607-1.044,1.767-1.044,3.474v7.278H411.842z"/>
		<path fill="#1A171B" d="M431.069,371.792l0.321,1.993c-0.632,0.135-1.204,0.2-1.706,0.2c-0.818,0-1.456-0.13-1.908-0.386
			c-0.451-0.261-0.768-0.603-0.953-1.024c-0.182-0.422-0.271-1.315-0.271-2.671v-7.665h-1.656v-1.757h1.656v-3.298l2.244-1.355
			v4.654h2.273v1.757h-2.273v7.796c0,0.643,0.04,1.054,0.115,1.24c0.08,0.186,0.211,0.332,0.392,0.437
			c0.181,0.11,0.441,0.165,0.772,0.165C430.326,371.877,430.657,371.847,431.069,371.792z"/>
	</g>
</g>
</svg>
