<?xml version="1.0" encoding="utf-8"?>
<!-- Generator: Adobe Illustrator 16.0.0, SVG Export Plug-In . SVG Version: 6.00 Build 0)  -->
<!DOCTYPE svg PUBLIC "-//W3C//DTD SVG 1.1//EN" "http://www.w3.org/Graphics/SVG/1.1/DTD/svg11.dtd">
<svg version="1.1" id="Calque_1" xmlns="http://www.w3.org/2000/svg" xmlns:xlink="http://www.w3.org/1999/xlink" x="0px" y="0px"
	 width="595.279px" height="680.314px" viewBox="-0.004 80.788 595.279 680.314"
	 enable-background="new -0.004 80.788 595.279 680.314" xml:space="preserve">
<path id="_x31_005" fill="#666666" d="M442.792,218.97l0.479-61.405l23.871-20.566l-6.638-7.828l-13.139-15.476l-25.953,11.77
	l-23.904,10.832l-61.472,14.686l3.771,36.758c9.095-6.383,16.395-9.527,28.344-15.776c4.991-2.891,7.562-4.01,10.289-3.058
	c1.721,0.602,3.5,2.026,5.979,4.341c6.423,5.995,9.711,10.417,1.716,15.415c-13.832,8.645-24.313,16.177-33.928,24.621l8.29,10.316
	l-23.907,20.205l4.841,15.314l-15.691,23.945l20.269,6.128l28.262-7.707l12.095,15.293l8.837-7.707l2.61-0.364l1.286-3.71
	l13.134-6.138l10.704-17.696l6.134-3.568l1.145-9.849l3.863,0.354c2.565,0.857,4.721,2.222,7.292-1.203
	c2.57-3.426,5.106-6.075,8.564-11.132c1.98-2.884,3.412-4.965,4.707-6.497l-21.169-0.757L442.792,218.97z"/>
<path id="ofsnbr1006" fill="#807F7F" d="M548.069,433.302c-3.449-0.528-7.438-1.398-12.271-2.669
	c-15.441-0.884-22.058-2.209-26.025-13.677c-1.699-4.898,1.819-10.344,3.532-18.48c1.713-8.136-0.428-17.127-3.426-23.121
	c-3-5.994-3.854-8.136,0-11.562c2.616-2.323,4.048-4.643,4.562-7.507c0.249-1.352,0.289-2.83,0.148-4.482
	c-0.536-6.456,1.243-11.16,11.561-31.259c5.045-9.821,8.444-16.016,10.396-20.639l-18.834-14.726l9.883-16.673l16.472,13.848
	c1.277-1.338,2.745-2.716,4.349-4.202c2.502-2.301,3.707-6.162,4.275-10.49c0.703-5.311,0.434-11.334,0.434-16.058
	c0-4.629-0.621-7.131-2.08-8.657c-1.237-1.298-3.07-1.887-5.629-2.475c-5.566-1.284-9.846-2.568-19.694-2.568
	c-9.848,0-20.124,0.855-29.116,0.427c-8.995-0.427-17.452-2.455-26.552-5.996c-4.735-1.846-6.562-4.335-6.86-7.574
	c-3.877,0.831-6.188,1.699-8.554,4.503c-1.295,1.533-2.729,3.612-4.707,6.497c-3.458,5.057-5.994,7.706-8.564,11.132
	c-2.568,3.426-4.724,2.061-7.292,1.203l-3.861-0.354l-1.146,9.849l-6.134,3.568l-10.704,17.696l-13.134,6.138l-1.285,3.71
	l0.148,9.136l8.561,8.28l9.424,3.708l1.742,5.292l5.802,9.674l0.308,22.613l8.362-1.519l7.253,12.787l-10.396,6.73l1.78,17.557
	l21.752,22.52l-1.954,18.71l-17.796,18.88l17.016,5.238l15.536-17.716l10.835,26.02l-4.079,11.29l9.647,14.825l12.316,1.914
	l13.801-6.621l18.253,17.63h17.555l12.418,10.638l6.209-10.196l-0.892-9.132l9.314-11.083l0.448-24.397l-22.614-3.097
	C548.559,448.39,548.069,433.302,548.069,433.302z"/>
<path id="ofsnbr1004" fill="#989898" d="M452.552,405.487l-21.752-22.52l-1.779-17.557l10.395-6.73l-7.253-12.786l-8.362,1.519
	l-0.308-22.613l-5.802-9.674l-1.742-5.292l-9.424-3.709l-8.561-8.279l-0.146-9.137l-2.613,0.364l-8.837,7.706l-12.095-15.293
	l-28.262,7.707l-20.268-6.128l2.118,18.104l-31.094,27.846l1.218,11.521l-23.387,20.927l-1.809,30.067l26.547,29.555l-6.58,6.208
	l13.003,23.205l11.653,7.031l34.707-23.014l13.459-2.202c2.318-2.482,4.385-3.308,5.769-3.077c1.086-3.526,1.92-6.678,2.6-10.581
	l8.887,10.57l17.358-1.177l18.492,5.891l14.11,9.143l17.796-18.879L452.552,405.487z"/>
<path id="ofsnbr1003" fill="#666666" d="M499.979,567.934l14.138,6.644l5.656,1.609l6.954-36.539l-11.989-27.972l11.389-16.014
	l-18.253-17.631l-13.799,6.621l-12.316-1.914l-9.649-14.825l4.079-11.29l-10.835-26.02l-15.536,17.716l-17.016-5.238l-14.11-9.146
	l-18.492-5.888l-17.358,1.177l-8.887-10.573c-0.679,3.907-1.514,7.058-2.599,10.584c-1.385-0.228-3.448,0.595-5.77,3.077
	l-13.459,2.202l-34.707,23.014l-19.058,15.89l1.841,11.463l-16.271,6.854l-11.99-6.477l-21.987,7.908l2.719,37.533l-5.566,2.568
	l5.996,18.359l7.707-5.085l11.667,20.708l13.027,12.377l-11.065,20.338l19.504,7.714l-6.714,16.896l-1.285,15.844l6.55,13.608
	l-10.276,5.139l-6.123,18.654l-3.994,22.833l5.131,23.102l22.275-7.119l14.048-25.876c9.497-14.564,25.079-20.063,46.75-16.501
	l22.363-20.712l10.446-15.393l41.062-23.654l12.097,10.452l4.399-12.096l13.742-8.246l21.262-18.522L499.979,567.934z"/>
<path id="ofsnbr1007" fill="#989898" d="M214.434,595.881c-9.086,7.647-20.596,14.328-25.691,29.117
	c-0.995,2.881-2.863,3.891-4.42,3.801c-2.348-0.157-4.823-3.189-7.141-8.083c-0.92-1.939-1.813-3.562-2.738-4.953l-19.811,4.777
	l-4.403,17.053l7.196,6.551l25.042,22.814l21.693-28.542l25.692,9.7l46.244,29.692l6.123-18.654l10.276-5.139l-6.55-13.61
	l1.285-15.842l6.713-16.896l-19.503-7.714l11.065-20.338l-13.027-12.377l-11.667-20.708l-7.707,5.084l-5.996-18.358l-27.405,3.426
	l-15.844-12.845l-20.455,21.329l-10.391,14.598l1.169,7.856l27.002,22.86l15.398-12.094
	C216.585,578.383,214.434,595.881,214.434,595.881z"/>
<polygon id="ofsnbr1002" fill="#807F7F" points="183.405,545.166 203.855,523.844 219.699,536.688 247.103,533.264 252.669,530.695 
	249.949,493.161 271.938,485.254 283.927,491.729 300.2,484.879 298.358,473.417 317.418,457.527 305.766,450.496 292.762,427.293 
	299.342,421.085 272.795,391.53 274.604,361.463 254.41,340.629 224.694,383.623 246.232,394.528 218.953,438.594 176.151,486.337 
	139.938,502.562 138.05,555.336 137.046,577.374 149.777,565.907 165.551,577.742 174.185,567.62 173.016,559.764 "/>
<path id="ofsnbr1001" fill="#666666" d="M297.992,340.536l-23.386,20.928l-20.196-20.834l8.053-11.661l-5.095-10.23l6.155-11.56
	l12.039,4.214l9.735-13.067l-10.475-31.358c3.441-2.877,6.606-6.076,9.511-9.502l-11.527-14.84l-14.103,14.846l-23.494-34.155
	c1.784-1.525,3.566-3.085,5.339-4.685c5.586-5.023,14.967-13.359,24.711-21.783l33.063,39.098
	c-2.215,4.422-4.716,8.792-7.534,12.972l7.942,8.698l4.058-10.189l13.678,7.935l-0.127,37.346l9.401-9.649l2.12,18.104
	l-31.096,27.846L297.992,340.536z M144.338,415.081l19.074-11.1l20.622,12.478c0.426-5.566,3.673-10.077,8.991-16.703
	c3.726-4.641,7.169-9.017,10.348-13.166l-23.192-18.8l-32.632,37.427l-7.65-0.99l-6.617,8.343L144.338,415.081z M128.923,402.101
	l1.452-9.324l-6.206-7.861l-19.772,21.187l9.229,8.826l4.099,3.93L128.923,402.101z M185.334,346.343l12.475,15.388l26.039-5.084
	c4.907-8.644,7.975-16.178,9.427-23.256c0.271-1.319,0.542-2.662,0.82-4.027l-13.02-10.278l-0.525-25.798l16.171-19.495
	l-25.746-29.212c-2.512,2.508-4.937,5.111-7.246,7.882c-10.705,12.846-22.264,22.694-42.818,35.968
	c-20.553,13.273-22.649,17.476-33.396,29.117c-2.567,2.784-4.917,5.052-7.101,6.892l24.929,23.698l16.686,15.87L185.334,346.343z"/>
<g>
	<path id="ID_x5F_9151_Lac_de_Neuchâtel" fill="#CCD3DA" d="M160.91,288.43c20.556-13.274,32.117-23.122,42.818-35.968
		c2.309-2.771,4.734-5.372,7.246-7.882c7.546-7.513,15.893-14.104,24.236-21.261c1.784-1.525,3.566-3.085,5.339-4.685
		c5.586-5.023,14.967-13.359,24.711-21.784c12.666-10.96,25.942-22.059,32.241-26.172c11.132-7.28,15.843-9.849,22.696-20.983
		c1.338-2.173,2.522-4.014,3.51-5.646c4.075-6.727,4.841-9.87-0.516-17.906c-4.883-7.326-7.262-10.327-9.439-10.932
		c-1.633-0.447-3.157,0.468-5.545,1.94c-5.571,3.425-8.565,4.282-19.272-0.856c-10.704-5.139-14.106-5.674-24.406,2.569
		c-17.127,13.702-20.125,14.129-24.406,14.987c-4.283,0.856-8.564,1.285-14.99,6.422c-3.212,2.568-6.958,5.351-10.491,8.136
		c-3.532,2.783-6.851,5.566-9.206,8.135c-4.708,5.139-7.279,6.423-7.707,13.275c-0.214,3.425-0.748,6.422-2.192,9.046
		c-1.445,2.623-3.803,4.871-7.656,6.797c-7.708,3.854-23.547,13.273-35.536,26.547c-11.991,13.272-26.551,29.117-31.687,39.821
		c-1.9,3.96-4.559,7.801-7.764,11.508c-5.464,6.303-12.512,12.21-20.068,17.609c-11.988,8.563-58.234,41.534-65.941,48.384
		c-7.707,6.852-7.707,10.705-3.425,14.558c0.916,0.823,1.773,1.678,2.682,2.462c3.352,2.904,7.296,4.804,16.587,0.107
		c35.54-17.983,43.675-20.124,52.668-17.127c7.493,2.502,14.095,4.108,25.014-5.097c2.182-1.839,4.533-4.108,7.101-6.892
		C138.26,305.906,140.357,301.705,160.91,288.43z"/>
	<path id="ID_x5F_9294_Lac_de_Morat_x2F_Murtensee" fill="#CCD3DA" d="M339.81,187.739c9.096-6.383,16.395-9.527,28.344-15.777
		c4.992-2.89,7.563-4.008,10.29-3.057c1.72,0.602,3.499,2.026,5.981,4.341c6.421,5.996,9.708,10.417,1.713,15.415
		c-13.832,8.645-24.312,16.177-33.924,24.621c-2.292,2.006-4.53,4.069-6.755,6.208c-6.793,6.543-12.848,8.136-22.266,0
		c-5.785-4.998-7.969-7.52-7.135-10.236c0.525-1.713,2.241-3.506,4.994-6.035C328.729,196.17,334.569,191.419,339.81,187.739z"/>
</g>
<g display="none">
	<g display="inline">
		<path fill="#1A171B" d="M375.37,334.899l2.019-0.176c0.097,0.812,0.315,1.474,0.671,1.995c0.349,0.516,0.892,0.936,1.624,1.258
			c0.737,0.318,1.562,0.481,2.483,0.481c0.816,0,1.54-0.124,2.162-0.366c0.623-0.243,1.093-0.574,1.396-0.998
			c0.305-0.424,0.459-0.887,0.459-1.386c0-0.508-0.146-0.949-0.441-1.329s-0.779-0.697-1.456-0.953
			c-0.437-0.172-1.395-0.433-2.882-0.79c-1.481-0.358-2.523-0.693-3.121-1.011c-0.771-0.406-1.346-0.905-1.726-1.505
			c-0.38-0.6-0.569-1.271-0.569-2.017c0-0.812,0.234-1.576,0.693-2.286c0.468-0.711,1.143-1.249,2.03-1.615
			c0.892-0.371,1.88-0.557,2.97-0.557c1.196,0,2.256,0.194,3.174,0.583c0.914,0.384,1.62,0.953,2.109,1.704
			c0.494,0.75,0.76,1.598,0.795,2.551l-2.048,0.15c-0.115-1.02-0.485-1.792-1.121-2.313c-0.638-0.525-1.58-0.786-2.82-0.786
			c-1.293,0-2.238,0.239-2.829,0.71c-0.592,0.477-0.892,1.046-0.892,1.717c0,0.583,0.212,1.059,0.631,1.434
			c0.411,0.375,1.485,0.759,3.227,1.152c1.739,0.393,2.937,0.737,3.584,1.033c0.94,0.433,1.634,0.984,2.083,1.651
			c0.45,0.666,0.671,1.43,0.671,2.299c0,0.861-0.247,1.673-0.735,2.432c-0.489,0.764-1.2,1.355-2.123,1.778
			c-0.928,0.424-1.964,0.631-3.115,0.631c-1.466,0-2.692-0.212-3.682-0.635c-0.988-0.428-1.768-1.073-2.33-1.929
			C375.697,336.952,375.401,335.985,375.37,334.899z"/>
		<path fill="#1A171B" d="M398.939,336.325l2.053,0.252c-0.327,1.2-0.923,2.131-1.801,2.793c-0.874,0.662-1.991,0.993-3.354,0.993
			c-1.715,0-3.072-0.53-4.074-1.584c-1.006-1.055-1.505-2.533-1.505-4.44c0-1.973,0.503-3.5,1.519-4.59
			c1.017-1.09,2.335-1.633,3.954-1.633c1.562,0,2.843,0.534,3.84,1.602c0.989,1.064,1.488,2.564,1.488,4.502
			c0,0.115-0.005,0.292-0.014,0.53h-8.739c0.075,1.285,0.439,2.269,1.095,2.958c0.653,0.68,1.477,1.023,2.449,1.023
			c0.729,0,1.351-0.189,1.867-0.573C398.228,337.773,398.635,337.164,398.939,336.325z M392.422,333.117h6.541
			c-0.091-0.989-0.337-1.726-0.751-2.22c-0.637-0.764-1.451-1.147-2.465-1.147c-0.907,0-1.677,0.305-2.299,0.914
			C392.825,331.276,392.482,332.093,392.422,333.117z"/>
		<path fill="#1A171B" d="M403.485,340.099v-11.718h1.788v1.664c0.86-1.284,2.101-1.929,3.729-1.929
			c0.704,0,1.354,0.128,1.944,0.379c0.592,0.256,1.037,0.587,1.333,1.002c0.291,0.411,0.499,0.9,0.618,1.466
			c0.07,0.366,0.105,1.011,0.105,1.933v7.203h-1.986v-7.128c0-0.808-0.074-1.412-0.229-1.814c-0.152-0.401-0.428-0.724-0.818-0.962
			c-0.397-0.239-0.856-0.358-1.386-0.358c-0.85,0-1.576,0.27-2.189,0.808c-0.618,0.534-0.923,1.553-0.923,3.054v6.4H403.485
			L403.485,340.099z"/>
		<path fill="#1A171B" d="M415.258,336.604l1.969-0.309c0.104,0.786,0.415,1.386,0.918,1.81c0.503,0.415,1.209,0.626,2.114,0.626
			c0.913,0,1.589-0.185,2.028-0.556c0.441-0.371,0.662-0.808,0.662-1.307c0-0.45-0.192-0.803-0.587-1.06
			c-0.27-0.176-0.945-0.401-2.03-0.675c-1.456-0.367-2.463-0.685-3.026-0.954c-0.562-0.269-0.988-0.64-1.279-1.117
			c-0.292-0.472-0.433-0.998-0.433-1.571c0-0.521,0.112-1.006,0.355-1.452c0.238-0.446,0.562-0.812,0.978-1.107
			c0.309-0.229,0.73-0.419,1.262-0.579c0.534-0.159,1.104-0.238,1.717-0.238c0.923,0,1.728,0.132,2.424,0.397
			c0.692,0.265,1.209,0.622,1.535,1.077c0.336,0.45,0.562,1.055,0.688,1.814l-1.941,0.265c-0.089-0.604-0.345-1.073-0.769-1.413
			c-0.426-0.34-1.023-0.507-1.792-0.507c-0.913,0-1.562,0.15-1.955,0.455c-0.395,0.3-0.587,0.653-0.587,1.059
			c0,0.256,0.084,0.485,0.247,0.693c0.157,0.212,0.415,0.389,0.76,0.53c0.198,0.075,0.785,0.243,1.756,0.508
			c1.404,0.375,2.384,0.684,2.938,0.922c0.558,0.238,0.988,0.587,1.308,1.042s0.477,1.024,0.477,1.699
			c0,0.662-0.192,1.284-0.582,1.872c-0.384,0.583-0.942,1.037-1.669,1.355c-0.73,0.322-1.553,0.481-2.472,0.481
			c-1.526,0-2.683-0.318-3.482-0.949S415.477,337.844,415.258,336.604z"/>
		<path fill="#1A171B" d="M435.374,336.325l2.054,0.252c-0.322,1.2-0.923,2.131-1.796,2.793c-0.879,0.662-1.995,0.993-3.354,0.993
			c-1.717,0-3.077-0.53-4.078-1.584c-1.007-1.055-1.51-2.533-1.51-4.44c0-1.973,0.512-3.5,1.527-4.59
			c1.015-1.09,2.33-1.633,3.943-1.633c1.571,0,2.854,0.534,3.842,1.602c0.996,1.064,1.49,2.564,1.49,4.502
			c0,0.115-0.005,0.292-0.009,0.53h-8.739c0.07,1.285,0.435,2.269,1.092,2.958c0.656,0.68,1.47,1.023,2.448,1.023
			c0.729,0,1.353-0.189,1.862-0.573C434.663,337.773,435.073,337.164,435.374,336.325z M428.851,333.117h6.545
			c-0.088-0.989-0.34-1.726-0.75-2.22c-0.632-0.764-1.452-1.147-2.459-1.147c-0.913,0-1.682,0.305-2.304,0.914
			C429.265,331.276,428.923,332.093,428.851,333.117z"/>
	</g>
	<g display="inline">
		<path fill="#1A171B" d="M336.831,262.82l2.021-0.176c0.095,0.812,0.318,1.474,0.669,1.995c0.349,0.516,0.892,0.936,1.626,1.258
			c0.735,0.317,1.562,0.481,2.483,0.481c0.814,0,1.536-0.124,2.161-0.367c0.625-0.242,1.092-0.573,1.396-0.997
			c0.307-0.424,0.459-0.887,0.459-1.386c0-0.508-0.148-0.949-0.441-1.329c-0.294-0.379-0.777-0.697-1.457-0.953
			c-0.435-0.172-1.395-0.433-2.88-0.79c-1.483-0.357-2.524-0.693-3.122-1.011c-0.771-0.406-1.349-0.905-1.727-1.505
			c-0.379-0.601-0.569-1.271-0.569-2.017c0-0.812,0.231-1.576,0.695-2.287c0.464-0.71,1.141-1.249,2.03-1.615
			c0.89-0.371,1.881-0.556,2.969-0.556c1.198,0,2.255,0.194,3.173,0.583c0.914,0.384,1.62,0.954,2.112,1.704
			s0.757,1.598,0.794,2.551l-2.052,0.15c-0.11-1.02-0.483-1.792-1.119-2.313c-0.64-0.525-1.578-0.786-2.82-0.786
			c-1.295,0-2.238,0.238-2.829,0.711c-0.594,0.477-0.89,1.046-0.89,1.717c0,0.583,0.21,1.059,0.629,1.435
			c0.413,0.375,1.487,0.759,3.227,1.151c1.741,0.393,2.938,0.737,3.582,1.033c0.942,0.433,1.639,0.984,2.085,1.65
			c0.448,0.667,0.674,1.43,0.674,2.3c0,0.86-0.246,1.673-0.737,2.432c-0.492,0.764-1.201,1.355-2.123,1.779
			c-0.925,0.424-1.965,0.631-3.119,0.631c-1.463,0-2.688-0.212-3.679-0.636c-0.99-0.428-1.767-1.072-2.33-1.929
			C337.158,264.872,336.861,263.906,336.831,262.82z"/>
		<path fill="#1A171B" d="M360.404,264.246l2.048,0.251c-0.32,1.201-0.919,2.132-1.797,2.794s-1.99,0.993-3.354,0.993
			c-1.715,0-3.074-0.53-4.076-1.585c-1.006-1.055-1.507-2.533-1.507-4.44c0-1.973,0.508-3.5,1.521-4.59
			c1.018-1.09,2.333-1.633,3.95-1.633c1.567,0,2.847,0.534,3.84,1.602c0.993,1.064,1.492,2.564,1.492,4.502
			c0,0.115-0.009,0.292-0.014,0.53h-8.739c0.073,1.284,0.438,2.269,1.093,2.957c0.655,0.68,1.474,1.024,2.45,1.024
			c0.728,0,1.353-0.19,1.864-0.574C359.687,265.693,360.099,265.084,360.404,264.246z M353.882,261.037h6.541
			c-0.091-0.989-0.336-1.726-0.751-2.221c-0.633-0.763-1.447-1.147-2.458-1.147c-0.912,0-1.682,0.305-2.304,0.914
			C354.29,259.196,353.946,260.013,353.882,261.037z"/>
		<path fill="#1A171B" d="M372.969,264.246l2.052,0.251c-0.326,1.201-0.922,2.132-1.801,2.794c-0.873,0.662-1.99,0.993-3.354,0.993
			c-1.713,0-3.07-0.53-4.074-1.585c-1.006-1.055-1.505-2.533-1.505-4.44c0-1.973,0.503-3.5,1.521-4.59
			c1.015-1.09,2.334-1.633,3.954-1.633c1.562,0,2.843,0.534,3.84,1.602c0.989,1.064,1.487,2.564,1.487,4.502
			c0,0.115-0.006,0.292-0.015,0.53h-8.737c0.073,1.284,0.439,2.269,1.095,2.957c0.651,0.68,1.474,1.024,2.449,1.024
			c0.729,0,1.351-0.19,1.865-0.574C372.26,265.693,372.664,265.084,372.969,264.246z M366.449,261.037h6.541
			c-0.088-0.989-0.335-1.726-0.75-2.221c-0.636-0.763-1.452-1.147-2.463-1.147c-0.909,0-1.677,0.305-2.3,0.914
			C366.856,259.196,366.512,260.013,366.449,261.037z"/>
		<path fill="#1A171B" d="M376.028,268.293l4.688-16.728h1.589l-4.679,16.728H376.028z"/>
		<path fill="#1A171B" d="M342.497,290.617v-16.176h2.143v14.269h7.966v1.907H342.497L342.497,290.617z"/>
		<path fill="#1A171B" d="M362.55,289.17c-0.737,0.626-1.447,1.068-2.127,1.324c-0.682,0.26-1.413,0.388-2.189,0.388
			c-1.287,0-2.277-0.313-2.969-0.944c-0.69-0.627-1.037-1.43-1.037-2.41c0-0.573,0.131-1.099,0.393-1.571
			c0.263-0.477,0.604-0.856,1.024-1.143c0.424-0.287,0.9-0.503,1.43-0.649c0.393-0.106,0.979-0.203,1.771-0.3
			c1.602-0.189,2.778-0.419,3.539-0.684c0.009-0.274,0.009-0.446,0.009-0.516c0-0.812-0.187-1.382-0.562-1.713
			c-0.507-0.45-1.262-0.671-2.264-0.671c-0.932,0-1.622,0.164-2.068,0.49c-0.441,0.326-0.771,0.904-0.984,1.734l-1.942-0.265
			c0.177-0.83,0.469-1.501,0.872-2.013c0.404-0.512,0.989-0.905,1.755-1.179c0.768-0.278,1.65-0.415,2.661-0.415
			c0.997,0,1.812,0.12,2.438,0.354c0.627,0.234,1.086,0.529,1.377,0.887c0.296,0.358,0.503,0.808,0.618,1.351
			c0.068,0.34,0.102,0.954,0.102,1.836v2.648c0,1.845,0.039,3.011,0.128,3.5c0.084,0.49,0.251,0.958,0.503,1.408h-2.074
			C362.738,290.207,362.606,289.726,362.55,289.17z M362.382,284.738c-0.726,0.291-1.803,0.543-3.244,0.75
			c-0.816,0.115-1.396,0.248-1.732,0.396c-0.337,0.146-0.6,0.362-0.783,0.646c-0.183,0.282-0.273,0.596-0.273,0.944
			c0,0.53,0.2,0.971,0.6,1.324c0.402,0.353,0.989,0.529,1.766,0.529c0.764,0,1.441-0.167,2.039-0.503
			c0.596-0.336,1.031-0.794,1.313-1.377c0.212-0.446,0.317-1.108,0.317-1.986L362.382,284.738L362.382,284.738z"/>
		<path fill="#1A171B" d="M375.114,286.327l1.956,0.252c-0.217,1.346-0.76,2.4-1.643,3.16c-0.878,0.763-1.959,1.143-3.239,1.143
			c-1.603,0-2.892-0.525-3.866-1.571c-0.972-1.05-1.461-2.551-1.461-4.511c0-1.262,0.207-2.37,0.631-3.319
			c0.415-0.949,1.057-1.66,1.911-2.136c0.86-0.472,1.787-0.711,2.798-0.711c1.275,0,2.313,0.322,3.121,0.967
			c0.812,0.645,1.333,1.558,1.56,2.741l-1.931,0.296c-0.186-0.786-0.512-1.377-0.979-1.774c-0.468-0.397-1.033-0.596-1.695-0.596
			c-0.997,0-1.81,0.358-2.437,1.077c-0.626,0.715-0.938,1.849-0.938,3.403c0,1.576,0.301,2.719,0.9,3.434
			c0.604,0.711,1.395,1.068,2.366,1.068c0.774,0,1.43-0.238,1.948-0.715C374.642,288.053,374.977,287.316,375.114,286.327z"/>
	</g>
	<g display="inline">
		<path fill="#1A171B" d="M185.209,355.657v-16.176h6.069c1.236,0,2.227,0.164,2.975,0.49c0.746,0.327,1.331,0.834,1.752,1.514
			c0.426,0.68,0.638,1.39,0.638,2.132c0,0.693-0.188,1.346-0.563,1.955c-0.375,0.609-0.94,1.104-1.699,1.479
			c0.979,0.287,1.73,0.776,2.26,1.465c0.523,0.693,0.786,1.51,0.786,2.454c0,0.755-0.159,1.461-0.479,2.11
			c-0.322,0.653-0.717,1.156-1.188,1.509c-0.47,0.354-1.062,0.618-1.77,0.799c-0.71,0.181-1.58,0.27-2.61,0.27L185.209,355.657
			L185.209,355.657z M187.349,346.278h3.498c0.947,0,1.628-0.062,2.042-0.19c0.545-0.159,0.951-0.428,1.229-0.803
			c0.274-0.375,0.413-0.848,0.413-1.413c0-0.539-0.128-1.011-0.386-1.417c-0.258-0.411-0.625-0.688-1.104-0.839
			c-0.479-0.15-1.298-0.225-2.461-0.225h-3.231V346.278z M187.349,353.75h4.026c0.69,0,1.178-0.026,1.456-0.08
			c0.492-0.088,0.905-0.234,1.236-0.441s0.602-0.507,0.814-0.9c0.216-0.393,0.32-0.847,0.32-1.359c0-0.604-0.154-1.13-0.463-1.576
			s-0.737-0.754-1.284-0.936c-0.55-0.181-1.338-0.269-2.368-0.269h-3.739L187.349,353.75L187.349,353.75z"/>
		<path fill="#1A171B" d="M200.094,355.657v-11.718h1.786v1.779c0.457-0.834,0.876-1.382,1.266-1.646
			c0.384-0.265,0.81-0.397,1.271-0.397c0.669,0,1.353,0.212,2.042,0.64l-0.684,1.845c-0.485-0.292-0.971-0.433-1.457-0.433
			c-0.437,0-0.823,0.132-1.169,0.393c-0.347,0.261-0.592,0.623-0.739,1.086c-0.221,0.706-0.331,1.479-0.331,2.317v6.135
			L200.094,355.657L200.094,355.657z"/>
		<path fill="#1A171B" d="M206.902,349.796c0-2.167,0.603-3.774,1.81-4.82c1.01-0.87,2.235-1.302,3.688-1.302
			c1.609,0,2.928,0.53,3.95,1.585c1.021,1.055,1.532,2.511,1.532,4.374c0,1.51-0.228,2.692-0.678,3.558
			c-0.454,0.865-1.112,1.536-1.977,2.017c-0.863,0.477-1.81,0.715-2.829,0.715c-1.642,0-2.966-0.525-3.979-1.58
			C207.407,353.292,206.902,351.777,206.902,349.796z M208.944,349.796c0,1.5,0.326,2.626,0.98,3.372
			c0.655,0.746,1.479,1.121,2.474,1.121c0.984,0,1.805-0.375,2.46-1.125s0.98-1.894,0.98-3.43c0-1.452-0.327-2.551-0.987-3.297
			c-0.657-0.746-1.478-1.117-2.454-1.117c-0.993,0-1.816,0.371-2.474,1.112C209.27,347.174,208.944,348.295,208.944,349.796z"/>
		<path fill="#1A171B" d="M220.121,360.168l-0.221-1.862c0.435,0.119,0.812,0.176,1.137,0.176c0.441,0,0.794-0.075,1.061-0.221
			c0.265-0.146,0.479-0.353,0.649-0.618c0.125-0.199,0.326-0.693,0.606-1.479c0.038-0.11,0.095-0.274,0.177-0.486l-4.447-11.74
			h2.143l2.438,6.784c0.316,0.865,0.603,1.766,0.852,2.719c0.228-0.914,0.501-1.805,0.815-2.675l2.504-6.828h1.986l-4.458,11.917
			c-0.479,1.289-0.85,2.176-1.115,2.661c-0.353,0.653-0.757,1.134-1.214,1.439c-0.457,0.305-1,0.459-1.633,0.459
			C221.019,360.415,220.591,360.331,220.121,360.168z"/>
		<path fill="#1A171B" d="M239.53,351.883l2.052,0.251c-0.324,1.201-0.922,2.132-1.798,2.794c-0.876,0.662-1.993,0.993-3.354,0.993
			c-1.716,0-3.074-0.529-4.076-1.584c-1.007-1.055-1.508-2.533-1.508-4.44c0-1.973,0.508-3.5,1.521-4.59
			c1.015-1.09,2.333-1.633,3.95-1.633c1.566,0,2.847,0.534,3.84,1.603c0.993,1.063,1.49,2.564,1.49,4.502
			c0,0.115-0.004,0.291-0.011,0.529h-8.739c0.073,1.285,0.437,2.269,1.092,2.958c0.655,0.68,1.472,1.024,2.45,1.024
			c0.728,0,1.351-0.19,1.865-0.574C238.82,353.331,239.228,352.722,239.53,351.883z M233.009,348.675h6.545
			c-0.09-0.989-0.339-1.726-0.75-2.22c-0.635-0.764-1.452-1.147-2.463-1.147c-0.909,0-1.679,0.305-2.302,0.914
			C233.419,346.834,233.075,347.651,233.009,348.675z"/>
	</g>
	<g display="inline">
		<path fill="#1A171B" d="M244.11,446.786v-1.897l6.852-0.009v6.002c-1.053,0.839-2.136,1.47-3.255,1.896
			c-1.119,0.424-2.266,0.632-3.44,0.632c-1.591,0-3.032-0.34-4.33-1.021c-1.301-0.681-2.279-1.664-2.941-2.953
			c-0.662-1.282-0.993-2.724-0.993-4.312c0-1.575,0.329-3.045,0.986-4.409c0.66-1.363,1.604-2.374,2.843-3.036
			c1.235-0.662,2.659-0.998,4.271-0.998c1.169,0,2.227,0.19,3.171,0.569c0.945,0.38,1.688,0.909,2.224,1.585
			c0.537,0.675,0.945,1.558,1.227,2.648l-1.933,0.527c-0.243-0.825-0.545-1.47-0.904-1.94c-0.359-0.474-0.877-0.849-1.546-1.13
			c-0.668-0.282-1.41-0.425-2.229-0.425c-0.979,0-1.825,0.146-2.538,0.445c-0.713,0.296-1.289,0.688-1.726,1.174
			c-0.439,0.485-0.779,1.021-1.022,1.604c-0.413,0.997-0.618,2.083-0.618,3.253c0,1.441,0.249,2.646,0.743,3.619
			c0.499,0.971,1.221,1.688,2.169,2.161c0.949,0.474,1.958,0.706,3.023,0.706c0.927,0,1.832-0.177,2.714-0.532
			c0.882-0.357,1.552-0.737,2.008-1.146v-3.015L244.11,446.786L244.11,446.786z"/>
		<path fill="#1A171B" d="M253.82,453.133v-16.176h1.986v16.176H253.82z"/>
		<path fill="#1A171B" d="M266.531,451.686c-0.734,0.629-1.443,1.068-2.123,1.324c-0.682,0.26-1.413,0.391-2.191,0.391
			c-1.285,0-2.276-0.313-2.968-0.945c-0.689-0.626-1.037-1.43-1.037-2.409c0-0.574,0.132-1.1,0.395-1.571
			c0.261-0.477,0.603-0.854,1.022-1.144c0.426-0.287,0.9-0.503,1.432-0.648c0.391-0.104,0.978-0.202,1.766-0.301
			c1.604-0.188,2.785-0.419,3.542-0.684c0.006-0.273,0.011-0.446,0.011-0.519c0-0.812-0.188-1.382-0.562-1.713
			c-0.508-0.449-1.263-0.67-2.262-0.67c-0.936,0-1.624,0.163-2.07,0.489c-0.444,0.327-0.772,0.905-0.986,1.732l-1.94-0.265
			c0.177-0.83,0.468-1.5,0.872-2.013c0.401-0.513,0.986-0.904,1.754-1.181c0.766-0.275,1.649-0.412,2.659-0.412
			c1,0,1.813,0.117,2.438,0.353c0.625,0.234,1.085,0.53,1.379,0.888c0.293,0.357,0.501,0.81,0.618,1.353
			c0.066,0.34,0.099,0.953,0.099,1.836v2.646c0,1.847,0.042,3.012,0.126,3.5c0.086,0.489,0.254,0.957,0.503,1.407h-2.072
			C266.723,452.723,266.59,452.241,266.531,451.686z M263.64,438.082l-1.247,1.876h-2.273l2.383-3.089h2.119l2.483,3.089h-2.251
			L263.64,438.082z M266.365,447.254c-0.722,0.292-1.803,0.543-3.244,0.751c-0.814,0.114-1.395,0.247-1.73,0.396
			c-0.339,0.146-0.603,0.36-0.783,0.645c-0.186,0.282-0.276,0.596-0.276,0.944c0,0.528,0.201,0.972,0.603,1.324
			c0.399,0.354,0.986,0.528,1.761,0.528c0.766,0,1.446-0.168,2.042-0.504c0.596-0.335,1.033-0.794,1.312-1.377
			c0.216-0.445,0.32-1.105,0.32-1.985v-0.724L266.365,447.254L266.365,447.254z"/>
		<path fill="#1A171B" d="M271.452,453.133v-11.718h1.788v1.664c0.861-1.284,2.103-1.929,3.729-1.929
			c0.704,0,1.354,0.128,1.947,0.379c0.591,0.256,1.035,0.588,1.329,1.002c0.293,0.411,0.501,0.898,0.618,1.466
			c0.072,0.366,0.11,1.011,0.11,1.933v7.203h-1.986v-7.128c0-0.808-0.077-1.412-0.232-1.812c-0.152-0.402-0.428-0.727-0.821-0.963
			c-0.395-0.238-0.854-0.357-1.386-0.357c-0.846,0-1.574,0.27-2.189,0.808c-0.614,0.534-0.92,1.556-0.92,3.057v6.397
			L271.452,453.133L271.452,453.133z"/>
		<path fill="#1A171B" d="M292.042,449.359l2.054,0.252c-0.324,1.198-0.925,2.132-1.8,2.794c-0.877,0.662-1.991,0.993-3.354,0.993
			c-1.714,0-3.074-0.53-4.075-1.585c-1.007-1.057-1.508-2.533-1.508-4.44c0-1.973,0.508-3.5,1.521-4.59
			c1.017-1.09,2.333-1.633,3.951-1.633c1.566,0,2.849,0.531,3.84,1.602c0.992,1.064,1.489,2.564,1.489,4.502
			c0,0.115-0.005,0.292-0.011,0.53h-8.739c0.073,1.284,0.438,2.269,1.093,2.957c0.654,0.68,1.474,1.021,2.449,1.021
			c0.729,0,1.353-0.188,1.865-0.571C291.331,450.807,291.74,450.198,292.042,449.359z M285.521,446.15h6.543
			c-0.088-0.988-0.338-1.728-0.75-2.222c-0.634-0.764-1.452-1.146-2.461-1.146c-0.911,0-1.682,0.305-2.304,0.914
			C285.931,444.311,285.587,445.127,285.521,446.15z"/>
	</g>
	<g display="inline">
		<path fill="#1A171B" d="M217.095,558.298l-6.27-16.176h2.317l4.204,11.753c0.337,0.939,0.622,1.823,0.85,2.648
			c0.25-0.885,0.541-1.768,0.872-2.648l4.37-11.753h2.185l-6.333,16.176H217.095z"/>
		<path fill="#1A171B" d="M234.066,554.524l2.052,0.251c-0.324,1.199-0.922,2.132-1.799,2.794c-0.876,0.661-1.993,0.991-3.354,0.991
			c-1.715,0-3.072-0.527-4.074-1.584c-1.008-1.056-1.509-2.532-1.509-4.438c0-1.974,0.51-3.5,1.522-4.591
			c1.016-1.09,2.333-1.633,3.951-1.633c1.565,0,2.847,0.532,3.84,1.603c0.993,1.063,1.49,2.564,1.49,4.502
			c0,0.114-0.005,0.291-0.013,0.529h-8.737c0.071,1.284,0.437,2.269,1.092,2.957c0.656,0.68,1.472,1.022,2.45,1.022
			c0.729,0,1.351-0.188,1.863-0.572C233.356,555.972,233.764,555.362,234.066,554.524z M227.545,551.315h6.543
			c-0.088-0.988-0.338-1.728-0.75-2.222c-0.633-0.764-1.45-1.146-2.46-1.146c-0.912,0-1.68,0.305-2.302,0.914
			C227.955,549.475,227.611,550.291,227.545,551.315z"/>
		<path fill="#1A171B" d="M241.867,558.298l-4.458-11.719h2.097l2.518,7.019c0.271,0.761,0.521,1.545,0.75,2.361
			c0.177-0.618,0.424-1.359,0.739-2.229l2.604-7.15h2.041l-4.436,11.719L241.867,558.298L241.867,558.298z"/>
		<path fill="#1A171B" d="M257.933,554.524l2.053,0.251c-0.325,1.199-0.923,2.132-1.799,2.794c-0.876,0.661-1.993,0.991-3.354,0.991
			c-1.715,0-3.074-0.527-4.076-1.584c-1.006-1.056-1.507-2.532-1.507-4.438c0-1.974,0.507-3.5,1.522-4.591
			c1.015-1.09,2.333-1.633,3.95-1.633c1.565,0,2.847,0.532,3.84,1.603c0.993,1.063,1.49,2.564,1.49,4.502
			c0,0.114-0.006,0.291-0.013,0.529h-8.737c0.071,1.284,0.437,2.269,1.092,2.957c0.653,0.68,1.472,1.022,2.45,1.022
			c0.728,0,1.351-0.188,1.863-0.572C257.222,555.972,257.631,555.362,257.933,554.524z M251.412,551.315h6.543
			c-0.088-0.988-0.338-1.728-0.75-2.222c-0.633-0.764-1.452-1.146-2.46-1.146c-0.912,0-1.68,0.305-2.302,0.914
			C251.823,549.475,251.478,550.291,251.412,551.315z"/>
		<path fill="#1A171B" d="M262.391,562.809l-0.223-1.86c0.437,0.119,0.812,0.177,1.139,0.177c0.439,0,0.794-0.075,1.059-0.221
			c0.265-0.146,0.481-0.354,0.651-0.618c0.126-0.199,0.325-0.693,0.605-1.479c0.038-0.108,0.095-0.272,0.176-0.483l-4.444-11.741
			h2.141l2.438,6.784c0.313,0.864,0.6,1.766,0.85,2.719c0.227-0.913,0.501-1.805,0.816-2.675l2.505-6.828h1.984l-4.458,11.917
			c-0.479,1.289-0.85,2.176-1.112,2.662c-0.354,0.653-0.759,1.134-1.216,1.438c-0.455,0.307-1,0.459-1.633,0.459
			C263.289,563.056,262.861,562.972,262.391,562.809z"/>
		<path fill="#1A171B" d="M272.984,554.803l1.964-0.31c0.11,0.786,0.417,1.386,0.92,1.81c0.505,0.415,1.209,0.627,2.114,0.627
			c0.912,0,1.589-0.186,2.03-0.557c0.439-0.37,0.66-0.808,0.66-1.306c0-0.45-0.192-0.806-0.585-1.062
			c-0.271-0.177-0.947-0.4-2.028-0.676c-1.457-0.366-2.465-0.686-3.03-0.953c-0.561-0.271-0.989-0.64-1.28-1.116
			c-0.289-0.473-0.435-0.998-0.435-1.569c0-0.521,0.119-1.009,0.357-1.452c0.239-0.446,0.563-0.812,0.978-1.108
			c0.309-0.229,0.729-0.419,1.263-0.578c0.534-0.158,1.105-0.238,1.717-0.238c0.922,0,1.728,0.135,2.425,0.397
			c0.691,0.265,1.207,0.622,1.536,1.077c0.331,0.45,0.561,1.055,0.687,1.812l-1.942,0.267c-0.088-0.604-0.344-1.072-0.766-1.412
			c-0.424-0.34-1.022-0.508-1.794-0.508c-0.912,0-1.562,0.148-1.953,0.455c-0.391,0.3-0.585,0.651-0.585,1.06
			c0,0.256,0.082,0.485,0.243,0.692c0.161,0.212,0.415,0.389,0.761,0.528c0.199,0.075,0.784,0.242,1.755,0.509
			c1.405,0.376,2.385,0.685,2.941,0.923c0.554,0.236,0.991,0.587,1.307,1.042c0.315,0.454,0.476,1.021,0.476,1.698
			c0,0.661-0.192,1.283-0.58,1.87c-0.386,0.583-0.942,1.037-1.671,1.355c-0.729,0.322-1.553,0.479-2.473,0.479
			c-1.521,0-2.684-0.315-3.479-0.947C273.714,556.982,273.204,556.043,272.984,554.803z"/>
		<path fill="#1A171B" d="M293.099,554.524l2.053,0.251c-0.324,1.199-0.923,2.132-1.799,2.794c-0.876,0.661-1.992,0.991-3.354,0.991
			c-1.715,0-3.074-0.527-4.076-1.584c-1.006-1.056-1.507-2.532-1.507-4.438c0-1.974,0.507-3.5,1.522-4.591
			c1.015-1.09,2.333-1.633,3.95-1.633c1.564,0,2.847,0.532,3.84,1.603c0.993,1.063,1.49,2.564,1.49,4.502
			c0,0.114-0.007,0.291-0.014,0.529h-8.736c0.07,1.284,0.437,2.269,1.092,2.957c0.653,0.68,1.472,1.022,2.449,1.022
			c0.729,0,1.352-0.188,1.863-0.572C292.388,555.972,292.796,555.362,293.099,554.524z M286.577,551.315h6.543
			c-0.088-0.988-0.337-1.728-0.75-2.222c-0.633-0.764-1.451-1.146-2.461-1.146c-0.91,0-1.679,0.305-2.301,0.914
			C286.988,549.475,286.644,550.291,286.577,551.315z"/>
	</g>
	<g display="inline">
		<path fill="#1A171B" d="M315.982,512.087v-1.896l6.854-0.011v6.003c-1.055,0.839-2.139,1.472-3.258,1.896
			c-1.116,0.424-2.266,0.631-3.44,0.631c-1.589,0-3.032-0.34-4.33-1.021c-1.3-0.68-2.279-1.663-2.941-2.951
			c-0.662-1.284-0.993-2.725-0.993-4.312c0-1.576,0.329-3.046,0.986-4.409c0.66-1.362,1.606-2.375,2.843-3.037
			c1.235-0.661,2.659-0.997,4.271-0.997c1.169,0,2.227,0.189,3.171,0.569c0.946,0.379,1.688,0.909,2.225,1.584
			c0.536,0.676,0.944,1.561,1.227,2.648l-1.933,0.527c-0.241-0.823-0.546-1.469-0.903-1.939c-0.359-0.473-0.876-0.849-1.545-1.13
			c-0.668-0.282-1.412-0.425-2.229-0.425c-0.978,0-1.825,0.146-2.538,0.445c-0.713,0.295-1.289,0.688-1.726,1.174
			c-0.439,0.485-0.779,1.021-1.021,1.604c-0.413,0.998-0.618,2.084-0.618,3.253c0,1.442,0.249,2.646,0.743,3.619
			c0.499,0.972,1.223,1.688,2.17,2.163c0.949,0.473,1.957,0.706,3.023,0.706c0.927,0,1.832-0.178,2.714-0.534
			c0.883-0.357,1.552-0.737,2.009-1.144v-3.016L315.982,512.087L315.982,512.087z"/>
		<path fill="#1A171B" d="M325.716,518.434v-11.719h1.786v1.779c0.456-0.834,0.877-1.382,1.266-1.646
			c0.384-0.265,0.81-0.396,1.271-0.396c0.669,0,1.353,0.212,2.041,0.64l-0.684,1.848c-0.485-0.292-0.972-0.435-1.457-0.435
			c-0.435,0-0.823,0.132-1.169,0.395c-0.347,0.261-0.592,0.622-0.74,1.086c-0.221,0.706-0.33,1.479-0.33,2.315v6.137h-1.984V518.434
			L325.716,518.434z"/>
		<path fill="#1A171B" d="M340.941,518.434v-1.722c-0.911,1.324-2.151,1.986-3.719,1.986c-0.69,0-1.337-0.132-1.938-0.397
			c-0.598-0.265-1.043-0.596-1.332-0.997c-0.292-0.399-0.497-0.892-0.612-1.475c-0.081-0.388-0.121-1.006-0.121-1.854v-7.261h1.984
			v6.502c0,1.032,0.04,1.734,0.121,2.094c0.126,0.523,0.393,0.936,0.795,1.229c0.403,0.3,0.904,0.446,1.5,0.446
			c0.598,0,1.154-0.15,1.68-0.455c0.521-0.307,0.892-0.726,1.105-1.249c0.219-0.525,0.327-1.289,0.327-2.286v-6.281h1.985v11.719
			L340.941,518.434L340.941,518.434z"/>
		<path fill="#1A171B" d="M345.74,522.944l-0.221-1.862c0.435,0.119,0.812,0.176,1.137,0.176c0.441,0,0.795-0.074,1.062-0.221
			c0.265-0.146,0.479-0.354,0.648-0.617c0.126-0.199,0.327-0.693,0.607-1.479c0.037-0.11,0.095-0.273,0.177-0.486l-4.447-11.74
			h2.143l2.438,6.784c0.316,0.865,0.603,1.766,0.852,2.719c0.228-0.913,0.501-1.806,0.814-2.675l2.505-6.828h1.986l-4.458,11.917
			c-0.479,1.289-0.85,2.177-1.114,2.662c-0.353,0.653-0.757,1.134-1.214,1.438c-0.457,0.304-0.999,0.459-1.633,0.459
			C346.639,523.191,346.213,523.107,345.74,522.944z"/>
		<path fill="#1A171B" d="M365.153,514.66l2.048,0.251c-0.32,1.201-0.918,2.132-1.797,2.794c-0.878,0.662-1.99,0.993-3.354,0.993
			c-1.718,0-3.076-0.529-4.076-1.585c-1.006-1.057-1.507-2.533-1.507-4.439c0-1.973,0.508-3.5,1.521-4.59
			c1.018-1.091,2.335-1.634,3.95-1.634c1.567,0,2.848,0.534,3.84,1.603c0.993,1.063,1.492,2.564,1.492,4.502
			c0,0.114-0.009,0.291-0.014,0.529h-8.738c0.074,1.284,0.437,2.269,1.09,2.957c0.657,0.68,1.477,1.022,2.454,1.022
			c0.724,0,1.352-0.188,1.862-0.572C364.436,516.106,364.848,515.498,365.153,514.66z M358.631,511.451h6.541
			c-0.091-0.988-0.336-1.728-0.751-2.221c-0.633-0.765-1.447-1.146-2.458-1.146c-0.914,0-1.684,0.304-2.302,0.913
			C359.039,509.61,358.695,510.427,358.631,511.451z M363.212,505.259h-1.604l-2.546-3.09h2.656L363.212,505.259z"/>
		<path fill="#1A171B" d="M369.674,518.434v-11.719h1.792v1.779c0.454-0.834,0.873-1.382,1.262-1.646
			c0.384-0.265,0.812-0.396,1.271-0.396c0.673,0,1.353,0.212,2.043,0.64l-0.684,1.848c-0.485-0.292-0.971-0.435-1.457-0.435
			c-0.432,0-0.82,0.132-1.169,0.395c-0.349,0.261-0.592,0.622-0.737,1.086c-0.221,0.706-0.336,1.479-0.336,2.315v6.137h-1.983
			L369.674,518.434L369.674,518.434z"/>
		<path fill="#1A171B" d="M385.243,514.66l2.054,0.251c-0.321,1.201-0.924,2.132-1.798,2.794c-0.879,0.662-1.993,0.993-3.354,0.993
			c-1.717,0-3.076-0.529-4.078-1.585c-1.007-1.057-1.51-2.533-1.51-4.439c0-1.973,0.513-3.5,1.527-4.59
			c1.015-1.091,2.328-1.634,3.944-1.634c1.57,0,2.853,0.534,3.84,1.603c0.997,1.063,1.491,2.564,1.491,4.502
			c0,0.114-0.004,0.291-0.009,0.529h-8.739c0.071,1.284,0.435,2.269,1.091,2.957c0.657,0.68,1.472,1.022,2.449,1.022
			c0.729,0,1.353-0.188,1.862-0.572C384.532,516.107,384.943,515.498,385.243,514.66z M378.72,511.451h6.545
			c-0.088-0.988-0.34-1.728-0.75-2.221c-0.631-0.765-1.452-1.146-2.458-1.146c-0.914,0-1.682,0.304-2.305,0.913
			C379.135,509.61,378.79,510.427,378.72,511.451z"/>
	</g>
	<g display="inline">
		<path fill="#1A171B" d="M301.88,387.467l2.021-0.177c0.094,0.812,0.315,1.474,0.668,1.995c0.349,0.516,0.892,0.936,1.627,1.258
			c0.734,0.317,1.562,0.481,2.482,0.481c0.814,0,1.538-0.124,2.163-0.366c0.624-0.243,1.09-0.574,1.395-0.998
			c0.308-0.424,0.459-0.887,0.459-1.386c0-0.508-0.146-0.949-0.439-1.329c-0.294-0.379-0.779-0.697-1.457-0.954
			c-0.437-0.172-1.396-0.433-2.882-0.79c-1.482-0.357-2.524-0.693-3.122-1.011c-0.771-0.406-1.349-0.905-1.726-1.505
			c-0.38-0.6-0.57-1.271-0.57-2.017c0-0.812,0.232-1.576,0.695-2.286c0.464-0.71,1.142-1.249,2.031-1.616
			c0.889-0.371,1.88-0.556,2.968-0.556c1.198,0,2.255,0.194,3.173,0.583c0.914,0.384,1.62,0.953,2.112,1.704
			c0.492,0.75,0.757,1.598,0.795,2.551l-2.053,0.15c-0.11-1.02-0.483-1.792-1.119-2.313c-0.638-0.525-1.577-0.786-2.82-0.786
			c-1.295,0-2.237,0.238-2.829,0.711c-0.594,0.477-0.889,1.046-0.889,1.717c0,0.583,0.209,1.059,0.629,1.435
			c0.412,0.375,1.486,0.759,3.227,1.152c1.74,0.393,2.937,0.737,3.581,1.033c0.942,0.433,1.64,0.984,2.085,1.651
			c0.448,0.667,0.676,1.43,0.676,2.299c0,0.861-0.247,1.673-0.739,2.432c-0.492,0.763-1.201,1.355-2.123,1.779
			c-0.925,0.423-1.964,0.631-3.118,0.631c-1.463,0-2.69-0.212-3.68-0.636c-0.99-0.428-1.767-1.072-2.33-1.929
			C302.206,389.519,301.908,388.552,301.88,387.467z"/>
		<path fill="#1A171B" d="M325.073,391.218c-0.732,0.626-1.441,1.068-2.123,1.324c-0.682,0.261-1.412,0.389-2.189,0.389
			c-1.286,0-2.277-0.313-2.968-0.944c-0.69-0.627-1.037-1.43-1.037-2.41c0-0.574,0.13-1.099,0.393-1.571
			c0.261-0.477,0.604-0.856,1.024-1.143c0.424-0.287,0.898-0.503,1.43-0.649c0.391-0.106,0.978-0.203,1.766-0.3
			c1.604-0.19,2.785-0.419,3.542-0.685c0.007-0.273,0.013-0.445,0.013-0.516c0-0.812-0.188-1.381-0.562-1.712
			c-0.508-0.45-1.263-0.671-2.262-0.671c-0.936,0-1.625,0.163-2.07,0.49c-0.442,0.327-0.771,0.905-0.986,1.735l-1.94-0.265
			c0.177-0.83,0.468-1.5,0.872-2.013c0.402-0.512,0.987-0.905,1.754-1.178c0.766-0.278,1.651-0.415,2.659-0.415
			c1,0,1.812,0.119,2.438,0.353c0.625,0.234,1.086,0.53,1.38,0.887c0.293,0.357,0.501,0.808,0.618,1.351
			c0.065,0.34,0.101,0.954,0.101,1.836v2.648c0,1.845,0.042,3.01,0.126,3.5c0.086,0.49,0.254,0.958,0.503,1.408h-2.074
			C325.266,392.255,325.135,391.774,325.073,391.218z M324.908,386.787c-0.722,0.291-1.803,0.542-3.244,0.75
			c-0.814,0.115-1.395,0.247-1.73,0.397c-0.338,0.146-0.603,0.362-0.783,0.644c-0.184,0.283-0.276,0.596-0.276,0.945
			c0,0.529,0.201,0.971,0.603,1.324s0.988,0.529,1.761,0.529c0.768,0,1.445-0.167,2.042-0.503c0.597-0.335,1.032-0.794,1.312-1.377
			c0.214-0.446,0.318-1.108,0.318-1.986L324.908,386.787L324.908,386.787z"/>
		<path fill="#1A171B" d="M329.973,392.666v-11.719h1.788v1.779c0.456-0.834,0.876-1.381,1.264-1.646
			c0.385-0.265,0.812-0.397,1.273-0.397c0.669,0,1.351,0.212,2.042,0.64l-0.687,1.845c-0.483-0.291-0.971-0.432-1.456-0.432
			c-0.436,0-0.821,0.132-1.17,0.393c-0.347,0.26-0.592,0.622-0.739,1.086c-0.221,0.706-0.329,1.479-0.329,2.317v6.135
			L329.973,392.666L329.973,392.666z"/>
		<path fill="#1A171B" d="M337.531,378.771v-2.282h1.986v2.282H337.531z M337.531,392.666v-11.719h1.986v11.719H337.531z"/>
		<path fill="#1A171B" d="M342.541,392.666v-11.719h1.787v1.664c0.86-1.284,2.104-1.929,3.729-1.929c0.706,0,1.354,0.128,1.949,0.38
			c0.591,0.256,1.032,0.587,1.328,1.002c0.293,0.41,0.501,0.9,0.616,1.465c0.072,0.367,0.11,1.011,0.11,1.934v7.203h-1.986v-7.128
			c0-0.808-0.077-1.412-0.229-1.814c-0.155-0.401-0.43-0.724-0.823-0.962c-0.394-0.238-0.854-0.357-1.384-0.357
			c-0.848,0-1.576,0.269-2.191,0.808c-0.612,0.534-0.921,1.554-0.921,3.054v6.4L342.541,392.666L342.541,392.666z"/>
		<path fill="#1A171B" d="M363.133,388.892l2.052,0.251c-0.322,1.201-0.922,2.132-1.796,2.794c-0.879,0.662-1.995,0.993-3.354,0.993
			c-1.717,0-3.074-0.53-4.078-1.584c-1.007-1.055-1.508-2.534-1.508-4.44c0-1.973,0.508-3.5,1.523-4.59
			c1.015-1.09,2.332-1.633,3.947-1.633c1.569,0,2.852,0.534,3.84,1.603c0.998,1.063,1.49,2.564,1.49,4.502
			c0,0.114-0.004,0.291-0.009,0.529h-8.741c0.072,1.284,0.438,2.269,1.094,2.957c0.656,0.68,1.471,1.024,2.449,1.024
			c0.729,0,1.352-0.19,1.861-0.574C362.422,390.34,362.83,389.73,363.133,388.892z M356.61,385.684h6.543
			c-0.088-0.989-0.34-1.726-0.75-2.22c-0.632-0.764-1.452-1.147-2.458-1.147c-0.914,0-1.682,0.304-2.305,0.914
			C357.02,383.843,356.677,384.659,356.61,385.684z"/>
	</g>
</g>
</svg>
