<?xml version="1.0" encoding="utf-8"?>
<!-- Generator: Adobe Illustrator 16.0.0, SVG Export Plug-In . SVG Version: 6.00 Build 0)  -->
<!DOCTYPE svg PUBLIC "-//W3C//DTD SVG 1.1//EN" "http://www.w3.org/Graphics/SVG/1.1/DTD/svg11.dtd">
<svg version="1.1" id="Calque_1" xmlns="http://www.w3.org/2000/svg" xmlns:xlink="http://www.w3.org/1999/xlink" x="0px" y="0px"
	 width="595.279px" height="841.891px" viewBox="0 0 595.279 841.891" enable-background="new 0 0 595.279 841.891"
	 xml:space="preserve">
<path id="_x32_500" fill-rule="evenodd" clip-rule="evenodd" fill="#989898" d="M275.333,353.735l38.945,27.98
	c-1.747,2.229-2.973,5.738-2.384,17.177c0.637,12.399-1.304,16.065-8.265,26.065c-5.439,7.824-6.043,14.308-8.904,34.338
	c-0.946,6.624,5.406,14.508,1.274,21.938c-3.182,5.723-3.443,7.064-1.591,8.904c1.394,1.394,7.683-1.803,10.175-4.136
	c9.854-9.218,16.692-19.389,20.984-27.02c4.292-7.63,6.039-12.087,4.769-21.625c-0.953-7.153,1.908-16.527,7.631-18.435
	c5.723-1.908,9.538-2.861,16.531-14.308c4.725-6.938,5.723-11.767,13.99-19.717c5.086-5.403,0.634-8.897,4.963-16.744l9.345,21.192
	l-13.99,14.62l26.069,38.152l20.984-20.343l12.082,15.895l-13.99,31.796l-41.33,22.892l-9.539-3.182l-40.06,33.062l5.086,12.087
	l-51.506,31.155l-28.615-1.907l-3.815-11.446l-34.337,0.634l-2.541,11.445l-11.446,7.631l-31.796-10.172l-31.793,19.71l-2.276-9.105
	c3.357-2.899,6.427-7.08,9.27-13.146c6.979-14.888,10.391-25.275,16.375-30.052l10.332-18.913l-27.977-15.261l13.987-24.166
	l14.627,1.908l10.175-13.354l24.479-6.99l42.922-14.627l12.716,12.079l16.536-18.436l-18.443-38.152l15.898-15.901L275.333,353.735z
	 M315.233,310.657l27.542,18.242c2.146-6.558,4.173-12.519,7.272-17.765l-24.441-14.344L315.233,310.657z"/>
<g display="none">
	<path display="inline" fill="#1A171B" d="M191.051,519.214v-3.204l11.569-0.015v10.135c-1.777,1.415-3.607,2.48-5.496,3.196
		c-1.889,0.716-3.827,1.065-5.812,1.065c-2.683,0-5.119-0.574-7.31-1.721c-2.194-1.148-3.849-2.81-4.966-4.985
		c-1.118-2.169-1.677-4.598-1.677-7.28c0-2.66,0.555-5.143,1.666-7.444c1.114-2.303,2.712-4.009,4.799-5.127s4.49-1.685,7.209-1.685
		c1.975,0,3.759,0.321,5.354,0.962c1.598,0.641,2.85,1.535,3.755,2.675c0.905,1.141,1.595,2.631,2.068,4.471l-3.26,0.895
		c-0.41-1.394-0.92-2.481-1.528-3.278c-0.607-0.798-1.479-1.431-2.608-1.908c-1.129-0.477-2.385-0.715-3.763-0.715
		c-1.65,0-3.081,0.245-4.285,0.753c-1.204,0.499-2.176,1.162-2.914,1.981c-0.741,0.819-1.315,1.722-1.725,2.705
		c-0.697,1.685-1.043,3.518-1.043,5.492c0,2.437,0.421,4.471,1.256,6.11c0.842,1.639,2.061,2.854,3.663,3.651
		c1.602,0.797,3.305,1.192,5.104,1.192c1.565,0,3.093-0.299,4.583-0.902s2.619-1.244,3.391-1.93v-5.09H191.051z"/>
	<path display="inline" fill="#1A171B" d="M221.063,523.559l3.465,0.425c-0.548,2.026-1.558,3.6-3.037,4.717
		s-3.364,1.677-5.663,1.677c-2.895,0-5.19-0.895-6.882-2.675c-1.699-1.781-2.544-4.277-2.544-7.497c0-3.331,0.857-5.909,2.571-7.749
		c1.714-1.841,3.938-2.758,6.669-2.758c2.646,0,4.806,0.902,6.483,2.705c1.677,1.796,2.515,4.33,2.515,7.601
		c0,0.194-0.007,0.492-0.019,0.895h-14.754c0.123,2.168,0.738,3.83,1.844,4.992c1.106,1.147,2.485,1.729,4.136,1.729
		c1.229,0,2.28-0.32,3.148-0.969C219.863,526.003,220.552,524.975,221.063,523.559z M210.053,518.142H221.1
		c-0.149-1.67-0.57-2.914-1.267-3.748c-1.069-1.29-2.452-1.938-4.154-1.938c-1.539,0-2.835,0.514-3.886,1.542
		C210.746,515.034,210.164,516.412,210.053,518.142z"/>
	<path display="inline" fill="#1A171B" d="M228.738,529.93v-19.784h3.018v2.81c1.453-2.169,3.551-3.257,6.297-3.257
		c1.192,0,2.288,0.217,3.29,0.641c0.999,0.433,1.748,0.991,2.243,1.691c0.496,0.693,0.846,1.521,1.043,2.475
		c0.123,0.618,0.187,1.706,0.187,3.264v12.161h-3.354v-12.034c0-1.363-0.13-2.385-0.391-3.062c-0.261-0.679-0.723-1.223-1.39-1.625
		c-0.663-0.402-1.442-0.604-2.336-0.604c-1.427,0-2.66,0.455-3.7,1.363c-1.036,0.902-1.554,2.623-1.554,5.157v10.805H228.738z"/>
	<path display="inline" fill="#1A171B" d="M263.5,523.559l3.465,0.425c-0.547,2.026-1.557,3.6-3.037,4.717
		c-1.479,1.117-3.364,1.677-5.663,1.677c-2.895,0-5.19-0.895-6.881-2.675c-1.699-1.781-2.545-4.277-2.545-7.497
		c0-3.331,0.857-5.909,2.571-7.749c1.714-1.841,3.938-2.758,6.669-2.758c2.645,0,4.806,0.902,6.483,2.705
		c1.677,1.796,2.515,4.33,2.515,7.601c0,0.194-0.007,0.492-0.019,0.895h-14.754c0.123,2.168,0.738,3.83,1.844,4.992
		c1.107,1.147,2.485,1.729,4.136,1.729c1.229,0,2.28-0.32,3.148-0.969S262.99,524.975,263.5,523.559z M252.49,518.142h11.047
		c-0.149-1.67-0.57-2.914-1.267-3.748c-1.069-1.29-2.452-1.938-4.154-1.938c-1.539,0-2.835,0.514-3.886,1.542
		C253.183,515.034,252.602,516.412,252.49,518.142z M260.221,507.687h-2.701l-4.303-5.216h4.49L260.221,507.687z"/>
	<path display="inline" fill="#1A171B" d="M276.671,529.93l-7.526-19.784h3.54l4.248,11.848c0.458,1.282,0.883,2.608,1.267,3.987
		c0.298-1.044,0.715-2.295,1.249-3.763l4.396-12.072h3.446L279.8,529.93H276.671z"/>
	<path display="inline" fill="#1A171B" d="M303.794,523.559l3.465,0.425c-0.547,2.026-1.557,3.6-3.036,4.717
		s-3.364,1.677-5.663,1.677c-2.895,0-5.19-0.895-6.882-2.675c-1.699-1.781-2.544-4.277-2.544-7.497c0-3.331,0.857-5.909,2.571-7.749
		c1.714-1.841,3.938-2.758,6.669-2.758c2.646,0,4.807,0.902,6.483,2.705c1.676,1.796,2.515,4.33,2.515,7.601
		c0,0.194-0.007,0.492-0.019,0.895h-14.754c0.123,2.168,0.738,3.83,1.844,4.992c1.106,1.147,2.485,1.729,4.136,1.729
		c1.229,0,2.28-0.32,3.148-0.969S303.284,524.975,303.794,523.559z M292.785,518.142h11.046c-0.148-1.67-0.569-2.914-1.266-3.748
		c-1.07-1.29-2.452-1.938-4.154-1.938c-1.54,0-2.836,0.514-3.887,1.542C293.478,515.034,292.897,516.412,292.785,518.142z"/>
</g>
<path fill="#CCD3DA" d="M407.753,258.675c0.477,8.107-5.724,8.584-16.215,7.63c-5.225-0.477-9.062,5.723-14.308,12.877
	c-5.246,7.153-20.983,21.46-27.184,31.952c-3.1,5.246-5.127,11.208-7.272,17.765c-2.146,6.557-4.412,13.711-7.988,21.341
	c-5.57,11.878-13.384,22.393-20.508,31.476c-1.747,2.229-2.973,5.738-2.384,17.177c0.637,12.399-1.304,16.065-8.265,26.065
	c-5.439,7.824-6.043,14.308-8.904,34.338c-0.946,6.624,5.406,14.508,1.274,21.938c-3.182,5.723-3.443,7.064-1.591,8.904
	c1.394,1.394,7.683-1.803,10.175-4.136c9.854-9.218,16.692-19.389,20.984-27.02c4.292-7.63,6.039-12.087,4.769-21.625
	c-0.953-7.153,1.908-16.527,7.631-18.435c5.723-1.908,9.538-2.861,16.531-14.308c4.725-6.938,5.723-11.767,13.99-19.717
	c5.086-5.403,0.634-8.897,4.963-16.744c5.947-10.44,11.919-21.841,18.562-35.56c14.653-30.254,30.131-32.869,54.844-33.86
	c0.564-0.022,1.099-0.028,1.617-0.025l-35.627-59.529C408.416,247.389,407.527,254.833,407.753,258.675z"/>
</svg>
