<?xml version="1.0" encoding="utf-8"?>
<!-- Generator: Adobe Illustrator 16.0.0, SVG Export Plug-In . SVG Version: 6.00 Build 0)  -->
<!DOCTYPE svg PUBLIC "-//W3C//DTD SVG 1.1//EN" "http://www.w3.org/Graphics/SVG/1.1/DTD/svg11.dtd">
<svg version="1.1" id="Calque_1" xmlns="http://www.w3.org/2000/svg" xmlns:xlink="http://www.w3.org/1999/xlink" x="0px" y="0px"
	 width="595.279px" height="841.891px" viewBox="0 0 595.279 841.891" enable-background="new 0 0 595.279 841.891"
	 xml:space="preserve">
<path id="SA" fill="#999999" d="M532.378,444.112c0.19-0.59,0.513-1.351,0.767-1.916c0.263-0.586,0.559-1.411,0.958-1.915
	c0.278-0.352,0.87-0.605,1.148-0.957c0.239-0.302,0.503-0.987,0.503-0.987l-0.119-0.161c0,0-0.263-1.342-0.384-1.916
	c-0.109-0.518-0.157-1.244-0.384-1.723c-0.278-0.593-0.854-1.285-1.34-1.724c-0.402-0.363-1.017-0.792-1.532-0.958
	c-0.821-0.266-2.078,0.147-2.873-0.191c-0.859-0.367-1.426-1.768-2.297-2.106c-0.429-0.167-1.073,0-1.4-0.188l-0.07-2.833
	l-3.866-4.273l-1.424-0.407l-3.053,0.813l-2.849,1.221l-0.61,3.256l-1.221,3.256l-1.628,2.442l-1.425,0.203l0.407,1.831
	l-0.203,2.442l-2.035,1.425h-3.459l-2.238-0.408l-1.628-1.017l-1.425,1.425l-0.407,2.645l-1.017,2.035l-0.204,7.121l-4.884-0.203
	l-2.645,1.425l-2.85,2.645l-3.458,1.425l-7.733-0.406l-1.628-2.85l-3.052,0.204l-1.628-1.831l-2.035-4.07l-4.069-2.441l-2.646-0.408
	l-2.849-3.052l-5.087,0.611l-2.442-1.425l-4.069-2.646l-2.849-1.425l-1.018-1.017l0.204-1.425l-0.204-3.052l-0.61-1.629l1.221-4.272
	l1.222-1.628l-0.611-2.238l-1.017-1.832l-0.407-2.238l-4.273,2.035l-2.442-0.61l-2.645-1.221l-2.442-2.442l-3.662-1.832
	l-3.663-0.407l-4.884-0.814l-3.866-2.238l-5.494-1.221l-2.34,0.916l-2.543-0.305l-2.544-0.611l-1.119,0.509l-0.916,0.814
	l-2.543,0.813l-1.934-0.204l-0.61-1.221l-1.831-1.323l-2.544-0.102l-0.813,1.323l-0.814,0.916l-2.441,0.102l-1.844-0.88
	c0.29,0.47,0.269,1.331,0.504,1.874c-0.235-0.542-0.214-1.404-0.537-1.898c-0.359-0.479-1.182-0.592-1.358-1.082
	c-0.153-0.422,0.04-1.098,0.296-1.466c0.31-0.446,1.147-0.576,1.532-0.958c0.531-0.527,0.901-1.5,1.341-2.106
	c0.479-0.662,1.34-1.386,1.724-2.106c0.281-0.53,0.423-1.335,0.574-1.915c0.134-0.513,0.325-1.197,0.383-1.724
	c0.069-0.628,0.107-1.484,0-2.106c-0.146-0.842-0.655-1.882-0.957-2.681c-0.22-0.579-0.548-1.336-0.767-1.915
	c-0.302-0.798-0.634-1.89-0.957-2.681c-0.311-0.761-0.916-1.701-1.149-2.489c-0.115-0.39-0.113-0.942-0.191-1.341
	c-0.137-0.697-0.419-1.604-0.574-2.298c-0.129-0.571-0.277-1.339-0.383-1.915c-0.127-0.688-0.299-1.604-0.384-2.298
	c-0.09-0.744-0.267-1.745-0.191-2.49c0.042-0.416,0.191-0.969,0.383-1.34c0.338-0.654,1.092-1.326,1.532-1.915
	c0.421-0.562,0.937-1.343,1.341-1.915c0.57-0.808,1.393-1.842,1.915-2.682c0.449-0.72,1.088-1.679,1.341-2.489
	c0.154-0.497,0.139-1.206,0.191-1.724c0.063-0.631-0.042-1.516,0.191-2.106c0.24-0.609,0.822-1.323,1.34-1.724
	c0.348-0.267,0.979-0.329,1.341-0.574c0.472-0.319,1.048-0.854,1.341-1.34c0.402-0.669,0.544-1.741,0.766-2.49
	c0.119-0.4,0.188-0.971,0.384-1.34c0.21-0.396,0.586-0.896,0.957-1.149c0.3-0.205,0.845-0.186,1.149-0.383
	c0.784-0.508,1.613-1.502,2.106-2.297c0.421-0.681,0.61-1.769,0.957-2.49c0.346-0.72,0.981-1.585,1.341-2.298
	c0.394-0.781,0.724-1.916,1.148-2.681c0.342-0.613,0.966-1.322,1.341-1.915c0.248-0.391,0.548-0.932,0.767-1.34
	c0.242-0.453,0.304-1.306,0.766-1.532c0.263-0.128,0.666,0.163,0.957,0.192c0.687,0.068,1.611,0.049,2.299,0
	c0.405-0.029,0.958-0.052,1.341-0.192c0.509-0.186,1.303-0.466,1.532-0.957c0.17-0.369-0.071-0.953-0.192-1.341
	c-0.076-0.245-0.246-0.549-0.383-0.766c-0.35-0.554-0.861-1.277-1.341-1.723c-0.151-0.141-0.477-0.201-0.574-0.383
	c-0.189-0.354-0.044-0.94,0-1.34c0.058-0.527,0.342-1.196,0.383-1.724c0.072-0.918-0.016-2.16-0.191-3.064
	c-0.208-1.07-1.206-2.358-1.149-3.447c0.037-0.693,0.997-1.414,0.958-2.106c-0.02-0.334-0.383-0.683-0.574-0.958
	c-0.21-0.302-0.452-0.767-0.767-0.958c-0.5-0.305-1.38-0.144-1.915-0.383c-0.524-0.235-1.078-0.797-1.531-1.149
	c-0.291-0.225-0.597-0.701-0.958-0.766c-0.179-0.032-0.404,0.129-0.574,0.192c-0.291,0.106-0.654,0.324-0.958,0.383
	c-0.056,0.011-0.134,0-0.191,0c-0.287,0-0.702,0.131-0.957,0c-0.439-0.226-0.678-0.934-0.958-1.341
	c-0.117-0.17-0.275-0.396-0.383-0.574c-0.372-0.616-0.718-1.53-1.149-2.106c-0.341-0.456-0.954-0.923-1.341-1.341
	c-0.359-0.388-0.897-0.874-1.148-1.34c-0.198-0.368-0.384-1.34-0.368-1.283l-5.353-10.219l-7.783-4.676l-33.829-19.132l-9.776-0.192
	l-3.043,0.09l-2.34-0.61l-1.933-0.61l-0.408-1.119l-1.424-0.509l-4.782-2.238l-10.988-1.526l-3.968,1.425l-10.654,5.656
	c0,0-0.991,0.518-1.592,0.665c-0.561,0.137-1.34,0.243-1.915,0.192c-0.417-0.038-0.959-0.212-1.341-0.383
	c-0.683-0.307-1.425-1.029-2.106-1.34c-0.545-0.25-1.343-0.394-1.916-0.575c0.572,0.181,1.372,0.323,1.917,0.573l-0.096-1.125
	l-0.611-1.017l-0.916-1.018l-0.407-0.61l-0.814-1.832l-1.323-1.526v-1.221l0.815-0.813l0.915,0.203l0.814-0.203l0.508-0.407
	l-0.305-1.018l-1.119-0.61l-1.424-1.119l-1.628-0.509l-0.814-0.203l-1.73-0.611l-1.22-0.61l-0.712-0.306l-0.509-1.119l-0.102-0.509
	l-1.018-0.203l-0.711,0.203l-0.814,0.509l-1.018,0.814l-0.916,0.712l0.102,1.018l-0.305,0.813l0.61,0.814l1.018,0.407l1.22,0.203
	l1.018,0.611l0.712,0.813l-0.306,1.018l-0.712,1.323l-0.407,1.119l-0.625,1.222c0.565,0.077,1.337,0.036,1.91,0
	c-0.573,0.036-1.345,0.076-1.915,0c-0.649-0.087-1.489-0.355-2.106-0.575c-0.533-0.19-1.243-0.467-1.724-0.766
	c-0.381-0.237-0.739-0.775-1.148-0.958c-0.372-0.165-0.944-0.107-1.341-0.191c-0.409-0.087-0.947-0.243-1.341-0.383
	c-0.412-0.147-0.932-0.419-1.34-0.575c-0.17-0.065-0.395-0.169-0.575-0.192c-0.743-0.091-1.745,0.11-2.489,0.192
	c-0.404,0.044-0.943,0.272-1.341,0.191c-0.328-0.066-0.642-0.462-0.958-0.574c-0.383-0.136-0.951-0.305-1.341-0.191
	c-0.508,0.148-0.887,0.875-1.34,1.149c-0.265,0.16-0.68,0.246-0.958,0.383c-0.3,0.149-0.625,0.615-0.969,0.556l-0.008,0.01
	c-0.149-0.038-0.249-0.269-0.363-0.374c-0.081-0.074-0.171-0.152-0.265-0.232c0.042,0.037,0.086,0.07,0.128,0.109l-0.342-0.835
	l0.204-1.119l0.305-1.323l-0.203-1.119l0.712-1.018l0.611-0.61l1.323-0.204l1.424-0.102l1.933,0.203l0.712,0.509l0.814,1.018
	l1.018,0.204l1.119-0.204l0.203-1.424l-0.916-1.323l-1.323-1.119l-0.305-1.526l0.61-1.526l1.119-1.627l0.611-0.509l-0.611-1.832
	l-1.729-0.813l-1.323,0.102l-1.323,0.61l-0.508,0.712l-1.323,0.102l-0.203-0.814l0.203-2.035v-1.221l-0.305-0.814l-0.814-0.814
	l-1.12-1.017l-1.323-1.221l-1.424-1.221l-0.204,1.018l0.204,1.424l0.814,2.849l-0.916,1.73l-0.611,0.712l-1.424-0.305l-1.018-0.916
	l-0.611-1.628l-0.305-1.323l-0.102-1.424l0.102-1.018l0.305-1.119l-2.238-0.916l-1.119-0.509l-2.34-0.61h-1.933l-1.119,0.305
	l-0.203,1.323l0.712,0.61l0.406,1.119l0.204,1.323l-0.916,0.916l-1.323,0.102l-1.831-0.407l-1.221,0.61l-1.22,0.814l-1.12,0.305
	h-1.322l-1.832,0.407l-1.628,0.813l-1.323,1.018l-1.119,1.018l-1.12,1.221l-0.61,1.526l-0.712,1.628l-0.407,1.526l-0.814,1.424
	l-1.221,1.221l-1.424,1.323l-1.526,1.424l-0.814,1.628l0.61,1.933l-0.203,1.221l-0.916,1.831l-0.204,1.628l1.221,0.306l1.323,1.017
	l1.119,1.017h2.136h1.729l0.712,0.408l0.204,1.424l-0.204,1.018l0.204,0.712l0.712,0.203l0.305-0.508l0.509-0.712l2.238-0.509
	l4.375,0.102l0.204-0.305l-0.407-0.61l0.407-1.425l1.119-0.407l0.611-0.712l0.948-0.497l0.288-0.575l1.079-0.288l2.375,0.071
	l1.871,0.072l1.007-0.503l0.719-0.216l1.007,0.36l1.079,0.647l0.575,0.576l0.958,1.031c-0.278-0.448-0.329-1.249-0.354-1.778
	c0.025,0.529,0.086,1.33,0.359,1.778c0.257,0.328,0.934,0.522,1.172,0.902c0.252,0.401,0.349,1.06,0.383,1.532
	c0.042,0.576,0.098,1.416-0.191,1.915c-0.248,0.428-0.855,0.866-1.34,0.958c-0.233,0.044-0.539-0.125-0.766-0.191
	c-0.175-0.051-0.455-0.055-0.575-0.191c-0.194-0.22-0.116-0.674-0.191-0.958c-0.094-0.351-0.02-1.143-0.383-1.149
	c-0.49-0.009-0.453,1.056-0.575,1.532c-0.101,0.394-0.185,0.935-0.191,1.341c-0.008,0.52,0.065,1.219,0.191,1.724
	c0.076,0.3,0.308,0.657,0.383,0.958c0.126,0.504,0.188,1.203,0.191,1.723c0.003,0.578-0.015,1.365-0.191,1.915
	c-0.141,0.441-0.485,0.973-0.766,1.341c-0.345,0.452-0.958,0.919-1.396,1.365c-0.492,0.581-1.282,1.362-1.668,2.083
	c0.386-0.72,1.071-1.447,1.619-2.053l-0.625-0.093l-1.007-0.144l-1.295-0.576l-0.576-0.863l0.576-1.007l-0.432-1.151l-0.72-1.151
	l-1.438-0.719l-1.295-0.432l-1.438-1.007l-1.007-0.863l-1.87,0.145l-2.303,1.151l-1.87,1.007l-1.295,0.719l-1.583,1.007l-0.72,1.583
	l-0.288,1.295l-0.432,1.583l0.72,0.863l2.015,0.576l1.87-0.288l-0.377,1.565c-0.358,0.138-0.472,0.761-0.782,0.96
	c-0.797,0.512-2.145,0.536-3.064,0.766c-0.689,0.173-1.596,0.465-2.298,0.575c-0.853,0.134-2.008,0.21-2.872,0.192
	c-0.52-0.012-1.225-0.044-1.724-0.192c-0.37-0.109-0.797-0.417-1.158-0.582c-0.282-0.127-0.645-0.317-0.949-0.376
	c-0.226-0.043-0.554-0.088-0.766,0c-0.451,0.187-0.909,0.725-1.149,1.149c-0.117,0.206-0.004,0.62-0.191,0.766
	c-0.498,0.389-1.475,0-2.106,0c-0.69,0-1.611,0.053-2.298,0c-0.753-0.058-1.724-0.383-2.489-0.383c-0.766,0-1.628-0.907-2.298-1.341
	c-0.415-0.269-0.191-0.766-1.34-0.958c-1.149-0.191-1.475-1.475-2.106-2.106c-0.517-0.517-1.411-1.062-1.724-1.723
	c-0.247-0.522-0.01-1.367-0.191-1.916c-0.105-0.318-0.306-0.758-0.575-0.958c-0.38-0.282-1.062-0.325-1.532-0.383
	c-0.513-0.063-1.213,0.083-1.723,0c-0.359-0.059-0.791-0.325-1.149-0.383c-0.396-0.064-0.939-0.036-1.34,0
	c-0.64,0.058-1.467,0.326-2.106,0.383c-0.229,0.021-0.538,0.028-0.766,0c-0.235-0.029-0.551-0.092-0.766-0.191
	c-0.449-0.208-1.019-0.582-1.34-0.958c-0.167-0.195-0.177-0.614-0.383-0.766c-0.281-0.208-0.822-0.316-1.148-0.191
	c-0.344,0.131-0.495,0.708-0.766,0.958c-0.306,0.28-0.823,0.511-1.149,0.766c-0.673,0.526-1.668,1.182-2.106,1.915
	c-0.122,0.204-0.043,0.582-0.192,0.766c-0.24,0.301-0.804,0.402-1.148,0.575c-0.46,0.229-1.05,0.588-1.532,0.766
	c-0.222,0.083-0.531,0.163-0.766,0.192c-0.513,0.063-1.236-0.171-1.724,0c-0.347,0.122-0.676,0.529-0.957,0.766
	c-0.529,0.446-1.151,1.144-1.724,1.532c-0.106,0.072-0.262,0.147-0.383,0.191c-0.444,0.165-1.062,0.325-1.532,0.383
	c-0.285,0.035-0.697-0.122-0.958,0c-0.406,0.19-0.804,0.727-0.957,1.149c-0.04,0.108,0,0.268,0,0.383c0,0.402,0.092,0.949,0,1.341
	c-0.088,0.375-0.39,0.811-0.575,1.149c-0.161,0.293-0.283,0.792-0.574,0.958c-0.2,0.113-0.536,0-0.766,0
	c-0.575,0-1.37,0.182-1.916,0c-0.272-0.091-0.527-0.414-0.766-0.574c-0.277-0.188-0.625-0.525-0.957-0.575
	c-0.235-0.035-0.567,0.063-0.766,0.191c-0.31,0.199-0.506,0.697-0.766,0.958c-0.26,0.26-0.67,0.536-0.958,0.766
	s-0.628,0.603-0.958,0.766c-0.424,0.21-1.062,0.325-1.532,0.383c-0.742,0.091-1.744,0.046-2.49,0
	c-0.462-0.029-1.089-0.057-1.532-0.191c-0.369-0.112-0.778-0.471-1.148-0.575c-0.667-0.187-1.609-0.134-2.298-0.191
	c-0.689-0.057-1.607-0.163-2.298-0.191c-0.517-0.021-1.264-0.237-1.724,0c-0.44,0.226-0.677,0.934-0.958,1.34
	c-0.236,0.341-0.424,0.915-0.766,1.149c-0.437,0.3-1.227,0.567-1.724,0.383c-0.269-0.1-0.346-0.591-0.574-0.766
	c-0.491-0.376-1.418-0.397-1.916-0.766c-0.295-0.219-0.597-0.631-0.766-0.958c-0.191-0.372-0.296-0.931-0.383-1.34
	c-0.085-0.397-0.086-0.948-0.191-1.34c-0.08-0.299-0.265-0.672-0.383-0.958c-0.167-0.404-0.379-0.949-0.574-1.34
	c-0.207-0.415-0.438-1.013-0.766-1.34s-0.904-0.611-1.341-0.766c-0.33-0.117-0.8-0.182-1.149-0.191
	c-0.52-0.014-1.231,0.025-1.724,0.191c-0.317,0.107-0.657,0.426-0.958,0.574c-0.277,0.138-0.66,0.3-0.957,0.383
	c-0.336,0.094-0.799,0.187-1.149,0.191c-0.407,0.005-0.953-0.07-1.341-0.191c-0.49-0.153-1.032-0.648-1.532-0.766
	c-0.28-0.066-0.692-0.11-0.958,0c-0.225,0.093-0.438,0.373-0.575,0.575c-0.245,0.362-0.414,0.934-0.575,1.34
	c-0.247,0.625-0.421,1.529-0.766,2.106c-0.354,0.594-0.983,1.303-1.532,1.724c-0.51,0.391-1.317,0.725-1.916,0.958
	c-0.779,0.303-1.89,0.496-2.681,0.766c-0.585,0.2-1.325,0.581-1.915,0.766c-0.731,0.229-1.741,0.413-2.49,0.574
	c-0.573,0.124-1.345,0.249-1.866,0.37l0.199,1.111l-0.25-1.098c-0.636,0.15-1.509,0.303-2.105,0.574
	c-0.377,0.172-0.775,0.589-1.149,0.766c-0.706,0.335-1.742,0.539-2.489,0.766c-0.574,0.174-1.316,0.583-1.915,0.575
	c-0.545-0.008-1.22-0.366-1.724-0.575c-0.593-0.246-1.409-0.562-1.915-0.958c-0.417-0.326-0.814-0.931-1.149-1.341
	c-0.415-0.507-0.991-1.169-1.341-1.723c-0.342-0.544-0.451-1.452-0.827-1.875l0.024-0.019l1.062-1.198l0.576-1.438l0.431-0.863
	l1.439,0.144l1.295-1.007v-0.719l-0.288-0.576l-1.151-0.432l-0.144-1.583l1.295-1.295l0.144-0.863l-1.007-0.144l-1.583,1.151
	l-1.438,0.719l-1.916,0.765l-2.113,0.235l-1.697,0.811l-2.333,2.506l-0.507,2.824l-1.986,1.988l-1.899,0.964l-1.931,0.235
	l-2.166,0.5l-2.446,0.826l-1.871,2.446l0.432,3.021l1.295,1.583v2.59l-1.605,2.299l-0.019-0.001l-1.542,1.875
	c0,0-2.445,1.007-3.453,0.863c-1.007-0.144-1.439-1.295-1.439-1.295l-1.727-1.726l-1.295-0.72l-1.295,0.144l-1.583,1.871
	l1.295,0.431l1.583,1.007l1.727,1.583l-1.152,1.151l-0.329,0.421l-0.021-0.038l-1.088,0.912l-1.007,1.007l-1.296,2.736l0.002,0.001
	l-2.735,2.299l-2.535,1.289l0.015,0.016l0.142,1.208l-0.157-1.224c-0.237-0.161-0.624-0.369-0.923-0.445
	c-0.831-0.212-2.003-0.109-2.844-0.271c-0.707-0.136-1.588-0.586-2.308-0.674l-0.085,1.937l2.809,2.597l3.8,0.371v-0.002l0.002,0
	l-0.001-0.008l4.626,0.646l-4.625-0.638v0.002l-0.002,0l0.281,1.378l0.742,1.325l3.551,3.18l1.087,1.643l1.987,0.371l1.274-0.201
	l0.002-0.012l1.957,3.287l4.239,0.954l3.71-0.954l2.968,0.318v3.021l0.265,2.067l1.007,2.438l0.477,1.06l4.61-0.053l-0.291,1.881
	l-0.186-0.026l-1.537,2.385l-1.378,1.219l-1.007,1.484l-1.59,1.06l-4.134,1.166l-1.961,0.742l-1.695,1.431l-0.477,1.961
	l-0.424,0.742l-0.954,0.318l-2.916,0.636l-2.491,0.318l-0.053,2.12l-2.385,2.014l-2.703,1.643l-4.082,1.855l-3.657,1.483
	l0.583,4.664l1.113,1.325l2.279,0.689l0.901,0.424l0.795,3.232l0.617,1.17c0.293-0.243,0.831-0.335,1.139-0.558
	c0.259-0.187,0.49-0.572,0.753-0.753c0.459-0.315,1.248-0.421,1.695-0.753c0.418-0.311,0.89-0.855,1.129-1.317
	c0.214-0.414,0.147-1.101,0.376-1.506c0.158-0.278,0.452-0.647,0.753-0.753c0.482-0.169,1.187,0.252,1.694,0.188
	c0.479-0.06,1.089-0.322,1.506-0.565c0.381-0.222,0.766-0.692,1.129-0.941c0.479-0.329,1.152-0.731,1.695-0.941
	c0.46-0.178,1.208-0.077,1.566-0.402l0.203,2.839l0.213,2.756l2.067,3.18l-1.272,2.491l-1.113,0.318l-1.96-0.106l-2.756-0.159
	l-1.378,1.802l-1.007,1.484v1.961l-0.477,1.431l-3.127,0.212l-1.537,0.159l-0.954-0.795l-1.961-0.318l-0.742,0.53l-0.105,1.537
	l0.689,1.643l0.901,1.961l1.537,2.597l0.371,0.477l0.583-0.424l2.067-1.484l1.643-0.901l1.643-0.477l-0.053,1.59l-0.159,1.219
	l0.901,1.219l1.908-0.106l1.961-0.742l1.166-0.901l0.265-1.431l-0.742-1.06l-0.689-1.271l0.317-0.742l2.544-1.219l2.12-1.219
	l2.067-1.378l1.431-2.703l0.742-2.968l0.371-2.279l2.067-0.636l1.431-0.53l1.749,0.371l1.749,1.113l1.484,1.431l3.657,0.689
	l3.657,0.212l2.067-0.636l2.491-2.12l1.59-2.12l0.053-1.537l-0.265-1.961l-1.59-1.537l-1.695-0.848l-1.272-1.325l-1.113-1.643
	l-1.749-3.445l0.105-0.848l-0.371-1.378l-1.431-0.795l-0.954-0.742l-1.271,0.053l-1.272-0.265v-1.854l-0.583-1.802l0.265-1.59
	l-0.053-1.113l-0.16-1.272l1.643,0.159l5.141,0.53l1.378-0.212l2.067-0.848l2.067-0.689l1.378-0.795l2.332,0.265l0.742,0.901
	l1.908,2.65l1.219,3.021l2.332,0.318l2.384-0.265l2.438-1.166l0.901-0.583l1.246,1.916c0.399-0.338,0.87-0.894,1.29-1.232
	c0.324-0.261,0.83-0.512,1.139-0.791c0.273-0.247,0.493-0.727,0.798-0.932c0.21-0.141,0.548-0.239,0.799-0.267
	c0.759-0.083,1.767,0.253,2.53,0.267c0.56,0.009,1.304-0.113,1.864-0.133c0.517-0.019,1.244,0.196,1.724,0.002l-0.309,0.71
	l-0.525,2.249l0.037,3.71l0.296,2.367l2.852-0.231l-2.841,0.243l-0.007,0.732l-0.15,1.649l0.75,2.848l1.799,3.748l1.349,1.799
	l1.124,1.649l0.225,1.199l-0.45,3.448v2.249l1.499,2.249l0.674,1.724l-0.674,1.724l-1.274,1.424l-0.599,1.724l0.525,2.549
	l0.149,1.424l0.075,1.949l-0.375,1.649l-0.3,3.073l-0.749,1.874l1.499,1.424l1.574,1.874l0.599,1.349l0.225,2.023l0.524,2.174
	l2.174-0.3l2.398,0.15l1.649,0.524l0.449,2.023l0.9,2.549l0.15,1.573l-1.05,2.174l-1.424,2.324l-0.525,2.323l-0.75,1.424
	l-1.574,1.649l-2.548-0.301l-1.35,1.274l-1.798,0.975l-1.949,1.574l1.199,0.899l0.674,1.424l-0.075,3.448l-0.824,1.723l-2.398-0.074
	l0.299,4.871l0.9,2.475l0.674,1.423l3.972,2.85l3.748,2.173l4.272,3.598l2.698,3.223l2.436,3.858l1.988-0.928l4.504-1.324
	l3.079-0.444l0.002-0.004l1.371,0.209l5.3,0.742l1.908,0.53l4.77,3.815l4.24,1.484l3.71-1.59l2.014-0.636l3.816-0.106l2.332-0.424
	l3.18,1.271l3.286,2.12l4.346-3.18l2.332-2.12l2.464-1.034l2.703-1.165l0.48-0.77l3.893,2.465l0.939,0.929l0,0l0.996,1.297
	l2.783-2.199l3.867,1.853l-1.43,2.706l-0.159,1.324l0.318,3.604l1.218,2.279l0.795,2.597l0.105,2.066v2.067l-0.583,1.112
	l-1.272,0.795l-1.749-0.212l-1.749-0.636l-2.12-0.371l-1.431-0.158l0.159,1.325l0.424,2.384l0.637,1.644l1.325,2.183l1.214,0.324
	l1.542,0.99l0.212,1.591l-0.371,7.261l-1.484,3.868l-1.166,3.393l0.636,1.378l1.696,2.756l0.636,1.484l0.795,1.854l0.901,1.325
	l1.537,0.9l1.537,0.848l1.875,0.318l2.546-0.158l3.414-1.12l0.832-1.025l0.192-1.727l-0.448-2.881l0.96-2.304l2.24-2.176
	l3.584-0.704l2.944,0.704l1.408,1.023l5.056,0.513l1.792,0.768l0.768,1.152l2.944-0.192l2.048-1.728l1.026-1.796l0.894-4.221
	l-0.895,4.229l2.67,0.601l2.806,1.267l2.459,0.111l2.432-0.512l3.136,0.576l1.536,0.832l2.24,1.279l2.304,0.385l2.56-1.921
	l1.024,0.576h1.344l2.624-0.703l2.624-0.448l1.856-0.832l1.856-1.28l1.727-1.664l0.064-1.792l-0.576-1.151l-1.344-2.752l0.768-1.664
	l2.24-1.792l4.032-0.32l1.152-0.832l0.448-0.512l0.384,2.176l0.319,3.2l0.257,2.176l0.384,1.601l2.56,0.256l3.072-0.896l1.28,1.28
	l2.111,2.752l2.624,0.64l0.703,0.384l0.385,1.408l-2.048,2.176l-1.472,1.088l-0.576,4.928l0.256,3.393l1.855,4.224l1.664,2.496
	l2.24,2.24l1.473,0.127l2.367,0.769l2.24,2.496l-0.32,3.584l-1.279,2.56l0.511,2.304l1.921,2.305l-0.385,2.048l-1.023,2.688
	l-0.128,2.944l0.768,3.968l-1.408,2.304l-1.536,1.28l-0.767,2.048l0.127,3.584l-1.151,3.328l-1.152,2.048l0.896,2.432l2.047,3.456
	l1.281,3.455l-0.513,3.456l0.513,2.561l3.327,2.432l2.432,2.304l2.816,3.968l2.64,2.521l3.428-0.607l0.144-1.87l0.432-2.303
	l1.583-2.733l1.007-0.863l1.295-2.015l0.288-1.582l2.158-1.728l1.439-0.719l0.144-1.583l0.288-4.892l2.733-3.31l2.734-5.611
	l1.727-3.454l-0.288-4.46l-1.295-2.302l-0.432-4.029v-6.187l-5.036-4.461l-0.144-3.31l1.583-1.438l2.302-1.438l0.719-1.583
	l-0.431-3.598l-0.145-2.445l2.159-2.303l3.165-1.295l3.453-0.575l4.173-0.576l2.446,0.864l0.144,2.014v1.871l2.59,2.157l1.151,1.295
	l1.87,0.433l0.287-0.72l1.152-1.727l0.287-2.158l1.87-2.159l1.151-1.006l3.31,0.287l1.295,1.727l0.144,2.446l-0.719,3.885
	l-1.151,3.021l-0.288,2.302v3.166l0.72,2.446l1.87,3.885l-0.287,3.309l-0.576,2.015l2.303,1.295l2.445,1.583l1.871,1.295l1.15,3.31
	l0.576,1.87l1.87,2.59l2.158,2.159l4.173,2.015l2.303,1.295l3.31,0.143l1.726,0.576l2.159-0.288l3.165-0.863l3.021-1.151
	l2.734,0.576l1.007,0.432l1.295-1.008l0.72-2.014l-0.145-2.158l0.288-4.029l1.007-1.582l2.303-1.439l2.302,1.439l3.166,1.582
	l1.582-0.287l1.583-1.008l1.727-1.15l1.15-2.159l2.734-0.862h4.316l1.727-0.72l1.295-0.72l2.015-1.007l2.303-0.576l2.446,0.576
	l1.87-1.008l1.727-0.863l1.438,1.295l1.295,1.871l1.295,1.87l2.591,2.446l0.287,3.166l-1.007,0.431l0.144,2.878l1.007,1.295v2.158
	l-0.287,2.878l1.151,0.719l3.74,1.583l3.166,2.159l0.72,2.59l-0.433,3.597l-0.144,2.59l1.438,1.007l0.863,1.008l0.72-0.863
	l1.151-1.583l2.302-0.144l2.59,0.719l2.303,0.145l1.295-0.288l3.021-3.885l2.446-2.59l-1.439-2.59l-1.295-2.302l-2.015-2.59
	l-1.727-1.439l-2.015-2.734l-1.438-3.021l-0.432-2.302l0.863-2.733l0.72-2.734l0.574-2.418l0.102-0.406l1.221-1.119l1.933-0.814
	l2.646-2.034l0.406-0.916l-0.509-1.526l-1.831-2.034l-0.713-1.526l-0.508-1.322c0,0-1.628,0.61-2.34,0.915
	c-0.713,0.306-1.934,0.509-1.934,0.509l-2.747,0.305l-1.526,0.204l-1.933-0.916l-1.323-0.305l-1.221-2.34l-1.526-2.238l0.204-2.951
	l0.508-1.628l-0.508-1.627l-0.509-3.969l1.221-2.34l0.61-1.119l0.204-2.543v-3.155l0.406-1.831l3.154-3.255l0.61-2.137l1.526-1.323
	l2.034-0.915l-0.509-3.256l1.019-2.238l2.238-0.407l1.831,0.407l0.712-0.407l2.646-0.814l1.119-1.118l1.729-0.509l0.61-1.425
	l2.238-0.61l1.526,0.102l1.729,0.712h1.018l0.61-1.119v-0.712l0.61-1.322l1.832,0.102l0.305,0.915l0.712,1.934l1.425,1.831
	l0.305,1.119l0.102,2.34l-1.628,1.323l-0.203,1.831l1.222,1.119l1.118,0.407l2.85,0.203l1.933,1.119l0.916,2.035l0.813,1.526
	l0.407,1.322l5.087-0.102l1.933-0.713l4.172,0.204l1.934,0.61l3.561-0.305l2.442,0.61l1.322,0.813l1.831,0.203l1.831-2.543
	l0.713-2.544l1.119-2.34l0.61-3.561l-0.102-4.681l-2.238-2.441l-1.322-1.628l-3.155-1.221l-3.255,0.813l-1.934,0.306l-1.221-0.814
	l-0.61-2.137l-1.018-3.866l-0.813-1.118l-0.306-4.273l0.915-1.119l4.478-4.273l-0.509-1.526l-1.221-0.916l-0.611-1.525l0.407-1.119
	l1.729-1.526l2.646-1.628l2.034-1.119l0.102-1.018l-1.322-2.137l-1.119-1.628l-0.407-2.34l0.306-1.526l1.221-1.119l1.526-1.018
	l1.118-1.525l-0.102-1.729l0.713-2.035l1.221-2.137l0.61-2.646l0.204-1.628l-0.408-1.322l0.306-2.238l-0.763-1.689
	c0.174-0.43,0.106-1.077,0.191-1.532C531.934,445.711,532.159,444.788,532.378,444.112z M83.717,311.066
	c0.254,0.018,0.384,0.028,0.671,0.051L83.717,311.066z M229.382,421.527l0-0.004l0.003,0.003L229.382,421.527z"/>
<g>
	<path id="lake_lucerne" fill="#CCD3DB" d="M201.52,430.276c-0.068-0.186,0.23-0.403,0.365-0.547
		c0.142-0.152,0.378-0.304,0.547-0.425c0.213-0.154,0.53-0.315,0.729-0.486c0.205-0.177,0.427-0.467,0.607-0.669
		c0.129-0.145,0.255-0.393,0.425-0.485c0.21-0.115,0.554-0.078,0.79-0.121c0.33-0.062,0.78-0.121,1.093-0.243
		c0.373-0.146,0.8-0.482,1.154-0.669c0.303-0.158,0.784-0.251,1.033-0.485c0.166-0.156,0.321-0.444,0.364-0.668
		c0.028-0.145,0.046-0.386-0.061-0.486c-0.2-0.188-0.639-0.026-0.911-0.062c-0.294-0.037-0.72-0.024-0.972-0.182
		c-0.155-0.096-0.303-0.314-0.365-0.485c-0.125-0.344-0.075-0.851-0.061-1.216c0.017-0.422,0.137-0.977,0.182-1.396
		c0.023-0.218,0.107-0.515,0.06-0.729c-0.039-0.184-0.244-0.369-0.304-0.547c-0.086-0.262-0.167-0.639-0.121-0.911
		c0.04-0.241,0.195-0.552,0.365-0.729c0.129-0.136,0.361-0.273,0.546-0.304c0.201-0.033,0.491,0.021,0.668,0.122
		c0.191,0.107,0.359,0.368,0.486,0.547c0.108,0.153,0.151,0.437,0.304,0.546c0.166,0.119,0.464,0.121,0.668,0.122
		c0.314,0,0.749-0.045,1.032-0.182c0.197-0.096,0.473-0.279,0.547-0.486c0.155-0.435-0.19-1.061-0.243-1.519
		c-0.059-0.508,0.039-1.215-0.122-1.701c-0.074-0.226-0.308-0.461-0.425-0.668c-0.06-0.106-0.212-0.246-0.182-0.364
		c0.055-0.216,0.505-0.229,0.607-0.425c0.135-0.259,0.075-0.69,0-0.972c-0.075-0.284-0.33-0.602-0.486-0.851
		c-0.188-0.299-0.459-0.686-0.668-0.972c-0.175-0.242-0.395-0.58-0.607-0.79c-0.259-0.256-0.716-0.47-0.972-0.729
		c-0.238-0.241-0.586-0.583-0.668-0.911c-0.031-0.125,0.012-0.307,0.061-0.425c0.07-0.168,0.199-0.41,0.364-0.486
		c0.266-0.122,0.687-0.003,0.972,0.061c0.383,0.086,0.881,0.279,1.215,0.486c0.395,0.245,0.834,0.695,1.154,1.033
		c0.321,0.339,0.744,0.808,0.972,1.215c0.104,0.186,0.135,0.484,0.243,0.668c0.183,0.312,0.478,0.726,0.789,0.911
		c0.289,0.172,0.764,0.308,1.094,0.243c0.282-0.055,0.562-0.371,0.789-0.546c0.399-0.308,0.913-0.744,1.276-1.094
		c0.464-0.447,1.018-1.108,1.458-1.579c0.308-0.33,0.691-0.798,1.032-1.094c0.286-0.249,0.747-0.479,1.033-0.729
		c0.301-0.263,0.618-0.7,0.911-0.972c0.36-0.335,0.889-0.728,1.276-1.033c0.234-0.185,0.62-0.361,0.789-0.607
		c0.108-0.156,0.081-0.447,0.183-0.607c0.131-0.207,0.424-0.384,0.607-0.546c0.145-0.129,0.333-0.308,0.486-0.425
		c0.157-0.12,0.356-0.415,0.547-0.365c0.118,0.031,0.147,0.248,0.182,0.365c0.089,0.299,0.156,0.723,0.122,1.033
		c-0.037,0.326-0.252,0.724-0.364,1.032c-0.232,0.64-0.534,1.496-0.79,2.126c-0.254,0.627-0.591,1.469-0.911,2.065
		c-0.145,0.267-0.366,0.607-0.547,0.851c-0.201,0.27-0.482,0.623-0.729,0.851c-0.183,0.168-0.474,0.333-0.668,0.486
		c-0.244,0.192-0.562,0.458-0.79,0.668c-0.151,0.14-0.398,0.298-0.485,0.486c-0.092,0.199-0.132,0.521-0.061,0.729
		c0.096,0.281,0.417,0.571,0.667,0.729c0.162,0.101,0.419,0.154,0.608,0.182c0.397,0.058,0.949,0.103,1.336,0
		c0.284-0.076,0.604-0.325,0.85-0.486c0.229-0.15,0.483-0.427,0.729-0.547c0.187-0.091,0.464-0.141,0.668-0.183
		c0.396-0.081,0.941-0.27,1.336-0.182c0.296,0.065,0.619,0.351,0.851,0.546c0.247,0.208,0.49,0.574,0.729,0.79
		c0.203,0.183,0.483,0.426,0.729,0.546c0.186,0.091,0.478,0.099,0.667,0.182c0.473,0.207,1.085,0.555,1.458,0.911
		c0.208,0.199,0.396,0.543,0.546,0.79c0.182,0.299,0.431,0.701,0.547,1.033c0.098,0.28,0.189,0.675,0.183,0.972
		c-0.005,0.243-0.097,0.562-0.183,0.79c-0.108,0.291-0.531,0.605-0.485,0.911c0.026,0.178,0.29,0.305,0.425,0.426
		c0.174,0.156,0.403,0.374,0.607,0.486c0.253,0.137,0.641,0.203,0.912,0.304c0.313,0.116,0.703,0.364,1.032,0.425
		c0.646,0.118,1.547,0.089,2.187-0.061c0.255-0.06,0.529-0.355,0.79-0.364c0.311-0.012,0.667,0.301,0.972,0.364
		c0.393,0.08,0.938,0.014,1.336,0.061c0.571,0.067,1.308,0.383,1.883,0.364c0.434-0.014,1.003-0.185,1.397-0.364
		c0.322-0.146,0.688-0.457,0.972-0.668c0.187-0.14,0.416-0.353,0.607-0.486c0.262-0.182,0.616-0.427,0.912-0.546
		c0.225-0.091,0.552-0.132,0.79-0.182c0.581-0.122,1.351-0.358,1.944-0.365c0.333-0.003,0.814,0.002,1.094,0.182
		c0.331,0.214,0.487,0.782,0.729,1.094c0.134,0.174,0.36,0.367,0.486,0.547c0.131,0.187,0.236,0.479,0.365,0.668
		c0.175,0.256,0.549,0.503,0.668,0.789c0.167,0.406,0.11,1.02,0.122,1.459c0.014,0.564-0.087,1.317-0.061,1.883
		c0.021,0.44,0.11,1.022,0.182,1.458c0.088,0.531,0.25,1.233,0.365,1.762c0.087,0.401,0.258,0.927,0.303,1.336
		c0.049,0.435,0.06,1.024,0,1.457c-0.045,0.338-0.208,0.768-0.303,1.094c-0.123,0.422-0.342,0.968-0.425,1.397
		c-0.08,0.413-0.237,0.992-0.122,1.397c0.05,0.175,0.251,0.344,0.365,0.486c0.193,0.241,0.464,0.555,0.667,0.789
		c0.145,0.166,0.372,0.358,0.486,0.547c0.132,0.217,0.243,0.543,0.304,0.79c0.11,0.445,0.146,1.061,0.182,1.519
		c0.037,0.454,0.189,1.08,0.061,1.519c-0.063,0.213-0.243,0.48-0.425,0.607c-0.293,0.204-0.867,0.09-1.154,0.304
		c-0.224,0.166-0.331,0.559-0.486,0.789c-0.189,0.281-0.344,0.813-0.668,0.911c-0.204,0.062-0.506-0.104-0.668-0.243
		c-0.204-0.175-0.317-0.543-0.425-0.789c-0.133-0.301-0.279-0.716-0.365-1.032c-0.126-0.467-0.265-1.1-0.304-1.58
		c-0.048-0.6,0.031-1.403,0.061-2.004c0.013-0.273,0.111-0.643,0.061-0.912c-0.056-0.296-0.307-0.634-0.425-0.911
		c-0.138-0.323-0.274-0.775-0.425-1.093c-0.127-0.266-0.396-0.57-0.486-0.851c-0.106-0.331-0.147-0.808-0.121-1.154
		c0.027-0.357,0.211-0.809,0.304-1.154c0.107-0.401,0.261-0.934,0.364-1.336c0.135-0.527,0.28-1.238,0.425-1.762
		c0.082-0.295,0.241-0.673,0.304-0.972c0.102-0.484,0.18-1.146,0.183-1.641c0.002-0.55-0.114-1.277-0.183-1.821
		c-0.076-0.604-0.016-1.47-0.304-2.006c-0.116-0.215-0.373-0.477-0.607-0.546c-0.23-0.069-0.571,0.023-0.79,0.121
		c-0.366,0.164-0.678,0.663-1.032,0.851c-0.521,0.274-1.368,0.263-1.883,0.547c-0.362,0.198-0.694,0.675-1.033,0.91
		c-0.221,0.154-0.546,0.312-0.79,0.426c-0.444,0.208-1.058,0.438-1.519,0.607c-0.487,0.179-1.146,0.391-1.64,0.547
		c-0.544,0.172-1.277,0.38-1.822,0.546c-0.292,0.09-0.68,0.215-0.972,0.305c-0.418,0.129-0.965,0.351-1.397,0.425
		c-0.396,0.068-0.942,0.136-1.336,0.061c-0.177-0.033-0.377-0.187-0.547-0.242c-0.567-0.186-1.394-0.196-1.944-0.425
		c-0.341-0.143-0.7-0.51-1.032-0.669c-0.416-0.2-1.01-0.379-1.458-0.486c-0.609-0.145-1.445-0.221-2.066-0.304
		c-0.455-0.061-1.074-0.066-1.519-0.182c-0.324-0.085-0.746-0.251-1.033-0.426c-0.265-0.161-0.562-0.457-0.79-0.668
		c-0.151-0.14-0.412-0.293-0.485-0.485c-0.118-0.308-0.043-0.782,0.06-1.094c0.083-0.25,0.297-0.546,0.486-0.729
		c0.2-0.193,0.535-0.374,0.79-0.485c0.365-0.16,0.885-0.29,1.275-0.364c0.36-0.069,0.854-0.061,1.215-0.122
		c0.388-0.065,0.908-0.165,1.276-0.304c0.29-0.109,0.765-0.213,0.911-0.486c0.086-0.162,0.077-0.487-0.061-0.607
		c-0.398-0.348-1.233,0.052-1.761,0.061c-0.602,0.01-1.404-0.026-2.005,0c-0.42,0.019-0.977,0.104-1.397,0.122
		c-0.492,0.021-1.152,0.065-1.64,0c-0.412-0.055-0.923-0.319-1.336-0.364c-0.744-0.082-1.744,0.142-2.491,0.121
		c-0.348-0.009-0.807-0.103-1.154-0.121c-0.455-0.024-1.092-0.162-1.519,0c-0.387,0.146-0.741,0.618-1.032,0.911
		c-0.255,0.257-0.573,0.623-0.79,0.912c-0.363,0.485-0.747,1.203-1.093,1.701c-0.156,0.225-0.395,0.502-0.547,0.729
		c-0.297,0.44-0.613,1.079-0.912,1.519c-0.219,0.322-0.56,0.718-0.79,1.033c-0.301,0.412-0.575,1.075-0.972,1.396
		c-0.292,0.237-0.809,0.339-1.154,0.486c-0.383,0.162-0.91,0.349-1.275,0.547c-0.289,0.156-0.609,0.479-0.912,0.607
		c-0.241,0.102-0.592,0.146-0.851,0.182c-0.271,0.038-0.637,0.052-0.911,0.062c-0.364,0.012-0.854,0.05-1.215,0
		C202.108,430.481,201.612,430.525,201.52,430.276z"/>
	<path id="lake_zug" fill="#CCD3DB" d="M237.485,405.613c0.329-0.009,0.707-0.395,0.859-0.688c0.19-0.366,0.1-0.961,0.085-1.374
		c-0.026-0.806-0.206-1.87-0.343-2.664c-0.104-0.598-0.12-1.454-0.43-1.976c-0.261-0.44-0.928-0.753-1.289-1.117
		c-0.476-0.481-1.047-1.183-1.46-1.718c-0.192-0.249-0.468-0.574-0.601-0.859c-0.169-0.363-0.322-0.89-0.343-1.289
		c-0.019-0.338,0.08-0.791,0.171-1.117c0.09-0.322,0.278-0.731,0.43-1.031c0.136-0.268,0.393-0.584,0.515-0.859
		c0.143-0.32,0.241-0.782,0.344-1.117c0.103-0.335,0.263-0.776,0.344-1.117c0.107-0.458,0.173-1.083,0.258-1.546
		c0.071-0.388,0.156-0.907,0.258-1.289c0.062-0.236,0.16-0.549,0.258-0.773c0.129-0.296,0.435-0.632,0.515-0.945
		c0.039-0.15,0-0.361,0-0.516c0-0.18,0.076-0.438,0-0.601c-0.099-0.216-0.4-0.389-0.601-0.516c-0.215-0.136-0.532-0.263-0.773-0.343
		c-0.551-0.184-1.332-0.267-1.89-0.43c-0.368-0.107-0.848-0.286-1.203-0.43c-0.289-0.117-0.684-0.26-0.945-0.43
		c-0.26-0.169-0.464-0.652-0.772-0.687c-0.321-0.037-0.674,0.341-0.946,0.516c-0.216,0.139-0.482,0.359-0.687,0.515
		c-0.233,0.178-0.569,0.389-0.773,0.601c-0.154,0.16-0.353,0.394-0.429,0.602c-0.107,0.291-0.121,0.722-0.086,1.031
		c0.057,0.51,0.455,1.122,0.515,1.632c0.042,0.359-0.052,0.842-0.086,1.203c-0.041,0.439-0.175,1.02-0.171,1.46
		c0.002,0.39-0.055,0.971,0.171,1.289c0.134,0.188,0.54,0.167,0.687,0.344c0.12,0.144,0.182,0.414,0.172,0.601
		c-0.014,0.278-0.248,0.599-0.343,0.859c-0.084,0.229-0.24,0.529-0.258,0.773c-0.033,0.443,0.092,1.047,0.258,1.46
		c0.104,0.259,0.339,0.558,0.516,0.773c0.161,0.197,0.378,0.478,0.601,0.601c0.3,0.167,0.779,0.191,1.117,0.258
		c0.307,0.061,0.74,0.053,1.03,0.172c0.109,0.045,0.275,0.117,0.322,0.226c0.056,0.128,0.001,0.338-0.064,0.461
		c-0.146,0.274-0.537,0.486-0.773,0.688c-0.278,0.237-0.673,0.527-0.945,0.773c-0.189,0.171-0.428,0.414-0.601,0.602
		c-0.162,0.174-0.417,0.385-0.516,0.602c-0.075,0.166-0.112,0.421-0.086,0.601c0.044,0.308,0.235,0.702,0.429,0.945
		c0.243,0.302,0.707,0.564,1.031,0.773c0.272,0.175,0.693,0.313,0.945,0.516c0.214,0.171,0.258,0.515,0.601,0.687
		c0.344,0.171,0.793,0.664,1.031,1.031c0.195,0.301,0.234,0.816,0.43,1.117c0.079,0.122,0.222,0.263,0.343,0.344
		c0.231,0.153,0.597,0.252,0.859,0.344c0.254,0.088,0.605,0.169,0.859,0.258c0.262,0.091,0.615,0.21,0.859,0.343
		C237.078,405.29,237.262,405.619,237.485,405.613z"/>
	<path id="lake_sempach" fill="#CCD3DB" d="M186.456,393.672c0.308-0.041,0.595-0.433,0.773-0.688
		c0.16-0.227,0.278-0.589,0.344-0.859c0.066-0.277,0.083-0.661,0.085-0.945c0.003-0.361,0.01-0.854-0.085-1.203
		c-0.107-0.389-0.354-0.884-0.602-1.202c-0.292-0.375-0.817-0.753-1.202-1.031c-0.366-0.264-0.927-0.505-1.289-0.773
		c-0.586-0.435-1.254-1.152-1.804-1.632c-0.482-0.421-1.266-0.85-1.633-1.375c-0.172-0.247-0.211-0.674-0.343-0.945
		c-0.107-0.219-0.278-0.497-0.43-0.688c-0.159-0.2-0.393-0.455-0.601-0.601c-0.396-0.279-0.986-0.786-1.46-0.688
		c-0.268,0.056-0.505,0.431-0.601,0.688c-0.199,0.53-0.008,1.323,0,1.89c0.013,0.876-0.261,2.116,0.085,2.921
		c0.159,0.368,0.698,0.629,0.946,0.945c0.277,0.355,0.466,0.958,0.772,1.289c0.365,0.393,1.021,0.725,1.46,1.031
		c0.488,0.338,1.141,0.785,1.632,1.117c0.308,0.208,0.729,0.471,1.031,0.688c0.343,0.246,0.785,0.596,1.117,0.859
		c0.287,0.228,0.637,0.574,0.945,0.773C185.839,393.399,186.17,393.71,186.456,393.672z"/>
	<path id="lake_baldegg" fill="#CCD3DB" d="M200.63,379.755c0.373-0.104,0.668-0.659,0.773-1.031
		c0.078-0.274-0.033-0.666-0.085-0.945c-0.086-0.448-0.271-1.032-0.43-1.46c-0.196-0.53-0.542-1.202-0.773-1.718
		c-0.207-0.463-0.47-1.087-0.687-1.546c-0.147-0.312-0.262-0.795-0.515-1.031c-0.245-0.229-0.701-0.376-1.031-0.43
		c-0.357-0.058-0.89-0.096-1.203,0.086c-0.161,0.094-0.275,0.343-0.344,0.516c-0.115,0.292-0.146,0.718-0.171,1.031
		c-0.019,0.231-0.053,0.547,0,0.773c0.119,0.504,0.546,1.08,0.773,1.546c0.237,0.487,0.543,1.142,0.773,1.632
		c0.181,0.386,0.332,0.958,0.601,1.289c0.244,0.3,0.694,0.584,1.031,0.773C199.705,379.444,200.23,379.868,200.63,379.755z"/>
	<path id="lake_hallwil" fill="#CCD3DB" d="M193.758,364.121c0.341-0.377,0.552-1.058,0.688-1.546c0.111-0.4,0.16-0.959,0.171-1.375
		c0.021-0.749-0.073-1.749-0.171-2.491c-0.087-0.651-0.281-1.508-0.43-2.148c-0.181-0.779-0.457-1.811-0.687-2.577
		c-0.21-0.703-0.438-1.667-0.773-2.319c-0.16-0.312-0.502-0.647-0.687-0.945c-0.263-0.42-0.441-1.092-0.773-1.46
		c-0.187-0.207-0.495-0.528-0.773-0.516c-0.165,0.007-0.339,0.206-0.429,0.344c-0.162,0.246-0.238,0.652-0.258,0.945
		c-0.056,0.803,0.256,1.862,0.343,2.663c0.062,0.566,0.088,1.327,0.172,1.89c0.111,0.755,0.42,1.734,0.516,2.491
		c0.07,0.563-0.025,1.333,0.085,1.89c0.059,0.295,0.216,0.671,0.344,0.945c0.239,0.513,0.724,1.111,0.945,1.632
		c0.146,0.345,0.244,0.841,0.344,1.203c0.106,0.386,0.144,0.942,0.344,1.289c0.091,0.158,0.249,0.405,0.429,0.429
		C193.363,364.492,193.619,364.275,193.758,364.121z"/>
	<path id="lake_aegeri" fill="#CCD3DB" d="M254.672,397.17c0.412-0.055,1.011-0.106,1.337-0.364
		c0.358-0.283,0.517-0.932,0.729-1.336c0.075-0.145,0.263-0.324,0.243-0.486c-0.041-0.333-0.543-0.57-0.729-0.85
		c-0.135-0.204-0.232-0.523-0.364-0.729c-0.252-0.393-0.637-0.89-0.972-1.215c-0.262-0.254-0.646-0.567-0.972-0.729
		c-0.475-0.236-1.216-0.27-1.701-0.486c-0.314-0.14-0.683-0.421-0.972-0.607c-0.22-0.143-0.469-0.444-0.729-0.486
		c-0.41-0.066-0.977,0.156-1.336,0.365c-0.268,0.155-0.624,0.438-0.729,0.729c-0.138,0.378,0,0.851,0.121,1.336
		c0.122,0.486,0.827,1.087,1.337,1.336c0.264,0.129,0.698,0.015,0.972,0.121c0.292,0.114,0.575,0.458,0.85,0.608
		c0.344,0.188,0.913,0.235,1.215,0.486c0.366,0.303,0.717,0.88,0.85,1.336c0.082,0.28-0.206,0.766,0,0.972
		C254.002,397.351,254.419,397.204,254.672,397.17z"/>
	<path id="sihlsee" fill="#CCD3DB" d="M281.64,402.005c0.323,0.135,0.875,0.052,1.157-0.158c0.176-0.131,0.28-0.449,0.303-0.668
		c0.039-0.352-0.141-0.815-0.243-1.154c-0.085-0.282-0.167-0.692-0.364-0.911c-0.234-0.261-0.751-0.339-1.033-0.547
		c-0.228-0.168-0.463-0.473-0.667-0.668c-0.197-0.188-0.526-0.377-0.668-0.608c-0.179-0.29-0.222-0.763-0.304-1.093
		c-0.144-0.58-0.33-1.354-0.425-1.944c-0.083-0.507-0.14-1.189-0.183-1.701c-0.052-0.637-0.112-1.487-0.121-2.126
		c-0.009-0.62,0.103-1.447,0.061-2.065c-0.022-0.332-0.039-0.793-0.182-1.094c-0.095-0.198-0.322-0.401-0.486-0.546
		c-0.166-0.148-0.396-0.353-0.607-0.425c-0.346-0.118-0.861-0.147-1.215-0.061c-0.246,0.06-0.512,0.294-0.729,0.425
		c-0.147,0.089-0.343,0.208-0.486,0.304c-0.316,0.21-0.836,0.405-1.032,0.729c-0.143,0.236-0.122,0.635-0.122,0.911
		c0,0.423,0.041,0.999,0.182,1.397c0.151,0.424,0.567,0.884,0.79,1.276c0.293,0.518,0.695,1.207,0.911,1.762
		c0.227,0.581,0.334,1.418,0.547,2.004c0.164,0.453,0.442,1.033,0.668,1.458c0.18,0.339,0.443,0.781,0.667,1.093
		c0.265,0.367,0.679,0.809,0.972,1.154c0.326,0.384,0.773,0.886,1.094,1.276c0.206,0.25,0.47,0.593,0.668,0.85
		C281.051,401.211,281.249,401.842,281.64,402.005z"/>
	<path id="lake_zurich" fill="#CCD3DB" d="M300.11,370.048c0.358-0.009,0.827,0.218,1.116,0.43c0.133,0.098,0.3,0.271,0.344,0.43
		c0.057,0.2,0.006,0.5-0.086,0.687c-0.176,0.36-0.652,0.671-0.944,0.945c-0.4,0.375-0.92,0.897-1.375,1.203
		c-0.479,0.321-1.173,0.672-1.718,0.859c-0.622,0.213-1.491,0.411-2.148,0.43c-0.364,0.01-0.84-0.139-1.203-0.172
		c-0.617-0.057-1.443-0.112-2.062-0.086c-0.623,0.026-1.445,0.167-2.062,0.258c-0.311,0.045-0.762,0.011-1.031,0.171
		c-0.252,0.151-0.436,0.531-0.602,0.773c-0.17,0.248-0.33,0.622-0.516,0.859c-0.134,0.172-0.31,0.441-0.515,0.516
		c-0.56,0.204-1.387-0.085-1.976-0.172c-0.625-0.092-1.452-0.265-2.062-0.43c-0.472-0.127-1.1-0.316-1.546-0.515
		c-0.379-0.169-0.854-0.46-1.203-0.687c-0.509-0.333-1.066-0.979-1.632-1.203c-0.41-0.162-1.019-0.175-1.46-0.172
		c-0.39,0.003-0.905,0.099-1.288,0.172c-0.209,0.04-0.476,0.151-0.688,0.172c-0.488,0.047-1.144-0.049-1.632-0.086
		c-0.775-0.059-1.831-0.042-2.577-0.258c-0.166-0.048-0.344-0.268-0.516-0.258c-0.278,0.018-0.567,0.329-0.773,0.516
		c-0.271,0.246-0.429,0.822-0.773,0.945c-0.247,0.089-0.618-0.067-0.859-0.172c-0.407-0.176-0.882-0.553-1.203-0.859
		c-0.332-0.317-0.641-0.859-0.945-1.203c-0.532-0.6-1.313-1.333-1.89-1.89c-0.354-0.342-0.805-0.826-1.203-1.117
		c-0.549-0.402-1.442-0.695-1.976-1.117c-0.386-0.305-0.848-0.79-1.117-1.203c-0.214-0.329-0.313-0.866-0.516-1.203
		c-0.253-0.425-0.693-0.926-1.03-1.289c-0.335-0.361-0.764-0.895-1.203-1.117c-0.492-0.248-1.254-0.304-1.805-0.343
		c-0.566-0.041-1.325,0.147-1.889,0.086c-0.398-0.043-0.923-0.182-1.289-0.344c-0.477-0.211-1.015-0.674-1.46-0.945
		c-0.355-0.216-0.882-0.422-1.203-0.688c-0.366-0.302-0.708-0.854-1.031-1.203c-0.371-0.401-1.079-0.783-1.288-1.288
		c-0.188-0.453,0.092-1.152,0-1.633c-0.105-0.545-0.446-1.218-0.687-1.718c-0.271-0.562-0.706-1.272-1.031-1.804
		c-0.32-0.525-0.811-1.185-1.117-1.718c-0.286-0.5-0.646-1.183-0.859-1.718c-0.198-0.5-0.333-1.212-0.516-1.718
		c-0.18-0.5-0.529-1.125-0.687-1.632c-0.149-0.478-0.133-1.178-0.344-1.632c-0.124-0.267-0.43-0.535-0.601-0.773
		c-0.218-0.301-0.517-0.701-0.688-1.031c-0.165-0.319-0.272-0.794-0.429-1.117c-0.132-0.27-0.479-0.561-0.516-0.859
		c-0.033-0.267,0.159-0.609,0.258-0.859c0.17-0.428,0.444-0.982,0.687-1.374c0.135-0.219,0.258-0.688,0.516-0.688
		c0.515,0,0.699,0.98,1.031,1.375c0.411,0.488,1.109,1.014,1.46,1.546c0.356,0.54,0.623,1.374,0.859,1.976
		c0.2,0.508,0.479,1.186,0.602,1.718c0.099,0.43,0.038,1.04,0.171,1.46c0.098,0.308,0.369,0.657,0.516,0.945
		c0.219,0.432,0.476,1.024,0.688,1.46c0.201,0.415,0.486,0.96,0.687,1.375c0.211,0.436,0.503,1.012,0.687,1.46
		c0.177,0.43,0.294,1.052,0.516,1.46c0.262,0.485,0.737,1.061,1.117,1.46c0.466,0.491,1.208,1.016,1.718,1.46
		c0.495,0.432,1.149,1.016,1.632,1.46c0.497,0.457,1.073,1.169,1.632,1.546c0.564,0.381,1.421,0.716,2.062,0.945
		c0.577,0.206,1.383,0.359,1.976,0.516c0.387,0.102,0.913,0.208,1.289,0.343c0.347,0.125,0.796,0.333,1.117,0.516
		c0.435,0.248,0.985,0.631,1.375,0.945c0.497,0.401,1.07,1.035,1.546,1.46c0.327,0.292,0.784,0.66,1.117,0.945
		c0.389,0.333,0.859,0.838,1.288,1.117c0.358,0.232,0.902,0.423,1.289,0.601c0.283,0.13,0.661,0.302,0.945,0.43
		c0.463,0.208,1.062,0.538,1.546,0.688c0.275,0.084,0.661,0.123,0.945,0.171c0.644,0.11,1.497,0.292,2.147,0.344
		c0.591,0.047,1.383,0.016,1.976,0c0.49-0.013,1.171,0.082,1.632-0.086c0.243-0.088,0.456-0.402,0.687-0.515
		c0.265-0.129,0.691-0.11,0.945-0.258c0.284-0.165,0.477-0.633,0.773-0.773c0.234-0.111,0.601-0.089,0.859-0.086
		c0.208,0.003,0.486,0.038,0.688,0.086c0.373,0.089,0.922,0.168,1.203,0.43c0.329,0.307,0.43,0.958,0.602,1.375
		c0.19,0.46,0.318,1.137,0.601,1.546c0.197,0.285,0.587,0.558,0.859,0.773c0.32,0.252,0.738,0.624,1.117,0.773
		c0.509,0.2,1.257,0.253,1.804,0.258c0.416,0.003,0.995-0.004,1.375-0.172c0.217-0.096,0.373-0.45,0.602-0.516
		c0.326-0.093,0.79,0.083,1.117,0.172c0.268,0.073,0.595,0.258,0.859,0.344c0.405,0.13,0.951,0.375,1.375,0.343
		c0.334-0.025,0.708-0.339,1.03-0.429c0.327-0.092,0.785-0.103,1.117-0.172c0.392-0.082,0.904-0.232,1.289-0.344
		c0.416-0.12,0.967-0.285,1.375-0.429c0.392-0.14,0.9-0.367,1.288-0.516c0.282-0.108,0.665-0.231,0.945-0.344
		C299.572,370.297,299.856,370.055,300.11,370.048z"/>
	<path id="lake_walen" fill="#CCD3DB" d="M341.112,395.226c0.512-0.008,1.19,0.084,1.7,0.122c0.474,0.035,1.106,0.161,1.58,0.122
		c0.374-0.032,0.843-0.25,1.215-0.304c0.415-0.06,0.978-0.068,1.397-0.061c0.456,0.008,1.067,0.198,1.518,0.122
		c0.314-0.053,0.664-0.347,0.973-0.425c0.212-0.054,0.515-0.109,0.729-0.061c0.247,0.056,0.481,0.375,0.729,0.425
		c0.288,0.059,0.679-0.108,0.972-0.122c0.564-0.026,1.322,0.13,1.883,0.061c0.264-0.032,0.595-0.171,0.851-0.243
		c0.2-0.056,0.505-0.054,0.668-0.182c0.148-0.116,0.19-0.397,0.305-0.547c0.123-0.165,0.413-0.293,0.485-0.486
		c0.09-0.24,0.062-0.626-0.061-0.851c-0.132-0.24-0.485-0.423-0.729-0.546c-0.34-0.172-0.839-0.304-1.215-0.365
		c-0.648-0.104-1.531-0.091-2.187-0.061c-0.605,0.028-1.402,0.304-2.005,0.243c-0.344-0.035-0.759-0.278-1.093-0.364
		c-0.288-0.075-0.677-0.155-0.972-0.182c-0.346-0.032-0.817-0.076-1.154,0c-0.334,0.074-0.7,0.406-1.033,0.486
		c-0.585,0.14-1.402,0.052-2.005,0.061c-0.2,0.003-0.47,0.028-0.668,0c-0.263-0.037-0.596-0.167-0.851-0.243
		c-0.292-0.088-0.687-0.192-0.972-0.304c-0.395-0.155-0.865-0.505-1.275-0.607c-0.39-0.098-0.946,0.035-1.337-0.061
		c-0.293-0.072-0.614-0.369-0.911-0.425c-0.286-0.054-0.686,0.003-0.972,0.061c-0.322,0.065-0.705,0.333-1.032,0.364
		c-0.239,0.022-0.562-0.049-0.79-0.122c-0.194-0.062-0.407-0.266-0.607-0.304c-0.198-0.037-0.468,0.043-0.668,0.061
		c-0.438,0.038-1.027,0.204-1.458,0.122c-0.16-0.031-0.34-0.17-0.486-0.243c-0.219-0.109-0.503-0.271-0.729-0.365
		c-0.106-0.044-0.253-0.095-0.364-0.122c-0.359-0.085-0.849-0.146-1.216-0.182c-0.417-0.041-0.979-0.098-1.396-0.061
		c-0.335,0.03-0.805,0.071-1.094,0.243c-0.166,0.099-0.292,0.345-0.426,0.486c-0.052,0.056-0.137,0.12-0.182,0.182
		c-0.119,0.165-0.229,0.417-0.304,0.607c-0.048,0.124-0.171,0.302-0.121,0.425c0.056,0.136,0.296,0.172,0.425,0.243
		c0.307,0.168,0.71,0.411,1.032,0.547c0.335,0.14,0.799,0.292,1.155,0.364c0.395,0.079,0.936,0.075,1.336,0.121
		c0.384,0.045,0.899,0.094,1.275,0.183c0.336,0.079,0.766,0.255,1.094,0.364c0.383,0.127,0.882,0.337,1.275,0.425
		c0.448,0.1,1.066,0.107,1.519,0.182c0.258,0.043,0.599,0.116,0.851,0.182c0.406,0.108,0.938,0.291,1.337,0.425
		c0.458,0.156,1.048,0.432,1.519,0.547c0.393,0.096,0.932,0.176,1.336,0.182C340.305,395.353,340.763,395.232,341.112,395.226z"/>
	<path id="lake_constance_west" fill="#CCD3DB" d="M298.649,275.036c0.086-0.872,1.864-0.866,2.577-1.375
		c0.803-0.571,1.679-1.569,2.405-2.233c0.513-0.468,1.136-1.17,1.719-1.546c0.756-0.488,1.979-0.737,2.749-1.203
		c0.848-0.512,2.011-1.25,2.577-2.062c0.279-0.401,0.588-1.063,0.516-1.547c-0.133-0.877-1.058-1.814-1.719-2.405
		c-0.791-0.707-2.18-1.175-3.092-1.718c-0.578-0.343-1.276-0.931-1.891-1.203c-0.537-0.238-1.341-0.306-1.89-0.516
		c-0.431-0.164-1.132-0.295-1.375-0.687c-0.162-0.263-0.104-0.74,0-1.031c0.138-0.378,0.524-0.809,0.859-1.031
		c0.449-0.297,1.183-0.461,1.718-0.515c0.567-0.058,1.343,0.016,1.891,0.171c0.665,0.189,1.435,0.74,2.062,1.031
		c0.712,0.331,1.746,0.605,2.405,1.031c0.705,0.455,1.273,2.177,2.062,1.89c0.141-0.051,0.105-0.35,0.064-0.494
		c-0.05-0.176-0.257-0.342-0.386-0.472c-0.201-0.201-0.523-0.408-0.731-0.601c-0.266-0.249-0.577-0.624-0.837-0.881
		c-0.188-0.186-0.454-0.417-0.645-0.602c-0.184-0.177-0.434-0.408-0.601-0.601c-0.063-0.073-0.154-0.169-0.193-0.258
		c-0.04-0.09-0.059-0.224-0.064-0.322c-0.007-0.097-0.013-0.231,0.021-0.322c0.038-0.099,0.13-0.217,0.216-0.279
		c0.265-0.193,0.731-0.5,1.03-0.365c0.032,0.014-0.236-0.172,0.043,0.107s0.918,1.041,1.375,1.417
		c0.255,0.21,0.653,0.411,0.924,0.602c0.311,0.22,0.708,0.538,1.009,0.773c0.462,0.362,1.003,0.957,1.524,1.224
		c0.238,0.122,0.604,0.16,0.859,0.236c0.279,0.083,0.655,0.188,0.924,0.3c0.154,0.065,0.35,0.173,0.493,0.258
		c0.22,0.13,0.489,0.343,0.709,0.473c0.219,0.128,0.513,0.303,0.752,0.387c0.031,0.011,0.076,0.012,0.107,0.021
		c0.154,0.048,0.352,0.138,0.494,0.215c0.155,0.084,0.355,0.212,0.493,0.322c0.183,0.145,0.385,0.383,0.56,0.537
		c0.247,0.217,0.601,0.481,0.858,0.687c0.161,0.129,0.365,0.315,0.537,0.43c0.122,0.082,0.292,0.183,0.43,0.236
		c0.346,0.136,0.838,0.226,1.202,0.301c0.275,0.057,0.655,0.068,0.924,0.15c0.265,0.081,0.637,0.196,0.838,0.386
		c0.2,0.191,0.281,0.583,0.429,0.816c0.19,0.299,0.561,0.623,0.709,0.945c0.05,0.108,0.098,0.268,0.086,0.387
		c-0.011,0.112-0.054,0.286-0.15,0.344c-0.145,0.086-0.391-0.037-0.559-0.043c-0.283-0.01-0.661-0.01-0.944,0
		c-0.362,0.013-0.861-0.031-1.203,0.086c-0.176,0.06-0.335,0.298-0.515,0.343c-0.252,0.063-0.657,0.076-0.86-0.086
		c-0.158-0.127-0.107-0.471-0.214-0.644c-0.153-0.248-0.473-0.49-0.688-0.688c-0.161-0.148-0.39-0.333-0.559-0.473
		c-0.255-0.209-0.588-0.5-0.859-0.687c-0.209-0.144-0.496-0.331-0.729-0.429c-0.222-0.094-0.565-0.094-0.773-0.215
		c-0.126-0.074-0.234-0.247-0.343-0.344c-0.221-0.194-0.497-0.701-0.773-0.602c-0.112,0.041-0.096,0.268-0.087,0.387
		c0.014,0.179,0.19,0.381,0.216,0.559c0.039,0.282-0.057,0.662-0.087,0.945c-0.022,0.219-0.063,0.511-0.086,0.73
		c-0.015,0.154-0.1,0.371-0.043,0.515c0.058,0.144,0.254,0.264,0.387,0.344c0.224,0.134,0.571,0.212,0.816,0.301
		c0.257,0.092,0.599,0.219,0.859,0.3c0.229,0.072,0.548,0.13,0.772,0.215c0.361,0.136,0.782,0.479,1.16,0.558
		c0.328,0.069,0.787,0.016,1.117-0.042c0.333-0.059,0.744-0.267,1.073-0.344c0.343-0.08,0.809-0.158,1.16-0.172
		c0.581-0.023,1.406-0.118,1.933,0.129c0.305,0.144,0.552,0.562,0.772,0.816c0.163,0.187,0.352,0.46,0.516,0.645
		c0.316,0.353,0.878,0.708,1.117,1.117c0.169,0.289,0.187,0.76,0.301,1.074c0.106,0.292,0.476,0.637,0.43,0.945
		c-0.023,0.153-0.21,0.308-0.344,0.386c-0.205,0.121-0.536,0.156-0.773,0.172c-0.464,0.032-1.092-0.029-1.546-0.129
		c-0.295-0.064-0.664-0.235-0.945-0.343c-0.351-0.135-0.808-0.342-1.159-0.473c-0.229-0.085-0.541-0.182-0.773-0.258
		c-0.322-0.105-0.742-0.277-1.074-0.344c-0.304-0.061-0.722-0.05-1.03-0.086c-0.621-0.071-1.446-0.192-2.062-0.3
		c-0.44-0.078-1.016-0.25-1.46-0.301c-0.563-0.063-1.323-0.041-1.89-0.042c-0.812-0.003-1.895,0.059-2.706,0.042
		c-0.465-0.009-1.095-0.194-1.547-0.085c-0.174,0.042-0.355,0.22-0.515,0.301c-0.176,0.088-0.43,0.171-0.602,0.257
		c-0.172,0.086-1.115,0.627-1.589,0.902c-0.285,0.165-0.656,0.401-0.945,0.558c-0.455,0.249-1.109,0.495-1.547,0.773
		c-0.332,0.212-0.677,0.643-1.03,0.816c-0.096,0.047-0.244,0.05-0.344,0.086c-0.255,0.091-0.556,0.312-0.816,0.387
		c-0.324,0.093-0.785,0.065-1.116,0.129c-0.341,0.065-0.799,0.162-1.117,0.3c-0.334,0.146-0.685,0.529-1.031,0.645
		c-0.416,0.14-1.025,0.063-1.46,0.129c-0.3,0.045-0.693,0.286-0.988,0.214C298.944,275.38,298.632,275.218,298.649,275.036z"/>
	<path id="lake_constance_main" fill="#CCD3DB" d="M337.313,273.508c-0.007-0.031-0.009-0.073-0.006-0.105
		c0.019-0.262,0.188-0.597,0.172-0.859c-0.015-0.244-0.385-0.564-0.258-0.773c0.177-0.29,0.789-0.257,1.116-0.172
		c0.285,0.074,0.505,0.483,0.773,0.601c0.287,0.126,0.718,0.167,1.031,0.172c0.598,0.011,1.499,0.103,1.976-0.258
		c0.313-0.237,0.429-0.82,0.516-1.203c0.138-0.604,0.197-1.453,0.086-2.062c-0.071-0.386-0.3-0.875-0.516-1.203
		c-0.35-0.533-0.961-1.149-1.46-1.546c-0.28-0.223-0.7-0.467-1.031-0.602c-0.099-0.04-0.277-0.002-0.344-0.086
		c-0.095-0.122-0.081-0.384,0-0.515c0.091-0.147,0.369-0.167,0.516-0.258c0.329-0.204,0.982-0.39,1.03-0.773
		c0.021-0.164-0.187-0.377-0.343-0.43c-0.202-0.068-0.476,0.148-0.688,0.172c-0.231,0.026-0.545,0.009-0.777-0.019
		c-0.259-0.03-0.621-0.058-0.851-0.182c-0.136-0.074-0.288-0.23-0.364-0.364c-0.111-0.196-0.168-0.504-0.183-0.729
		c-0.02-0.312,0.092-0.722,0.122-1.033c0.047-0.491,0.146-1.147,0.121-1.64c-0.026-0.518-0.063-1.241-0.304-1.701
		c-0.202-0.388-0.73-0.715-1.032-1.033c-0.355-0.374-0.799-0.902-1.154-1.276c-0.302-0.317-0.718-0.728-1.032-1.032
		c-0.27-0.26-0.631-0.604-0.911-0.851c-0.107-0.094-0.24-0.236-0.365-0.304c-0.218-0.118-0.545-0.199-0.79-0.243
		c-0.305-0.055-0.724-0.026-1.032-0.061c-0.221-0.025-0.515-0.063-0.729-0.122c-0.34-0.093-0.804-0.226-1.094-0.425
		c-0.201-0.139-0.382-0.426-0.547-0.607c-0.199-0.219-0.421-0.565-0.668-0.729c-0.274-0.181-0.726-0.248-1.033-0.364
		c-0.496-0.189-1.159-0.441-1.64-0.668c-0.449-0.212-1.048-0.507-1.457-0.79c-0.437-0.301-0.917-0.832-1.337-1.154
		c-0.385-0.296-0.955-0.611-1.336-0.911c-0.387-0.303-0.865-0.75-1.216-1.093c-0.267-0.262-0.581-0.652-0.851-0.911
		c-0.26-0.251-0.729-0.477-0.91-0.79c-0.094-0.161-0.144-0.423-0.122-0.607c0.03-0.259,0.429-0.537,0.364-0.79
		c-0.045-0.177-0.327-0.275-0.485-0.364c-0.257-0.145-0.67-0.197-0.911-0.365c-0.266-0.183-0.506-0.557-0.729-0.79
		c-0.161-0.167-0.458-0.333-0.546-0.547c-0.063-0.151-0.012-0.383,0-0.546c0.018-0.275,0.021-0.654,0.12-0.911
		c0.081-0.208,0.246-0.477,0.426-0.608c0.2-0.146,0.543-0.217,0.79-0.243c0.4-0.042,0.945,0.026,1.336,0.122
		c0.421,0.103,0.97,0.315,1.337,0.546c0.457,0.29,1.04,0.761,1.336,1.215c0.157,0.241,0.213,0.638,0.304,0.911
		c0.073,0.218,0.108,0.542,0.243,0.729c0.106,0.148,0.34,0.257,0.486,0.365c0.199,0.147,0.462,0.347,0.668,0.486
		c0.285,0.192,0.646,0.499,0.972,0.607c0.417,0.139,1.048-0.034,1.458,0.122c0.256,0.097,0.569,0.325,0.729,0.546
		c0.168,0.234,0.14,0.675,0.304,0.912c0.213,0.309,0.624,0.646,0.972,0.79c0.338,0.14,0.869,0,1.215,0.122
		c0.348,0.122,0.825,0.363,1.032,0.668c0.156,0.23,0.064,0.658,0.183,0.911c0.196,0.423,0.577,0.965,0.972,1.215
		c0.332,0.21,0.896,0.203,1.275,0.304c0.44,0.116,1.02,0.304,1.458,0.425c0.417,0.116,1.002,0.188,1.397,0.365
		c0.359,0.161,0.768,0.506,1.093,0.729c0.367,0.251,0.854,0.591,1.215,0.85c0.478,0.342,1.112,0.799,1.58,1.155
		c0.352,0.267,0.785,0.668,1.153,0.911c0.226,0.148,0.547,0.31,0.79,0.425c0.304,0.144,0.718,0.311,1.033,0.425
		c0.395,0.144,1.004,0.167,1.336,0.425c0.271,0.211,0.366,0.727,0.607,0.972c0.213,0.216,0.599,0.378,0.851,0.547
		c0.185,0.124,0.504,0.228,0.607,0.425c0.092,0.178,0.011,0.468,0,0.668c-0.027,0.513-0.132,1.19-0.182,1.701
		c-0.04,0.401-0.196,0.941-0.122,1.336c0.03,0.16,0.133,0.366,0.243,0.486c0.188,0.205,0.56,0.33,0.789,0.486
		c0.227,0.154,0.543,0.347,0.729,0.547c0.251,0.27,0.45,0.735,0.668,1.032c0.237,0.324,0.534,0.786,0.851,1.033
		c0.302,0.235,0.818,0.362,1.154,0.546c0.66,0.362,1.489,0.934,2.126,1.336c0.401,0.254,0.949,0.575,1.337,0.851
		c0.738,0.526,1.646,1.333,2.368,1.883c0.467,0.356,1.084,0.84,1.58,1.154c0.613,0.388,1.475,0.833,2.126,1.154
		c0.482,0.238,1.167,0.472,1.64,0.729c0.497,0.271,1.076,0.773,1.579,1.032c0.4,0.207,0.951,0.484,1.397,0.547
		c0.58,0.082,1.363-0.103,1.944-0.182c0.403-0.056,0.938-0.157,1.336-0.243c0.588-0.126,1.362-0.334,1.943-0.486
		c0.604-0.158,1.396-0.418,2.005-0.547c0.36-0.076,0.851-0.304,1.215-0.182s1.243-0.05,1.701,0.182
		c0.241,0.123,0.413,0.479,0.607,0.668c0.379,0.37,0.924,0.822,1.336,1.154c0.354,0.286,0.808,0.708,1.216,0.912
		c0.355,0.177,0.897,0.24,1.275,0.364c0.498,0.164,1.137,0.46,1.641,0.607c0.572,0.168,1.35,0.361,1.943,0.425
		c0.543,0.059,1.275-0.012,1.822,0c0.419,0.009,0.996-0.062,1.396,0.061c0.47,0.143,0.998,0.566,1.397,0.85
		c0.327,0.232,0.761,0.556,1.032,0.851c0.303,0.327,0.635,0.826,0.851,1.215c0.385,0.693,0.652,1.735,1.033,2.43
		c0.201,0.368,0.598,0.781,0.79,1.154c0.292,0.569,0.545,1.392,0.729,2.005c0.113,0.377,0.136,0.92,0.304,1.276
		c0.206,0.435,0.601,0.969,0.972,1.275c0.282,0.234,0.787,0.346,1.094,0.546c0.477,0.312,1.001,0.875,1.458,1.215
		c0.315,0.236,0.713,0.625,1.093,0.729c0.317,0.086,0.766-0.043,1.094-0.061c0.347-0.019,0.812-0.009,1.154-0.061
		c0.594-0.089,1.343-0.491,1.943-0.486c0.283,0.002,0.685,0.073,0.911,0.243c0.531,0.396,0.813,1.315,1.154,1.883
		c0.24,0.399,0.481,0.987,0.79,1.336c0.137,0.156,0.378,0.304,0.546,0.425c0.32,0.23,0.721,0.602,1.094,0.729
		c0.26,0.088,0.607,0,0.912,0.061c0.304,0.061,0.84,0.419,1.153,0.668c0.313,0.248,0.593,0.73,0.911,0.972
		c0.442,0.334,1.12,0.659,1.641,0.85c0.456,0.168,1.104,0.265,1.579,0.365c0.382,0.08,0.906,0.118,1.275,0.243
		c0.387,0.13,0.914,0.333,1.215,0.607c0.333,0.304,0.465,0.965,0.79,1.276c0.271,0.259,0.727,0.684,1.094,0.607
		c0.292-0.061,0.347-0.643,0.607-0.79c0.287-0.162,0.765-0.083,1.093-0.122c0.438-0.052,1.029-0.283,1.458-0.182
		c0.192,0.045,0.389,0.247,0.547,0.365c0.228,0.17,0.556,0.381,0.729,0.607c0.268,0.351,0.527,0.904,0.607,1.336
		c0.058,0.305-0.162,0.74-0.061,1.033c0.072,0.208,0.3,0.431,0.486,0.546c0.177,0.11,0.468,0.127,0.668,0.183
		c0.384,0.107,0.942,0.146,1.275,0.364c0.217,0.143,0.418,0.444,0.547,0.668c0.155,0.27,0.279,0.672,0.364,0.972
		c0.103,0.357,0.312,0.85,0.243,1.215c-0.044,0.234-0.264,0.494-0.425,0.668c-0.124,0.134-0.316,0.298-0.486,0.364
		c-0.512,0.2-1.272,0.184-1.822,0.183c-0.514-0.002-1.19-0.131-1.701-0.183c-0.382-0.039-0.894-0.076-1.275-0.121
		c-0.512-0.061-1.205-0.384-1.7-0.243c-0.411,0.116-0.744,0.666-1.094,0.911c-0.294,0.207-0.815,0.321-1.033,0.607
		c-0.171,0.225-0.2,0.631-0.243,0.911c-0.07,0.469,0.164,1.162-0.06,1.579c-0.191,0.357-0.712,0.657-1.094,0.79
		c-0.396,0.138-0.979,0.07-1.397,0.061c-0.604-0.014-1.421-0.026-2.005-0.182c-0.465-0.124-1.175-0.279-1.457-0.668
		c-0.185-0.252-0.167-0.724-0.122-1.032c0.06-0.412,0.497-0.862,0.547-1.275c0.039-0.331,0.071-0.879-0.183-1.094
		c-0.153-0.13-0.469-0.026-0.668,0c-0.28,0.037-0.666,0.102-0.911,0.243c-0.312,0.18-0.61,0.581-0.851,0.851
		c-0.371,0.417-0.783,1.041-1.154,1.458c-0.343,0.385-0.818,0.885-1.214,1.215c-0.272,0.226-0.637,0.557-0.973,0.668
		c-0.468,0.155-1.149,0.102-1.641,0.061c-0.444-0.038-1.047-0.128-1.457-0.304c-0.326-0.139-0.696-0.446-0.973-0.668
		c-0.312-0.251-0.758-0.573-0.972-0.912c-0.225-0.355-0.194-0.984-0.425-1.336c-0.106-0.162-0.308-0.35-0.486-0.425
		c-0.201-0.086-0.536-0.166-0.729-0.061c-0.272,0.148-0.348,0.633-0.486,0.911c-0.116,0.234-0.267,0.548-0.364,0.79
		c-0.124,0.304-0.193,0.752-0.364,1.033c-0.249,0.407-0.708,0.874-1.094,1.154c-0.343,0.249-0.869,0.487-1.275,0.607
		c-0.67,0.198-1.616,0.212-2.309,0.304c-0.547,0.073-1.275,0.176-1.822,0.243c-0.328,0.04-0.764,0.144-1.094,0.122
		c-0.6-0.041-1.39-0.254-1.943-0.486c-0.71-0.297-1.55-0.906-2.188-1.336c-0.658-0.445-1.486-1.107-2.126-1.58
		c-0.817-0.604-1.937-1.373-2.733-2.004c-0.263-0.209-0.557-0.566-0.85-0.729c-0.268-0.148-0.853-0.022-0.973-0.304
		c-0.111-0.263,0.342-0.578,0.426-0.85c0.081-0.264,0.218-0.653,0.121-0.912c-0.152-0.412-0.73-0.726-1.094-0.972
		c-0.337-0.229-0.864-0.398-1.214-0.607c-0.574-0.341-1.304-0.855-1.823-1.275c-0.561-0.454-1.197-1.189-1.762-1.64
		c-0.327-0.262-0.838-0.513-1.154-0.79c-0.349-0.307-0.748-0.787-1.032-1.154c-0.201-0.26-0.489-0.604-0.607-0.911
		c-0.133-0.344-0.198-0.847-0.183-1.215c0.017-0.393,0.15-0.914,0.305-1.275c0.118-0.279,0.421-0.574,0.546-0.851
		c0.055-0.121,0.128-0.293,0.122-0.425c-0.016-0.294-0.199-0.667-0.364-0.911c-0.269-0.395-0.763-0.823-1.154-1.093
		c-0.483-0.333-1.236-0.589-1.762-0.851c-0.752-0.374-1.769-0.849-2.49-1.275c-0.588-0.348-1.338-0.867-1.884-1.276
		c-0.436-0.326-0.952-0.842-1.397-1.154c-0.468-0.329-1.159-0.662-1.64-0.972c-0.188-0.121-0.434-0.286-0.607-0.425
		c-0.231-0.186-0.509-0.47-0.729-0.668c-0.307-0.276-0.687-0.685-1.032-0.911c-0.253-0.165-0.649-0.276-0.911-0.425
		c-0.422-0.24-0.916-0.669-1.337-0.911c-0.402-0.231-0.967-0.491-1.396-0.668c-0.357-0.147-0.843-0.322-1.215-0.425
		c-0.341-0.095-0.824-0.115-1.154-0.243c-0.533-0.208-1.133-0.708-1.641-0.972c-0.391-0.204-0.918-0.467-1.336-0.607
		c-0.39-0.131-0.979-0.1-1.337-0.304c-0.347-0.199-0.611-0.707-0.91-0.972c-0.254-0.225-0.628-0.482-0.912-0.668
		c-0.335-0.219-0.797-0.487-1.153-0.668c-0.32-0.163-0.762-0.349-1.094-0.486c-0.469-0.194-1.174-0.301-1.58-0.607
		c-0.29-0.22-0.461-0.725-0.729-0.972c-0.301-0.277-0.886-0.418-1.154-0.729C337.518,274.182,337.382,273.794,337.313,273.508z"/>
</g>
</svg>
