<?xml version="1.0" encoding="utf-8"?>
<!-- Generator: Adobe Illustrator 16.0.0, SVG Export Plug-In . SVG Version: 6.00 Build 0)  -->
<!DOCTYPE svg PUBLIC "-//W3C//DTD SVG 1.1//EN" "http://www.w3.org/Graphics/SVG/1.1/DTD/svg11.dtd">
<svg version="1.1" id="Calque_1" xmlns="http://www.w3.org/2000/svg" xmlns:xlink="http://www.w3.org/1999/xlink" x="0px" y="0px"
	 width="595.279px" height="841.891px" viewBox="0 0 595.279 841.891" enable-background="new 0 0 595.279 841.891"
	 xml:space="preserve">
<path id="_x32_226" fill-rule="evenodd" clip-rule="evenodd" fill="#807F7F" d="M364.951,452.956l-9.666,2.33l-2.147,8.32
	l3.51,3.196l-5.245,7.73l-5.77,13.984c-5.225,0-8.417-0.839-13.398-4.941c-3.552-2.926-5.851-5.224-9.401-2.926
	c-2.678,1.733-5.213,0.144-6.477-1.044c-3.137-2.952-6.83-4.562-10.446-6.059c-6.059-2.507-10.913-3.128-15.718-3.128l19.479-21.315
	l10.064-16.594l-5.413-2.047l1.88-6.477l6.268,6.06l4.597-4.18l6.116,1.607l1.464-5.33l12.548,1.327l-0.49,10.753l6.214-5.596
	l7.694,5.775l4.214-4.938l13.176,11.153l7.513-5.901c-0.003,0-1.051,8.536-1.051,8.536c-4.434,3.73-10.05,6.993-12.535,14.206
	c-0.484,1.407-1.397,1.9-2.157,1.854c-1.145-0.075-2.353-1.554-3.483-3.942C365.839,454.425,365.404,453.634,364.951,452.956z"/>
<path id="_x32_221" fill-rule="evenodd" clip-rule="evenodd" fill="#807F7F" d="M410.848,602.525
	c2.119,2.971,3.823,4.975,5.01,7.857c1.949,4.736,2.87,7.319,4.123,11.497c1.254,4.178,1.831,6.013,7.103,9.401
	c1.786,1.149,2.994,4.736,3.43,8.499l15.461-9.018l2.416,4.203l13.863-12.254l2.95-7.512l2.485-0.829l4.761-1.587l14.396-16.813
	l0.806-9.124l1.074-7.688l5.771-5.771l6.841-6.839v-15.473l-10.735-13.417l-12.127,0.235l-8.98,0.627l-2.718-13.58l-3.134-3.97
	l-9.19-1.463l-6.687,7.104l-0.208-9.191l-8.774-2.507l-13.162-0.21l0.416-9.191l-15.458,4.595l-5.433,4.597l-7.939,7.312
	l-3.55-0.417c-0.55,2.638-1.046,6.268-2.092,7.312c-1.521,1.521-3.341,1.254-10.027,0.627c-4.789-0.45-10.236,0-14.205,0.627
	c0,0,4.596,4.806,8.564,8.774c3.971,3.97,4.598,5.433,3.552,9.82c-1.563,6.566,1.481,9.694,6.895,11.908
	c4.596,1.88,6.268,2.715,7.313,9.818c1.043,7.104,3.397,11.206,7.994,18.728C404.793,594.355,407.774,597.684,410.848,602.525z"/>
<path id="_x32_230" fill-rule="evenodd" clip-rule="evenodd" fill="#989898" d="M405.147,514.704l5.433-4.597l15.458-4.595
	l-0.416,9.191l13.162,0.21l8.774,2.507l0.208,9.191l6.687-7.104l9.19,1.463l3.134,3.97l2.718,13.58l8.98-0.627l12.127-0.235
	l4.562-11.181l0.268-6.976l-6.974-10.194l6.974-4.025l8.051-1.074l-0.803-20.033l5.899-13.863l1.613-10.729l-3.761-12.075
	l-6.704,4.025l-2.147,5.901l-5.903-5.1l-20.033,11.539l-5.098,7.513l-10.912,10.105c-10.573-1.739-18.176,0.944-22.808,8.051
	l-6.856,12.626l-10.865,3.474L412.6,494.37l1.948-11.141l-22.563-14.487l-12.535-4.733l-10.583,13.927l-12.219-11.133l-5.245,7.73
	l-5.77,13.984c5.223,0,11.698,2.04,15.849,6.34c5.852,6.059,7.55,7.787,15.669,9.818c5.015,1.254,8.774,2.298,11.7,6.059
	c1.462,1.881,5.352,8.23,4.807,10.864l3.55,0.417L405.147,514.704z"/>
<path id="_x32_225" fill-rule="evenodd" clip-rule="evenodd" fill="#989898" d="M319.736,432.511l-5.413-2.047l-14.415-10.655
	l-5.2,7.26l2.274,5.901l-5.617,3.187l-9.547-4.926l-0.063-6.107l-10.106-3.597l-4.541,10.607l5.172,2.978l-3.974,12.529
	l11.717,0.632l-0.171,6.844l-3.637,5.089l-4.929-1.538l-1.727,5.27c1.828,0.417,5.454,1.716,8.356,3.134
	c5.474,2.669,7.472,3.349,12.277,3.349l19.479-21.315L319.736,432.511z"/>
<path id="_x32_224" fill-rule="evenodd" clip-rule="evenodd" fill="#666666" d="M126.296,453.236l8.474,5.765l8.184-11.986
	l11.49-9.818l11.128-14.253l11.336-13.896l6.374-7.217l0.412-16.864l5.278-3.179l2.507,3.551l10.309-3.584l14.135,7.971
	l10.237-7.104l15.613,0.674l5.488-8.612l6.16-2.03l4.286,1.132l-0.626,12.179l7.938,2.09l3.552,0.417l2.66-6.639l0.892-9.239
	l12.019-0.891l1.505-9.091l5.014-19.017l13.217,18.344l4.806-7.317l5.819-1.334l0.184,7.862l20.594-6.184l-4.504-4.306l9.648-10.338
	l3.513-10.821l6.817-7.123l-12.164-11.562c-5.327,4.492-8.549,3.708-12.205,2.488c-4.387-1.463-8.356-0.418-25.697,8.356
	c-4.532,2.292-6.458,1.365-8.094-0.052c-0.441-0.382-0.861-0.8-1.307-1.202c-2.09-1.88-2.09-3.76,1.671-7.103
	s26.323-19.429,32.174-23.608c3.687-2.634,7.124-5.517,9.791-8.591l-6.904-6.882l-2.412-16.746l-5.033-12.058l-15.161,10.68
	l-13.303,12.268l-19.986,8.615l-17.094,9.857l-20.539,3.444l-7.271-3.584l-12.535,21.728l1.811,5.712l8.356,6.127l-2.368,10.305
	l-8.356,8.083l-12.118,3.339l-4.456,9.751l-21.45,11.704l-18.942,9.47l-12.256,15.042l-46.798,42.343l15.597,15.907l5.817,7.282
	L126.296,453.236z"/>
<path id="_x32_229" fill-rule="evenodd" clip-rule="evenodd" fill="#666666" d="M276.215,460.206l3.637-5.089l0.171-6.844
	l-11.717-0.632l3.974-12.529l-5.172-2.978l-15.251,8.984l-4.028,0.581c0.392,1.175,1.14,2.282,2.511,3.435
	c3.969,3.343,6.268,5.223,6.059,9.818c-0.165,3.637-0.193,10.682-2.925,14.207c2.464,0.173,4.387,0.627,5.85,0.208
	c3.394-0.968,6.669-6.244,10.237-5.431l1.727-5.27L276.215,460.206z"/>
<path id="_x32_228" fill-rule="evenodd" clip-rule="evenodd" fill="#807F7F" d="M184.375,485.527l-3.142-6.231l-5.215-6.422
	l-17.34,6.687l0.836-22.772l-16.56-9.773l-8.184,11.986l-8.474-5.765l-6.775,0.255l-5.817-7.282c-1,1.041-1.903,1.955-2.562,2.669
	c-1.745,1.891-3.697,3.849-6.298,6.408c-2.113,2.08-4.339,5.168-6.406,7.1l-6.46,18.057l-8.914,8.355l3.899,11.977l-9.471,13.094
	l13.65,3.898l26.742,21.728l-17.271,27.3l17.062,12.257c3.121-3.979,6.543-8.585,8.984-13.788c1.567-3.342,2.559-6.476,3.499-9.349
	l-12.065-7.991l4.544-6.075l10.707,6.284c2.716-4.597,9.61-10.864,11.908-13.998c2.298-3.134,3.979-5.851,6.268-5.641
	c4.597,0.417,7.312,0.209,7.104-3.344c-0.136-2.294,0.627-7.521,5.014-12.534c2.256-2.579,6.685-6.268,10.445-11.699
	c3.033-4.382,5.641-7.312,11.282-8.774s8.984-2.09,10.175-1.092l-4.687-7.911L184.375,485.527z"/>
<path id="_x32_227" fill-rule="evenodd" clip-rule="evenodd" fill="#989898" d="M246.159,415.05
	c2.298,3.343,2.842,10.577,2.842,16.007c0,3.559-1.916,8.416-1.174,10.643c0.392,1.175,1.14,2.282,2.511,3.435
	c3.969,3.343,6.268,5.223,6.059,9.818c-0.165,3.637-0.193,10.682-2.925,14.207c-1.693-0.121-3.343-1.688-5.641-3.134
	c-5.234-3.294-8.147-2.089-14.415,7.521c-4.087,6.264-10.237,11.072-25.488,17.967c-7.415,3.352-8.367,2.908-12.389-0.465
	l-4.687-7.911l-6.477,2.389l-3.142-6.231l-5.215-6.422l-17.34,6.687l0.836-22.772l-16.56-9.773l11.49-9.818l11.128-14.253
	l11.336-13.896l6.374-7.217l0.412-16.864l5.278-3.179l2.507,3.551l10.309-3.584l14.135,7.971l10.237-7.104l15.613,0.674l5.488-8.612
	l6.16-2.03l4.286,1.132l-0.626,12.179l7.938,2.09l-8.356,12.116l-4.861-2.252l-8.719,3.833l3.201,7.88
	C244.869,411.586,244.864,413.163,246.159,415.05z"/>
<path id="_x32_223" fill-rule="evenodd" clip-rule="evenodd" fill="#807F7F" d="M246.159,415.05
	c2.298,3.343,2.842,10.577,2.842,16.007c0,3.559-1.916,8.416-1.174,10.643l4.028-0.581l15.251-8.984l4.541-10.607l10.106,3.597
	l0.063,6.107l9.547,4.926l5.617-3.187l-2.274-5.901l5.2-7.26l14.415,10.655l1.88-6.477l2.09-6.476l7.73-8.357l9.401-20.474
	l-4.174-5.635l19.442-12.002l-7.421-6.437l6.991-9.567l-5.396-1.224l3.228-4.07l-5.354-1.039l-5.464,8.176l-1.999-1.917
	l-20.594,6.184l-0.184-7.862l-5.819,1.334l-4.806,7.317l-13.217-18.344l-5.014,19.017l-1.505,9.091l-12.019,0.891l-0.892,9.239
	l-2.66,6.639l-3.552-0.417l-8.356,12.116l-4.861-2.252l-8.719,3.833l3.201,7.88C244.869,411.586,244.864,413.163,246.159,415.05z"/>
<path id="_x32_222" fill-rule="evenodd" clip-rule="evenodd" fill="#989898" d="M425.396,267.64l-16.132-19.077
	c6.181-5.347,12.658-10.762,15.731-12.77c5.43-3.552,7.729-4.806,11.07-10.238c0.654-1.06,1.23-1.958,1.715-2.755
	c2.567,0.601,4.81,1.655,6.018,3.382l1.837,17.935c-2.557,1.795-5.407,4.113-9.15,7.554c-1.345,1.234-2.181,2.109-2.436,2.944
	c-0.407,1.326,0.656,2.556,3.481,4.995c4.595,3.969,7.548,3.192,10.862,0c1.086-1.044,2.18-2.05,3.296-3.029l4.043,5.033
	l-11.663,9.858l2.361,7.472l-7.654,11.683l-4.59,4.708l0.062-18.222l-6.674-3.872l-1.979,4.971l-3.876-4.244
	C423.095,271.929,424.314,269.797,425.396,267.64z M365.785,389.806l20.884-23.294l13.31-21.5l-10.51-5.321l14.498-20.977
	l3.932-5.689l-2.487-4.992l3.003-5.641l5.875,2.057l4.749-6.376l-5.111-15.3c1.681-1.404,3.225-2.964,4.641-4.635l-5.623-7.241
	l-6.881,7.244L394.6,261.477c-4.069,3.493-8.144,6.708-11.824,10.374l12.562,14.252l-7.892,9.512l0.257,12.587l6.353,5.014
	c-0.135,0.666-0.268,1.323-0.398,1.966c-0.71,3.454-2.205,7.129-4.602,11.347l-12.704,2.48l-6.087-7.507l-11.37,8.618l-8.142-7.743
	l-6.817,7.123l-3.513,10.821l3.028,3.835l-0.71,4.55l5.354,1.039l3.733,0.483l15.921-18.261l11.316,9.172
	c-1.548,2.024-3.229,4.159-5.049,6.424c-2.596,3.232-4.177,5.432-4.387,8.148l-10.06-6.088l-9.308,5.416l-6.991,9.567l7.421,6.437
	l-19.442,12.002l4.174,5.635l-9.401,20.474l-7.73,8.357l-2.09,6.476l6.268,6.06l4.597-4.18l6.116,1.607l1.464-5.33l12.548,1.327
	l0.923-25.749L365.785,389.806z"/>
<g>
	<path id="ID_x5F_9151_Lac_de_Neuchâtel" fill-rule="evenodd" clip-rule="evenodd" fill="#CCD3DA" d="M358.348,293.246
		c10.028-6.477,15.669-11.282,20.894-17.549c1.126-1.352,2.308-2.622,3.534-3.846c3.681-3.666,7.755-6.881,11.824-10.374
		c0.872-0.744,1.741-1.505,2.607-2.286c2.725-2.451,7.303-6.519,12.057-10.628c6.181-5.347,12.658-10.762,15.731-12.77
		c5.43-3.552,7.729-4.806,11.07-10.238c0.654-1.06,1.23-1.958,1.715-2.755c1.986-3.28,2.362-4.814-0.25-8.735
		c-2.385-3.575-3.544-5.041-4.605-5.333c-0.799-0.219-1.54,0.229-2.708,0.946c-2.715,1.672-4.18,2.089-9.401-0.418
		s-6.883-2.768-11.908,1.253c-8.355,6.686-9.82,6.895-11.908,7.312c-2.089,0.418-4.18,0.626-7.313,3.134
		c-1.566,1.253-3.393,2.612-5.116,3.969c-1.724,1.358-3.345,2.716-4.493,3.97c-2.299,2.507-3.553,3.134-3.761,6.477
		c-0.105,1.671-0.364,3.134-1.07,4.414c-0.704,1.28-1.855,2.376-3.735,3.317c-3.761,1.88-11.489,6.476-17.339,12.952
		c-5.852,6.477-12.953,14.207-15.461,19.43c-0.927,1.933-2.225,3.806-3.788,5.615c-2.667,3.074-6.104,5.957-9.791,8.591
		c-5.851,4.179-28.413,20.265-32.174,23.608s-3.761,5.223-1.671,7.103c0.445,0.402,0.865,0.819,1.307,1.202
		c1.636,1.417,3.562,2.343,8.094,0.052c17.341-8.774,21.311-9.819,25.697-8.356c3.656,1.221,6.878,2.004,12.205-2.488
		c1.064-0.897,2.213-2.004,3.463-3.362C347.297,301.772,348.32,299.722,358.348,293.246z"/>
	<path id="ID_x5F_9294_Lac_de_Morat_x2F_Murtensee" fill-rule="evenodd" clip-rule="evenodd" fill="#CCD3DA" d="M445.635,244.117
		c4.438-3.114,8-4.648,13.832-7.697c2.434-1.41,3.688-1.956,5.02-1.492c0.839,0.294,1.706,0.989,2.917,2.119
		c3.134,2.925,4.74,5.083,0.838,7.521c-6.749,4.218-11.863,7.893-16.553,12.013c-1.116,0.979-2.21,1.984-3.296,3.029
		c-3.314,3.192-6.268,3.969-10.862,0c-2.825-2.438-3.889-3.669-3.481-4.995c0.255-0.835,1.091-1.71,2.436-2.944
		C440.228,248.229,443.078,245.912,445.635,244.117z"/>
	<path id="ID_x5F_9757_Le_Léman_x2F_Genfersee" fill-rule="evenodd" clip-rule="evenodd" fill="#CCD3DA" d="M127.582,595.967
		c-2.525,0.842-3.788,4.978-3.367,8.134c0.559,4.209-0.211,6.177-2.104,9.544c-1.895,3.367-4.914,7.855-9.26,11.923
		c-1.102,1.029-3.878,2.44-4.492,1.825c-0.815-0.812-0.703-1.405,0.704-3.931c1.821-3.277-0.98-6.757-0.565-9.681
		c1.263-8.839,1.532-11.699,3.933-15.152c3.071-4.413,3.926-6.029,3.643-11.502c-0.257-5.047,0.283-6.596,1.052-7.579
		c3.144-4.009,6.593-8.648,9.049-13.891c1.578-3.367,2.578-6.523,3.525-9.418c0.947-2.894,1.841-5.523,3.209-7.839
		c2.735-4.631,9.681-10.943,11.996-14.101s4.012-5.893,6.313-5.683c4.63,0.421,7.366,0.211,7.155-3.367
		c-0.134-2.312,0.632-7.576,5.051-12.627c2.275-2.598,6.734-6.313,10.522-11.786c3.059-4.412,5.683-7.365,11.365-8.838
		c5.683-1.474,9.05-2.105,10.253-1.099c4.051,3.396,5.008,3.844,12.476,0.467c15.363-6.945,21.558-11.789,25.675-18.099
		c6.313-9.682,9.25-10.895,14.521-7.576c2.315,1.456,3.979,3.034,5.682,3.155c2.486,0.176,4.42,0.632,5.892,0.212
		c3.42-0.977,6.722-6.291,10.312-5.473c1.842,0.422,5.499,1.73,8.418,3.157c5.518,2.69,7.53,3.374,12.371,3.374
		c4.841,0,9.728,0.625,15.83,3.15c3.643,1.51,7.366,3.131,10.522,6.103c1.276,1.197,3.828,2.799,6.524,1.053
		c3.577-2.315,5.893,0,9.47,2.946c5.018,4.133,8.238,4.979,13.499,4.979c5.262,0,11.785,2.055,15.965,6.386
		c5.894,6.103,7.604,7.847,15.785,9.892c5.051,1.262,8.84,2.315,11.785,6.103c1.474,1.895,5.394,8.29,4.841,10.943
		c-0.552,2.658-1.052,6.314-2.104,7.366c-1.532,1.532-3.368,1.263-10.103,0.632c-4.819-0.454-10.312,0-14.311,0.631
		c-0.625,0.099-0.421,1.263-1.263,2.525c-0.842,1.264-3.577,0.422-7.156,0.422c-3.578,0-6.751-0.557-9.95-1.929
		c-1.474-0.63-2.888-1.439-6.675-1.439c-3.789,0-5.473-0.21-9.05-2.314c-3.578-2.104-12.628-5.052-20.204-5.052
		s-21.677,1.264-29.884,1.685c-8.208,0.421-18.52,0.631-24.203,2.104c-5.682,1.473-10.732,3.367-14.521,1.052
		c-3.788-2.314-4.841-3.367-10.522-0.21c-5.683,3.156-6.314,3.998-6.945,7.997s-1.263,4.841-10.944,9.26
		c-5.649,2.583-8.628,4.209-11.996,4.631c-3.367,0.42-4.63,1.472-7.366,5.261c-2.735,3.788-4.209,4.841-7.365,2.946
		c-3.157-1.895-4.841-3.368-6.945-7.787s-2.736-6.734-7.998-6.524c-10.904,0.438-17.734,1.593-24.202,14.942
		c-2.93,6.054-5.564,11.086-8.188,15.692c-1.914,3.463,0.052,5.005-2.191,7.39c-3.649,3.508-4.09,5.639-6.175,8.7
		C131.791,594.703,130.108,595.125,127.582,595.967z"/>
</g>
<g display="none">
	<g display="inline">
		<path fill="#1A171B" d="M181.328,439.464V427.5h2.383l2.832,8.471c0.261,0.791,0.452,1.378,0.571,1.77
			c0.135-0.435,0.348-1.074,0.637-1.916l2.864-8.324h2.13v11.964h-1.526v-10.016l-3.477,10.016h-1.428l-3.46-10.185v10.185H181.328z
			"/>
		<path fill="#1A171B" d="M194.565,435.129c0-1.603,0.446-2.79,1.339-3.565c0.746-0.643,1.653-0.963,2.726-0.963
			c1.191,0,2.166,0.392,2.921,1.173c0.756,0.78,1.134,1.857,1.134,3.234c0,1.117-0.168,1.991-0.501,2.631
			c-0.336,0.64-0.823,1.137-1.463,1.493c-0.638,0.352-1.336,0.528-2.092,0.528c-1.213,0-2.193-0.389-2.941-1.169
			C194.939,437.715,194.565,436.595,194.565,435.129z M196.074,435.129c0,1.109,0.241,1.943,0.727,2.494
			c0.484,0.552,1.093,0.829,1.828,0.829c0.729,0,1.335-0.277,1.82-0.833c0.484-0.555,0.727-1.4,0.727-2.535
			c0-1.074-0.244-1.888-0.731-2.439c-0.487-0.551-1.092-0.826-1.815-0.826c-0.735,0-1.344,0.275-1.828,0.823
			C196.316,433.19,196.074,434.02,196.074,435.129z"/>
		<path fill="#1A171B" d="M204.39,439.464v-8.667h1.322v1.315c0.338-0.617,0.648-1.021,0.936-1.217
			c0.283-0.196,0.599-0.295,0.941-0.295c0.495,0,0.999,0.157,1.51,0.475l-0.507,1.364c-0.359-0.216-0.718-0.32-1.077-0.32
			c-0.322,0-0.609,0.099-0.865,0.291s-0.438,0.46-0.547,0.803c-0.163,0.521-0.244,1.093-0.244,1.714v4.537H204.39z"/>
		<path fill="#1A171B" d="M209.703,440.182l1.428,0.212c0.061,0.442,0.225,0.761,0.498,0.963c0.364,0.272,0.862,0.409,1.493,0.409
			c0.68,0,1.205-0.137,1.575-0.409c0.371-0.271,0.621-0.652,0.751-1.142c0.077-0.3,0.111-0.927,0.106-1.887
			c-0.642,0.757-1.441,1.136-2.399,1.136c-1.191,0-2.113-0.431-2.766-1.289c-0.653-0.859-0.979-1.891-0.979-3.091
			c0-0.829,0.15-1.593,0.449-2.292c0.299-0.698,0.733-1.237,1.301-1.62c0.57-0.382,1.237-0.571,2.004-0.571
			c1.023,0,1.866,0.415,2.53,1.241v-1.045h1.354v7.492c0,1.349-0.137,2.305-0.412,2.87c-0.276,0.561-0.711,1.008-1.306,1.334
			c-0.598,0.326-1.33,0.49-2.2,0.49c-1.033,0-1.869-0.235-2.505-0.699C209.989,441.818,209.682,441.119,209.703,440.182z
			 M210.919,434.976c0,1.137,0.225,1.968,0.677,2.491c0.453,0.521,1.017,0.783,1.697,0.783c0.675,0,1.241-0.262,1.697-0.78
			c0.458-0.519,0.686-1.335,0.686-2.444c0-1.062-0.235-1.862-0.705-2.4c-0.472-0.538-1.038-0.807-1.702-0.807
			c-0.653,0-1.208,0.266-1.665,0.794C211.148,433.145,210.919,433.932,210.919,434.976z"/>
		<path fill="#1A171B" d="M225.201,436.673l1.518,0.186c-0.24,0.889-0.682,1.577-1.331,2.067c-0.647,0.489-1.474,0.734-2.48,0.734
			c-1.269,0-2.273-0.392-3.015-1.172c-0.745-0.781-1.115-1.873-1.115-3.283c0-1.461,0.375-2.59,1.126-3.396
			c0.751-0.806,1.726-1.208,2.921-1.208c1.16,0,2.106,0.396,2.84,1.186c0.734,0.787,1.102,1.897,1.102,3.33
			c0,0.084-0.004,0.215-0.008,0.392h-6.464c0.054,0.95,0.323,1.678,0.809,2.187c0.484,0.503,1.088,0.758,1.812,0.758
			c0.538,0,0.998-0.141,1.378-0.424C224.675,437.744,224.977,437.293,225.201,436.673z M220.378,434.3h4.839
			c-0.065-0.731-0.25-1.276-0.555-1.642c-0.469-0.564-1.074-0.85-1.82-0.85c-0.674,0-1.242,0.226-1.703,0.677
			C220.681,432.938,220.427,433.542,220.378,434.3z"/>
		<path fill="#1A171B" d="M227.976,436.878l1.452-0.228c0.082,0.581,0.309,1.024,0.681,1.338c0.374,0.308,0.895,0.464,1.563,0.464
			c0.674,0,1.175-0.137,1.502-0.411c0.326-0.273,0.489-0.598,0.489-0.966c0-0.334-0.143-0.595-0.432-0.784
			c-0.201-0.131-0.702-0.297-1.501-0.5c-1.078-0.271-1.823-0.505-2.241-0.705c-0.415-0.199-0.731-0.473-0.947-0.826
			c-0.213-0.349-0.322-0.737-0.322-1.162c0-0.385,0.088-0.743,0.266-1.072c0.177-0.331,0.416-0.602,0.722-0.82
			c0.229-0.17,0.541-0.31,0.934-0.428c0.395-0.117,0.818-0.177,1.27-0.177c0.68,0,1.276,0.099,1.792,0.295
			c0.512,0.195,0.893,0.46,1.137,0.797c0.245,0.333,0.413,0.778,0.506,1.342l-1.437,0.194c-0.065-0.447-0.255-0.793-0.566-1.044
			c-0.313-0.252-0.756-0.376-1.327-0.376c-0.674,0-1.156,0.111-1.444,0.336c-0.289,0.223-0.433,0.483-0.433,0.784
			c0,0.189,0.061,0.358,0.18,0.513c0.12,0.156,0.307,0.287,0.563,0.392c0.146,0.056,0.579,0.18,1.297,0.376
			c1.04,0.276,1.764,0.506,2.176,0.683c0.409,0.175,0.732,0.433,0.965,0.771c0.234,0.336,0.352,0.756,0.352,1.256
			c0,0.49-0.142,0.95-0.43,1.384c-0.284,0.432-0.697,0.768-1.235,1.003c-0.539,0.237-1.148,0.355-1.829,0.355
			c-1.126,0-1.985-0.235-2.574-0.702C228.515,438.491,228.139,437.796,227.976,436.878z"/>
	</g>
	<g display="inline">
		<path fill="#1A171B" d="M109.759,512.236v-11.965h1.624l6.284,9.394v-9.394h1.518v11.965h-1.624l-6.284-9.402v9.402H109.759z"/>
		<path fill="#1A171B" d="M121.592,515.573l-0.163-1.379c0.321,0.089,0.601,0.131,0.84,0.131c0.327,0,0.588-0.056,0.784-0.162
			c0.196-0.108,0.356-0.262,0.481-0.457c0.093-0.146,0.241-0.513,0.449-1.094c0.028-0.082,0.07-0.203,0.131-0.359l-3.289-8.684
			h1.583l1.803,5.017c0.233,0.64,0.444,1.307,0.629,2.012c0.168-0.675,0.37-1.335,0.603-1.979l1.854-5.05h1.468l-3.297,8.814
			c-0.354,0.953-0.628,1.608-0.824,1.968c-0.262,0.484-0.56,0.839-0.898,1.065c-0.337,0.225-0.739,0.339-1.208,0.339
			C122.256,515.756,121.939,515.693,121.592,515.573z"/>
		<path fill="#1A171B" d="M129.467,507.901c0-1.603,0.446-2.791,1.339-3.564c0.746-0.644,1.653-0.963,2.726-0.963
			c1.191,0,2.166,0.392,2.921,1.171c0.756,0.781,1.134,1.857,1.134,3.235c0,1.116-0.168,1.991-0.5,2.631
			c-0.336,0.641-0.823,1.137-1.462,1.493c-0.638,0.352-1.337,0.528-2.092,0.528c-1.213,0-2.194-0.389-2.942-1.17
			C129.841,510.486,129.467,509.367,129.467,507.901z M130.977,507.901c0,1.109,0.241,1.942,0.726,2.494
			c0.485,0.551,1.093,0.829,1.829,0.829c0.729,0,1.334-0.278,1.819-0.832c0.485-0.556,0.727-1.4,0.727-2.537
			c0-1.074-0.244-1.887-0.731-2.438c-0.486-0.552-1.092-0.826-1.814-0.826c-0.735,0-1.343,0.274-1.829,0.823
			C131.218,505.963,130.977,506.792,130.977,507.901z"/>
		<path fill="#1A171B" d="M139.309,512.236v-8.667h1.322v1.23c0.637-0.95,1.556-1.426,2.759-1.426c0.522,0,1.002,0.095,1.441,0.281
			c0.437,0.189,0.766,0.433,0.982,0.74c0.217,0.304,0.371,0.665,0.458,1.084c0.054,0.271,0.082,0.747,0.082,1.429v5.328h-1.469
			v-5.272c0-0.597-0.057-1.044-0.171-1.342c-0.115-0.296-0.317-0.534-0.609-0.711c-0.291-0.177-0.632-0.265-1.023-0.265
			c-0.625,0-1.165,0.199-1.621,0.598c-0.454,0.396-0.68,1.148-0.68,2.258v4.734H139.309z"/>
	</g>
	<g display="inline">
		<path fill="#1A171B" d="M240.08,447.896c0-1.388,0.373-2.479,1.12-3.265c0.747-0.786,1.711-1.179,2.893-1.179
			c0.772,0,1.468,0.186,2.089,0.555c0.622,0.369,1.095,0.885,1.42,1.544c0.326,0.662,0.489,1.41,0.489,2.249
			c0,0.85-0.173,1.609-0.516,2.279c-0.342,0.67-0.828,1.178-1.456,1.521c-0.628,0.346-1.306,0.519-2.034,0.519
			c-0.788,0-1.493-0.192-2.114-0.571c-0.62-0.382-1.092-0.901-1.412-1.56C240.24,449.329,240.08,448.635,240.08,447.896z
			 M241.222,447.915c0,1.009,0.272,1.802,0.814,2.383c0.543,0.581,1.224,0.872,2.042,0.872c0.836,0,1.521-0.294,2.06-0.878
			c0.539-0.588,0.81-1.42,0.81-2.497c0-0.682-0.116-1.276-0.346-1.786c-0.23-0.508-0.568-0.9-1.012-1.182
			c-0.444-0.281-0.941-0.421-1.493-0.421c-0.786,0-1.459,0.271-2.026,0.81C241.507,445.754,241.222,446.656,241.222,447.915z"/>
		<path fill="#1A171B" d="M253.362,451.977v-0.891c-0.471,0.685-1.113,1.028-1.924,1.028c-0.357,0-0.692-0.069-1.002-0.207
			c-0.31-0.137-0.542-0.31-0.692-0.516c-0.15-0.209-0.256-0.463-0.317-0.763c-0.042-0.203-0.063-0.523-0.063-0.961v-3.757h1.028
			v3.362c0,0.539,0.021,0.9,0.064,1.087c0.066,0.271,0.203,0.483,0.411,0.637c0.209,0.153,0.469,0.231,0.777,0.231
			c0.309,0,0.598-0.078,0.869-0.238c0.271-0.156,0.462-0.372,0.575-0.646c0.112-0.271,0.168-0.665,0.168-1.184v-3.249h1.028v6.065
			H253.362z"/>
		<path fill="#1A171B" d="M260.046,450.024l1.063,0.13c-0.168,0.621-0.479,1.104-0.931,1.443c-0.454,0.346-1.033,0.517-1.736,0.517
			c-0.888,0-1.591-0.275-2.112-0.82c-0.519-0.549-0.78-1.312-0.78-2.301c0-1.019,0.264-1.812,0.79-2.377
			c0.526-0.562,1.207-0.842,2.043-0.842c0.813,0,1.476,0.274,1.989,0.826c0.516,0.551,0.772,1.329,0.772,2.33
			c0,0.062-0.002,0.153-0.005,0.274h-4.524c0.038,0.666,0.226,1.179,0.564,1.53c0.34,0.356,0.763,0.533,1.269,0.533
			c0.377,0,0.699-0.099,0.964-0.298C259.679,450.772,259.89,450.455,260.046,450.024z M256.669,448.359h3.389
			c-0.046-0.509-0.175-0.892-0.389-1.149c-0.328-0.395-0.752-0.594-1.272-0.594c-0.474,0-0.871,0.161-1.192,0.477
			C256.883,447.409,256.705,447.831,256.669,448.359z"/>
		<path fill="#1A171B" d="M261.987,450.164l1.019-0.159c0.055,0.408,0.216,0.722,0.477,0.937c0.261,0.219,0.625,0.327,1.093,0.327
			c0.471,0,0.823-0.095,1.051-0.288c0.229-0.192,0.342-0.418,0.342-0.678c0-0.232-0.101-0.415-0.303-0.549
			c-0.14-0.093-0.49-0.207-1.051-0.351c-0.754-0.189-1.276-0.352-1.567-0.493c-0.292-0.137-0.513-0.328-0.662-0.576
			c-0.15-0.245-0.226-0.516-0.226-0.813c0-0.271,0.061-0.522,0.185-0.751c0.124-0.232,0.292-0.422,0.506-0.574
			c0.16-0.118,0.378-0.219,0.655-0.3c0.275-0.082,0.571-0.121,0.887-0.121c0.477,0,0.895,0.065,1.253,0.202
			c0.361,0.137,0.627,0.323,0.797,0.559c0.173,0.234,0.291,0.548,0.355,0.939l-1.005,0.137c-0.046-0.313-0.179-0.554-0.398-0.73
			c-0.219-0.177-0.529-0.265-0.927-0.265c-0.474,0-0.81,0.078-1.012,0.234c-0.202,0.157-0.303,0.341-0.303,0.549
			c0,0.134,0.042,0.255,0.127,0.358c0.083,0.111,0.213,0.203,0.393,0.275c0.103,0.038,0.406,0.127,0.909,0.264
			c0.727,0.193,1.234,0.354,1.521,0.477c0.287,0.124,0.514,0.304,0.677,0.539c0.163,0.237,0.246,0.532,0.246,0.882
			c0,0.343-0.101,0.666-0.3,0.97c-0.201,0.299-0.49,0.534-0.865,0.701c-0.379,0.166-0.805,0.249-1.28,0.249
			c-0.79,0-1.39-0.164-1.803-0.49C262.365,451.294,262.101,450.808,261.987,450.164z"/>
		<path fill="#1A171B" d="M270.494,451.056l0.148,0.907c-0.288,0.063-0.548,0.092-0.777,0.092c-0.373,0-0.662-0.059-0.868-0.177
			c-0.206-0.117-0.351-0.271-0.434-0.463c-0.083-0.192-0.126-0.597-0.126-1.214v-3.494h-0.754v-0.796h0.754v-1.505l1.022-0.616
			v2.121h1.035v0.796h-1.035v3.55c0,0.293,0.019,0.482,0.056,0.563c0.035,0.086,0.094,0.154,0.176,0.203
			c0.082,0.048,0.199,0.071,0.353,0.071C270.158,451.095,270.307,451.081,270.494,451.056z"/>
		<path fill="#1A171B" d="M227.9,463.677v-8.378h1.028v8.378H227.9z"/>
		<path fill="#1A171B" d="M234.481,462.929c-0.38,0.323-0.747,0.551-1.1,0.685c-0.353,0.135-0.73,0.2-1.133,0.2
			c-0.667,0-1.18-0.164-1.537-0.49c-0.357-0.323-0.537-0.741-0.537-1.246c0-0.298,0.067-0.568,0.203-0.813
			c0.135-0.248,0.313-0.444,0.532-0.592c0.219-0.149,0.465-0.26,0.739-0.339c0.203-0.053,0.506-0.104,0.914-0.153
			c0.831-0.099,1.441-0.218,1.834-0.356c0.003-0.14,0.005-0.228,0.005-0.268c0-0.417-0.096-0.711-0.292-0.885
			c-0.261-0.23-0.653-0.349-1.17-0.349c-0.484,0-0.84,0.085-1.071,0.255c-0.23,0.169-0.401,0.47-0.511,0.901l-1.005-0.138
			c0.092-0.431,0.242-0.779,0.451-1.045c0.208-0.265,0.513-0.467,0.907-0.61c0.397-0.143,0.855-0.213,1.377-0.213
			c0.518,0,0.939,0.061,1.264,0.184c0.323,0.121,0.561,0.274,0.713,0.458c0.152,0.185,0.259,0.417,0.32,0.7
			c0.034,0.174,0.051,0.49,0.051,0.947v1.371c0,0.957,0.023,1.561,0.067,1.815c0.044,0.251,0.13,0.496,0.259,0.729h-1.074
			C234.581,463.464,234.512,463.212,234.481,462.929z M234.396,460.63c-0.374,0.153-0.934,0.284-1.681,0.389
			c-0.422,0.062-0.722,0.131-0.896,0.206c-0.175,0.079-0.311,0.188-0.407,0.337c-0.095,0.146-0.142,0.306-0.142,0.485
			c0,0.275,0.104,0.503,0.311,0.686c0.208,0.184,0.511,0.274,0.911,0.274c0.396,0,0.748-0.085,1.058-0.258
			c0.307-0.174,0.533-0.411,0.679-0.712c0.111-0.232,0.167-0.574,0.167-1.028V460.63z"/>
		<path fill="#1A171B" d="M241.005,463.677v-0.892c-0.472,0.685-1.113,1.028-1.924,1.028c-0.358,0-0.692-0.068-1.002-0.207
			c-0.31-0.137-0.542-0.309-0.692-0.516c-0.15-0.208-0.256-0.463-0.316-0.764c-0.043-0.202-0.064-0.522-0.064-0.96v-3.756h1.028
			v3.361c0,0.539,0.021,0.902,0.064,1.087c0.065,0.271,0.202,0.483,0.411,0.637c0.208,0.154,0.469,0.232,0.777,0.232
			c0.309,0,0.598-0.078,0.868-0.239c0.271-0.157,0.462-0.372,0.575-0.646c0.113-0.271,0.168-0.667,0.168-1.185v-3.248h1.028v6.065
			H241.005z"/>
		<path fill="#1A171B" d="M243.125,461.864l1.019-0.161c0.056,0.409,0.215,0.723,0.477,0.938c0.261,0.22,0.625,0.326,1.094,0.326
			c0.472,0,0.823-0.094,1.051-0.286c0.229-0.193,0.343-0.419,0.343-0.68c0-0.231-0.101-0.414-0.304-0.548
			c-0.14-0.092-0.489-0.205-1.05-0.35c-0.754-0.189-1.276-0.353-1.567-0.492c-0.293-0.139-0.513-0.331-0.663-0.578
			c-0.15-0.245-0.225-0.516-0.225-0.813c0-0.271,0.061-0.521,0.184-0.751c0.124-0.23,0.292-0.42,0.506-0.574
			c0.16-0.117,0.379-0.219,0.655-0.301c0.275-0.081,0.571-0.121,0.888-0.121c0.477,0,0.895,0.065,1.254,0.203
			c0.36,0.138,0.626,0.323,0.796,0.558c0.173,0.235,0.291,0.549,0.356,0.94l-1.006,0.138c-0.045-0.312-0.179-0.555-0.398-0.731
			c-0.219-0.176-0.529-0.264-0.927-0.264c-0.473,0-0.809,0.078-1.012,0.234c-0.202,0.157-0.304,0.34-0.304,0.549
			c0,0.134,0.043,0.254,0.128,0.359c0.083,0.11,0.213,0.202,0.393,0.273c0.103,0.04,0.407,0.128,0.909,0.265
			c0.727,0.192,1.234,0.352,1.521,0.476c0.287,0.126,0.514,0.305,0.677,0.54c0.163,0.238,0.247,0.531,0.247,0.88
			c0,0.344-0.101,0.667-0.301,0.971c-0.201,0.301-0.489,0.535-0.865,0.702c-0.378,0.167-0.804,0.248-1.279,0.248
			c-0.79,0-1.391-0.164-1.803-0.49C243.504,462.994,243.24,462.507,243.125,461.864z"/>
		<path fill="#1A171B" d="M253.346,462.929c-0.38,0.323-0.747,0.551-1.1,0.685c-0.353,0.135-0.729,0.2-1.133,0.2
			c-0.667,0-1.18-0.164-1.537-0.49c-0.357-0.323-0.537-0.741-0.537-1.246c0-0.298,0.067-0.568,0.203-0.813
			c0.135-0.248,0.313-0.444,0.532-0.592c0.219-0.149,0.465-0.26,0.739-0.339c0.202-0.053,0.506-0.104,0.914-0.153
			c0.831-0.099,1.441-0.218,1.834-0.356c0.003-0.14,0.005-0.228,0.005-0.268c0-0.417-0.096-0.711-0.292-0.885
			c-0.261-0.23-0.653-0.349-1.17-0.349c-0.484,0-0.841,0.085-1.071,0.255c-0.23,0.169-0.401,0.47-0.511,0.901l-1.006-0.138
			c0.092-0.431,0.242-0.779,0.451-1.045c0.208-0.265,0.513-0.467,0.907-0.61c0.396-0.143,0.855-0.213,1.377-0.213
			c0.518,0,0.939,0.061,1.264,0.184c0.323,0.121,0.561,0.274,0.713,0.458c0.152,0.185,0.26,0.417,0.32,0.7
			c0.034,0.174,0.051,0.49,0.051,0.947v1.371c0,0.957,0.022,1.561,0.067,1.815c0.044,0.251,0.13,0.496,0.259,0.729h-1.074
			C253.446,463.464,253.377,463.212,253.346,462.929z M253.261,460.63c-0.374,0.153-0.934,0.284-1.681,0.389
			c-0.421,0.062-0.722,0.131-0.896,0.206c-0.175,0.079-0.311,0.188-0.407,0.337c-0.095,0.146-0.142,0.306-0.142,0.485
			c0,0.275,0.104,0.503,0.311,0.686c0.208,0.184,0.511,0.274,0.911,0.274c0.396,0,0.748-0.085,1.058-0.258
			c0.307-0.174,0.534-0.411,0.679-0.712c0.11-0.232,0.166-0.574,0.166-1.028V460.63z"/>
		<path fill="#1A171B" d="M255.892,463.677v-6.065h0.927v0.861c0.444-0.666,1.089-1,1.93-1c0.365,0,0.702,0.065,1.008,0.197
			c0.307,0.131,0.537,0.303,0.689,0.516c0.151,0.215,0.26,0.467,0.32,0.761c0.038,0.189,0.057,0.522,0.057,0.998v3.732h-1.027
			v-3.689c0-0.422-0.041-0.735-0.119-0.94c-0.082-0.209-0.222-0.376-0.427-0.5c-0.204-0.124-0.442-0.185-0.716-0.185
			c-0.439,0-0.815,0.14-1.134,0.417s-0.479,0.807-0.479,1.584v3.313H255.892z"/>
		<path fill="#1A171B" d="M262.398,463.677v-6.065h0.927v0.861c0.444-0.666,1.088-1,1.929-1c0.366,0,0.702,0.065,1.009,0.197
			c0.307,0.131,0.537,0.303,0.688,0.516c0.152,0.215,0.259,0.467,0.32,0.761c0.038,0.189,0.057,0.522,0.057,0.998v3.732h-1.028
			v-3.689c0-0.422-0.041-0.735-0.119-0.94c-0.081-0.209-0.222-0.376-0.426-0.5s-0.442-0.185-0.717-0.185
			c-0.438,0-0.816,0.14-1.134,0.417s-0.478,0.807-0.478,1.584v3.313H262.398z"/>
		<path fill="#1A171B" d="M268.524,460.644c0-1.124,0.312-1.955,0.937-2.498c0.522-0.45,1.157-0.673,1.908-0.673
			c0.834,0,1.517,0.272,2.045,0.82c0.529,0.545,0.793,1.3,0.793,2.263c0,0.783-0.115,1.397-0.351,1.845
			c-0.233,0.445-0.575,0.792-1.022,1.041c-0.447,0.248-0.937,0.372-1.466,0.372c-0.849,0-1.536-0.271-2.06-0.816
			C268.784,462.451,268.524,461.668,268.524,460.644z M269.582,460.644c0,0.776,0.168,1.357,0.507,1.742
			c0.34,0.389,0.766,0.581,1.28,0.581c0.511,0,0.936-0.192,1.275-0.584c0.338-0.385,0.508-0.979,0.508-1.776
			c0-0.75-0.17-1.317-0.511-1.703c-0.341-0.389-0.766-0.581-1.271-0.581c-0.514,0-0.94,0.192-1.28,0.578
			C269.75,459.285,269.582,459.866,269.582,460.644z"/>
		<path fill="#1A171B" d="M275.42,456.484v-1.186h1.028v1.186H275.42z M275.42,463.677v-6.065h1.028v6.065H275.42z"/>
		<path fill="#1A171B" d="M277.6,461.864l1.019-0.161c0.055,0.409,0.215,0.723,0.477,0.938c0.261,0.22,0.625,0.326,1.093,0.326
			c0.472,0,0.823-0.094,1.051-0.286c0.229-0.193,0.343-0.419,0.343-0.68c0-0.231-0.102-0.414-0.304-0.548
			c-0.14-0.092-0.49-0.205-1.051-0.35c-0.754-0.189-1.276-0.353-1.567-0.492c-0.292-0.139-0.512-0.331-0.662-0.578
			c-0.15-0.245-0.225-0.516-0.225-0.813c0-0.271,0.06-0.521,0.184-0.751c0.125-0.23,0.293-0.42,0.506-0.574
			c0.16-0.117,0.378-0.219,0.655-0.301c0.275-0.081,0.571-0.121,0.887-0.121c0.477,0,0.895,0.065,1.253,0.203
			c0.361,0.138,0.627,0.323,0.797,0.558c0.173,0.235,0.291,0.549,0.355,0.94l-1.005,0.138c-0.045-0.312-0.179-0.555-0.398-0.731
			c-0.219-0.176-0.529-0.264-0.927-0.264c-0.474,0-0.81,0.078-1.012,0.234c-0.202,0.157-0.303,0.34-0.303,0.549
			c0,0.134,0.042,0.254,0.127,0.359c0.083,0.11,0.213,0.202,0.393,0.273c0.103,0.04,0.406,0.128,0.909,0.265
			c0.727,0.192,1.234,0.352,1.521,0.476c0.288,0.126,0.514,0.305,0.677,0.54c0.163,0.238,0.247,0.531,0.247,0.88
			c0,0.344-0.101,0.667-0.3,0.971c-0.201,0.301-0.49,0.535-0.865,0.702c-0.379,0.167-0.805,0.248-1.28,0.248
			c-0.79,0-1.39-0.164-1.803-0.49C277.979,462.994,277.715,462.507,277.6,461.864z"/>
	</g>
	<g display="inline">
		<path fill="#1A171B" d="M221.357,335.063l1.428-0.196c0.038,0.915,0.209,1.542,0.514,1.877c0.306,0.336,0.727,0.506,1.265,0.506
			c0.396,0,0.739-0.091,1.028-0.274c0.289-0.182,0.486-0.427,0.595-0.741c0.11-0.313,0.163-0.813,0.163-1.499v-8.242h1.584v8.151
			c0,1.002-0.121,1.779-0.364,2.328c-0.242,0.548-0.625,0.969-1.149,1.256c-0.526,0.288-1.143,0.431-1.849,0.431
			c-1.05,0-1.854-0.3-2.411-0.904C221.603,337.153,221.336,336.255,221.357,335.063z"/>
		<path fill="#1A171B" d="M236.014,338.458v-1.273c-0.674,0.979-1.591,1.469-2.75,1.469c-0.511,0-0.989-0.098-1.433-0.293
			c-0.442-0.197-0.772-0.441-0.986-0.738c-0.216-0.297-0.367-0.66-0.454-1.09c-0.06-0.287-0.09-0.745-0.09-1.371v-5.37h1.469v4.809
			c0,0.764,0.029,1.283,0.09,1.547c0.093,0.388,0.289,0.692,0.587,0.911c0.299,0.222,0.67,0.33,1.11,0.33
			c0.441,0,0.854-0.111,1.241-0.336c0.387-0.226,0.66-0.536,0.819-0.924c0.162-0.388,0.242-0.953,0.242-1.691v-4.645h1.469v8.667
			H236.014z"/>
		<path fill="#1A171B" d="M239.613,338.458v-8.667h1.323v1.315c0.337-0.617,0.647-1.021,0.935-1.217
			c0.284-0.196,0.599-0.294,0.941-0.294c0.495,0,0.999,0.156,1.51,0.474l-0.506,1.364c-0.359-0.216-0.718-0.32-1.077-0.32
			c-0.322,0-0.609,0.098-0.865,0.291c-0.256,0.193-0.438,0.461-0.546,0.803c-0.164,0.522-0.245,1.093-0.245,1.714v4.538H239.613z"/>
		<path fill="#1A171B" d="M250.85,337.388c-0.543,0.463-1.067,0.79-1.57,0.979c-0.504,0.192-1.045,0.287-1.621,0.287
			c-0.952,0-1.685-0.231-2.195-0.699c-0.511-0.464-0.767-1.058-0.767-1.782c0-0.425,0.096-0.813,0.291-1.163
			c0.192-0.353,0.445-0.633,0.757-0.845c0.313-0.212,0.666-0.373,1.058-0.48c0.289-0.078,0.723-0.15,1.306-0.222
			c1.187-0.14,2.06-0.31,2.62-0.505c0.005-0.202,0.008-0.33,0.008-0.382c0-0.601-0.139-1.022-0.416-1.267
			c-0.375-0.333-0.934-0.496-1.673-0.496c-0.691,0-1.202,0.12-1.531,0.362c-0.329,0.242-0.571,0.669-0.729,1.283l-1.437-0.196
			c0.13-0.614,0.346-1.109,0.645-1.488c0.299-0.379,0.731-0.67,1.298-0.872c0.566-0.206,1.221-0.307,1.967-0.307
			c0.739,0,1.341,0.088,1.803,0.261c0.462,0.173,0.803,0.392,1.02,0.656s0.37,0.598,0.457,1c0.049,0.251,0.073,0.705,0.073,1.357
			v1.958c0,1.365,0.032,2.227,0.093,2.589c0.063,0.363,0.188,0.709,0.372,1.042h-1.534
			C250.992,338.155,250.894,337.799,250.85,337.388z M250.728,334.11c-0.534,0.215-1.334,0.401-2.399,0.555
			c-0.604,0.085-1.031,0.183-1.281,0.294c-0.25,0.108-0.444,0.268-0.58,0.477c-0.136,0.209-0.204,0.441-0.204,0.699
			c0,0.392,0.148,0.718,0.444,0.979c0.297,0.261,0.731,0.392,1.303,0.392c0.566,0,1.069-0.125,1.51-0.373
			c0.441-0.248,0.764-0.587,0.971-1.019c0.159-0.33,0.237-0.819,0.237-1.468V334.11z"/>
		<path fill="#1A171B" d="M253.919,334.867v-1.475h4.513v1.475H253.919z"/>
		<path fill="#1A171B" d="M260.227,338.458v-11.964h1.624l6.284,9.391v-9.391h1.518v11.964h-1.624l-6.284-9.401v9.401H260.227z"/>
		<path fill="#1A171B" d="M271.579,334.123c0-1.603,0.445-2.791,1.338-3.564c0.746-0.644,1.653-0.963,2.726-0.963
			c1.191,0,2.166,0.392,2.921,1.172c0.756,0.78,1.135,1.858,1.135,3.235c0,1.116-0.168,1.991-0.501,2.631
			c-0.336,0.64-0.823,1.136-1.462,1.492c-0.638,0.352-1.336,0.528-2.092,0.528c-1.213,0-2.194-0.388-2.941-1.169
			C271.952,336.708,271.579,335.589,271.579,334.123z M273.089,334.123c0,1.11,0.242,1.942,0.727,2.494
			c0.485,0.552,1.094,0.829,1.828,0.829c0.729,0,1.335-0.277,1.82-0.833c0.485-0.555,0.727-1.4,0.727-2.536
			c0-1.074-0.244-1.887-0.731-2.439c-0.487-0.551-1.092-0.825-1.815-0.825c-0.734,0-1.343,0.274-1.828,0.822
			C273.331,332.185,273.089,333.014,273.089,334.123z"/>
		<path fill="#1A171B" d="M281.405,338.458v-8.667h1.323v1.315c0.337-0.617,0.647-1.021,0.935-1.217
			c0.284-0.196,0.599-0.294,0.941-0.294c0.494,0,0.999,0.156,1.51,0.474l-0.505,1.364c-0.36-0.216-0.719-0.32-1.078-0.32
			c-0.321,0-0.609,0.098-0.865,0.291c-0.256,0.193-0.438,0.461-0.546,0.803c-0.163,0.522-0.245,1.093-0.245,1.714v4.538H281.405z"/>
		<path fill="#1A171B" d="M292.611,338.458v-1.093c-0.551,0.858-1.359,1.289-2.424,1.289c-0.691,0-1.328-0.189-1.906-0.571
			c-0.581-0.382-1.028-0.914-1.348-1.596c-0.316-0.682-0.477-1.466-0.477-2.354c0-0.864,0.144-1.648,0.432-2.353
			c0.29-0.705,0.722-1.247,1.298-1.62c0.577-0.379,1.221-0.564,1.934-0.564c0.522,0,0.987,0.111,1.396,0.33
			c0.408,0.222,0.74,0.509,0.995,0.862v-4.292h1.461v11.964H292.611z M287.966,334.133c0,1.11,0.234,1.939,0.701,2.491
			c0.469,0.548,1.021,0.823,1.657,0.823c0.642,0,1.188-0.261,1.636-0.786c0.45-0.526,0.674-1.329,0.674-2.406
			c0-1.185-0.229-2.057-0.686-2.611c-0.457-0.555-1.02-0.829-1.689-0.829c-0.652,0-1.197,0.264-1.635,0.796
			C288.185,332.146,287.966,332.984,287.966,334.133z"/>
		<path fill="#1A171B" d="M232.732,355.172l-3.297-8.667h1.551l1.86,5.19c0.201,0.562,0.387,1.143,0.555,1.746
			c0.131-0.457,0.313-1.005,0.547-1.648l1.926-5.289h1.51l-3.281,8.667H232.732z"/>
		<path fill="#1A171B" d="M244.336,354.101c-0.543,0.463-1.067,0.791-1.57,0.979c-0.504,0.193-1.045,0.288-1.621,0.288
			c-0.952,0-1.684-0.232-2.195-0.699c-0.511-0.464-0.767-1.058-0.767-1.783c0-0.424,0.096-0.812,0.291-1.162
			c0.192-0.353,0.445-0.634,0.757-0.846c0.313-0.212,0.666-0.373,1.058-0.48c0.29-0.078,0.723-0.15,1.306-0.222
			c1.187-0.14,2.06-0.31,2.62-0.505c0.005-0.203,0.008-0.33,0.008-0.383c0-0.6-0.139-1.021-0.416-1.266
			c-0.376-0.333-0.934-0.496-1.673-0.496c-0.691,0-1.201,0.12-1.531,0.361c-0.328,0.242-0.571,0.67-0.729,1.284l-1.437-0.197
			c0.13-0.613,0.346-1.109,0.645-1.488c0.299-0.378,0.731-0.669,1.297-0.871c0.566-0.206,1.221-0.307,1.967-0.307
			c0.739,0,1.341,0.088,1.803,0.262c0.461,0.173,0.803,0.392,1.02,0.656s0.371,0.598,0.457,0.999
			c0.049,0.251,0.074,0.705,0.074,1.358v1.958c0,1.365,0.031,2.227,0.093,2.589c0.063,0.362,0.187,0.708,0.372,1.041h-1.534
			C244.479,354.868,244.38,354.513,244.336,354.101z M244.214,350.824c-0.534,0.215-1.333,0.401-2.399,0.555
			c-0.604,0.084-1.031,0.182-1.281,0.293c-0.25,0.108-0.443,0.268-0.58,0.477c-0.135,0.209-0.204,0.44-0.204,0.698
			c0,0.392,0.148,0.718,0.443,0.979c0.297,0.261,0.731,0.392,1.303,0.392c0.566,0,1.069-0.124,1.51-0.372
			c0.441-0.249,0.763-0.587,0.971-1.019c0.158-0.33,0.236-0.82,0.236-1.469V350.824z"/>
		<path fill="#1A171B" d="M253.656,355.172v-1.273c-0.675,0.979-1.591,1.47-2.751,1.47c-0.511,0-0.988-0.099-1.433-0.294
			c-0.442-0.196-0.772-0.441-0.986-0.738c-0.215-0.297-0.368-0.66-0.454-1.09c-0.061-0.288-0.09-0.745-0.09-1.372v-5.37h1.469v4.809
			c0,0.764,0.029,1.283,0.09,1.547c0.092,0.388,0.289,0.692,0.587,0.91c0.299,0.222,0.669,0.33,1.11,0.33s0.853-0.111,1.24-0.336
			c0.388-0.225,0.66-0.535,0.82-0.924c0.162-0.388,0.242-0.953,0.242-1.69v-4.646h1.469v8.667H253.656z"/>
		<path fill="#1A171B" d="M262.895,355.172v-1.094c-0.551,0.859-1.358,1.29-2.424,1.29c-0.691,0-1.328-0.189-1.905-0.571
			c-0.581-0.383-1.028-0.915-1.348-1.597c-0.316-0.683-0.477-1.466-0.477-2.354c0-0.865,0.144-1.648,0.432-2.354
			c0.289-0.706,0.722-1.248,1.298-1.619c0.576-0.379,1.221-0.565,1.935-0.565c0.522,0,0.987,0.111,1.395,0.33
			c0.408,0.221,0.739,0.509,0.996,0.862v-4.293h1.461v11.964H262.895z M258.251,350.847c0,1.11,0.234,1.939,0.702,2.491
			c0.469,0.548,1.021,0.823,1.657,0.823c0.642,0,1.188-0.262,1.636-0.787c0.45-0.525,0.674-1.328,0.674-2.406
			c0-1.185-0.229-2.056-0.686-2.611c-0.457-0.555-1.02-0.829-1.688-0.829c-0.653,0-1.198,0.264-1.636,0.796
			C258.469,348.859,258.251,349.697,258.251,350.847z"/>
		<path fill="#1A171B" d="M266.02,350.837c0-1.603,0.446-2.792,1.338-3.565c0.746-0.643,1.654-0.963,2.726-0.963
			c1.191,0,2.166,0.392,2.922,1.172c0.755,0.78,1.134,1.857,1.134,3.235c0,1.117-0.168,1.991-0.501,2.632
			c-0.336,0.639-0.822,1.136-1.463,1.491c-0.638,0.353-1.337,0.529-2.092,0.529c-1.213,0-2.193-0.389-2.941-1.169
			C266.394,353.422,266.02,352.303,266.02,350.837z M267.53,350.837c0,1.109,0.242,1.942,0.727,2.494
			c0.484,0.551,1.093,0.829,1.828,0.829c0.729,0,1.335-0.278,1.82-0.833c0.484-0.555,0.726-1.4,0.726-2.537
			c0-1.074-0.243-1.887-0.731-2.438c-0.486-0.552-1.092-0.825-1.815-0.825c-0.735,0-1.344,0.273-1.828,0.822
			C267.771,348.897,267.53,349.727,267.53,350.837z"/>
		<path fill="#1A171B" d="M275.87,344.896v-1.688h1.469v1.688H275.87z M275.87,355.172v-8.667h1.469v8.667H275.87z"/>
		<path fill="#1A171B" d="M278.987,352.587l1.453-0.229c0.082,0.581,0.308,1.024,0.681,1.338c0.374,0.307,0.895,0.464,1.563,0.464
			c0.674,0,1.175-0.138,1.502-0.412c0.326-0.274,0.489-0.597,0.489-0.966c0-0.333-0.144-0.595-0.432-0.784
			c-0.201-0.131-0.702-0.297-1.502-0.5c-1.077-0.271-1.823-0.505-2.241-0.705c-0.415-0.199-0.731-0.473-0.947-0.825
			c-0.213-0.35-0.322-0.738-0.322-1.163c0-0.385,0.088-0.744,0.267-1.074c0.176-0.33,0.416-0.601,0.721-0.819
			c0.229-0.169,0.54-0.311,0.934-0.428c0.395-0.118,0.818-0.176,1.27-0.176c0.681,0,1.276,0.098,1.792,0.293
			c0.512,0.196,0.893,0.461,1.138,0.797c0.245,0.333,0.413,0.78,0.505,1.341l-1.436,0.197c-0.066-0.447-0.255-0.793-0.567-1.045
			c-0.313-0.251-0.755-0.375-1.327-0.375c-0.674,0-1.155,0.111-1.444,0.336c-0.289,0.222-0.432,0.482-0.432,0.783
			c0,0.189,0.061,0.359,0.179,0.512c0.119,0.157,0.307,0.288,0.563,0.392c0.146,0.056,0.579,0.18,1.298,0.375
			c1.039,0.278,1.764,0.506,2.175,0.682c0.41,0.177,0.733,0.435,0.967,0.771c0.233,0.336,0.351,0.757,0.351,1.257
			c0,0.489-0.143,0.949-0.43,1.384c-0.284,0.431-0.696,0.767-1.236,1.002c-0.538,0.239-1.147,0.356-1.827,0.356
			c-1.127,0-1.985-0.235-2.574-0.703C279.528,354.199,279.151,353.504,278.987,352.587z"/>
	</g>
	<g display="inline">
		<path fill="#1A171B" d="M266.376,438.926v-8.376h1.108v7.387h4.125v0.989H266.376z"/>
		<path fill="#1A171B" d="M276.757,438.178c-0.38,0.323-0.748,0.553-1.101,0.687s-0.729,0.198-1.132,0.198
			c-0.667,0-1.18-0.163-1.538-0.489c-0.357-0.323-0.537-0.742-0.537-1.248c0-0.296,0.067-0.566,0.202-0.812
			c0.135-0.249,0.313-0.444,0.532-0.591c0.219-0.151,0.465-0.261,0.74-0.341c0.203-0.051,0.506-0.104,0.914-0.152
			c0.831-0.099,1.441-0.22,1.834-0.356c0.003-0.141,0.005-0.228,0.005-0.268c0-0.417-0.097-0.711-0.293-0.885
			c-0.261-0.231-0.652-0.349-1.17-0.349c-0.483,0-0.84,0.084-1.07,0.255c-0.23,0.17-0.402,0.47-0.511,0.9l-1.005-0.137
			c0.091-0.432,0.241-0.78,0.45-1.046c0.209-0.264,0.513-0.466,0.907-0.609c0.396-0.144,0.855-0.212,1.378-0.212
			c0.517,0,0.938,0.058,1.263,0.182c0.324,0.121,0.562,0.275,0.714,0.458c0.152,0.187,0.259,0.418,0.32,0.702
			c0.034,0.172,0.05,0.489,0.05,0.945v1.372c0,0.956,0.023,1.56,0.067,1.814c0.044,0.252,0.13,0.496,0.259,0.729h-1.074
			C276.856,438.713,276.787,438.462,276.757,438.178z M276.672,435.88c-0.374,0.153-0.934,0.283-1.682,0.389
			c-0.421,0.062-0.721,0.13-0.896,0.205c-0.174,0.078-0.31,0.189-0.406,0.336c-0.095,0.147-0.143,0.308-0.143,0.487
			c0,0.273,0.105,0.502,0.312,0.686c0.208,0.183,0.511,0.273,0.91,0.273c0.397,0,0.748-0.084,1.059-0.258
			c0.306-0.173,0.533-0.41,0.679-0.711c0.111-0.232,0.167-0.575,0.167-1.028V435.88z"/>
		<path fill="#1A171B" d="M283.279,438.926v-0.891c-0.472,0.685-1.113,1.027-1.925,1.027c-0.356,0-0.691-0.068-1.002-0.205
			c-0.31-0.138-0.542-0.311-0.691-0.517c-0.15-0.209-0.256-0.463-0.317-0.763c-0.043-0.203-0.063-0.523-0.063-0.961v-3.757h1.028
			v3.362c0,0.539,0.021,0.9,0.064,1.087c0.065,0.271,0.202,0.483,0.411,0.637c0.209,0.153,0.469,0.231,0.777,0.231
			c0.308,0,0.598-0.078,0.868-0.238c0.271-0.156,0.462-0.372,0.575-0.646c0.113-0.271,0.168-0.665,0.168-1.186v-3.247h1.029v6.065
			H283.279z"/>
		<path fill="#1A171B" d="M285.397,437.113l1.019-0.159c0.056,0.407,0.215,0.721,0.477,0.937c0.261,0.219,0.625,0.327,1.093,0.327
			c0.472,0,0.823-0.096,1.051-0.288c0.229-0.192,0.344-0.418,0.344-0.678c0-0.232-0.102-0.416-0.305-0.55
			c-0.14-0.092-0.488-0.206-1.05-0.35c-0.754-0.189-1.277-0.352-1.567-0.493c-0.292-0.137-0.513-0.328-0.663-0.576
			c-0.15-0.245-0.225-0.516-0.225-0.813c0-0.271,0.061-0.522,0.185-0.751c0.124-0.232,0.292-0.422,0.506-0.574
			c0.16-0.118,0.379-0.219,0.654-0.3c0.276-0.083,0.571-0.121,0.888-0.121c0.477,0,0.895,0.065,1.253,0.202
			c0.361,0.137,0.627,0.323,0.797,0.559c0.174,0.234,0.291,0.548,0.356,0.939l-1.006,0.137c-0.046-0.313-0.18-0.554-0.397-0.73
			c-0.219-0.177-0.53-0.265-0.928-0.265c-0.473,0-0.81,0.078-1.012,0.234c-0.203,0.157-0.304,0.341-0.304,0.549
			c0,0.134,0.043,0.255,0.127,0.358c0.083,0.111,0.214,0.203,0.394,0.275c0.103,0.038,0.406,0.127,0.909,0.264
			c0.727,0.193,1.233,0.354,1.521,0.477c0.287,0.124,0.514,0.304,0.677,0.539c0.164,0.237,0.247,0.532,0.247,0.882
			c0,0.342-0.103,0.665-0.301,0.969c-0.2,0.3-0.489,0.535-0.865,0.702c-0.378,0.166-0.805,0.248-1.279,0.248
			c-0.791,0-1.391-0.163-1.804-0.489C285.776,438.243,285.511,437.757,285.397,437.113z"/>
		<path fill="#1A171B" d="M295.617,438.178c-0.38,0.323-0.747,0.553-1.1,0.687s-0.729,0.198-1.133,0.198
			c-0.667,0-1.181-0.163-1.537-0.489c-0.357-0.323-0.537-0.742-0.537-1.248c0-0.296,0.067-0.566,0.202-0.812
			c0.135-0.249,0.313-0.444,0.532-0.591c0.219-0.151,0.465-0.261,0.739-0.341c0.202-0.051,0.506-0.104,0.914-0.152
			c0.831-0.099,1.441-0.22,1.834-0.356c0.004-0.141,0.006-0.228,0.006-0.268c0-0.417-0.097-0.711-0.293-0.885
			c-0.261-0.231-0.652-0.349-1.17-0.349c-0.483,0-0.841,0.084-1.07,0.255c-0.23,0.17-0.402,0.47-0.512,0.9l-1.006-0.137
			c0.092-0.432,0.242-0.78,0.451-1.046c0.209-0.264,0.512-0.466,0.908-0.609s0.855-0.212,1.377-0.212
			c0.518,0,0.938,0.058,1.264,0.182c0.323,0.121,0.561,0.275,0.713,0.458c0.152,0.187,0.26,0.418,0.32,0.702
			c0.034,0.172,0.051,0.489,0.051,0.945v1.372c0,0.956,0.022,1.56,0.066,1.814c0.044,0.252,0.131,0.496,0.26,0.729h-1.074
			C295.718,438.713,295.65,438.462,295.617,438.178z M295.532,435.88c-0.373,0.153-0.934,0.283-1.681,0.389
			c-0.421,0.062-0.722,0.13-0.896,0.205c-0.176,0.078-0.311,0.189-0.406,0.336c-0.096,0.147-0.143,0.308-0.143,0.487
			c0,0.273,0.104,0.502,0.312,0.686c0.207,0.183,0.511,0.273,0.911,0.273c0.396,0,0.748-0.084,1.057-0.258
			c0.308-0.173,0.535-0.41,0.68-0.711c0.111-0.232,0.166-0.575,0.166-1.028V435.88z"/>
		<path fill="#1A171B" d="M298.165,438.926v-6.065h0.928v0.861c0.443-0.665,1.088-0.998,1.929-0.998
			c0.366,0,0.702,0.065,1.009,0.194c0.307,0.132,0.537,0.306,0.688,0.518c0.151,0.215,0.261,0.466,0.319,0.759
			c0.039,0.189,0.059,0.523,0.059,1v3.731h-1.029v-3.688c0-0.422-0.04-0.735-0.118-0.94c-0.082-0.209-0.223-0.376-0.427-0.5
			c-0.203-0.123-0.442-0.187-0.716-0.187c-0.439,0-0.816,0.142-1.135,0.419c-0.318,0.276-0.479,0.807-0.479,1.583v3.313H298.165z"/>
		<path fill="#1A171B" d="M304.673,438.926v-6.065h0.928v0.861c0.443-0.665,1.088-0.998,1.929-0.998
			c0.365,0,0.702,0.065,1.009,0.194c0.307,0.132,0.537,0.306,0.688,0.518c0.151,0.215,0.26,0.466,0.319,0.759
			c0.038,0.189,0.059,0.523,0.059,1v3.731h-1.029v-3.688c0-0.422-0.04-0.735-0.119-0.94c-0.082-0.209-0.222-0.376-0.426-0.5
			c-0.204-0.123-0.442-0.187-0.717-0.187c-0.438,0-0.815,0.142-1.134,0.419c-0.318,0.276-0.479,0.807-0.479,1.583v3.313H304.673z"/>
		<path fill="#1A171B" d="M315.333,436.974l1.062,0.13c-0.168,0.621-0.479,1.104-0.931,1.443c-0.454,0.346-1.033,0.516-1.736,0.516
			c-0.888,0-1.592-0.274-2.112-0.819c-0.52-0.549-0.78-1.312-0.78-2.301c0-1.019,0.265-1.812,0.79-2.377
			c0.525-0.562,1.206-0.842,2.043-0.842c0.812,0,1.477,0.274,1.988,0.826c0.516,0.551,0.771,1.329,0.771,2.33
			c0,0.062-0.001,0.153-0.004,0.274h-4.524c0.038,0.666,0.226,1.179,0.564,1.53c0.34,0.356,0.763,0.533,1.269,0.533
			c0.377,0,0.698-0.099,0.965-0.298C314.966,437.722,315.176,437.404,315.333,436.974z M311.956,435.309h3.388
			c-0.046-0.51-0.175-0.892-0.388-1.149c-0.328-0.395-0.752-0.594-1.273-0.594c-0.473,0-0.87,0.159-1.191,0.477
			C312.169,434.358,311.991,434.78,311.956,435.309z"/>
	</g>
	<g display="inline">
		<path fill="#1A171B" d="M344.867,501.861v-11.962h5.305c1.065,0,1.877,0.106,2.433,0.321c0.554,0.217,0.997,0.596,1.329,1.137
			c0.332,0.546,0.497,1.146,0.497,1.805c0,0.85-0.273,1.564-0.823,2.146c-0.55,0.584-1.399,0.953-2.547,1.109
			c0.42,0.202,0.737,0.402,0.956,0.598c0.461,0.424,0.901,0.957,1.312,1.589l2.081,3.258h-1.991l-1.584-2.486
			c-0.461-0.719-0.843-1.27-1.143-1.651c-0.297-0.379-0.565-0.646-0.803-0.796c-0.236-0.154-0.478-0.263-0.721-0.321
			c-0.18-0.04-0.475-0.058-0.884-0.058h-1.834v5.312H344.867z M346.451,495.177h3.401c0.724,0,1.29-0.071,1.698-0.223
			c0.407-0.149,0.718-0.387,0.932-0.718c0.21-0.329,0.317-0.688,0.317-1.074c0-0.563-0.207-1.031-0.615-1.393
			c-0.412-0.366-1.062-0.549-1.947-0.549h-3.786V495.177z"/>
		<path fill="#1A171B" d="M356.733,491.586v-1.687h1.47v1.687H356.733z M356.733,501.861v-8.666h1.47v8.666H356.733z"/>
		<path fill="#1A171B" d="M362.847,501.861l-3.298-8.666h1.551l1.86,5.19c0.199,0.562,0.387,1.143,0.555,1.747
			c0.131-0.458,0.313-1.006,0.547-1.648l1.926-5.289h1.51l-3.28,8.666H362.847z"/>
		<path fill="#1A171B" d="M368.804,491.586v-1.687h1.468v1.687H368.804z M368.804,501.861v-8.666h1.468v8.666H368.804z"/>
		<path fill="#1A171B" d="M378.442,499.071l1.519,0.187c-0.241,0.888-0.685,1.577-1.331,2.065c-0.649,0.49-1.474,0.735-2.481,0.735
			c-1.268,0-2.273-0.393-3.014-1.173c-0.745-0.779-1.115-1.873-1.115-3.283c0-1.459,0.374-2.588,1.126-3.395
			c0.75-0.808,1.724-1.208,2.921-1.208c1.159,0,2.106,0.395,2.84,1.184c0.735,0.788,1.103,1.897,1.103,3.33
			c0,0.086-0.003,0.216-0.009,0.393h-6.464c0.055,0.95,0.325,1.678,0.81,2.187c0.484,0.503,1.088,0.758,1.812,0.758
			c0.538,0,0.999-0.14,1.379-0.425C377.915,500.143,378.218,499.692,378.442,499.071z M373.618,496.698h4.84
			c-0.065-0.731-0.251-1.276-0.556-1.643c-0.469-0.564-1.073-0.848-1.82-0.848c-0.674,0-1.242,0.226-1.702,0.675
			C373.921,495.336,373.666,495.94,373.618,496.698z"/>
		<path fill="#1A171B" d="M381.787,501.861v-8.666h1.322v1.316c0.337-0.617,0.647-1.023,0.936-1.218
			c0.283-0.197,0.599-0.294,0.94-0.294c0.495,0,1,0.157,1.51,0.473l-0.505,1.365c-0.358-0.215-0.719-0.32-1.078-0.32
			c-0.32,0-0.608,0.098-0.864,0.29c-0.257,0.192-0.438,0.46-0.547,0.804c-0.163,0.522-0.245,1.094-0.245,1.713v4.537H381.787z"/>
		<path fill="#1A171B" d="M393.025,500.792c-0.544,0.463-1.068,0.789-1.569,0.979c-0.505,0.193-1.046,0.288-1.621,0.288
			c-0.952,0-1.684-0.232-2.196-0.698c-0.511-0.465-0.767-1.059-0.767-1.783c0-0.425,0.097-0.812,0.29-1.163
			c0.194-0.352,0.446-0.632,0.758-0.845c0.313-0.212,0.666-0.371,1.058-0.479c0.289-0.078,0.724-0.149,1.306-0.223
			c1.187-0.14,2.06-0.309,2.62-0.506c0.006-0.202,0.008-0.328,0.008-0.381c0-0.602-0.14-1.021-0.415-1.267
			c-0.377-0.333-0.935-0.497-1.674-0.497c-0.691,0-1.201,0.121-1.531,0.363c-0.328,0.24-0.571,0.669-0.729,1.281l-1.437-0.194
			c0.132-0.614,0.345-1.11,0.645-1.489c0.299-0.379,0.732-0.669,1.299-0.871c0.565-0.205,1.22-0.307,1.966-0.307
			c0.739,0,1.342,0.087,1.804,0.261c0.461,0.173,0.803,0.392,1.02,0.656c0.217,0.264,0.37,0.598,0.457,0.999
			c0.05,0.251,0.073,0.705,0.073,1.357v1.959c0,1.364,0.031,2.227,0.094,2.588c0.062,0.363,0.188,0.709,0.372,1.041h-1.534
			C393.167,501.559,393.069,501.203,393.025,500.792z M392.903,497.514c-0.533,0.216-1.334,0.402-2.399,0.556
			c-0.604,0.084-1.031,0.183-1.281,0.294c-0.251,0.106-0.445,0.268-0.579,0.476c-0.137,0.209-0.205,0.441-0.205,0.699
			c0,0.392,0.148,0.718,0.444,0.979c0.297,0.263,0.731,0.392,1.303,0.392c0.566,0,1.068-0.123,1.51-0.371s0.764-0.587,0.972-1.019
			c0.157-0.329,0.236-0.819,0.236-1.469V497.514z"/>
		<path fill="#1A171B" d="M396.093,498.271v-1.476h4.513v1.476H396.093z"/>
		<path fill="#1A171B" d="M402.417,501.861v-11.962h4.513c0.795,0,1.402,0.038,1.82,0.113c0.587,0.098,1.08,0.284,1.478,0.559
			c0.397,0.273,0.717,0.659,0.959,1.155s0.363,1.038,0.363,1.633c0,1.019-0.323,1.876-0.971,2.581
			c-0.649,0.705-1.817,1.058-3.51,1.058h-3.068v4.863H402.417z M404.001,495.588h3.093c1.024,0,1.751-0.191,2.178-0.573
			c0.431-0.379,0.647-0.915,0.647-1.607c0-0.5-0.127-0.93-0.382-1.286c-0.251-0.355-0.586-0.591-0.999-0.705
			c-0.267-0.071-0.759-0.104-1.477-0.104h-3.061V495.588z"/>
		<path fill="#1A171B" d="M419.032,500.792c-0.543,0.463-1.065,0.789-1.57,0.979c-0.504,0.193-1.044,0.288-1.62,0.288
			c-0.952,0-1.685-0.232-2.194-0.698c-0.511-0.465-0.768-1.059-0.768-1.783c0-0.425,0.096-0.812,0.291-1.163
			c0.191-0.352,0.445-0.632,0.756-0.845c0.313-0.212,0.667-0.371,1.059-0.479c0.289-0.078,0.722-0.149,1.306-0.223
			c1.186-0.14,2.061-0.309,2.62-0.506c0.004-0.202,0.007-0.328,0.007-0.381c0-0.602-0.138-1.021-0.416-1.267
			c-0.374-0.333-0.933-0.497-1.672-0.497c-0.691,0-1.202,0.121-1.531,0.363c-0.329,0.24-0.571,0.669-0.729,1.281l-1.438-0.194
			c0.131-0.614,0.348-1.11,0.646-1.489c0.299-0.379,0.73-0.669,1.298-0.871c0.566-0.205,1.221-0.307,1.967-0.307
			c0.739,0,1.341,0.087,1.804,0.261c0.463,0.173,0.802,0.392,1.02,0.656c0.218,0.264,0.37,0.598,0.457,0.999
			c0.049,0.251,0.074,0.705,0.074,1.357v1.959c0,1.364,0.031,2.227,0.093,2.588c0.064,0.363,0.187,0.709,0.372,1.041h-1.534
			C419.175,501.559,419.078,501.203,419.032,500.792z M418.911,497.514c-0.534,0.216-1.335,0.402-2.4,0.556
			c-0.604,0.084-1.031,0.183-1.28,0.294c-0.249,0.106-0.443,0.268-0.58,0.476c-0.135,0.209-0.203,0.441-0.203,0.699
			c0,0.392,0.147,0.718,0.442,0.979c0.298,0.263,0.732,0.392,1.304,0.392c0.565,0,1.069-0.123,1.51-0.371s0.764-0.587,0.97-1.019
			c0.16-0.329,0.238-0.819,0.238-1.469V497.514z"/>
		<path fill="#1A171B" d="M422.608,505.199l-0.162-1.378c0.321,0.087,0.6,0.13,0.84,0.13c0.326,0,0.587-0.056,0.784-0.162
			c0.194-0.108,0.355-0.263,0.481-0.457c0.092-0.147,0.242-0.514,0.447-1.095c0.028-0.081,0.071-0.202,0.131-0.358l-3.288-8.684
			h1.583l1.803,5.017c0.234,0.642,0.445,1.307,0.629,2.012c0.168-0.676,0.37-1.335,0.604-1.979l1.854-5.05h1.469l-3.297,8.814
			c-0.354,0.953-0.629,1.608-0.824,1.969c-0.261,0.482-0.56,0.837-0.899,1.063c-0.336,0.226-0.737,0.34-1.207,0.34
			C423.272,505.382,422.955,505.318,422.608,505.199z"/>
		<path fill="#1A171B" d="M430.443,499.277l1.452-0.229c0.081,0.582,0.308,1.026,0.682,1.34c0.373,0.306,0.895,0.463,1.563,0.463
			c0.673,0,1.174-0.137,1.502-0.412c0.324-0.273,0.489-0.597,0.489-0.966c0-0.333-0.145-0.594-0.433-0.783
			c-0.202-0.131-0.702-0.298-1.502-0.5c-1.076-0.271-1.823-0.506-2.241-0.705c-0.413-0.198-0.731-0.473-0.946-0.825
			c-0.214-0.351-0.322-0.737-0.322-1.162c0-0.386,0.089-0.745,0.266-1.074c0.177-0.33,0.417-0.601,0.722-0.818
			c0.229-0.171,0.54-0.311,0.934-0.429c0.396-0.117,0.817-0.176,1.271-0.176c0.681,0,1.276,0.097,1.792,0.294
			c0.513,0.194,0.893,0.46,1.138,0.796c0.244,0.333,0.412,0.78,0.506,1.342l-1.436,0.195c-0.065-0.447-0.255-0.792-0.567-1.044
			c-0.313-0.251-0.755-0.375-1.327-0.375c-0.673,0-1.154,0.109-1.444,0.336c-0.288,0.221-0.432,0.483-0.432,0.784
			c0,0.189,0.061,0.358,0.179,0.511c0.119,0.157,0.307,0.288,0.563,0.392c0.147,0.056,0.579,0.18,1.297,0.376
			c1.04,0.278,1.766,0.506,2.176,0.683s0.733,0.435,0.967,0.771c0.232,0.336,0.352,0.757,0.352,1.257c0,0.489-0.142,0.95-0.43,1.385
			c-0.285,0.43-0.698,0.766-1.236,1.001c-0.539,0.239-1.146,0.356-1.828,0.356c-1.126,0-1.983-0.235-2.573-0.703
			C430.984,500.891,430.605,500.193,430.443,499.277z"/>
		<path fill="#1A171B" d="M438.815,498.271v-1.476h4.513v1.476H438.815z"/>
		<path fill="#1A171B" d="M450.575,501.861v-1.092c-0.55,0.858-1.359,1.289-2.425,1.289c-0.689,0-1.326-0.189-1.904-0.571
			c-0.58-0.382-1.027-0.915-1.349-1.597c-0.316-0.683-0.476-1.466-0.476-2.354c0-0.865,0.144-1.648,0.433-2.354
			c0.288-0.705,0.721-1.248,1.296-1.619c0.579-0.379,1.223-0.564,1.935-0.564c0.524,0,0.988,0.111,1.396,0.329
			c0.407,0.223,0.74,0.51,0.995,0.862v-4.292h1.46v11.962H450.575z M445.932,497.537c0,1.109,0.233,1.938,0.7,2.491
			c0.471,0.549,1.021,0.822,1.658,0.822c0.642,0,1.188-0.261,1.636-0.787c0.45-0.525,0.674-1.328,0.674-2.405
			c0-1.186-0.229-2.057-0.686-2.611c-0.457-0.556-1.02-0.83-1.689-0.83c-0.652,0-1.198,0.265-1.635,0.798
			C446.151,495.549,445.932,496.388,445.932,497.537z"/>
		<path fill="#1A171B" d="M454.256,494.133l-0.376-2.233v-2h1.672v2l-0.39,2.233H454.256z"/>
		<path fill="#1A171B" d="M457.659,501.861v-11.962h8.65v1.413h-7.068v3.662h6.618v1.402h-6.618v4.074h7.345v1.41H457.659z"/>
		<path fill="#1A171B" d="M468.586,501.861v-8.666h1.321v1.23c0.639-0.95,1.556-1.426,2.758-1.426c0.521,0,1.006,0.094,1.441,0.28
			c0.439,0.189,0.764,0.434,0.983,0.741c0.22,0.304,0.37,0.665,0.459,1.084c0.054,0.271,0.079,0.748,0.079,1.429v5.327h-1.467
			v-5.271c0-0.597-0.06-1.044-0.171-1.341c-0.117-0.298-0.319-0.535-0.609-0.712c-0.291-0.177-0.63-0.265-1.023-0.265
			c-0.627,0-1.166,0.199-1.621,0.598c-0.455,0.395-0.681,1.148-0.681,2.26v4.731H468.586z"/>
		<path fill="#1A171B" d="M477.882,501.861v-11.962h1.47v4.292c0.684-0.794,1.55-1.191,2.593-1.191c0.644,0,1.199,0.127,1.675,0.378
			c0.471,0.255,0.81,0.604,1.012,1.048c0.211,0.447,0.308,1.097,0.308,1.946v5.489h-1.468v-5.489c0-0.738-0.156-1.271-0.479-1.607
			c-0.318-0.331-0.766-0.501-1.35-0.501c-0.434,0-0.844,0.114-1.229,0.339c-0.385,0.226-0.655,0.531-0.82,0.92
			c-0.162,0.385-0.242,0.918-0.242,1.6v4.739H477.882z"/>
		<path fill="#1A171B" d="M492.833,500.792c-0.542,0.463-1.068,0.789-1.57,0.979c-0.507,0.193-1.045,0.288-1.624,0.288
			c-0.948,0-1.684-0.232-2.193-0.698c-0.51-0.465-0.767-1.059-0.767-1.783c0-0.425,0.095-0.812,0.291-1.163
			c0.193-0.352,0.444-0.632,0.758-0.845c0.313-0.212,0.664-0.371,1.057-0.479c0.288-0.078,0.724-0.149,1.305-0.223
			c1.188-0.14,2.06-0.309,2.618-0.506c0.009-0.202,0.012-0.328,0.012-0.381c0-0.602-0.143-1.021-0.416-1.267
			c-0.379-0.333-0.935-0.497-1.675-0.497c-0.687,0-1.2,0.121-1.53,0.363c-0.327,0.24-0.572,0.669-0.732,1.281l-1.436-0.194
			c0.131-0.614,0.348-1.11,0.646-1.489c0.3-0.379,0.732-0.669,1.3-0.871c0.563-0.205,1.222-0.307,1.965-0.307
			c0.738,0,1.342,0.087,1.801,0.261c0.465,0.173,0.804,0.392,1.022,0.656c0.22,0.264,0.368,0.598,0.456,0.999
			c0.052,0.251,0.077,0.705,0.077,1.357v1.959c0,1.364,0.028,2.227,0.091,2.588c0.065,0.363,0.188,0.709,0.371,1.041h-1.533
			C492.975,501.559,492.878,501.203,492.833,500.792z M492.707,497.514c-0.529,0.216-1.33,0.402-2.396,0.556
			c-0.607,0.084-1.031,0.183-1.282,0.294c-0.251,0.106-0.444,0.268-0.578,0.476c-0.137,0.209-0.205,0.441-0.205,0.699
			c0,0.392,0.146,0.718,0.444,0.979c0.296,0.263,0.729,0.392,1.302,0.392c0.567,0,1.071-0.123,1.507-0.371
			c0.444-0.248,0.764-0.587,0.975-1.019c0.156-0.329,0.233-0.819,0.233-1.469V497.514z"/>
		<path fill="#1A171B" d="M502.152,501.861v-1.271c-0.675,0.979-1.59,1.469-2.752,1.469c-0.51,0-0.985-0.099-1.431-0.294
			c-0.441-0.196-0.771-0.441-0.985-0.737c-0.214-0.298-0.367-0.66-0.456-1.092c-0.06-0.286-0.088-0.743-0.088-1.37v-5.37h1.47v4.809
			c0,0.764,0.028,1.282,0.089,1.547c0.094,0.39,0.29,0.692,0.587,0.91c0.299,0.223,0.672,0.331,1.107,0.331
			c0.444,0,0.857-0.111,1.242-0.336c0.388-0.226,0.658-0.536,0.823-0.925c0.16-0.388,0.239-0.953,0.239-1.69v-4.646h1.471v8.666
			H502.152z"/>
		<path fill="#1A171B" d="M508.975,500.55l0.211,1.296c-0.41,0.089-0.784,0.131-1.108,0.131c-0.536,0-0.946-0.085-1.242-0.252
			c-0.293-0.169-0.501-0.392-0.618-0.665c-0.12-0.274-0.18-0.856-0.18-1.736v-4.985h-1.077v-1.143h1.077v-2.146l1.459-0.88v3.025
			h1.479v1.143h-1.479v5.069c0,0.417,0.025,0.686,0.077,0.807c0.054,0.121,0.14,0.215,0.256,0.284
			c0.117,0.071,0.282,0.107,0.502,0.107C508.496,500.605,508.71,500.585,508.975,500.55z"/>
	</g>
	<g display="inline">
		<path fill="#1A171B" d="M424.639,574.481l4.596-11.964h1.706l4.896,11.964h-1.803l-1.395-3.624h-5.003l-1.314,3.624H424.639z
			 M428.092,569.568h4.057l-1.249-3.313c-0.381-1.006-0.665-1.835-0.85-2.481c-0.152,0.768-0.365,1.528-0.645,2.285L428.092,569.568
			z"/>
		<path fill="#1A171B" d="M436.922,564.205v-1.688h1.469v1.688H436.922z M436.922,574.481v-8.667h1.469v8.667H436.922z"/>
		<path fill="#1A171B" d="M440.358,575.199l1.429,0.212c0.06,0.44,0.226,0.761,0.497,0.963c0.363,0.271,0.862,0.409,1.494,0.409
			c0.681,0,1.204-0.139,1.575-0.409s0.619-0.652,0.75-1.142c0.076-0.301,0.11-0.928,0.106-1.888c-0.643,0.758-1.441,1.137-2.4,1.137
			c-1.19,0-2.113-0.432-2.766-1.289c-0.652-0.859-0.979-1.891-0.979-3.091c0-0.831,0.149-1.595,0.448-2.292
			c0.299-0.7,0.732-1.238,1.301-1.62c0.569-0.382,1.237-0.571,2.004-0.571c1.022,0,1.866,0.415,2.53,1.241v-1.045h1.355v7.491
			c0,1.348-0.138,2.306-0.413,2.869c-0.274,0.562-0.711,1.009-1.305,1.336c-0.599,0.326-1.33,0.489-2.199,0.489
			c-1.034,0-1.869-0.235-2.507-0.698C440.644,576.834,440.336,576.137,440.358,575.199z M441.573,569.993
			c0,1.135,0.227,1.968,0.679,2.489c0.452,0.523,1.017,0.784,1.697,0.784c0.674,0,1.239-0.261,1.698-0.779
			c0.456-0.521,0.686-1.336,0.686-2.446c0-1.06-0.235-1.86-0.705-2.398c-0.474-0.538-1.039-0.807-1.704-0.807
			c-0.652,0-1.208,0.266-1.664,0.794C441.802,568.161,441.573,568.949,441.573,569.993z"/>
		<path fill="#1A171B" d="M449.889,574.481v-11.964h1.47v11.964H449.889z"/>
		<path fill="#1A171B" d="M459.57,571.69l1.517,0.186c-0.24,0.889-0.683,1.577-1.329,2.066c-0.649,0.49-1.476,0.734-2.481,0.734
			c-1.268,0-2.273-0.392-3.014-1.171c-0.747-0.781-1.117-1.875-1.117-3.285c0-1.459,0.376-2.588,1.128-3.395
			c0.75-0.806,1.724-1.208,2.921-1.208c1.159,0,2.104,0.395,2.84,1.186c0.735,0.786,1.103,1.896,1.103,3.329
			c0,0.085-0.003,0.216-0.009,0.392h-6.464c0.055,0.95,0.323,1.678,0.81,2.188c0.484,0.503,1.088,0.757,1.812,0.757
			c0.538,0,0.997-0.14,1.379-0.423C459.042,572.761,459.344,572.311,459.57,571.69z M454.746,569.317h4.839
			c-0.065-0.731-0.25-1.276-0.555-1.643c-0.47-0.565-1.074-0.849-1.82-0.849c-0.675,0-1.242,0.226-1.703,0.676
			C455.048,567.956,454.794,568.56,454.746,569.317z"/>
	</g>
	<g display="inline">
		<path fill="#1A171B" d="M309.118,461.541v-8.377h1.107v7.387h4.125v0.99H309.118z"/>
		<path fill="#1A171B" d="M319.496,460.793c-0.38,0.324-0.747,0.552-1.1,0.686s-0.729,0.199-1.134,0.199
			c-0.667,0-1.179-0.162-1.537-0.49c-0.357-0.323-0.536-0.74-0.536-1.246c0-0.298,0.067-0.568,0.202-0.813
			c0.135-0.247,0.313-0.442,0.531-0.59c0.219-0.15,0.466-0.262,0.74-0.34c0.202-0.053,0.506-0.104,0.914-0.154
			c0.83-0.097,1.441-0.218,1.834-0.354c0.004-0.141,0.006-0.229,0.006-0.268c0-0.419-0.097-0.713-0.293-0.885
			c-0.262-0.232-0.652-0.349-1.17-0.349c-0.482,0-0.84,0.084-1.071,0.253c-0.229,0.17-0.401,0.471-0.511,0.902l-1.005-0.139
			c0.091-0.43,0.241-0.779,0.45-1.044c0.209-0.264,0.513-0.468,0.907-0.609c0.397-0.145,0.855-0.213,1.378-0.213
			c0.518,0,0.938,0.059,1.264,0.183c0.322,0.121,0.561,0.273,0.713,0.457c0.152,0.186,0.26,0.418,0.32,0.702
			c0.034,0.173,0.051,0.489,0.051,0.946v1.372c0,0.955,0.022,1.56,0.066,1.814c0.045,0.251,0.131,0.495,0.26,0.728h-1.074
			C319.596,461.329,319.528,461.077,319.496,460.793z M319.411,458.496c-0.373,0.152-0.934,0.283-1.681,0.387
			c-0.421,0.063-0.722,0.132-0.896,0.207c-0.176,0.078-0.311,0.189-0.407,0.336c-0.095,0.146-0.142,0.307-0.142,0.486
			c0,0.274,0.104,0.502,0.311,0.687c0.208,0.182,0.512,0.273,0.912,0.273c0.396,0,0.747-0.086,1.057-0.258
			c0.308-0.173,0.534-0.412,0.68-0.713c0.111-0.23,0.166-0.573,0.166-1.026V458.496z"/>
		<path fill="#1A171B" d="M323.731,461.541l-2.308-6.065h1.085l1.302,3.63c0.141,0.396,0.271,0.804,0.39,1.225
			c0.091-0.32,0.219-0.705,0.382-1.152l1.348-3.702h1.058l-2.296,6.065H323.731z"/>
		<path fill="#1A171B" d="M331.854,460.793c-0.38,0.324-0.747,0.552-1.1,0.686s-0.729,0.199-1.133,0.199
			c-0.668,0-1.181-0.162-1.538-0.49c-0.357-0.323-0.537-0.74-0.537-1.246c0-0.298,0.067-0.568,0.203-0.813
			c0.135-0.247,0.312-0.442,0.531-0.59c0.219-0.15,0.466-0.262,0.739-0.34c0.203-0.053,0.507-0.104,0.915-0.154
			c0.83-0.097,1.44-0.218,1.834-0.354c0.003-0.141,0.005-0.229,0.005-0.268c0-0.419-0.097-0.713-0.292-0.885
			c-0.262-0.232-0.653-0.349-1.17-0.349c-0.483,0-0.841,0.084-1.071,0.253c-0.229,0.17-0.401,0.471-0.511,0.902l-1.005-0.139
			c0.091-0.43,0.241-0.779,0.45-1.044c0.209-0.264,0.513-0.468,0.907-0.609c0.396-0.145,0.855-0.213,1.377-0.213
			c0.519,0,0.939,0.059,1.264,0.183c0.323,0.121,0.562,0.273,0.714,0.457c0.151,0.186,0.259,0.418,0.319,0.702
			c0.034,0.173,0.051,0.489,0.051,0.946v1.372c0,0.955,0.022,1.56,0.067,1.814c0.044,0.251,0.13,0.495,0.259,0.728h-1.074
			C331.953,461.329,331.885,461.077,331.854,460.793z M331.769,458.496c-0.373,0.152-0.934,0.283-1.681,0.387
			c-0.421,0.063-0.722,0.132-0.896,0.207c-0.175,0.078-0.311,0.189-0.406,0.336c-0.095,0.146-0.142,0.307-0.142,0.486
			c0,0.274,0.104,0.502,0.312,0.687c0.207,0.182,0.511,0.273,0.91,0.273c0.396,0,0.748-0.086,1.058-0.258
			c0.307-0.173,0.534-0.412,0.68-0.713c0.11-0.23,0.166-0.573,0.166-1.026V458.496z"/>
		<path fill="#1A171B" d="M338.377,461.541v-0.892c-0.472,0.686-1.113,1.028-1.924,1.028c-0.357,0-0.692-0.068-1.003-0.205
			c-0.31-0.138-0.541-0.311-0.691-0.516c-0.15-0.209-0.256-0.464-0.316-0.765c-0.042-0.202-0.063-0.521-0.063-0.959v-3.758h1.028
			v3.362c0,0.538,0.021,0.901,0.063,1.087c0.065,0.271,0.202,0.484,0.411,0.637c0.209,0.153,0.469,0.231,0.776,0.231
			c0.309,0,0.598-0.078,0.869-0.237c0.271-0.157,0.462-0.373,0.573-0.646c0.114-0.271,0.168-0.667,0.168-1.186v-3.248h1.028v6.065
			H338.377z"/>
		<path fill="#1A171B" d="M340.222,461.541l2.217-3.153l-2.05-2.912h1.286l0.93,1.421c0.174,0.271,0.316,0.498,0.422,0.682
			c0.168-0.255,0.322-0.477,0.463-0.669l1.024-1.434h1.228l-2.097,2.854l2.257,3.212h-1.263l-1.245-1.887l-0.333-0.506l-1.593,2.393
			H340.222z"/>
		<path fill="#1A171B" d="M346.36,459.027v-1.034h3.157v1.034H346.36z"/>
		<path fill="#1A171B" d="M316.63,469.16c0-1.387,0.374-2.479,1.119-3.265c0.748-0.786,1.711-1.178,2.893-1.178
			c0.772,0,1.47,0.186,2.09,0.554c0.622,0.369,1.095,0.885,1.42,1.545c0.327,0.662,0.49,1.41,0.49,2.249
			c0,0.849-0.174,1.609-0.516,2.278c-0.344,0.67-0.828,1.179-1.457,1.521c-0.628,0.347-1.306,0.519-2.033,0.519
			c-0.789,0-1.494-0.192-2.113-0.571c-0.621-0.382-1.093-0.901-1.412-1.56C316.79,470.594,316.63,469.897,316.63,469.16z
			 M317.773,469.179c0,1.009,0.273,1.803,0.814,2.384c0.544,0.581,1.225,0.871,2.043,0.871c0.835,0,1.521-0.293,2.059-0.877
			c0.539-0.589,0.811-1.42,0.811-2.497c0-0.683-0.116-1.276-0.346-1.786c-0.23-0.51-0.568-0.9-1.013-1.183
			c-0.444-0.28-0.941-0.42-1.493-0.42c-0.785,0-1.46,0.271-2.025,0.809C318.057,467.019,317.773,467.92,317.773,469.179z"/>
		<path fill="#1A171B" d="M325.928,473.24v-6.065h0.924v0.917c0.236-0.43,0.455-0.715,0.654-0.852
			c0.2-0.137,0.419-0.202,0.661-0.202c0.346,0,0.698,0.108,1.056,0.329l-0.354,0.954c-0.251-0.147-0.503-0.222-0.754-0.222
			c-0.226,0-0.426,0.068-0.605,0.202c-0.18,0.137-0.308,0.323-0.384,0.563c-0.114,0.366-0.17,0.766-0.17,1.198v3.177H325.928z"/>
		<path fill="#1A171B" d="M329.449,470.207c0-1.122,0.312-1.954,0.937-2.496c0.523-0.45,1.157-0.673,1.908-0.673
			c0.834,0,1.517,0.271,2.046,0.819c0.528,0.545,0.793,1.299,0.793,2.262c0,0.783-0.116,1.397-0.351,1.845s-0.575,0.794-1.022,1.041
			c-0.447,0.248-0.937,0.372-1.466,0.372c-0.849,0-1.535-0.271-2.06-0.816C329.711,472.017,329.449,471.233,329.449,470.207z
			 M330.507,470.207c0,0.778,0.168,1.359,0.508,1.744c0.339,0.389,0.766,0.581,1.279,0.581c0.512,0,0.936-0.192,1.275-0.584
			c0.337-0.386,0.508-0.98,0.508-1.776c0-0.751-0.171-1.319-0.511-1.703c-0.342-0.39-0.766-0.582-1.272-0.582
			c-0.514,0-0.94,0.192-1.279,0.577C330.675,468.85,330.507,469.432,330.507,470.207z"/>
		<path fill="#1A171B" d="M336.339,473.24v-6.065h0.927v0.862c0.444-0.666,1.089-0.999,1.929-0.999c0.366,0,0.703,0.065,1.009,0.195
			c0.308,0.131,0.538,0.305,0.689,0.517c0.151,0.216,0.26,0.466,0.319,0.761c0.038,0.188,0.057,0.521,0.057,0.999v3.73h-1.028
			v-3.688c0-0.422-0.04-0.735-0.118-0.94c-0.081-0.21-0.221-0.376-0.426-0.5c-0.204-0.124-0.441-0.187-0.717-0.187
			c-0.438,0-0.816,0.141-1.135,0.419c-0.317,0.276-0.478,0.806-0.478,1.582v3.313H336.339z"/>
	</g>
	<g display="inline">
		<path fill="#1A171B" d="M349.123,339.297v-11.964h4.487c0.914,0,1.646,0.121,2.2,0.362c0.552,0.242,0.984,0.617,1.295,1.12
			c0.313,0.503,0.471,1.029,0.471,1.577c0,0.512-0.137,0.996-0.416,1.446c-0.276,0.45-0.697,0.816-1.257,1.093
			c0.724,0.212,1.279,0.575,1.67,1.084c0.389,0.513,0.584,1.117,0.584,1.814c0,0.559-0.12,1.081-0.356,1.561
			c-0.236,0.484-0.53,0.855-0.877,1.117c-0.348,0.261-0.785,0.457-1.308,0.591c-0.527,0.134-1.17,0.199-1.932,0.199H349.123z
			 M350.704,332.36h2.588c0.703,0,1.204-0.045,1.509-0.14c0.404-0.118,0.707-0.316,0.912-0.594c0.202-0.278,0.305-0.627,0.305-1.045
			c0-0.398-0.094-0.747-0.285-1.047c-0.19-0.304-0.461-0.509-0.816-0.621c-0.354-0.11-0.96-0.166-1.818-0.166h-2.394V332.36z
			 M350.704,337.887h2.98c0.51,0,0.868-0.02,1.076-0.059c0.365-0.065,0.67-0.172,0.915-0.326c0.245-0.153,0.444-0.375,0.604-0.666
			c0.158-0.291,0.236-0.627,0.236-1.006c0-0.446-0.113-0.835-0.342-1.165c-0.229-0.33-0.547-0.559-0.951-0.691
			c-0.406-0.134-0.988-0.2-1.751-0.2h-2.768V337.887z"/>
		<path fill="#1A171B" d="M360.131,339.297v-8.667h1.322v1.315c0.338-0.617,0.648-1.021,0.935-1.217
			c0.285-0.196,0.6-0.294,0.942-0.294c0.495,0,0.999,0.157,1.511,0.474l-0.508,1.364c-0.358-0.215-0.718-0.32-1.076-0.32
			c-0.322,0-0.61,0.099-0.865,0.291c-0.256,0.193-0.438,0.461-0.547,0.804c-0.164,0.522-0.245,1.093-0.245,1.713v4.538H360.131z"/>
		<path fill="#1A171B" d="M365.165,334.962c0-1.603,0.447-2.791,1.339-3.564c0.747-0.643,1.654-0.963,2.727-0.963
			c1.191,0,2.165,0.392,2.922,1.172c0.756,0.78,1.135,1.856,1.135,3.235c0,1.116-0.168,1.991-0.501,2.631
			c-0.336,0.64-0.823,1.136-1.463,1.491c-0.639,0.353-1.338,0.529-2.093,0.529c-1.214,0-2.193-0.389-2.941-1.169
			C365.54,337.547,365.165,336.428,365.165,334.962z M366.675,334.962c0,1.11,0.242,1.942,0.727,2.494
			c0.486,0.552,1.094,0.829,1.829,0.829c0.729,0,1.335-0.277,1.82-0.833c0.484-0.555,0.727-1.4,0.727-2.536
			c0-1.074-0.245-1.887-0.732-2.438c-0.486-0.551-1.091-0.826-1.814-0.826c-0.735,0-1.343,0.274-1.829,0.823
			C366.917,333.023,366.675,333.853,366.675,334.962z"/>
		<path fill="#1A171B" d="M374.943,342.633l-0.162-1.377c0.322,0.088,0.602,0.13,0.841,0.13c0.326,0,0.587-0.056,0.783-0.163
			s0.355-0.261,0.481-0.457c0.093-0.147,0.242-0.512,0.448-1.093c0.027-0.082,0.07-0.202,0.13-0.359l-3.287-8.684h1.584l1.803,5.018
			c0.233,0.64,0.443,1.306,0.627,2.011c0.168-0.676,0.37-1.335,0.604-1.978l1.854-5.05h1.469l-3.296,8.814
			c-0.355,0.954-0.63,1.609-0.825,1.968c-0.261,0.483-0.56,0.839-0.897,1.064c-0.338,0.225-0.739,0.34-1.208,0.34
			C375.607,342.816,375.29,342.754,374.943,342.633z"/>
		<path fill="#1A171B" d="M389.298,336.506l1.519,0.186c-0.24,0.888-0.684,1.577-1.33,2.067c-0.648,0.489-1.475,0.734-2.481,0.734
			c-1.268,0-2.273-0.392-3.014-1.172c-0.745-0.78-1.116-1.873-1.116-3.283c0-1.459,0.375-2.589,1.127-3.395
			c0.751-0.807,1.726-1.208,2.92-1.208c1.16,0,2.107,0.395,2.841,1.185c0.735,0.787,1.103,1.896,1.103,3.33
			c0,0.085-0.003,0.215-0.009,0.392h-6.464c0.054,0.95,0.324,1.678,0.809,2.188c0.484,0.503,1.089,0.757,1.812,0.757
			c0.538,0,0.998-0.14,1.379-0.424C388.773,337.577,389.074,337.126,389.298,336.506z M384.475,334.133h4.841
			c-0.065-0.731-0.251-1.276-0.556-1.642c-0.469-0.564-1.074-0.849-1.82-0.849c-0.674,0-1.242,0.225-1.702,0.676
			C384.779,332.772,384.524,333.376,384.475,334.133z"/>
		<path fill="#1A171B" d="M392.09,335.707v-1.475h4.513v1.475H392.09z"/>
		<path fill="#1A171B" d="M359.416,356.011l-4.635-11.964h1.714l3.109,8.692c0.249,0.695,0.46,1.348,0.628,1.958
			c0.184-0.653,0.4-1.305,0.646-1.958l3.23-8.692h1.615l-4.684,11.964H359.416z"/>
		<path fill="#1A171B" d="M372.017,356.011v-1.273c-0.675,0.979-1.593,1.469-2.75,1.469c-0.512,0-0.99-0.098-1.434-0.294
			c-0.442-0.196-0.771-0.441-0.985-0.738c-0.215-0.297-0.367-0.659-0.454-1.09c-0.061-0.287-0.089-0.744-0.089-1.371v-5.369h1.468
			v4.808c0,0.764,0.031,1.283,0.091,1.548c0.093,0.388,0.288,0.691,0.587,0.91c0.299,0.222,0.669,0.33,1.111,0.33
			c0.438,0,0.852-0.111,1.239-0.336c0.387-0.225,0.659-0.535,0.82-0.923s0.24-0.953,0.24-1.691v-4.645h1.469v8.667H372.017z"/>
		<path fill="#1A171B" d="M375.6,356.011v-11.964h1.469v11.964H375.6z"/>
		<path fill="#1A171B" d="M379.313,356.011v-11.964h1.469v11.964H379.313z"/>
		<path fill="#1A171B" d="M382.993,359.347l-0.163-1.377c0.32,0.087,0.6,0.13,0.84,0.13c0.326,0,0.589-0.056,0.784-0.163
			c0.194-0.108,0.355-0.261,0.481-0.458c0.092-0.146,0.24-0.513,0.448-1.093c0.028-0.082,0.071-0.203,0.131-0.36l-3.289-8.683h1.583
			l1.803,5.017c0.234,0.641,0.444,1.306,0.63,2.011c0.168-0.676,0.37-1.335,0.604-1.979l1.852-5.049h1.47l-3.298,8.813
			c-0.354,0.953-0.628,1.609-0.824,1.969c-0.261,0.483-0.559,0.839-0.897,1.064c-0.338,0.225-0.739,0.339-1.208,0.339
			C383.657,359.529,383.341,359.468,382.993,359.347z"/>
	</g>
	<g display="inline">
		<path fill="#1A171B" d="M249.504,396.978v-1.403l5.068-0.007v4.44c-0.779,0.62-1.58,1.087-2.408,1.4s-1.676,0.467-2.546,0.467
			c-1.175,0-2.242-0.252-3.202-0.755c-0.961-0.503-1.686-1.231-2.176-2.184c-0.489-0.95-0.734-2.014-0.734-3.189
			c0-1.166,0.243-2.252,0.729-3.261c0.488-1.008,1.188-1.756,2.103-2.246c0.914-0.489,1.967-0.738,3.158-0.738
			c0.865,0,1.647,0.141,2.346,0.421c0.7,0.281,1.249,0.672,1.645,1.172c0.396,0.499,0.698,1.152,0.905,1.958l-1.428,0.392
			c-0.18-0.611-0.403-1.088-0.669-1.437c-0.266-0.349-0.648-0.627-1.143-0.835c-0.494-0.209-1.044-0.313-1.648-0.313
			c-0.723,0-1.35,0.106-1.877,0.329c-0.527,0.22-0.953,0.51-1.276,0.869c-0.325,0.359-0.576,0.753-0.756,1.185
			c-0.305,0.738-0.457,1.54-0.457,2.405c0,1.068,0.185,1.96,0.55,2.678c0.369,0.718,0.902,1.249,1.605,1.6
			c0.701,0.349,1.447,0.521,2.235,0.521c0.686,0,1.355-0.13,2.008-0.395c0.653-0.265,1.147-0.546,1.485-0.846v-2.229H249.504z"/>
		<path fill="#1A171B" d="M256.702,401.673v-8.668h1.322v1.316c0.338-0.617,0.648-1.023,0.936-1.218
			c0.284-0.195,0.599-0.293,0.942-0.293c0.494,0,0.999,0.157,1.51,0.473l-0.506,1.365c-0.359-0.215-0.718-0.321-1.077-0.321
			c-0.322,0-0.609,0.099-0.866,0.291c-0.256,0.194-0.437,0.462-0.547,0.804c-0.163,0.522-0.244,1.094-0.244,1.713v4.539H256.702z"/>
		<path fill="#1A171B" d="M261.737,397.337c0-1.602,0.446-2.79,1.338-3.563c0.746-0.644,1.653-0.963,2.726-0.963
			c1.191,0,2.166,0.392,2.922,1.172c0.755,0.779,1.134,1.856,1.134,3.233c0,1.117-0.168,1.992-0.501,2.633
			c-0.336,0.64-0.822,1.135-1.462,1.491c-0.638,0.352-1.337,0.528-2.093,0.528c-1.213,0-2.193-0.389-2.941-1.168
			C262.111,399.922,261.737,398.803,261.737,397.337z M263.247,397.337c0,1.11,0.241,1.943,0.726,2.495
			c0.484,0.551,1.093,0.829,1.828,0.829c0.729,0,1.335-0.277,1.82-0.832c0.485-0.556,0.727-1.4,0.727-2.537
			c0-1.074-0.243-1.886-0.731-2.438c-0.486-0.551-1.092-0.825-1.815-0.825c-0.734,0-1.343,0.273-1.828,0.822
			C263.489,395.398,263.247,396.228,263.247,397.337z"/>
		<path fill="#1A171B" d="M270.992,399.088l1.452-0.229c0.082,0.581,0.308,1.025,0.681,1.339c0.374,0.307,0.895,0.463,1.563,0.463
			c0.674,0,1.175-0.137,1.502-0.41c0.326-0.275,0.489-0.598,0.489-0.967c0-0.333-0.144-0.594-0.432-0.784
			c-0.201-0.129-0.702-0.296-1.502-0.5c-1.077-0.271-1.823-0.506-2.241-0.704c-0.415-0.199-0.731-0.475-0.947-0.826
			c-0.213-0.351-0.322-0.738-0.322-1.163c0-0.384,0.088-0.745,0.266-1.074c0.176-0.331,0.416-0.601,0.722-0.819
			c0.229-0.169,0.54-0.311,0.934-0.429c0.395-0.117,0.818-0.175,1.27-0.175c0.68,0,1.276,0.099,1.792,0.293
			c0.512,0.195,0.893,0.46,1.137,0.796c0.245,0.333,0.413,0.781,0.507,1.342l-1.437,0.197c-0.066-0.447-0.255-0.793-0.566-1.046
			c-0.313-0.25-0.756-0.375-1.328-0.375c-0.674,0-1.155,0.111-1.444,0.336c-0.289,0.222-0.432,0.483-0.432,0.783
			c0,0.189,0.061,0.359,0.179,0.512c0.119,0.156,0.307,0.288,0.563,0.393c0.146,0.054,0.579,0.179,1.297,0.375
			c1.04,0.278,1.765,0.506,2.175,0.682c0.41,0.177,0.734,0.435,0.966,0.771c0.234,0.336,0.352,0.756,0.352,1.256
			c0,0.49-0.143,0.95-0.43,1.384c-0.284,0.43-0.696,0.767-1.236,1.001c-0.538,0.239-1.147,0.356-1.828,0.356
			c-1.126,0-1.985-0.235-2.574-0.702C271.531,400.7,271.155,400.005,270.992,399.088z"/>
		<path fill="#1A171B" d="M279.365,398.082v-1.476h4.513v1.476H279.365z"/>
		<path fill="#1A171B" d="M291.124,401.673v-1.094c-0.55,0.859-1.357,1.289-2.424,1.289c-0.69,0-1.327-0.189-1.904-0.571
			c-0.581-0.381-1.028-0.914-1.348-1.597c-0.317-0.681-0.477-1.464-0.477-2.353c0-0.865,0.143-1.648,0.432-2.353
			s0.722-1.248,1.298-1.62c0.576-0.379,1.221-0.564,1.935-0.564c0.521,0,0.986,0.111,1.395,0.329c0.408,0.222,0.74,0.51,0.996,0.862
			v-4.292h1.461v11.964H291.124z M286.481,397.347c0,1.11,0.233,1.938,0.702,2.491c0.469,0.548,1.02,0.822,1.656,0.822
			c0.643,0,1.188-0.26,1.636-0.786c0.45-0.525,0.675-1.329,0.675-2.406c0-1.185-0.229-2.057-0.687-2.611
			c-0.456-0.556-1.02-0.829-1.689-0.829c-0.652,0-1.198,0.263-1.635,0.796C286.7,395.36,286.481,396.199,286.481,397.347z"/>
		<path fill="#1A171B" d="M300.73,398.881l1.518,0.187c-0.24,0.887-0.682,1.577-1.33,2.065c-0.647,0.49-1.474,0.735-2.48,0.735
			c-1.269,0-2.273-0.392-3.016-1.172c-0.744-0.779-1.114-1.873-1.114-3.283c0-1.458,0.376-2.588,1.126-3.395
			c0.752-0.806,1.727-1.208,2.922-1.208c1.158,0,2.105,0.395,2.84,1.186c0.734,0.786,1.102,1.896,1.102,3.329
			c0,0.085-0.003,0.215-0.008,0.392h-6.463c0.054,0.95,0.322,1.678,0.808,2.188c0.484,0.503,1.089,0.756,1.812,0.756
			c0.539,0,0.999-0.139,1.379-0.424C300.204,399.953,300.506,399.502,300.73,398.881z M295.907,396.508h4.839
			c-0.065-0.731-0.25-1.276-0.555-1.643c-0.469-0.564-1.074-0.848-1.821-0.848c-0.673,0-1.241,0.225-1.701,0.675
			C296.21,395.148,295.956,395.752,295.907,396.508z"/>
		<path fill="#1A171B" d="M303.521,398.082v-1.476h4.514v1.476H303.521z"/>
		<path fill="#1A171B" d="M313.265,401.673l-4.635-11.964h1.713l3.109,8.692c0.25,0.695,0.461,1.349,0.629,1.958
			c0.185-0.652,0.399-1.305,0.645-1.958l3.231-8.692h1.616l-4.685,11.964H313.265z"/>
		<path fill="#1A171B" d="M325.22,400.602c-0.543,0.463-1.066,0.791-1.569,0.979c-0.505,0.194-1.045,0.288-1.621,0.288
			c-0.951,0-1.685-0.232-2.194-0.698c-0.512-0.464-0.768-1.059-0.768-1.784c0-0.423,0.096-0.812,0.291-1.161
			c0.191-0.354,0.445-0.634,0.757-0.846c0.313-0.212,0.665-0.372,1.058-0.48c0.289-0.079,0.723-0.149,1.305-0.222
			c1.188-0.14,2.061-0.309,2.62-0.506c0.005-0.202,0.009-0.329,0.009-0.382c0-0.601-0.139-1.021-0.416-1.266
			c-0.376-0.333-0.934-0.496-1.674-0.496c-0.689,0-1.201,0.12-1.531,0.362c-0.328,0.242-0.57,0.669-0.729,1.283l-1.437-0.197
			c0.13-0.614,0.347-1.109,0.645-1.488s0.731-0.669,1.298-0.872c0.566-0.206,1.221-0.307,1.967-0.307
			c0.739,0,1.341,0.088,1.804,0.261c0.461,0.174,0.803,0.392,1.02,0.657c0.218,0.264,0.37,0.597,0.457,0.999
			c0.05,0.251,0.073,0.705,0.073,1.357v1.958c0,1.365,0.031,2.227,0.093,2.59c0.064,0.362,0.188,0.708,0.373,1.042h-1.534
			C325.363,401.37,325.265,401.014,325.22,400.602z M325.098,397.324c-0.533,0.215-1.333,0.402-2.399,0.556
			c-0.604,0.084-1.031,0.182-1.281,0.293c-0.25,0.108-0.443,0.268-0.579,0.477c-0.136,0.208-0.204,0.44-0.204,0.698
			c0,0.392,0.148,0.718,0.444,0.979c0.297,0.262,0.731,0.393,1.302,0.393c0.566,0,1.07-0.125,1.511-0.373
			c0.44-0.248,0.764-0.587,0.971-1.019c0.158-0.329,0.236-0.819,0.236-1.469V397.324z"/>
		<path fill="#1A171B" d="M334.54,401.673V400.4c-0.674,0.979-1.592,1.468-2.75,1.468c-0.511,0-0.989-0.098-1.434-0.293
			c-0.442-0.196-0.771-0.441-0.985-0.738c-0.215-0.298-0.367-0.659-0.454-1.09c-0.061-0.288-0.09-0.745-0.09-1.372v-5.37h1.469
			v4.809c0,0.763,0.03,1.282,0.09,1.547c0.094,0.389,0.289,0.692,0.588,0.912c0.299,0.221,0.669,0.329,1.11,0.329
			c0.44,0,0.854-0.111,1.24-0.336c0.387-0.225,0.659-0.535,0.819-0.924c0.162-0.387,0.241-0.953,0.241-1.691v-4.645h1.469v8.668
			H334.54z"/>
		<path fill="#1A171B" d="M343.779,401.673v-1.094c-0.55,0.859-1.358,1.289-2.424,1.289c-0.689,0-1.328-0.189-1.904-0.571
			c-0.582-0.381-1.029-0.914-1.35-1.597c-0.315-0.681-0.476-1.464-0.476-2.353c0-0.865,0.144-1.648,0.433-2.353
			c0.288-0.705,0.721-1.248,1.297-1.62c0.577-0.379,1.222-0.564,1.935-0.564c0.522,0,0.988,0.111,1.396,0.329
			c0.407,0.222,0.739,0.51,0.996,0.862v-4.292h1.46v11.964H343.779z M339.135,397.347c0,1.11,0.233,1.938,0.701,2.491
			c0.47,0.548,1.02,0.822,1.658,0.822c0.641,0,1.188-0.26,1.635-0.786c0.45-0.525,0.674-1.329,0.674-2.406
			c0-1.185-0.229-2.057-0.686-2.611c-0.457-0.556-1.02-0.829-1.688-0.829c-0.652,0-1.2,0.263-1.636,0.796
			C339.355,395.36,339.135,396.199,339.135,397.347z"/>
	</g>
</g>
</svg>
