<?xml version="1.0" encoding="utf-8"?>
<!-- Generator: Adobe Illustrator 16.0.0, SVG Export Plug-In . SVG Version: 6.00 Build 0)  -->
<!DOCTYPE svg PUBLIC "-//W3C//DTD SVG 1.1//EN" "http://www.w3.org/Graphics/SVG/1.1/DTD/svg11.dtd">
<svg version="1.1" id="Calque_1" xmlns="http://www.w3.org/2000/svg" xmlns:xlink="http://www.w3.org/1999/xlink" x="0px" y="0px"
	 width="595.279px" height="396.85px" viewBox="-0.004 222.52 595.279 396.85"
	 enable-background="new -0.004 222.52 595.279 396.85" xml:space="preserve">
<path id="_x32_311" fill="#999999" d="M321.289,474.267l-2.383-3.857L320.01,466l2.02-4.963l-4.039-3.495l-2.207-2.938l1.103-3.306
	l0.556-13.409l0.733-3.86l-5.327-6.615l0.181-2.938l-7.529-2.022l-8.822-10.106l0.37-3.121l-5.512,1.102l-2.023-7.35l-3.492-2.204
	l-4.225-12.313l7.165-4.042l0.183-9.186l-4.228-2.024l0.367-5.144l3.676-1.471l2.387-4.227l-4.776,0.551l-3.821-2.121l-1.89,2.599
	l-10.066,1.885l-7.316,3.068l-2.595-7.785l-6.528,4.481l-7.001,6.223l-8.411,3.908l4.819,3.729c4.229,4.229,6.434,10.843,3.858,15.8
	l-1.729,3.322c-1.6,3.105-2.676,5.529-3.232,8.992c-0.733,4.59-2.021,7.716-3.674,9.922c-1.028,1.371-1.346,2.383-1.219,3.448
	c0.079,0.642,0.32,1.3,0.671,2.063c0.917,2.022,2.718,5.622,2.718,5.622c1.312-0.569,2.701-1.465,4.815-2.681
	c0.964-0.554,2.625-1.444,4.7-2.526l1.18,6.2l3.307,3.854l5.328,1.291l4.409,8.818l3.491,1.287l6.613-1.837l-0.369,3.677
	l2.027,2.571l-4.409,4.228l-1.103,9.555l0.732,4.593l-1.469,4.409l3.854,3.49l4.042,7.718l3.496,7.902l8.08,8.818l0.735,5.512
	l4.41,4.966l5.144,3.675v4.961l2.204,5.145l2.755-0.92l3.127,3.495l11.938-5.515l3.308-6.432l7.532-11.758l3.49-10.472l-0.432-5.619
	l-7.284-2.833L321.289,474.267z"/>
<path id="ofsnbr2313" fill="#666666" d="M434.635,486.223l4.305,5.987l-4.412,13.961l2.938,11.516l-4.409,4.166l-2.203,10.778
	l-7.351,8.329l-21.555-0.735l-5.146,1.96l-7.839,9.554l-3.92,15.921l2.94,6.858l-4.165,2.939l-15.435-3.677l-5.388,4.657
	l-12.249-10.535l-5.142,0.492l-3.184,5.634h-6.858l-2.696-4.41l0.858-7.349l-9.677-4.166l-6.859-7.593l-8.328,2.691l-9.062,0.248
	l-7.351-1.961l-2.694-5.879l7.285-7.593l2.937-5.878l0.557-4.777l1.836-3.674l2.755-0.921l3.126,3.494l11.938-5.513l3.31-6.433
	l7.53-11.757l3.49-10.472l-0.432-5.619l3.008-3.008h6.021l-1.506-17.299l-0.25-15.801l5.015-5.012l2.509-7.024l8.022-1.504
	l2.76-10.78l7.773-2.011l5.767-4.512l3.514-4.26l0.499-5.269l-4.767-1.253l3.009-12.789l9.779-1.756l12.041,2.006l0.666,3.997
	c1.751-0.04,3.464-0.244,5.144-0.654l1.462,6.688l7.27,9.528l10.032-1.001l-1.252,4.512l1.504,5.765l-1.504,8.278l0.5,6.519
	l3.51,4.264l-0.752,8.777l1.505,5.768l3.51,3.258l-0.755,5.521l3.511,11.782L434.635,486.223z M379.972,361.851l0.754,5.012
	l-1.756,6.522l8.776,8.021l8.521-14.041l1.762-19.307l-6.773-2.26l-13.042,8.526L379.972,361.851z"/>
<path id="ofsnbr2302" fill="#999999" d="M185.884,453.294c0,0,0.002,1.866,0,1.866l2.386,5.877l5.145,2.938l5.327,1.289
	l-0.182,12.861l-1.287,3.493l-3.125,3.308l0.735,7.528l7.168,9.923l5.88-1.29l6.428,8.453l4.777,0.553l0.183-5.145l2.383-2.938
	l-1.101-6.434l-0.733-12.676l-2.574-4.039l-0.182-2.76l7.349-18.926l-2.938-4.776l-4.593-3.126l-5.88-0.735l2.193-8.144
	c-3.545,0.835-5.81,1.659-7.966,2.525l-3.045-5.581l3.306-3.492l-1.102-7.9l0.554-3.859l2.385-4.409l3.858-8.635l-0.367-9.187
	l-4.777-1.102l-3.495-4.409l-10.105,0.369l-16.352,1.469l-5.205-2.773l-5.076,5.077l-0.941,6.761l-0.709,8.023l-12.66,14.784
	l-4.189,1.396l6.551,9.728l7.165,5.146l15.802,3.677l0.26,8.491c2.289-0.024,4.167-0.479,6.462-1.884
	C184.268,454.2,185.037,453.759,185.884,453.294z"/>
<path id="ofsnbr2312" fill="#666666" d="M237.763,420.393l-5.764,0.776l-0.367-6.429l1.836-5.511l-2.205-4.041l0.369-10.656
	l-3.854-3.675l1.102-5.513l-6.617-3.123l-2.281-5.208l-12.662,3.773l-4.015-5.11l1.891-9.204l-8.497,1.415l-8.493,7.782
	c2.479,7.952-1.271,11.862-11.249,11.722l-6.016,6.014l5.205,2.777l16.352-1.471l10.105-0.368l3.494,4.408l4.777,1.103l0.367,9.187
	l-3.858,8.639l-2.384,4.408l-0.555,3.855l1.102,7.904l-3.306,3.489l3.045,5.584c2.158-0.866,4.423-1.69,7.966-2.525l-2.193,8.147
	l5.879,0.733l5.144-2.385l-0.915-3.677l6.06-5.145l9.553-3.674l4.372-6.316c0,0-1.8-3.605-2.719-5.628
	C238.085,421.692,237.842,421.035,237.763,420.393z"/>
<path id="ofsnbr2308" fill="#7F7F7F" d="M64.441,473.349l9.002-4.409l8.265-5.694l1.102-2.206l3.676-1.102l0.918-4.776l-1.654-3.493
	l0.736-6.796l9.372-12.677l1.524-13.166c-2.705-4.254-5.327-7.181-8.088-11.703c-4.042-6.616-6.111-10.224-7.028-16.47
	c-0.924-6.247-2.389-6.982-6.434-8.637c-4.76-1.947-7.435-4.696-6.06-10.471c0.916-3.857,0.367-5.144-3.125-8.637
	c-3.485-3.493-7.527-7.717-7.527-7.717c-0.546,0.087-0.369,1.102-1.102,2.205c-0.735,1.104-3.125,0.368-6.246,0.368
	c-3.126,0-5.895-0.486-8.69-1.679l0.976,5.845l-10.78,7.349l-1.475,4.652l5.146,9.798l9.553,8.083l7.838,11.028l4.9,5.143v12.003
	l-5.633,1.958l-5.88,8.082l-6.857,13.479l0.735,12.246l-4.412,6.369l2.695,12.984l5.389,2.448h6.858l6.43-4.967L64.441,473.349z"/>
<path id="ofsnbr2307" fill="#7F7F7F" d="M121.12,474.775c-3.307,2.755-4.741,5.919-7.07,9.414c-1.469,2.203-4.219,4.403-7.349,7.529
	c-1.65,1.649-2.572,3.12-3.306,5.512c-0.735,2.39-6.502,5.627-8.463,8.568c-0.413,0.622-4.415,5.488-7.343,9.125l4.384,6.738
	l8.177,15.869l4.654,2.201l5.878,7.838l7.96-3.492l-2.204-4.411l-0.734-8.818l2.571-4.041l17.272-16.169l3.491,0.735l-0.735-15.066
	l13.048-6.431l2.382-4.409l15.434-0.183l9.372-4.227l5.146,2.757l6.247,8.08l4.96,0.556l-0.733-7.528l3.123-3.306l1.286-3.496
	l0.182-12.86l-5.327-1.287l-5.144-2.94l-2.386-5.877v-1.868c-0.848,0.468-1.617,0.912-2.275,1.311
	c-2.291,1.402-4.176,1.86-6.458,1.886c0,0-0.268-8.493-0.266-8.493l-15.8-3.677l-7.167-5.145l-6.55-9.727l-2.183,0.728l-2.599,6.603
	l-12.19,10.778l1.105,4.844l-0.735,6.613l0.369,7.35l-2.026,4.775l-1.285,3.854l0.419,6.969c-0.8-0.411-1.531-1.04-2.256-1.823
	C124.608,478.659,122.783,476.892,121.12,474.775z"/>
<path id="ofsnbr2310" fill="#999999" d="M97.384,419.028l-1.524,13.167l-9.372,12.677l-0.735,6.796l1.653,3.493l-0.918,4.776
	l-3.676,1.102l-1.102,2.206l-8.265,5.694l-9.002,4.411l-5.878-0.554l-6.43,4.962l20.208,4.167l-4.286,8.328l-0.977,12.983
	l-4.901,11.268l6.614,3.922l13.288-11.271l5.506,7.775c2.926-3.634,6.929-8.506,7.344-9.127c1.96-2.938,7.728-6.18,8.463-8.568
	c0.735-2.39,1.653-3.859,3.306-5.513c3.13-3.129,5.88-5.328,7.349-7.532c2.326-3.492,3.763-6.659,7.07-9.41
	c1.664,2.115,3.488,3.88,4.873,5.369c0.725,0.782,1.453,1.413,2.257,1.82l-0.421-6.965l1.285-3.854l2.026-4.777l-0.37-7.349
	l0.735-6.614l-1.105-4.843l-2.128-3.698l-13.594,7.933c-0.381-3.312-1.439-6.463-3.015-7.478c-4.634-2.978-5.146-4.592-6.248-8.265
	c-1.102-3.676-1.911-5.946-3.626-10.11C100.747,423.41,99.248,421.644,97.384,419.028z"/>
<path id="ofsnbr2304" fill="#666666" d="M483.576,370.387c0,0-1.797,8.264-1.799,8.264l11.79,17.29l6.37-13.963l9.555-5.145
	l2.327-6.002l8.452-2.206l8.817-9.553l-2.941-7.35l-4.405-2.573l0.9-6.516l9.568-2.856l11.761-10.84l5.128-1.516l-0.604-4.36
	l1.694-4.457l0.424-9.752l8.062,1.487l7.613-2.971l11.879-15.697l-5.193-4.25l-2.595,2.834l-10.535-7.077l2.123-3.699l-6.843-13.686
	l0.235-7.705l4.484-8.733v-11.086l-2.835-3.933l-4.955,0.471l-8.735,10.065l-2.827,14.791c-0.706,10.615-0.941,12.739-7.472,15.334
	c-4.236,1.683-6.842,3.384-8.499,6.139c-1.646,2.75-3.296,3.927-3.296,3.927l-7.708,4.723l-7.319,3.301l-18.562,3.301l-4.956,1.889
	l-3.539-6.373l-5.427,0.471l-10.301-7.073l-13.928-3.462l-3.302,1.103l-11.482-5.349l-4.717,0.467l-8.025,5.82l-6.998,1.892
	l-1.177,3.772c3.075,6.562,1.737,11.047-4.013,13.452l-3.537,1.654l-1.831,1.877l1.399,7.931l8.528,7.521l4.766,0.503l4.516,1.252
	l4.511-3.759l6.774-2.258l23.067,20.06l-5.268,9.529l5.016,3.258l4.255,12.886c5.327-1.091,12.062-4.969,12.559,3.15
	c0.123,2.018,2.864,6.775,7.705,4.467C482.667,370.858,483.121,370.628,483.576,370.387z"/>
<path id="ofsnbr2305" fill="#7F7F7F" d="M246.565,359.157l7.788,5.897l-7.001,6.223l-8.411,3.91l4.819,3.726
	c4.229,4.227,6.434,10.84,3.858,15.802l-1.729,3.321c-1.6,3.109-2.676,5.526-3.232,8.989c-0.735,4.592-2.021,7.715-3.674,9.922
	c-1.028,1.374-1.346,2.388-1.219,3.45l-5.764,0.777l-0.367-6.433l1.837-5.512l-2.207-4.041l0.369-10.657l-3.854-3.675l1.102-5.512
	l-6.617-3.12l-2.281-5.211l7.079-6.293L246.565,359.157z M299.977,532.14l0.554-4.777l1.838-3.674l-2.204-5.145v-4.961l-5.145-3.677
	l-4.41-4.964l-0.735-5.511l-8.079-8.819l-3.496-7.902l-4.042-7.72l-3.854-3.488l1.469-4.411l-0.732-4.591l1.103-9.555l4.409-4.228
	l-2.027-2.571l0.369-3.677l-6.615,1.838l-3.489-1.288l-4.411-8.816l-5.327-1.29l-3.307-3.854l-1.179-6.202
	c-2.078,1.082-3.736,1.975-4.7,2.525c-2.11,1.218-3.503,2.114-4.814,2.681l-4.372,6.319l-9.553,3.675l-6.062,5.145l0.917,3.675
	l-5.143,2.386l4.593,3.123l2.94,4.777l-7.35,18.923l0.18,2.759l2.574,4.043l0.733,12.676l1.101,6.431l-2.383,2.94l-0.183,5.144
	l1.838,11.76l4.592,11.757l4.041,2.206l1.649,3.494l6.434,5.695l1.652-1.473l5.512,0.55l5.878-0.55l5.511,2.574l2.758,4.96
	l3.515,4.729l-0.451,4.52l6.616-2.695l6.858,2.695l4.653-3.432v-8.818l4.9-2.449h4.654l7.284-7.593L299.977,532.14z"/>
<path id="ofsnbr2301" fill="#7F7F7F" d="M453.689,385.421l-15.674-6.866c-1.609,1.622-2.774,3.241-3.551,4.401
	c-1.184,1.774-2.217,2.79-3.936,3.83l-5.422-8.136l1.001-16.799l4.511-7.021l17.304-15.043l-9.277-9.278l-15.042-6.774l-4.516-1.251
	l-4.769-0.503l-3.763,3.009l-2.257,5.015l-17.053,15.796l6.773,2.258l-1.758,19.306l-8.521,14.043l0.248,7.021l-2.759,5.765
	l12.038,2.007l0.669,3.997c1.75-0.043,3.465-0.244,5.145-0.652l1.461,6.687l7.271,9.528l10.031-1.005l-1.253,4.514l1.505,5.772
	l-1.505,8.273l0.5,6.524l3.511,4.26l-0.752,8.775l1.505,5.769l3.509,3.257l-0.753,5.518l3.511,11.788l3.007,7.021l4.302,5.985
	l22.783-4.654l3.429-10.044l12.003-6.369l-2.449-7.595l5.39-9.308l-4.41-6.862l-5.757-14.452l-8.694-8.816l-8.819-7.35
	l19.598-18.373l-4.526-3.689L453.689,385.421z"/>
<polygon id="ofsnbr2303" fill="#666666" points="259.008,551.064 256.252,546.104 250.74,543.532 244.86,544.082 239.349,543.532 
	237.698,545.001 231.263,539.307 229.614,535.814 225.572,533.609 220.976,521.853 219.139,510.093 214.361,509.543 
	207.934,501.091 202.054,502.377 194.886,492.455 189.929,491.904 183.681,483.821 178.537,481.064 169.166,485.291 
	153.731,485.474 151.347,489.884 138.3,496.313 139.036,511.38 135.546,510.645 118.275,526.812 115.704,530.854 116.438,539.674 
	118.643,544.082 110.682,547.573 106.027,552.717 110.436,559.331 116.559,559.82 114.845,566.681 118.275,574.767 124.155,583.337 
	128.564,592.892 133.709,599.018 135.178,605.63 141.547,605.63 148.895,597.547 154.285,596.812 161.145,603.425 166.289,604.406 
	168.737,598.034 177.556,589.216 184.17,589.951 187.6,591.668 199.359,575.987 208.178,581.133 216.996,579.908 228.264,587.992 
	233.899,582.358 239.534,580.888 251.781,569.373 257.417,568.886 257.907,563.741 262.07,560.311 262.524,555.793 "/>
<path id="ofsnbr2309" fill="#999999" d="M483.576,370.387l-1.799,8.264l11.79,17.29l-16.292,7.226l-5.269-4.777l-4.527-3.689
	l-13.792-9.278l-15.674-6.866c-1.609,1.625-2.775,3.244-3.551,4.4c-1.185,1.777-2.217,2.79-3.936,3.832l-5.422-8.138l1.001-16.799
	l4.511-7.024l17.304-15.043l-9.278-9.275l-15.042-6.771l4.511-3.763l6.772-2.255l23.069,20.057l-5.27,9.529l5.018,3.261
	l4.255,12.883c5.327-1.092,12.062-4.969,12.559,3.152c0.124,2.015,2.864,6.773,7.705,4.463
	C482.667,370.858,483.121,370.628,483.576,370.387z M387.901,318.494l-13.879-0.026l-17.657,13.63l-23.992,15.811l-5.812,10.18
	l4.263,2.01l2.007,5.764l0.25,5.266l6.268-2.755l7.422,0.382c-0.109,4.653-0.068,9.668,0.061,11.819
	c0.181,3.12-0.184,6.06-1.654,7.899c-1.469,1.84-1.315,3.617,0.338,8.027l1.358,13.5l-5.265,2.007l4.766,14.04l-3.511,4.513
	l6.021,7.773l8.021-1.504l2.76-10.781l7.774-2.006l5.767-4.512l3.513-4.264l0.498-5.269l-4.766-1.25l3.01-12.792l9.779-1.758
	l2.758-5.765l-0.248-7.021l-8.776-8.024l1.757-6.519l-0.755-5.016l-1.758-7.523l13.042-8.527l17.049-15.794l2.257-5.016l3.765-3.006
	l-8.526-7.525l-1.401-7.931l-4.303,4.412L387.901,318.494z"/>
<path id="ofsnbr2306" fill="#7F7F7F" d="M346.371,426.042l-4.766-14.041l5.265-2.007l-1.358-13.5
	c-1.653-4.409-1.807-6.189-0.338-8.028c1.47-1.836,1.837-4.776,1.654-7.9c-0.127-2.148-0.168-7.166-0.062-11.819l-7.422-0.382
	l-6.267,2.755l-0.25-5.264l-2.007-5.765l-4.263-2.009l5.812-10.179l-5.584-4.72l-22.415-11.798l-6.286,16.283l-4.483-1.654
	l-9.204,2.583l-6.761,1.9l-3.309,4.644l8.418,5.664l3.821,2.122l4.777-0.551l-2.389,4.227l-3.676,1.469l-0.368,5.144l4.226,2.024
	l-0.18,9.186l-7.165,4.043l4.225,12.312l3.492,2.206l2.024,7.35l5.512-1.103l-0.369,3.12l8.821,10.107l7.528,2.025l-0.181,2.936
	l5.327,6.617l-0.734,3.858l-0.555,13.408l-1.103,3.308l2.207,2.939l4.039,3.495l-2.02,4.96l-1.102,4.41l2.382,3.856l5.514,9.371
	l7.283,2.832l3.007-3.005h6.021l-1.507-17.305l-0.249-15.795l5.015-5.018l2.509-7.021l-6.019-7.777L346.371,426.042z"/>
<g>
	<path fill="#CDD4DB" d="M78.038,338.31c-2.572-3.307-5.879-4.228-10.29-5.328c-7.14-1.786-8.633-3.31-13.778-8.635
		c-3.652-3.78-9.351-5.575-13.94-5.575c-4.591,0-7.402-0.738-11.78-4.347c-3.125-2.572-5.145-4.596-8.271-2.572
		c-2.353,1.524-4.582,0.127-5.695-0.918c-0.527-0.497-1.079-0.94-1.64-1.359v39.043c6.409,0.22,13.728,2.635,16.71,4.389
		c3.123,1.843,4.593,2.024,7.9,2.024s4.534,0.706,5.825,1.26c2.796,1.195,5.562,1.68,8.69,1.68c3.122,0,5.511,0.733,6.246-0.368
		c0.732-1.102,0.557-2.12,1.102-2.205c3.491-0.553,8.277-0.951,12.493-0.553c5.878,0.551,7.479,0.786,8.819-0.551
		c0.918-0.919,1.354-4.11,1.837-6.431C82.746,345.545,79.326,339.96,78.038,338.31z"/>
</g>
</svg>
