<?xml version="1.0" encoding="utf-8"?>
<!-- Generator: Adobe Illustrator 16.0.0, SVG Export Plug-In . SVG Version: 6.00 Build 0)  -->
<!DOCTYPE svg PUBLIC "-//W3C//DTD SVG 1.1//EN" "http://www.w3.org/Graphics/SVG/1.1/DTD/svg11.dtd">
<svg version="1.1" id="Calque_1" xmlns="http://www.w3.org/2000/svg" xmlns:xlink="http://www.w3.org/1999/xlink" x="0px" y="0px"
	 width="595.279px" height="841.891px" viewBox="0 0 595.279 841.891" enable-background="new 0 0 595.279 841.891"
	 xml:space="preserve">
<path id="BE" fill="#999999" d="M221.117,521.78l3.195-4.141l5.432-4.225l4.025-2.213l6.035,0.604l4.025-2.416l-3.824-6.035
	l0.402-7.848l0.402-6.036l0.605-3.018l3.42-2.213l4.225,1.811l1.811-0.402l3.421,0.201l0.604-5.634l-0.201-9.054l-3.019-3.02
	l-4.828-4.225l-3.219-2.012l-5.661-2.098c-0.676-0.705-2.355-0.75-2.849-1.588c-0.479-0.815-0.283-2.249,0-3.15
	c0.347-1.1,1.726-2.1,2.206-3.15c0.323-0.708,0.791-1.757,0.63-2.52c-0.222-1.054-1.669-1.9-2.205-2.834
	c-0.759-1.325-1.684-3.213-1.89-4.726c-0.116-0.848-0.121-2.1,0.314-2.835c0.589-0.992,2.562-1.212,3.15-2.204
	c0.437-0.737,0.229-1.984,0.314-2.836c0.105-1.038-0.009-2.472,0.315-3.465c0.342-1.048,1.445-2.142,1.89-3.148
	c0.399-0.902,0.582-2.234,0.945-3.15c0.468-1.178,1.214-2.707,1.891-3.78c0.574-0.912,1.391-2.129,2.204-2.835l-0.853-0.55
	l-2.615-1.609c0,0-3.019-2.415-2.818-3.22s1.006-2.615,1.006-2.615l2.214-3.019l0.805,1.811l2.816,2.214l1.02,1.634
	c0.721-1.655,3.328-2.65,4.411-4.095c0.252-0.338,0.697-0.843,0.629-1.26c-0.107-0.66-1.285-0.973-1.575-1.575
	c-0.37-0.771-0.267-1.98-0.314-2.835c-0.047-0.849,0.326-2.049,0-2.835c-0.409-0.987-1.602-1.971-2.52-2.52
	c-0.847-0.506-2.165-0.899-3.15-0.945c-0.962-0.046-2.362,0.075-3.15,0.629c-0.45,0.318-0.419,1.41-0.945,1.575
	c-0.887,0.281-1.993-0.862-2.834-1.26c-0.573-0.271-1.261-0.868-1.891-0.945c-0.864-0.107-2.033,0.288-2.834,0.629
	c-0.313,0.134-0.611,0.562-0.945,0.63c-1.035,0.214-2.492-0.218-3.464-0.63c-1.499-0.633-2.827-2.783-4.411-3.149
	c-0.56-0.129-1.325,0.422-1.89,0.315c-0.541-0.103-1.17-0.571-1.575-0.945c-0.597-0.552-1.575-2.205-1.54-2.193l-4.812-0.348
	l1.207-9.256l-0.402-6.64l-1.811-6.64l2.012-2.616l4.627-3.019l-0.805-4.023l-4.023-4.427l-2.616,1.609l-10.261,4.829l-11.066,1.811
	l-5.031,0.201l-7.802,2.306l-0.849-0.495l-4.427-1.409l-5.948-3.018l-5.922-5.526c0,0.026,0.996-2.171,1.444-3.104
	c0.42-0.873,1.025-2.015,1.445-2.888c0.448-0.932,0.853-2.281,1.444-3.129c0.526-0.754,1.456-1.584,2.167-2.167
	c0.806-0.66,2.005-1.374,2.889-1.925c0.852-0.532,1.979-1.26,2.889-1.685c0.765-0.359,1.823-0.779,2.648-0.963
	c0.778-0.174,1.857-0.133,2.647-0.241c0.8-0.109,2.625-0.491,2.625-0.491l3.306-1.563l1.063-5.497l0.355-4.256l-1.064-3.725
	l-7.447-4.965l-7.98-4.256l-1.951-1.241l-6.738,0.177l-9.576,1.241l-5.852,2.837l-4.965,2.483l-3.902,1.773l-4.078,1.773
	l-0.709-4.256l2.482-3.192l1.242-4.788l-0.531-6.739l-1.995-4.3l6.605-0.753l3.724-2.394l5.409-4.788l3.104-3.015l6.738,0.709
	l3.547-0.355l1.773-2.837l0.354-2.837l6.739-1.063l4.256-5.675l3.546-7.802l0.71-3.901l8.511,1.773l14.896-1.064l-1.419-7.448
	l4.256-2.482l-0.354-4.966l1.773-3.901l4.256-0.709h4.61l3.547,3.901l6.738,1.419l8.157-0.355l7.094-1.418l6.029-3.192l6.029-4.966
	l4.256-5.674l1.773,0.709l1.065,5.675l4.965-0.354l10.285,1.063l6.029,0.709l7.094,2.483l3.901-2.837l3.546-4.256h7.448l2.044,0.231
	l-2.576,3.936l-2.306,2.039l-1.684,2.483l-2.66,1.773l-6.916,1.951l-3.281,1.241l-2.837,2.395l-0.798,3.28l-0.709,1.241
	l-1.596,0.532l-4.877,1.064l-4.167,0.532l-0.089,3.547l-3.989,3.369l-4.522,2.749l-6.828,3.104l-6.118,2.482l0.976,7.803
	l1.862,2.216l3.812,1.153l1.507,0.71l1.33,5.408l1.032,1.958c0.49-0.407,1.391-0.562,1.905-0.933
	c0.433-0.312,0.819-0.957,1.259-1.259c0.768-0.527,2.088-0.704,2.835-1.26c0.699-0.521,1.489-1.431,1.89-2.205
	c0.358-0.692,0.247-1.842,0.63-2.52c0.264-0.465,0.756-1.083,1.261-1.26c0.807-0.284,1.985,0.42,2.834,0.315
	c0.801-0.1,1.822-0.539,2.52-0.945c0.638-0.371,1.282-1.158,1.89-1.575c0.803-0.55,1.927-1.224,2.835-1.575
	c0.769-0.298,2.022-0.128,2.62-0.673l0.339,4.751l0.355,4.61l3.458,5.32l-2.128,4.167l-1.862,0.532l-3.28-0.178l-4.61-0.266
	l-2.305,3.014l-1.685,2.483v3.281l-0.798,2.394l-5.23,0.354l-2.572,0.266l-1.596-1.33l-3.28-0.532l-1.241,0.887l-0.177,2.571
	l1.152,2.749l1.507,3.28l2.571,4.345l0.621,0.798l0.976-0.709l3.458-2.483l2.749-1.507l2.749-0.798l-0.089,2.661l-0.266,2.039
	l1.507,2.039l3.191-0.178l3.281-1.241l1.951-1.507l0.443-2.394l-1.241-1.773l-1.153-2.127l0.531-1.242l4.256-2.04l3.546-2.039
	l3.458-2.306l2.395-4.521l1.241-4.965l0.621-3.813l3.458-1.063l2.394-0.886l2.926,0.621l2.926,1.862l2.483,2.394l6.117,1.153
	l6.118,0.355l3.458-1.064l4.167-3.547l2.659-3.546l0.089-2.572l-0.443-3.28l-2.659-2.571l-2.837-1.419l-2.129-2.216l-1.861-2.749
	l-2.926-5.763l0.177-1.419l-0.62-2.305l-2.395-1.33l-1.596-1.242l-2.128,0.089l-2.128-0.443v-3.103l-0.975-3.015l0.443-2.66
	l-0.089-1.862l-0.268-2.128l2.749,0.266l8.602,0.886l2.305-0.354l3.458-1.418l3.458-1.152l2.306-1.331l3.901,0.443l1.24,1.507
	l3.192,4.433l2.039,5.054l3.901,0.532l3.989-0.443l4.08-1.95l1.507-0.976l2.084,3.205c0.667-0.565,1.455-1.495,2.157-2.061
	c0.543-0.436,1.389-0.856,1.905-1.323c0.457-0.413,0.825-1.215,1.336-1.559c0.352-0.236,0.917-0.4,1.336-0.446
	c1.27-0.138,2.956,0.424,4.233,0.446c0.937,0.015,2.181-0.19,3.117-0.223c0.868-0.031,2.093,0.333,2.887,0l-0.519,1.192
	l-0.879,3.762l0.062,6.207l0.503,3.95v1.254l-0.252,2.759l1.254,4.765l3.01,6.27l2.257,3.009l1.881,2.759l0.377,2.006l-0.753,5.768
	v3.762l2.508,3.762l1.128,2.884l-1.128,2.884l-2.132,2.382l-1.003,2.884l0.878,4.264l0.25,2.382l0.126,3.26l-0.627,2.759
	l-0.501,5.141l-1.254,3.135l2.508,2.383l2.633,3.134l1.003,2.258l0.377,3.385l0.877,3.636l3.637-0.501l4.013,0.25l2.759,0.877
	l0.751,3.386l1.505,4.263l0.251,2.633l-1.756,3.636l-2.382,3.887l-0.878,3.887l-1.254,2.383l-2.634,2.758l-4.263-0.501l-2.257,2.131
	l-3.009,1.63l-3.261,2.633l2.007,1.505l1.128,2.383l-0.126,5.768l-1.379,2.884l-4.013-0.125l0.501,8.15l1.506,4.138l1.128,2.382
	l6.646,4.765l6.271,3.636l7.146,6.02l4.514,5.392l4.076,6.454l3.326-1.551l7.535-2.217l5.146-0.746l2.304,0.346l8.866,1.242
	l3.191,0.887l7.979,6.384l7.094,2.482l6.206-2.659l3.369-1.064l6.384-0.178l3.901-0.709l5.319,2.128l5.498,3.547l7.271-5.32
	l3.901-3.547l4.122-1.729l4.521-1.949l0.802-1.29l6.514,4.126l1.557,1.559l1.68,2.165l4.655-3.679l6.475,3.095l-2.396,4.53
	l-0.266,2.216l0.532,6.03l2.039,3.812l1.33,4.345l0.177,3.457v3.459l-0.975,1.861l-2.129,1.33l-2.925-0.354l-2.926-1.063
	l-3.547-0.622l-2.395-0.265l0.266,2.217l0.709,3.989l1.065,2.749l2.222,3.646l-4.438,4.955l-2.838,3.901l-2.659,4.609l-1.419,6.385
	v6.029l-0.887,3.546l-4.079,3.724l-3.546,2.483l-4.079,2.128l-1.597,2.659l-8.511,5.32l-5.497,1.95l-11.703,3.015l-6.03,1.064
	l-4.078-3.901l-7.271-1.419l-6.739-4.433l-5.142-1.951l-4.434,0.354l-5.675-2.659l-4.256-2.306l-3.547,0.178l-3.191,2.128
	l-4.434,2.305l-4.965,1.951l-0.886,11.349l-7.98,3.901l-2.482,3.369l-6.029,4.965l-6.561,1.064l-10.817,0.531l-14.719,12.769
	l-16.847,13.831l-5.142-7.803l-8.866-6.383l-6.385-1.242l-3.015,3.015l-2.481,4.61l-3.37,4.256l-5.675-0.177h-5.142l-2.66,1.419
	l-2.129,2.127l5.143,3.37l-1.241,1.951l-3.015,3.191l-4.789,2.305l-4.965,1.597l-9.221-3.015l-5.497-1.241
	c0,0-9.044,2.305-9.753,2.659c-0.709,0.354-7.625,5.675-7.625,5.675l-5.143,3.547l-5.142,3.191l-3.192-1.241l-1.596-2.481v-7.271
	l-4.611-0.888l-4.433,2.837l-3.014,2.306l-0.887,4.966l-1.418,4.433l-3.37,2.306l-6.669-0.143l1.234-3.286l-1.609-7.243l0.201-3.22
	l-3.824-3.421v-8.45l2.013-3.621l-0.201-3.824l-2.415-3.42l-0.201-4.023l1.409-1.811c0,0,3.42,0,4.225-0.605
	c0.805-0.604,2.816-2.816,2.816-2.816s-0.201-3.822,0-5.029s-0.604-6.037-0.604-6.037l3.623-4.627l2.615-3.823l-0.402-6.438
	l-0.805-7.042L221.117,521.78z M332.149,298.95l1.507-1.286l1.817-1.064l1.463,0.222l1.729,1.729l-0.089,1.241l-1.02,2.128
	c0,0-1.462,1.507-1.641,1.552c-0.177,0.044-2.481,1.02-2.481,1.02l-1.552-0.133l-0.798-1.108v-2.394L332.149,298.95z"/>
<path id="lake_neuchatel" fill="#CCD3DB" d="M67.775,435.434c1.487,0.709,3.849,0.913,5.461,0.574
	c0.682-0.144,1.41-0.805,2.013-1.15c0.604-0.345,1.383-0.854,2.012-1.149c0.667-0.313,1.649-0.516,2.3-0.862
	c0.655-0.35,1.408-1.005,2.012-1.437c0.604-0.431,1.408-1.007,2.012-1.438c0.604-0.431,1.336-1.131,2.012-1.436
	c1.049-0.474,2.587-0.813,3.737-0.862c0.609-0.027,1.425,0.122,2.012,0.286c0.632,0.178,1.395,0.639,2.012,0.863
	c0.847,0.307,1.984,0.731,2.875,0.862c0.939,0.138,2.287,0.362,3.162,0c0.676-0.28,1.242-1.175,1.725-1.726
	c0.933-1.062,1.966-2.651,2.875-3.736c0.822-0.982,2.243-2.045,2.875-3.161c0.442-0.784,0.347-2.137,0.861-2.875
	c0.494-0.707,1.548-1.302,2.3-1.725c1.215-0.683,3.079-1.077,4.312-1.725c1.926-1.013,4.353-2.645,6.037-4.023
	c1.131-0.928,2.396-2.433,3.449-3.45c1.273-1.229,3.122-2.715,4.312-4.024c0.951-1.047,1.94-2.674,2.874-3.737
	c0.563-0.641,1.528-1.308,2.012-2.012c0.481-0.7,0.594-1.945,1.149-2.587c1.269-1.466,3.854-2.369,5.462-3.45
	c1.847-1.241,4.315-2.9,6.036-4.312c1.463-1.199,3.225-3.012,4.6-4.312c1.817-1.717,4.246-4.002,6.037-5.749
	c1.047-1.022,2.274-2.575,3.449-3.449c1.021-0.761,2.597-1.443,3.737-2.012c1.104-0.552,2.744-0.989,3.736-1.725
	c0.834-0.618,1.734-1.716,2.3-2.586c0.568-0.874,1.056-2.192,1.437-3.162c0.299-0.761,0.731-1.779,0.862-2.586
	c0.166-1.021,0.312-2.463,0-3.45c-0.316-1.004-1.115-2.323-2.012-2.874c-0.52-0.319-1.403-0.272-2.012-0.288
	c-0.953-0.024-2.223,0.128-3.162,0.288c-0.702,0.119-1.596,0.679-2.3,0.575c-0.497-0.074-1.031-0.566-1.438-0.862
	c-0.74-0.54-1.504-1.556-2.299-2.012c-0.473-0.271-1.186-0.488-1.724-0.575c-0.766-0.125-1.84-0.208-2.588,0
	c-0.969,0.268-2.044,1.156-2.874,1.724c-0.811,0.556-1.763,1.475-2.586,2.012c-1.067,0.695-2.772,1.182-3.737,2.012
	c-0.327,0.282-0.579,0.824-0.862,1.15c-0.239,0.277-0.533,0.704-0.861,0.862c-0.705,0.338-1.816,0.168-2.588,0.288
	c-0.869,0.135-2.099,0.16-2.874,0.575c-0.753,0.403-1.32,1.513-2.012,2.012c-0.625,0.451-1.548,0.973-2.3,1.149
	c-0.754,0.178-1.851-0.245-2.586,0c-0.409,0.137-0.825,0.58-1.15,0.862c-0.46,0.4-1.08,0.943-1.437,1.438
	c-0.45,0.625-0.881,1.576-1.149,2.3c-0.247,0.667-0.488,1.594-0.575,2.299c-0.137,1.113,0,2.616,0,3.737c0,0.518,0.179,1.24,0,1.725
	c-0.275,0.746-1.002,1.68-1.725,2.012c-0.313,0.144-0.805,0-1.149,0c-0.518,0-1.208-0.032-1.725,0
	c-0.694,0.043-1.808-0.204-2.3,0.288c-0.491,0.491-0.244,1.605-0.287,2.299c-0.043,0.688,0.2,1.639,0,2.3
	c-0.09,0.297-0.288,0.743-0.575,0.862c-0.407,0.168-0.998-0.287-1.437-0.287c-0.44,0-1.031,0.119-1.437,0.287
	c-0.575,0.238-1.207,0.805-1.725,1.15c-0.517,0.345-1.129,0.97-1.725,1.15c-0.413,0.125-1.047-0.185-1.436,0
	c-1.108,0.524-1.748,2.27-2.588,3.162c-1.046,1.11-2.714,2.317-3.737,3.45c-1.444,1.6-3.486,3.757-4.312,5.749
	c-0.233,0.563-0.015,1.467-0.287,2.012c-0.437,0.873-1.729,1.508-2.3,2.3c-0.563,0.782-0.954,2.041-1.437,2.875
	c-0.468,0.806-1.177,1.831-1.725,2.586c-0.9,1.243-1.781,3.353-3.161,4.024c-0.544,0.264-1.438-0.184-2.012,0
	c-0.707,0.226-1.49,0.91-2.013,1.437c-0.74,0.748-1.308,2.091-2.012,2.875c-0.613,0.683-1.539,1.501-2.3,2.012
	c-0.8,0.538-2.167,0.783-2.875,1.438c-0.369,0.342-0.568,1.029-0.861,1.438c-0.466,0.645-1.166,1.447-1.725,2.012
	c-0.645,0.651-1.442,1.689-2.3,2.012c-0.403,0.151-1.016-0.092-1.437,0c-1.206,0.265-2.765,0.964-3.737,1.726
	c-0.435,0.34-0.802,1.007-1.149,1.436c-0.771,0.954-2.175,2.009-2.586,3.162c-0.204,0.568-0.231,1.455,0,2.014
	C66.812,434.734,67.335,435.223,67.775,435.434z"/>
<path id="lake_biel" fill="#CCD3DB" d="M186.055,338.998c0.069-0.33,0.581-0.535,0.862-0.719c0.323-0.211,0.808-0.397,1.15-0.575
	c0.564-0.292,1.344-0.644,1.868-1.006c0.704-0.485,1.551-1.263,2.155-1.868c0.606-0.605,1.226-1.589,1.869-2.156
	c0.583-0.514,1.574-0.921,2.156-1.438c0.297-0.263,0.724-0.633,0.861-1.006c0.254-0.688,0.578-1.992,0-2.443
	c-0.28-0.219-0.91,0.025-1.149,0.287c-0.382,0.419-0.068,1.346-0.288,1.869c-0.167,0.397-0.557,0.845-0.861,1.15
	c-0.915,0.914-2.416,1.811-3.45,2.587c-0.517,0.388-1.212,0.899-1.724,1.293c-0.609,0.467-1.725,0.862-2.012,1.581
	c-0.288,0.718-1.816,1.404-2.731,1.724c-0.737,0.258-1.808,0.33-2.588,0.288c-0.396-0.021-0.979-0.043-1.292-0.288
	c-0.228-0.178-0.273-0.62-0.431-0.862c-0.185-0.282-0.693-0.526-0.719-0.862c-0.019-0.251,0.263-0.533,0.431-0.719
	c0.289-0.32,0.787-0.63,1.15-0.862c0.536-0.343,1.287-0.746,1.869-1.006c0.92-0.413,2.234-0.75,3.161-1.15
	c0.797-0.343,1.943-0.712,2.587-1.293c0.417-0.376,0.736-1.087,1.006-1.581c0.296-0.542,0.465-1.396,0.861-1.869
	c0.439-0.521,1.266-0.975,1.869-1.293c0.531-0.281,1.355-0.408,1.869-0.719c0.835-0.507,1.71-1.51,2.443-2.156
	c0.733-0.647,1.588-1.684,2.443-2.156c0.669-0.37,1.724-0.464,2.443-0.719c0.529-0.188,1.253-0.417,1.725-0.719
	c0.591-0.378,1.218-1.095,1.724-1.581c0.484-0.463,1.265-0.989,1.582-1.581c0.207-0.388,0.001-1.104,0.287-1.437
	c0.329-0.383,1.172-0.281,1.582-0.575c0.672-0.482,1.2-1.514,1.724-2.156c0.426-0.521,0.967-1.243,1.438-1.725
	c0.64-0.656,1.609-1.408,2.299-2.012c0.69-0.604,1.526-1.521,2.3-2.012c0.636-0.404,1.586-0.763,2.3-1.006
	c0.505-0.172,1.315-0.773,1.724-0.431c0.498,0.416-0.007,1.522-0.144,2.156c-0.078,0.36-0.19,0.872-0.431,1.15
	c-0.354,0.408-1.176,0.504-1.581,0.862c-0.833,0.738-1.652,2.026-2.156,3.018c-0.372,0.729-0.628,1.803-0.863,2.587
	c-0.241,0.812-0.327,1.979-0.718,2.731c-0.339,0.651-1.201,1.24-1.581,1.868c-0.651,1.075-1.032,2.75-1.582,3.881
	c-0.303,0.625-0.776,1.425-1.149,2.012c-0.482,0.757-1.226,1.697-1.725,2.443c-0.538,0.806-0.945,2.154-1.724,2.73
	c-0.396,0.292-1.128,0.241-1.582,0.432c-0.551,0.231-1.337,0.548-1.724,1.006c-0.475,0.563-0.558,1.629-0.862,2.3
	c-0.264,0.58-0.541,1.433-1.006,1.868c-0.38,0.356-1.071,0.608-1.581,0.719c-0.632,0.137-1.526-0.149-2.156,0
	c-0.469,0.11-1.038,0.447-1.437,0.718c-0.479,0.327-0.926,1.018-1.438,1.293c-0.745,0.402-1.929,0.443-2.729,0.719
	c-0.622,0.213-1.381,0.682-2.012,0.862c-0.545,0.156-1.302,0.327-1.868,0.288c-0.449-0.031-1.093-0.141-1.438-0.432
	C186.545,340.575,185.917,339.658,186.055,338.998z"/>
<path id="lake_thun" fill="#CCD3DB" d="M368.146,476.537c0.446,0.542,0.084,1.689,0.432,2.299c0.227,0.397,0.826,0.683,1.149,1.007
	c0.324,0.323,0.794,0.742,1.006,1.149c0.165,0.314,0.426,0.822,0.288,1.149c-0.233,0.552-1.151,0.831-1.726,1.007
	c-0.661,0.2-1.617,0.258-2.3,0.143c-0.552-0.093-1.169-0.637-1.724-0.719c-0.856-0.126-2.024,0.119-2.874,0.287
	c-0.884,0.176-2.031,0.55-2.875,0.862c-0.797,0.296-1.761,0.956-2.587,1.15c-0.966,0.227-2.338,0.366-3.305,0.144
	c-0.621-0.143-1.326-0.674-1.868-1.006c-0.582-0.356-1.302-0.915-1.869-1.293c-0.597-0.398-1.362-0.99-2.012-1.294
	c-0.655-0.307-1.593-0.571-2.3-0.719c-0.765-0.16-1.838-0.065-2.588-0.288c-0.368-0.108-0.837-0.349-1.148-0.573
	c-0.348-0.25-0.705-0.705-1.006-1.007c-0.26-0.258-0.71-0.529-0.863-0.863c-0.234-0.51-0.122-1.306-0.144-1.867
	c-0.015-0.388,0.239-0.988,0-1.294c-0.327-0.42-1.247-0.194-1.725-0.431c-0.494-0.245-1.038-0.769-1.438-1.149
	c-0.331-0.318-0.67-0.838-1.006-1.15c-0.474-0.439-1.207-0.906-1.724-1.293c-0.519-0.389-1.139-1.021-1.726-1.294
	c-0.521-0.242-1.306-0.31-1.868-0.431c-0.43-0.094-1.049-0.08-1.438-0.287c-0.537-0.289-1.021-0.991-1.437-1.438
	c-0.584-0.626-1.331-1.489-1.869-2.155c-0.27-0.335-0.647-0.775-0.862-1.15c-0.277-0.486-0.445-1.233-0.718-1.724
	c-0.18-0.324-0.41-0.801-0.719-1.006c-0.479-0.32-1.337-0.211-1.869-0.432c-0.375-0.155-0.952-0.362-1.149-0.718
	c-0.292-0.529-0.139-1.425,0-2.013c0.134-0.563,0.779-1.153,0.863-1.725c0.106-0.736-0.367-1.702-0.432-2.442
	c-0.064-0.731-0.298-1.774,0-2.443c0.235-0.531,0.858-1.318,1.438-1.294c1.066,0.042,1.724,1.799,2.442,2.587
	c0.968,1.062,2.099,2.627,3.163,3.593c0.708,0.643,1.73,1.438,2.586,1.868c0.769,0.387,2.025,0.372,2.731,0.862
	c0.807,0.562,1.303,1.906,2.012,2.587c0.268,0.257,0.809,0.404,1.006,0.719c0.277,0.444-0.072,1.343,0.288,1.725
	c0.394,0.419,1.319,0.259,1.868,0.432c0.886,0.277,2.012,0.805,2.874,1.149c0.861,0.345,2.088,0.654,2.875,1.149
	c1.238,0.781,2.698,2.145,3.592,3.306c0.565,0.733,1.135,1.855,1.438,2.73c0.156,0.456-0.01,1.201,0.288,1.582
	c0.524,0.667,1.756,0.973,2.586,1.149c0.717,0.15,1.712,0.054,2.443,0c0.869-0.064,2.003-0.463,2.874-0.432
	c0.795,0.028,1.8,0.465,2.587,0.575c0.729,0.101,1.713,0.216,2.444,0.143c0.843-0.083,1.885-0.775,2.729-0.718
	c0.56,0.038,1.206,0.507,1.726,0.718C367.139,476.137,367.852,476.177,368.146,476.537z"/>
<path id="lake_brienz" fill="#CCD3DB" d="M386.111,470.932c-0.048,0.584,0.159,1.455,0.574,1.868
	c0.32,0.317,1.002,0.322,1.438,0.432c0.641,0.159,1.497,0.466,2.156,0.432c0.722-0.039,1.622-0.47,2.3-0.72
	c0.924-0.341,2.147-0.831,3.018-1.293c0.634-0.338,1.447-0.851,2.012-1.293c0.937-0.735,2.041-1.884,2.875-2.731
	c0.492-0.501,0.983-1.354,1.58-1.724c0.269-0.166,0.705-0.202,1.007-0.288c0.604-0.173,1.409-0.403,2.013-0.575
	c0.604-0.173,1.441-0.311,2.012-0.575c0.705-0.326,1.499-1.021,2.155-1.437c0.638-0.404,1.707-0.688,2.156-1.294
	c0.317-0.429,0.104-1.304,0.431-1.725c0.391-0.502,1.279-0.765,1.869-1.006c0.707-0.29,1.757-0.381,2.442-0.719
	c0.526-0.259,1.09-0.83,1.581-1.149c0.501-0.327,1.202-0.714,1.725-1.006c0.555-0.312,1.324-0.675,1.869-1.006
	c0.847-0.517,1.875-1.365,2.729-1.869c0.416-0.244,1.097-0.378,1.438-0.719c0.341-0.34,0.796-0.961,0.719-1.437
	c-0.068-0.422-0.666-0.749-1.006-1.007c-0.354-0.267-0.887-0.54-1.294-0.718c-0.374-0.165-0.91-0.288-1.294-0.432
	c-0.524-0.196-1.178-0.59-1.724-0.718c-0.631-0.149-1.508-0.143-2.156-0.145c-0.691-0.001-1.63-0.026-2.3,0.145
	c-0.691,0.176-1.513,0.694-2.155,1.005c-0.694,0.336-1.617,0.791-2.3,1.15c-0.784,0.414-1.915,0.856-2.586,1.438
	c-0.698,0.602-1.312,1.707-1.869,2.442c-0.39,0.516-0.879,1.228-1.294,1.726c-0.487,0.586-1.151,1.364-1.724,1.867
	c-0.952,0.838-2.47,1.64-3.45,2.443c-0.871,0.717-1.763,2.007-2.729,2.587c-0.585,0.352-1.582,0.352-2.156,0.719
	c-0.796,0.511-1.415,1.711-2.155,2.301c-0.741,0.588-1.909,1.111-2.731,1.58c-0.687,0.392-1.591,0.94-2.3,1.294
	c-0.673,0.336-1.753,0.487-2.3,1.005C386.406,470.048,386.143,470.547,386.111,470.932z"/>
</svg>
