<?xml version="1.0" encoding="utf-8"?>
<!-- Generator: Adobe Illustrator 16.0.0, SVG Export Plug-In . SVG Version: 6.00 Build 0)  -->
<!DOCTYPE svg PUBLIC "-//W3C//DTD SVG 1.1//EN" "http://www.w3.org/Graphics/SVG/1.1/DTD/svg11.dtd">
<svg version="1.1" id="Calque_1" xmlns="http://www.w3.org/2000/svg" xmlns:xlink="http://www.w3.org/1999/xlink" x="0px" y="0px"
	 width="595.279px" height="453.543px" viewBox="-0.004 194.174 595.279 453.543"
	 enable-background="new -0.004 194.174 595.279 453.543" xml:space="preserve">
<path id="_x32_601" fill="#989898" d="M453.7,349.494l-11.189-25.232l-8.893-0.552l-15.567-4.617l-17.792-14.456l0.428-10.422
	l-36.547,2.421l-32.015,18.125l-16.028,18.323l1.954,19.723l-20.064,30.811l-38.079,46.427l-22.14,25.797l0.39,7.732l31.482-4.66
	l31.062-2.791l4.829,11.486h75.529l24.461-22.145l30.642-8.669l88.344,14.657l44.547-24.369l-14.311,2.152v-12.23l21.034-16.085
	l-17.643-7.469l-16.984-20.099l-35.031,2.457l-21.679-9.713l-14.938-3.739c-0.01,0.002-4.439-17.747-4.439-17.747
	C460.99,345.752,457.225,347.379,453.7,349.494z"/>
<polygon id="ofsnbr2603" fill="#666666" points="218.099,405.24 243.378,395.78 254.922,406.939 259.906,430.045 297.985,383.618 
	318.048,352.807 316.094,333.083 332.124,314.76 322.749,290.59 298.283,296.934 273.516,291.8 290.131,242.256 294.661,231.991 
	266.268,234.405 242.101,221.116 197.696,236.218 161.146,218.701 131.543,231.991 138.793,279.715 97.107,300.863 94.088,331.674 
	76.569,332.275 69.921,354.023 53.007,361.274 48.171,391.483 67.505,388.459 94.088,389.671 122.48,384.836 155.104,375.774 
	179.271,380.608 183.501,412.022 196.47,412.831 "/>
<path id="ofsnbr2602" fill="#7F7F7F" d="M40.32,597.495l14.5,24.765l47.124-38.653l24.163,12.076l13.896-21.749l19.332-2.421
	l29.888-51.615l13.609-7.59l7.251,11.486l46.723-9.248l5.231-1.032l-7.852-22.952l18.128-8.453l-2.672-23.19l-31.482,4.659
	l-0.39-7.732l22.14-25.797l-4.984-23.106l-11.545-11.158l-25.279,9.459l-21.629,7.59l-12.97-0.806l-6.648,9.061l-26.58,3.621
	l-1.749,26.707c-1.179,0.947-2.365,2.025-3.841,3.199c-4.531,3.625-9.969,5.438-17.672,6.344c-7.703,0.908-13.592,3.623-22.653,4.08
	c-9.064,0.451-9.516,2.262-6.797,7.702c2.717,5.435,2.266,11.781,1.812,22.653c-0.453,10.877-0.909,13.14,2.263,18.579
	c3.172,5.436,3.85,7.164-2.717,10.875c-20.844,11.781-43.952,34.437-49.388,41.23c-2.722,2.265-5.894,5.891-6.797,9.063
	c-0.906,3.17-2.719,6.342-5.891,9.514s-7.252,5.438-13.141,9.064c-5.891,3.623-5.435,5.891-3.172,9.516
	c1.623,2.591,2.014,4.191,2.281,5.562l7.916-5.11L40.32,597.495z"/>
<g display="none">
	<g display="inline">
		<path fill="#1A171B" d="M151.415,415.29v-18.398h12.412v2.174h-9.977v5.69h8.634v2.174h-8.634v8.358L151.415,415.29
			L151.415,415.29z"/>
		<path fill="#1A171B" d="M166.676,415.29v-13.328h2.033v2.022c0.521-0.948,0.996-1.57,1.438-1.872
			c0.437-0.303,0.921-0.452,1.448-0.452c0.76,0,1.534,0.241,2.32,0.729l-0.776,2.1c-0.554-0.331-1.104-0.491-1.656-0.491
			c-0.495,0-0.938,0.15-1.331,0.446c-0.396,0.297-0.672,0.708-0.841,1.233c-0.251,0.805-0.376,1.684-0.376,2.637v6.979
			L166.676,415.29L166.676,415.29z"/>
		<path fill="#1A171B" d="M183.957,413.644c-0.836,0.714-1.642,1.216-2.415,1.508c-0.773,0.296-1.604,0.439-2.492,0.439
			c-1.463,0-2.59-0.354-3.376-1.074c-0.784-0.713-1.18-1.626-1.18-2.739c0-0.652,0.148-1.25,0.447-1.787
			c0.296-0.542,0.685-0.976,1.165-1.3c0.48-0.326,1.022-0.572,1.626-0.737c0.442-0.121,1.112-0.231,2.008-0.342
			c1.825-0.217,3.167-0.479,4.028-0.778c0.008-0.312,0.013-0.507,0.013-0.587c0-0.924-0.213-1.571-0.64-1.948
			c-0.578-0.512-1.438-0.763-2.573-0.763c-1.062,0-1.848,0.186-2.354,0.557c-0.504,0.372-0.878,1.029-1.122,1.975l-2.208-0.303
			c0.201-0.941,0.532-1.707,0.991-2.289s1.125-1.027,1.996-1.34c0.871-0.314,1.877-0.473,3.024-0.473
			c1.137,0,2.062,0.136,2.771,0.402c0.71,0.266,1.235,0.602,1.569,1.009c0.334,0.406,0.57,0.919,0.703,1.536
			c0.076,0.387,0.113,1.084,0.113,2.088v3.012c0,2.099,0.048,3.424,0.143,3.981c0.098,0.558,0.289,1.089,0.572,1.602h-2.359
			C184.176,414.823,184.025,414.275,183.957,413.644z M183.769,408.604c-0.821,0.331-2.053,0.617-3.689,0.854
			c-0.929,0.13-1.586,0.281-1.971,0.451c-0.384,0.166-0.685,0.412-0.893,0.731c-0.206,0.321-0.312,0.679-0.312,1.074
			c0,0.604,0.229,1.104,0.683,1.506c0.457,0.401,1.125,0.604,2.003,0.604c0.871,0,1.646-0.191,2.322-0.572
			c0.678-0.382,1.175-0.904,1.494-1.564c0.243-0.509,0.364-1.262,0.364-2.261L183.769,408.604L183.769,408.604z"/>
		<path fill="#1A171B" d="M189.554,415.29v-13.328h2.031v1.895c0.979-1.463,2.394-2.194,4.242-2.194
			c0.803,0,1.541,0.146,2.216,0.432c0.672,0.292,1.179,0.668,1.513,1.143c0.334,0.467,0.568,1.021,0.701,1.666
			c0.083,0.417,0.127,1.147,0.127,2.197v8.192h-2.26v-8.107c0-0.919-0.088-1.604-0.263-2.062c-0.176-0.457-0.487-0.823-0.938-1.094
			c-0.446-0.271-0.972-0.407-1.573-0.407c-0.961,0-1.792,0.307-2.493,0.919c-0.697,0.607-1.046,1.767-1.046,3.474v7.279h-2.259
			L189.554,415.29L189.554,415.29z"/>
		<path fill="#1A171B" d="M212.546,410.41l2.223,0.286c-0.243,1.529-0.863,2.729-1.865,3.595c-0.999,0.868-2.229,1.3-3.682,1.3
			c-1.825,0-3.291-0.597-4.4-1.787c-1.107-1.192-1.662-2.899-1.662-5.13c0-1.436,0.238-2.696,0.715-3.773
			c0.479-1.079,1.202-1.89,2.176-2.432c0.978-0.537,2.035-0.809,3.185-0.809c1.448,0,2.63,0.367,3.551,1.1
			c0.921,0.733,1.511,1.772,1.771,3.117l-2.196,0.337c-0.208-0.894-0.58-1.564-1.112-2.019c-0.529-0.451-1.172-0.68-1.925-0.68
			c-1.137,0-2.063,0.407-2.774,1.228c-0.71,0.812-1.064,2.103-1.064,3.87c0,1.792,0.344,3.092,1.028,3.903
			c0.687,0.811,1.581,1.217,2.687,1.217c0.886,0,1.627-0.271,2.222-0.813C212.011,412.373,212.387,411.535,212.546,410.41z"/>
		<path fill="#1A171B" d="M216.699,415.29v-18.398h2.259v6.602c1.056-1.22,2.384-1.833,3.991-1.833c0.986,0,1.845,0.196,2.573,0.583
			c0.728,0.392,1.25,0.929,1.561,1.611c0.316,0.688,0.474,1.687,0.474,2.989v8.444h-2.261v-8.444c0-1.134-0.246-1.952-0.731-2.469
			c-0.492-0.513-1.184-0.773-2.078-0.773c-0.67,0-1.3,0.178-1.887,0.521c-0.595,0.347-1.014,0.818-1.265,1.416
			c-0.251,0.592-0.376,1.41-0.376,2.46v7.289L216.699,415.29L216.699,415.29z"/>
		<path fill="#1A171B" d="M240.117,410.998l2.334,0.286c-0.369,1.365-1.049,2.425-2.045,3.177c-0.997,0.754-2.267,1.13-3.815,1.13
			c-1.948,0-3.494-0.603-4.636-1.802c-1.145-1.2-1.714-2.882-1.714-5.051c0-2.243,0.577-3.98,1.732-5.223
			c1.152-1.237,2.651-1.855,4.491-1.855c1.782,0,3.238,0.605,4.368,1.822c1.129,1.21,1.694,2.917,1.694,5.119
			c0,0.132-0.005,0.331-0.012,0.604h-9.939c0.083,1.461,0.497,2.581,1.242,3.363c0.746,0.771,1.674,1.165,2.786,1.165
			c0.828,0,1.536-0.218,2.121-0.652C239.309,412.645,239.774,411.951,240.117,410.998z M232.7,407.348h7.442
			c-0.103-1.124-0.386-1.962-0.854-2.522c-0.72-0.868-1.649-1.308-2.799-1.308c-1.036,0-1.91,0.349-2.618,1.039
			C233.168,405.255,232.776,406.184,232.7,407.348z"/>
		<path fill="#1A171B" d="M244.385,411.314l2.234-0.354c0.125,0.896,0.477,1.576,1.047,2.058c0.575,0.474,1.375,0.715,2.404,0.715
			c1.037,0,1.808-0.211,2.31-0.634c0.502-0.422,0.753-0.919,0.753-1.484c0-0.512-0.221-0.914-0.665-1.205
			c-0.309-0.201-1.078-0.457-2.31-0.77c-1.656-0.417-2.804-0.776-3.446-1.084c-0.637-0.307-1.124-0.729-1.456-1.271
			c-0.327-0.537-0.493-1.135-0.493-1.787c0-0.593,0.136-1.145,0.407-1.651c0.271-0.508,0.642-0.924,1.109-1.26
			c0.352-0.262,0.831-0.478,1.436-0.658c0.607-0.181,1.26-0.271,1.953-0.271c1.047,0,1.963,0.15,2.756,0.452
			c0.788,0.302,1.373,0.708,1.75,1.225c0.376,0.513,0.637,1.2,0.778,2.063l-2.208,0.301c-0.101-0.688-0.392-1.22-0.871-1.605
			c-0.48-0.387-1.162-0.578-2.041-0.578c-1.037,0-1.775,0.173-2.221,0.52c-0.444,0.342-0.666,0.743-0.666,1.205
			c0,0.291,0.093,0.552,0.276,0.787c0.183,0.239,0.472,0.44,0.864,0.604c0.228,0.085,0.893,0.275,1.996,0.576
			c1.601,0.428,2.713,0.778,3.348,1.05c0.63,0.271,1.127,0.668,1.484,1.187c0.359,0.518,0.54,1.165,0.54,1.933
			c0,0.753-0.218,1.461-0.66,2.129c-0.437,0.662-1.069,1.18-1.898,1.541c-0.828,0.366-1.766,0.547-2.812,0.547
			c-1.73,0-3.052-0.359-3.958-1.079C245.216,413.794,244.635,412.725,244.385,411.314z"/>
		<path fill="#1A171B" d="M257.261,409.768v-2.269h6.938v2.269H257.261z"/>
		<path fill="#1A171B" d="M145.482,440.992v-18.398h3.665l4.354,13.027c0.401,1.215,0.695,2.118,0.878,2.721
			c0.208-0.668,0.535-1.65,0.979-2.947l4.405-12.801h3.273v18.398h-2.347v-15.401l-5.346,15.401h-2.196l-5.321-15.662v15.662
			H145.482L145.482,440.992z"/>
		<path fill="#1A171B" d="M165.838,434.325c0-2.465,0.687-4.292,2.06-5.481c1.146-0.987,2.542-1.479,4.189-1.479
			c1.833,0,3.331,0.602,4.493,1.802s1.744,2.856,1.744,4.975c0,1.719-0.258,3.062-0.771,4.048c-0.519,0.982-1.267,1.745-2.249,2.294
			c-0.981,0.542-2.058,0.812-3.22,0.812c-1.863,0-3.373-0.598-4.521-1.797C166.412,438.301,165.838,436.579,165.838,434.325z
			 M168.159,434.325c0,1.707,0.371,2.987,1.117,3.835c0.746,0.849,1.682,1.273,2.811,1.273c1.122,0,2.055-0.427,2.801-1.278
			c0.744-0.854,1.115-2.153,1.115-3.9c0-1.651-0.374-2.901-1.125-3.75c-0.748-0.849-1.679-1.27-2.792-1.27
			c-1.129,0-2.063,0.421-2.811,1.265S168.159,432.619,168.159,434.325z"/>
		<path fill="#1A171B" d="M180.973,440.992v-13.328h2.031v1.893c0.979-1.461,2.394-2.191,4.242-2.191
			c0.803,0,1.541,0.145,2.216,0.432c0.674,0.291,1.179,0.667,1.513,1.139c0.334,0.469,0.568,1.024,0.703,1.668
			c0.083,0.416,0.125,1.148,0.125,2.197v8.193h-2.261v-8.107c0-0.919-0.088-1.604-0.264-2.062c-0.176-0.456-0.487-0.823-0.937-1.095
			c-0.446-0.271-0.972-0.406-1.573-0.406c-0.961,0-1.792,0.307-2.492,0.919c-0.698,0.605-1.047,1.767-1.047,3.474v7.279h-2.258
			L180.973,440.992L180.973,440.992z"/>
		<path fill="#1A171B" d="M200.199,438.974l0.327,1.993c-0.635,0.136-1.205,0.201-1.707,0.201c-0.821,0-1.456-0.131-1.908-0.387
			c-0.452-0.264-0.771-0.604-0.954-1.024c-0.183-0.421-0.274-1.313-0.274-2.671v-7.665h-1.656v-1.757h1.656v-3.299l2.247-1.354
			v4.653h2.271v1.757h-2.271v7.796c0,0.645,0.041,1.055,0.116,1.24c0.08,0.186,0.21,0.331,0.394,0.437
			c0.178,0.11,0.437,0.165,0.771,0.165C199.459,439.059,199.79,439.029,200.199,438.974z"/>
		<path fill="#1A171B" d="M211.105,439.346c-0.836,0.713-1.644,1.215-2.415,1.506c-0.775,0.298-1.606,0.441-2.492,0.441
			c-1.463,0-2.59-0.354-3.376-1.074c-0.786-0.713-1.18-1.627-1.18-2.739c0-0.652,0.146-1.249,0.445-1.787
			c0.297-0.542,0.687-0.976,1.165-1.302c0.482-0.324,1.024-0.57,1.626-0.736c0.444-0.12,1.112-0.23,2.01-0.341
			c1.823-0.218,3.168-0.479,4.027-0.778c0.007-0.312,0.014-0.507,0.014-0.588c0-0.923-0.215-1.57-0.642-1.947
			c-0.577-0.512-1.436-0.763-2.573-0.763c-1.062,0-1.847,0.186-2.354,0.557c-0.504,0.372-0.878,1.029-1.122,1.974l-2.208-0.302
			c0.201-0.941,0.532-1.706,0.991-2.289c0.459-0.582,1.125-1.027,1.996-1.341c0.871-0.314,1.877-0.471,3.022-0.471
			c1.139,0,2.063,0.135,2.773,0.399c0.71,0.268,1.233,0.604,1.568,1.011c0.334,0.404,0.569,0.918,0.702,1.534
			c0.076,0.389,0.113,1.085,0.113,2.09v3.013c0,2.098,0.048,3.423,0.145,3.979c0.099,0.559,0.288,1.091,0.571,1.604h-2.357
			C211.323,440.525,211.173,439.978,211.105,439.346z M210.917,434.305c-0.819,0.332-2.051,0.618-3.688,0.854
			c-0.931,0.131-1.586,0.281-1.972,0.452c-0.384,0.166-0.683,0.412-0.891,0.731c-0.208,0.32-0.312,0.679-0.312,1.074
			c0,0.602,0.229,1.104,0.683,1.506c0.457,0.401,1.125,0.604,2.003,0.604c0.871,0,1.644-0.191,2.322-0.572
			c0.678-0.382,1.175-0.904,1.494-1.566c0.241-0.507,0.362-1.261,0.362-2.259v-0.825H210.917z"/>
		<path fill="#1A171B" d="M216.288,442.096l2.196,0.327c0.093,0.678,0.346,1.169,0.766,1.48c0.562,0.417,1.325,0.628,2.296,0.628
			c1.047,0,1.854-0.211,2.422-0.628c0.569-0.417,0.954-1.004,1.155-1.757c0.118-0.464,0.17-1.428,0.163-2.901
			c-0.986,1.164-2.216,1.747-3.688,1.747c-1.832,0-3.25-0.663-4.256-1.983c-1.004-1.318-1.506-2.904-1.506-4.754
			c0-1.272,0.231-2.449,0.69-3.521c0.459-1.075,1.127-1.903,2-2.49c0.876-0.587,1.903-0.878,3.083-0.878
			c1.574,0,2.869,0.637,3.891,1.907v-1.606h2.083v11.521c0,2.071-0.21,3.544-0.632,4.411c-0.424,0.863-1.095,1.553-2.008,2.055
			c-0.919,0.502-2.046,0.753-3.384,0.753c-1.589,0-2.874-0.361-3.854-1.074C216.727,444.611,216.255,443.537,216.288,442.096z
			 M218.158,434.09c0,1.746,0.346,3.026,1.042,3.83c0.695,0.803,1.564,1.205,2.61,1.205c1.037,0,1.908-0.402,2.608-1.2
			c0.703-0.798,1.056-2.054,1.056-3.76c0-1.632-0.361-2.861-1.084-3.69c-0.727-0.828-1.598-1.237-2.618-1.237
			c-1.004,0-1.857,0.404-2.562,1.22C218.509,431.273,218.158,432.483,218.158,434.09z"/>
		<path fill="#1A171B" d="M230.996,440.992v-13.328h2.033v1.893c0.979-1.461,2.392-2.191,4.242-2.191
			c0.803,0,1.542,0.145,2.216,0.432c0.673,0.291,1.177,0.667,1.511,1.139c0.333,0.469,0.57,1.024,0.703,1.668
			c0.083,0.416,0.125,1.148,0.125,2.197v8.193h-2.259v-8.107c0-0.919-0.088-1.604-0.264-2.062c-0.178-0.456-0.487-0.823-0.938-1.095
			c-0.447-0.271-0.972-0.406-1.574-0.406c-0.961,0-1.792,0.307-2.492,0.919c-0.696,0.605-1.047,1.767-1.047,3.474v7.279h-2.258
			L230.996,440.992L230.996,440.992z"/>
		<path fill="#1A171B" d="M254.414,436.699l2.334,0.287c-0.369,1.363-1.049,2.424-2.045,3.178c-0.997,0.752-2.267,1.129-3.813,1.129
			c-1.95,0-3.496-0.603-4.638-1.802c-1.145-1.2-1.714-2.882-1.714-5.05c0-2.244,0.577-3.981,1.732-5.224
			c1.152-1.237,2.651-1.854,4.493-1.854c1.78,0,3.236,0.605,4.366,1.82c1.131,1.209,1.694,2.916,1.694,5.119
			c0,0.131-0.005,0.332-0.012,0.604h-9.939c0.083,1.46,0.497,2.58,1.242,3.362c0.745,0.771,1.674,1.163,2.786,1.163
			c0.828,0,1.536-0.216,2.121-0.65C253.606,438.347,254.071,437.653,254.414,436.699z M246.997,433.051h7.442
			c-0.103-1.125-0.384-1.963-0.854-2.523c-0.72-0.869-1.649-1.308-2.799-1.308c-1.036,0-1.91,0.349-2.618,1.04
			C247.464,430.957,247.073,431.886,246.997,433.051z"/>
		<path fill="#1A171B" d="M258.681,437.016l2.232-0.352c0.125,0.895,0.477,1.577,1.047,2.059c0.575,0.475,1.375,0.713,2.404,0.713
			c1.037,0,1.807-0.211,2.309-0.633c0.503-0.421,0.755-0.918,0.755-1.483c0-0.515-0.223-0.914-0.666-1.205
			c-0.311-0.2-1.079-0.456-2.311-0.77c-1.657-0.417-2.804-0.776-3.446-1.085c-0.638-0.306-1.125-0.728-1.456-1.27
			c-0.327-0.537-0.493-1.135-0.493-1.787c0-0.593,0.136-1.146,0.407-1.651c0.271-0.507,0.642-0.924,1.109-1.261
			c0.352-0.261,0.831-0.477,1.438-0.657c0.605-0.181,1.258-0.271,1.951-0.271c1.046,0,1.964,0.148,2.758,0.451
			c0.786,0.301,1.371,0.708,1.75,1.225c0.376,0.513,0.635,1.2,0.776,2.062l-2.208,0.304c-0.101-0.688-0.392-1.223-0.871-1.607
			c-0.48-0.386-1.162-0.577-2.041-0.577c-1.037,0-1.775,0.171-2.222,0.52c-0.444,0.341-0.665,0.743-0.665,1.204
			c0,0.292,0.093,0.553,0.276,0.789c0.183,0.238,0.472,0.439,0.864,0.602c0.228,0.086,0.893,0.276,1.996,0.578
			c1.601,0.426,2.714,0.777,3.348,1.049c0.63,0.271,1.127,0.668,1.484,1.187c0.359,0.517,0.54,1.165,0.54,1.933
			c0,0.753-0.218,1.461-0.66,2.129c-0.437,0.662-1.069,1.18-1.898,1.541c-0.828,0.366-1.765,0.547-2.812,0.547
			c-1.73,0-3.052-0.36-3.958-1.079C259.512,439.496,258.932,438.427,258.681,437.016z"/>
	</g>
	<g display="inline">
		<path fill="#1A171B" d="M190.387,324.263v-18.398h6.938c1.223,0,2.154,0.06,2.799,0.176c0.904,0.15,1.662,0.437,2.271,0.858
			c0.608,0.421,1.102,1.014,1.474,1.777c0.374,0.763,0.562,1.596,0.562,2.51c0,1.566-0.497,2.886-1.493,3.971
			c-0.997,1.084-2.794,1.626-5.396,1.626h-4.719v7.48H190.387L190.387,324.263z M192.823,314.615h4.756
			c1.574,0,2.691-0.296,3.353-0.883c0.658-0.583,0.99-1.406,0.99-2.47c0-0.769-0.191-1.431-0.585-1.979
			c-0.387-0.547-0.899-0.908-1.536-1.084c-0.407-0.11-1.167-0.161-2.271-0.161h-4.706L192.823,314.615L192.823,314.615z"/>
		<path fill="#1A171B" d="M206.401,317.597c0-2.465,0.685-4.292,2.058-5.482c1.147-0.989,2.543-1.481,4.192-1.481
			c1.832,0,3.331,0.603,4.493,1.802c1.162,1.199,1.745,2.856,1.745,4.975c0,1.717-0.261,3.062-0.771,4.046
			c-0.517,0.984-1.265,1.747-2.249,2.294c-0.979,0.542-2.056,0.813-3.218,0.813c-1.865,0-3.374-0.598-4.523-1.797
			C206.976,321.572,206.401,319.851,206.401,317.597z M208.723,317.597c0,1.707,0.372,2.987,1.115,3.835
			c0.745,0.849,1.684,1.275,2.812,1.275c1.122,0,2.053-0.427,2.798-1.28c0.746-0.854,1.117-2.153,1.117-3.9
			c0-1.651-0.374-2.901-1.125-3.75c-0.748-0.849-1.679-1.27-2.791-1.27c-1.129,0-2.066,0.421-2.812,1.265
			C209.094,314.615,208.723,315.89,208.723,317.597z"/>
		<path fill="#1A171B" d="M221.511,324.263v-13.328h2.031v2.023c0.521-0.949,0.997-1.571,1.438-1.872
			c0.437-0.302,0.921-0.452,1.448-0.452c0.76,0,1.534,0.241,2.32,0.728l-0.776,2.098c-0.554-0.331-1.104-0.492-1.657-0.492
			c-0.494,0-0.938,0.151-1.33,0.447c-0.394,0.296-0.673,0.708-0.841,1.235c-0.251,0.803-0.376,1.682-0.376,2.635v6.978H221.511
			L221.511,324.263z"/>
		<path fill="#1A171B" d="M230.071,324.263v-13.328h2.033v2.023c0.52-0.949,0.997-1.571,1.438-1.872
			c0.438-0.302,0.921-0.452,1.448-0.452c0.761,0,1.536,0.241,2.322,0.728l-0.778,2.098c-0.552-0.331-1.104-0.492-1.657-0.492
			c-0.494,0-0.936,0.151-1.33,0.447c-0.394,0.296-0.673,0.708-0.841,1.235c-0.251,0.803-0.376,1.682-0.376,2.635v6.978H230.071
			L230.071,324.263z"/>
		<path fill="#1A171B" d="M247.778,319.971l2.334,0.286c-0.369,1.366-1.049,2.425-2.046,3.178c-0.996,0.753-2.269,1.13-3.815,1.13
			c-1.95,0-3.497-0.603-4.636-1.802c-1.145-1.2-1.714-2.881-1.714-5.05c0-2.244,0.577-3.98,1.729-5.221
			c1.155-1.24,2.653-1.857,4.493-1.857c1.782,0,3.238,0.607,4.367,1.822c1.129,1.21,1.694,2.917,1.694,5.12
			c0,0.131-0.005,0.332-0.015,0.603h-9.938c0.083,1.461,0.497,2.581,1.242,3.363c0.746,0.773,1.674,1.165,2.785,1.165
			c0.828,0,1.535-0.216,2.12-0.653C246.97,321.618,247.434,320.925,247.778,319.971z M240.361,316.321h7.442
			c-0.102-1.124-0.386-1.963-0.854-2.525c-0.72-0.869-1.652-1.305-2.799-1.305c-1.037,0-1.91,0.347-2.618,1.039
			C240.828,314.229,240.436,315.157,240.361,316.321z"/>
		<path fill="#1A171B" d="M252.948,324.263v-13.328h2.033v1.893c0.979-1.46,2.392-2.194,4.242-2.194
			c0.803,0,1.541,0.146,2.216,0.432c0.673,0.291,1.177,0.668,1.511,1.14c0.333,0.467,0.57,1.024,0.703,1.667
			c0.083,0.416,0.125,1.149,0.125,2.198v8.193h-2.259v-8.107c0-0.918-0.088-1.606-0.266-2.063c-0.176-0.457-0.485-0.823-0.936-1.095
			c-0.447-0.271-0.972-0.406-1.574-0.406c-0.961,0-1.792,0.306-2.493,0.918c-0.697,0.607-1.046,1.767-1.046,3.474v7.279
			L252.948,324.263L252.948,324.263z"/>
		<path fill="#1A171B" d="M272.175,322.245l0.326,1.993c-0.635,0.135-1.205,0.2-1.707,0.2c-0.819,0-1.456-0.13-1.906-0.386
			c-0.452-0.261-0.771-0.602-0.954-1.024c-0.185-0.422-0.276-1.315-0.276-2.671v-7.665H266v-1.757h1.657v-3.298l2.247-1.355v4.653
			h2.271v1.757h-2.271v7.796c0,0.643,0.04,1.054,0.118,1.24c0.08,0.186,0.21,0.332,0.392,0.437c0.18,0.11,0.438,0.165,0.771,0.165
			C271.435,322.33,271.766,322.3,272.175,322.245z"/>
		<path fill="#1A171B" d="M274.359,324.263v-13.328h2.033v2.023c0.52-0.949,0.997-1.571,1.438-1.872
			c0.438-0.302,0.921-0.452,1.449-0.452c0.76,0,1.536,0.241,2.321,0.728l-0.778,2.098c-0.552-0.331-1.104-0.492-1.657-0.492
			c-0.494,0-0.936,0.151-1.33,0.447c-0.394,0.296-0.673,0.708-0.841,1.235c-0.251,0.803-0.377,1.682-0.377,2.635v6.978H274.359
			L274.359,324.263z"/>
		<path fill="#1A171B" d="M291.677,324.263v-1.958c-1.036,1.506-2.447,2.259-4.229,2.259c-0.786,0-1.521-0.151-2.204-0.452
			c-0.68-0.301-1.187-0.678-1.516-1.134c-0.331-0.457-0.564-1.014-0.698-1.677c-0.093-0.442-0.138-1.145-0.138-2.108v-8.258h2.259
			v7.395c0,1.174,0.045,1.973,0.139,2.379c0.145,0.598,0.443,1.064,0.902,1.4c0.46,0.342,1.029,0.507,1.707,0.507
			s1.312-0.17,1.908-0.517c0.595-0.347,1.014-0.823,1.26-1.421c0.248-0.597,0.371-1.466,0.371-2.6v-7.144h2.26v13.328h-2.021
			V324.263L291.677,324.263z"/>
		<path fill="#1A171B" d="M297.137,329.394l-0.251-2.118c0.492,0.135,0.924,0.2,1.293,0.2c0.502,0,0.9-0.085,1.202-0.251
			c0.304-0.166,0.55-0.401,0.74-0.703c0.146-0.226,0.372-0.788,0.69-1.682c0.043-0.125,0.105-0.311,0.201-0.552l-5.06-13.353h2.437
			l2.771,7.716c0.359,0.984,0.685,2.008,0.967,3.092c0.26-1.039,0.569-2.053,0.93-3.042l2.85-7.766h2.261l-5.07,13.554
			c-0.545,1.466-0.968,2.475-1.27,3.027c-0.399,0.743-0.858,1.29-1.38,1.636c-0.52,0.347-1.138,0.522-1.857,0.522
			C298.158,329.675,297.671,329.579,297.137,329.394z"/>
	</g>
	<g display="inline">
		<path fill="#1A171B" d="M323.562,373.81v-18.397h6.34c1.431,0,2.525,0.085,3.278,0.266c1.055,0.241,1.947,0.678,2.695,1.315
			c0.969,0.818,1.695,1.867,2.174,3.143c0.48,1.275,0.723,2.736,0.723,4.377c0,1.396-0.16,2.631-0.486,3.715
			c-0.324,1.074-0.748,1.968-1.255,2.676s-1.067,1.265-1.672,1.672c-0.612,0.406-1.346,0.713-2.199,0.924
			c-0.856,0.206-1.847,0.311-2.956,0.311h-6.642V373.81L323.562,373.81z M326.003,371.642h3.926c1.215,0,2.169-0.116,2.852-0.342
			c0.692-0.226,1.245-0.542,1.656-0.954c0.572-0.578,1.024-1.355,1.346-2.33c0.321-0.974,0.481-2.153,0.481-3.544
			c0-1.922-0.312-3.403-0.943-4.438c-0.632-1.035-1.398-1.727-2.305-2.078c-0.652-0.251-1.701-0.372-3.147-0.372h-3.863
			L326.003,371.642L326.003,371.642z"/>
		<path fill="#1A171B" d="M350.962,369.518l2.335,0.286c-0.367,1.366-1.052,2.425-2.043,3.178c-0.999,0.753-2.271,1.13-3.815,1.13
			c-1.953,0-3.499-0.603-4.639-1.802c-1.146-1.2-1.719-2.881-1.719-5.05c0-2.244,0.582-3.98,1.737-5.221
			c1.154-1.24,2.65-1.857,4.487-1.857c1.787,0,3.243,0.607,4.367,1.822c1.135,1.21,1.695,2.917,1.695,5.12
			c0,0.131-0.005,0.332-0.011,0.603h-9.938c0.079,1.461,0.49,2.58,1.238,3.363c0.748,0.773,1.672,1.165,2.786,1.165
			c0.828,0,1.536-0.216,2.118-0.653C350.153,371.164,350.619,370.472,350.962,369.518z M343.541,365.868h7.444
			c-0.101-1.124-0.387-1.963-0.854-2.525c-0.72-0.869-1.651-1.305-2.796-1.305c-1.039,0-1.912,0.347-2.62,1.039
			C344.013,363.775,343.621,364.704,343.541,365.868z"/>
		<path fill="#1A171B" d="M356.081,373.81v-18.397h2.261v18.397H356.081z"/>
		<path fill="#1A171B" d="M370.967,369.518l2.334,0.286c-0.371,1.366-1.049,2.425-2.048,3.178c-0.994,0.753-2.266,1.13-3.815,1.13
			c-1.947,0-3.494-0.603-4.633-1.802c-1.146-1.2-1.712-2.881-1.712-5.05c0-2.244,0.57-3.98,1.727-5.221
			c1.154-1.24,2.655-1.857,4.498-1.857c1.777,0,3.232,0.607,4.367,1.822c1.124,1.21,1.689,2.917,1.689,5.12
			c0,0.131-0.005,0.332-0.015,0.603h-9.938c0.085,1.461,0.502,2.58,1.243,3.363c0.743,0.773,1.679,1.165,2.786,1.165
			c0.828,0,1.536-0.216,2.123-0.653C370.156,371.164,370.618,370.472,370.967,369.518z M363.552,365.868h7.438
			c-0.101-1.124-0.382-1.963-0.854-2.525c-0.725-0.869-1.651-1.305-2.802-1.305c-1.034,0-1.907,0.347-2.615,1.039
			C364.012,363.775,363.621,364.704,363.552,365.868z M365.981,358.825l1.671-3.514h2.962l-2.761,3.514H365.981z"/>
		<path fill="#1A171B" d="M376.136,373.81v-13.328h2.021v1.873c0.417-0.652,0.976-1.18,1.667-1.576
			c0.692-0.396,1.485-0.598,2.369-0.598c0.989,0,1.797,0.206,2.43,0.618c0.635,0.407,1.079,0.979,1.335,1.717
			c1.057-1.556,2.432-2.334,4.117-2.334c1.325,0,2.339,0.366,3.054,1.1c0.713,0.733,1.062,1.857,1.062,3.383v9.146h-2.244v-8.393
			c0-0.904-0.075-1.556-0.216-1.953c-0.15-0.396-0.417-0.718-0.804-0.959c-0.381-0.246-0.833-0.366-1.354-0.366
			c-0.935,0-1.712,0.311-2.33,0.934c-0.622,0.623-0.934,1.621-0.934,2.997v7.74h-2.259v-8.659c0-1.004-0.183-1.757-0.554-2.259
			c-0.365-0.502-0.969-0.753-1.808-0.753c-0.633,0-1.225,0.166-1.757,0.502c-0.542,0.336-0.935,0.823-1.175,1.471
			c-0.246,0.643-0.366,1.571-0.366,2.781v6.917L376.136,373.81L376.136,373.81z"/>
		<path fill="#1A171B" d="M396.702,367.144c0-2.465,0.688-4.292,2.06-5.482c1.148-0.989,2.546-1.481,4.195-1.481
			c1.827,0,3.328,0.603,4.487,1.802c1.165,1.2,1.747,2.856,1.747,4.975c0,1.717-0.261,3.062-0.771,4.046
			c-0.515,0.984-1.268,1.747-2.249,2.294c-0.979,0.542-2.056,0.813-3.214,0.813c-1.866,0-3.372-0.598-4.527-1.797
			C397.28,371.119,396.702,369.397,396.702,367.144z M399.027,367.144c0,1.707,0.371,2.987,1.119,3.835
			c0.743,0.849,1.677,1.275,2.812,1.275c1.119,0,2.05-0.427,2.798-1.28s1.117-2.153,1.117-3.9c0-1.651-0.376-2.901-1.124-3.75
			c-0.753-0.849-1.682-1.27-2.79-1.27c-1.136,0-2.067,0.421-2.812,1.265C399.398,364.162,399.027,365.437,399.027,367.144z"/>
		<path fill="#1A171B" d="M411.844,373.81v-13.328h2.026v1.893c0.984-1.461,2.396-2.194,4.247-2.194
			c0.805,0,1.536,0.146,2.214,0.432c0.675,0.291,1.182,0.668,1.513,1.14c0.331,0.467,0.57,1.024,0.703,1.667
			c0.079,0.416,0.125,1.149,0.125,2.198v8.192h-2.261v-8.107c0-0.918-0.085-1.606-0.266-2.063c-0.171-0.457-0.482-0.823-0.934-1.095
			c-0.447-0.271-0.977-0.406-1.577-0.406c-0.958,0-1.787,0.306-2.489,0.918c-0.698,0.607-1.044,1.767-1.044,3.474v7.278
			L411.844,373.81L411.844,373.81z"/>
		<path fill="#1A171B" d="M431.069,371.792l0.321,1.993c-0.632,0.135-1.204,0.2-1.706,0.2c-0.818,0-1.456-0.13-1.908-0.386
			c-0.451-0.261-0.768-0.603-0.953-1.024c-0.182-0.422-0.271-1.315-0.271-2.671v-7.665h-1.656v-1.757h1.656v-3.298l2.244-1.355
			v4.654h2.271v1.757h-2.271v7.796c0,0.643,0.04,1.054,0.113,1.24c0.08,0.186,0.211,0.332,0.394,0.437
			c0.181,0.11,0.439,0.165,0.771,0.165C430.326,371.877,430.657,371.847,431.069,371.792z"/>
	</g>
</g>
</svg>
