<?xml version="1.0" encoding="utf-8"?>
<!-- Generator: Adobe Illustrator 16.0.0, SVG Export Plug-In . SVG Version: 6.00 Build 0)  -->
<!DOCTYPE svg PUBLIC "-//W3C//DTD SVG 1.1//EN" "http://www.w3.org/Graphics/SVG/1.1/DTD/svg11.dtd">
<svg version="1.1" id="Calque_1" xmlns="http://www.w3.org/2000/svg" xmlns:xlink="http://www.w3.org/1999/xlink" x="0px" y="0px"
	 width="1052px" height="694.488px" viewBox="0 0 1052 694.488" enable-background="new 0 0 1052 694.488" xml:space="preserve">
<path id="_x31_005" fill="#666666" d="M674.176,142.72l0.489-62.685l24.368-20.995l-6.775-7.991l-13.413-15.798l-26.494,12.015
	l-24.401,11.058l-62.753,14.992l3.85,37.524c9.284-6.516,16.736-9.726,28.935-16.104c5.095-2.951,7.719-4.094,10.503-3.122
	c1.757,0.614,3.573,2.068,6.104,4.431c6.557,6.12,9.913,10.634,1.752,15.736c-14.12,8.825-24.819,16.514-34.635,25.134l8.463,10.531
	l-24.405,20.626l4.941,15.633l-16.018,24.444l20.691,6.256l28.851-7.868l12.347,15.612l9.021-7.868l2.664-0.372l1.313-3.788
	l13.407-6.266l10.927-18.065l6.263-3.642l1.168-10.054l3.943,0.361c2.619,0.875,4.82,2.268,7.444-1.228
	c2.624-3.498,5.213-6.202,8.742-11.364c2.021-2.944,3.483-5.069,4.806-6.633l-21.61-0.772L674.176,142.72z"/>
<path id="ofsnbr1006" fill="#807F7F" d="M781.647,361.518c-3.521-0.539-7.593-1.427-12.526-2.725
	c-15.763-0.902-22.518-2.255-26.567-13.962c-1.734-5,1.857-10.56,3.605-18.865c1.749-8.306-0.437-17.483-3.497-23.603
	c-3.062-6.119-3.935-8.306,0-11.803c2.671-2.371,4.132-4.74,4.657-7.664c0.254-1.38,0.295-2.889,0.15-4.574
	c-0.547-6.592,1.27-11.393,11.803-31.911c5.149-10.025,8.619-16.35,10.612-21.069l-19.227-15.033l10.089-17.021l16.815,14.137
	c1.304-1.366,2.802-2.773,4.439-4.29c2.554-2.349,3.784-6.291,4.364-10.708c0.718-5.422,0.442-11.57,0.442-16.393
	c0-4.726-0.634-7.28-2.123-8.837c-1.263-1.325-3.134-1.926-5.746-2.527c-5.682-1.311-10.052-2.622-20.104-2.622
	s-20.543,0.873-29.723,0.436c-9.183-0.436-17.815-2.506-27.105-6.121c-4.833-1.884-6.698-4.425-7.003-7.731
	c-3.957,0.848-6.316,1.734-8.731,4.597c-1.322,1.565-2.786,3.688-4.806,6.632c-3.53,5.163-6.118,7.867-8.742,11.364
	c-2.621,3.498-4.822,2.104-7.444,1.229l-3.941-0.362l-1.17,10.054l-6.262,3.643l-10.927,18.064l-13.407,6.266l-1.312,3.787
	l0.151,9.327l8.739,8.452l9.621,3.786l1.777,5.402l5.924,9.876l0.313,23.084l8.536-1.551l7.404,13.054l-10.612,6.87l1.817,17.923
	l22.205,22.989l-1.995,19.1l-18.167,19.273l17.371,5.347l15.859-18.085l11.061,26.562l-4.164,11.525l9.849,15.134l12.572,1.953
	l14.089-6.759l18.633,17.997h17.921l12.677,10.86l6.339-10.408l-0.911-9.322l9.508-11.314l0.458-24.905l-23.085-3.161
	C782.147,376.92,781.647,361.518,781.647,361.518z"/>
<path id="ofsnbr1004" fill="#989898" d="M684.14,333.123l-22.205-22.989l-1.816-17.923l10.612-6.87l-7.404-13.052l-8.536,1.55
	l-0.314-23.084l-5.923-9.875l-1.778-5.402l-9.621-3.786l-8.739-8.452l-0.148-9.327l-2.668,0.372l-9.021,7.867l-12.347-15.612
	l-28.851,7.868l-20.69-6.256l2.162,18.481l-31.741,28.426l1.243,11.761l-23.874,21.363l-1.848,30.693l27.101,30.171l-6.717,6.338
	l13.273,23.688l11.896,7.177l35.431-23.493l13.739-2.248c2.366-2.533,4.477-3.377,5.89-3.141c1.108-3.6,1.96-6.817,2.653-10.802
	l9.072,10.79l17.72-1.201l18.878,6.014l14.403,9.333l18.167-19.272L684.14,333.123z"/>
<path id="ofsnbr1003" fill="#666666" d="M732.555,498.954l14.433,6.783l5.773,1.643l7.1-37.301l-12.239-28.555l11.626-16.348
	l-18.633-17.998l-14.087,6.759l-12.572-1.954l-9.85-15.134l4.164-11.525l-11.062-26.562l-15.859,18.085l-17.37-5.348l-14.404-9.336
	l-18.877-6.011l-17.72,1.201l-9.072-10.793c-0.693,3.988-1.546,7.205-2.653,10.805c-1.414-0.233-3.52,0.607-5.891,3.141
	l-13.739,2.248l-35.43,23.493l-19.455,16.222l1.879,11.701l-16.609,6.997l-12.24-6.612l-22.445,8.073l2.776,38.314l-5.683,2.622
	l6.121,18.741l7.868-5.19l11.909,21.139l13.299,12.636l-11.296,20.762l19.911,7.874l-6.854,17.248l-1.312,16.175l6.687,13.891
	l-10.49,5.246l-6.251,19.043l-4.077,23.309l5.238,23.583l22.739-7.267l14.341-26.415c9.694-14.868,25.602-20.481,47.724-16.845
	l22.829-21.144l10.664-15.714l41.917-24.147l12.349,10.67l4.491-12.348l14.028-8.418l21.705-18.907L732.555,498.954z"/>
<path id="ofsnbr1007" fill="#989898" d="M441.061,527.483c-9.275,7.807-21.025,14.627-26.227,29.724
	c-1.016,2.941-2.922,3.973-4.512,3.881c-2.396-0.16-4.924-3.256-7.29-8.252c-0.938-1.979-1.851-3.636-2.795-5.056l-20.224,4.876
	l-4.495,17.408l7.347,6.688l25.563,23.29l22.145-29.137l26.228,9.901l47.207,30.312l6.251-19.043l10.49-5.246l-6.687-13.894
	l1.312-16.172l6.854-17.248l-19.91-7.875l11.296-20.762l-13.299-12.635l-11.909-21.14l-7.868,5.19l-6.121-18.741l-27.976,3.498
	l-16.174-13.112l-20.882,21.772l-10.607,14.902l1.193,8.02l27.564,23.337l15.719-12.347
	C443.257,509.621,441.061,527.483,441.061,527.483z"/>
<polygon id="ofsnbr1002" fill="#807F7F" points="409.385,475.712 430.261,453.946 446.436,467.058 474.41,463.562 480.092,460.939 
	477.316,422.624 499.763,414.552 512.001,421.162 528.614,414.169 526.734,402.469 546.191,386.247 534.295,379.069 
	521.021,355.384 527.738,349.046 500.638,318.875 502.485,288.182 481.869,266.914 451.534,310.804 473.522,321.936 445.674,366.92 
	401.981,415.657 365.013,432.221 363.085,486.094 362.061,508.591 375.057,496.885 391.159,508.967 399.973,498.634 398.78,490.614 
	"/>
<path id="ofsnbr1001" fill="#666666" d="M526.36,266.819l-23.873,21.364l-20.617-21.268l8.221-11.904l-5.201-10.443l6.283-11.801
	l12.29,4.302l9.938-13.339l-10.693-32.012c3.513-2.937,6.743-6.202,9.709-9.7l-11.768-15.149l-14.396,15.155l-23.983-34.867
	c1.821-1.557,3.64-3.149,5.45-4.783c5.702-5.128,15.278-13.637,25.226-22.237l33.752,39.913c-2.261,4.514-4.814,8.975-7.691,13.242
	l8.108,8.879l4.143-10.401l13.963,8.1l-0.13,38.124l9.597-9.85l2.164,18.481l-31.744,28.426L526.36,266.819z M369.504,342.917
	l19.472-11.331l21.052,12.737c0.435-5.682,3.749-10.286,9.178-17.051c3.804-4.737,7.318-9.205,10.564-13.44l-23.676-19.191
	l-33.312,38.207l-7.81-1.011l-6.755,8.517L369.504,342.917z M353.768,329.666l1.482-9.518l-6.335-8.025l-20.184,21.629l9.421,9.01
	l4.185,4.012L353.768,329.666z M411.355,272.746l12.734,15.709l26.582-5.189c5.009-8.824,8.141-16.515,9.623-23.741
	c0.276-1.347,0.554-2.717,0.837-4.111l-13.291-10.492l-0.536-26.335l16.508-19.901l-26.282-29.82
	c-2.564,2.56-5.04,5.217-7.396,8.046c-10.929,13.114-22.729,23.167-43.71,36.717c-20.981,13.55-23.121,17.84-34.092,29.724
	c-2.621,2.842-5.02,5.158-7.249,7.036l25.448,24.192l17.033,16.2L411.355,272.746z"/>
<g>
	<path id="ID_x5F_9151_Lac_de_Neuchâtel" fill="#CCD3DA" d="M386.422,213.627c20.983-13.55,32.786-23.604,43.71-36.717
		c2.356-2.829,4.832-5.484,7.396-8.046c7.703-7.669,16.225-14.398,24.741-21.704c1.821-1.557,3.641-3.149,5.45-4.783
		c5.702-5.127,15.278-13.637,25.226-22.238c12.93-11.188,26.482-22.519,32.913-26.717c11.364-7.432,16.173-10.054,23.169-21.42
		c1.365-2.219,2.574-4.098,3.583-5.764c4.16-6.867,4.941-10.076-0.526-18.279c-4.985-7.479-7.414-10.542-9.636-11.16
		c-1.667-0.457-3.224,0.478-5.661,1.98c-5.687,3.496-8.743,4.371-19.673-0.874c-10.928-5.246-14.4-5.792-24.915,2.623
		c-17.483,13.987-20.544,14.423-24.914,15.299c-4.373,0.874-8.743,1.312-15.303,6.556c-3.279,2.622-7.103,5.462-10.709,8.306
		c-3.606,2.841-6.994,5.682-9.398,8.304c-4.806,5.246-7.431,6.557-7.867,13.552c-0.219,3.497-0.764,6.556-2.238,9.234
		c-1.475,2.678-3.882,4.973-7.815,6.939c-7.868,3.934-24.037,13.549-36.276,27.1c-12.24,13.548-27.104,29.724-32.347,40.65
		c-1.939,4.042-4.654,7.964-7.926,11.748c-5.578,6.434-12.772,12.464-20.486,17.976c-12.237,8.741-59.447,42.399-67.314,49.392
		c-7.868,6.995-7.868,10.928-3.496,14.861c0.935,0.841,1.81,1.713,2.737,2.514c3.422,2.965,7.448,4.904,16.933,0.109
		c36.28-18.357,44.585-20.543,53.766-17.484c7.648,2.554,14.389,4.194,25.535-5.203c2.228-1.877,4.627-4.193,7.249-7.036
		C363.3,231.467,365.441,227.179,386.422,213.627z"/>
	<path id="ID_x5F_9294_Lac_de_Morat_x2F_Murtensee" fill="#CCD3DA" d="M569.049,110.838c9.285-6.516,16.736-9.726,28.935-16.106
		c5.096-2.95,7.721-4.091,10.504-3.121c1.756,0.615,3.572,2.068,6.106,4.432c6.555,6.121,9.91,10.634,1.748,15.736
		c-14.12,8.825-24.818,16.514-34.631,25.134c-2.34,2.048-4.624,4.154-6.896,6.337c-6.935,6.679-13.116,8.306-22.729,0
		c-5.906-5.102-8.136-7.677-7.284-10.449c0.536-1.749,2.288-3.579,5.099-6.161C557.737,119.445,563.698,114.595,569.049,110.838z"/>
</g>
<g display="none">
	<g display="inline">
		<path fill="#1A171B" d="M605.35,340.193l2.061-0.18c0.1,0.829,0.322,1.505,0.686,2.037c0.356,0.527,0.91,0.956,1.658,1.284
			c0.752,0.325,1.594,0.491,2.534,0.491c0.833,0,1.572-0.126,2.207-0.374c0.636-0.248,1.116-0.586,1.425-1.019
			c0.312-0.433,0.469-0.906,0.469-1.415c0-0.519-0.148-0.969-0.45-1.356c-0.301-0.388-0.795-0.712-1.486-0.973
			c-0.446-0.175-1.424-0.442-2.941-0.807c-1.513-0.365-2.576-0.707-3.187-1.032c-0.787-0.415-1.374-0.924-1.762-1.537
			c-0.388-0.612-0.581-1.297-0.581-2.059c0-0.829,0.239-1.609,0.707-2.334c0.479-0.726,1.167-1.275,2.073-1.648
			c0.91-0.379,1.919-0.569,3.031-0.569c1.221,0,2.303,0.198,3.24,0.595c0.933,0.392,1.653,0.973,2.153,1.74
			c0.504,0.766,0.775,1.631,0.812,2.604l-2.091,0.153c-0.117-1.042-0.495-1.83-1.145-2.361c-0.651-0.536-1.613-0.802-2.879-0.802
			c-1.319,0-2.284,0.244-2.888,0.725c-0.604,0.487-0.91,1.068-0.91,1.753c0,0.595,0.216,1.081,0.644,1.464
			c0.42,0.383,1.516,0.774,3.294,1.176c1.775,0.401,2.998,0.752,3.659,1.055c0.96,0.442,1.668,1.004,2.126,1.685
			c0.46,0.68,0.686,1.46,0.686,2.347c0,0.879-0.252,1.708-0.751,2.482c-0.499,0.78-1.225,1.383-2.167,1.815
			c-0.947,0.433-2.005,0.644-3.18,0.644c-1.496,0-2.748-0.216-3.759-0.648c-1.009-0.437-1.805-1.095-2.379-1.969
			C605.684,342.289,605.381,341.302,605.35,340.193z"/>
		<path fill="#1A171B" d="M629.41,341.649l2.096,0.257c-0.334,1.225-0.942,2.175-1.839,2.851c-0.893,0.676-2.032,1.014-3.424,1.014
			c-1.751,0-3.136-0.541-4.159-1.617c-1.027-1.077-1.536-2.586-1.536-4.533c0-2.014,0.514-3.573,1.551-4.686
			c1.038-1.113,2.384-1.667,4.036-1.667c1.595,0,2.902,0.545,3.92,1.635c1.01,1.086,1.52,2.618,1.52,4.596
			c0,0.118-0.006,0.298-0.015,0.541h-8.921c0.076,1.312,0.448,2.316,1.117,3.02c0.667,0.694,1.508,1.044,2.5,1.044
			c0.744,0,1.38-0.193,1.906-0.585C628.684,343.127,629.1,342.505,629.41,341.649z M622.757,338.374h6.677
			c-0.093-1.009-0.344-1.762-0.766-2.266c-0.65-0.78-1.481-1.171-2.517-1.171c-0.926,0-1.712,0.312-2.347,0.933
			C623.168,336.495,622.819,337.329,622.757,338.374z"/>
		<path fill="#1A171B" d="M634.051,345.501V333.54h1.825v1.699c0.878-1.311,2.145-1.969,3.807-1.969c0.719,0,1.382,0.13,1.984,0.387
			c0.604,0.261,1.059,0.599,1.36,1.023c0.297,0.419,0.51,0.919,0.631,1.497c0.071,0.374,0.107,1.032,0.107,1.973v7.353h-2.027
			v-7.276c0-0.825-0.075-1.441-0.233-1.852c-0.155-0.41-0.438-0.739-0.835-0.982c-0.406-0.244-0.874-0.365-1.415-0.365
			c-0.868,0-1.609,0.275-2.235,0.825c-0.631,0.545-0.941,1.585-0.941,3.118v6.533H634.051L634.051,345.501z"/>
		<path fill="#1A171B" d="M646.069,341.934l2.01-0.315c0.106,0.803,0.424,1.415,0.938,1.848c0.514,0.424,1.234,0.639,2.158,0.639
			c0.932,0,1.622-0.189,2.07-0.567c0.45-0.379,0.676-0.825,0.676-1.334c0-0.459-0.196-0.819-0.6-1.082
			c-0.275-0.18-0.965-0.409-2.072-0.689c-1.486-0.375-2.514-0.699-3.089-0.974c-0.573-0.275-1.009-0.654-1.306-1.141
			c-0.298-0.482-0.441-1.019-0.441-1.604c0-0.532,0.114-1.027,0.362-1.482c0.242-0.455,0.573-0.829,0.998-1.13
			c0.315-0.234,0.745-0.428,1.288-0.591c0.545-0.162,1.127-0.243,1.753-0.243c0.942,0,1.764,0.135,2.475,0.405
			c0.706,0.271,1.234,0.635,1.567,1.099c0.343,0.459,0.573,1.077,0.702,1.852l-1.981,0.271c-0.091-0.617-0.353-1.095-0.785-1.442
			c-0.436-0.347-1.045-0.518-1.829-0.518c-0.933,0-1.595,0.153-1.996,0.464c-0.403,0.306-0.6,0.667-0.6,1.081
			c0,0.261,0.086,0.495,0.253,0.708c0.16,0.216,0.423,0.397,0.775,0.541c0.202,0.077,0.802,0.248,1.793,0.519
			c1.433,0.383,2.434,0.698,2.999,0.941c0.569,0.243,1.009,0.599,1.335,1.063c0.327,0.464,0.487,1.045,0.487,1.734
			c0,0.676-0.196,1.311-0.595,1.911c-0.392,0.595-0.961,1.059-1.703,1.383c-0.745,0.329-1.586,0.491-2.523,0.491
			c-1.559,0-2.739-0.325-3.555-0.969S646.292,343.2,646.069,341.934z"/>
		<path fill="#1A171B" d="M666.604,341.649l2.097,0.257c-0.328,1.225-0.942,2.175-1.833,2.851c-0.897,0.676-2.037,1.014-3.424,1.014
			c-1.753,0-3.142-0.541-4.163-1.617c-1.028-1.077-1.542-2.586-1.542-4.533c0-2.014,0.523-3.573,1.56-4.686s2.378-1.667,4.024-1.667
			c1.604,0,2.914,0.545,3.923,1.635c1.017,1.086,1.521,2.618,1.521,4.596c0,0.118-0.005,0.298-0.009,0.541h-8.921
			c0.071,1.312,0.443,2.316,1.114,3.02c0.67,0.694,1.501,1.044,2.499,1.044c0.744,0,1.381-0.193,1.9-0.585
			C665.878,343.127,666.297,342.505,666.604,341.649z M659.946,338.374h6.681c-0.09-1.009-0.347-1.762-0.766-2.266
			c-0.645-0.78-1.482-1.171-2.51-1.171c-0.933,0-1.718,0.312-2.353,0.933C660.367,336.495,660.019,337.329,659.946,338.374z"/>
	</g>
	<g display="inline">
		<path fill="#1A171B" d="M566.008,266.612l2.062-0.18c0.098,0.829,0.325,1.505,0.684,2.037c0.356,0.526,0.91,0.955,1.66,1.284
			c0.75,0.323,1.594,0.491,2.534,0.491c0.831,0,1.568-0.126,2.206-0.375c0.638-0.247,1.115-0.585,1.425-1.018
			c0.313-0.433,0.469-0.905,0.469-1.415c0-0.519-0.151-0.969-0.45-1.357c-0.3-0.387-0.793-0.711-1.487-0.973
			c-0.444-0.176-1.424-0.442-2.94-0.807c-1.514-0.364-2.576-0.708-3.187-1.032c-0.787-0.415-1.377-0.924-1.763-1.537
			c-0.387-0.614-0.581-1.297-0.581-2.059c0-0.829,0.235-1.609,0.709-2.334c0.474-0.725,1.165-1.275,2.073-1.649
			c0.908-0.378,1.92-0.567,3.03-0.567c1.223,0,2.302,0.198,3.239,0.595c0.933,0.392,1.653,0.974,2.156,1.739
			c0.502,0.766,0.772,1.631,0.811,2.604l-2.095,0.153c-0.112-1.041-0.493-1.829-1.143-2.361c-0.653-0.536-1.611-0.802-2.879-0.802
			c-1.322,0-2.284,0.243-2.888,0.726c-0.606,0.487-0.909,1.067-0.909,1.752c0,0.595,0.215,1.081,0.643,1.465
			c0.422,0.383,1.518,0.774,3.294,1.175c1.777,0.401,2.999,0.752,3.657,1.055c0.961,0.442,1.673,1.004,2.128,1.684
			c0.457,0.681,0.688,1.46,0.688,2.348c0,0.878-0.251,1.708-0.753,2.482c-0.502,0.78-1.226,1.383-2.167,1.816
			c-0.944,0.433-2.006,0.644-3.184,0.644c-1.494,0-2.744-0.216-3.756-0.649c-1.011-0.437-1.804-1.094-2.379-1.969
			C566.342,268.707,566.038,267.721,566.008,266.612z"/>
		<path fill="#1A171B" d="M590.073,268.068l2.09,0.256c-0.326,1.227-0.938,2.177-1.834,2.853s-2.031,1.014-3.424,1.014
			c-1.751,0-3.139-0.541-4.161-1.618c-1.027-1.077-1.538-2.585-1.538-4.532c0-2.014,0.519-3.573,1.553-4.686
			c1.039-1.113,2.381-1.667,4.032-1.667c1.6,0,2.906,0.545,3.92,1.635c1.014,1.086,1.522,2.617,1.522,4.596
			c0,0.117-0.009,0.298-0.014,0.541h-8.921c0.074,1.311,0.446,2.316,1.115,3.019c0.669,0.694,1.505,1.045,2.501,1.045
			c0.743,0,1.382-0.194,1.903-0.586C589.34,269.545,589.761,268.924,590.073,268.068z M583.414,264.792h6.677
			c-0.093-1.01-0.343-1.762-0.767-2.268c-0.646-0.779-1.477-1.171-2.509-1.171c-0.931,0-1.717,0.312-2.353,0.933
			C583.83,262.913,583.48,263.747,583.414,264.792z"/>
		<path fill="#1A171B" d="M602.899,268.068l2.095,0.256c-0.333,1.227-0.941,2.177-1.839,2.853c-0.891,0.676-2.031,1.014-3.424,1.014
			c-1.748,0-3.134-0.541-4.158-1.618c-1.027-1.077-1.537-2.585-1.537-4.532c0-2.014,0.514-3.573,1.553-4.686
			c1.037-1.113,2.383-1.667,4.037-1.667c1.595,0,2.902,0.545,3.92,1.635c1.01,1.086,1.518,2.617,1.518,4.596
			c0,0.117-0.006,0.298-0.016,0.541h-8.919c0.075,1.311,0.448,2.316,1.118,3.019c0.665,0.694,1.505,1.045,2.5,1.045
			c0.744,0,1.379-0.194,1.904-0.586C602.175,269.545,602.587,268.924,602.899,268.068z M596.243,264.792h6.677
			c-0.09-1.01-0.342-1.762-0.766-2.268c-0.649-0.779-1.482-1.171-2.515-1.171c-0.928,0-1.712,0.312-2.348,0.933
			C596.658,262.913,596.307,263.747,596.243,264.792z"/>
		<path fill="#1A171B" d="M606.022,272.2l4.785-17.077h1.622l-4.776,17.077H606.022z"/>
		<path fill="#1A171B" d="M571.792,294.989v-16.513h2.188v14.566h8.132v1.947H571.792L571.792,294.989z"/>
		<path fill="#1A171B" d="M592.263,293.512c-0.753,0.639-1.478,1.09-2.172,1.352c-0.696,0.265-1.442,0.396-2.234,0.396
			c-1.313,0-2.324-0.32-3.03-0.964c-0.705-0.64-1.059-1.459-1.059-2.46c0-0.585,0.133-1.122,0.4-1.604
			c0.269-0.487,0.617-0.874,1.046-1.167c0.433-0.293,0.919-0.514,1.46-0.663c0.4-0.108,0.999-0.207,1.808-0.306
			c1.636-0.193,2.836-0.428,3.612-0.698c0.01-0.28,0.01-0.456,0.01-0.527c0-0.829-0.191-1.411-0.574-1.749
			c-0.518-0.459-1.288-0.685-2.311-0.685c-0.952,0-1.656,0.167-2.111,0.5c-0.45,0.333-0.787,0.923-1.005,1.77l-1.982-0.271
			c0.181-0.847,0.479-1.532,0.891-2.055c0.412-0.523,1.01-0.924,1.791-1.204c0.784-0.284,1.685-0.424,2.717-0.424
			c1.018,0,1.85,0.123,2.488,0.361c0.641,0.239,1.109,0.54,1.406,0.906c0.302,0.365,0.514,0.825,0.631,1.379
			c0.069,0.347,0.104,0.974,0.104,1.875v2.703c0,1.883,0.039,3.074,0.13,3.573c0.086,0.5,0.257,0.978,0.514,1.438h-2.117
			C592.454,294.57,592.32,294.079,592.263,293.512z M592.091,288.987c-0.741,0.297-1.841,0.554-3.312,0.766
			c-0.833,0.117-1.425,0.253-1.768,0.404c-0.345,0.149-0.613,0.369-0.8,0.659c-0.187,0.288-0.278,0.608-0.278,0.964
			c0,0.541,0.204,0.991,0.612,1.352c0.41,0.36,1.01,0.54,1.803,0.54c0.78,0,1.471-0.17,2.081-0.514
			c0.608-0.343,1.053-0.811,1.341-1.406c0.217-0.455,0.323-1.131,0.323-2.027L592.091,288.987L592.091,288.987z"/>
		<path fill="#1A171B" d="M605.088,290.609l1.997,0.257c-0.222,1.374-0.775,2.45-1.677,3.226c-0.896,0.779-2,1.167-3.307,1.167
			c-1.637,0-2.952-0.536-3.947-1.604c-0.992-1.072-1.491-2.604-1.491-4.604c0-1.289,0.212-2.42,0.645-3.389
			c0.424-0.969,1.079-1.694,1.95-2.18c0.879-0.482,1.824-0.726,2.856-0.726c1.302,0,2.361,0.329,3.187,0.987
			c0.829,0.658,1.36,1.59,1.593,2.798l-1.972,0.302c-0.189-0.803-0.522-1.406-0.999-1.811c-0.479-0.405-1.055-0.609-1.73-0.609
			c-1.018,0-1.848,0.366-2.488,1.1c-0.639,0.73-0.957,1.888-0.957,3.474c0,1.609,0.307,2.775,0.919,3.505
			c0.616,0.726,1.424,1.09,2.415,1.09c0.79,0,1.46-0.243,1.988-0.73C604.607,292.371,604.948,291.619,605.088,290.609z"/>
	</g>
	<g display="inline">
		<path fill="#1A171B" d="M411.227,361.384v-16.513h6.195c1.262,0,2.273,0.167,3.037,0.5c0.762,0.333,1.359,0.851,1.789,1.545
			c0.435,0.694,0.65,1.419,0.65,2.176c0,0.708-0.191,1.374-0.574,1.996s-0.96,1.127-1.734,1.51c0.999,0.293,1.766,0.792,2.307,1.495
			c0.534,0.707,0.803,1.541,0.803,2.506c0,0.77-0.162,1.49-0.489,2.153c-0.328,0.667-0.731,1.181-1.213,1.54
			c-0.479,0.361-1.084,0.631-1.807,0.816c-0.725,0.185-1.612,0.275-2.664,0.275L411.227,361.384L411.227,361.384z M413.411,351.81
			h3.571c0.967,0,1.662-0.063,2.084-0.194c0.557-0.162,0.971-0.437,1.255-0.819c0.279-0.383,0.422-0.866,0.422-1.442
			c0-0.551-0.131-1.032-0.395-1.447c-0.263-0.419-0.638-0.702-1.127-0.856c-0.489-0.153-1.325-0.23-2.512-0.23h-3.299V351.81z
			 M413.411,359.438h4.11c0.704,0,1.202-0.027,1.486-0.082c0.502-0.09,0.924-0.238,1.262-0.45s0.614-0.518,0.831-0.919
			c0.22-0.4,0.326-0.865,0.326-1.387c0-0.617-0.157-1.154-0.473-1.609s-0.752-0.77-1.311-0.955
			c-0.562-0.186-1.366-0.275-2.417-0.275h-3.817L413.411,359.438L413.411,359.438z"/>
		<path fill="#1A171B" d="M426.422,361.384v-11.962h1.823v1.816c0.467-0.852,0.895-1.411,1.292-1.681
			c0.393-0.271,0.827-0.405,1.298-0.405c0.683,0,1.381,0.217,2.085,0.653l-0.699,1.884c-0.494-0.299-0.991-0.442-1.487-0.442
			c-0.445,0-0.84,0.135-1.193,0.401c-0.354,0.266-0.604,0.636-0.754,1.108c-0.226,0.721-0.338,1.51-0.338,2.365v6.263
			L426.422,361.384L426.422,361.384z"/>
		<path fill="#1A171B" d="M433.372,355.4c0-2.212,0.615-3.853,1.848-4.92c1.03-0.889,2.281-1.33,3.765-1.33
			c1.643,0,2.989,0.541,4.032,1.619c1.042,1.076,1.563,2.562,1.563,4.465c0,1.541-0.232,2.748-0.691,3.632
			c-0.464,0.884-1.136,1.568-2.019,2.06c-0.881,0.486-1.848,0.729-2.888,0.729c-1.677,0-3.028-0.536-4.062-1.612
			C433.887,358.97,433.372,357.423,433.372,355.4z M435.456,355.4c0,1.531,0.333,2.682,1.001,3.442
			c0.668,0.762,1.51,1.145,2.525,1.145c1.004,0,1.843-0.383,2.511-1.148c0.669-0.766,1.001-1.934,1.001-3.501
			c0-1.482-0.334-2.604-1.008-3.366c-0.671-0.762-1.509-1.14-2.505-1.14c-1.014,0-1.854,0.378-2.525,1.135
			C435.789,352.725,435.456,353.868,435.456,355.4z"/>
		<path fill="#1A171B" d="M446.866,365.988l-0.226-1.9c0.444,0.121,0.829,0.18,1.16,0.18c0.45,0,0.811-0.076,1.084-0.226
			c0.27-0.149,0.488-0.36,0.662-0.631c0.128-0.203,0.333-0.708,0.618-1.51c0.039-0.112,0.098-0.28,0.181-0.496l-4.539-11.985h2.188
			l2.488,6.926c0.323,0.883,0.616,1.803,0.87,2.775c0.232-0.933,0.512-1.842,0.832-2.73l2.557-6.971h2.027l-4.552,12.166
			c-0.488,1.316-0.867,2.221-1.138,2.717c-0.36,0.666-0.772,1.157-1.239,1.469c-0.467,0.311-1.021,0.469-1.667,0.469
			C447.783,366.24,447.346,366.155,446.866,365.988z"/>
		<path fill="#1A171B" d="M466.68,357.531l2.095,0.256c-0.331,1.227-0.941,2.177-1.836,2.853c-0.894,0.676-2.034,1.014-3.424,1.014
			c-1.752,0-3.138-0.54-4.161-1.617c-1.027-1.077-1.539-2.585-1.539-4.532c0-2.014,0.519-3.573,1.553-4.686
			c1.036-1.113,2.382-1.668,4.032-1.668c1.599,0,2.906,0.546,3.92,1.637c1.014,1.086,1.521,2.617,1.521,4.596
			c0,0.117-0.004,0.297-0.012,0.541h-8.921c0.074,1.312,0.446,2.316,1.115,3.02c0.668,0.693,1.502,1.045,2.501,1.045
			c0.743,0,1.379-0.193,1.903-0.586C465.955,359.01,466.371,358.388,466.68,357.531z M460.023,354.256h6.682
			c-0.092-1.01-0.347-1.762-0.766-2.266c-0.648-0.78-1.482-1.171-2.515-1.171c-0.928,0-1.714,0.312-2.35,0.933
			C460.442,352.377,460.09,353.211,460.023,354.256z"/>
	</g>
	<g display="inline">
		<path fill="#1A171B" d="M471.355,454.411v-1.937l6.995-0.009v6.127c-1.075,0.856-2.181,1.501-3.323,1.936
			c-1.142,0.433-2.312,0.646-3.511,0.646c-1.625,0-3.096-0.348-4.421-1.043c-1.328-0.695-2.326-1.698-3.002-3.015
			c-0.676-1.309-1.014-2.78-1.014-4.401c0-1.608,0.336-3.108,1.007-4.501c0.673-1.392,1.637-2.424,2.901-3.1
			c1.261-0.676,2.715-1.019,4.36-1.019c1.193,0,2.273,0.194,3.237,0.581c0.965,0.388,1.723,0.928,2.271,1.618
			c0.548,0.688,0.965,1.59,1.252,2.703l-1.973,0.538c-0.248-0.843-0.557-1.501-0.923-1.98c-0.367-0.484-0.896-0.867-1.578-1.153
			c-0.683-0.288-1.439-0.435-2.276-0.435c-0.999,0-1.862,0.149-2.591,0.454c-0.728,0.303-1.315,0.703-1.762,1.199
			c-0.448,0.495-0.795,1.042-1.043,1.637c-0.422,1.019-0.631,2.127-0.631,3.321c0,1.471,0.254,2.701,0.759,3.694
			c0.509,0.991,1.246,1.723,2.214,2.206c0.969,0.483,1.999,0.721,3.086,0.721c0.946,0,1.87-0.181,2.771-0.543
			c0.9-0.364,1.584-0.753,2.05-1.17v-3.078L471.355,454.411L471.355,454.411z"/>
		<path fill="#1A171B" d="M481.268,460.891v-16.513h2.027v16.513H481.268z"/>
		<path fill="#1A171B" d="M494.243,459.413c-0.749,0.643-1.474,1.091-2.167,1.352c-0.696,0.266-1.442,0.399-2.237,0.399
			c-1.312,0-2.323-0.319-3.029-0.965c-0.704-0.639-1.059-1.46-1.059-2.459c0-0.586,0.135-1.123,0.403-1.604
			c0.266-0.487,0.615-0.872,1.043-1.168c0.435-0.293,0.919-0.514,1.462-0.661c0.399-0.106,0.998-0.207,1.803-0.308
			c1.638-0.192,2.843-0.428,3.616-0.698c0.006-0.278,0.011-0.455,0.011-0.53c0-0.828-0.192-1.41-0.573-1.748
			c-0.52-0.459-1.29-0.685-2.31-0.685c-0.956,0-1.658,0.167-2.113,0.5c-0.453,0.333-0.788,0.924-1.007,1.768l-1.98-0.271
			c0.182-0.848,0.479-1.531,0.891-2.055c0.409-0.523,1.007-0.923,1.791-1.206c0.781-0.28,1.683-0.42,2.714-0.42
			c1.021,0,1.851,0.119,2.489,0.36c0.638,0.238,1.107,0.541,1.407,0.906c0.299,0.364,0.512,0.827,0.631,1.381
			c0.067,0.348,0.102,0.973,0.102,1.874v2.701c0,1.886,0.042,3.075,0.128,3.573c0.088,0.499,0.26,0.977,0.514,1.437h-2.115
			C494.44,460.472,494.303,459.98,494.243,459.413z M491.292,445.526l-1.273,1.915h-2.32l2.433-3.153h2.163l2.535,3.153h-2.298
			L491.292,445.526z M494.073,454.889c-0.736,0.299-1.84,0.555-3.312,0.768c-0.831,0.116-1.424,0.252-1.766,0.403
			c-0.347,0.149-0.616,0.368-0.8,0.659c-0.189,0.287-0.281,0.608-0.281,0.963c0,0.539,0.205,0.993,0.615,1.352
			c0.407,0.362,1.007,0.539,1.798,0.539c0.782,0,1.477-0.171,2.084-0.514c0.609-0.343,1.055-0.811,1.34-1.406
			c0.221-0.454,0.327-1.128,0.327-2.026v-0.739L494.073,454.889L494.073,454.889z"/>
		<path fill="#1A171B" d="M499.267,460.891v-11.962h1.825v1.698c0.879-1.311,2.146-1.969,3.807-1.969
			c0.719,0,1.382,0.131,1.987,0.387c0.604,0.262,1.057,0.601,1.357,1.022c0.299,0.42,0.511,0.917,0.631,1.497
			c0.073,0.373,0.112,1.032,0.112,1.973v7.354h-2.027v-7.276c0-0.825-0.079-1.441-0.237-1.85c-0.155-0.41-0.437-0.742-0.838-0.983
			c-0.403-0.243-0.872-0.364-1.415-0.364c-0.863,0-1.606,0.275-2.234,0.825c-0.627,0.545-0.939,1.588-0.939,3.12v6.53
			L499.267,460.891L499.267,460.891z"/>
		<path fill="#1A171B" d="M520.285,457.038l2.097,0.257c-0.33,1.224-0.944,2.177-1.837,2.853c-0.896,0.676-2.032,1.014-3.424,1.014
			c-1.75,0-3.139-0.541-4.16-1.618c-1.028-1.079-1.539-2.586-1.539-4.532c0-2.015,0.519-3.573,1.553-4.686
			c1.038-1.113,2.381-1.667,4.033-1.667c1.599,0,2.908,0.542,3.92,1.635c1.013,1.087,1.52,2.618,1.52,4.597
			c0,0.117-0.005,0.298-0.011,0.541h-8.921c0.074,1.311,0.447,2.315,1.115,3.019c0.668,0.693,1.505,1.042,2.5,1.042
			c0.744,0,1.382-0.192,1.904-0.583C519.56,458.517,519.978,457.895,520.285,457.038z M513.629,453.762h6.679
			c-0.09-1.008-0.345-1.764-0.766-2.268c-0.646-0.78-1.481-1.17-2.512-1.17c-0.931,0-1.717,0.312-2.353,0.933
			C514.047,451.885,513.697,452.718,513.629,453.762z"/>
	</g>
	<g display="inline">
		<path fill="#1A171B" d="M443.778,568.247l-6.401-16.514h2.365l4.292,11.998c0.344,0.959,0.635,1.861,0.868,2.703
			c0.255-0.903,0.552-1.805,0.89-2.703l4.461-11.998h2.23l-6.465,16.514H443.778z"/>
		<path fill="#1A171B" d="M461.102,564.395l2.095,0.256c-0.331,1.224-0.941,2.176-1.837,2.852c-0.894,0.676-2.034,1.012-3.424,1.012
			c-1.75,0-3.136-0.537-4.158-1.616c-1.029-1.078-1.541-2.585-1.541-4.53c0-2.016,0.521-3.573,1.554-4.688
			c1.037-1.112,2.382-1.667,4.033-1.667c1.598,0,2.907,0.543,3.921,1.637c1.014,1.085,1.521,2.617,1.521,4.596
			c0,0.116-0.005,0.297-0.013,0.54h-8.92c0.073,1.311,0.446,2.316,1.115,3.019c0.67,0.694,1.503,1.043,2.501,1.043
			c0.744,0,1.379-0.191,1.901-0.583C460.377,565.872,460.793,565.25,461.102,564.395z M454.445,561.118h6.68
			c-0.09-1.009-0.345-1.764-0.766-2.269c-0.646-0.779-1.48-1.17-2.511-1.17c-0.932,0-1.716,0.312-2.351,0.934
			C454.864,559.24,454.512,560.073,454.445,561.118z"/>
		<path fill="#1A171B" d="M469.066,568.247l-4.551-11.964h2.141l2.57,7.166c0.276,0.776,0.531,1.576,0.766,2.41
			c0.181-0.631,0.433-1.388,0.754-2.275l2.658-7.3h2.084l-4.528,11.964L469.066,568.247L469.066,568.247z"/>
		<path fill="#1A171B" d="M485.466,564.395l2.096,0.256c-0.332,1.224-0.942,2.176-1.836,2.852c-0.895,0.676-2.035,1.012-3.425,1.012
			c-1.75,0-3.138-0.537-4.16-1.616c-1.027-1.078-1.539-2.585-1.539-4.53c0-2.016,0.518-3.573,1.554-4.688
			c1.036-1.112,2.382-1.667,4.032-1.667c1.598,0,2.907,0.543,3.921,1.637c1.014,1.085,1.521,2.617,1.521,4.596
			c0,0.116-0.006,0.297-0.014,0.54h-8.919c0.073,1.311,0.446,2.316,1.115,3.019c0.667,0.694,1.503,1.043,2.501,1.043
			c0.743,0,1.379-0.191,1.901-0.583C484.74,565.872,485.157,565.25,485.466,564.395z M478.809,561.118h6.68
			c-0.09-1.009-0.345-1.764-0.766-2.269c-0.646-0.779-1.482-1.17-2.511-1.17c-0.932,0-1.716,0.312-2.351,0.934
			C479.229,559.24,478.876,560.073,478.809,561.118z"/>
		<path fill="#1A171B" d="M490.017,572.852l-0.228-1.898c0.446,0.121,0.829,0.181,1.163,0.181c0.448,0,0.811-0.077,1.081-0.226
			c0.271-0.149,0.49-0.361,0.664-0.631c0.129-0.203,0.332-0.708,0.618-1.51c0.038-0.11,0.097-0.278,0.18-0.493l-4.537-11.985h2.186
			l2.489,6.925c0.319,0.882,0.612,1.803,0.867,2.775c0.232-0.932,0.512-1.842,0.833-2.73l2.558-6.97h2.025l-4.551,12.165
			c-0.489,1.315-0.868,2.222-1.136,2.718c-0.361,0.666-0.774,1.157-1.241,1.468c-0.465,0.313-1.021,0.468-1.667,0.468
			C490.934,573.104,490.496,573.018,490.017,572.852z"/>
		<path fill="#1A171B" d="M500.83,564.679l2.005-0.316c0.112,0.803,0.426,1.415,0.939,1.848c0.516,0.424,1.234,0.641,2.158,0.641
			c0.931,0,1.622-0.19,2.072-0.569c0.448-0.377,0.674-0.824,0.674-1.333c0-0.459-0.196-0.823-0.598-1.084
			c-0.276-0.181-0.966-0.408-2.07-0.69c-1.487-0.373-2.516-0.7-3.093-0.973c-0.572-0.276-1.01-0.653-1.307-1.14
			c-0.295-0.482-0.444-1.019-0.444-1.602c0-0.531,0.122-1.029,0.365-1.482c0.243-0.455,0.574-0.828,0.998-1.131
			c0.315-0.233,0.744-0.428,1.289-0.59c0.545-0.161,1.128-0.243,1.753-0.243c0.941,0,1.764,0.138,2.476,0.405
			c0.705,0.271,1.232,0.635,1.568,1.1c0.338,0.46,0.572,1.077,0.701,1.85l-1.982,0.272c-0.09-0.616-0.352-1.094-0.782-1.441
			c-0.433-0.347-1.043-0.519-1.831-0.519c-0.932,0-1.595,0.151-1.994,0.465c-0.399,0.307-0.597,0.665-0.597,1.082
			c0,0.262,0.083,0.495,0.248,0.706c0.164,0.217,0.423,0.397,0.776,0.539c0.203,0.077,0.801,0.247,1.792,0.52
			c1.434,0.385,2.435,0.699,3.002,0.942c0.565,0.241,1.012,0.6,1.334,1.063s0.486,1.043,0.486,1.734c0,0.674-0.196,1.31-0.592,1.908
			c-0.395,0.596-0.962,1.059-1.706,1.384c-0.744,0.328-1.586,0.488-2.524,0.488c-1.553,0-2.74-0.321-3.552-0.967
			C501.575,566.903,501.055,565.944,500.83,564.679z"/>
		<path fill="#1A171B" d="M521.365,564.395l2.096,0.256c-0.33,1.224-0.942,2.176-1.836,2.852c-0.895,0.676-2.034,1.012-3.424,1.012
			c-1.751,0-3.139-0.537-4.161-1.616c-1.027-1.078-1.538-2.585-1.538-4.53c0-2.016,0.518-3.573,1.554-4.688
			c1.036-1.112,2.381-1.667,4.032-1.667c1.597,0,2.906,0.543,3.92,1.637c1.014,1.085,1.521,2.617,1.521,4.596
			c0,0.116-0.007,0.297-0.014,0.54h-8.918c0.071,1.311,0.445,2.316,1.114,3.019c0.667,0.694,1.503,1.043,2.5,1.043
			c0.744,0,1.38-0.191,1.902-0.583C520.639,565.872,521.055,565.25,521.365,564.395z M514.707,561.118h6.679
			c-0.09-1.009-0.344-1.764-0.766-2.269c-0.646-0.779-1.481-1.17-2.512-1.17c-0.93,0-1.714,0.312-2.35,0.934
			C515.126,559.24,514.776,560.073,514.707,561.118z"/>
	</g>
	<g display="inline">
		<path fill="#1A171B" d="M544.725,521.073v-1.936l6.996-0.012v6.128c-1.076,0.856-2.184,1.503-3.325,1.936
			c-1.14,0.434-2.313,0.645-3.512,0.645c-1.622,0-3.096-0.348-4.421-1.042c-1.326-0.694-2.326-1.698-3.002-3.013
			c-0.676-1.311-1.014-2.782-1.014-4.402c0-1.608,0.336-3.109,1.007-4.501c0.674-1.39,1.64-2.424,2.902-3.1
			c1.261-0.675,2.714-1.018,4.359-1.018c1.193,0,2.273,0.192,3.237,0.58c0.966,0.388,1.723,0.929,2.271,1.617
			c0.547,0.69,0.964,1.594,1.252,2.703l-1.973,0.538c-0.246-0.84-0.558-1.5-0.922-1.979c-0.366-0.482-0.895-0.866-1.577-1.153
			c-0.682-0.288-1.441-0.434-2.275-0.434c-0.999,0-1.863,0.148-2.591,0.454c-0.729,0.301-1.316,0.702-1.762,1.198
			c-0.448,0.495-0.796,1.042-1.043,1.638c-0.422,1.019-0.631,2.127-0.631,3.32c0,1.473,0.254,2.701,0.759,3.694
			c0.509,0.992,1.248,1.724,2.215,2.209c0.969,0.482,1.998,0.721,3.086,0.721c0.946,0,1.87-0.183,2.771-0.546
			c0.901-0.364,1.585-0.752,2.051-1.168v-3.078H544.725L544.725,521.073z"/>
		<path fill="#1A171B" d="M554.661,527.552v-11.963h1.823v1.816c0.466-0.852,0.896-1.411,1.292-1.681
			c0.393-0.271,0.827-0.404,1.298-0.404c0.683,0,1.381,0.217,2.083,0.653l-0.698,1.887c-0.494-0.298-0.992-0.444-1.487-0.444
			c-0.443,0-0.84,0.135-1.193,0.403c-0.354,0.267-0.604,0.635-0.755,1.108c-0.226,0.721-0.337,1.51-0.337,2.363v6.266h-2.025
			V527.552L554.661,527.552z"/>
		<path fill="#1A171B" d="M570.203,527.552v-1.758c-0.93,1.352-2.195,2.027-3.796,2.027c-0.705,0-1.365-0.135-1.979-0.405
			c-0.61-0.271-1.065-0.608-1.36-1.018c-0.298-0.407-0.507-0.91-0.624-1.506c-0.083-0.396-0.124-1.026-0.124-1.893v-7.412h2.025
			v6.638c0,1.054,0.041,1.771,0.124,2.138c0.128,0.534,0.4,0.955,0.812,1.255c0.411,0.306,0.923,0.455,1.531,0.455
			c0.61,0,1.178-0.153,1.715-0.465c0.531-0.313,0.91-0.741,1.128-1.274c0.224-0.536,0.334-1.316,0.334-2.334v-6.412h2.026v11.963
			L570.203,527.552L570.203,527.552z"/>
		<path fill="#1A171B" d="M575.103,532.156l-0.226-1.901c0.443,0.122,0.828,0.18,1.16,0.18c0.45,0,0.812-0.075,1.084-0.226
			c0.271-0.148,0.489-0.361,0.662-0.63c0.129-0.203,0.334-0.707,0.619-1.51c0.038-0.112,0.098-0.278,0.181-0.496l-4.539-11.984
			h2.188l2.488,6.926c0.323,0.883,0.616,1.803,0.87,2.775c0.232-0.933,0.512-1.844,0.831-2.73l2.558-6.971h2.027l-4.552,12.165
			c-0.488,1.316-0.867,2.223-1.137,2.718c-0.36,0.667-0.772,1.157-1.239,1.468s-1.02,0.469-1.667,0.469
			C576.02,532.408,575.585,532.322,575.103,532.156z"/>
		<path fill="#1A171B" d="M594.92,523.699l2.091,0.257c-0.327,1.226-0.938,2.176-1.835,2.852c-0.896,0.676-2.031,1.014-3.424,1.014
			c-1.754,0-3.14-0.54-4.161-1.618c-1.026-1.079-1.538-2.585-1.538-4.531c0-2.014,0.519-3.573,1.553-4.686
			c1.039-1.113,2.384-1.668,4.032-1.668c1.6,0,2.907,0.545,3.92,1.637c1.014,1.085,1.523,2.617,1.523,4.596
			c0,0.116-0.01,0.297-0.015,0.54h-8.92c0.075,1.311,0.446,2.315,1.113,3.019c0.67,0.693,1.507,1.043,2.505,1.043
			c0.739,0,1.38-0.191,1.9-0.584C594.188,525.176,594.609,524.555,594.92,523.699z M588.262,520.424h6.678
			c-0.094-1.009-0.344-1.765-0.767-2.268c-0.646-0.781-1.478-1.17-2.51-1.17c-0.933,0-1.719,0.311-2.35,0.932
			C588.679,518.544,588.327,519.378,588.262,520.424z M592.939,514.103h-1.638l-2.599-3.154h2.711L592.939,514.103z"/>
		<path fill="#1A171B" d="M599.535,527.552v-11.963h1.829v1.816c0.464-0.852,0.892-1.411,1.288-1.681
			c0.393-0.271,0.829-0.404,1.298-0.404c0.687,0,1.381,0.217,2.085,0.653l-0.698,1.887c-0.495-0.298-0.991-0.444-1.487-0.444
			c-0.44,0-0.837,0.135-1.193,0.403c-0.355,0.267-0.604,0.635-0.752,1.108c-0.226,0.721-0.343,1.51-0.343,2.363v6.266h-2.024
			L599.535,527.552L599.535,527.552z"/>
		<path fill="#1A171B" d="M615.429,523.699l2.097,0.257c-0.328,1.226-0.943,2.176-1.836,2.852c-0.897,0.676-2.034,1.014-3.424,1.014
			c-1.753,0-3.14-0.54-4.163-1.618c-1.027-1.079-1.541-2.585-1.541-4.531c0-2.014,0.523-3.573,1.559-4.686
			c1.036-1.113,2.376-1.668,4.026-1.668c1.603,0,2.912,0.545,3.92,1.637c1.018,1.085,1.521,2.617,1.521,4.596
			c0,0.116-0.004,0.297-0.009,0.54h-8.921c0.072,1.311,0.444,2.315,1.113,3.019c0.671,0.693,1.503,1.043,2.5,1.043
			c0.744,0,1.382-0.191,1.901-0.584C614.702,525.177,615.122,524.555,615.429,523.699z M608.77,520.424h6.682
			c-0.09-1.009-0.348-1.765-0.766-2.268c-0.645-0.781-1.482-1.17-2.51-1.17c-0.933,0-1.717,0.311-2.353,0.932
			C609.194,518.544,608.841,519.378,608.77,520.424z"/>
	</g>
	<g display="inline">
		<path fill="#1A171B" d="M530.328,393.856l2.063-0.181c0.096,0.829,0.321,1.505,0.682,2.037c0.356,0.526,0.911,0.955,1.661,1.283
			c0.749,0.324,1.595,0.491,2.533,0.491c0.831,0,1.57-0.126,2.209-0.373c0.637-0.249,1.112-0.587,1.424-1.019
			c0.314-0.434,0.469-0.906,0.469-1.416c0-0.518-0.149-0.969-0.448-1.355c-0.301-0.388-0.796-0.712-1.487-0.975
			c-0.446-0.176-1.426-0.441-2.942-0.807c-1.513-0.364-2.576-0.707-3.187-1.031c-0.787-0.415-1.378-0.924-1.763-1.537
			c-0.388-0.612-0.582-1.297-0.582-2.059c0-0.829,0.237-1.609,0.71-2.334c0.474-0.725,1.166-1.275,2.073-1.649
			c0.907-0.379,1.919-0.567,3.03-0.567c1.223,0,2.302,0.197,3.238,0.595c0.934,0.392,1.654,0.974,2.156,1.739
			s0.772,1.632,0.812,2.604l-2.096,0.153c-0.112-1.041-0.493-1.83-1.143-2.361c-0.651-0.536-1.609-0.803-2.878-0.803
			c-1.322,0-2.284,0.243-2.889,0.727c-0.606,0.486-0.907,1.067-0.907,1.752c0,0.596,0.214,1.082,0.642,1.465
			c0.421,0.383,1.518,0.775,3.295,1.176c1.776,0.402,2.998,0.753,3.655,1.055c0.962,0.442,1.675,1.005,2.129,1.686
			c0.457,0.682,0.689,1.46,0.689,2.348c0,0.879-0.252,1.707-0.754,2.482c-0.503,0.778-1.227,1.383-2.167,1.816
			c-0.944,0.432-2.006,0.644-3.184,0.644c-1.493,0-2.746-0.216-3.757-0.649c-1.011-0.437-1.804-1.094-2.378-1.969
			C530.661,395.951,530.358,394.964,530.328,393.856z"/>
		<path fill="#1A171B" d="M554.005,397.686c-0.747,0.639-1.472,1.09-2.167,1.352c-0.696,0.267-1.441,0.397-2.235,0.397
			c-1.312,0-2.324-0.319-3.029-0.964c-0.704-0.64-1.059-1.46-1.059-2.461c0-0.586,0.133-1.121,0.401-1.604
			c0.266-0.486,0.616-0.873,1.045-1.166c0.433-0.293,0.917-0.514,1.46-0.663c0.399-0.108,0.998-0.207,1.803-0.306
			c1.638-0.194,2.843-0.428,3.616-0.699c0.007-0.279,0.013-0.455,0.013-0.527c0-0.828-0.192-1.41-0.573-1.748
			c-0.52-0.459-1.29-0.685-2.31-0.685c-0.955,0-1.659,0.167-2.113,0.501c-0.451,0.333-0.787,0.924-1.007,1.771l-1.98-0.271
			c0.182-0.848,0.479-1.531,0.891-2.055c0.41-0.523,1.008-0.924,1.791-1.203c0.781-0.283,1.685-0.424,2.714-0.424
			c1.021,0,1.85,0.122,2.489,0.361c0.638,0.238,1.108,0.541,1.408,0.904c0.299,0.365,0.512,0.826,0.631,1.38
			c0.066,0.347,0.104,0.974,0.104,1.874v2.703c0,1.884,0.043,3.073,0.129,3.573c0.087,0.5,0.259,0.978,0.513,1.438h-2.117
			C554.201,398.744,554.069,398.253,554.005,397.686z M553.836,393.162c-0.736,0.297-1.84,0.554-3.312,0.766
			c-0.831,0.117-1.424,0.252-1.766,0.405c-0.345,0.149-0.616,0.37-0.8,0.657c-0.188,0.289-0.281,0.609-0.281,0.965
			c0,0.54,0.205,0.991,0.615,1.352s1.009,0.54,1.798,0.54c0.784,0,1.476-0.17,2.085-0.514c0.609-0.342,1.053-0.81,1.339-1.405
			c0.219-0.455,0.324-1.131,0.324-2.027L553.836,393.162L553.836,393.162z"/>
		<path fill="#1A171B" d="M559.007,399.164v-11.963h1.825v1.815c0.466-0.851,0.895-1.409,1.29-1.681
			c0.394-0.27,0.829-0.404,1.3-0.404c0.683,0,1.379,0.216,2.085,0.652l-0.702,1.884c-0.492-0.297-0.991-0.44-1.486-0.44
			c-0.444,0-0.838,0.135-1.194,0.4c-0.354,0.266-0.604,0.635-0.754,1.109c-0.226,0.721-0.336,1.51-0.336,2.365v6.263
			L559.007,399.164L559.007,399.164z"/>
		<path fill="#1A171B" d="M566.723,384.979v-2.329h2.027v2.329H566.723z M566.723,399.164v-11.963h2.027v11.963H566.723z"/>
		<path fill="#1A171B" d="M571.837,399.164v-11.963h1.824v1.698c0.878-1.312,2.147-1.97,3.807-1.97c0.721,0,1.382,0.131,1.989,0.389
			c0.604,0.262,1.054,0.6,1.355,1.022c0.3,0.419,0.512,0.919,0.629,1.495c0.074,0.375,0.112,1.033,0.112,1.975v7.354h-2.027v-7.277
			c0-0.824-0.078-1.441-0.233-1.852c-0.158-0.409-0.439-0.738-0.84-0.981c-0.402-0.243-0.872-0.364-1.413-0.364
			c-0.866,0-1.609,0.274-2.237,0.824c-0.624,0.545-0.939,1.586-0.939,3.117v6.534L571.837,399.164L571.837,399.164z"/>
		<path fill="#1A171B" d="M592.858,395.311l2.095,0.257c-0.328,1.226-0.941,2.177-1.833,2.853c-0.897,0.676-2.037,1.014-3.424,1.014
			c-1.753,0-3.139-0.541-4.163-1.617c-1.028-1.077-1.54-2.587-1.54-4.533c0-2.014,0.52-3.572,1.556-4.686
			c1.036-1.112,2.38-1.666,4.028-1.666c1.603,0,2.912,0.545,3.921,1.636c1.019,1.085,1.521,2.618,1.521,4.597
			c0,0.115-0.004,0.297-0.009,0.539h-8.923c0.073,1.311,0.446,2.316,1.116,3.02c0.67,0.693,1.502,1.045,2.5,1.045
			c0.744,0,1.38-0.194,1.899-0.586C592.132,396.789,592.549,396.166,592.858,395.311z M586.199,392.036h6.679
			c-0.09-1.009-0.347-1.762-0.766-2.267c-0.646-0.779-1.482-1.17-2.509-1.17c-0.934,0-1.718,0.311-2.354,0.933
			C586.617,390.157,586.268,390.99,586.199,392.036z"/>
	</g>
</g>
</svg>
