<?xml version="1.0" encoding="utf-8"?>
<!-- Generator: Adobe Illustrator 14.0.0, SVG Export Plug-In  -->
<!DOCTYPE svg PUBLIC "-//W3C//DTD SVG 1.1//EN" "http://www.w3.org/Graphics/SVG/1.1/DTD/svg11.dtd" [
	<!ENTITY ns_flows "http://ns.adobe.com/Flows/1.0/">
]>
<svg version="1.1"
	 xmlns="http://www.w3.org/2000/svg" xmlns:xlink="http://www.w3.org/1999/xlink" xmlns:a="http://ns.adobe.com/AdobeSVGViewerExtensions/3.0/"
	 x="0px" y="0px" viewBox="-114.921 -72.753 545 388"
	 enable-background="new -114.921 -72.753 545 388" xml:space="preserve">
<defs>
</defs>
<path id="2603" name="District de Porrentruy" fill="#4D4D4D" stroke="#FFFFFF" stroke-width="0.25" d="M148.968,132.823l-0.156-0.677l34.837-41.04l-4.021-15.582
	l12.564-16.083l1.029-0.257l1.484-2.256l-8.545-11.184l-11.058,2.639l-16.083-5.529l16.083-30.156h-8.544L142.435,0.133
	l-28.146,7.037c0,0-21.11-4.523-25.131-5.026S65.534,7.672,64.026,7.672s5.026,33.675,5.026,33.675s-18.095,8.545-19.603,8.545
	S34.372,69.493,34.372,69.493l-22.115,44.732l86.952-8.041l-1.508,20.607v2.513l21.11-8.544l8.042,2.512l11.56-8.544
	L148.968,132.823z"/>
<polygon id="2601" name="District de Delémon" fill="#4D4D4D" stroke="#FFFFFF" stroke-width="0.25" points="337.448,115.231 323.985,93.62 272.108,89.599 
	253.009,67.985 234.412,48.886 192.192,59.441 179.628,75.524 183.648,91.106 148.812,132.146 148.968,132.823 142.937,147.398 
	135.397,153.933 146.455,156.446 148.968,158.958 156.005,152.425 157.752,157.448 172.591,151.419 178.622,154.435 
	209.281,157.954 234.915,143.378 271.605,139.356 308.297,143.378 334.433,131.817 327.898,128.802 "/>
<polygon fill="#4D4D4D" stroke="#FFFFFF" stroke-width="0.25" points="148.812,132.146 148.968,132.823 148.812,132.146 "/>
<polygon id="2602" name="District des Franches-Montagnes" fill="#4D4D4D" stroke="#FFFFFF" stroke-width="0.25" points="156.005,152.425 148.968,158.958 146.455,156.446 
	135.397,153.933 142.937,147.398 148.968,132.823 138.413,114.729 126.854,123.272 118.812,120.761 97.701,129.305 97.701,127.596 
	81.618,130.812 78.1,147.398 46.938,159.964 48.445,178.561 45.43,195.147 0.194,239.377 7.231,244.403 15.272,237.869 
	19.294,252.444 30.352,251.942 51.461,227.817 70.058,235.356 75.084,224.802 88.654,220.277 99.209,198.665 107.251,189.116 
	121.827,193.64 149.974,184.592 146.958,171.524 160.025,163.985 "/>
</svg>
