<?xml version="1.0" encoding="utf-8"?>
<!-- Generator: Adobe Illustrator 16.0.0, SVG Export Plug-In . SVG Version: 6.00 Build 0)  -->
<!DOCTYPE svg PUBLIC "-//W3C//DTD SVG 1.1//EN" "http://www.w3.org/Graphics/SVG/1.1/DTD/svg11.dtd">
<svg version="1.1" id="Calque_1" xmlns="http://www.w3.org/2000/svg" xmlns:xlink="http://www.w3.org/1999/xlink" x="0px" y="0px"
	 width="1052px" height="694.488px" viewBox="0 0 1052 694.488" enable-background="new 0 0 1052 694.488" xml:space="preserve">
<path id="_x32_402" fill="#666666" d="M461.97,186.107l14.217,7.111l-2.078,28.456l-34.344,38.271l47.502,27.143l20.598-27.422
	l25.784-41.648l37.202-41.715v-33.039l21.046-40.149L560.973,36.98l-11.288,7.288c0.565,3.57-2.122,7.608-3.939,9.45
	c-6.462,6.463-15.47,11.695-25.804,21.392c-10.341,9.699-22.628,23.905-37.481,28.436c-14.865,4.528-29.727,11.633-42.006,18.094
	c-12.269,6.463-14.217,13.565-10.977,22.624c1.92,5.377-0.717,9.836-5.886,12.981l27.575,5.281L461.97,186.107z"/>
<path id="ofsnbr2403" fill="#7F7F7F" d="M198.301,396.777l69.905-8.895l39.249-13.752l29.144-20.005l21.134-16.005l60.949,38.629
	l49.751-27.144l-17.448-29.076l36.28-33.438l-47.502-27.143l34.345-38.271l2.079-28.456l-14.217-7.112l-10.814-23.604l-27.575-5.284
	c-3.535,2.15-8.25,3.68-13.5,4.479c-12.926,1.944-17.458,4.528-23.912,16.152c-5.484,9.887-9.107,12.76-17.217,18.963l34.241,27.783
	l-25.851,24.124l-20.68,0.869l-29.294,19.812l-13.78,35.331l-29.294,18.954l-17.236-4.302l-100.815,41.359l-10.341-15.514
	l-17.234,12.058l17.64,23.983L198.301,396.777z"/>
<polygon id="ofsnbr2406" fill="#999999" points="198.412,545.123 251.285,514.627 313.112,487.982 354.25,450.034 401.152,416.995 
	402.971,399.507 436.122,398.717 418.684,376.745 357.731,338.116 336.597,354.126 307.456,374.12 268.206,387.873 198.301,396.777 
	156.305,381.271 138.665,357.277 107.645,402.089 78.341,419.317 116.256,483.943 112.381,544.688 134.879,555.787 "/>
<path id="ofsnbr2401" fill="#666666" d="M505.078,449.913c18.096-20.039,42.003-34.256,53.655-40.065
	c5.795-2.909,9.37-6.302,11.551-10.261c2.186-3.959,2.989-8.481,3.296-13.651c0.646-10.339,4.546-12.279,11.633-20.034
	c3.573-3.878,8.562-8.079,13.918-12.279l1.249-55.265l-23.102,4.524l-34.94,23.089l-55.05-38.9l-36.281,33.438l17.449,29.076
	l-49.75,27.142l17.449,21.975l-33.148,0.785l-1.818,17.488l15.569,37.287l7.472,51.814l21.348,21.284
	c4.837-5.596,8.854-11.393,11.712-17.367C465.01,493.858,486.983,469.947,505.078,449.913z"/>
<polygon id="ofsnbr2405" fill="#999999" points="577.27,302.891 600.375,298.366 612.127,301.63 681.457,249.348 697.032,205.63 
	717.046,178.488 742.693,126.365 769.996,97.838 686.202,117.019 618.408,141.119 570.87,176.297 533.649,218.01 507.874,259.658 
	487.277,287.08 542.316,325.979 "/>
<path id="ofsnbr2404" fill="#7F7F7F" d="M781.045,243.113c8.279-2.584,13.107-5.29,18.716-9.048
	c-5.795-4.528-7.75-7.112,5.821-11.633c4.281-1.44,8.501-2.793,12.582-4.384l-16.017-29.646l16.357-12.925l-75.808-49.114
	l-25.648,52.125l-20.038,27.142l-15.57,43.718L612.11,301.63l-11.752-3.247l-1.253,55.26c5.334-4.2,10.99-8.401,15.837-12.284
	c9.693-7.755,16.156-8.396,22.618-9.703c6.481-1.301,10.985-1.942,36.837-22.624c15.526-12.438,20.68-11.632,36.834-3.874
	c16.14,7.752,20.682,6.462,29.061,1.292c3.615-2.221,5.916-3.614,8.381-2.929c5.15-6.74,8.037-18.216,10.361-33.903
	C761.654,252.159,770.7,246.35,781.045,243.113z"/>
<g>
	<path id="ID_x5F_9148_Bielersee_x2F_Lac_de_Bienne" fill="#CDD4DB" d="M876.678,202.54c5.171-6.463,5.171-8.724,1.615-12.282
		c-3.563-3.56-9.047-0.319-6.785,5.171c1.01,2.456,0,3.558-5.169,9.363c-5.171,5.816-17.126,11.633-26.821,18.096
		c-7.644,5.09-13.246,8.73-21.659,11.314c-8.402,2.584-13.559,1.294-19.386-3.226c-5.818-4.52-7.756-7.111,5.815-11.633
		c4.283-1.439,8.504-2.791,12.585-4.384c8.886-3.424,17.178-7.902,24.247-16.299c7.18-8.522,15.296-15.187,24.99-21.707
		c4.271-2.862,8.846-5.706,13.78-8.673c16.16-9.699,49.761-32.964,60.102-44.587c8.027-9.047,14.652-13.813,20.433-18.197
		c1.653-1.261,3.236-2.484,4.767-3.773c4.604-3.879,7.553-5.132,9.066-4.688c2.522,0.717,1.088,6.125-3.25,11.797
		c-8.402,10.983-14.873,20.682-21.974,40.721c-5.125,14.436-16.6,31.507-29.727,50.409c-2.687,3.876-5.229,7.319-7.809,10.455
		c-12.884,15.662-26.493,23.592-62.646,39.31c-14.864,6.465-20.034-11.633-20.034-11.633
		C852.754,222.579,865.064,217.046,876.678,202.54z"/>
	<path id="ID_x5F_9151_Lac_de_Neuchâtel" fill="#CDD4DB" d="M516.704,561.855c31.021-20.035,48.479-34.898,64.63-54.281
		c3.48-4.18,7.148-8.107,10.941-11.896c11.385-11.338,23.982-21.284,36.583-32.088c2.688-2.304,5.384-4.657,8.062-7.069
		c8.43-7.585,22.592-20.177,37.286-32.887c19.114-16.546,39.158-33.298,48.66-39.496c16.802-10.989,23.9-14.873,34.24-31.669
		c2.022-3.271,3.808-6.058,5.312-8.522c6.14-10.143,7.311-14.886-0.779-27.016c-7.371-11.051-10.965-15.59-14.238-16.505
		c-2.475-0.669-4.766,0.708-8.382,2.929c-8.386,5.172-12.918,6.462-29.07-1.293c-16.157-7.756-21.295-8.562-36.836,3.875
		c-25.847,20.682-30.374,21.322-36.824,22.624c-6.454,1.305-12.924,1.946-22.628,9.702c-4.848,3.875-10.507,8.075-15.827,12.287
		c-5.333,4.199-10.339,8.391-13.904,12.277c-7.105,7.756-10.976,9.696-11.631,20.035c-0.312,5.171-1.121,9.703-3.301,13.652
		c-2.181,3.956-5.746,7.353-11.552,10.258c-11.634,5.819-35.554,20.039-53.649,40.067c-18.096,20.034-40.067,43.944-47.822,60.1
		c-2.858,5.979-6.888,11.776-11.713,17.367c-8.25,9.51-18.883,18.416-30.283,26.576c-18.096,12.927-87.892,62.678-99.525,73.019
		c-11.633,10.339-11.633,16.144-5.172,21.967c1.377,1.241,2.678,2.534,4.041,3.706c5.061,4.394,11.019,7.25,25.031,0.173
		c53.649-27.145,65.921-30.382,79.501-25.846c11.309,3.772,21.272,6.208,37.756-7.696c3.281-2.776,6.835-6.2,10.705-10.399
		C482.526,588.23,485.686,581.89,516.704,561.855z"/>
</g>
</svg>
