<?xml version="1.0" encoding="utf-8"?>
<!-- Generator: Adobe Illustrator 16.0.0, SVG Export Plug-In . SVG Version: 6.00 Build 0)  -->
<!DOCTYPE svg PUBLIC "-//W3C//DTD SVG 1.1//EN" "http://www.w3.org/Graphics/SVG/1.1/DTD/svg11.dtd">
<svg version="1.1" id="Calque_1" xmlns="http://www.w3.org/2000/svg" xmlns:xlink="http://www.w3.org/1999/xlink" x="0px" y="0px"
	 width="1052px" height="694.488px" viewBox="0 0 1052 694.488" enable-background="new 0 0 1052 694.488" xml:space="preserve">
<path id="ofsnbr2601" fill="#989898" d="M764.97,234.664l-17.134-38.637l-13.617-0.846l-23.837-7.069l-27.244-22.136l0.655-15.958
	l-55.963,3.707l-49.022,27.755l-24.543,28.058l2.992,30.201l-30.724,47.179l-58.309,71.092l-33.902,39.503l0.599,11.84l48.207-7.137
	l47.562-4.273l7.396,17.588H653.74l37.456-33.909l46.921-13.273l135.276,22.442l68.213-37.313l-21.914,3.295v-18.729l32.209-24.63
	l-27.017-11.437l-26.007-30.777l-53.642,3.763l-33.196-14.875l-22.874-5.726c-0.015,0.003-6.797-27.175-6.797-27.175
	C776.132,228.935,770.366,231.426,764.97,234.664z"/>
<polygon id="ofsnbr2603" fill="#666666" points="404.204,320.025 442.913,305.539 460.591,322.627 468.223,358.008 526.531,286.916 
	557.252,239.737 554.26,209.535 578.806,181.477 564.449,144.467 526.988,154.182 489.063,146.32 514.504,70.456 521.441,54.737 
	477.964,58.434 440.957,38.085 372.963,61.21 316.995,34.387 271.667,54.737 282.769,127.815 218.937,160.197 214.314,207.377 
	187.488,208.298 177.308,241.6 151.408,252.702 144.003,298.96 173.609,294.329 214.314,296.186 257.789,288.781 307.743,274.905 
	344.75,282.308 351.227,330.41 371.086,331.648 "/>
<path id="ofsnbr2602" fill="#7F7F7F" d="M131.982,614.416l22.203,37.921l72.158-59.188l37,18.492l21.278-33.305l29.602-3.707
	l45.767-79.034l20.838-11.623l11.104,17.588l71.545-14.16l8.01-1.58l-12.022-35.146l27.759-12.944l-4.092-35.51l-48.207,7.135
	l-0.598-11.84l33.901-39.502l-7.632-35.381l-17.678-17.087l-38.709,14.484l-33.119,11.622l-19.86-1.234l-10.18,13.875l-40.7,5.545
	l-2.679,40.896c-1.805,1.45-3.621,3.102-5.881,4.897c-6.938,5.552-15.267,8.327-27.062,9.716
	c-11.795,1.391-20.812,5.548-34.688,6.247c-13.879,0.689-14.571,3.464-10.408,11.794c4.161,8.321,3.47,18.04,2.774,34.688
	c-0.693,16.655-1.393,20.12,3.466,28.449c4.856,8.323,5.896,10.97-4.16,16.652c-31.918,18.038-67.302,52.73-75.626,63.133
	c-4.168,3.469-9.025,9.021-10.407,13.878c-1.388,4.854-4.164,9.711-9.021,14.567c-4.856,4.857-11.104,8.327-20.122,13.88
	c-9.021,5.548-8.322,9.021-4.856,14.571c2.485,3.968,3.084,6.417,3.492,8.518l12.122-7.825L131.982,614.416z"/>
</svg>
