<?xml version="1.0" encoding="utf-8"?>
<!-- Generator: Adobe Illustrator 16.0.0, SVG Export Plug-In . SVG Version: 6.00 Build 0)  -->
<!DOCTYPE svg PUBLIC "-//W3C//DTD SVG 1.1//EN" "http://www.w3.org/Graphics/SVG/1.1/DTD/svg11.dtd">
<svg version="1.1" id="Calque_1" xmlns="http://www.w3.org/2000/svg" xmlns:xlink="http://www.w3.org/1999/xlink" x="0px" y="0px"
	 width="595.279px" height="453.543px" viewBox="-0.004 194.174 595.279 453.543"
	 enable-background="new -0.004 194.174 595.279 453.543" xml:space="preserve">
<path id="SA" fill="#999999" d="M564.93,447.426c0.216-0.674,0.586-1.544,0.876-2.189c0.3-0.67,0.638-1.612,1.095-2.188
	c0.317-0.402,0.994-0.691,1.312-1.094c0.271-0.345,0.574-1.128,0.574-1.128l-0.136-0.185c0,0-0.302-1.533-0.438-2.189
	c-0.125-0.591-0.18-1.422-0.44-1.969c-0.316-0.677-0.976-1.468-1.531-1.97c-0.458-0.415-1.161-0.904-1.751-1.095
	c-0.938-0.305-2.373,0.168-3.283-0.219c-0.98-0.419-1.629-2.02-2.624-2.407c-0.49-0.19-1.226,0-1.6-0.214l-0.08-3.237l-4.419-4.884
	l-1.627-0.464l-3.488,0.928l-3.257,1.396l-0.696,3.722l-1.395,3.721l-1.861,2.79l-1.629,0.232l0.466,2.092l-0.232,2.791
	l-2.325,1.629h-3.953l-2.557-0.467l-1.86-1.162l-1.63,1.629l-0.464,3.021l-1.163,2.326l-0.232,8.138l-5.582-0.232l-3.021,1.629
	l-3.258,3.022l-3.951,1.629l-8.837-0.465l-1.861-3.256l-3.487,0.233l-1.86-2.093l-2.326-4.651l-4.649-2.789l-3.023-0.467
	l-3.256-3.487l-5.813,0.697l-2.791-1.628l-4.65-3.023l-3.255-1.629l-1.163-1.162l0.233-1.628l-0.233-3.488l-0.697-1.862l1.395-4.881
	l1.397-1.86l-0.698-2.558l-1.162-2.094l-0.465-2.558l-4.884,2.326l-2.79-0.696l-3.023-1.396l-2.79-2.79l-4.185-2.093l-4.187-0.466
	l-5.581-0.931l-4.418-2.557l-6.278-1.396l-2.674,1.047l-2.906-0.348l-2.907-0.699l-1.279,0.583l-1.046,0.93l-2.906,0.93
	l-2.211-0.233l-0.696-1.396l-2.093-1.511l-2.907-0.117l-0.93,1.512l-0.93,1.047l-2.79,0.116l-2.106-1.006
	c0.331,0.538,0.307,1.521,0.576,2.142c-0.27-0.619-0.245-1.604-0.614-2.168c-0.409-0.548-1.351-0.677-1.551-1.236
	c-0.176-0.482,0.045-1.255,0.338-1.675c0.354-0.51,1.31-0.659,1.75-1.095c0.606-0.603,1.029-1.714,1.533-2.407
	c0.547-0.757,1.531-1.584,1.97-2.407c0.321-0.605,0.483-1.526,0.656-2.188c0.152-0.587,0.371-1.368,0.438-1.971
	c0.079-0.718,0.122-1.696,0-2.407c-0.168-0.962-0.749-2.15-1.094-3.064c-0.251-0.661-0.626-1.527-0.876-2.188
	c-0.346-0.912-0.726-2.16-1.094-3.064c-0.356-0.87-1.047-1.944-1.313-2.845c-0.132-0.445-0.13-1.076-0.219-1.532
	c-0.156-0.796-0.479-1.833-0.655-2.626c-0.147-0.653-0.316-1.53-0.438-2.188c-0.146-0.786-0.342-1.833-0.438-2.626
	c-0.103-0.85-0.305-1.994-0.218-2.845c0.048-0.475,0.218-1.107,0.438-1.531c0.386-0.748,1.248-1.516,1.751-2.188
	c0.48-0.643,1.07-1.535,1.532-2.188c0.651-0.923,1.592-2.105,2.188-3.065c0.514-0.823,1.243-1.919,1.532-2.844
	c0.177-0.568,0.158-1.378,0.219-1.97c0.071-0.722-0.048-1.733,0.218-2.407c0.274-0.696,0.939-1.512,1.531-1.97
	c0.398-0.305,1.119-0.376,1.533-0.656c0.539-0.364,1.197-0.976,1.532-1.531c0.459-0.765,0.621-1.989,0.875-2.845
	c0.136-0.458,0.215-1.11,0.438-1.532c0.24-0.452,0.67-1.024,1.094-1.313c0.343-0.234,0.967-0.212,1.313-0.438
	c0.896-0.581,1.844-1.716,2.406-2.625c0.48-0.778,0.697-2.021,1.094-2.846c0.396-0.823,1.121-1.812,1.533-2.626
	c0.449-0.893,0.827-2.189,1.312-3.064c0.391-0.7,1.104-1.511,1.532-2.188c0.283-0.447,0.626-1.065,0.877-1.531
	c0.276-0.518,0.347-1.493,0.875-1.751c0.3-0.146,0.761,0.187,1.094,0.219c0.785,0.078,1.841,0.057,2.627,0
	c0.463-0.033,1.095-0.059,1.532-0.219c0.582-0.212,1.489-0.532,1.751-1.094c0.194-0.421-0.082-1.088-0.219-1.532
	c-0.087-0.28-0.281-0.627-0.438-0.875c-0.399-0.633-0.983-1.459-1.532-1.969c-0.172-0.161-0.545-0.229-0.656-0.438
	c-0.216-0.404-0.051-1.074,0-1.531c0.066-0.603,0.392-1.367,0.438-1.971c0.081-1.049-0.02-2.468-0.219-3.501
	c-0.238-1.223-1.379-2.695-1.313-3.939c0.042-0.792,1.14-1.616,1.095-2.407c-0.022-0.382-0.438-0.78-0.655-1.095
	c-0.24-0.345-0.517-0.876-0.877-1.095c-0.571-0.348-1.577-0.164-2.188-0.438c-0.599-0.269-1.232-0.911-1.749-1.313
	c-0.332-0.257-0.683-0.801-1.095-0.875c-0.205-0.037-0.462,0.147-0.656,0.219c-0.332,0.121-0.748,0.371-1.095,0.438
	c-0.064,0.012-0.153,0-0.219,0c-0.328,0-0.803,0.149-1.094,0c-0.501-0.258-0.774-1.067-1.095-1.533
	c-0.134-0.194-0.313-0.453-0.438-0.656c-0.425-0.704-0.82-1.749-1.313-2.407c-0.39-0.521-1.089-1.055-1.532-1.533
	c-0.409-0.443-1.024-0.999-1.312-1.531c-0.227-0.42-0.439-1.531-0.421-1.466l-6.117-11.678l-8.894-5.343l-38.659-21.864
	l-11.172-0.219l-3.478,0.103l-2.674-0.697l-2.21-0.697l-0.465-1.279l-1.627-0.582l-5.465-2.558l-12.558-1.744l-4.534,1.628
	l-12.176,6.463c0,0-1.133,0.592-1.818,0.76c-0.642,0.157-1.531,0.277-2.189,0.219c-0.477-0.043-1.096-0.242-1.532-0.438
	c-0.781-0.351-1.629-1.176-2.407-1.532c-0.623-0.286-1.534-0.45-2.189-0.657c0.654,0.207,1.568,0.369,2.191,0.654l-0.109-1.286
	l-0.699-1.162l-1.047-1.163l-0.465-0.697l-0.93-2.094l-1.512-1.744v-1.396l0.932-0.928l1.045,0.231l0.93-0.231l0.581-0.466
	l-0.349-1.163l-1.279-0.697l-1.627-1.279l-1.86-0.582l-0.931-0.232l-1.977-0.698l-1.394-0.698l-0.814-0.349l-0.582-1.279
	l-0.116-0.582l-1.164-0.231l-0.812,0.231l-0.93,0.582l-1.164,0.93l-1.047,0.814l0.117,1.163l-0.349,0.929l0.697,0.93l1.164,0.465
	l1.394,0.231l1.163,0.699l0.814,0.929l-0.35,1.163l-0.813,1.512l-0.465,1.279l-0.714,1.397c0.646,0.087,1.528,0.041,2.183,0
	c-0.655,0.041-1.537,0.086-2.188,0c-0.742-0.1-1.702-0.406-2.407-0.658c-0.608-0.217-1.419-0.533-1.97-0.875
	c-0.435-0.271-0.845-0.886-1.312-1.095c-0.425-0.189-1.079-0.123-1.533-0.218c-0.466-0.1-1.082-0.278-1.532-0.438
	c-0.471-0.168-1.064-0.479-1.531-0.658c-0.194-0.074-0.451-0.193-0.657-0.219c-0.849-0.104-1.994,0.125-2.845,0.219
	c-0.461,0.05-1.077,0.311-1.532,0.218c-0.375-0.075-0.733-0.528-1.095-0.655c-0.438-0.156-1.087-0.349-1.532-0.219
	c-0.58,0.169-1.013,1-1.531,1.313c-0.302,0.182-0.777,0.281-1.095,0.438c-0.342,0.17-0.714,0.702-1.107,0.635l-0.01,0.012
	c-0.169-0.043-0.285-0.308-0.414-0.427c-0.092-0.084-0.195-0.174-0.303-0.265c0.048,0.042,0.098,0.08,0.146,0.125l-0.391-0.954
	l0.233-1.278l0.348-1.512l-0.231-1.279l0.813-1.163l0.697-0.698l1.512-0.233l1.627-0.116l2.209,0.231l0.813,0.582l0.93,1.163
	l1.164,0.233l1.279-0.233l0.231-1.627l-1.047-1.511l-1.511-1.279l-0.35-1.744l0.698-1.744l1.279-1.859l0.699-0.582l-0.699-2.093
	l-1.977-0.929l-1.511,0.117l-1.512,0.697l-0.581,0.813l-1.512,0.117l-0.232-0.93l0.232-2.325v-1.396l-0.349-0.93l-0.931-0.93
	l-1.28-1.162l-1.512-1.396l-1.627-1.395l-0.233,1.164l0.233,1.627l0.931,3.256l-1.047,1.977l-0.699,0.813l-1.627-0.349l-1.163-1.047
	l-0.699-1.86l-0.348-1.512l-0.117-1.627l0.117-1.164l0.348-1.278l-2.558-1.047l-1.279-0.582l-2.674-0.697h-2.208l-1.279,0.349
	l-0.232,1.512l0.813,0.697l0.464,1.279l0.233,1.512l-1.047,1.047l-1.512,0.117l-2.093-0.465l-1.395,0.697l-1.394,0.931l-1.28,0.348
	h-1.511l-2.094,0.465l-1.86,0.929l-1.512,1.164l-1.279,1.163l-1.28,1.396l-0.696,1.744l-0.813,1.86l-0.465,1.744l-0.931,1.627
	l-1.395,1.396l-1.627,1.512l-1.745,1.627l-0.93,1.861l0.697,2.209l-0.232,1.395l-1.045,2.092l-0.233,1.86l1.395,0.35l1.512,1.162
	l1.279,1.162h2.44h1.976l0.813,0.467l0.233,1.627l-0.233,1.164l0.233,0.813l0.813,0.232l0.349-0.58l0.582-0.814l2.558-0.581l5,0.116
	l0.233-0.349l-0.465-0.697l0.465-1.628l1.278-0.465l0.699-0.813l1.083-0.568l0.33-0.657l1.233-0.33l2.714,0.081l2.137,0.082
	l1.152-0.575l0.821-0.247l1.151,0.411l1.233,0.739l0.657,0.659l1.095,1.178c-0.318-0.512-0.376-1.427-0.405-2.032
	c0.029,0.605,0.098,1.52,0.411,2.032c0.293,0.375,1.067,0.596,1.339,1.031c0.288,0.458,0.398,1.211,0.438,1.75
	c0.048,0.658,0.113,1.618-0.217,2.188c-0.284,0.489-0.978,0.99-1.532,1.095c-0.266,0.05-0.616-0.143-0.875-0.218
	c-0.2-0.058-0.52-0.063-0.657-0.218c-0.221-0.251-0.133-0.77-0.218-1.095c-0.108-0.401-0.023-1.306-0.438-1.313
	c-0.559-0.011-0.517,1.207-0.656,1.75c-0.116,0.45-0.212,1.069-0.219,1.533c-0.009,0.594,0.075,1.393,0.219,1.971
	c0.087,0.342,0.352,0.75,0.438,1.095c0.144,0.576,0.214,1.374,0.217,1.968c0.005,0.661-0.017,1.56-0.217,2.188
	c-0.162,0.504-0.555,1.112-0.876,1.532c-0.394,0.517-1.095,1.051-1.595,1.56c-0.562,0.664-1.465,1.557-1.906,2.381
	c0.441-0.823,1.224-1.654,1.85-2.346l-0.714-0.106l-1.151-0.165l-1.479-0.658l-0.659-0.986l0.659-1.15l-0.495-1.315l-0.822-1.315
	l-1.644-0.821l-1.48-0.494l-1.643-1.15l-1.15-0.987l-2.137,0.166l-2.633,1.315l-2.136,1.151l-1.48,0.821l-1.809,1.15l-0.824,1.809
	l-0.329,1.48l-0.493,1.809l0.822,0.986l2.304,0.659l2.136-0.33l-0.431,1.789c-0.408,0.158-0.539,0.87-0.893,1.097
	c-0.911,0.585-2.452,0.612-3.502,0.875c-0.787,0.197-1.824,0.531-2.626,0.657c-0.974,0.153-2.294,0.24-3.282,0.219
	c-0.594-0.014-1.399-0.051-1.97-0.219c-0.423-0.125-0.911-0.477-1.324-0.665c-0.322-0.146-0.737-0.363-1.084-0.43
	c-0.258-0.049-0.633-0.101-0.875,0c-0.516,0.213-1.039,0.828-1.313,1.313c-0.134,0.235-0.004,0.708-0.218,0.875
	c-0.569,0.445-1.686,0-2.407,0c-0.789,0-1.841,0.061-2.626,0c-0.86-0.066-1.971-0.438-2.844-0.438c-0.875,0-1.86-1.036-2.626-1.532
	c-0.475-0.307-0.219-0.875-1.531-1.095c-1.313-0.218-1.686-1.686-2.407-2.406c-0.59-0.591-1.613-1.214-1.97-1.969
	c-0.282-0.597-0.011-1.562-0.219-2.19c-0.119-0.363-0.349-0.866-0.656-1.095c-0.435-0.322-1.214-0.372-1.751-0.438
	c-0.587-0.071-1.386,0.095-1.97,0c-0.41-0.067-0.904-0.371-1.312-0.438c-0.453-0.073-1.073-0.041-1.531,0
	c-0.732,0.066-1.678,0.373-2.407,0.438c-0.261,0.025-0.615,0.033-0.875,0c-0.269-0.033-0.629-0.105-0.876-0.218
	c-0.512-0.237-1.164-0.664-1.531-1.095c-0.191-0.223-0.202-0.701-0.438-0.875c-0.321-0.237-0.939-0.361-1.312-0.218
	c-0.393,0.149-0.564,0.809-0.875,1.095c-0.349,0.32-0.94,0.583-1.313,0.875c-0.769,0.602-1.906,1.351-2.406,2.188
	c-0.14,0.233-0.049,0.665-0.22,0.875c-0.273,0.344-0.918,0.459-1.311,0.657c-0.526,0.262-1.2,0.672-1.751,0.875
	c-0.253,0.095-0.607,0.186-0.875,0.219c-0.587,0.072-1.413-0.195-1.971,0c-0.396,0.14-0.772,0.604-1.094,0.875
	c-0.604,0.51-1.315,1.307-1.97,1.751c-0.122,0.082-0.299,0.168-0.438,0.218c-0.508,0.188-1.214,0.372-1.751,0.438
	c-0.326,0.04-0.797-0.14-1.095,0c-0.464,0.217-0.918,0.831-1.094,1.313c-0.046,0.123,0,0.306,0,0.438c0,0.459,0.105,1.084,0,1.532
	c-0.101,0.428-0.445,0.927-0.657,1.313c-0.184,0.334-0.324,0.905-0.656,1.095c-0.228,0.129-0.612,0-0.875,0
	c-0.657,0-1.566,0.208-2.189,0c-0.311-0.104-0.603-0.473-0.875-0.656c-0.317-0.215-0.714-0.601-1.094-0.657
	c-0.269-0.04-0.648,0.072-0.876,0.218c-0.354,0.228-0.578,0.796-0.875,1.095c-0.297,0.297-0.766,0.613-1.095,0.875
	s-0.718,0.689-1.095,0.875c-0.484,0.24-1.214,0.371-1.751,0.438c-0.848,0.104-1.993,0.052-2.846,0
	c-0.528-0.033-1.245-0.065-1.75-0.218c-0.422-0.128-0.89-0.539-1.312-0.657c-0.762-0.214-1.839-0.153-2.626-0.218
	c-0.788-0.065-1.837-0.187-2.626-0.218c-0.591-0.024-1.445-0.271-1.971,0c-0.502,0.258-0.773,1.067-1.095,1.531
	c-0.269,0.39-0.484,1.045-0.875,1.313c-0.499,0.343-1.401,0.648-1.97,0.438c-0.308-0.114-0.396-0.675-0.656-0.875
	c-0.561-0.43-1.62-0.454-2.189-0.875c-0.337-0.25-0.682-0.721-0.876-1.095c-0.218-0.425-0.338-1.063-0.438-1.531
	c-0.097-0.454-0.098-1.083-0.218-1.531c-0.091-0.342-0.303-0.768-0.438-1.095c-0.19-0.462-0.434-1.085-0.656-1.532
	c-0.236-0.474-0.501-1.157-0.876-1.531c-0.375-0.374-1.032-0.698-1.532-0.875c-0.377-0.133-0.914-0.208-1.312-0.218
	c-0.595-0.017-1.407,0.028-1.971,0.218c-0.361,0.123-0.751,0.487-1.095,0.656c-0.316,0.157-0.754,0.343-1.094,0.438
	c-0.384,0.108-0.913,0.214-1.312,0.219c-0.465,0.006-1.089-0.08-1.532-0.219c-0.56-0.175-1.179-0.74-1.751-0.875
	c-0.32-0.076-0.791-0.126-1.095,0c-0.258,0.106-0.501,0.426-0.657,0.657c-0.28,0.414-0.473,1.068-0.657,1.532
	c-0.282,0.714-0.481,1.747-0.875,2.406c-0.405,0.679-1.124,1.489-1.751,1.97c-0.583,0.447-1.505,0.829-2.189,1.095
	c-0.891,0.347-2.16,0.567-3.063,0.875c-0.668,0.229-1.514,0.664-2.188,0.875c-0.836,0.262-1.99,0.472-2.846,0.656
	c-0.655,0.142-1.537,0.285-2.133,0.423l0.228,1.27l-0.286-1.254c-0.727,0.171-1.724,0.346-2.406,0.656
	c-0.431,0.196-0.885,0.673-1.312,0.875c-0.807,0.383-1.991,0.616-2.845,0.875c-0.656,0.198-1.503,0.666-2.188,0.657
	c-0.623-0.009-1.394-0.418-1.97-0.657c-0.677-0.281-1.61-0.643-2.188-1.095c-0.477-0.373-0.931-1.064-1.313-1.533
	c-0.474-0.579-1.133-1.335-1.532-1.968c-0.391-0.623-0.516-1.66-0.945-2.143l0.028-0.021l1.213-1.369l0.658-1.644l0.492-0.986
	l1.645,0.165l1.48-1.151v-0.821l-0.33-0.658l-1.314-0.493l-0.165-1.809l1.479-1.48l0.166-0.986l-1.152-0.165l-1.809,1.315
	l-1.643,0.822l-2.189,0.875l-2.415,0.269l-1.94,0.927l-2.666,2.864l-0.579,3.227l-2.269,2.272l-2.171,1.101l-2.206,0.269
	l-2.476,0.571l-2.795,0.944l-2.138,2.795l0.494,3.452l1.48,1.81v2.96l-1.834,2.627l-0.021-0.001l-1.762,2.143
	c0,0-2.794,1.151-3.946,0.986c-1.151-0.165-1.645-1.48-1.645-1.48l-1.973-1.972l-1.48-0.823l-1.479,0.165l-1.809,2.138l1.479,0.492
	l1.809,1.151l1.973,1.809l-1.317,1.315l-0.375,0.481l-0.024-0.043l-1.243,1.042l-1.151,1.15l-1.48,3.127l0.002,0.001l-3.126,2.627
	l-2.897,1.473l0.018,0.018l0.162,1.381l-0.18-1.399c-0.27-0.184-0.713-0.422-1.055-0.508c-0.95-0.243-2.289-0.125-3.25-0.31
	c-0.808-0.156-1.815-0.67-2.638-0.771l-0.097,2.214l3.21,2.968l4.342,0.424v-0.002h0.002l-0.001-0.009l5.286,0.738l-5.285-0.729
	v0.002h-0.002l0.322,1.574l0.848,1.514l4.058,3.634l1.242,1.877l2.271,0.424l1.455-0.23l0.002-0.014l2.236,3.756l4.844,1.09
	l4.24-1.09l3.392,0.364v3.453l0.304,2.362l1.15,2.786l0.544,1.211l5.269-0.061l-0.333,2.149l-0.213-0.029l-1.757,2.726l-1.575,1.393
	l-1.15,1.696l-1.817,1.211l-4.724,1.333l-2.241,0.848l-1.938,1.636l-0.544,2.241l-0.485,0.848l-1.089,0.364l-3.332,0.727
	l-2.847,0.363l-0.06,2.423l-2.727,2.302l-3.089,1.877l-4.665,2.12l-4.178,1.694l0.667,5.33l1.271,1.514l2.604,0.788l1.03,0.485
	l0.908,3.693l0.706,1.337c0.334-0.278,0.95-0.383,1.301-0.638c0.295-0.214,0.56-0.654,0.86-0.861c0.524-0.359,1.426-0.48,1.938-0.86
	c0.478-0.355,1.017-0.977,1.29-1.505c0.244-0.473,0.167-1.258,0.43-1.721c0.181-0.318,0.517-0.739,0.86-0.861
	c0.55-0.193,1.356,0.289,1.936,0.215c0.547-0.068,1.245-0.368,1.721-0.646c0.436-0.253,0.875-0.791,1.291-1.075
	c0.546-0.376,1.315-0.835,1.936-1.075c0.525-0.204,1.38-0.088,1.79-0.459l0.232,3.244l0.244,3.149l2.362,3.634l-1.454,2.847
	l-1.272,0.364l-2.24-0.121l-3.149-0.182l-1.575,2.059l-1.151,1.696v2.241l-0.545,1.635l-3.574,0.243l-1.755,0.181l-1.09-0.908
	l-2.241-0.363l-0.848,0.605l-0.121,1.756l0.788,1.878l1.029,2.241l1.756,2.968l0.424,0.544l0.666-0.484l2.363-1.696l1.877-1.029
	l1.878-0.546l-0.062,1.818l-0.181,1.393l1.029,1.393l2.181-0.121l2.241-0.848l1.333-1.03l0.303-1.635l-0.847-1.212l-0.788-1.452
	l0.363-0.848l2.907-1.393l2.423-1.393l2.361-1.575l1.636-3.089l0.847-3.391l0.424-2.605l2.362-0.727l1.635-0.606l1.999,0.424
	l1.999,1.272l1.696,1.635l4.179,0.787l4.178,0.243l2.362-0.727l2.847-2.423l1.817-2.422l0.06-1.757l-0.302-2.241l-1.817-1.757
	l-1.938-0.969l-1.454-1.514l-1.271-1.878l-1.999-3.937l0.119-0.969l-0.424-1.575l-1.635-0.909l-1.09-0.848l-1.452,0.06l-1.454-0.302
	v-2.119L66,354.022l0.303-1.817l-0.061-1.272l-0.183-1.454l1.878,0.182l5.875,0.605l1.575-0.242l2.362-0.969l2.362-0.787
	l1.576-0.909l2.664,0.303l0.848,1.029l2.181,3.028l1.393,3.452l2.665,0.364l2.725-0.303l2.786-1.333l1.03-0.667l1.424,2.19
	c0.455-0.386,0.993-1.022,1.474-1.408c0.369-0.298,0.947-0.585,1.301-0.904c0.311-0.282,0.563-0.831,0.912-1.065
	c0.24-0.162,0.626-0.273,0.913-0.306c0.867-0.095,2.02,0.289,2.891,0.306c0.64,0.01,1.49-0.129,2.13-0.152
	c0.591-0.022,1.422,0.224,1.97,0.002l-0.353,0.812l-0.6,2.57l0.042,4.24l0.338,2.705l3.259-0.264l-3.247,0.278l-0.008,0.836
	l-0.171,1.884l0.857,3.255l2.056,4.283l1.541,2.056l1.285,1.884l0.256,1.37l-0.513,3.94v2.57l1.713,2.57l0.77,1.97l-0.77,1.97
	l-1.456,1.627l-0.684,1.97l0.599,2.914l0.171,1.627l0.086,2.228l-0.429,1.884l-0.344,3.512l-0.856,2.142l1.713,1.627l1.799,2.142
	l0.685,1.541l0.257,2.312l0.599,2.484l2.484-0.343l2.74,0.172l1.885,0.598l0.513,2.312l1.028,2.913l0.172,1.798l-1.2,2.484
	l-1.628,2.656l-0.6,2.653l-0.857,1.628l-1.799,1.884l-2.912-0.344l-1.542,1.456l-2.056,1.114l-2.227,1.799l1.37,1.027l0.771,1.627
	l-0.086,3.94l-0.942,1.97l-2.741-0.085l0.343,5.566l1.028,2.828l0.77,1.626l4.54,3.258l4.283,2.482l4.881,4.111l3.083,3.684
	l2.783,4.409l2.272-1.061l5.147-1.514l3.519-0.508l0.002-0.004l1.567,0.238l6.057,0.849l2.181,0.605l5.452,4.359l4.844,1.696
	l4.24-1.816l2.302-0.727l4.36-0.122l2.665-0.484l3.635,1.452l3.754,2.423l4.967-3.634l2.665-2.423l2.815-1.182l3.089-1.331
	l0.548-0.88l4.449,2.816l1.073,1.062l0,0l1.138,1.482l3.181-2.513l4.419,2.117l-1.635,3.093l-0.181,1.514l0.363,4.117l1.392,2.605
	l0.908,2.967l0.121,2.361v2.361l-0.666,1.271l-1.454,0.908l-1.998-0.242l-1.999-0.727l-2.423-0.424l-1.636-0.181l0.182,1.515
	l0.484,2.724l0.729,1.88l1.513,2.494l1.388,0.37l1.762,1.132l0.242,1.817l-0.424,8.298l-1.696,4.42l-1.333,3.877l0.727,1.575
	l1.938,3.15l0.727,1.695l0.908,2.119l1.03,1.514l1.756,1.028l1.757,0.969l2.143,0.364l2.91-0.181l3.901-1.28l0.951-1.171
	l0.219-1.975l-0.511-3.292l1.097-2.633l2.56-2.486l4.096-0.805l3.364,0.805l1.609,1.169l5.778,0.587l2.048,0.877l0.878,1.317
	l3.364-0.221l2.341-1.975l1.172-2.053l1.022-4.823l-1.023,4.833l3.051,0.687l3.208,1.447l2.81,0.128l2.779-0.585l3.583,0.658
	l1.755,0.951l2.56,1.461l2.632,0.44l2.926-2.196l1.169,0.658h1.536l2.999-0.803l2.999-0.512l2.122-0.95l2.12-1.464l1.974-1.901
	l0.073-2.048l-0.657-1.315l-1.537-3.146l0.878-1.901l2.56-2.048l4.606-0.364l1.317-0.951l0.512-0.586l0.439,2.487l0.364,3.656
	l0.294,2.487l0.438,1.829l2.926,0.292l3.51-1.022l1.463,1.462l2.413,3.145l2.999,0.732l0.804,0.438l0.439,1.609l-2.341,2.486
	l-1.683,1.243l-0.657,5.632l0.292,3.877l2.12,4.827l1.901,2.853l2.56,2.56l1.684,0.146l2.705,0.878l2.56,2.853l-0.366,4.096
	l-1.462,2.926l0.585,2.633l2.195,2.634l-0.439,2.34l-1.17,3.073l-0.146,3.364l0.878,4.534l-1.608,2.633l-1.756,1.463l-0.877,2.34
	l0.146,4.096l-1.315,3.804l-1.316,2.34l1.024,2.779l2.339,3.949l1.465,3.948l-0.587,3.95l0.587,2.927l3.801,2.778l2.78,2.633
	l3.217,4.536l3.018,2.88l3.917-0.693l0.164-2.137l0.495-2.633l1.809-3.122l1.15-0.987l1.48-2.302l0.329-1.808l2.466-1.976
	l1.644-0.821l0.166-1.81l0.329-5.59l3.122-3.783l3.125-6.411l1.973-3.947l-0.329-5.097l-1.479-2.632l-0.493-4.604v-7.07
	l-5.755-5.098l-0.164-3.782l1.809-1.644l2.631-1.644l0.821-1.809l-0.492-4.112l-0.167-2.794l2.468-2.632l3.617-1.48l3.946-0.656
	l4.769-0.658l2.795,0.986l0.164,2.303v2.138l2.96,2.465l1.315,1.479l2.138,0.495l0.328-0.822l1.315-1.974l0.328-2.467l2.137-2.468
	l1.316-1.149l3.782,0.328l1.479,1.975l0.165,2.794l-0.821,4.44l-1.315,3.452l-0.33,2.631v3.617l0.823,2.796l2.137,4.439
	l-0.328,3.782l-0.657,2.302l2.632,1.48l2.794,1.809l2.138,1.48l1.314,3.783l0.658,2.137l2.137,2.96l2.466,2.467l4.77,2.303
	l2.632,1.479l3.782,0.163l1.973,0.658l2.468-0.329l3.616-0.985l3.452-1.315l3.125,0.658l1.15,0.493l1.479-1.151l0.822-2.302
	l-0.165-2.466l0.329-4.604l1.151-1.809l2.631-1.644l2.631,1.644l3.618,1.809l1.808-0.328l1.809-1.152l1.975-1.314l1.313-2.466
	l3.125-0.985h4.933l1.973-0.823l1.479-0.823l2.303-1.15l2.633-0.657l2.794,0.657l2.138-1.152l1.974-0.986l1.643,1.481l1.48,2.137
	l1.479,2.137l2.962,2.796l0.327,3.618l-1.15,0.492l0.165,3.289l1.15,1.479v2.467l-0.328,3.288l1.315,0.822l4.273,1.81l3.618,2.466
	l0.823,2.961l-0.495,4.11l-0.164,2.96l1.643,1.15l0.986,1.151l0.822-0.985l1.316-1.809l2.63-0.165l2.96,0.822l2.633,0.165
	l1.479-0.329l3.452-4.439l2.795-2.96l-1.645-2.961l-1.48-2.63l-2.302-2.96l-1.974-1.644l-2.303-3.125l-1.643-3.452l-0.495-2.631
	l0.987-3.122l0.822-3.125l0.656-2.764l0.116-0.464l1.396-1.279l2.209-0.93l3.024-2.324l0.463-1.047l-0.581-1.744l-2.093-2.324
	l-0.814-1.744l-0.581-1.511c0,0-1.86,0.697-2.674,1.046c-0.814,0.35-2.211,0.581-2.211,0.581l-3.138,0.35l-1.744,0.232l-2.21-1.047
	l-1.511-0.349l-1.396-2.674l-1.743-2.558l0.233-3.372l0.58-1.861l-0.58-1.858l-0.582-4.536l1.396-2.674l0.696-1.278l0.233-2.906
	v-3.605l0.465-2.093l3.604-3.72l0.696-2.441l1.744-1.513l2.324-1.045l-0.581-3.721l1.164-2.559l2.558-0.465l2.093,0.465l0.813-0.465
	l3.023-0.93l1.278-1.278l1.977-0.581l0.696-1.628l2.558-0.698l1.744,0.116l1.976,0.814h1.164l0.696-1.278v-0.813l0.697-1.512
	l2.094,0.116l0.349,1.046l0.813,2.211l1.628,2.093l0.35,1.277l0.116,2.675l-1.86,1.512l-0.232,2.092l1.397,1.279l1.276,0.465
	l3.258,0.232l2.208,1.279l1.047,2.325l0.93,1.743l0.465,1.512l5.812-0.117l2.21-0.815l4.768,0.233l2.21,0.698l4.069-0.35
	l2.791,0.697l1.511,0.93l2.092,0.232l2.093-2.907l0.814-2.907l1.279-2.674l0.697-4.069l-0.117-5.35l-2.557-2.789l-1.511-1.86
	l-3.606-1.396l-3.72,0.93l-2.209,0.35l-1.396-0.93l-0.696-2.442l-1.164-4.418l-0.929-1.277l-0.35-4.884l1.045-1.278l5.118-4.883
	l-0.581-1.744l-1.396-1.047l-0.697-1.742l0.464-1.279l1.977-1.744l3.023-1.86l2.324-1.278l0.117-1.163l-1.511-2.441l-1.279-1.861
	l-0.465-2.675l0.351-1.743l1.395-1.278l1.744-1.164l1.277-1.742l-0.116-1.977l0.814-2.325l1.395-2.442l0.698-3.023l0.233-1.86
	l-0.467-1.511l0.35-2.558l-0.872-1.93c0.198-0.492,0.122-1.231,0.219-1.751C564.423,449.253,564.678,448.198,564.93,447.426z
	 M52.212,295.385c0.292,0.021,0.44,0.032,0.768,0.059L52.212,295.385z M218.674,421.616v-0.004l0.004,0.003L218.674,421.616z"/>
<g>
	<path id="lake_lucerne" fill="#CCD3DB" d="M186.835,431.615c-0.078-0.214,0.262-0.461,0.417-0.627
		c0.162-0.173,0.432-0.347,0.625-0.485c0.244-0.175,0.605-0.359,0.833-0.555c0.234-0.203,0.488-0.534,0.694-0.764
		c0.147-0.167,0.291-0.45,0.485-0.555c0.24-0.132,0.633-0.09,0.903-0.139c0.377-0.07,0.892-0.139,1.249-0.278
		c0.426-0.166,0.914-0.55,1.319-0.764c0.346-0.182,0.896-0.287,1.181-0.554c0.19-0.179,0.366-0.508,0.416-0.764
		c0.032-0.166,0.052-0.441-0.069-0.556c-0.229-0.216-0.73-0.03-1.042-0.071c-0.336-0.043-0.822-0.027-1.11-0.208
		c-0.177-0.109-0.347-0.359-0.417-0.555c-0.143-0.393-0.086-0.972-0.07-1.389c0.021-0.482,0.158-1.116,0.209-1.595
		c0.025-0.25,0.122-0.59,0.068-0.834c-0.044-0.21-0.279-0.422-0.347-0.625c-0.098-0.299-0.19-0.73-0.138-1.041
		c0.046-0.276,0.223-0.631,0.417-0.833c0.147-0.156,0.412-0.312,0.624-0.348c0.229-0.037,0.561,0.025,0.763,0.14
		c0.219,0.123,0.411,0.421,0.556,0.625c0.123,0.175,0.172,0.5,0.347,0.625c0.189,0.135,0.53,0.137,0.763,0.138
		c0.358,0,0.856-0.051,1.18-0.208c0.224-0.109,0.54-0.319,0.625-0.556c0.177-0.497-0.218-1.212-0.278-1.735
		c-0.067-0.581,0.044-1.388-0.14-1.944c-0.085-0.258-0.352-0.527-0.485-0.764c-0.069-0.121-0.242-0.281-0.209-0.416
		c0.064-0.247,0.578-0.261,0.694-0.485c0.154-0.296,0.086-0.788,0-1.111c-0.086-0.325-0.377-0.688-0.556-0.973
		c-0.214-0.341-0.524-0.783-0.763-1.11c-0.2-0.276-0.451-0.663-0.693-0.903c-0.295-0.292-0.818-0.537-1.111-0.833
		c-0.271-0.275-0.669-0.666-0.763-1.041c-0.035-0.143,0.014-0.352,0.07-0.485c0.08-0.192,0.228-0.469,0.416-0.556
		c0.304-0.139,0.785-0.003,1.11,0.069c0.438,0.098,1.007,0.319,1.388,0.556c0.452,0.28,0.953,0.795,1.319,1.181
		c0.367,0.387,0.85,0.923,1.11,1.388c0.12,0.212,0.154,0.553,0.278,0.763c0.208,0.357,0.546,0.829,0.902,1.041
		c0.33,0.197,0.873,0.352,1.25,0.278c0.322-0.064,0.643-0.424,0.901-0.624c0.457-0.353,1.043-0.851,1.459-1.251
		c0.53-0.51,1.163-1.266,1.666-1.804c0.352-0.377,0.789-0.913,1.178-1.251c0.327-0.285,0.854-0.547,1.181-0.833
		c0.345-0.301,0.707-0.8,1.042-1.111c0.412-0.383,1.016-0.832,1.458-1.18c0.267-0.212,0.708-0.413,0.902-0.694
		c0.123-0.178,0.092-0.511,0.208-0.693c0.149-0.236,0.484-0.439,0.694-0.625c0.165-0.147,0.38-0.352,0.555-0.485
		c0.18-0.137,0.407-0.474,0.625-0.417c0.135,0.036,0.168,0.284,0.208,0.417c0.102,0.341,0.179,0.827,0.14,1.181
		c-0.042,0.373-0.288,0.827-0.417,1.18c-0.266,0.731-0.61,1.709-0.903,2.43c-0.29,0.716-0.675,1.678-1.041,2.359
		c-0.165,0.306-0.418,0.694-0.625,0.973c-0.23,0.308-0.55,0.712-0.833,0.972c-0.21,0.192-0.542,0.38-0.763,0.556
		c-0.279,0.22-0.643,0.523-0.903,0.763c-0.173,0.16-0.456,0.341-0.555,0.556c-0.105,0.227-0.151,0.595-0.07,0.833
		c0.11,0.321,0.477,0.653,0.762,0.833c0.185,0.115,0.479,0.175,0.695,0.208c0.454,0.066,1.084,0.117,1.526,0
		c0.325-0.087,0.691-0.372,0.972-0.556c0.261-0.171,0.551-0.488,0.833-0.625c0.214-0.104,0.53-0.161,0.763-0.209
		c0.453-0.092,1.076-0.309,1.527-0.208c0.338,0.075,0.708,0.402,0.973,0.625c0.281,0.238,0.559,0.655,0.833,0.902
		c0.232,0.209,0.552,0.487,0.833,0.625c0.212,0.104,0.546,0.112,0.762,0.208c0.54,0.236,1.24,0.634,1.667,1.041
		c0.237,0.228,0.452,0.621,0.624,0.903c0.208,0.342,0.492,0.801,0.625,1.181c0.112,0.319,0.215,0.771,0.208,1.11
		c-0.005,0.278-0.11,0.642-0.208,0.903c-0.124,0.333-0.607,0.691-0.555,1.042c0.03,0.203,0.332,0.348,0.485,0.486
		c0.2,0.179,0.461,0.428,0.694,0.556c0.289,0.156,0.732,0.231,1.042,0.348c0.357,0.133,0.803,0.416,1.179,0.485
		c0.738,0.135,1.768,0.102,2.499-0.069c0.291-0.069,0.605-0.406,0.903-0.416c0.355-0.014,0.762,0.344,1.11,0.416
		c0.45,0.092,1.072,0.016,1.526,0.069c0.653,0.077,1.496,0.438,2.153,0.416c0.496-0.016,1.146-0.212,1.596-0.416
		c0.368-0.167,0.787-0.522,1.11-0.764c0.214-0.159,0.475-0.402,0.694-0.556c0.299-0.208,0.705-0.488,1.042-0.624
		c0.257-0.104,0.63-0.15,0.903-0.208c0.664-0.139,1.543-0.41,2.222-0.417c0.38-0.003,0.929,0.002,1.25,0.209
		c0.378,0.244,0.556,0.893,0.833,1.25c0.153,0.198,0.412,0.42,0.556,0.625c0.149,0.213,0.27,0.547,0.417,0.763
		c0.2,0.293,0.627,0.575,0.764,0.902c0.191,0.464,0.125,1.165,0.139,1.667c0.016,0.644-0.099,1.506-0.07,2.151
		c0.025,0.504,0.126,1.169,0.209,1.667c0.101,0.606,0.286,1.409,0.416,2.013c0.1,0.459,0.296,1.061,0.347,1.526
		c0.056,0.498,0.068,1.171,0,1.665c-0.051,0.388-0.238,0.879-0.347,1.251c-0.141,0.482-0.391,1.106-0.485,1.597
		c-0.091,0.472-0.271,1.134-0.14,1.597c0.057,0.199,0.287,0.393,0.417,0.555c0.221,0.275,0.53,0.635,0.762,0.901
		c0.165,0.189,0.425,0.41,0.556,0.625c0.151,0.249,0.277,0.622,0.347,0.903c0.126,0.509,0.167,1.213,0.208,1.736
		c0.042,0.519,0.217,1.234,0.07,1.735c-0.072,0.244-0.278,0.549-0.485,0.694c-0.335,0.233-0.991,0.103-1.319,0.347
		c-0.257,0.189-0.378,0.64-0.556,0.901c-0.215,0.322-0.393,0.93-0.763,1.042c-0.233,0.071-0.578-0.119-0.763-0.278
		c-0.233-0.199-0.362-0.62-0.485-0.901c-0.152-0.344-0.319-0.818-0.417-1.18c-0.144-0.533-0.303-1.257-0.347-1.805
		c-0.055-0.687,0.036-1.604,0.069-2.291c0.016-0.312,0.127-0.734,0.07-1.041c-0.065-0.34-0.352-0.726-0.486-1.042
		c-0.158-0.369-0.313-0.886-0.486-1.248c-0.145-0.305-0.452-0.652-0.555-0.974c-0.122-0.378-0.168-0.923-0.138-1.319
		c0.03-0.407,0.241-0.924,0.347-1.317c0.123-0.459,0.298-1.068,0.417-1.527c0.154-0.603,0.32-1.415,0.485-2.014
		c0.094-0.337,0.276-0.77,0.347-1.11c0.117-0.554,0.207-1.31,0.21-1.875c0.002-0.63-0.131-1.46-0.21-2.081
		c-0.086-0.691-0.018-1.68-0.347-2.293c-0.133-0.245-0.426-0.545-0.693-0.623c-0.264-0.08-0.653,0.025-0.903,0.138
		c-0.418,0.188-0.776,0.758-1.18,0.973c-0.596,0.313-1.563,0.3-2.152,0.625c-0.414,0.227-0.793,0.771-1.181,1.04
		c-0.252,0.176-0.624,0.356-0.903,0.486c-0.507,0.237-1.209,0.501-1.736,0.694c-0.556,0.204-1.309,0.446-1.874,0.625
		c-0.622,0.196-1.46,0.434-2.083,0.623c-0.334,0.104-0.777,0.246-1.11,0.349c-0.478,0.147-1.103,0.401-1.597,0.485
		c-0.452,0.078-1.076,0.156-1.526,0.07c-0.202-0.038-0.431-0.214-0.625-0.276c-0.647-0.212-1.593-0.225-2.221-0.485
		c-0.391-0.163-0.8-0.583-1.179-0.765c-0.476-0.229-1.154-0.434-1.667-0.556c-0.696-0.165-1.651-0.253-2.361-0.348
		c-0.52-0.069-1.227-0.075-1.735-0.207c-0.371-0.098-0.853-0.287-1.181-0.488c-0.302-0.184-0.642-0.522-0.903-0.763
		c-0.173-0.16-0.471-0.335-0.555-0.554c-0.134-0.353-0.049-0.894,0.069-1.251c0.095-0.286,0.339-0.624,0.556-0.833
		c0.228-0.221,0.61-0.427,0.902-0.555c0.417-0.182,1.012-0.331,1.458-0.415c0.412-0.079,0.976-0.07,1.388-0.14
		c0.444-0.074,1.038-0.188,1.458-0.348c0.332-0.124,0.874-0.243,1.041-0.555c0.099-0.186,0.088-0.557-0.07-0.694
		c-0.454-0.397-1.408,0.059-2.012,0.07c-0.688,0.011-1.605-0.03-2.292,0c-0.479,0.021-1.117,0.118-1.597,0.14
		c-0.562,0.023-1.316,0.074-1.874,0c-0.471-0.063-1.055-0.365-1.526-0.417c-0.851-0.094-1.993,0.162-2.847,0.139
		c-0.397-0.011-0.922-0.119-1.319-0.139c-0.519-0.028-1.248-0.185-1.735,0c-0.442,0.167-0.847,0.707-1.18,1.042
		c-0.292,0.293-0.655,0.712-0.903,1.042c-0.414,0.554-0.854,1.374-1.249,1.943c-0.178,0.258-0.451,0.573-0.625,0.833
		c-0.339,0.503-0.701,1.233-1.042,1.735c-0.25,0.369-0.64,0.822-0.903,1.182c-0.344,0.471-0.657,1.229-1.11,1.596
		c-0.334,0.27-0.925,0.387-1.319,0.555c-0.438,0.185-1.04,0.399-1.458,0.625c-0.33,0.178-0.695,0.548-1.041,0.693
		c-0.276,0.116-0.678,0.167-0.973,0.208c-0.309,0.044-0.728,0.061-1.042,0.071c-0.415,0.014-0.975,0.057-1.388,0
		C187.507,431.85,186.939,431.899,186.835,431.615z"/>
	<path id="lake_zug" fill="#CCD3DB" d="M227.934,403.431c0.376-0.011,0.808-0.452,0.982-0.787c0.216-0.418,0.114-1.098,0.097-1.57
		c-0.03-0.921-0.236-2.137-0.393-3.044c-0.118-0.683-0.137-1.662-0.491-2.258c-0.298-0.503-1.061-0.86-1.473-1.277
		c-0.543-0.549-1.197-1.352-1.668-1.963c-0.22-0.285-0.535-0.656-0.687-0.982c-0.193-0.415-0.368-1.017-0.393-1.473
		c-0.021-0.387,0.091-0.904,0.195-1.277c0.104-0.368,0.318-0.835,0.492-1.178c0.155-0.306,0.448-0.667,0.588-0.981
		c0.164-0.366,0.275-0.894,0.393-1.276c0.119-0.383,0.302-0.887,0.394-1.276c0.122-0.523,0.198-1.238,0.295-1.767
		c0.082-0.444,0.178-1.037,0.294-1.473c0.071-0.27,0.183-0.628,0.294-0.883c0.147-0.338,0.498-0.723,0.589-1.081
		c0.045-0.171,0-0.412,0-0.589c0-0.206,0.086-0.5,0-0.687c-0.114-0.248-0.458-0.445-0.688-0.59
		c-0.245-0.155-0.608-0.301-0.883-0.392c-0.63-0.21-1.522-0.306-2.16-0.492c-0.421-0.123-0.969-0.327-1.375-0.492
		c-0.331-0.133-0.781-0.297-1.079-0.491c-0.298-0.193-0.53-0.745-0.883-0.785c-0.367-0.042-0.77,0.39-1.082,0.589
		c-0.247,0.159-0.55,0.411-0.785,0.589c-0.267,0.204-0.65,0.445-0.884,0.687c-0.175,0.183-0.403,0.45-0.49,0.688
		c-0.122,0.333-0.138,0.825-0.098,1.178c0.064,0.583,0.52,1.282,0.588,1.865c0.048,0.41-0.059,0.962-0.098,1.375
		c-0.047,0.501-0.2,1.165-0.195,1.668c0.002,0.445-0.062,1.109,0.195,1.473c0.154,0.215,0.617,0.19,0.786,0.393
		c0.137,0.165,0.208,0.473,0.196,0.687c-0.016,0.317-0.283,0.685-0.392,0.981c-0.096,0.262-0.274,0.604-0.294,0.883
		c-0.038,0.506,0.105,1.196,0.294,1.668c0.118,0.296,0.387,0.638,0.589,0.883c0.184,0.226,0.432,0.546,0.688,0.687
		c0.343,0.191,0.889,0.218,1.275,0.295c0.352,0.07,0.846,0.061,1.177,0.197c0.125,0.051,0.315,0.134,0.369,0.258
		c0.063,0.146,0.001,0.386-0.074,0.527c-0.167,0.313-0.614,0.555-0.883,0.786c-0.318,0.271-0.769,0.602-1.08,0.884
		c-0.216,0.195-0.489,0.472-0.687,0.688c-0.185,0.199-0.477,0.439-0.59,0.688c-0.086,0.189-0.127,0.481-0.098,0.688
		c0.05,0.351,0.269,0.802,0.49,1.08c0.278,0.345,0.808,0.644,1.179,0.883c0.311,0.2,0.792,0.358,1.08,0.589
		c0.245,0.196,0.294,0.589,0.687,0.786c0.394,0.195,0.906,0.759,1.178,1.178c0.223,0.344,0.268,0.932,0.491,1.275
		c0.09,0.14,0.254,0.302,0.393,0.394c0.264,0.174,0.682,0.288,0.981,0.393c0.291,0.101,0.692,0.193,0.982,0.294
		c0.299,0.104,0.703,0.24,0.981,0.392C227.469,403.061,227.679,403.437,227.934,403.431z"/>
	<path id="lake_sempach" fill="#CCD3DB" d="M169.619,389.784c0.353-0.047,0.68-0.495,0.884-0.786
		c0.183-0.26,0.317-0.673,0.393-0.981c0.076-0.316,0.095-0.756,0.097-1.08c0.003-0.413,0.011-0.976-0.097-1.375
		c-0.123-0.445-0.405-1.011-0.688-1.374c-0.334-0.428-0.934-0.86-1.374-1.178c-0.418-0.302-1.06-0.578-1.473-0.883
		c-0.669-0.497-1.433-1.317-2.062-1.865c-0.55-0.481-1.447-0.972-1.866-1.571c-0.196-0.283-0.241-0.771-0.392-1.08
		c-0.123-0.25-0.318-0.568-0.491-0.786c-0.182-0.229-0.45-0.52-0.688-0.687c-0.452-0.318-1.126-0.898-1.668-0.786
		c-0.306,0.064-0.577,0.493-0.686,0.786c-0.228,0.605-0.009,1.512,0,2.16c0.015,1.001-0.298,2.418,0.097,3.338
		c0.182,0.421,0.798,0.719,1.081,1.08c0.316,0.406,0.533,1.095,0.882,1.473c0.417,0.449,1.167,0.829,1.668,1.179
		c0.558,0.386,1.305,0.896,1.865,1.276c0.353,0.238,0.833,0.539,1.178,0.786c0.392,0.281,0.897,0.682,1.277,0.982
		c0.328,0.26,0.728,0.655,1.081,0.883C168.914,389.472,169.292,389.828,169.619,389.784z"/>
	<path id="lake_baldegg" fill="#CCD3DB" d="M185.817,373.88c0.426-0.119,0.764-0.753,0.884-1.178
		c0.089-0.313-0.038-0.761-0.097-1.08c-0.098-0.512-0.31-1.179-0.491-1.668c-0.225-0.605-0.62-1.373-0.884-1.963
		c-0.237-0.529-0.537-1.242-0.785-1.767c-0.168-0.356-0.3-0.909-0.589-1.179c-0.28-0.262-0.801-0.43-1.178-0.491
		c-0.408-0.066-1.017-0.11-1.374,0.098c-0.184,0.107-0.314,0.392-0.394,0.589c-0.13,0.333-0.166,0.82-0.195,1.178
		c-0.021,0.264-0.06,0.625,0,0.883c0.136,0.576,0.624,1.234,0.884,1.767c0.27,0.557,0.62,1.305,0.882,1.865
		c0.208,0.441,0.38,1.095,0.688,1.473c0.279,0.343,0.792,0.667,1.178,0.884C184.76,373.525,185.36,374.01,185.817,373.88z"/>
	<path id="lake_hallwil" fill="#CCD3DB" d="M177.964,356.015c0.391-0.431,0.631-1.209,0.787-1.767
		c0.127-0.458,0.183-1.096,0.195-1.571c0.024-0.856-0.083-1.999-0.195-2.847c-0.099-0.744-0.321-1.723-0.491-2.455
		c-0.208-0.89-0.522-2.069-0.786-2.945c-0.24-0.803-0.5-1.905-0.882-2.649c-0.183-0.357-0.574-0.74-0.786-1.08
		c-0.3-0.48-0.503-1.248-0.883-1.669c-0.214-0.236-0.566-0.603-0.884-0.589c-0.189,0.008-0.388,0.236-0.49,0.393
		c-0.185,0.281-0.272,0.746-0.294,1.08c-0.065,0.917,0.292,2.128,0.392,3.043c0.07,0.647,0.101,1.517,0.196,2.16
		c0.127,0.862,0.48,1.981,0.589,2.847c0.081,0.644-0.028,1.523,0.097,2.159c0.068,0.338,0.248,0.768,0.394,1.081
		c0.272,0.586,0.827,1.27,1.079,1.865c0.167,0.395,0.279,0.961,0.394,1.375c0.121,0.441,0.164,1.076,0.393,1.473
		c0.104,0.18,0.285,0.462,0.49,0.49C177.512,356.438,177.805,356.19,177.964,356.015z"/>
	<path id="lake_aegeri" fill="#CCD3DB" d="M247.574,393.782c0.471-0.062,1.156-0.121,1.528-0.416
		c0.41-0.324,0.591-1.065,0.833-1.527c0.086-0.166,0.3-0.371,0.278-0.556c-0.047-0.381-0.621-0.651-0.833-0.972
		c-0.154-0.232-0.265-0.598-0.415-0.833c-0.288-0.449-0.729-1.017-1.112-1.388c-0.299-0.29-0.737-0.648-1.11-0.833
		c-0.542-0.27-1.389-0.309-1.944-0.556c-0.358-0.16-0.78-0.48-1.11-0.693c-0.252-0.164-0.536-0.508-0.834-0.556
		c-0.469-0.075-1.116,0.179-1.526,0.417c-0.306,0.177-0.713,0.5-0.833,0.833c-0.159,0.432,0,0.973,0.138,1.526
		c0.14,0.555,0.944,1.242,1.528,1.527c0.301,0.147,0.797,0.018,1.11,0.138c0.333,0.13,0.657,0.523,0.971,0.695
		c0.394,0.215,1.043,0.269,1.39,0.555c0.417,0.347,0.819,1.006,0.971,1.527c0.094,0.32-0.235,0.875,0,1.11
		C246.809,393.988,247.285,393.821,247.574,393.782z"/>
	<path id="sihlsee" fill="#CCD3DB" d="M278.393,399.307c0.369,0.154,1,0.059,1.321-0.181c0.202-0.149,0.32-0.512,0.347-0.763
		c0.045-0.402-0.162-0.931-0.278-1.318c-0.097-0.323-0.191-0.792-0.416-1.042c-0.268-0.298-0.858-0.387-1.181-0.625
		c-0.26-0.192-0.529-0.541-0.763-0.763c-0.224-0.215-0.6-0.431-0.763-0.695c-0.204-0.332-0.253-0.872-0.347-1.249
		c-0.164-0.663-0.377-1.547-0.485-2.222c-0.095-0.579-0.161-1.358-0.21-1.943c-0.059-0.728-0.127-1.7-0.137-2.43
		c-0.011-0.708,0.117-1.654,0.069-2.36c-0.026-0.379-0.044-0.906-0.208-1.25c-0.109-0.227-0.368-0.458-0.556-0.624
		c-0.19-0.169-0.453-0.403-0.694-0.486c-0.395-0.135-0.983-0.168-1.388-0.07c-0.281,0.068-0.585,0.336-0.833,0.486
		c-0.168,0.102-0.392,0.238-0.556,0.347c-0.362,0.24-0.956,0.463-1.18,0.833c-0.163,0.27-0.14,0.726-0.14,1.042
		c0,0.483,0.047,1.142,0.209,1.596c0.172,0.485,0.647,1.01,0.903,1.458c0.334,0.592,0.793,1.379,1.041,2.014
		c0.259,0.664,0.382,1.621,0.625,2.29c0.188,0.518,0.504,1.181,0.763,1.667c0.206,0.387,0.506,0.893,0.762,1.249
		c0.303,0.419,0.776,0.925,1.11,1.319c0.373,0.438,0.884,1.012,1.25,1.458c0.235,0.286,0.538,0.677,0.763,0.971
		C277.719,398.399,277.946,399.121,278.393,399.307z"/>
	<path id="lake_zurich" fill="#CCD3DB" d="M299.5,362.787c0.409-0.01,0.945,0.25,1.276,0.492c0.151,0.112,0.342,0.31,0.393,0.492
		c0.064,0.229,0.007,0.571-0.099,0.785c-0.2,0.411-0.745,0.767-1.079,1.08c-0.456,0.429-1.051,1.025-1.571,1.375
		c-0.547,0.367-1.34,0.768-1.963,0.981c-0.711,0.243-1.704,0.47-2.455,0.492c-0.415,0.011-0.96-0.159-1.374-0.197
		c-0.705-0.064-1.649-0.127-2.357-0.098c-0.712,0.03-1.651,0.191-2.355,0.295c-0.356,0.051-0.872,0.012-1.179,0.195
		c-0.288,0.172-0.499,0.606-0.688,0.883c-0.194,0.283-0.377,0.711-0.589,0.981c-0.153,0.196-0.354,0.504-0.588,0.59
		c-0.641,0.233-1.586-0.097-2.259-0.196c-0.714-0.105-1.66-0.303-2.356-0.492c-0.54-0.145-1.258-0.361-1.767-0.589
		c-0.434-0.193-0.977-0.525-1.375-0.785c-0.583-0.38-1.219-1.119-1.865-1.375c-0.469-0.185-1.165-0.2-1.668-0.197
		c-0.446,0.003-1.035,0.113-1.472,0.197c-0.239,0.045-0.544,0.173-0.787,0.197c-0.558,0.054-1.307-0.056-1.865-0.098
		c-0.886-0.067-2.092-0.048-2.945-0.295c-0.189-0.055-0.393-0.306-0.589-0.294c-0.318,0.021-0.648,0.376-0.884,0.59
		c-0.31,0.281-0.49,0.939-0.883,1.08c-0.283,0.102-0.707-0.076-0.982-0.196c-0.465-0.202-1.007-0.632-1.375-0.982
		c-0.379-0.362-0.732-0.982-1.081-1.375c-0.607-0.686-1.5-1.523-2.159-2.16c-0.404-0.391-0.92-0.944-1.375-1.276
		c-0.627-0.459-1.647-0.794-2.258-1.276c-0.442-0.349-0.97-0.903-1.276-1.375c-0.245-0.376-0.358-0.99-0.589-1.375
		c-0.29-0.485-0.792-1.058-1.177-1.473c-0.383-0.413-0.874-1.023-1.375-1.276c-0.562-0.283-1.433-0.348-2.062-0.392
		c-0.647-0.047-1.514,0.168-2.159,0.098c-0.455-0.049-1.055-0.208-1.473-0.393c-0.545-0.241-1.16-0.77-1.668-1.08
		c-0.405-0.247-1.008-0.482-1.375-0.786c-0.417-0.346-0.809-0.976-1.177-1.375c-0.424-0.458-1.233-0.895-1.472-1.472
		c-0.215-0.518,0.105-1.316,0-1.866c-0.121-0.623-0.51-1.392-0.786-1.963c-0.309-0.643-0.807-1.454-1.177-2.062
		c-0.366-0.6-0.927-1.354-1.277-1.963c-0.327-0.571-0.739-1.352-0.982-1.963c-0.227-0.572-0.38-1.385-0.589-1.964
		c-0.207-0.571-0.605-1.286-0.786-1.865c-0.169-0.546-0.152-1.346-0.393-1.865c-0.142-0.305-0.491-0.612-0.687-0.883
		c-0.25-0.344-0.591-0.801-0.787-1.179c-0.189-0.364-0.311-0.907-0.49-1.276c-0.15-0.309-0.548-0.641-0.59-0.982
		c-0.037-0.305,0.182-0.695,0.296-0.981c0.194-0.489,0.507-1.122,0.785-1.57c0.154-0.25,0.294-0.787,0.589-0.787
		c0.589,0,0.799,1.12,1.178,1.571c0.47,0.558,1.268,1.159,1.668,1.767c0.407,0.617,0.712,1.57,0.982,2.258
		c0.229,0.581,0.547,1.355,0.688,1.964c0.114,0.491,0.043,1.188,0.195,1.668c0.113,0.352,0.422,0.75,0.59,1.08
		c0.25,0.494,0.543,1.17,0.786,1.668c0.23,0.474,0.556,1.097,0.786,1.571c0.241,0.498,0.575,1.157,0.785,1.668
		c0.203,0.492,0.336,1.202,0.59,1.668c0.299,0.554,0.841,1.212,1.275,1.668c0.534,0.562,1.381,1.162,1.964,1.668
		c0.566,0.494,1.312,1.162,1.865,1.668c0.568,0.522,1.227,1.336,1.865,1.767c0.645,0.436,1.624,0.818,2.357,1.08
		c0.659,0.235,1.58,0.41,2.258,0.59c0.442,0.116,1.043,0.237,1.473,0.392c0.396,0.143,0.91,0.38,1.276,0.59
		c0.497,0.283,1.125,0.721,1.572,1.08c0.568,0.458,1.222,1.183,1.767,1.668c0.374,0.333,0.896,0.754,1.276,1.08
		c0.444,0.381,0.981,0.958,1.472,1.276c0.408,0.265,1.03,0.484,1.472,0.687c0.324,0.148,0.756,0.345,1.081,0.491
		c0.529,0.238,1.214,0.615,1.767,0.786c0.314,0.096,0.755,0.141,1.08,0.195c0.735,0.126,1.711,0.334,2.453,0.393
		c0.676,0.054,1.581,0.019,2.259,0c0.56-0.015,1.338,0.094,1.865-0.098c0.278-0.101,0.521-0.459,0.786-0.588
		c0.302-0.148,0.789-0.126,1.079-0.295c0.325-0.188,0.546-0.723,0.884-0.883c0.267-0.127,0.687-0.102,0.981-0.098
		c0.238,0.003,0.556,0.043,0.787,0.098c0.427,0.102,1.054,0.192,1.375,0.492c0.376,0.35,0.491,1.095,0.688,1.571
		c0.218,0.525,0.364,1.299,0.688,1.767c0.225,0.326,0.671,0.638,0.981,0.883c0.366,0.288,0.844,0.713,1.277,0.883
		c0.581,0.229,1.436,0.289,2.061,0.295c0.476,0.003,1.137-0.005,1.571-0.197c0.249-0.109,0.426-0.514,0.688-0.59
		c0.373-0.106,0.903,0.095,1.277,0.197c0.306,0.083,0.68,0.295,0.981,0.393c0.463,0.149,1.087,0.429,1.571,0.392
		c0.382-0.029,0.809-0.388,1.177-0.49c0.374-0.105,0.897-0.118,1.277-0.197c0.448-0.094,1.033-0.265,1.473-0.393
		c0.476-0.137,1.105-0.326,1.571-0.49c0.447-0.16,1.027-0.419,1.472-0.589c0.321-0.124,0.761-0.264,1.079-0.393
		C298.885,363.072,299.21,362.796,299.5,362.787z"/>
	<path id="lake_walen" fill="#CCD3DB" d="M346.356,391.561c0.585-0.01,1.36,0.096,1.942,0.139c0.542,0.04,1.265,0.184,1.806,0.14
		c0.428-0.037,0.964-0.286,1.389-0.348c0.475-0.069,1.118-0.078,1.597-0.07c0.521,0.01,1.219,0.227,1.734,0.14
		c0.359-0.061,0.759-0.397,1.111-0.485c0.242-0.062,0.59-0.125,0.834-0.07c0.282,0.063,0.549,0.428,0.833,0.485
		c0.329,0.067,0.776-0.124,1.111-0.14c0.644-0.029,1.51,0.148,2.151,0.07c0.302-0.036,0.68-0.195,0.972-0.278
		c0.229-0.063,0.577-0.062,0.764-0.208c0.17-0.133,0.218-0.454,0.35-0.625c0.141-0.188,0.472-0.335,0.553-0.555
		c0.104-0.274,0.072-0.715-0.068-0.973c-0.151-0.274-0.555-0.483-0.834-0.624c-0.389-0.196-0.959-0.347-1.389-0.417
		c-0.739-0.119-1.75-0.104-2.498-0.07c-0.692,0.032-1.603,0.347-2.291,0.277c-0.395-0.04-0.868-0.317-1.25-0.416
		c-0.329-0.086-0.773-0.177-1.11-0.208c-0.396-0.036-0.935-0.087-1.319,0c-0.382,0.085-0.801,0.464-1.18,0.555
		c-0.67,0.16-1.603,0.06-2.292,0.07c-0.228,0.003-0.537,0.032-0.764,0c-0.3-0.042-0.681-0.191-0.972-0.277
		c-0.334-0.101-0.786-0.22-1.11-0.348c-0.452-0.177-0.989-0.577-1.458-0.693c-0.445-0.112-1.081,0.04-1.527-0.07
		c-0.335-0.082-0.702-0.422-1.041-0.485c-0.327-0.062-0.784,0.003-1.111,0.07c-0.368,0.074-0.806,0.38-1.179,0.416
		c-0.273,0.025-0.644-0.056-0.903-0.14c-0.222-0.071-0.465-0.304-0.694-0.347c-0.226-0.042-0.534,0.049-0.763,0.07
		c-0.5,0.043-1.173,0.233-1.667,0.139c-0.182-0.035-0.388-0.194-0.554-0.277c-0.252-0.125-0.575-0.31-0.834-0.417
		c-0.121-0.05-0.289-0.108-0.415-0.14c-0.411-0.097-0.971-0.167-1.391-0.208c-0.477-0.047-1.118-0.112-1.595-0.07
		c-0.383,0.034-0.921,0.081-1.25,0.277c-0.189,0.113-0.334,0.395-0.487,0.556c-0.06,0.063-0.156,0.137-0.208,0.208
		c-0.136,0.188-0.263,0.476-0.347,0.694c-0.055,0.142-0.195,0.345-0.139,0.485c0.063,0.155,0.338,0.197,0.485,0.278
		c0.351,0.192,0.812,0.469,1.18,0.625c0.383,0.16,0.913,0.334,1.319,0.416c0.451,0.09,1.07,0.086,1.527,0.138
		c0.438,0.051,1.026,0.108,1.456,0.209c0.385,0.09,0.876,0.291,1.25,0.416c0.438,0.145,1.009,0.385,1.458,0.485
		c0.512,0.115,1.219,0.123,1.735,0.208c0.296,0.049,0.685,0.132,0.973,0.208c0.465,0.124,1.071,0.333,1.528,0.486
		c0.523,0.178,1.197,0.493,1.735,0.625c0.449,0.11,1.065,0.201,1.526,0.208C345.434,391.706,345.958,391.567,346.356,391.561z"/>
	<path id="lake_constance_west" fill="#CCD3DB" d="M297.831,254.211c0.098-0.997,2.13-0.99,2.945-1.571
		c0.917-0.653,1.918-1.793,2.747-2.553c0.587-0.534,1.299-1.337,1.966-1.767c0.863-0.557,2.261-0.842,3.141-1.374
		c0.969-0.585,2.298-1.429,2.945-2.356c0.318-0.459,0.672-1.215,0.59-1.769c-0.152-1.002-1.209-2.073-1.965-2.748
		c-0.903-0.808-2.49-1.342-3.533-1.963c-0.661-0.392-1.458-1.064-2.161-1.375c-0.614-0.272-1.532-0.35-2.16-0.59
		c-0.493-0.188-1.294-0.337-1.571-0.785c-0.185-0.301-0.119-0.846,0-1.178c0.158-0.432,0.599-0.924,0.981-1.178
		c0.514-0.339,1.353-0.526,1.963-0.588c0.648-0.066,1.536,0.019,2.162,0.195c0.76,0.216,1.639,0.846,2.356,1.178
		c0.813,0.378,1.994,0.691,2.748,1.179c0.806,0.52,1.455,2.487,2.356,2.159c0.161-0.058,0.119-0.399,0.072-0.564
		c-0.057-0.201-0.293-0.391-0.44-0.539c-0.229-0.23-0.597-0.466-0.835-0.687c-0.305-0.285-0.659-0.713-0.957-1.006
		c-0.215-0.213-0.518-0.477-0.736-0.688c-0.21-0.203-0.496-0.467-0.687-0.687c-0.072-0.083-0.177-0.193-0.221-0.295
		c-0.046-0.103-0.067-0.256-0.074-0.368c-0.008-0.111-0.015-0.264,0.024-0.368c0.044-0.113,0.148-0.248,0.247-0.319
		c0.302-0.221,0.836-0.572,1.177-0.417c0.037,0.016-0.27-0.197,0.05,0.122c0.318,0.319,1.049,1.19,1.571,1.619
		c0.291,0.24,0.745,0.47,1.056,0.688c0.354,0.251,0.809,0.614,1.152,0.883c0.528,0.414,1.146,1.094,1.742,1.399
		c0.272,0.139,0.689,0.182,0.981,0.27c0.318,0.095,0.748,0.214,1.057,0.342c0.175,0.075,0.399,0.198,0.562,0.295
		c0.252,0.148,0.559,0.392,0.81,0.54c0.252,0.146,0.588,0.347,0.861,0.442c0.034,0.012,0.085,0.014,0.121,0.024
		c0.177,0.055,0.403,0.158,0.564,0.246c0.178,0.096,0.405,0.243,0.563,0.368c0.209,0.166,0.44,0.438,0.64,0.613
		c0.282,0.249,0.688,0.55,0.981,0.786c0.184,0.147,0.417,0.359,0.613,0.491c0.14,0.094,0.334,0.209,0.491,0.27
		c0.396,0.156,0.958,0.258,1.374,0.344c0.313,0.064,0.749,0.078,1.056,0.171c0.303,0.092,0.728,0.224,0.957,0.441
		s0.321,0.666,0.49,0.932c0.218,0.342,0.642,0.711,0.811,1.08c0.058,0.123,0.112,0.306,0.099,0.442
		c-0.013,0.127-0.062,0.326-0.172,0.393c-0.166,0.098-0.446-0.042-0.638-0.049c-0.324-0.012-0.756-0.012-1.079,0
		c-0.414,0.015-0.984-0.035-1.375,0.098c-0.201,0.068-0.383,0.341-0.588,0.392c-0.288,0.072-0.752,0.086-0.983-0.098
		c-0.181-0.146-0.123-0.539-0.244-0.737c-0.176-0.283-0.541-0.56-0.787-0.785c-0.185-0.17-0.445-0.381-0.639-0.541
		c-0.291-0.239-0.672-0.571-0.981-0.785c-0.239-0.165-0.567-0.378-0.833-0.49c-0.253-0.107-0.646-0.107-0.884-0.246
		c-0.144-0.084-0.267-0.282-0.392-0.394c-0.252-0.221-0.568-0.801-0.884-0.688c-0.128,0.047-0.109,0.306-0.1,0.442
		c0.017,0.205,0.218,0.436,0.248,0.639c0.044,0.322-0.066,0.756-0.1,1.08c-0.025,0.25-0.072,0.584-0.1,0.835
		c-0.017,0.176-0.113,0.423-0.049,0.588c0.067,0.165,0.291,0.302,0.443,0.394c0.255,0.153,0.651,0.242,0.932,0.344
		c0.294,0.105,0.686,0.25,0.982,0.343c0.261,0.082,0.626,0.148,0.881,0.246c0.413,0.155,0.895,0.547,1.326,0.638
		c0.375,0.079,0.899,0.018,1.276-0.048c0.381-0.067,0.851-0.305,1.227-0.393c0.392-0.092,0.924-0.181,1.326-0.196
		c0.664-0.026,1.605-0.135,2.208,0.147c0.349,0.165,0.631,0.642,0.883,0.933c0.187,0.213,0.402,0.525,0.59,0.737
		c0.361,0.404,1.003,0.809,1.276,1.277c0.193,0.331,0.213,0.868,0.344,1.227c0.122,0.333,0.544,0.728,0.491,1.08
		c-0.025,0.175-0.24,0.353-0.393,0.441c-0.234,0.139-0.613,0.179-0.883,0.197c-0.531,0.036-1.249-0.034-1.769-0.148
		c-0.337-0.073-0.757-0.269-1.079-0.392c-0.401-0.155-0.924-0.392-1.324-0.541c-0.263-0.097-0.618-0.208-0.884-0.294
		c-0.367-0.12-0.847-0.317-1.227-0.394c-0.349-0.07-0.826-0.057-1.178-0.098c-0.709-0.081-1.652-0.219-2.356-0.343
		c-0.502-0.089-1.161-0.286-1.669-0.344c-0.643-0.072-1.511-0.047-2.159-0.048c-0.929-0.003-2.166,0.067-3.093,0.048
		c-0.53-0.01-1.251-0.221-1.768-0.097c-0.198,0.048-0.406,0.252-0.588,0.345c-0.202,0.1-0.492,0.195-0.688,0.293
		s-1.274,0.716-1.815,1.03c-0.326,0.189-0.75,0.459-1.08,0.638c-0.521,0.284-1.268,0.565-1.769,0.883
		c-0.379,0.242-0.773,0.735-1.177,0.933c-0.109,0.054-0.279,0.057-0.393,0.098c-0.292,0.104-0.636,0.357-0.934,0.442
		c-0.369,0.107-0.896,0.074-1.274,0.147c-0.391,0.075-0.914,0.185-1.276,0.343c-0.382,0.167-0.783,0.604-1.179,0.737
		c-0.476,0.159-1.172,0.072-1.668,0.147c-0.343,0.051-0.793,0.327-1.13,0.245C298.168,254.604,297.81,254.418,297.831,254.211z"/>
	<path id="lake_constance_main" fill="#CCD3DB" d="M342.014,252.464c-0.008-0.035-0.01-0.083-0.006-0.12
		c0.021-0.299,0.214-0.682,0.196-0.981c-0.017-0.279-0.44-0.645-0.295-0.883c0.202-0.332,0.901-0.293,1.275-0.196
		c0.325,0.084,0.577,0.552,0.883,0.687c0.328,0.144,0.82,0.191,1.179,0.196c0.683,0.013,1.713,0.118,2.258-0.294
		c0.358-0.271,0.491-0.938,0.59-1.375c0.157-0.69,0.225-1.661,0.099-2.356c-0.082-0.441-0.343-1-0.591-1.375
		c-0.399-0.609-1.098-1.313-1.668-1.767c-0.319-0.255-0.799-0.534-1.178-0.688c-0.113-0.046-0.316-0.002-0.394-0.098
		c-0.108-0.14-0.093-0.439,0-0.589c0.104-0.168,0.422-0.191,0.59-0.295c0.376-0.233,1.122-0.446,1.177-0.883
		c0.024-0.188-0.213-0.432-0.392-0.492c-0.231-0.078-0.544,0.169-0.786,0.196c-0.265,0.03-0.622,0.011-0.888-0.022
		c-0.296-0.034-0.71-0.066-0.973-0.208c-0.156-0.084-0.329-0.263-0.416-0.416c-0.127-0.225-0.192-0.576-0.21-0.833
		c-0.022-0.357,0.106-0.826,0.14-1.181c0.055-0.561,0.167-1.311,0.139-1.874c-0.029-0.592-0.071-1.418-0.348-1.944
		c-0.23-0.444-0.835-0.817-1.18-1.18c-0.405-0.428-0.912-1.031-1.317-1.458c-0.347-0.362-0.821-0.832-1.18-1.179
		c-0.31-0.297-0.721-0.69-1.041-0.973c-0.123-0.108-0.275-0.27-0.418-0.348c-0.249-0.134-0.622-0.227-0.902-0.277
		c-0.349-0.063-0.827-0.03-1.18-0.07c-0.252-0.028-0.588-0.072-0.833-0.14c-0.388-0.106-0.918-0.258-1.25-0.486
		c-0.229-0.158-0.438-0.486-0.625-0.693c-0.228-0.25-0.481-0.646-0.763-0.833c-0.313-0.206-0.83-0.283-1.181-0.416
		c-0.567-0.216-1.325-0.504-1.875-0.763c-0.513-0.243-1.197-0.58-1.665-0.903c-0.499-0.344-1.048-0.951-1.528-1.319
		c-0.439-0.338-1.091-0.698-1.526-1.041c-0.441-0.347-0.988-0.857-1.39-1.25c-0.305-0.299-0.664-0.745-0.972-1.041
		c-0.298-0.287-0.834-0.545-1.04-0.903c-0.108-0.184-0.165-0.484-0.14-0.694c0.035-0.296,0.49-0.613,0.416-0.903
		c-0.052-0.202-0.373-0.314-0.555-0.416c-0.293-0.166-0.766-0.225-1.041-0.417c-0.304-0.209-0.578-0.637-0.832-0.903
		c-0.185-0.19-0.523-0.38-0.625-0.625c-0.071-0.173-0.014-0.438,0-0.624c0.021-0.314,0.024-0.747,0.137-1.041
		c0.093-0.238,0.281-0.546,0.488-0.695c0.228-0.167,0.62-0.248,0.902-0.277c0.457-0.048,1.079,0.029,1.527,0.139
		c0.48,0.118,1.107,0.361,1.527,0.625c0.522,0.332,1.188,0.869,1.526,1.388c0.18,0.275,0.243,0.729,0.348,1.042
		c0.083,0.249,0.124,0.619,0.277,0.833c0.121,0.169,0.389,0.293,0.556,0.417c0.227,0.168,0.528,0.396,0.764,0.555
		c0.324,0.22,0.737,0.57,1.11,0.694c0.477,0.159,1.197-0.039,1.666,0.14c0.293,0.11,0.65,0.371,0.833,0.624
		c0.191,0.267,0.16,0.771,0.348,1.042c0.243,0.353,0.713,0.738,1.11,0.903c0.387,0.16,0.993,0,1.389,0.139
		c0.397,0.139,0.943,0.415,1.18,0.763c0.179,0.263,0.072,0.752,0.208,1.042c0.225,0.483,0.66,1.103,1.112,1.388
		c0.379,0.24,1.023,0.232,1.456,0.348c0.503,0.133,1.166,0.347,1.666,0.485c0.477,0.133,1.146,0.215,1.597,0.417
		c0.41,0.184,0.878,0.578,1.249,0.833c0.42,0.287,0.976,0.675,1.389,0.971c0.547,0.391,1.271,0.913,1.806,1.32
		c0.401,0.305,0.897,0.763,1.317,1.041c0.258,0.169,0.625,0.354,0.903,0.486c0.347,0.165,0.82,0.355,1.18,0.486
		c0.452,0.165,1.148,0.191,1.527,0.485c0.31,0.241,0.418,0.831,0.693,1.111c0.243,0.247,0.685,0.432,0.973,0.625
		c0.211,0.142,0.576,0.261,0.693,0.486c0.105,0.204,0.013,0.535,0,0.764c-0.031,0.586-0.15,1.359-0.207,1.943
		c-0.046,0.458-0.225,1.075-0.14,1.527c0.034,0.183,0.151,0.418,0.277,0.555c0.215,0.234,0.64,0.377,0.902,0.556
		c0.259,0.176,0.62,0.396,0.832,0.625c0.287,0.309,0.515,0.84,0.764,1.18c0.271,0.37,0.61,0.898,0.973,1.18
		c0.345,0.268,0.935,0.414,1.318,0.624c0.754,0.414,1.702,1.068,2.43,1.527c0.458,0.29,1.084,0.657,1.527,0.972
		c0.844,0.602,1.882,1.523,2.706,2.152c0.534,0.407,1.239,0.959,1.806,1.318c0.701,0.444,1.686,0.952,2.43,1.319
		c0.552,0.272,1.334,0.539,1.874,0.833c0.568,0.31,1.229,0.884,1.805,1.179c0.457,0.237,1.087,0.553,1.597,0.625
		c0.663,0.094,1.558-0.118,2.222-0.208c0.46-0.064,1.071-0.18,1.527-0.278c0.672-0.144,1.556-0.382,2.22-0.556
		c0.69-0.18,1.596-0.478,2.291-0.625c0.411-0.086,0.973-0.347,1.389-0.208c0.416,0.139,1.42-0.058,1.943,0.208
		c0.275,0.141,0.472,0.547,0.694,0.763c0.433,0.423,1.056,0.94,1.526,1.319c0.405,0.327,0.923,0.809,1.39,1.042
		c0.406,0.202,1.025,0.274,1.457,0.416c0.569,0.188,1.3,0.525,1.875,0.693c0.654,0.192,1.544,0.413,2.221,0.485
		c0.621,0.068,1.457-0.013,2.083,0c0.479,0.011,1.137-0.07,1.595,0.07c0.536,0.163,1.141,0.647,1.597,0.971
		c0.373,0.265,0.869,0.635,1.179,0.973c0.347,0.374,0.727,0.944,0.973,1.389c0.44,0.792,0.745,1.982,1.181,2.777
		c0.229,0.42,0.684,0.893,0.902,1.319c0.335,0.65,0.624,1.59,0.833,2.291c0.13,0.431,0.155,1.051,0.348,1.458
		c0.235,0.498,0.688,1.108,1.111,1.457c0.321,0.267,0.898,0.396,1.25,0.624c0.545,0.356,1.144,1,1.666,1.389
		c0.359,0.27,0.814,0.714,1.249,0.833c0.362,0.098,0.875-0.049,1.25-0.07c0.397-0.021,0.929-0.01,1.318-0.069
		c0.679-0.102,1.535-0.562,2.222-0.556c0.322,0.002,0.782,0.084,1.04,0.278c0.606,0.453,0.93,1.503,1.318,2.152
		c0.275,0.457,0.551,1.128,0.903,1.527c0.156,0.178,0.432,0.347,0.624,0.485c0.366,0.263,0.824,0.688,1.25,0.833
		c0.298,0.101,0.693,0,1.042,0.07s0.961,0.479,1.318,0.763c0.357,0.284,0.677,0.834,1.041,1.111c0.505,0.382,1.28,0.753,1.875,0.971
		c0.521,0.192,1.262,0.303,1.805,0.417c0.436,0.091,1.035,0.135,1.457,0.278c0.442,0.148,1.045,0.38,1.389,0.693
		c0.38,0.347,0.531,1.103,0.902,1.458c0.31,0.296,0.83,0.782,1.25,0.694c0.334-0.07,0.397-0.735,0.694-0.903
		c0.328-0.185,0.874-0.095,1.249-0.14c0.5-0.059,1.176-0.323,1.666-0.208c0.22,0.052,0.444,0.282,0.625,0.417
		c0.261,0.194,0.635,0.435,0.833,0.693c0.306,0.401,0.602,1.033,0.693,1.527c0.067,0.349-0.186,0.846-0.069,1.181
		c0.082,0.238,0.343,0.493,0.555,0.624c0.203,0.126,0.536,0.146,0.764,0.209c0.439,0.122,1.077,0.167,1.457,0.416
		c0.248,0.164,0.478,0.508,0.625,0.764c0.178,0.308,0.319,0.768,0.416,1.11c0.117,0.408,0.356,0.971,0.278,1.388
		c-0.05,0.268-0.303,0.565-0.485,0.763c-0.142,0.154-0.361,0.341-0.556,0.417c-0.585,0.229-1.454,0.21-2.083,0.209
		c-0.587-0.002-1.359-0.15-1.943-0.209c-0.437-0.045-1.021-0.087-1.457-0.139c-0.586-0.069-1.377-0.438-1.942-0.278
		c-0.47,0.133-0.851,0.761-1.25,1.042c-0.336,0.236-0.932,0.367-1.181,0.693c-0.195,0.257-0.229,0.722-0.278,1.042
		c-0.08,0.536,0.188,1.328-0.067,1.804c-0.219,0.408-0.815,0.751-1.251,0.903c-0.452,0.157-1.119,0.08-1.597,0.069
		c-0.69-0.016-1.623-0.03-2.291-0.208c-0.531-0.142-1.344-0.318-1.665-0.763c-0.212-0.288-0.19-0.828-0.14-1.18
		c0.068-0.47,0.568-0.985,0.625-1.457c0.045-0.378,0.082-1.004-0.208-1.25c-0.176-0.149-0.537-0.03-0.765,0
		c-0.319,0.042-0.76,0.117-1.04,0.277c-0.357,0.206-0.697,0.664-0.974,0.973c-0.424,0.477-0.895,1.19-1.319,1.667
		c-0.392,0.44-0.934,1.011-1.387,1.389c-0.311,0.258-0.728,0.636-1.111,0.763c-0.535,0.177-1.313,0.117-1.875,0.07
		c-0.508-0.043-1.196-0.147-1.665-0.348c-0.373-0.159-0.796-0.509-1.112-0.763c-0.356-0.287-0.866-0.655-1.11-1.042
		c-0.257-0.406-0.223-1.125-0.486-1.527c-0.121-0.185-0.353-0.4-0.556-0.485c-0.229-0.098-0.612-0.189-0.832-0.07
		c-0.312,0.169-0.398,0.723-0.556,1.042c-0.133,0.267-0.305,0.626-0.417,0.902c-0.142,0.347-0.22,0.86-0.415,1.181
		c-0.284,0.465-0.81,0.999-1.251,1.318c-0.392,0.285-0.993,0.557-1.456,0.694c-0.766,0.226-1.847,0.242-2.64,0.347
		c-0.625,0.083-1.456,0.201-2.081,0.278c-0.375,0.045-0.874,0.165-1.251,0.139c-0.686-0.047-1.588-0.291-2.22-0.556
		c-0.812-0.339-1.772-1.035-2.501-1.526c-0.752-0.509-1.697-1.265-2.43-1.806c-0.933-0.69-2.213-1.569-3.122-2.29
		c-0.302-0.239-0.638-0.647-0.972-0.833c-0.307-0.169-0.975-0.025-1.112-0.347c-0.127-0.3,0.391-0.66,0.487-0.971
		c0.092-0.302,0.248-0.747,0.138-1.042c-0.174-0.471-0.835-0.83-1.25-1.11c-0.385-0.262-0.987-0.455-1.387-0.694
		c-0.656-0.39-1.491-0.977-2.084-1.457c-0.642-0.519-1.368-1.359-2.014-1.875c-0.373-0.299-0.958-0.586-1.318-0.903
		c-0.399-0.35-0.854-0.899-1.18-1.318c-0.229-0.297-0.559-0.69-0.694-1.042c-0.151-0.393-0.226-0.967-0.208-1.388
		c0.019-0.449,0.172-1.044,0.348-1.457c0.135-0.319,0.481-0.656,0.624-0.973c0.063-0.139,0.147-0.335,0.14-0.486
		c-0.018-0.336-0.227-0.762-0.415-1.041c-0.309-0.452-0.873-0.941-1.319-1.25c-0.553-0.38-1.413-0.673-2.014-0.972
		c-0.859-0.428-2.021-0.971-2.846-1.458c-0.672-0.397-1.528-0.991-2.152-1.458c-0.499-0.373-1.088-0.962-1.597-1.319
		c-0.535-0.376-1.325-0.756-1.874-1.111c-0.216-0.138-0.497-0.327-0.694-0.485c-0.264-0.213-0.581-0.538-0.832-0.763
		c-0.352-0.316-0.786-0.783-1.18-1.042c-0.289-0.188-0.742-0.315-1.042-0.486c-0.481-0.274-1.046-0.765-1.527-1.041
		c-0.46-0.264-1.104-0.561-1.595-0.763c-0.408-0.168-0.964-0.368-1.39-0.486c-0.39-0.108-0.94-0.131-1.317-0.277
		c-0.609-0.238-1.296-0.809-1.876-1.111c-0.446-0.233-1.05-0.534-1.527-0.694c-0.445-0.15-1.118-0.114-1.527-0.348
		c-0.396-0.227-0.698-0.808-1.04-1.11c-0.29-0.257-0.718-0.551-1.043-0.763c-0.383-0.25-0.91-0.557-1.316-0.764
		c-0.366-0.186-0.872-0.399-1.251-0.556c-0.536-0.221-1.342-0.344-1.805-0.693c-0.331-0.252-0.526-0.829-0.834-1.111
		c-0.344-0.316-1.012-0.478-1.318-0.833C342.249,253.235,342.094,252.791,342.014,252.464z"/>
</g>
</svg>
