<?xml version="1.0" encoding="utf-8"?>
<!-- Generator: Adobe Illustrator 14.0.0, SVG Export Plug-In  -->
<!DOCTYPE svg PUBLIC "-//W3C//DTD SVG 1.1//EN" "http://www.w3.org/Graphics/SVG/1.1/DTD/svg11.dtd" [
	<!ENTITY ns_flows "http://ns.adobe.com/Flows/1.0/">
]>
<svg version="1.1"
	 xmlns="http://www.w3.org/2000/svg" xmlns:xlink="http://www.w3.org/1999/xlink" xmlns:a="http://ns.adobe.com/AdobeSVGViewerExtensions/3.0/"
	 x="0px" y="0px" viewBox="-131.459 -20.912 545 388"
	 enable-background="new -131.459 -20.912 545 388" xml:space="preserve">
<defs>
</defs>
<path id="2502" name="Rhône Arve" fill="#4D4D4D" stroke="#FFFFFF" stroke-width="0.25" d="M186.044,281.909l-1.18-9.441l-5.732-0.5l-2.193,2.865l-5.814,2.277
	l-3.205-2.19l3.708-3.711l-3.298-8.906l-0.013,0.001l-1.127,3.072l-4.353,8.529l-2.841,0.338l-2.696-1.182l-0.339-8.766
	l-6.571-1.851l-2.021-3.203l-7.587-8.597l-12.82-6.127c-0.001,0-0.002,0-0.004,0.001c-0.376,0.067-0.741,0.139-1.094,0.213
	c-0.029,0.007-0.054,0.012-0.082,0.019c-0.92,0.195-1.739,0.414-2.442,0.652c-0.135,0.046-0.276,0.09-0.401,0.14
	c-0.138,0.052-0.259,0.107-0.385,0.161c-0.148,0.065-0.292,0.132-0.423,0.198c-0.096,0.052-0.188,0.103-0.274,0.154
	c-0.136,0.083-0.254,0.167-0.361,0.254c-0.056,0.045-0.118,0.089-0.166,0.135c-0.14,0.137-0.256,0.276-0.324,0.422
	c-3.626,7.887-9.865,13.208-14.853,12.651l-0.326-0.036l-0.295-0.144c-1.225-0.595-4.823-3.128-5.263-6.854
	c-0.195-1.645,0.187-4.106,3.106-6.501c1.684-1.382,3.648-4.629,3.775-7.079c0.042-0.837-0.137-1.464-0.534-1.864
	c-1.589-0.029-4.967,3.437-6.766,5.309c-1.175,1.225-2.19,2.281-3.066,2.98c-0.858,0.686-1.774,1.48-2.735,2.315
	c-4.853,4.216-10.891,9.463-17.539,8.092c-3.415-0.705-13.294-6.076-14.286-6.799c-0.944-0.681-2.606-0.015-3.393,0.71
	c-0.629,0.58-0.849,2.868-1.026,4.706c-0.27,2.801-0.576,5.974-2.249,8.271c-1.782,2.448-10.866,13.744-26.694,13.744
	c-1.451,0-2.958-0.096-4.522-0.302c-0.213-0.028-0.424-0.028-0.626-0.032c-0.073-0.002-0.152-0.005-0.228-0.008l-0.593,2.848
	l-3.541-3.372l-1.011,1.012l-2.022,7.753L4.677,308.54l0.506,9.946l-2.696,2.191c0,0-2.362,4.721-2.362,5.225
	c0,0.505,7.081,1.179,7.923,1.179c0.846,0,10.788-7.751,10.788-7.751l0.505-6.914l10.62-0.335l23.597,3.372L59.963,320l2.191,3.036
	l2.866-5.562l7.415-3.538l2.462-9.678l17.934,1.251l2.191,1.515l12.98-3.709l3.878,4.044l-2.363,5.396l2.19,2.359l4.891-2.528
	l25.957,5.058l6.236-4.55l4.383-1.352l2.83-6.415l6.947-2.684l11.798-4.216l11.632-9.776L186.044,281.909z"/>
<path id="2503" name="Rive Gauche" fill="#4D4D4D" stroke="#FFFFFF" stroke-width="0.25" d="M286.935,191.315l-3.386-1.013l2.359-6.571l-9.774,2.356l-3.036-2.526
	l3.036-8.432l-4.723,0.847l-20.226,17.358l-4.384-4.718v-3.372l-17.868-24.947l1.182-6.403l9.441-5.391l2.525-4.555l-1.687-2.526
	l-1.686-11.633l-6.943-3.037h-0.001l-0.633,0.889l-2.534,15.714l-8.109,6.083l-15.715,22.304l-4.372,0.548l-1.204,9.591
	l-24.836,52.716l-0.074,0.348l5.093,8.792l-1.545,10.953l-8.905,3.711l-0.166,3.537l-0.436,0.365l3.298,8.906l-3.708,3.711
	l3.205,2.19l5.814-2.277l2.193-2.865l4.394,0.384l0.069-0.136l9.272-3.872c0,0,6.65-9.927,7.245-9.943
	c0.599-0.024,6.07-0.509,6.07-0.509l16.687-15.677l7.416,2.867l2.021-2.021l3.202,1.514l37.927-22.081l11.462-20.394
	c0,0,3.54-4.384,3.875-4.889C289.111,196.708,286.935,191.315,286.935,191.315z"/>
<path id="2504" name="Rive Droite" fill="#4D4D4D" stroke="#FFFFFF" stroke-width="0.25" d="M151.983,205.271l4.912-21.754l9.825-42.104l3.889-5.128
	l-21.885-14.527l-8.266-11.528l-3.48-2.39l-1.304,3.695l-3.046,3.483l-0.307,13.143l-0.127,7.518l-13.705,11.312v8.703
	l11.977,15.662L129.8,193.76l-12.181,7.182l-11.747-11.311l-13.27,6.738l-6.743-5.436l-15.011,17.401l-8.918-8.698l-17.838,9.785
	l-17.185,8.489l-0.436,5.437l-7.613,0.214l-9.354,13.489l-4.569,9.789l20.666,13.05l1.742,3.048l-1.983,9.316
	c0.16,0.011,0.313,0.01,0.477,0.03c16.494,2.153,25.914-9.536,27.636-11.904c1.06-1.456,1.312-4.077,1.536-6.392
	c0.276-2.868,0.537-5.577,2.237-7.145c2.049-1.887,5.624-2.877,8.225-0.993c1.01,0.702,10.229,5.613,12.812,6.147
	c4.794,0.993,10.048-3.571,14.266-7.235c1.003-0.87,1.959-1.701,2.856-2.418c0.679-0.541,1.658-1.561,2.695-2.639
	c2.748-2.861,5.835-6.042,8.757-6.46l0.255-0.036c0.113-0.009,0.364-0.047,0.375-0.047c1.087,0,2.068,0.41,2.842,1.189
	c1.168,1.179,1.733,2.82,1.634,4.747c-0.188,3.658-2.775,7.873-5.167,9.835c-1.917,1.571-1.781,2.723-1.736,3.101
	c0.185,1.567,1.907,3.115,2.846,3.704c2.482-0.038,7.305-3.228,10.634-10.467c0.185-0.402,0.448-0.765,0.751-1.111
	c0.02-0.021,0.038-0.044,0.059-0.067c0.001,0,0.001-0.001,0.001-0.001c0.246-0.271,0.521-0.524,0.836-0.763
	c0.003-0.002,0.006-0.005,0.009-0.009c0.021-0.015,0.04-0.032,0.06-0.049c0.001,0,0.002,0,0.002-0.002
	c0.385-0.28,0.826-0.54,1.309-0.78c0.004-0.001,0.007-0.004,0.011-0.005c0.001-0.002,0.003-0.002,0.006-0.002
	c0.486-0.241,1.021-0.465,1.605-0.668l0.16-0.062l-0.093-1.394l7.387-11.573l-6.196-3.036l2.216-2.952l1.148-0.086l2.463-2.543
	l2.953-3.689l5.641-1.085l3.716-5.402l10.065,5.606L151.983,205.271z"/>
<polygon id="2501" name="Centre" fill="#4D4D4D" stroke="#FFFFFF" stroke-width="0.25" points="152.669,215.921 152.724,216.762 152.724,216.762 "/>
<path id="2501" name="Centre" fill="#4D4D4D" stroke="#FFFFFF" stroke-width="0.25" d="M174.125,234.663l-11.922,3.354
	c-2.33,4.439-11.271,4.435-19.271,4.968c-0.47,0.031-0.973,0.065-1.493,0.101c-0.129,0.008-0.266,0.018-0.396,0.027
	c-0.438,0.029-0.886,0.062-1.347,0.096c-0.125,0.009-0.252,0.019-0.379,0.027c-0.525,0.04-1.062,0.08-1.608,0.125
	c-0.057,0.005-0.113,0.009-0.169,0.014c-3.209,0.263-6.681,0.619-9.54,1.137c-0.013,0.002-0.027,0.005-0.04,0.008l12.82,6.127
	l7.587,8.597l2.021,3.203l6.571,1.851l0.339,8.766l2.696,1.182l2.841-0.338l4.353-8.529l1.13-3.08l0.45-0.366l0.161-3.529
	l8.905-3.711l1.545-10.953L174.125,234.663z"/>
<path fill="#4D4D4D" stroke="#FFFFFF" stroke-width="0.25" d="M129.235,240.434c1.437-0.215,2.993-0.402,4.671-0.567
	c0.102-0.011,0.211-0.021,0.313-0.03c0.712-0.068,1.444-0.135,2.196-0.197c0.229-0.02,0.464-0.04,0.698-0.057
	c0.671-0.055,1.36-0.109,2.062-0.16c0.236-0.019,0.471-0.036,0.711-0.053c0.909-0.065,1.835-0.13,2.792-0.194
	c4.743-0.315,11.414-1.229,14.485-2.506c-0.542-1.379-3.779-9.645-3.778-9.645l-0.737-11.426l-10.065-5.606l-3.716,5.402
	l-5.641,1.085l-2.953,3.689l-2.463,2.543l-1.148,0.086l-2.216,2.952l6.196,3.036l-7.387,11.573l0.093,1.396
	c1.034-0.353,2.216-0.651,3.526-0.912c0.088-0.017,0.18-0.035,0.269-0.052c0.57-0.109,1.164-0.213,1.784-0.309
	C129.03,240.467,129.13,240.451,129.235,240.434z"/>
<path fill="#00ACDF" stroke="#FFFFFF" stroke-width="0.25" d="M29.863,276.37c-1.451,0-2.958-0.096-4.522-0.302
	c-0.213-0.028-0.424-0.028-0.626-0.032c-0.561-0.012-1.257-0.024-1.968-0.337l1.532-3.495c0.047,0.007,0.316,0.012,0.514,0.018
	c0.337,0.006,0.687,0.017,1.044,0.063c16.494,2.153,25.914-9.536,27.636-11.904c1.06-1.456,1.312-4.077,1.536-6.392
	c0.276-2.868,0.537-5.577,2.237-7.145c2.049-1.887,5.624-2.877,8.225-0.993c1.01,0.702,10.229,5.613,12.812,6.147
	c4.794,0.993,10.048-3.571,14.266-7.235c1.003-0.87,1.959-1.701,2.856-2.418c0.679-0.541,1.658-1.561,2.695-2.639
	c2.934-3.055,6.261-6.519,9.353-6.543c0.01,0,0.023,0,0.034,0c1.087,0,2.068,0.41,2.842,1.189c1.168,1.179,1.733,2.82,1.634,4.747
	c-0.188,3.658-2.775,7.873-5.167,9.835c-1.917,1.571-1.781,2.723-1.736,3.101c0.185,1.567,1.907,3.115,2.846,3.704
	c2.482-0.038,7.305-3.228,10.634-10.467c1.981-4.308,10.844-5.21,24.141-6.098c5.666-0.376,14.104-1.605,15.84-3.288l3.734,2.051
	c-2.263,4.523-11.271,4.51-19.32,5.046c-6.901,0.46-19.747,1.315-20.928,3.883c-3.626,7.887-9.865,13.208-14.853,12.651
	l-0.326-0.036l-0.295-0.144c-1.225-0.595-4.823-3.128-5.263-6.854c-0.195-1.645,0.187-4.106,3.106-6.501
	c1.684-1.382,3.648-4.629,3.775-7.079c0.042-0.837-0.137-1.464-0.534-1.864c-1.589-0.029-4.967,3.437-6.766,5.309
	c-1.175,1.225-2.19,2.281-3.066,2.98c-0.858,0.686-1.774,1.48-2.735,2.315c-4.853,4.216-10.891,9.463-17.539,8.092
	c-3.415-0.705-13.294-6.076-14.286-6.799c-0.944-0.681-2.606-0.015-3.393,0.71c-0.629,0.58-0.849,2.868-1.026,4.706
	c-0.27,2.801-0.576,5.974-2.249,8.271C54.775,265.074,45.691,276.37,29.863,276.37L29.863,276.37z"/>
<polygon fill="#00ACDF" stroke="#FFFFFF" stroke-width="0.25" points="262.157,0.364 254.438,14.398 246.718,28.433 242.507,39.661 
	234.789,37.556 224.263,42.468 207.42,64.924 199.424,78.348 190.58,99.308 182.158,121.062 166.72,141.413 156.895,183.517 
	151.983,205.271 153.386,227.025 158.141,239.159 174.363,234.596 199.199,181.88 200.403,172.29 204.775,171.742 220.49,149.438 
	228.599,143.355 231.133,127.641 274.788,66.328 "/>
</svg>
