<?xml version="1.0" encoding="utf-8"?>
<!-- Generator: Adobe Illustrator 16.0.0, SVG Export Plug-In . SVG Version: 6.00 Build 0)  -->
<!DOCTYPE svg PUBLIC "-//W3C//DTD SVG 1.1//EN" "http://www.w3.org/Graphics/SVG/1.1/DTD/svg11.dtd">
<svg version="1.1" id="Calque_1" xmlns="http://www.w3.org/2000/svg" xmlns:xlink="http://www.w3.org/1999/xlink" x="0px" y="0px"
	 width="595.279px" height="841.891px" viewBox="0 0 595.279 841.891" enable-background="new 0 0 595.279 841.891"
	 xml:space="preserve">
<path id="TI" fill="#999999" d="M260.125,221.36l-2.657,4.631l-5.296,4.469l-7.614,0.497l-1.986-2.979l-4.634-1.986l-13.076-1.325
	l-3.641-2.648l-7.614-1.819l-9.269,1.819l-5.794,5.627l-2.483,5.959l1.16,7.449l-0.497,4.468l-2.151,2.649l-8.831,2.899
	l-6.589,0.395l-2.789,5.908l-6.442,5.894l-1.645,4.66l-2.194,3.976l-2.741,0.821l-5.345-0.548h-6.853l-3.563-0.959l0.411,7.538
	l-0.138,5.072l-2.789,11.15l10.813-5.196l8.932-1.49l7.442,2.605l5.954,11.164l0.744,4.838l-0.744,9.674v10.42v11.537l1.117,12.652
	l-1.49,9.674l-4.837,9.305l-5.21,6.325l-1.488,8.559l6.327,8.559l2.232,6.698l-0.744,3.722l1.488,5.21l8.188,7.071l10.418,5.954
	l10.42,5.581l5.954,8.932l10.047,14.884l5.954,5.583l0.746,6.698l7.423,7.832l3.421,7.104l4.209,0.525l5.262,1.053l3.684,3.159
	l5,2.894l6.841,0.788l3.947,2.896l3.011,1.432l5.146,2.253l10.001-8.685l6.105,4.203l5.473,2.902l5.262,4.473l2.896-1.579
	l3.946-3.42l1.843-2.104l2.63,0.788l8.947,9.21l6.315,7.632l3.684,5.261l0.526,5.526l-3.422,3.685l-2.894,2.104l-1.388,0.353
	l-0.371,2.792l-0.932,6.325l-2.791,2.419l-7.07,4.466l-4.466,3.908l-1.674,4.651l2.232,4.837h2.419l4.837,0.744l6.513,2.419
	l4.28,4.651l5.396,4.651l4.278,4.651l3.814,0.884l4.001,2.28l0.743,5.022l0.744,9.49l4.839,6.884l2.961,3.896l2.249,2.801v3.722
	l2.977,7.815l5.21,8.559l-0.744,4.837l-4.837,4.466l-4.466,7.071v3.72l2.604,0.373l4.464-4.466l5.956,0.373l4.464,4.464l5.21,1.117
	l5.583-0.373l3.349,1.49l0.744,5.58l4.837,1.49l6.698-3.351l1.489-8.93l1.115-5.21l2.979-6.327l1.86-7.442l5.581-3.722l3.722-4.093
	l1.488-5.21l-1.488-1.115c0,0-4.093-5.21-5.582-7.07c-1.488-1.861-5.954-4.466-5.954-4.466h-7.815l-3.72-2.977l-1.117-4.095
	l0.744-5.581l-2.604-4.466l-2.977-3.72l-2.233-6.327l-0.744-2.978l2.604-3.35l3.35-3.349l4.093-1.115l0.095-3.814l-0.466-9.21
	l-1.861-2.234l-2.231-4.464l0.371-7.444l2.978-7.814l4.093-2.604l7.071-2.604l7.441-2.605l3.35-2.233l2.604-4.093l1.488-5.583
	l-0.371-5.952l-2.978-6.327l-1.115-4.466l2.604-6.325l10.791-4.466l7.442-7.07l4.466-4.466l3.349-1.488l3.722-6.327l3.786-1.778
	l-6.825-6.518l-7.284-10.262l-6.289-5.959l-8.607-6.289l-1.324-6.621l1.324-8.938l-3.311-8.937l-5.296-8.938l-2.318-6.289
	l2.979-5.296l2.979-8.607l-0.329-9.27l1.984-5.296l3.973-3.312l3.641-5.957l-1.986-10.262l0.332-7.614l2.647-6.953l0.993-5.295
	l-4.966-5.959l-1.323-5.959l3.31-6.621l0.828-9.269l-5.792-6.456l-6.124-1.986l-3.808-0.33l-5.793-5.794l-4.304-6.454l-4.8-10.925
	l-0.661-8.772l1.489-12.745l3.807-2.815l5.296-5.627l-0.993-3.641l-1.82-0.993l-6.787-1.655l-5.461-7.117l-3.311-3.311l-7.944,2.318
	l-6.62-0.661l-0.993-4.138l-0.663-5.629l-0.827-8.275l-0.993-5.627l-1.158,1.325l-2.979,2.151l-10.429,0.828l-5.792,4.634
	l-1.986,4.303l3.477,7.117l1.489,2.979l-0.166,4.634l-4.468,4.305l-4.802,3.309l-4.799,2.151l-6.787,1.16l-6.786,1.819h-3.476
	l-2.648-1.49l-6.62,4.966l-5.959-0.993l-5.793-3.31l-3.972-2.153l-8.111-1.49l-6.289,1.325l-6.36-0.289l-7.256-3.277L260.125,221.36
	z M376.549,562.361l1.861,1.861l1.86-0.373l1.488-1.859l1.488-2.233l-0.371-2.791l-1.49-0.559l-2.976,2.978L376.549,562.361z"/>
<g>
	<path id="lake_lugano" fill="#CCD3DB" d="M342.521,573.13c0.312,0.567,0.935,1.224,1.108,1.846c0.235,0.854-0.039,2.068,0,2.954
		c0.082,1.943,0.392,4.522,0.553,6.46c0.114,1.384,0.416,3.228,0.37,4.616c-0.04,1.118-0.765,2.591-0.556,3.69
		c0.228,1.194,1.224,2.599,2.031,3.507c0.368,0.414,1.059,0.746,1.477,1.108c0.297,0.256,0.773,0.561,0.923,0.923
		c0.446,1.074-0.667,2.925,0,3.877c0.372,0.53,1.388,0.824,2.03,0.738c1.143-0.152,2.269-1.46,3.138-2.217
		c1.036-0.896,2.194-2.328,3.14-3.321c1.269-1.333,2.907-3.165,4.244-4.43c0.742-0.703,2.016-1.368,2.584-2.217
		c0.393-0.58,0.265-1.699,0.739-2.215c0.57-0.62,1.758-0.938,2.584-1.106c0.543-0.111,1.33-0.203,1.846,0
		c0.984,0.387,1.823,1.665,2.585,2.398c1.184,1.142,3.075,2.44,3.876,3.877c0.471,0.846,0.606,2.181,0.739,3.138
		c0.18,1.317-0.397,3.233,0.184,4.432c0.224,0.459,0.803,0.964,1.292,1.106c0.376,0.109,0.962,0.027,1.292-0.184
		c0.945-0.605,1.685-2.072,2.031-3.138c0.31-0.95,0.398-2.35,0.184-3.323c-0.202-0.92-0.966-1.979-1.476-2.769
		c-0.493-0.765-1.248-1.718-1.846-2.4c-0.724-0.823-1.981-1.669-2.584-2.584c-0.656-0.995-1.133-2.55-1.478-3.691
		c-0.312-1.029-0.628-2.438-0.737-3.509c-0.156-1.486-0.115-3.491,0-4.982c0.109-1.452,0.295-3.411,0.737-4.8
		c0.188-0.589,0.659-1.285,0.922-1.846c0.466-0.986,0.965-2.36,1.479-3.323c0.586-1.098,1.453-2.522,2.215-3.507
		c0.742-0.96,1.837-2.174,2.768-2.954c1.014-0.847,2.52-1.79,3.693-2.398c1.058-0.55,2.577-1.052,3.69-1.478
		c1.212-0.462,2.832-1.065,4.062-1.476c1.263-0.422,3.062-0.68,4.244-1.293c1.122-0.58,2.376-1.749,3.323-2.584
		c0.88-0.776,1.838-2.052,2.768-2.769c0.61-0.471,1.483-1.062,2.215-1.292c1.273-0.402,3.099-0.314,4.432-0.369
		c2.269-0.095,5.298-0.057,7.567,0c1.108,0.027,2.586,0.256,3.693,0.184c1.852-0.12,4.392-0.355,6.091-1.106
		c1.083-0.479,2.212-1.661,3.138-2.4c1.014-0.81,2.396-1.859,3.321-2.769c0.785-0.77,1.689-1.932,2.4-2.77
		c0.28-0.328,0.842-0.683,0.923-1.106c0.131-0.689-0.287-1.679-0.738-2.215c-0.526-0.626-1.581-1.28-2.399-1.292
		c-0.865-0.015-1.864,0.809-2.584,1.292c-0.488,0.328-1.009,0.935-1.477,1.292c-0.793,0.606-1.912,1.333-2.77,1.846
		c-0.808,0.482-1.889,1.144-2.768,1.476c-0.906,0.342-2.188,0.561-3.138,0.739c-1.155,0.218-2.71,0.419-3.877,0.553
		c-1.271,0.146-2.968,0.389-4.246,0.369c-1.448-0.021-3.351-0.577-4.799-0.553c-1.513,0.024-3.556,0.244-4.985,0.739
		c-0.844,0.292-1.801,1.046-2.584,1.476c-0.934,0.514-2.21,1.138-3.138,1.662c-0.28,0.157-0.638,0.401-0.923,0.553
		c-0.81,0.43-1.995,0.801-2.768,1.292c-0.73,0.464-1.562,1.28-2.215,1.846c-0.564,0.488-1.203,1.287-1.848,1.661
		c-0.604,0.353-1.563,0.481-2.215,0.739c-0.737,0.292-1.633,0.905-2.398,1.106c-0.646,0.17-1.556,0.093-2.215,0.186
		c-0.561,0.079-1.286,0.312-1.848,0.37c-1.156,0.113-2.732,0.211-3.877,0c-0.758-0.142-1.634-0.818-2.398-0.923
		c-0.606-0.085-1.445,0.358-2.031,0.184c-0.338-0.102-0.572-0.683-0.922-0.739c-0.468-0.073-1.148,0.214-1.477,0.556
		c-0.608,0.63-0.939,1.892-0.923,2.768c0.009,0.473,0.37,1.042,0.554,1.477c0.355,0.845,1.007,1.898,1.292,2.77
		c0.353,1.072,0.751,2.562,0.739,3.691c-0.013,1.021-0.488,2.333-0.739,3.323c-0.298,1.172-0.703,2.737-1.108,3.876
		c-0.423,1.192-1.256,2.678-1.66,3.877c-0.438,1.297-0.609,3.152-1.108,4.43c-0.505,1.292-1.55,2.842-2.215,4.061
		c-0.665,1.218-1.586,2.824-2.215,4.062c-0.529,1.036-0.952,2.585-1.661,3.507c-0.576,0.748-1.706,1.393-2.4,2.029
		c-0.921,0.85-1.796,2.475-2.952,2.954c-0.563,0.233-1.483,0.265-2.031,0c-0.959-0.46-1.579-1.916-2.215-2.769
		c-0.522-0.702-1.325-1.591-1.661-2.4c-0.348-0.831-0.549-2.052-0.554-2.953c-0.005-0.956,0.493-2.185,0.554-3.138
		c0.073-1.162-0.079-2.717-0.185-3.877c-0.075-0.833-0.204-1.946-0.369-2.768c-0.126-0.619-0.441-1.409-0.555-2.031
		c-0.21-1.149-0.368-2.708-0.368-3.877c0-1.166,0.127-2.731,0.368-3.876c0.182-0.855,0.539-1.981,0.924-2.769
		c0.438-0.896,1.354-1.898,1.846-2.769c0.512-0.907,1.249-2.123,1.476-3.139c0.099-0.432,0.26-1.117,0-1.477
		c-0.408-0.568-1.519-0.652-2.215-0.738c-0.716-0.088-1.731-0.09-2.398,0.186c-0.873,0.357-1.973,1.188-2.4,2.029
		c-0.703,1.387-0.373,3.615-0.369,5.168c0.001,0.724,0.419,1.717,0.186,2.401c-0.269,0.778-1.313,1.403-1.846,2.03
		c-0.461,0.54-1.19,1.196-1.478,1.846c-0.43,0.975-0.717,2.454-0.554,3.507C341.693,571.896,342.224,572.587,342.521,573.13z"/>
	<path id="lake_maggiore" fill="#CCD3DB" d="M267.763,507.047c0,0-0.158-0.372-0.198-0.541c-0.208-0.871-0.431-2.072-0.355-2.966
		c0.081-0.978,0.672-2.188,0.923-3.138c0.435-1.649,0.922-3.873,1.292-5.538c0.232-1.05,0.34-2.509,0.737-3.507
		c0.746-1.871,2.559-3.947,3.509-5.722c0.747-1.398,1.562-3.354,2.215-4.8c0.62-1.379,1.314-3.281,2.029-4.615
		c0.437-0.811,1.074-1.874,1.662-2.584c0.876-1.055,2.294-2.23,3.323-3.138c0.914-0.808,2.165-1.849,3.137-2.584
		c0.698-0.528,1.634-1.234,2.399-1.662c0.846-0.471,2.029-1.012,2.954-1.292c0.916-0.276,2.184-0.595,3.138-0.554
		c0.859,0.036,1.976,0.407,2.77,0.739c0.709,0.296,1.533,0.935,2.215,1.292c0.812,0.425,1.874,1.093,2.768,1.292
		c0.812,0.179,2.002,0.318,2.771,0c0.651-0.27,1.17-1.156,1.659-1.661c0.9-0.928,2.094-2.174,2.954-3.138
		c0.629-0.704,1.66-1.533,2.031-2.4c0.416-0.973,0.088-2.486,0.369-3.507c0.21-0.765,0.608-1.784,1.106-2.4
		c0.522-0.645,1.484-1.265,2.217-1.66c0.568-0.31,1.425-0.509,2.029-0.739c1.115-0.426,2.506-1.36,3.692-1.476
		c0.897-0.09,2.171,0.106,2.952,0.553c1.024,0.583,1.82,2.059,2.585,2.954c0.562,0.656,1.362,1.498,1.847,2.215
		c0.457,0.677,0.968,1.648,1.292,2.398c0.277,0.643,0.626,1.524,0.737,2.215c0.072,0.438-0.149,1.061,0,1.479
		c0.147,0.405,0.722,0.725,0.923,1.106c0.189,0.357,0.339,0.89,0.369,1.292c0.034,0.445,0.083,1.118-0.184,1.478
		c-0.325,0.438-1.172,0.497-1.661,0.737c-0.734,0.361-1.607,1.093-2.399,1.292c-0.699,0.177-1.688-0.1-2.4,0
		c-0.799,0.112-1.81,0.518-2.584,0.739c-1.163,0.331-2.706,0.799-3.877,1.108c-1.598,0.419-3.804,0.713-5.353,1.29
		c-1.694,0.633-3.959,1.619-5.354,2.771c-1.033,0.852-1.818,2.56-2.769,3.507c-1.146,1.141-2.943,2.362-4.246,3.323
		c-1.247,0.921-3.012,2.01-4.244,2.952c-1.437,1.1-3.442,2.502-4.615,3.876c-0.419,0.491-0.574,1.483-1.108,1.848
		c-0.557,0.378-1.569,0.175-2.215,0.367c-0.522,0.158-1.192,0.461-1.66,0.739c-0.782,0.464-1.735,1.229-2.4,1.846
		c-1.034,0.96-2.301,2.371-3.138,3.507c-0.766,1.039-1.622,2.545-2.215,3.692c-0.696,1.344-1.555,3.179-2.031,4.615
		c-0.234,0.701-0.553,2.398-0.553,2.398H267.763z"/>
</g>
</svg>
