<?xml version="1.0" encoding="utf-8"?>
<!-- Generator: Adobe Illustrator 16.0.0, SVG Export Plug-In . SVG Version: 6.00 Build 0)  -->
<!DOCTYPE svg PUBLIC "-//W3C//DTD SVG 1.1//EN" "http://www.w3.org/Graphics/SVG/1.1/DTD/svg11.dtd">
<svg version="1.1" id="Calque_1" xmlns="http://www.w3.org/2000/svg" xmlns:xlink="http://www.w3.org/1999/xlink" x="0px" y="0px"
	 width="595.279px" height="841.891px" viewBox="0 0 595.279 841.891" enable-background="new 0 0 595.279 841.891"
	 xml:space="preserve">
<path id="_x31_005" fill-rule="evenodd" clip-rule="evenodd" fill="#666666" d="M390.796,284.749l0.317-40.509l15.748-13.567
	l-4.379-5.164l-8.668-10.209l-17.121,7.764l-15.77,7.146l-40.551,9.688l2.487,24.249c6-4.211,10.815-6.285,18.698-10.408
	c3.293-1.907,4.989-2.644,6.788-2.017c1.135,0.397,2.309,1.337,3.946,2.864c4.237,3.955,6.406,6.872,1.13,10.169
	c-9.125,5.703-16.039,10.672-22.38,16.242l5.467,6.806l-15.771,13.329l3.193,10.103l-10.35,15.796l13.371,4.043l18.643-5.084
	l7.979,10.089l5.83-5.084l1.722-0.24l0.847-2.448l8.664-4.049l7.062-11.674l4.047-2.354l0.755-6.497l2.547,0.234
	c1.694,0.565,3.116,1.465,4.811-0.794c1.695-2.26,3.368-4.008,5.649-7.344c1.307-1.902,2.251-3.275,3.107-4.286l-13.965-0.499
	L390.796,284.749z"/>
<path id="_x31_006" fill-rule="evenodd" clip-rule="evenodd" fill="#807F7F" d="M460.249,426.144
	c-2.277-0.349-4.908-0.923-8.095-1.761c-10.187-0.583-14.552-1.457-17.169-9.024c-1.121-3.231,1.2-6.824,2.33-12.191
	c1.13-5.367-0.282-11.299-2.26-15.253s-2.542-5.367,0-7.627c1.726-1.532,2.67-3.063,3.01-4.952c0.164-0.892,0.19-1.867,0.098-2.957
	c-0.354-4.259,0.82-7.362,7.627-20.621c3.328-6.479,5.57-10.566,6.858-13.616l-12.425-9.715l6.52-10.999l10.866,9.136
	c0.843-0.883,1.81-1.792,2.869-2.772c1.65-1.518,2.445-4.065,2.82-6.92c0.464-3.504,0.287-7.477,0.287-10.593
	c0-3.054-0.411-4.705-1.373-5.711c-0.816-0.856-2.025-1.245-3.712-1.633c-3.672-0.847-6.497-1.694-12.994-1.694
	c-6.496,0-13.275,0.564-19.208,0.282c-5.932-0.282-11.511-1.62-17.514-3.955c-3.124-1.218-4.329-2.86-4.528-4.997
	c-2.556,0.548-4.082,1.121-5.641,2.971c-0.856,1.011-1.801,2.383-3.107,4.286c-2.281,3.336-3.954,5.084-5.649,7.344
	c-1.694,2.26-3.116,1.359-4.811,0.794l-2.547-0.234l-0.755,6.497l-4.047,2.354l-7.062,11.674l-8.664,4.049l-0.847,2.448l0.097,6.027
	l5.649,5.462l6.215,2.447l1.151,3.491l3.827,6.382l0.203,14.918l5.517-1.002l4.785,8.435l-6.859,4.44l1.174,11.582l14.35,14.856
	l-1.289,12.343l-11.74,12.455l11.224,3.456l10.249-11.688l7.149,17.165l-2.692,7.45l6.365,9.78l8.125,1.263l9.105-4.37
	l12.041,11.631h11.581l8.192,7.018l4.096-6.727l-0.588-6.024l6.145-7.313l0.296-16.093l-14.919-2.043
	C460.572,436.097,460.249,426.144,460.249,426.144z"/>
<path id="_x31_004" fill-rule="evenodd" clip-rule="evenodd" fill="#989898" d="M397.236,407.794l-14.35-14.856l-1.174-11.582
	l6.859-4.44l-4.785-8.435l-5.517,1.002l-0.203-14.918l-3.827-6.382l-1.151-3.491l-6.215-2.447l-5.649-5.462l-0.097-6.027
	l-1.722,0.24l-5.83,5.084l-7.979-10.089l-18.643,5.084l-13.371-4.043l1.398,11.943l-20.512,18.37l0.803,7.6l-15.428,13.806
	l-1.194,19.835l17.514,19.497l-4.341,4.096l8.578,15.307l7.686,4.639l22.898-15.183l8.879-1.452c1.529-1.638,2.891-2.181,3.804-2.03
	c0.716-2.326,1.267-4.405,1.715-6.982l5.864,6.974l11.451-0.776l12.199,3.884l9.309,6.033l11.74-12.455L397.236,407.794z"/>
<path id="_x31_003" fill-rule="evenodd" clip-rule="evenodd" fill="#666666" d="M428.524,514.96l9.326,4.383l3.733,1.06
	l4.586-24.104l-7.909-18.453l7.513-10.566l-12.041-11.631l-9.105,4.37l-8.125-1.263l-6.365-9.78l2.692-7.45l-7.149-17.165
	l-10.249,11.688l-11.224-3.456l-9.309-6.033l-12.199-3.884l-11.451,0.776l-5.864-6.974c-0.448,2.578-0.999,4.656-1.715,6.982
	c-0.913-0.15-2.274,0.393-3.804,2.03l-8.879,1.452l-22.898,15.183l-12.572,10.482l1.215,7.562l-10.734,4.52l-7.91-4.272
	l-14.505,5.217l1.794,24.761l-3.672,1.694l3.955,12.111l5.084-3.354l7.697,13.661l8.594,8.165l-7.3,13.417l12.866,5.089
	l-4.427,11.145l-0.848,10.452l4.321,8.978l-6.779,3.39l-4.039,12.305l-2.635,15.064l3.385,15.24l14.694-4.696l9.268-17.072
	c6.264-9.608,16.543-13.236,30.839-10.884l14.753-13.665l6.892-10.155l27.089-15.603l7.98,6.894l2.904-7.979l9.065-5.442
	l14.026-12.217L428.524,514.96z"/>
<path id="_x31_007" fill-rule="evenodd" clip-rule="evenodd" fill="#989898" d="M240.15,533.396
	c-5.994,5.045-13.587,9.454-16.948,19.209c-0.656,1.902-1.889,2.568-2.916,2.507c-1.549-0.102-3.182-2.102-4.711-5.332
	c-0.607-1.279-1.196-2.348-1.807-3.266l-13.069,3.151l-2.904,11.25l4.747,4.321l16.519,15.051l14.311-18.829l16.949,6.399
	l30.507,19.588l4.039-12.305l6.779-3.39l-4.321-8.978l0.848-10.452l4.427-11.145l-12.866-5.089l7.3-13.417l-8.594-8.165
	l-7.697-13.661l-5.084,3.354l-3.955-12.111l-18.079,2.26l-10.452-8.474L219.68,499.94l-6.853,9.63l0.771,5.183l17.815,15.081
	l10.158-7.979C241.569,521.854,240.15,533.396,240.15,533.396z"/>
<polygon id="_x31_002" fill-rule="evenodd" clip-rule="evenodd" fill="#807F7F" points="219.68,499.94 233.172,485.874 
	243.624,494.348 261.702,492.088 265.374,490.394 263.58,465.633 278.086,460.416 285.995,464.688 296.73,460.169 295.515,452.607 
	308.087,442.125 300.402,437.486 291.823,422.18 296.164,418.084 278.651,398.587 279.844,378.752 266.522,365.008 246.919,393.37 
	261.128,400.564 243.132,429.635 214.895,461.131 191.006,471.834 189.76,506.649 189.097,521.188 197.496,513.623 207.902,521.431 
	213.598,514.753 212.827,509.57 "/>
<path id="_x31_001" fill-rule="evenodd" clip-rule="evenodd" fill="#666666" d="M295.273,364.946l-15.428,13.806l-13.323-13.744
	l5.314-7.693l-3.363-6.749l4.061-7.626l7.942,2.78l6.422-8.62l-6.91-20.687c2.271-1.898,4.358-4.008,6.274-6.268l-7.603-9.79
	l-9.304,9.794l-15.499-22.532c1.177-1.006,2.353-2.035,3.524-3.09c3.684-3.314,9.874-8.813,16.3-14.371l21.812,25.793
	c-1.461,2.917-3.111,5.8-4.97,8.558l5.239,5.738l2.677-6.722l9.023,5.235l-0.084,24.637l6.204-6.365l1.398,11.943l-20.512,18.37
	L295.273,364.946z M193.908,414.123l12.583-7.322l13.603,8.231c0.283-3.672,2.423-6.647,5.932-11.017
	c2.458-3.063,4.731-5.95,6.826-8.686l-15.3-12.402l-21.527,24.69l-5.047-0.653l-4.365,5.504L193.908,414.123z M183.739,405.561
	l0.958-6.153l-4.094-5.186L167.559,408.2l6.088,5.822l2.704,2.593L183.739,405.561z M220.953,368.777l8.229,10.151l17.178-3.354
	c3.237-5.702,5.261-10.672,6.219-15.342c0.179-0.87,0.357-1.756,0.541-2.657l-8.589-6.78l-0.347-17.019l10.668-12.861
	l-16.984-19.271c-1.657,1.655-3.257,3.372-4.78,5.2c-7.062,8.474-14.688,14.971-28.247,23.728
	c-13.559,8.756-14.943,11.528-22.033,19.208c-1.693,1.836-3.244,3.333-4.683,4.546l16.445,15.634l11.008,10.469L220.953,368.777z"/>
<g>
	<path id="ID_x5F_9151_Lac_de_Neuchâtel" fill-rule="evenodd" clip-rule="evenodd" fill="#CCD3DA" d="M204.841,330.572
		c13.559-8.757,21.186-15.254,28.247-23.728c1.523-1.828,3.123-3.544,4.78-5.2c4.977-4.956,10.484-9.304,15.988-14.026
		c1.177-1.006,2.353-2.035,3.524-3.09c3.684-3.314,9.874-8.813,16.3-14.371c8.357-7.23,17.116-14.552,21.27-17.266
		c7.344-4.802,10.451-6.497,14.971-13.842c0.883-1.434,1.664-2.648,2.317-3.725c2.687-4.436,3.193-6.511-0.34-11.812
		c-3.222-4.833-4.791-6.814-6.226-7.212c-1.078-0.295-2.083,0.309-3.66,1.28c-3.673,2.26-5.65,2.825-12.712-0.565
		c-7.062-3.39-9.306-3.743-16.101,1.695c-11.299,9.039-13.276,9.321-16.101,9.887c-2.825,0.565-5.649,0.848-9.887,4.237
		c-2.119,1.694-4.59,3.53-6.921,5.367c-2.33,1.836-4.52,3.672-6.073,5.367c-3.107,3.39-4.802,4.237-5.084,8.757
		c-0.142,2.26-0.495,4.237-1.448,5.968c-0.953,1.73-2.507,3.213-5.049,4.484c-5.085,2.542-15.536,8.756-23.445,17.513
		c-7.91,8.756-17.514,19.208-20.903,26.27c-1.254,2.613-3.008,5.146-5.122,7.592c-3.606,4.158-8.254,8.055-13.239,11.617
		c-7.91,5.649-38.417,27.4-43.501,31.919c-5.084,4.52-5.084,7.062-2.26,9.604c0.603,0.543,1.17,1.107,1.768,1.624
		c2.211,1.916,4.815,3.169,10.944,0.071c23.445-11.864,28.812-13.276,34.745-11.299c4.943,1.651,9.299,2.71,16.502-3.363
		c1.439-1.213,2.99-2.71,4.683-4.546C189.898,342.101,191.282,339.329,204.841,330.572z"/>
	<path id="ID_x5F_9294_Lac_de_Morat_x2F_Murtensee" fill-rule="evenodd" clip-rule="evenodd" fill="#CCD3DA" d="M322.861,264.146
		c6-4.211,10.815-6.285,18.698-10.408c3.293-1.907,4.989-2.644,6.788-2.017c1.135,0.397,2.309,1.337,3.946,2.864
		c4.237,3.955,6.406,6.872,1.13,10.169c-9.125,5.703-16.039,10.672-22.38,16.242c-1.51,1.324-2.988,2.684-4.456,4.096
		c-4.481,4.316-8.474,5.367-14.688,0c-3.817-3.297-5.257-4.961-4.707-6.753c0.347-1.13,1.477-2.313,3.295-3.981
		C315.549,269.708,319.403,266.574,322.861,264.146z"/>
</g>
<g display="none">
	<g display="inline">
		<path fill="#1A171B" d="M375.37,334.899l2.017-0.176c0.097,0.812,0.317,1.474,0.671,1.995c0.349,0.516,0.892,0.936,1.624,1.258
			c0.737,0.318,1.562,0.481,2.485,0.481c0.816,0,1.54-0.124,2.162-0.366c0.623-0.243,1.091-0.574,1.395-0.998
			c0.305-0.424,0.459-0.887,0.459-1.386c0-0.508-0.146-0.949-0.441-1.329c-0.295-0.38-0.781-0.697-1.456-0.953
			c-0.437-0.172-1.395-0.433-2.882-0.79c-1.483-0.358-2.525-0.693-3.121-1.011c-0.771-0.406-1.346-0.905-1.726-1.505
			s-0.569-1.271-0.569-2.017c0-0.812,0.234-1.576,0.693-2.286c0.468-0.711,1.143-1.249,2.03-1.615
			c0.892-0.371,1.88-0.557,2.97-0.557c1.196,0,2.256,0.194,3.174,0.583c0.914,0.384,1.62,0.953,2.109,1.704
			c0.495,0.75,0.76,1.598,0.795,2.551l-2.048,0.15c-0.115-1.02-0.485-1.792-1.121-2.313c-0.636-0.525-1.58-0.786-2.82-0.786
			c-1.293,0-2.238,0.239-2.829,0.71c-0.592,0.477-0.892,1.046-0.892,1.717c0,0.583,0.212,1.059,0.631,1.434
			c0.411,0.375,1.487,0.759,3.227,1.152c1.739,0.393,2.935,0.737,3.584,1.033c0.94,0.433,1.633,0.984,2.083,1.651
			c0.45,0.666,0.671,1.43,0.671,2.299c0,0.861-0.247,1.673-0.737,2.432c-0.489,0.764-1.2,1.355-2.123,1.778
			c-0.927,0.424-1.964,0.631-3.115,0.631c-1.466,0-2.692-0.212-3.682-0.635c-0.988-0.428-1.766-1.073-2.33-1.929
			C375.697,336.952,375.401,335.985,375.37,334.899z"/>
		<path fill="#1A171B" d="M398.939,336.325l2.053,0.252c-0.327,1.2-0.923,2.131-1.801,2.793c-0.874,0.662-1.991,0.993-3.354,0.993
			c-1.713,0-3.072-0.53-4.074-1.584c-1.006-1.055-1.505-2.533-1.505-4.44c0-1.973,0.503-3.5,1.519-4.59
			c1.015-1.09,2.335-1.633,3.954-1.633c1.562,0,2.843,0.534,3.84,1.602c0.989,1.064,1.488,2.564,1.488,4.502
			c0,0.115-0.005,0.292-0.014,0.53h-8.739c0.075,1.285,0.441,2.269,1.095,2.958c0.653,0.68,1.475,1.023,2.449,1.023
			c0.729,0,1.351-0.189,1.867-0.573C398.228,337.773,398.634,337.164,398.939,336.325z M392.42,333.117h6.541
			c-0.089-0.989-0.336-1.726-0.751-2.22c-0.635-0.764-1.451-1.147-2.463-1.147c-0.909,0-1.677,0.305-2.299,0.914
			C392.825,331.276,392.482,332.093,392.42,333.117z"/>
		<path fill="#1A171B" d="M403.485,340.099v-11.718h1.788v1.664c0.86-1.284,2.101-1.929,3.729-1.929
			c0.706,0,1.354,0.128,1.946,0.379c0.592,0.256,1.037,0.587,1.333,1.002c0.291,0.411,0.499,0.9,0.618,1.466
			c0.07,0.366,0.105,1.011,0.105,1.933v7.203h-1.986v-7.128c0-0.808-0.074-1.412-0.229-1.814c-0.154-0.401-0.428-0.724-0.82-0.962
			c-0.397-0.239-0.856-0.358-1.386-0.358c-0.848,0-1.576,0.27-2.189,0.808c-0.618,0.534-0.923,1.553-0.923,3.054v6.4H403.485z"/>
		<path fill="#1A171B" d="M415.256,336.604l1.969-0.309c0.105,0.786,0.415,1.386,0.918,1.81c0.503,0.415,1.209,0.626,2.114,0.626
			c0.913,0,1.589-0.185,2.03-0.556c0.441-0.371,0.662-0.808,0.662-1.307c0-0.45-0.194-0.803-0.587-1.06
			c-0.27-0.176-0.945-0.401-2.03-0.675c-1.457-0.367-2.463-0.685-3.028-0.954c-0.561-0.269-0.988-0.64-1.279-1.117
			c-0.292-0.472-0.433-0.998-0.433-1.571c0-0.521,0.114-1.006,0.357-1.452c0.238-0.446,0.561-0.812,0.976-1.107
			c0.309-0.229,0.732-0.419,1.262-0.579c0.534-0.159,1.104-0.238,1.717-0.238c0.923,0,1.726,0.132,2.424,0.397
			c0.692,0.265,1.209,0.622,1.535,1.077c0.336,0.45,0.561,1.055,0.688,1.814l-1.941,0.265c-0.089-0.604-0.345-1.073-0.769-1.413
			s-1.023-0.507-1.792-0.507c-0.913,0-1.562,0.15-1.955,0.455c-0.393,0.3-0.587,0.653-0.587,1.059c0,0.256,0.084,0.485,0.247,0.693
			c0.159,0.212,0.415,0.389,0.76,0.53c0.198,0.075,0.785,0.243,1.756,0.508c1.404,0.375,2.384,0.684,2.939,0.922
			c0.557,0.238,0.989,0.587,1.307,1.042c0.318,0.455,0.477,1.024,0.477,1.699c0,0.662-0.194,1.284-0.582,1.872
			c-0.384,0.583-0.944,1.037-1.669,1.355c-0.732,0.322-1.553,0.481-2.472,0.481c-1.526,0-2.683-0.318-3.482-0.949
			C415.989,338.784,415.477,337.844,415.256,336.604z"/>
		<path fill="#1A171B" d="M435.374,336.325l2.052,0.252c-0.322,1.2-0.923,2.131-1.796,2.793c-0.879,0.662-1.995,0.993-3.354,0.993
			c-1.717,0-3.077-0.53-4.078-1.584c-1.007-1.055-1.51-2.533-1.51-4.44c0-1.973,0.512-3.5,1.527-4.59
			c1.015-1.09,2.33-1.633,3.945-1.633c1.571,0,2.852,0.534,3.84,1.602c0.998,1.064,1.492,2.564,1.492,4.502
			c0,0.115-0.005,0.292-0.009,0.53h-8.739c0.07,1.285,0.433,2.269,1.09,2.958c0.658,0.68,1.47,1.023,2.45,1.023
			c0.729,0,1.351-0.189,1.862-0.573C434.663,337.773,435.073,337.164,435.374,336.325z M428.851,333.117h6.545
			c-0.088-0.989-0.34-1.726-0.75-2.22c-0.632-0.764-1.452-1.147-2.459-1.147c-0.913,0-1.682,0.305-2.304,0.914
			C429.265,331.276,428.921,332.093,428.851,333.117z"/>
	</g>
	<g display="inline">
		<path fill="#1A171B" d="M336.831,262.82l2.02-0.176c0.095,0.812,0.318,1.474,0.669,1.995c0.349,0.516,0.892,0.936,1.626,1.258
			c0.735,0.317,1.562,0.481,2.483,0.481c0.816,0,1.538-0.124,2.162-0.367c0.625-0.242,1.091-0.573,1.396-0.997
			c0.307-0.424,0.459-0.887,0.459-1.386c0-0.508-0.148-0.949-0.441-1.329c-0.294-0.379-0.779-0.697-1.457-0.953
			c-0.435-0.172-1.395-0.433-2.88-0.79s-2.526-0.693-3.122-1.011c-0.773-0.406-1.349-0.905-1.727-1.505
			c-0.379-0.601-0.569-1.271-0.569-2.017c0-0.812,0.231-1.576,0.695-2.287c0.464-0.71,1.141-1.249,2.03-1.615
			c0.89-0.371,1.881-0.556,2.969-0.556c1.198,0,2.255,0.194,3.173,0.583c0.914,0.384,1.62,0.954,2.112,1.704
			c0.492,0.75,0.757,1.598,0.794,2.551l-2.052,0.15c-0.11-1.02-0.483-1.792-1.119-2.313c-0.638-0.525-1.578-0.786-2.82-0.786
			c-1.295,0-2.238,0.238-2.829,0.711c-0.594,0.477-0.89,1.046-0.89,1.717c0,0.583,0.21,1.059,0.629,1.435
			c0.413,0.375,1.487,0.759,3.227,1.151c1.741,0.393,2.936,0.737,3.582,1.033c0.942,0.433,1.637,0.984,2.085,1.65
			c0.448,0.667,0.673,1.43,0.673,2.3c0,0.86-0.247,1.673-0.738,2.432c-0.492,0.764-1.201,1.355-2.123,1.779
			c-0.925,0.424-1.965,0.631-3.119,0.631c-1.463,0-2.689-0.212-3.679-0.636c-0.99-0.428-1.765-1.072-2.33-1.929
			C337.158,264.872,336.861,263.906,336.831,262.82z"/>
		<path fill="#1A171B" d="M360.404,264.246l2.048,0.251c-0.322,1.201-0.919,2.132-1.797,2.794s-1.99,0.993-3.354,0.993
			c-1.715,0-3.074-0.53-4.076-1.585c-1.006-1.055-1.507-2.533-1.507-4.44c0-1.973,0.508-3.5,1.522-4.59
			c1.016-1.09,2.333-1.633,3.95-1.633c1.567,0,2.847,0.534,3.84,1.602c0.993,1.064,1.492,2.564,1.492,4.502
			c0,0.115-0.009,0.292-0.014,0.53h-8.739c0.073,1.284,0.438,2.269,1.093,2.957c0.655,0.68,1.472,1.024,2.45,1.024
			c0.728,0,1.353-0.19,1.864-0.574S360.099,265.084,360.404,264.246z M353.88,261.037h6.541c-0.089-0.989-0.336-1.726-0.751-2.221
			c-0.631-0.763-1.447-1.147-2.458-1.147c-0.912,0-1.68,0.305-2.302,0.914C354.29,259.196,353.946,260.013,353.88,261.037z"/>
		<path fill="#1A171B" d="M372.969,264.246l2.052,0.251c-0.326,1.201-0.922,2.132-1.801,2.794c-0.873,0.662-1.99,0.993-3.354,0.993
			c-1.713,0-3.072-0.53-4.074-1.585c-1.006-1.055-1.505-2.533-1.505-4.44c0-1.973,0.503-3.5,1.519-4.59
			c1.015-1.09,2.334-1.633,3.954-1.633c1.562,0,2.843,0.534,3.84,1.602c0.989,1.064,1.487,2.564,1.487,4.502
			c0,0.115-0.004,0.292-0.013,0.53h-8.739c0.075,1.284,0.441,2.269,1.095,2.957c0.653,0.68,1.474,1.024,2.449,1.024
			c0.729,0,1.351-0.19,1.867-0.574C372.258,265.693,372.664,265.084,372.969,264.246z M366.449,261.037h6.541
			c-0.088-0.989-0.335-1.726-0.75-2.221c-0.636-0.763-1.452-1.147-2.463-1.147c-0.909,0-1.677,0.305-2.3,0.914
			C366.856,259.196,366.512,260.013,366.449,261.037z"/>
		<path fill="#1A171B" d="M376.028,268.293l4.688-16.728h1.589l-4.679,16.728H376.028z"/>
		<path fill="#1A171B" d="M342.497,290.617v-16.176h2.141v14.269h7.966v1.907H342.497z"/>
		<path fill="#1A171B" d="M362.548,289.17c-0.737,0.626-1.447,1.068-2.127,1.324c-0.68,0.26-1.413,0.388-2.189,0.388
			c-1.287,0-2.277-0.313-2.969-0.944c-0.69-0.627-1.037-1.43-1.037-2.41c0-0.573,0.131-1.099,0.393-1.571
			c0.261-0.477,0.604-0.856,1.024-1.143c0.424-0.287,0.9-0.503,1.43-0.649c0.391-0.106,0.978-0.203,1.769-0.3
			c1.602-0.189,2.78-0.419,3.539-0.684c0.009-0.274,0.009-0.446,0.009-0.516c0-0.812-0.185-1.382-0.561-1.713
			c-0.507-0.45-1.262-0.671-2.264-0.671c-0.932,0-1.622,0.164-2.068,0.49c-0.443,0.326-0.772,0.904-0.986,1.734l-1.942-0.265
			c0.177-0.83,0.469-1.501,0.872-2.013c0.404-0.512,0.989-0.905,1.755-1.179c0.766-0.278,1.65-0.415,2.661-0.415
			c0.997,0,1.81,0.12,2.437,0.354s1.086,0.529,1.377,0.887c0.296,0.358,0.503,0.808,0.618,1.351c0.07,0.34,0.102,0.954,0.102,1.836
			v2.648c0,1.845,0.039,3.011,0.128,3.5c0.084,0.49,0.251,0.958,0.503,1.408h-2.074C362.738,290.207,362.606,289.726,362.548,289.17
			z M362.38,284.738c-0.724,0.291-1.801,0.543-3.244,0.75c-0.816,0.115-1.395,0.248-1.732,0.397c-0.337,0.146-0.6,0.362-0.783,0.645
			c-0.183,0.282-0.275,0.596-0.275,0.944c0,0.53,0.2,0.971,0.6,1.324c0.402,0.353,0.989,0.529,1.764,0.529
			c0.764,0,1.443-0.167,2.039-0.503s1.033-0.794,1.315-1.377c0.212-0.446,0.317-1.108,0.317-1.986V284.738z"/>
		<path fill="#1A171B" d="M375.114,286.327l1.956,0.252c-0.217,1.346-0.76,2.4-1.643,3.16c-0.878,0.763-1.959,1.143-3.239,1.143
			c-1.603,0-2.892-0.525-3.866-1.571c-0.972-1.05-1.461-2.551-1.461-4.511c0-1.262,0.207-2.37,0.631-3.319
			c0.415-0.949,1.055-1.66,1.911-2.136c0.86-0.472,1.787-0.711,2.798-0.711c1.275,0,2.313,0.322,3.121,0.967
			c0.812,0.645,1.333,1.558,1.558,2.741l-1.929,0.296c-0.186-0.786-0.512-1.377-0.979-1.774c-0.468-0.397-1.033-0.596-1.695-0.596
			c-0.997,0-1.81,0.358-2.437,1.077c-0.626,0.715-0.936,1.849-0.936,3.403c0,1.576,0.301,2.719,0.9,3.434
			c0.604,0.711,1.395,1.068,2.366,1.068c0.776,0,1.43-0.238,1.95-0.715C374.642,288.053,374.977,287.316,375.114,286.327z"/>
	</g>
	<g display="inline">
		<path fill="#1A171B" d="M185.209,355.657v-16.176h6.069c1.236,0,2.227,0.164,2.975,0.49c0.746,0.327,1.331,0.834,1.752,1.514
			c0.424,0.68,0.636,1.39,0.636,2.132c0,0.693-0.188,1.346-0.563,1.955c-0.375,0.609-0.942,1.104-1.699,1.479
			c0.978,0.287,1.73,0.776,2.258,1.465c0.525,0.693,0.788,1.51,0.788,2.454c0,0.755-0.161,1.461-0.479,2.11
			c-0.322,0.653-0.717,1.156-1.187,1.509c-0.47,0.354-1.062,0.618-1.77,0.799c-0.71,0.181-1.58,0.27-2.61,0.27H185.209z
			 M187.349,346.278h3.498c0.949,0,1.628-0.062,2.042-0.19c0.545-0.159,0.953-0.428,1.231-0.803
			c0.274-0.375,0.413-0.848,0.413-1.413c0-0.539-0.128-1.011-0.386-1.417c-0.258-0.411-0.625-0.688-1.104-0.839
			c-0.479-0.15-1.298-0.225-2.461-0.225h-3.233V346.278z M187.349,353.75h4.028c0.69,0,1.176-0.026,1.456-0.08
			c0.492-0.088,0.905-0.234,1.236-0.441c0.331-0.207,0.602-0.507,0.816-0.9c0.214-0.393,0.32-0.847,0.32-1.359
			c0-0.604-0.154-1.13-0.463-1.576s-0.737-0.754-1.284-0.936c-0.55-0.181-1.338-0.269-2.368-0.269h-3.741V353.75z"/>
		<path fill="#1A171B" d="M200.094,355.657v-11.718h1.788v1.779c0.457-0.834,0.876-1.382,1.264-1.646
			c0.384-0.265,0.81-0.397,1.273-0.397c0.669,0,1.351,0.212,2.042,0.64l-0.684,1.845c-0.485-0.292-0.971-0.433-1.457-0.433
			c-0.435,0-0.823,0.132-1.169,0.393c-0.347,0.261-0.592,0.623-0.739,1.086c-0.221,0.706-0.331,1.479-0.331,2.317v6.135H200.094z"/>
		<path fill="#1A171B" d="M206.902,349.796c0-2.167,0.603-3.774,1.81-4.82c1.008-0.87,2.235-1.302,3.686-1.302
			c1.611,0,2.928,0.53,3.95,1.585c1.022,1.055,1.534,2.511,1.534,4.374c0,1.51-0.228,2.692-0.678,3.558
			c-0.454,0.865-1.112,1.536-1.977,2.017c-0.863,0.477-1.808,0.715-2.829,0.715c-1.64,0-2.966-0.525-3.977-1.58
			C207.407,353.292,206.902,351.777,206.902,349.796z M208.944,349.796c0,1.5,0.326,2.626,0.982,3.372
			c0.655,0.746,1.479,1.121,2.472,1.121c0.986,0,1.805-0.375,2.46-1.125s0.982-1.894,0.982-3.43c0-1.452-0.329-2.551-0.989-3.297
			c-0.657-0.746-1.476-1.117-2.454-1.117c-0.993,0-1.816,0.371-2.472,1.112C209.27,347.174,208.944,348.295,208.944,349.796z"/>
		<path fill="#1A171B" d="M220.121,360.168l-0.221-1.862c0.435,0.119,0.812,0.176,1.137,0.176c0.441,0,0.794-0.075,1.059-0.221
			c0.265-0.146,0.481-0.353,0.651-0.618c0.125-0.199,0.326-0.693,0.606-1.479c0.038-0.11,0.095-0.274,0.177-0.486l-4.447-11.74
			h2.141l2.438,6.784c0.316,0.865,0.601,1.766,0.85,2.719c0.228-0.914,0.501-1.805,0.817-2.675l2.504-6.828h1.986l-4.458,11.917
			c-0.479,1.289-0.85,2.176-1.115,2.661c-0.353,0.653-0.757,1.134-1.214,1.439c-0.457,0.305-1,0.459-1.633,0.459
			C221.019,360.415,220.591,360.331,220.121,360.168z"/>
		<path fill="#1A171B" d="M239.53,351.883l2.052,0.251c-0.324,1.201-0.922,2.132-1.798,2.794s-1.993,0.993-3.354,0.993
			c-1.714,0-3.074-0.529-4.076-1.584c-1.007-1.055-1.508-2.533-1.508-4.44c0-1.973,0.508-3.5,1.523-4.59s2.333-1.633,3.95-1.633
			c1.567,0,2.847,0.534,3.84,1.603c0.993,1.063,1.49,2.564,1.49,4.502c0,0.115-0.004,0.291-0.011,0.529h-8.739
			c0.073,1.285,0.437,2.269,1.092,2.958c0.655,0.68,1.472,1.024,2.45,1.024c0.728,0,1.351-0.19,1.865-0.574
			C238.82,353.331,239.228,352.722,239.53,351.883z M233.009,348.675h6.543c-0.088-0.989-0.337-1.726-0.75-2.22
			c-0.633-0.764-1.452-1.147-2.461-1.147c-0.911,0-1.679,0.305-2.302,0.914C233.419,346.834,233.075,347.651,233.009,348.675z"/>
	</g>
	<g display="inline">
		<path fill="#1A171B" d="M244.11,446.786v-1.897l6.852-0.009v6.002c-1.053,0.839-2.136,1.47-3.255,1.894
			c-1.119,0.424-2.266,0.632-3.442,0.632c-1.589,0-3.032-0.34-4.33-1.02c-1.3-0.681-2.279-1.664-2.941-2.953
			c-0.662-1.284-0.993-2.724-0.993-4.312c0-1.575,0.329-3.045,0.986-4.409c0.66-1.363,1.606-2.374,2.843-3.036
			c1.235-0.662,2.659-0.998,4.27-0.998c1.169,0,2.227,0.19,3.171,0.569c0.946,0.38,1.688,0.909,2.224,1.585
			c0.537,0.675,0.945,1.558,1.225,2.648l-1.931,0.529c-0.243-0.825-0.545-1.47-0.905-1.942c-0.36-0.472-0.876-0.847-1.545-1.13
			c-0.668-0.282-1.412-0.423-2.229-0.423c-0.978,0-1.825,0.146-2.538,0.445c-0.713,0.296-1.289,0.688-1.726,1.174
			c-0.439,0.485-0.779,1.02-1.022,1.603c-0.413,0.997-0.618,2.083-0.618,3.253c0,1.443,0.249,2.648,0.743,3.619
			c0.499,0.971,1.221,1.69,2.169,2.162c0.949,0.473,1.958,0.707,3.023,0.707c0.927,0,1.832-0.177,2.714-0.534
			s1.552-0.737,2.008-1.144v-3.015H244.11z"/>
		<path fill="#1A171B" d="M253.82,453.133v-16.176h1.986v16.176H253.82z"/>
		<path fill="#1A171B" d="M266.531,451.686c-0.734,0.627-1.443,1.068-2.123,1.324c-0.682,0.26-1.413,0.389-2.191,0.389
			c-1.287,0-2.278-0.313-2.968-0.945c-0.691-0.626-1.037-1.43-1.037-2.409c0-0.574,0.13-1.1,0.393-1.571
			c0.261-0.477,0.603-0.856,1.024-1.144c0.424-0.287,0.9-0.503,1.43-0.648c0.391-0.106,0.978-0.203,1.766-0.301
			c1.604-0.189,2.785-0.419,3.542-0.684c0.006-0.273,0.011-0.446,0.011-0.517c0-0.812-0.188-1.382-0.562-1.713
			c-0.508-0.449-1.263-0.67-2.262-0.67c-0.934,0-1.624,0.163-2.07,0.489c-0.444,0.327-0.772,0.905-0.986,1.734l-1.942-0.265
			c0.177-0.83,0.468-1.5,0.872-2.013c0.403-0.512,0.988-0.904,1.754-1.179c0.766-0.277,1.651-0.414,2.66-0.414
			c1,0,1.814,0.119,2.438,0.353c0.625,0.234,1.085,0.53,1.379,0.888c0.293,0.357,0.501,0.808,0.618,1.351
			c0.066,0.34,0.099,0.953,0.099,1.836v2.648c0,1.845,0.042,3.01,0.126,3.5c0.086,0.489,0.254,0.957,0.503,1.407h-2.074
			C266.723,452.723,266.59,452.241,266.531,451.686z M263.64,438.082l-1.247,1.876h-2.273l2.383-3.089h2.119l2.483,3.089h-2.251
			L263.64,438.082z M266.365,447.254c-0.722,0.292-1.803,0.543-3.244,0.751c-0.816,0.114-1.395,0.247-1.732,0.396
			c-0.338,0.146-0.601,0.362-0.783,0.645c-0.184,0.282-0.276,0.596-0.276,0.944c0,0.53,0.201,0.972,0.601,1.324
			c0.401,0.354,0.988,0.53,1.761,0.53c0.766,0,1.446-0.168,2.042-0.504c0.596-0.335,1.033-0.794,1.313-1.377
			c0.214-0.445,0.32-1.107,0.32-1.985V447.254z"/>
		<path fill="#1A171B" d="M271.452,453.133v-11.718h1.788v1.664c0.861-1.284,2.103-1.929,3.729-1.929
			c0.706,0,1.355,0.128,1.949,0.379c0.591,0.256,1.035,0.588,1.329,1.002c0.293,0.411,0.501,0.9,0.618,1.466
			c0.072,0.366,0.11,1.011,0.11,1.933v7.203h-1.986v-7.128c0-0.808-0.077-1.412-0.232-1.813c-0.154-0.402-0.428-0.725-0.823-0.963
			c-0.393-0.238-0.854-0.357-1.384-0.357c-0.846,0-1.576,0.27-2.191,0.808c-0.614,0.534-0.92,1.554-0.92,3.055v6.399H271.452z"/>
		<path fill="#1A171B" d="M292.042,449.359l2.052,0.252c-0.324,1.2-0.923,2.132-1.798,2.794c-0.877,0.662-1.993,0.993-3.355,0.993
			c-1.714,0-3.074-0.53-4.075-1.585c-1.007-1.055-1.508-2.533-1.508-4.44c0-1.973,0.508-3.5,1.523-4.59s2.333-1.633,3.951-1.633
			c1.566,0,2.847,0.533,3.84,1.602c0.992,1.064,1.489,2.564,1.489,4.502c0,0.115-0.005,0.292-0.011,0.53h-8.739
			c0.073,1.284,0.437,2.269,1.093,2.957c0.654,0.68,1.472,1.023,2.449,1.023c0.729,0,1.351-0.189,1.865-0.573
			C291.331,450.807,291.74,450.198,292.042,449.359z M285.521,446.15h6.543c-0.088-0.988-0.338-1.726-0.75-2.22
			c-0.634-0.764-1.452-1.147-2.461-1.147c-0.911,0-1.68,0.305-2.302,0.914C285.931,444.311,285.587,445.127,285.521,446.15z"/>
	</g>
	<g display="inline">
		<path fill="#1A171B" d="M217.095,558.298l-6.268-16.176h2.317l4.204,11.753c0.337,0.94,0.622,1.823,0.85,2.648
			c0.25-0.883,0.541-1.766,0.872-2.648l4.37-11.753h2.185l-6.333,16.176H217.095z"/>
		<path fill="#1A171B" d="M234.066,554.524l2.052,0.251c-0.324,1.201-0.922,2.132-1.799,2.794c-0.876,0.662-1.993,0.993-3.354,0.993
			c-1.715,0-3.074-0.529-4.076-1.584c-1.006-1.056-1.507-2.534-1.507-4.44c0-1.973,0.508-3.5,1.522-4.591
			c1.016-1.09,2.333-1.633,3.951-1.633c1.567,0,2.847,0.534,3.84,1.603c0.993,1.063,1.49,2.564,1.49,4.502
			c0,0.114-0.005,0.291-0.011,0.529h-8.739c0.073,1.284,0.437,2.269,1.092,2.957c0.656,0.68,1.472,1.024,2.45,1.024
			c0.729,0,1.351-0.189,1.865-0.574C233.356,555.972,233.764,555.362,234.066,554.524z M227.545,551.315h6.543
			c-0.088-0.988-0.338-1.726-0.75-2.22c-0.633-0.764-1.452-1.148-2.46-1.148c-0.912,0-1.68,0.305-2.302,0.914
			C227.955,549.475,227.611,550.291,227.545,551.315z"/>
		<path fill="#1A171B" d="M241.867,558.298l-4.458-11.719h2.097l2.516,7.019c0.271,0.759,0.523,1.545,0.75,2.361
			c0.177-0.618,0.424-1.359,0.739-2.229l2.604-7.15h2.041l-4.436,11.719H241.867z"/>
		<path fill="#1A171B" d="M257.933,554.524l2.053,0.251c-0.325,1.201-0.923,2.132-1.799,2.794s-1.993,0.993-3.354,0.993
			c-1.715,0-3.074-0.529-4.076-1.584c-1.006-1.056-1.507-2.534-1.507-4.44c0-1.973,0.507-3.5,1.522-4.591
			c1.015-1.09,2.333-1.633,3.95-1.633c1.567,0,2.847,0.534,3.84,1.603c0.993,1.063,1.49,2.564,1.49,4.502
			c0,0.114-0.004,0.291-0.011,0.529h-8.739c0.073,1.284,0.437,2.269,1.092,2.957c0.655,0.68,1.472,1.024,2.45,1.024
			c0.728,0,1.351-0.189,1.865-0.574C257.222,555.972,257.631,555.362,257.933,554.524z M251.412,551.315h6.543
			c-0.088-0.988-0.338-1.726-0.75-2.22c-0.633-0.764-1.452-1.148-2.46-1.148c-0.912,0-1.68,0.305-2.302,0.914
			C251.823,549.475,251.478,550.291,251.412,551.315z"/>
		<path fill="#1A171B" d="M262.391,562.809l-0.221-1.862c0.435,0.119,0.812,0.177,1.137,0.177c0.441,0,0.794-0.075,1.059-0.221
			c0.265-0.146,0.481-0.354,0.651-0.618c0.126-0.199,0.327-0.693,0.607-1.479c0.038-0.11,0.095-0.274,0.176-0.485l-4.446-11.741
			h2.141l2.438,6.784c0.315,0.865,0.6,1.766,0.85,2.719c0.227-0.913,0.501-1.805,0.816-2.675l2.505-6.828h1.986l-4.458,11.917
			c-0.479,1.289-0.85,2.176-1.114,2.662c-0.354,0.653-0.757,1.134-1.214,1.438c-0.457,0.305-1,0.459-1.633,0.459
			C263.289,563.056,262.861,562.972,262.391,562.809z"/>
		<path fill="#1A171B" d="M272.984,554.803l1.964-0.31c0.11,0.786,0.417,1.386,0.92,1.81c0.505,0.415,1.209,0.627,2.114,0.627
			c0.912,0,1.589-0.186,2.03-0.557c0.441-0.37,0.662-0.808,0.662-1.306c0-0.45-0.194-0.804-0.585-1.06
			c-0.271-0.177-0.949-0.401-2.03-0.676c-1.457-0.366-2.465-0.684-3.03-0.953c-0.561-0.27-0.989-0.64-1.28-1.116
			c-0.289-0.473-0.435-0.998-0.435-1.571c0-0.521,0.119-1.007,0.359-1.452c0.239-0.446,0.563-0.812,0.976-1.108
			c0.309-0.229,0.73-0.419,1.263-0.578c0.534-0.158,1.105-0.238,1.717-0.238c0.92,0,1.726,0.133,2.423,0.397
			c0.693,0.265,1.207,0.622,1.538,1.077c0.331,0.45,0.559,1.055,0.685,1.813l-1.942,0.265c-0.088-0.604-0.344-1.072-0.766-1.412
			c-0.424-0.34-1.022-0.508-1.794-0.508c-0.912,0-1.562,0.15-1.953,0.455c-0.391,0.3-0.585,0.653-0.585,1.06
			c0,0.256,0.082,0.485,0.243,0.692c0.161,0.212,0.415,0.389,0.761,0.53c0.199,0.075,0.784,0.242,1.755,0.507
			c1.405,0.376,2.385,0.685,2.941,0.923c0.554,0.238,0.991,0.587,1.307,1.042c0.315,0.454,0.474,1.023,0.474,1.699
			c0,0.662-0.192,1.284-0.58,1.871c-0.384,0.583-0.942,1.037-1.671,1.355c-0.728,0.322-1.551,0.48-2.471,0.48
			c-1.523,0-2.684-0.317-3.48-0.949C273.714,556.982,273.204,556.043,272.984,554.803z"/>
		<path fill="#1A171B" d="M293.099,554.524l2.053,0.251c-0.324,1.201-0.923,2.132-1.799,2.794s-1.992,0.993-3.354,0.993
			c-1.715,0-3.074-0.529-4.076-1.584c-1.006-1.056-1.507-2.534-1.507-4.44c0-1.973,0.507-3.5,1.522-4.591
			c1.015-1.09,2.333-1.633,3.95-1.633c1.566,0,2.847,0.534,3.84,1.603c0.993,1.063,1.49,2.564,1.49,4.502
			c0,0.114-0.005,0.291-0.012,0.529h-8.738c0.072,1.284,0.437,2.269,1.092,2.957c0.655,0.68,1.472,1.024,2.449,1.024
			c0.729,0,1.352-0.189,1.865-0.574C292.388,555.972,292.796,555.362,293.099,554.524z M286.577,551.315h6.543
			c-0.088-0.988-0.337-1.726-0.75-2.22c-0.633-0.764-1.451-1.148-2.461-1.148c-0.91,0-1.679,0.305-2.301,0.914
			C286.988,549.475,286.644,550.291,286.577,551.315z"/>
	</g>
	<g display="inline">
		<path fill="#1A171B" d="M315.982,512.087v-1.898l6.853-0.009v6.003c-1.053,0.839-2.137,1.47-3.256,1.894
			c-1.118,0.424-2.266,0.631-3.442,0.631c-1.589,0-3.032-0.34-4.33-1.02c-1.3-0.68-2.279-1.664-2.941-2.953
			c-0.662-1.284-0.993-2.723-0.993-4.312c0-1.576,0.329-3.046,0.986-4.409c0.66-1.364,1.606-2.375,2.843-3.037
			c1.235-0.662,2.659-0.997,4.271-0.997c1.169,0,2.227,0.189,3.171,0.569c0.946,0.379,1.688,0.909,2.225,1.584
			c0.536,0.676,0.944,1.559,1.225,2.648l-1.931,0.529c-0.243-0.825-0.546-1.469-0.905-1.941s-0.876-0.848-1.545-1.13
			c-0.668-0.282-1.412-0.424-2.229-0.424c-0.978,0-1.825,0.146-2.538,0.446c-0.713,0.295-1.289,0.688-1.726,1.174
			c-0.439,0.485-0.779,1.02-1.021,1.602c-0.413,0.998-0.618,2.084-0.618,3.253c0,1.443,0.249,2.648,0.743,3.619
			c0.499,0.972,1.221,1.69,2.17,2.163s1.957,0.706,3.023,0.706c0.927,0,1.832-0.177,2.714-0.534
			c0.883-0.357,1.552-0.737,2.009-1.143v-3.015H315.982z"/>
		<path fill="#1A171B" d="M325.714,518.434v-11.719h1.787v1.779c0.457-0.834,0.876-1.382,1.265-1.646
			c0.384-0.265,0.81-0.397,1.273-0.397c0.669,0,1.351,0.212,2.041,0.64l-0.684,1.846c-0.485-0.292-0.972-0.433-1.457-0.433
			c-0.435,0-0.823,0.132-1.169,0.393c-0.347,0.261-0.592,0.622-0.74,1.086c-0.221,0.706-0.33,1.479-0.33,2.317v6.135H325.714z"/>
		<path fill="#1A171B" d="M340.941,518.434v-1.722c-0.911,1.324-2.151,1.986-3.719,1.986c-0.69,0-1.337-0.132-1.938-0.397
			c-0.598-0.265-1.043-0.596-1.332-0.997c-0.292-0.401-0.497-0.892-0.614-1.475c-0.081-0.388-0.121-1.006-0.121-1.854v-7.261h1.986
			v6.502c0,1.032,0.04,1.734,0.121,2.092c0.126,0.525,0.391,0.936,0.795,1.231c0.403,0.3,0.904,0.446,1.5,0.446
			s1.154-0.15,1.678-0.455c0.522-0.305,0.892-0.724,1.107-1.249c0.219-0.525,0.327-1.289,0.327-2.286v-6.281h1.985v11.719H340.941z"
			/>
		<path fill="#1A171B" d="M345.74,522.944l-0.221-1.862c0.435,0.119,0.812,0.176,1.137,0.176c0.441,0,0.795-0.074,1.06-0.221
			c0.265-0.146,0.48-0.353,0.65-0.617c0.126-0.199,0.327-0.693,0.607-1.479c0.037-0.11,0.095-0.273,0.177-0.486l-4.447-11.74h2.141
			l2.438,6.784c0.316,0.865,0.601,1.766,0.85,2.719c0.228-0.913,0.501-1.806,0.816-2.675l2.505-6.828h1.986l-4.458,11.917
			c-0.479,1.289-0.85,2.177-1.114,2.662c-0.353,0.653-0.757,1.134-1.214,1.438s-0.999,0.459-1.633,0.459
			C346.639,523.191,346.211,523.107,345.74,522.944z"/>
		<path fill="#1A171B" d="M365.153,514.66l2.048,0.251c-0.322,1.201-0.918,2.132-1.797,2.794c-0.878,0.662-1.99,0.993-3.354,0.993
			c-1.717,0-3.076-0.529-4.076-1.585c-1.006-1.055-1.507-2.533-1.507-4.439c0-1.973,0.508-3.5,1.522-4.59
			c1.016-1.091,2.335-1.634,3.95-1.634c1.567,0,2.848,0.534,3.84,1.603c0.993,1.063,1.492,2.564,1.492,4.502
			c0,0.114-0.009,0.291-0.014,0.529h-8.738c0.074,1.284,0.437,2.269,1.09,2.957c0.657,0.68,1.475,1.024,2.454,1.024
			c0.724,0,1.351-0.19,1.862-0.574S364.848,515.498,365.153,514.66z M358.629,511.451h6.541c-0.089-0.988-0.336-1.726-0.751-2.221
			c-0.631-0.763-1.447-1.146-2.458-1.146c-0.914,0-1.682,0.304-2.3,0.913C359.039,509.61,358.695,510.427,358.629,511.451z
			 M363.21,505.259h-1.603l-2.546-3.09h2.656L363.21,505.259z"/>
		<path fill="#1A171B" d="M369.672,518.434v-11.719h1.792v1.779c0.454-0.834,0.873-1.382,1.262-1.646
			c0.384-0.265,0.812-0.397,1.271-0.397c0.671,0,1.351,0.212,2.043,0.64l-0.684,1.846c-0.485-0.292-0.971-0.433-1.457-0.433
			c-0.432,0-0.82,0.132-1.169,0.393s-0.592,0.622-0.737,1.086c-0.221,0.706-0.336,1.479-0.336,2.317v6.135H369.672z"/>
		<path fill="#1A171B" d="M385.243,514.66l2.052,0.251c-0.321,1.201-0.922,2.132-1.796,2.794c-0.879,0.662-1.995,0.993-3.354,0.993
			c-1.717,0-3.076-0.529-4.078-1.585c-1.007-1.055-1.51-2.533-1.51-4.439c0-1.973,0.513-3.5,1.527-4.59
			c1.015-1.091,2.33-1.634,3.946-1.634c1.57,0,2.851,0.534,3.84,1.603c0.997,1.063,1.491,2.564,1.491,4.502
			c0,0.114-0.004,0.291-0.009,0.529h-8.739c0.071,1.284,0.433,2.269,1.091,2.957c0.657,0.68,1.47,1.024,2.449,1.024
			c0.729,0,1.351-0.19,1.862-0.574C384.532,516.107,384.943,515.498,385.243,514.66z M378.72,511.451h6.545
			c-0.088-0.988-0.34-1.726-0.75-2.221c-0.631-0.763-1.452-1.146-2.458-1.146c-0.914,0-1.682,0.304-2.305,0.913
			C379.135,509.61,378.79,510.427,378.72,511.451z"/>
	</g>
	<g display="inline">
		<path fill="#1A171B" d="M301.88,387.467l2.02-0.177c0.094,0.812,0.317,1.474,0.668,1.995c0.349,0.516,0.892,0.936,1.627,1.258
			c0.734,0.317,1.562,0.481,2.482,0.481c0.816,0,1.538-0.124,2.163-0.366c0.624-0.243,1.09-0.574,1.395-0.998
			c0.307-0.424,0.459-0.887,0.459-1.386c0-0.508-0.148-0.949-0.441-1.329c-0.294-0.379-0.779-0.697-1.457-0.954
			c-0.435-0.172-1.395-0.433-2.88-0.79c-1.484-0.357-2.526-0.693-3.122-1.011c-0.772-0.406-1.349-0.905-1.726-1.505
			c-0.38-0.6-0.57-1.271-0.57-2.017c0-0.812,0.232-1.576,0.695-2.286c0.464-0.71,1.142-1.249,2.031-1.616
			c0.889-0.371,1.88-0.556,2.968-0.556c1.198,0,2.255,0.194,3.173,0.583c0.914,0.384,1.62,0.953,2.112,1.704
			c0.492,0.75,0.757,1.598,0.795,2.551l-2.053,0.15c-0.11-1.02-0.483-1.792-1.119-2.313c-0.638-0.525-1.577-0.786-2.82-0.786
			c-1.295,0-2.237,0.238-2.829,0.711c-0.594,0.477-0.889,1.046-0.889,1.717c0,0.583,0.209,1.059,0.629,1.435
			c0.412,0.375,1.486,0.759,3.226,1.152c1.741,0.393,2.936,0.737,3.582,1.033c0.942,0.433,1.638,0.984,2.085,1.651
			c0.448,0.667,0.674,1.43,0.674,2.299c0,0.861-0.247,1.673-0.739,2.432c-0.492,0.763-1.201,1.355-2.123,1.779
			c-0.925,0.423-1.964,0.631-3.118,0.631c-1.463,0-2.69-0.212-3.68-0.636c-0.99-0.428-1.765-1.072-2.33-1.929
			C302.206,389.519,301.908,388.552,301.88,387.467z"/>
		<path fill="#1A171B" d="M325.073,391.218c-0.734,0.626-1.443,1.068-2.123,1.324c-0.682,0.261-1.412,0.389-2.191,0.389
			c-1.286,0-2.277-0.313-2.968-0.944c-0.69-0.627-1.037-1.43-1.037-2.41c0-0.574,0.13-1.099,0.393-1.571
			c0.261-0.477,0.603-0.856,1.024-1.143c0.424-0.287,0.9-0.503,1.43-0.649c0.391-0.106,0.978-0.203,1.766-0.3
			c1.604-0.19,2.785-0.419,3.542-0.685c0.007-0.273,0.011-0.445,0.011-0.516c0-0.812-0.188-1.381-0.562-1.712
			c-0.508-0.45-1.263-0.671-2.262-0.671c-0.934,0-1.625,0.163-2.07,0.49c-0.443,0.327-0.772,0.905-0.986,1.735l-1.942-0.265
			c0.177-0.83,0.468-1.5,0.872-2.013c0.403-0.512,0.988-0.905,1.754-1.178c0.766-0.278,1.651-0.415,2.659-0.415
			c1,0,1.814,0.119,2.438,0.353c0.625,0.234,1.086,0.53,1.38,0.887c0.293,0.357,0.501,0.808,0.618,1.351
			c0.065,0.34,0.099,0.954,0.099,1.836v2.648c0,1.845,0.042,3.01,0.126,3.5c0.086,0.49,0.254,0.958,0.503,1.408h-2.074
			C325.266,392.255,325.133,391.774,325.073,391.218z M324.908,386.787c-0.722,0.291-1.803,0.542-3.244,0.75
			c-0.816,0.115-1.395,0.247-1.732,0.397c-0.338,0.146-0.601,0.362-0.783,0.644c-0.184,0.283-0.276,0.596-0.276,0.945
			c0,0.529,0.201,0.971,0.601,1.324c0.401,0.353,0.988,0.529,1.761,0.529c0.766,0,1.445-0.167,2.042-0.503
			c0.596-0.335,1.032-0.794,1.312-1.377c0.214-0.446,0.32-1.108,0.32-1.986V386.787z"/>
		<path fill="#1A171B" d="M329.973,392.666v-11.719h1.788v1.779c0.456-0.834,0.876-1.381,1.264-1.646
			c0.385-0.265,0.811-0.397,1.273-0.397c0.669,0,1.351,0.212,2.042,0.64l-0.685,1.845c-0.485-0.291-0.971-0.432-1.456-0.432
			c-0.436,0-0.823,0.132-1.17,0.393c-0.347,0.26-0.592,0.622-0.739,1.086c-0.221,0.706-0.331,1.479-0.331,2.317v6.135H329.973z"/>
		<path fill="#1A171B" d="M337.531,378.771v-2.282h1.986v2.282H337.531z M337.531,392.666v-11.719h1.986v11.719H337.531z"/>
		<path fill="#1A171B" d="M342.541,392.666v-11.719h1.787v1.664c0.86-1.284,2.104-1.929,3.729-1.929c0.706,0,1.355,0.128,1.949,0.38
			c0.591,0.256,1.034,0.587,1.328,1.002c0.293,0.41,0.501,0.9,0.618,1.465c0.072,0.367,0.11,1.011,0.11,1.934v7.203h-1.986v-7.128
			c0-0.808-0.077-1.412-0.231-1.814c-0.155-0.401-0.429-0.724-0.823-0.962c-0.394-0.238-0.854-0.357-1.384-0.357
			c-0.846,0-1.576,0.269-2.191,0.808c-0.613,0.534-0.921,1.554-0.921,3.054v6.4H342.541z"/>
		<path fill="#1A171B" d="M363.131,388.892l2.052,0.251c-0.322,1.201-0.922,2.132-1.796,2.794c-0.879,0.662-1.995,0.993-3.354,0.993
			c-1.717,0-3.076-0.53-4.078-1.584c-1.007-1.055-1.508-2.534-1.508-4.44c0-1.973,0.508-3.5,1.523-4.59
			c1.015-1.09,2.332-1.633,3.947-1.633c1.571,0,2.852,0.534,3.84,1.603c0.998,1.063,1.492,2.564,1.492,4.502
			c0,0.114-0.004,0.291-0.009,0.529h-8.741c0.072,1.284,0.437,2.269,1.092,2.957c0.658,0.68,1.471,1.024,2.45,1.024
			c0.729,0,1.351-0.19,1.862-0.574C362.42,390.34,362.83,389.73,363.131,388.892z M356.61,385.684h6.543
			c-0.088-0.989-0.34-1.726-0.75-2.22c-0.632-0.764-1.452-1.147-2.458-1.147c-0.914,0-1.682,0.304-2.305,0.914
			C357.02,383.843,356.676,384.659,356.61,385.684z"/>
	</g>
</g>
</svg>
