<?xml version="1.0" encoding="utf-8"?>
<!-- Generator: Adobe Illustrator 14.0.0, SVG Export Plug-In  -->
<!DOCTYPE svg PUBLIC "-//W3C//DTD SVG 1.1//EN" "http://www.w3.org/Graphics/SVG/1.1/DTD/svg11.dtd" [
	<!ENTITY ns_flows "http://ns.adobe.com/Flows/1.0/">
]>
<svg version="1.1"
	 xmlns="http://www.w3.org/2000/svg" xmlns:xlink="http://www.w3.org/1999/xlink" xmlns:a="http://ns.adobe.com/AdobeSVGViewerExtensions/3.0/"
	 x="0px" y="0px" viewBox="-116.659 -14.488 545 388"
	 enable-background="new -116.659 -14.488 545 388" xml:space="preserve">
<defs>
</defs>
<path id="201" name="Canton de Berne" fill="#4D4D4D" stroke="#FFFFFF" stroke-width="0.25" d="M7.163,69.117L3.618,86.57l-0.129,0.158l4.492-0.977l9.545-8.726
	l10.09-1.09l18.543-4.363l-2.455,5.726l3.273,1.091l2.727,1.909l9.817,5.726l-0.273,5.454l-2.454,3.546l-0.818,5.727l-6.272,2.181
	l-3.272,7.908l-4.364,8.181l-7.362-4.363l-1.771,6.366l1.963-0.25l4.584,4.428c0,0-1.834,4.66-2.521,5.126
	c-0.688,0.466-5.042,6.058-5.042,6.058L25.5,140.58l-6.34,6.215l3.7,1.711c0,0-0.616,2.4,0.426,3.962
	c1.041,1.561,1.787,3.845,1.787,3.845l2.167,3.702l-2.336,5.211l5.032-0.359l3.055,0.899l-1.258,5.211l2.336,5.032l5.173-5.352
	l-0.5-0.218l1.797-2.335l-1.289-5.683l5.335-6.896l0.625-3.957l-5.856,4.302l-2.537-0.517l-2.263-1.81l-0.905-4.75l5.429-4.751
	l3.265-1.884l-0.362-4.46l0.521-4.033l0.391-6.376l8.197-0.13l11.451-1.431l18.217-8.589c0,0,3.253,7.028,3.383,7.938
	c0.13,0.911-2.603,3.773-2.603,3.773l-6.246,2.994l2.603,3.382l0.26,7.157c0,0-1.821,5.595-1.692,7.157
	c0.13,1.562-2.472,5.856-2.472,5.856l9.387-0.888l0.373-0.414l2.733,1.171l7.677,2.992l9.629,0.391l10.54,0.781l0.651,7.417
	l-3.514,5.855l-6.115-3.904l-3.774,4.555l7.157,7.026l-3.904,5.855l-5.205,12.36l0.651,4.165l0.78,7.417l-0.26,9.759l11.451,2.993
	l-0.651,3.252l9.239,3.384l-1.562,14.053l-3.904,3.645l-3.644-5.205l-6.24,0.984l0.702,0.716l2.212,4.294l-3.904,2.082l1.432,5.726
	l-0.261,9.628l-4.554,3.644l-5.335-1.431l-4.684,7.808l-8.458,4.424l0.459-0.241l0.983,1.749l0.494,9.472l-2.863,5.468l0.197,1.466
	l-3.16,0.975l1.579,6.544l-1.876,8.786l-6.32,0.488l-0.79,1.856l3.358,5.174v3.027l-2.859,9.424l3.7,0.184l1.074,4.379l2.732,0.198
	l-1.075,13.14l-0.561,0.559l5.121-0.948l1.715-8.083l11.269-2.451l-0.49,7.104l7.349-0.734l16.903-7.84h10.778l-0.979,1.226
	l5.144-3.675l4.41,5.144l12.077-3.479l0.661-2.644l-4.41-7.104l19.579-4.899c0,0,2.224-7.104,2.959-5.389
	c0.639,1.492,16.38,12.453,16.38,12.453l32.612-20.292l4.9,0.49l15.923-6.37l8.574-4.653l0.734-1.716l-0.979-6.858l8.084-4.164
	l4.654-1.716l7.839,2.94l18.371,6.369l16.413,4.654l21.803-4.164l11.759-6.124l3.185-19.843l6.84-6.841l-2.065-5.681l0.814-8.951
	l5.696,1.627l10.579,0.814l-4.068-10.58l-3.256-11.393l4.883-6.51l-9.439-1.591l-12.3-4.341l-17.361,10.489l-21.701-5.063
	l-10.128,5.787l-18.809-10.128c0,0-13.744-1.446-14.83-1.085c-1.084,0.362-5.425,6.872-5.425,6.872l-10.128-14.829l-19.894-14.467
	v-7.597l3.616-4.703l-0.724-9.403l2.895-6.15l7.957-0.361l9.766-22.064l-2.17-2.893l-11.575-0.362l-8.68-14.106l0.724-23.51
	l6.148-3.255l0.361-6.511l-3.979-3.617l0.361-7.958L211.496,66.98l-2.533-16.276l-5.426,3.979l-6.147-5.425l-2.896,2.532h-7.595
	L175.685,41.3l-22.425,7.234L175.324,75.3l-1.085,9.766l-12.659,5.426h-6.511l-3.617-4.702l-23.149,18.447l1.809,9.766l-5.063,2.532
	l-5.064-6.873l-3.979-0.361l-5.425,1.085l-6.873-7.595l6.511-4.703l3.617,5.789l5.426-3.979l-0.724-5.787l6.149-4.341l10.489-6.149
	l-3.979-3.978l-10.489-0.363l-10.489,7.235l-8.319-18.447l14.83-9.043l-2.17-7.234l26.766-9.766l1.808-6.511l14.106-12.298
	l1.085-13.382l4.82-7.525l-19.907-2.181l-19.906,2.181l-13.908,7.908L92.789,8.306L89.517,6.67l-8.051,3.271l1.233,3.546
	l-7.089,4.09l1.636,7.09l-15.271,4.908l-7.908-2.454l-4.363,5.181l-5.727,11.726l-7.363,2.455l-2.728,5.727l-10.089-4.09
	L12.344,61.209l-5.999,0.272l-2.182-7.908l-3.944,3.204l-0.055,0.384l0.454-0.316L7.163,69.117z"/>
</svg>
