<?xml version="1.0" encoding="utf-8"?>
<!-- Generator: Adobe Illustrator 16.0.0, SVG Export Plug-In . SVG Version: 6.00 Build 0)  -->
<!DOCTYPE svg PUBLIC "-//W3C//DTD SVG 1.1//EN" "http://www.w3.org/Graphics/SVG/1.1/DTD/svg11.dtd">
<svg version="1.1" id="Calque_1" xmlns="http://www.w3.org/2000/svg" xmlns:xlink="http://www.w3.org/1999/xlink" x="0px" y="0px"
	 width="595.279px" height="595.276px" viewBox="-0.004 123.307 595.279 595.276"
	 enable-background="new -0.004 123.307 595.279 595.276" xml:space="preserve">
<path id="ofsnbr2226" fill="#807F7F" d="M384.687,457.104l-12.349,2.977l-2.741,10.63l4.484,4.081l-6.701,9.876l-7.371,17.863
	c-6.677,0-10.753-1.072-17.117-6.311c-4.537-3.738-7.474-6.676-12.008-3.738c-3.424,2.213-6.662,0.184-8.276-1.335
	c-4.008-3.77-8.726-5.827-13.346-7.741c-7.74-3.202-13.942-3.996-20.081-3.996l24.886-27.229l12.855-21.201l-6.916-2.615
	l2.402-8.273l8.009,7.741l5.873-5.34l7.813,2.051l1.87-6.81l16.031,1.695l-0.626,13.738l7.94-7.149l9.827,7.379l5.384-6.31
	l16.835,14.249l9.598-7.539c-0.004,0-1.343,10.905-1.343,10.905c-5.666,4.766-12.84,8.934-16.014,18.148
	c-0.619,1.798-1.785,2.428-2.756,2.368c-1.463-0.094-3.006-1.984-4.449-5.034C385.824,458.979,385.266,457.97,384.687,457.104z"/>
<path id="ofsnbr2221" fill="#807F7F" d="M443.324,648.186c2.707,3.796,4.885,6.355,6.4,10.036c2.49,6.051,3.667,9.351,5.268,14.688
	c1.602,5.337,2.339,7.681,9.076,12.01c2.279,1.467,3.822,6.049,4.382,10.858l19.752-11.522l3.086,5.369l17.711-15.655l3.767-9.597
	l3.176-1.059l6.082-2.027l18.392-21.48l1.029-11.656l1.373-9.821l7.372-7.373l8.742-8.737v-19.767l-13.716-17.142l-15.492,0.299
	l-11.473,0.804l-3.473-17.35l-4.004-5.074l-11.741-1.869l-8.542,9.077l-0.266-11.743l-11.21-3.202l-16.815-0.269l0.532-11.742
	l-19.749,5.872l-6.94,5.873l-10.143,9.341l-4.535-0.533c-0.702,3.372-1.336,8.01-2.673,9.342c-1.942,1.943-4.268,1.603-12.811,0.802
	c-6.118-0.575-13.074,0-18.146,0.801c0,0,5.873,6.14,10.94,11.21c5.073,5.071,5.874,6.94,4.538,12.543
	c-1.995,8.389,1.893,12.385,8.811,15.214c5.871,2.401,8.007,3.468,9.341,12.543c1.332,9.075,4.34,14.316,10.213,23.926
	C435.59,637.748,439.396,642,443.324,648.186z"/>
<path id="ofsnbr2230" fill="#989898" d="M436.041,535.989l6.94-5.872l19.748-5.872l-0.531,11.742l16.815,0.269l11.209,3.202
	l0.266,11.742l8.543-9.076l11.741,1.869l4.004,5.074l3.472,17.347l11.473-0.801l15.493-0.299l5.829-14.286l0.342-8.911
	l-8.909-13.024l8.909-5.14l10.285-1.373l-1.025-25.593l7.534-17.71l2.061-13.706l-4.805-15.427l-8.564,5.143l-2.743,7.537
	l-7.54-6.516l-25.593,14.742l-6.513,9.598l-13.94,12.91c-13.508-2.222-23.221,1.204-29.141,10.285l-8.757,16.131l-13.881,4.438
	l-3.2-14.4l2.489-14.235l-28.826-18.505l-16.015-6.048l-13.521,17.792l-15.609-14.223l-6.701,9.876l-7.371,17.863
	c6.672,0,14.942,2.606,20.248,8.103c7.478,7.74,9.645,9.945,20.018,12.541c6.409,1.602,11.21,2.936,14.947,7.742
	c1.868,2.403,6.837,10.513,6.141,13.877l4.538,0.533L436.041,535.989z"/>
<path id="ofsnbr2225" fill="#989898" d="M326.924,430.983l-6.916-2.615l-18.416-13.612l-6.643,9.277l2.906,7.537l-7.176,4.073
	l-12.197-6.293l-0.081-7.803l-12.909-4.595l-5.801,13.549l6.607,3.807l-5.077,16.004l14.969,0.81l-0.218,8.743l-4.648,6.502
	l-6.297-1.965l-2.206,6.733c2.335,0.533,6.968,2.193,10.673,4.005c6.995,3.409,9.548,4.277,15.685,4.277l24.886-27.229
	L326.924,430.983z"/>
<path id="ofsnbr2224" fill="#666666" d="M79.794,457.462l10.828,7.364l10.455-15.313l14.679-12.541l14.217-18.208l14.482-17.754
	l8.144-9.22l0.526-21.545l6.743-4.061l3.203,4.536l13.17-4.579l18.058,10.184l13.079-9.076l19.947,0.861l7.012-11.002l7.867-2.593
	l5.476,1.446l-0.8,15.559l10.142,2.67l4.538,0.533l3.398-8.482l1.139-11.803l15.357-1.138l1.922-11.614l6.405-24.295l16.885,23.435
	l6.142-9.348l7.435-1.704l0.234,10.044l26.31-7.9l-5.754-5.501l12.327-13.208l4.487-13.824l8.709-9.1l-15.54-14.771
	c-6.806,5.739-10.921,4.737-15.593,3.179c-5.604-1.87-10.676-0.535-32.829,10.675c-5.79,2.928-8.25,1.744-10.34-0.067
	c-0.564-0.488-1.1-1.021-1.671-1.536c-2.67-2.402-2.67-4.803,2.134-9.075c4.807-4.271,33.629-24.821,41.106-30.16
	c4.71-3.365,9.102-7.048,12.509-10.975l-8.82-8.792l-3.082-21.394l-6.43-15.405l-19.369,13.645l-16.995,15.673L266.1,232.288
	l-21.838,12.593l-26.24,4.4l-9.289-4.579l-16.014,27.758l2.313,7.298l10.676,7.828l-3.025,13.165l-10.676,10.327l-15.479,4.266
	l-5.693,12.458l-27.404,14.952l-24.2,12.099l-15.658,19.217l-59.787,54.095l19.926,20.322l7.432,9.303L79.794,457.462z"/>
<path id="ofsnbr2229" fill="#666666" d="M271.323,466.365l4.648-6.501l0.218-8.743l-14.969-0.81l5.077-16.004l-6.607-3.807
	l-19.484,11.478l-5.146,0.742c0.503,1.501,1.458,2.916,3.208,4.389c5.073,4.271,8.009,6.674,7.743,12.543
	c-0.211,4.646-0.247,13.646-3.737,18.15c3.148,0.221,5.604,0.801,7.473,0.266c4.337-1.236,8.52-7.978,13.079-6.94l2.206-6.732
	L271.323,466.365z"/>
<path id="ofsnbr2228" fill="#807F7F" d="M153.992,498.715l-4.014-7.961l-6.662-8.204l-22.152,8.542l1.068-29.09l-21.158-12.486
	l-10.455,15.313l-10.828-7.365l-8.654,0.326l-7.432-9.304c-1.278,1.33-2.432,2.498-3.272,3.409
	c-2.229,2.417-4.724,4.917-8.047,8.188c-2.698,2.657-5.544,6.603-8.183,9.07l-8.253,23.07l-11.388,10.672l4.979,15.304l-12.1,16.728
	l17.439,4.978l34.162,27.761l-22.064,34.877l21.797,15.659c3.987-5.083,8.36-10.968,11.478-17.615
	c2.002-4.27,3.27-8.273,4.47-11.943l-15.413-10.209l5.805-7.762l13.679,8.028c3.471-5.872,12.276-13.88,15.212-17.883
	c2.936-4.004,5.084-7.475,8.01-7.206c5.873,0.532,9.341,0.267,9.075-4.272c-0.174-2.931,0.801-9.608,6.408-16.013
	c2.882-3.295,8.54-8.01,13.342-14.946c3.875-5.599,7.208-9.341,14.414-11.21c7.206-1.867,11.478-2.67,12.999-1.395l-5.987-10.107
	L153.992,498.715z"/>
<path id="ofsnbr2227" fill="#989898" d="M232.925,408.676c2.936,4.271,3.63,13.513,3.63,20.45c0,4.549-2.448,10.752-1.5,13.599
	c0.502,1.501,1.456,2.916,3.208,4.388c5.073,4.271,8.01,6.675,7.743,12.544c-0.211,4.646-0.247,13.646-3.737,18.15
	c-2.163-0.155-4.273-2.157-7.208-4.004c-6.685-4.208-10.406-2.671-18.416,9.607c-5.221,8.003-13.076,14.146-32.56,22.954
	c-9.473,4.284-10.689,3.715-15.83-0.594l-5.987-10.107l-8.276,3.055l-4.014-7.961l-6.662-8.205l-22.153,8.544l1.068-29.092
	l-21.158-12.486l14.68-12.54l14.216-18.209l14.482-17.754l8.143-9.22l0.526-21.544l6.743-4.062l3.203,4.537l13.17-4.58
	l18.058,10.184l13.079-9.076l19.947,0.861l7.011-11.002l7.868-2.593l5.476,1.446l-0.8,15.56l10.142,2.67l-10.676,15.478
	l-6.209-2.877l-11.14,4.897l4.09,10.067C231.277,404.251,231.271,406.266,232.925,408.676z"/>
<path id="ofsnbr2223" fill="#807F7F" d="M232.925,408.676c2.936,4.271,3.63,13.513,3.63,20.45c0,4.549-2.448,10.752-1.5,13.599
	l5.146-0.742l19.484-11.478l5.801-13.549l12.909,4.595l0.081,7.802l12.197,6.293l7.176-4.073l-2.906-7.537l6.644-9.277
	l18.416,13.613l2.401-8.274l2.67-8.275l9.876-10.675l12.011-26.157l-5.335-7.199l24.839-15.333l-9.48-8.224l8.932-12.222
	l-6.895-1.564l4.126-5.199l-6.841-1.328l-6.98,10.445l-2.554-2.449l-26.31,7.9l-0.237-10.044l-7.432,1.704l-6.143,9.348
	l-16.885-23.435l-6.405,24.295l-1.922,11.614l-15.357,1.139l-1.139,11.803l-3.398,8.482l-4.538-0.533l-10.676,15.479l-6.21-2.877
	l-11.139,4.897l4.09,10.067C231.277,404.251,231.271,406.266,232.925,408.676z"/>
<path id="ofsnbr2222" fill="#989898" d="M461.91,220.353l-20.609-24.372c7.896-6.831,16.171-13.749,20.095-16.314
	c6.939-4.538,9.875-6.14,14.144-13.08c0.836-1.354,1.571-2.501,2.19-3.52c3.28,0.768,6.146,2.115,7.69,4.321l2.347,22.913
	c-3.269,2.293-6.908,5.254-11.69,9.65c-1.718,1.577-2.786,2.695-3.111,3.761c-0.521,1.694,0.836,3.265,4.445,6.381
	c5.872,5.071,9.643,4.078,13.877,0c1.388-1.333,2.785-2.619,4.211-3.869l5.165,6.43l-14.9,12.594l3.017,9.545l-9.778,14.926
	l-5.864,6.015l0.079-23.279l-8.526-4.947l-2.527,6.35l-4.952-5.422C458.97,225.832,460.527,223.108,461.91,220.353z
	 M385.753,376.426l26.683-29.759l17.004-27.467l-13.427-6.798l18.522-26.799l5.022-7.268l-3.178-6.377l3.837-7.207l7.505,2.628
	l6.067-8.146l-6.527-19.547c2.147-1.793,4.119-3.787,5.929-5.921l-7.184-9.251l-8.791,9.255l-14.649-21.289
	c-5.198,4.462-10.406,8.57-15.106,13.253l16.05,18.208l-10.085,12.152l0.328,16.08l8.119,6.405c-0.173,0.851-0.345,1.691-0.51,2.512
	c-0.907,4.413-2.816,9.107-5.879,14.496l-16.229,3.168l-7.776-9.591l-14.526,11.01l-10.401-9.892l-8.709,9.1l-4.488,13.824
	l3.867,4.9l-0.907,5.812l6.841,1.327l4.767,0.617l20.34-23.33l14.457,11.718c-1.978,2.585-4.124,5.313-6.45,8.207
	c-3.315,4.129-5.336,6.94-5.604,10.41l-12.854-7.778l-11.891,6.919l-8.932,12.222l9.48,8.224l-24.839,15.333l5.335,7.199
	l-12.011,26.157l-9.875,10.675l-2.671,8.275l8.01,7.741l5.872-5.34l7.813,2.051l1.87-6.808l16.031,1.694l1.179-32.896
	L385.753,376.426z"/>
<g>
	<path id="ID_x5F_9151_Lac_de_Neuchâtel" fill="#CCD3DA" d="M376.253,253.066c12.811-8.275,20.018-14.414,26.692-22.419
		c1.438-1.729,2.95-3.35,4.515-4.914c4.703-4.684,9.908-8.792,15.106-13.253c1.114-0.951,2.225-1.923,3.329-2.921
		c3.482-3.131,9.332-8.328,15.405-13.578c7.896-6.831,16.171-13.749,20.095-16.314c6.939-4.538,9.875-6.14,14.144-13.08
		c0.836-1.354,1.571-2.501,2.19-3.52c2.538-4.19,3.018-6.15-0.319-11.159c-3.047-4.567-4.527-6.44-5.881-6.813
		c-1.022-0.28-1.968,0.293-3.46,1.208c-3.469,2.137-5.343,2.669-12.011-0.534c-6.67-3.203-8.793-3.536-15.214,1.601
		c-10.672,8.543-12.543,8.811-15.21,9.342c-2.672,0.534-5.343,0.8-9.344,4.004c-2.001,1.601-4.334,3.336-6.536,5.07
		c-2.202,1.735-4.273,3.47-5.74,5.072c-2.937,3.203-4.539,4.004-4.805,8.275c-0.132,2.135-0.465,4.003-1.367,5.639
		c-0.897,1.635-2.368,3.036-4.77,4.237c-4.805,2.402-14.679,8.274-22.151,16.547c-7.479,8.274-16.549,18.15-19.752,24.822
		c-1.187,2.47-2.845,4.862-4.84,7.174c-3.407,3.927-7.799,7.61-12.509,10.975c-7.477,5.339-36.299,25.89-41.106,30.16
		c-4.804,4.271-4.804,6.673-2.134,9.075c0.569,0.514,1.105,1.047,1.671,1.536c2.09,1.81,4.55,2.994,10.34,0.067
		c22.153-11.21,27.228-12.545,32.829-10.676c4.672,1.56,8.787,2.561,15.593-3.178c1.357-1.146,2.827-2.56,4.424-4.295
		C362.135,263.958,363.441,261.339,376.253,253.066z"/>
	<path id="ID_x5F_9294_Lac_de_Morat_x2F_Murtensee" fill="#CCD3DA" d="M487.766,190.301c5.669-3.979,10.221-5.938,17.671-9.833
		c3.109-1.802,4.711-2.499,6.413-1.906c1.071,0.376,2.18,1.264,3.727,2.707c4.003,3.737,6.056,6.494,1.07,9.608
		c-8.622,5.389-15.153,10.084-21.147,15.348c-1.426,1.25-2.823,2.535-4.21,3.869c-4.234,4.078-8.008,5.071-13.878,0
		c-3.608-3.114-4.968-4.687-4.444-6.381c0.325-1.067,1.394-2.185,3.111-3.761C480.858,195.554,484.499,192.595,487.766,190.301z"/>
	<path id="ID_x5F_9757_Le_Léman_x2F_Genfersee" fill="#CCD3DA" d="M81.437,639.807c-3.224,1.076-4.839,6.361-4.302,10.392
		c0.716,5.377-0.27,7.894-2.688,12.192c-2.423,4.302-6.278,10.036-11.83,15.235c-1.41,1.312-4.955,3.115-5.739,2.329
		c-1.042-1.037-0.898-1.793,0.899-5.021c2.324-4.188-1.252-8.633-0.722-12.368c1.616-11.294,1.958-14.946,5.026-19.357
		c3.921-5.638,5.016-7.703,4.654-14.694c-0.328-6.447,0.362-8.427,1.344-9.683c4.019-5.122,8.425-11.047,11.56-17.746
		c2.016-4.302,3.294-8.334,4.504-12.032c1.21-3.699,2.352-7.057,4.1-10.015c3.495-5.918,12.368-13.98,15.326-18.017
		s5.125-7.527,8.063-7.26c5.917,0.538,9.411,0.27,9.141-4.302c-0.171-2.954,0.807-9.679,6.453-16.132
		c2.907-3.32,8.604-8.065,13.443-15.057c3.908-5.637,7.26-9.41,14.52-11.291c7.26-1.885,11.562-2.69,13.099-1.406
		c5.175,4.339,6.397,4.913,15.938,0.599c19.627-8.873,27.543-15.061,32.801-23.124c8.066-12.369,11.817-13.918,18.552-9.679
		c2.956,1.86,5.083,3.876,7.259,4.03c3.176,0.225,5.646,0.808,7.529,0.271c4.369-1.248,8.587-8.037,13.173-6.992
		c2.353,0.539,7.025,2.209,10.754,4.034c7.052,3.435,9.621,4.311,15.805,4.311c6.185,0,12.43,0.798,20.224,4.021
		c4.656,1.931,9.41,4,13.442,7.799c1.629,1.527,4.891,3.576,8.333,1.346c4.57-2.959,7.53,0,12.101,3.764
		c6.41,5.279,10.522,6.36,17.246,6.36c6.722,0,15.056,2.627,20.396,8.158c7.529,7.799,9.714,10.026,20.166,12.64
		c6.453,1.611,11.294,2.955,15.057,7.796c1.883,2.423,6.891,10.591,6.185,13.98c-0.708,3.396-1.347,8.067-2.688,9.411
		c-1.958,1.957-4.304,1.613-12.907,0.807c-6.156-0.58-13.175,0-18.285,0.807c-0.798,0.127-0.537,1.613-1.612,3.226
		c-1.076,1.615-4.57,0.539-9.143,0.539c-4.571,0-8.625-0.713-12.712-2.464c-1.883-0.807-3.689-1.839-8.527-1.839
		c-4.841,0-6.992-0.269-11.562-2.957c-4.571-2.688-16.133-6.453-25.812-6.453c-9.679,0-27.693,1.616-38.178,2.154
		c-10.486,0.537-23.662,0.806-30.92,2.688c-7.261,1.883-13.711,4.302-18.552,1.344c-4.839-2.955-6.184-4.3-13.44-0.269
		c-7.262,4.032-8.067,5.107-8.873,10.217c-0.806,5.108-1.613,6.185-13.982,11.829c-7.215,3.302-11.022,5.378-15.324,5.919
		c-4.3,0.537-5.916,1.88-9.41,6.721c-3.494,4.84-5.377,6.185-9.409,3.765c-4.034-2.423-6.185-4.304-8.873-9.948
		c-2.688-5.646-3.493-8.604-10.218-8.336c-13.928,0.561-22.654,2.035-30.919,19.09c-3.743,7.734-7.106,14.163-10.46,20.045
		c-2.445,4.426,0.066,6.395-2.8,9.443c-4.66,4.481-5.225,7.204-7.889,11.115C86.814,638.192,84.664,638.731,81.437,639.807z"/>
</g>
</svg>
