<?xml version="1.0" encoding="utf-8"?>
<!-- Generator: Adobe Illustrator 16.0.0, SVG Export Plug-In . SVG Version: 6.00 Build 0)  -->
<!DOCTYPE svg PUBLIC "-//W3C//DTD SVG 1.1//EN" "http://www.w3.org/Graphics/SVG/1.1/DTD/svg11.dtd">
<svg version="1.1" id="Calque_1" xmlns="http://www.w3.org/2000/svg" xmlns:xlink="http://www.w3.org/1999/xlink" x="0px" y="0px"
	 width="595.279px" height="425.197px" viewBox="-0.004 208.347 595.279 425.197"
	 enable-background="new -0.004 208.347 595.279 425.197" xml:space="preserve">
<path id="_x32_402" fill="#666666" d="M258.436,322.69l8.704,4.354l-1.272,17.422l-21.027,23.431l29.083,16.618l12.611-16.789
	l15.786-25.499l22.777-25.54v-20.228l12.885-24.581l-18.933-40.49l-6.911,4.462c0.346,2.186-1.299,4.658-2.412,5.786
	c-3.956,3.957-9.471,7.16-15.798,13.097c-6.331,5.938-13.854,14.636-22.948,17.41c-9.101,2.772-18.2,7.122-25.718,11.078
	c-7.511,3.957-8.704,8.305-6.72,13.851c1.175,3.292-0.439,6.022-3.604,7.948l16.883,3.233L258.436,322.69z"/>
<path id="ofsnbr2403" fill="#7F7F7F" d="M97.006,451.672l42.799-5.446l24.03-8.419l17.843-12.248l12.939-9.799l37.316,23.65
	l30.46-16.618l-10.683-17.802l22.213-20.472l-29.083-16.618l21.027-23.431l1.273-17.422l-8.704-4.354l-6.621-14.452l-16.883-3.235
	c-2.164,1.316-5.051,2.253-8.265,2.742c-7.914,1.19-10.689,2.772-14.64,9.889c-3.358,6.053-5.576,7.812-10.541,11.61l20.964,17.01
	l-15.827,14.77l-12.661,0.532l-17.935,12.13l-8.437,21.631l-17.935,11.605l-10.553-2.634l-61.724,25.322l-6.331-9.498l-10.552,7.382
	l10.8,14.684L97.006,451.672z"/>
<polygon id="ofsnbr2406" fill="#999999" points="97.074,542.496 129.445,523.825 167.298,507.512 192.485,484.278 221.2,464.05 
	222.314,453.343 242.611,452.859 231.934,439.407 194.616,415.757 181.677,425.559 163.836,437.8 139.805,446.22 97.006,451.672 
	71.294,442.178 60.494,427.488 41.502,454.924 23.561,465.472 46.774,505.039 44.402,542.23 58.176,549.025 "/>
<path id="ofsnbr2401" fill="#666666" d="M284.829,484.204c11.079-12.269,25.716-20.973,32.85-24.53
	c3.548-1.781,5.737-3.858,7.072-6.282c1.338-2.424,1.83-5.193,2.018-8.358c0.396-6.33,2.783-7.518,7.122-12.266
	c2.188-2.374,5.242-4.946,8.521-7.518l0.765-33.835l-14.144,2.77l-21.392,14.136l-33.704-23.817l-22.213,20.472l10.683,17.802
	l-30.459,16.617l10.683,13.454l-20.295,0.481l-1.113,10.707l9.532,22.829l4.575,31.723L248.4,531.62
	c2.961-3.426,5.42-6.975,7.17-10.633C260.297,511.109,273.75,496.47,284.829,484.204z"/>
<polygon id="ofsnbr2405" fill="#999999" points="329.028,394.19 343.174,391.42 350.369,393.418 392.816,361.409 402.352,334.643 
	414.605,318.025 430.307,286.113 447.024,268.648 395.721,280.391 354.215,295.146 325.11,316.684 302.321,342.222 286.541,367.721 
	273.93,384.51 307.627,408.326 "/>
<path id="ofsnbr2404" fill="#7F7F7F" d="M453.788,357.592c5.069-1.582,8.025-3.239,11.459-5.54
	c-3.548-2.772-4.745-4.354,3.564-7.122c2.621-0.882,5.205-1.71,7.703-2.684l-9.806-18.151l10.015-7.913l-46.413-30.07
	l-15.703,31.913l-12.268,16.618l-9.533,26.766l-42.448,32.009l-7.195-1.988l-0.767,33.833c3.266-2.572,6.729-5.144,9.696-7.521
	c5.935-4.748,9.892-5.141,13.848-5.941c3.968-0.796,6.726-1.189,22.553-13.851c9.506-7.615,12.661-7.122,22.552-2.372
	c9.881,4.746,12.662,3.956,17.792,0.791c2.213-1.36,3.622-2.213,5.131-1.793c3.153-4.127,4.921-11.153,6.344-20.757
	C441.916,363.13,447.455,359.573,453.788,357.592z"/>
<g>
	<path id="ID_x5F_9148_Bielersee_x2F_Lac_de_Bienne" fill="#CDD4DB" d="M512.339,332.751c3.166-3.957,3.166-5.341,0.989-7.52
		c-2.182-2.179-5.539-0.195-4.154,3.166c0.618,1.504,0,2.178-3.165,5.733c-3.166,3.561-10.485,7.122-16.421,11.079
		c-4.68,3.116-8.11,5.345-13.261,6.927c-5.144,1.582-8.301,0.792-11.869-1.975c-3.562-2.767-4.748-4.354,3.561-7.122
		c2.622-0.881,5.206-1.709,7.705-2.684c5.44-2.096,10.517-4.838,14.845-9.979c4.396-5.218,9.365-9.298,15.3-13.29
		c2.615-1.752,5.416-3.493,8.437-5.31c9.894-5.938,30.466-20.182,36.797-27.298c4.915-5.539,8.971-8.457,12.51-11.141
		c1.012-0.772,1.981-1.521,2.918-2.31c2.819-2.375,4.624-3.142,5.551-2.87c1.544,0.439,0.666,3.75-1.99,7.223
		c-5.144,6.724-9.106,12.662-13.453,24.931c-3.138,8.838-10.163,19.29-18.2,30.863c-1.645,2.373-3.202,4.481-4.781,6.401
		c-7.888,9.589-16.22,14.444-38.354,24.067c-9.101,3.958-12.266-7.122-12.266-7.122C497.692,345.02,505.228,341.632,512.339,332.751
		z"/>
	<path id="ID_x5F_9151_Lac_de_Neuchâtel" fill="#CDD4DB" d="M291.947,552.74c18.992-12.266,29.681-21.366,39.569-33.233
		c2.131-2.559,4.377-4.964,6.699-7.283c6.97-6.942,14.683-13.031,22.398-19.646c1.645-1.41,3.296-2.851,4.936-4.328
		c5.161-4.644,13.832-12.353,22.828-20.135c11.703-10.13,23.975-20.386,29.792-24.181c10.287-6.728,14.633-9.106,20.964-19.389
		c1.238-2.003,2.331-3.709,3.252-5.218c3.759-6.21,4.476-9.114-0.477-16.54c-4.513-6.766-6.713-9.545-8.717-10.105
		c-1.515-0.41-2.918,0.433-5.132,1.793c-5.134,3.166-7.909,3.956-17.798-0.792c-9.892-4.748-13.038-5.242-22.553,2.373
		c-15.824,12.662-18.596,13.054-22.545,13.851c-3.952,0.799-7.913,1.192-13.854,5.94c-2.968,2.373-6.433,4.944-9.69,7.523
		c-3.265,2.571-6.33,5.137-8.513,7.517c-4.35,4.748-6.72,5.936-7.121,12.266c-0.191,3.166-0.686,5.941-2.021,8.359
		c-1.335,2.422-3.518,4.501-7.072,6.28c-7.123,3.563-21.768,12.269-32.847,24.531c-11.079,12.266-24.531,26.905-29.279,36.796
		c-1.75,3.66-4.217,7.21-7.171,10.633c-5.051,5.822-11.561,11.275-18.541,16.271c-11.079,7.914-53.811,38.374-60.934,44.705
		c-7.122,6.33-7.122,9.884-3.166,13.449c0.843,0.76,1.639,1.552,2.474,2.269c3.098,2.69,6.746,4.439,15.325,0.106
		c32.847-16.619,40.36-18.601,48.674-15.824c6.924,2.31,13.024,3.801,23.116-4.712c2.009-1.7,4.185-3.796,6.554-6.367
		C271.021,568.888,272.956,565.006,291.947,552.74z"/>
</g>
</svg>
