<?xml version="1.0" encoding="utf-8"?>
<!-- Generator: Adobe Illustrator 16.0.0, SVG Export Plug-In . SVG Version: 6.00 Build 0)  -->
<!DOCTYPE svg PUBLIC "-//W3C//DTD SVG 1.1//EN" "http://www.w3.org/Graphics/SVG/1.1/DTD/svg11.dtd">
<svg version="1.1" id="Calque_1" xmlns="http://www.w3.org/2000/svg" xmlns:xlink="http://www.w3.org/1999/xlink" x="0px" y="0px"
	 width="1052px" height="694.488px" viewBox="0 0 1052 694.488" enable-background="new 0 0 1052 694.488" xml:space="preserve">
<path id="ofsnbr2500" fill="#989898" d="M500.73,244.426l70.823,50.882c-3.176,4.055-5.404,10.436-4.334,31.236
	c1.158,22.549-2.371,29.217-15.032,47.401c-9.889,14.229-10.989,26.02-16.189,62.445c-1.721,12.047,9.828,26.385,2.313,39.896
	c-5.786,10.406-6.258,12.844-2.892,16.189c2.537,2.537,13.97-3.279,18.503-7.521c17.92-16.764,30.355-35.26,38.16-49.137
	c7.805-13.879,10.982-21.984,8.676-39.326c-1.734-13.01,3.467-30.057,13.877-33.527c10.407-3.471,17.345-5.203,30.06-26.019
	c8.595-12.619,10.409-21.4,25.441-35.857c9.249-9.825,1.152-16.18,9.025-30.449l16.998,38.538l-25.443,26.587l47.409,69.382
	l38.157-36.994l21.972,28.906l-25.442,57.82l-75.161,41.633l-17.344-5.789l-72.854,60.125l9.25,21.98l-93.666,56.654l-52.038-3.465
	l-6.938-20.816l-62.443,1.152l-4.621,20.814l-20.812,13.877l-57.822-18.498l-57.82,35.844l-4.136-16.559
	c6.103-5.27,11.688-12.877,16.856-23.906c12.693-27.074,18.899-45.963,29.779-54.65l18.79-34.395l-50.876-27.754l25.436-43.947
	l26.6,3.469l18.504-24.283l44.516-12.713l78.055-26.602l23.128,21.967l30.068-33.529l-33.536-69.379l28.909-28.916L500.73,244.426z
	 M573.29,166.088l50.087,33.174c3.904-11.926,7.589-22.767,13.226-32.307l-44.448-26.085L573.29,166.088z"/>
<g display="none">
	<path display="inline" fill="#1A171B" d="M412.46,546.883v-3.413l12.323-0.016v10.796c-1.893,1.507-3.84,2.642-5.854,3.404
		c-2.013,0.763-4.077,1.133-6.191,1.133c-2.86,0-5.452-0.609-7.789-1.834c-2.335-1.222-4.1-2.993-5.289-5.31
		c-1.191-2.311-1.787-4.898-1.787-7.753c0-2.833,0.592-5.48,1.775-7.93c1.187-2.453,2.889-4.271,5.111-5.461
		c2.224-1.191,4.783-1.795,7.68-1.795c2.104,0,4.004,0.34,5.703,1.024c1.702,0.683,3.036,1.633,4,2.85
		c0.962,1.216,1.698,2.803,2.2,4.763l-3.473,0.954c-0.437-1.487-0.979-2.643-1.627-3.491c-0.645-0.851-1.576-1.524-2.776-2.033
		c-1.202-0.508-2.54-0.762-4.011-0.762c-1.755,0-3.279,0.262-4.562,0.803c-1.282,0.531-2.319,1.237-3.104,2.11
		c-0.789,0.87-1.401,1.834-1.84,2.88c-0.74,1.796-1.111,3.749-1.111,5.85c0,2.597,0.449,4.765,1.338,6.508
		c0.899,1.746,2.197,3.04,3.902,3.89c1.709,0.849,3.522,1.268,5.437,1.268c1.665,0,3.295-0.318,4.882-0.96
		c1.588-0.644,2.79-1.324,3.612-2.057v-5.422L412.46,546.883L412.46,546.883z"/>
	<path display="inline" fill="#1A171B" d="M444.429,551.512l3.691,0.454c-0.584,2.156-1.66,3.835-3.235,5.024
		c-1.575,1.19-3.583,1.787-6.032,1.787c-3.084,0-5.526-0.954-7.331-2.85c-1.81-1.897-2.71-4.556-2.71-7.986
		c0-3.548,0.911-6.294,2.739-8.254c1.825-1.961,4.194-2.938,7.104-2.938c2.818,0,5.119,0.959,6.903,2.882
		c1.788,1.913,2.682,4.612,2.682,8.097c0,0.207-0.01,0.524-0.022,0.954h-15.716c0.131,2.31,0.786,4.08,1.964,5.315
		c1.178,1.222,2.647,1.842,4.408,1.842c1.309,0,2.426-0.341,3.351-1.032C443.151,554.114,443.885,553.02,444.429,551.512z
		 M432.701,545.741h11.768c-0.159-1.779-0.607-3.104-1.353-3.991c-1.137-1.373-2.611-2.064-4.423-2.064
		c-1.639,0-3.02,0.547-4.142,1.643C433.44,542.431,432.82,543.898,432.701,545.741z"/>
	<path display="inline" fill="#1A171B" d="M452.605,558.298v-21.072h3.215v2.993c1.548-2.311,3.784-3.47,6.71-3.47
		c1.268,0,2.435,0.231,3.503,0.684c1.063,0.463,1.861,1.056,2.389,1.801c0.528,0.736,0.903,1.62,1.111,2.637
		c0.131,0.658,0.2,1.817,0.2,3.478v12.953h-3.573v-12.817c0-1.451-0.139-2.542-0.416-3.262c-0.278-0.724-0.771-1.303-1.481-1.731
		c-0.706-0.428-1.535-0.644-2.488-0.644c-1.521,0-2.833,0.485-3.941,1.451c-1.104,0.961-1.657,2.794-1.657,5.493v11.51
		L452.605,558.298L452.605,558.298z"/>
	<path display="inline" fill="#1A171B" d="M489.634,551.512l3.69,0.454c-0.582,2.156-1.658,3.835-3.232,5.024
		c-1.576,1.19-3.584,1.787-6.032,1.787c-3.085,0-5.529-0.954-7.332-2.85c-1.808-1.897-2.711-4.556-2.711-7.986
		c0-3.548,0.913-6.294,2.738-8.254c1.826-1.961,4.195-2.938,7.104-2.938c2.818,0,5.121,0.959,6.905,2.882
		c1.786,1.913,2.679,4.612,2.679,8.097c0,0.207-0.007,0.524-0.02,0.954h-15.717c0.13,2.31,0.784,4.08,1.965,5.315
		c1.177,1.222,2.645,1.842,4.405,1.842c1.31,0,2.429-0.341,3.354-1.032C488.356,554.114,489.09,553.02,489.634,551.512z
		 M477.906,545.741h11.768c-0.156-1.779-0.607-3.104-1.35-3.991c-1.139-1.373-2.612-2.064-4.425-2.064
		c-1.64,0-3.02,0.547-4.14,1.643C478.644,542.431,478.025,543.898,477.906,545.741z M486.141,534.605h-2.877l-4.586-5.558h4.783
		L486.141,534.605z"/>
	<path display="inline" fill="#1A171B" d="M503.663,558.298l-8.015-21.072h3.771l4.524,12.621c0.488,1.365,0.941,2.775,1.35,4.247
		c0.317-1.113,0.762-2.447,1.331-4.011l4.683-12.857h3.669l-7.98,21.072H503.663z"/>
	<path display="inline" fill="#1A171B" d="M532.556,551.512l3.692,0.454c-0.582,2.156-1.66,3.835-3.233,5.024
		c-1.575,1.19-3.583,1.787-6.032,1.787c-3.085,0-5.528-0.954-7.331-2.85c-1.81-1.897-2.712-4.556-2.712-7.986
		c0-3.548,0.913-6.294,2.738-8.254c1.826-1.961,4.195-2.938,7.104-2.938c2.818,0,5.122,0.959,6.905,2.882
		c1.785,1.913,2.68,4.612,2.68,8.097c0,0.207-0.008,0.524-0.021,0.954h-15.716c0.131,2.31,0.783,4.08,1.964,5.315
		c1.176,1.222,2.647,1.842,4.405,1.842c1.31,0,2.429-0.341,3.354-1.032C531.279,554.114,532.012,553.02,532.556,551.512z
		 M520.828,545.741h11.767c-0.155-1.779-0.604-3.104-1.349-3.991c-1.14-1.373-2.611-2.064-4.425-2.064
		c-1.641,0-3.021,0.547-4.141,1.643C521.567,542.431,520.948,543.898,520.828,545.741z"/>
</g>
<path fill="#CCD3DA" d="M741.545,71.556c0.866,14.744-10.413,15.61-29.492,13.875c-9.501-0.867-16.479,10.407-26.019,23.418
	c-9.54,13.007-38.159,39.025-49.435,58.105c-5.641,9.54-9.324,20.382-13.226,32.307c-3.899,11.924-8.023,24.934-14.526,38.81
	c-10.127,21.6-24.341,40.722-37.296,57.24c-3.177,4.053-5.404,10.435-4.334,31.236c1.157,22.547-2.371,29.215-15.032,47.401
	c-9.889,14.229-10.989,26.02-16.189,62.443c-1.721,12.047,9.828,26.385,2.313,39.896c-5.786,10.408-6.258,12.844-2.892,16.189
	c2.533,2.537,13.97-3.277,18.503-7.521c17.92-16.762,30.355-35.26,38.16-49.135c7.805-13.879,10.982-21.986,8.676-39.328
	c-1.734-13.008,3.467-30.055,13.877-33.527c10.407-3.471,17.345-5.203,30.06-26.019c8.595-12.617,10.409-21.399,25.441-35.856
	c9.249-9.825,1.152-16.18,9.025-30.45c10.815-18.985,21.676-39.719,33.757-64.667c26.646-55.018,54.794-59.773,99.735-61.576
	c1.026-0.041,1.998-0.05,2.941-0.045l-64.79-108.255C742.746,51.033,741.131,64.569,741.545,71.556z"/>
</svg>
