<?xml version="1.0" encoding="utf-8"?>
<!-- Generator: Adobe Illustrator 16.0.0, SVG Export Plug-In . SVG Version: 6.00 Build 0)  -->
<!DOCTYPE svg PUBLIC "-//W3C//DTD SVG 1.1//EN" "http://www.w3.org/Graphics/SVG/1.1/DTD/svg11.dtd">
<svg version="1.1" id="Calque_1" xmlns="http://www.w3.org/2000/svg" xmlns:xlink="http://www.w3.org/1999/xlink" x="0px" y="0px"
	 width="1052px" height="694.488px" viewBox="0 0 1052 694.488" enable-background="new 0 0 1052 694.488" xml:space="preserve">
<path id="SA" fill="#999999" d="M935.29,391.967c0.331-1.032,0.897-2.365,1.342-3.353c0.459-1.025,0.977-2.468,1.677-3.351
	c0.485-0.615,1.521-1.058,2.009-1.675c0.415-0.528,0.879-1.728,0.879-1.728l-0.208-0.283c0,0-0.463-2.348-0.671-3.352
	c-0.191-0.905-0.275-2.178-0.674-3.016c-0.483-1.036-1.494-2.247-2.345-3.016c-0.701-0.636-1.777-1.385-2.681-1.677
	c-1.437-0.468-3.634,0.257-5.027-0.336c-1.5-0.642-2.494-3.093-4.018-3.686c-0.751-0.291-1.878,0-2.45-0.328L923,361.213
	l-6.767-7.479l-2.491-0.711l-5.341,1.421l-4.987,2.138l-1.065,5.699l-2.137,5.698l-2.85,4.272l-2.494,0.354l0.714,3.204
	l-0.355,4.273l-3.561,2.494h-6.053l-3.915-0.715l-2.849-1.779l-2.496,2.494l-0.71,4.626l-1.781,3.562l-0.355,12.462l-8.547-0.355
	l-4.626,2.494l-4.989,4.628l-6.05,2.494l-13.531-0.712l-2.85-4.986l-5.34,0.357l-2.848-3.205l-3.562-7.122l-7.119-4.271
	l-4.629-0.715l-4.986-5.34l-8.9,1.067l-4.274-2.493l-7.12-4.629l-4.984-2.494l-1.78-1.779l0.356-2.493l-0.356-5.341l-1.067-2.852
	l2.136-7.474l2.14-2.848l-1.069-3.917l-1.779-3.207l-0.712-3.917l-7.479,3.562l-4.272-1.065l-4.629-2.138l-4.271-4.272l-6.409-3.204
	l-6.411-0.714l-8.546-1.426l-6.765-3.915l-9.613-2.138l-4.095,1.603l-4.45-0.532l-4.451-1.07l-1.958,0.893l-1.602,1.424l-4.45,1.424
	l-3.386-0.356l-1.065-2.138l-3.205-2.313l-4.451-0.18l-1.424,2.315l-1.425,1.604l-4.271,0.178l-3.226-1.541
	c0.507,0.824,0.471,2.329,0.883,3.28c-0.414-0.948-0.376-2.456-0.94-3.319c-0.627-0.84-2.069-1.037-2.375-1.893
	c-0.27-0.738,0.068-1.922,0.518-2.565c0.542-0.781,2.006-1.009,2.68-1.677c0.928-0.923,1.575-2.624,2.348-3.686
	c0.837-1.159,2.344-2.426,3.017-3.686c0.491-0.927,0.739-2.337,1.004-3.351c0.232-0.898,0.568-2.095,0.671-3.019
	c0.121-1.099,0.187-2.597,0-3.686c-0.258-1.473-1.147-3.292-1.675-4.691c-0.385-1.012-0.959-2.338-1.342-3.351
	c-0.53-1.396-1.111-3.308-1.675-4.691c-0.546-1.332-1.604-2.977-2.011-4.356c-0.202-0.682-0.199-1.647-0.336-2.346
	c-0.238-1.219-0.733-2.807-1.003-4.021c-0.225-1-0.483-2.343-0.67-3.351c-0.224-1.203-0.524-2.807-0.671-4.021
	c-0.158-1.302-0.467-3.054-0.334-4.356c0.073-0.728,0.334-1.695,0.671-2.345c0.591-1.146,1.911-2.321,2.681-3.351
	c0.735-0.984,1.639-2.351,2.347-3.35c0.996-1.414,2.438-3.224,3.35-4.693c0.787-1.261,1.903-2.938,2.347-4.355
	c0.271-0.869,0.241-2.109,0.335-3.017c0.108-1.105-0.073-2.653,0.334-3.686c0.419-1.065,1.438-2.315,2.344-3.017
	c0.609-0.467,1.714-0.575,2.348-1.004c0.825-0.558,1.833-1.495,2.346-2.345c0.703-1.172,0.951-3.046,1.34-4.356
	c0.208-0.701,0.329-1.7,0.671-2.346c0.367-0.692,1.026-1.568,1.675-2.011c0.525-0.358,1.481-0.324,2.011-0.671
	c1.372-0.89,2.824-2.627,3.685-4.02c0.734-1.191,1.067-3.095,1.675-4.357c0.606-1.261,1.717-2.774,2.348-4.021
	c0.688-1.367,1.267-3.352,2.009-4.691c0.599-1.072,1.69-2.313,2.346-3.351c0.434-0.685,0.959-1.631,1.343-2.345
	c0.423-0.793,0.532-2.286,1.34-2.681c0.46-0.224,1.166,0.286,1.676,0.335c1.202,0.12,2.819,0.087,4.022,0
	c0.709-0.05,1.677-0.091,2.346-0.335c0.892-0.324,2.28-0.814,2.682-1.676c0.297-0.645-0.126-1.666-0.336-2.346
	c-0.133-0.429-0.43-0.96-0.67-1.34c-0.611-0.969-1.506-2.234-2.347-3.015c-0.263-0.247-0.834-0.351-1.004-0.671
	c-0.331-0.619-0.078-1.645,0-2.344c0.101-0.924,0.6-2.094,0.671-3.019c0.124-1.606-0.031-3.779-0.336-5.36
	c-0.364-1.873-2.111-4.127-2.011-6.032c0.064-1.213,1.746-2.475,1.677-3.686c-0.033-0.585-0.67-1.194-1.003-1.677
	c-0.367-0.528-0.791-1.342-1.343-1.677c-0.874-0.533-2.415-0.251-3.351-0.671c-0.917-0.412-1.886-1.395-2.678-2.01
	c-0.509-0.395-1.046-1.227-1.677-1.34c-0.313-0.057-0.707,0.225-1.005,0.334c-0.508,0.186-1.145,0.568-1.676,0.672
	c-0.099,0.018-0.234,0-0.336,0c-0.502,0-1.229,0.228-1.675,0c-0.768-0.396-1.186-1.635-1.677-2.348
	c-0.205-0.297-0.479-0.693-0.671-1.005c-0.65-1.078-1.256-2.679-2.011-3.686c-0.597-0.798-1.667-1.616-2.346-2.348
	c-0.626-0.679-1.568-1.529-2.009-2.344c-0.348-0.643-0.673-2.344-0.645-2.245l-9.367-17.882l-13.619-8.182l-59.196-33.479
	l-17.107-0.335l-5.325,0.158l-4.095-1.067l-3.384-1.067l-0.712-1.958l-2.492-0.891l-8.368-3.917l-19.229-2.67l-6.942,2.493
	l-18.645,9.896c0,0-1.734,0.907-2.784,1.164c-0.982,0.241-2.344,0.424-3.352,0.335c-0.73-0.066-1.678-0.371-2.346-0.67
	c-1.196-0.538-2.494-1.801-3.686-2.346c-0.954-0.438-2.35-0.689-3.353-1.006c1.002,0.317,2.401,0.565,3.355,1.001l-0.167-1.969
	l-1.07-1.779l-1.604-1.781l-0.712-1.067l-1.424-3.207l-2.315-2.67v-2.138l1.428-1.421l1.6,0.354l1.424-0.354l0.89-0.713
	l-0.534-1.781l-1.958-1.067l-2.491-1.958l-2.849-0.891l-1.426-0.355l-3.027-1.069l-2.134-1.069l-1.247-0.534l-0.891-1.958
	l-0.178-0.891l-1.782-0.354l-1.244,0.354l-1.424,0.891l-1.782,1.424l-1.604,1.247l0.18,1.781l-0.535,1.422l1.067,1.424l1.783,0.712
	l2.134,0.354l1.781,1.07l1.246,1.422l-0.536,1.781l-1.244,2.315l-0.712,1.958l-1.094,2.139c0.989,0.133,2.34,0.062,3.343,0
	c-1.003,0.062-2.354,0.132-3.351,0c-1.136-0.153-2.606-0.622-3.686-1.008c-0.931-0.332-2.173-0.816-3.017-1.34
	c-0.666-0.415-1.294-1.356-2.009-1.677c-0.651-0.289-1.652-0.188-2.348-0.333c-0.714-0.153-1.657-0.426-2.346-0.671
	c-0.722-0.257-1.629-0.733-2.345-1.007c-0.297-0.113-0.69-0.296-1.006-0.335c-1.3-0.159-3.054,0.191-4.356,0.335
	c-0.706,0.076-1.649,0.476-2.346,0.333c-0.574-0.115-1.122-0.808-1.677-1.003c-0.671-0.239-1.664-0.534-2.346-0.335
	c-0.889,0.259-1.552,1.531-2.345,2.011c-0.462,0.279-1.189,0.43-1.677,0.671c-0.523,0.26-1.093,1.075-1.695,0.972l-0.015,0.018
	c-0.259-0.065-0.437-0.471-0.634-0.653c-0.142-0.129-0.299-0.267-0.465-0.406c0.074,0.064,0.15,0.123,0.224,0.191l-0.599-1.46
	l0.357-1.957l0.532-2.315l-0.354-1.958l1.245-1.781l1.067-1.069l2.315-0.356l2.491-0.178l3.383,0.354l1.244,0.891l1.425,1.781
	l1.782,0.357l1.958-0.357l0.354-2.491l-1.603-2.313l-2.314-1.958l-0.535-2.67l1.068-2.671l1.958-2.847l1.071-0.891l-1.071-3.205
	l-3.026-1.423l-2.314,0.179l-2.314,1.067l-0.89,1.245l-2.315,0.179l-0.355-1.424l0.355-3.56V49.48l-0.534-1.424l-1.426-1.424
	l-1.96-1.779l-2.315-2.138l-2.491-2.136l-0.357,1.782l0.357,2.491l1.426,4.986l-1.604,3.027l-1.07,1.245l-2.491-0.535l-1.781-1.603
	l-1.07-2.848l-0.533-2.315l-0.179-2.491l0.179-1.783l0.533-1.957l-3.917-1.604l-1.958-0.891l-4.095-1.067h-3.381l-1.959,0.535
	l-0.355,2.315l1.245,1.067l0.711,1.958l0.356,2.315l-1.604,1.603l-2.314,0.179l-3.205-0.712l-2.137,1.067l-2.134,1.425l-1.96,0.533
	h-2.314l-3.206,0.712l-2.849,1.422l-2.314,1.783l-1.959,1.781l-1.96,2.137l-1.065,2.671l-1.245,2.848l-0.712,2.67l-1.426,2.491
	l-2.136,2.138l-2.491,2.315l-2.673,2.491l-1.424,2.85l1.067,3.382l-0.355,2.136l-1.6,3.204l-0.357,2.848l2.137,0.536l2.315,1.779
	l1.958,1.779h3.736h3.025l1.245,0.715l0.357,2.491l-0.357,1.782l0.357,1.245l1.244,0.355l0.535-0.888l0.891-1.247l3.917-0.89
	l7.656,0.178l0.356-0.535l-0.712-1.067l0.712-2.493l1.957-0.712l1.07-1.245l1.658-0.87l0.506-1.006l1.888-0.505l4.156,0.124
	l3.272,0.125l1.764-0.88l1.257-0.378l1.763,0.629l1.888,1.132l1.007,1.009l1.677,1.804c-0.487-0.784-0.576-2.185-0.62-3.111
	c0.044,0.926,0.149,2.328,0.629,3.111c0.448,0.574,1.634,0.913,2.051,1.579c0.44,0.701,0.609,1.854,0.67,2.68
	c0.074,1.007,0.174,2.478-0.332,3.35c-0.435,0.749-1.497,1.516-2.346,1.677c-0.407,0.077-0.943-0.219-1.34-0.334
	c-0.307-0.088-0.796-0.096-1.006-0.333c-0.339-0.384-0.204-1.179-0.334-1.677c-0.165-0.614-0.035-2-0.671-2.011
	c-0.855-0.017-0.792,1.848-1.005,2.68c-0.177,0.689-0.324,1.637-0.335,2.348c-0.014,0.909,0.115,2.133,0.335,3.018
	c0.134,0.524,0.539,1.148,0.671,1.677c0.221,0.882,0.328,2.104,0.333,3.013c0.007,1.012-0.026,2.389-0.333,3.351
	c-0.248,0.771-0.85,1.703-1.341,2.346c-0.604,0.792-1.677,1.609-2.442,2.389c-0.86,1.017-2.243,2.384-2.919,3.646
	c0.676-1.26,1.874-2.533,2.833-3.592l-1.094-0.162l-1.762-0.253l-2.265-1.007l-1.01-1.51l1.01-1.761l-0.759-2.013l-1.259-2.014
	l-2.517-1.257l-2.267-0.756l-2.516-1.761l-1.761-1.511l-3.272,0.254l-4.032,2.014l-3.271,1.762l-2.267,1.257l-2.77,1.761
	l-1.262,2.77l-0.504,2.267l-0.755,2.77l1.259,1.51l3.528,1.009l3.271-0.505l-0.66,2.739c-0.625,0.242-0.825,1.332-1.367,1.68
	c-1.396,0.896-3.755,0.937-5.362,1.34c-1.205,0.302-2.793,0.813-4.021,1.006c-1.491,0.234-3.513,0.368-5.025,0.335
	c-0.91-0.021-2.143-0.078-3.017-0.335c-0.647-0.191-1.396-0.73-2.027-1.018c-0.493-0.224-1.129-0.556-1.66-0.659
	c-0.395-0.075-0.969-0.154-1.34,0c-0.79,0.326-1.591,1.268-2.011,2.011c-0.205,0.36-0.006,1.084-0.334,1.34
	c-0.871,0.682-2.581,0-3.686,0c-1.208,0-2.818,0.093-4.021,0c-1.317-0.101-3.019-0.671-4.355-0.671c-1.34,0-2.848-1.586-4.021-2.346
	c-0.728-0.47-0.336-1.34-2.345-1.677c-2.011-0.334-2.581-2.582-3.686-3.684c-0.903-0.905-2.47-1.859-3.017-3.015
	c-0.432-0.914-0.017-2.392-0.335-3.354c-0.183-0.556-0.535-1.326-1.005-1.677c-0.666-0.493-1.859-0.569-2.682-0.67
	c-0.898-0.109-2.122,0.146-3.016,0c-0.628-0.103-1.385-0.568-2.01-0.671c-0.693-0.112-1.643-0.062-2.344,0
	c-1.121,0.101-2.569,0.571-3.686,0.671c-0.4,0.038-0.942,0.05-1.34,0c-0.412-0.051-0.964-0.161-1.342-0.334
	c-0.784-0.363-1.782-1.017-2.345-1.677c-0.292-0.341-0.309-1.073-0.671-1.34c-0.491-0.363-1.438-0.553-2.009-0.333
	c-0.602,0.228-0.863,1.239-1.34,1.677c-0.534,0.49-1.439,0.893-2.011,1.34c-1.177,0.922-2.918,2.068-3.684,3.35
	c-0.215,0.357-0.075,1.019-0.337,1.34c-0.418,0.527-1.405,0.703-2.008,1.006c-0.806,0.401-1.837,1.029-2.681,1.34
	c-0.388,0.145-0.93,0.285-1.34,0.335c-0.899,0.11-2.164-0.298-3.019,0c-0.606,0.214-1.182,0.925-1.675,1.34
	c-0.925,0.781-2.014,2.001-3.017,2.681c-0.187,0.126-0.458,0.257-0.671,0.334c-0.778,0.288-1.859,0.57-2.682,0.671
	c-0.499,0.061-1.22-0.214-1.677,0c-0.71,0.332-1.405,1.272-1.675,2.01c-0.07,0.188,0,0.469,0,0.671c0,0.703,0.161,1.66,0,2.346
	c-0.154,0.655-0.682,1.419-1.006,2.011c-0.282,0.511-0.496,1.386-1.005,1.677c-0.349,0.197-0.937,0-1.339,0
	c-1.007,0-2.398,0.318-3.353,0c-0.476-0.16-0.923-0.725-1.34-1.005c-0.485-0.329-1.093-0.92-1.675-1.006
	c-0.412-0.062-0.992,0.11-1.342,0.334c-0.542,0.349-0.885,1.219-1.34,1.676c-0.454,0.455-1.173,0.939-1.677,1.34
	c-0.504,0.401-1.1,1.055-1.677,1.34c-0.741,0.368-1.858,0.568-2.681,0.671c-1.299,0.159-3.052,0.08-4.358,0
	c-0.809-0.05-1.906-0.1-2.68-0.334c-0.646-0.196-1.362-0.825-2.009-1.006c-1.167-0.328-2.816-0.234-4.021-0.334
	c-1.206-0.099-2.812-0.286-4.021-0.333c-0.905-0.037-2.213-0.415-3.019,0c-0.769,0.395-1.184,1.634-1.677,2.344
	c-0.411,0.597-0.741,1.6-1.34,2.01c-0.764,0.525-2.145,0.993-3.017,0.671c-0.472-0.175-0.606-1.034-1.004-1.34
	c-0.859-0.658-2.48-0.695-3.353-1.34c-0.516-0.383-1.044-1.104-1.341-1.677c-0.334-0.651-0.518-1.627-0.671-2.344
	c-0.148-0.695-0.15-1.658-0.334-2.344c-0.139-0.524-0.464-1.176-0.671-1.677c-0.29-0.708-0.664-1.662-1.004-2.346
	c-0.361-0.726-0.768-1.771-1.342-2.344s-1.58-1.069-2.346-1.34c-0.577-0.204-1.399-0.318-2.009-0.334
	c-0.911-0.026-2.154,0.043-3.019,0.334c-0.553,0.188-1.149,0.746-1.677,1.004c-0.483,0.241-1.154,0.525-1.675,0.671
	c-0.588,0.166-1.398,0.328-2.009,0.335c-0.712,0.009-1.668-0.123-2.346-0.335c-0.857-0.268-1.806-1.133-2.682-1.34
	c-0.49-0.116-1.211-0.193-1.677,0c-0.395,0.162-0.767,0.652-1.006,1.006c-0.429,0.634-0.725,1.635-1.006,2.346
	c-0.432,1.093-0.736,2.675-1.34,3.684c-0.62,1.04-1.722,2.28-2.682,3.017c-0.893,0.685-2.305,1.27-3.352,1.677
	c-1.364,0.531-3.308,0.868-4.69,1.34c-1.022,0.351-2.318,1.017-3.351,1.34c-1.28,0.401-3.047,0.723-4.357,1.004
	c-1.003,0.217-2.354,0.437-3.267,0.647l0.35,1.945l-0.438-1.92c-1.113,0.262-2.64,0.53-3.684,1.004c-0.66,0.3-1.355,1.03-2.01,1.34
	c-1.235,0.586-3.049,0.943-4.356,1.34c-1.004,0.303-2.301,1.02-3.35,1.006c-0.954-0.014-2.135-0.64-3.017-1.006
	c-1.037-0.43-2.466-0.985-3.351-1.677c-0.73-0.571-1.426-1.629-2.011-2.348c-0.726-0.886-1.734-2.044-2.346-3.013
	c-0.599-0.954-0.79-2.542-1.447-3.282l0.043-0.032l1.857-2.097l1.008-2.517l0.753-1.51l2.52,0.252l2.266-1.762v-1.257l-0.505-1.007
	l-2.013-0.755l-0.252-2.77l2.265-2.266l0.254-1.51l-1.764-0.252l-2.771,2.013l-2.516,1.259l-3.352,1.34l-3.698,0.412l-2.971,1.419
	l-4.082,4.385l-0.887,4.941l-3.475,3.479l-3.324,1.686l-3.378,0.412l-3.791,0.874l-4.28,1.446l-3.273,4.28l0.756,5.286l2.267,2.772
	v4.532l-2.809,4.023l-0.032-0.002l-2.698,3.281c0,0-4.278,1.763-6.042,1.51c-1.763-0.252-2.519-2.266-2.519-2.266l-3.021-3.02
	l-2.267-1.261l-2.265,0.253l-2.77,3.273l2.265,0.754l2.77,1.762l3.021,2.771l-2.017,2.014l-0.574,0.736l-0.037-0.065l-1.903,1.596
	l-1.762,1.761l-2.267,4.788l0.003,0.002l-4.787,4.021l-4.436,2.256l0.027,0.027l0.248,2.115l-0.275-2.143
	c-0.413-0.281-1.092-0.646-1.615-0.777c-1.455-0.372-3.505-0.191-4.977-0.475c-1.237-0.239-2.779-1.026-4.04-1.181l-0.148,3.39
	l4.916,4.545l6.648,0.649V189.4h0.003l-0.002-0.014l8.095,1.13l-8.093-1.116v0.003h-0.003l0.493,2.41l1.298,2.318l6.214,5.564
	l1.902,2.874l3.478,0.649l2.228-0.353l0.003-0.021l3.424,5.752l7.418,1.669l6.492-1.669l5.194,0.558v5.287l0.465,3.617l1.762,4.266
	l0.833,1.854l8.067-0.094l-0.51,3.291l-0.326-0.045l-2.69,4.175l-2.411,2.133l-1.762,2.597l-2.782,1.854l-7.233,2.041l-3.432,1.299
	l-2.968,2.505l-0.833,3.432l-0.742,1.299l-1.668,0.558l-5.102,1.113l-4.359,0.556l-0.092,3.71l-4.176,3.525l-4.73,2.874
	l-7.144,3.246l-6.397,2.594l1.021,8.162l1.946,2.318l3.987,1.206l1.577,0.743l1.391,5.654l1.081,2.048
	c0.512-0.426,1.455-0.587,1.992-0.978c0.452-0.327,0.857-1.001,1.316-1.318c0.803-0.55,2.184-0.734,2.968-1.316
	c0.732-0.544,1.558-1.496,1.976-2.305c0.374-0.725,0.256-1.927,0.658-2.636c0.277-0.486,0.792-1.132,1.317-1.318
	c0.842-0.295,2.076,0.442,2.964,0.329c0.838-0.104,1.906-0.563,2.636-0.989c0.667-0.387,1.34-1.211,1.977-1.646
	c0.836-0.576,2.014-1.278,2.965-1.646c0.804-0.312,2.113-0.135,2.741-0.703l0.354,4.968l0.374,4.822l3.616,5.564l-2.226,4.359
	l-1.948,0.558l-3.43-0.186l-4.822-0.279l-2.411,3.153l-1.763,2.597v3.432l-0.835,2.504l-5.473,0.372l-2.688,0.277l-1.669-1.391
	l-3.432-0.556l-1.298,0.926l-0.186,2.689l1.207,2.876l1.575,3.431l2.688,4.545l0.649,0.833l1.021-0.741l3.618-2.597l2.874-1.575
	l2.876-0.836l-0.096,2.783l-0.276,2.133l1.575,2.134l3.34-0.186l3.432-1.299l2.041-1.577l0.464-2.504l-1.297-1.855l-1.207-2.224
	l0.556-1.298l4.452-2.134l3.71-2.133l3.615-2.411l2.505-4.73l1.297-5.192l0.649-3.989l3.617-1.113l2.503-0.928l3.062,0.649
	l3.061,1.948l2.598,2.503l6.398,1.205l6.397,0.372l3.617-1.113l4.359-3.71l2.782-3.709l0.092-2.69l-0.462-3.432l-2.782-2.689
	l-2.968-1.484l-2.227-2.318l-1.946-2.875l-3.061-6.029l0.182-1.483l-0.649-2.412l-2.503-1.392l-1.669-1.299l-2.224,0.092
	l-2.227-0.462v-3.245l-1.024-3.154l0.464-2.782l-0.093-1.948l-0.28-2.226l2.875,0.278l8.996,0.927l2.412-0.371l3.616-1.483
	l3.617-1.205l2.413-1.393l4.079,0.465l1.299,1.575l3.34,4.637l2.133,5.286l4.081,0.557l4.173-0.464l4.266-2.041l1.577-1.021
	l2.181,3.354c0.696-0.591,1.521-1.564,2.257-2.155c0.565-0.457,1.45-0.896,1.992-1.385c0.477-0.432,0.862-1.272,1.396-1.631
	c0.368-0.248,0.959-0.418,1.398-0.469c1.327-0.146,3.093,0.443,4.427,0.469c0.979,0.016,2.281-0.197,3.262-0.232
	c0.904-0.034,2.177,0.343,3.017,0.003l-0.541,1.243l-0.919,3.936l0.064,6.492l0.518,4.143l4.99-0.404l-4.972,0.426l-0.013,1.279
	l-0.262,2.886l1.312,4.983l3.148,6.559l2.359,3.148l1.968,2.885l0.393,2.098l-0.786,6.033v3.936l2.623,3.936l1.179,3.017
	l-1.179,3.017l-2.229,2.491l-1.047,3.017l0.917,4.462l0.262,2.491l0.132,3.412l-0.657,2.885l-0.526,5.378l-1.311,3.279l2.622,2.491
	l2.755,3.28l1.049,2.359l0.394,3.54l0.918,3.804l3.804-0.524l4.195,0.263l2.887,0.916l0.785,3.54l1.574,4.461l0.264,2.753
	l-1.838,3.804l-2.493,4.067l-0.919,4.062l-1.312,2.492l-2.755,2.885l-4.459-0.526l-2.361,2.229l-3.148,1.706l-3.41,2.755
	l2.098,1.572l1.181,2.491l-0.132,6.033l-1.442,3.017l-4.196-0.13l0.524,8.522l1.574,4.331l1.18,2.489l6.951,4.989l6.559,3.8
	l7.474,6.295l4.722,5.642l4.261,6.751l3.479-1.624l7.881-2.318l5.389-0.778l0.003-0.006l2.399,0.364l9.275,1.3l3.339,0.927
	l8.349,6.675l7.417,2.597l6.493-2.78l3.524-1.113l6.677-0.188l4.081-0.74l5.565,2.223l5.748,3.711l7.606-5.565l4.08-3.71l4.311-1.81
	l4.73-2.038l0.839-1.348l6.812,4.312l1.644,1.627l0,0l1.742,2.269l4.871-3.848l6.767,3.241l-2.504,4.736l-0.277,2.318l0.557,6.305
	l2.131,3.988l1.391,4.544l0.186,3.615v3.615l-1.021,1.946l-2.226,1.39l-3.06-0.37l-3.062-1.113l-3.71-0.649l-2.505-0.277l0.278,2.32
	l0.741,4.171l1.116,2.879l2.316,3.819l2.126,0.566l2.698,1.733l0.37,2.782l-0.649,12.706l-2.597,6.768l-2.041,5.938l1.113,2.411
	l2.968,4.823l1.113,2.596l1.39,3.245l1.577,2.318l2.689,1.574l2.69,1.483l3.281,0.558l4.456-0.277l5.974-1.96l1.456-1.793
	l0.335-3.024l-0.782-5.041l1.68-4.031l3.92-3.807l6.272-1.233l5.15,1.233l2.464,1.79l8.848,0.898l3.136,1.343l1.345,2.017
	l5.151-0.338l3.585-3.024l1.794-3.144l1.565-7.386l-1.566,7.401l4.672,1.052l4.912,2.216l4.303,0.195l4.255-0.896l5.487,1.008
	l2.687,1.456l3.921,2.237l4.029,0.674l4.48-3.363l1.79,1.008h2.353l4.592-1.229l4.593-0.784l3.249-1.454l3.246-2.242l3.022-2.911
	l0.112-3.136l-1.006-2.014l-2.354-4.817l1.344-2.911l3.92-3.136l7.054-0.558l2.017-1.456l0.783-0.897l0.673,3.809l0.558,5.599
	l0.45,3.808l0.67,2.801l4.48,0.447l5.375-1.564l2.24,2.238l3.695,4.815l4.592,1.121l1.231,0.671l0.672,2.464l-3.585,3.807
	l-2.577,1.903l-1.006,8.624l0.447,5.937l3.246,7.392l2.911,4.368l3.92,3.92l2.579,0.224l4.142,1.345l3.92,4.369l-0.561,6.271
	l-2.238,4.48l0.896,4.032l3.361,4.033l-0.673,3.583l-1.791,4.705l-0.224,5.151l1.345,6.942l-2.463,4.032l-2.688,2.24l-1.343,3.583
	l0.224,6.272l-2.014,5.824l-2.016,3.584l1.568,4.255l3.581,6.047l2.243,6.046l-0.898,6.048l0.898,4.482l5.82,4.254l4.257,4.031
	l4.927,6.946l4.621,4.409l5.998-1.061l0.251-3.272l0.758-4.032l2.771-4.78l1.761-1.511l2.266-3.525l0.504-2.769l3.776-3.025
	l2.518-1.258l0.254-2.771l0.504-8.56l4.78-5.793l4.785-9.816l3.021-6.044l-0.504-7.805l-2.265-4.03l-0.755-7.05v-10.826
	l-8.812-7.807l-0.251-5.791l2.77-2.518l4.029-2.517l1.257-2.771l-0.753-6.296l-0.256-4.279l3.779-4.029l5.538-2.267l6.042-1.005
	l7.303-1.008l4.28,1.511l0.251,3.526v3.273l4.532,3.774l2.014,2.265l3.274,0.758l0.502-1.258l2.014-3.023l0.502-3.777l3.272-3.779
	l2.015-1.759l5.792,0.502l2.265,3.024l0.252,4.278l-1.257,6.799l-2.014,5.285L667,567.216v5.538l1.26,4.281l3.272,6.798
	l-0.502,5.791l-1.006,3.524l4.03,2.267l4.278,2.771l3.273,2.266l2.012,5.793l1.008,3.272l3.272,4.532l3.775,3.777l7.305,3.526
	l4.03,2.266l5.791,0.249l3.021,1.008l3.778-0.504l5.537-1.508l5.286-2.014l4.785,1.008l1.761,0.754l2.265-1.762l1.259-3.525
	l-0.252-3.775l0.503-7.051l1.763-2.77l4.029-2.518l4.028,2.518l5.54,2.77l2.769-0.502l2.771-1.764l3.023-2.013l2.011-3.775
	l4.785-1.509h7.554l3.021-1.26l2.265-1.261l3.526-1.761l4.031-1.006l4.278,1.006l3.274-1.764l3.022-1.51l2.516,2.268l2.267,3.272
	l2.265,3.272l4.536,4.281l0.5,5.54l-1.761,0.753l0.253,5.036l1.761,2.265v3.778l-0.502,5.034l2.014,1.259l6.543,2.771l5.54,3.776
	l1.26,4.534l-0.758,6.293l-0.251,4.533l2.516,1.761l1.51,1.763l1.259-1.509l2.016-2.77l4.026-0.253l4.533,1.259l4.031,0.253
	l2.265-0.504l5.286-6.798l4.28-4.532l-2.52-4.534l-2.266-4.027l-3.525-4.532l-3.022-2.518l-3.526-4.785l-2.517-5.286l-0.758-4.028
	l1.512-4.78l1.259-4.785l1.004-4.232l0.178-0.711l2.138-1.958l3.383-1.424l4.63-3.559l0.709-1.604l-0.889-2.671l-3.205-3.559
	l-1.247-2.67l-0.89-2.314c0,0-2.848,1.067-4.094,1.603c-1.247,0.535-3.386,0.89-3.386,0.89l-4.806,0.535l-2.67,0.355l-3.385-1.604
	l-2.313-0.534l-2.138-4.095l-2.669-3.916l0.357-5.164l0.888-2.85l-0.888-2.845l-0.892-6.946l2.138-4.094l1.065-1.957l0.357-4.45
	v-5.521l0.712-3.205l5.519-5.695l1.065-3.738l2.671-2.316l3.559-1.601l-0.89-5.697l1.782-3.919l3.917-0.712l3.205,0.712l1.245-0.712
	l4.629-1.424l1.957-1.957l3.026-0.89l1.066-2.493l3.917-1.068l2.67,0.178l3.026,1.246h1.782l1.065-1.957v-1.245l1.067-2.315
	l3.206,0.178l0.535,1.603l1.244,3.385l2.493,3.205l0.536,1.955l0.178,4.097l-2.849,2.315l-0.354,3.203l2.139,1.958l1.954,0.713
	l4.988,0.354l3.382,1.959l1.603,3.56l1.424,2.669l0.713,2.315l8.899-0.179l3.384-1.248l7.301,0.356l3.385,1.069l6.23-0.536
	l4.273,1.067l2.313,1.424l3.204,0.355l3.205-4.451l1.246-4.451l1.958-4.095l1.067-6.231l-0.179-8.191l-3.916-4.271l-2.313-2.849
	l-5.521-2.138l-5.696,1.424l-3.383,0.536l-2.138-1.424l-1.065-3.739l-1.782-6.765l-1.423-1.956l-0.536-7.479l1.601-1.957
	l7.837-7.477l-0.89-2.671l-2.138-1.604l-1.067-2.667l0.711-1.959l3.027-2.67l4.629-2.849l3.559-1.957l0.179-1.78l-2.313-3.738
	l-1.958-2.85l-0.713-4.096l0.538-2.669l2.136-1.957l2.671-1.782l1.955-2.668l-0.178-3.027l1.247-3.56l2.136-3.739l1.068-4.629
	l0.357-2.849l-0.716-2.313l0.536-3.917l-1.335-2.955c0.303-0.754,0.187-1.885,0.335-2.682
	C934.514,394.764,934.905,393.148,935.29,391.967z M150.191,159.153c0.447,0.032,0.674,0.05,1.177,0.091L150.191,159.153z
	 M405.086,352.444v-0.006l0.006,0.005L405.086,352.444z"/>
<g>
	<path id="lake_lucerne" fill="#CCD3DB" d="M356.332,367.756c-0.119-0.328,0.401-0.706,0.639-0.96
		c0.248-0.266,0.661-0.531,0.957-0.743c0.374-0.268,0.927-0.55,1.275-0.85c0.358-0.311,0.747-0.817,1.062-1.17
		c0.226-0.256,0.446-0.689,0.743-0.85c0.367-0.202,0.969-0.138,1.383-0.213c0.577-0.107,1.365-0.213,1.912-0.426
		c0.652-0.254,1.399-0.842,2.02-1.17c0.53-0.278,1.372-0.439,1.809-0.849c0.291-0.273,0.561-0.777,0.637-1.17
		c0.05-0.254,0.08-0.675-0.105-0.851c-0.351-0.331-1.117-0.047-1.596-0.109c-0.514-0.065-1.259-0.041-1.699-0.318
		c-0.271-0.167-0.531-0.55-0.639-0.85c-0.219-0.602-0.132-1.488-0.107-2.127c0.032-0.738,0.242-1.709,0.32-2.442
		c0.038-0.383,0.187-0.903,0.104-1.277c-0.067-0.321-0.428-0.646-0.531-0.957c-0.15-0.458-0.291-1.118-0.212-1.594
		c0.07-0.423,0.342-0.967,0.639-1.275c0.226-0.239,0.631-0.479,0.955-0.533c0.351-0.057,0.859,0.038,1.169,0.215
		c0.335,0.188,0.629,0.645,0.852,0.957c0.188,0.268,0.263,0.766,0.531,0.957c0.289,0.206,0.812,0.209,1.168,0.211
		c0.548,0,1.311-0.078,1.807-0.318c0.344-0.167,0.827-0.488,0.957-0.852c0.271-0.761-0.334-1.855-0.426-2.656
		c-0.103-0.89,0.067-2.126-0.214-2.978c-0.13-0.395-0.539-0.807-0.743-1.17c-0.105-0.185-0.37-0.43-0.319-0.637
		c0.098-0.378,0.885-0.399,1.062-0.742c0.235-0.453,0.132-1.207,0-1.701c-0.132-0.498-0.577-1.054-0.852-1.49
		c-0.327-0.522-0.803-1.199-1.168-1.699c-0.307-0.423-0.69-1.016-1.062-1.383c-0.451-0.447-1.252-0.822-1.701-1.276
		c-0.415-0.421-1.024-1.02-1.168-1.594c-0.054-0.219,0.021-0.539,0.106-0.742c0.123-0.294,0.35-0.719,0.638-0.852
		c0.465-0.213,1.202-0.005,1.699,0.105c0.671,0.15,1.542,0.488,2.126,0.852c0.691,0.429,1.459,1.218,2.02,1.809
		c0.562,0.593,1.302,1.413,1.699,2.125c0.184,0.325,0.236,0.847,0.426,1.169c0.318,0.546,0.836,1.269,1.382,1.594
		c0.505,0.302,1.336,0.539,1.914,0.426c0.492-0.099,0.984-0.649,1.379-0.956c0.7-0.54,1.598-1.303,2.234-1.915
		c0.812-0.781,1.781-1.938,2.551-2.763c0.539-0.577,1.208-1.398,1.804-1.916c0.501-0.436,1.308-0.837,1.809-1.275
		c0.528-0.461,1.083-1.225,1.596-1.701c0.631-0.586,1.556-1.273,2.232-1.807c0.409-0.324,1.084-0.633,1.382-1.062
		c0.188-0.272,0.141-0.782,0.318-1.062c0.228-0.361,0.741-0.672,1.062-0.957c0.253-0.225,0.582-0.539,0.85-0.742
		c0.275-0.21,0.623-0.727,0.957-0.639c0.207,0.055,0.258,0.435,0.318,0.639c0.156,0.521,0.274,1.266,0.215,1.809
		c-0.064,0.57-0.441,1.266-0.639,1.807c-0.407,1.119-0.935,2.617-1.383,3.721c-0.444,1.097-1.033,2.569-1.594,3.612
		c-0.253,0.469-0.641,1.062-0.957,1.49c-0.353,0.472-0.843,1.09-1.275,1.488c-0.322,0.294-0.83,0.581-1.169,0.851
		c-0.427,0.337-0.984,0.802-1.383,1.169c-0.265,0.245-0.698,0.522-0.85,0.852c-0.161,0.348-0.231,0.911-0.107,1.275
		c0.169,0.491,0.73,1,1.167,1.275c0.283,0.176,0.733,0.268,1.064,0.318c0.695,0.102,1.66,0.18,2.337,0
		c0.497-0.133,1.058-0.569,1.488-0.852c0.399-0.262,0.844-0.747,1.275-0.957c0.327-0.159,0.812-0.246,1.168-0.319
		c0.694-0.142,1.647-0.474,2.339-0.319c0.518,0.115,1.084,0.616,1.489,0.957c0.431,0.365,0.856,1.003,1.275,1.382
		c0.355,0.32,0.846,0.745,1.275,0.957c0.325,0.159,0.837,0.171,1.167,0.318c0.827,0.361,1.899,0.971,2.553,1.594
		c0.363,0.35,0.692,0.951,0.956,1.383c0.318,0.523,0.753,1.227,0.957,1.809c0.171,0.488,0.329,1.181,0.318,1.699
		c-0.008,0.426-0.169,0.983-0.318,1.383c-0.19,0.51-0.93,1.059-0.851,1.596c0.046,0.311,0.509,0.533,0.743,0.744
		c0.306,0.274,0.706,0.655,1.062,0.852c0.442,0.239,1.121,0.354,1.596,0.533c0.547,0.203,1.229,0.637,1.806,0.742
		c1.13,0.207,2.707,0.156,3.826-0.105c0.445-0.105,0.927-0.622,1.383-0.637c0.543-0.021,1.167,0.526,1.699,0.637
		c0.689,0.141,1.642,0.024,2.337,0.105c1,0.118,2.291,0.671,3.297,0.637c0.76-0.024,1.755-0.324,2.444-0.637
		c0.563-0.256,1.205-0.799,1.699-1.17c0.328-0.243,0.728-0.615,1.062-0.852c0.458-0.318,1.08-0.747,1.596-0.955
		c0.394-0.159,0.965-0.229,1.383-0.318c1.017-0.213,2.362-0.628,3.402-0.639c0.582-0.005,1.423,0.003,1.914,0.32
		c0.579,0.373,0.852,1.367,1.275,1.914c0.234,0.303,0.631,0.643,0.852,0.957c0.229,0.326,0.413,0.837,0.639,1.168
		c0.307,0.449,0.96,0.881,1.17,1.381c0.292,0.711,0.191,1.784,0.213,2.553c0.024,0.986-0.151,2.307-0.107,3.294
		c0.038,0.771,0.193,1.79,0.32,2.553c0.154,0.928,0.438,2.157,0.637,3.082c0.153,0.703,0.453,1.625,0.531,2.337
		c0.086,0.763,0.104,1.793,0,2.55c-0.078,0.594-0.364,1.346-0.531,1.915c-0.216,0.738-0.599,1.693-0.742,2.445
		c-0.14,0.723-0.415,1.736-0.215,2.445c0.087,0.305,0.439,0.603,0.639,0.851c0.338,0.421,0.812,0.972,1.167,1.38
		c0.252,0.289,0.65,0.627,0.852,0.957c0.23,0.381,0.424,0.952,0.531,1.382c0.192,0.78,0.255,1.857,0.318,2.658
		c0.064,0.795,0.332,1.89,0.107,2.657c-0.11,0.373-0.426,0.841-0.743,1.062c-0.513,0.356-1.518,0.158-2.02,0.531
		c-0.394,0.289-0.579,0.98-0.852,1.38c-0.329,0.493-0.602,1.424-1.168,1.596c-0.357,0.108-0.886-0.183-1.169-0.426
		c-0.356-0.305-0.554-0.949-0.742-1.38c-0.233-0.526-0.488-1.252-0.639-1.807c-0.221-0.816-0.464-1.925-0.531-2.764
		c-0.084-1.053,0.055-2.456,0.105-3.509c0.024-0.478,0.194-1.124,0.107-1.594c-0.1-0.521-0.539-1.111-0.744-1.596
		c-0.242-0.564-0.479-1.356-0.744-1.911c-0.223-0.467-0.692-0.998-0.851-1.491c-0.187-0.579-0.257-1.413-0.211-2.02
		c0.046-0.623,0.369-1.415,0.531-2.017c0.188-0.703,0.457-1.636,0.639-2.338c0.236-0.924,0.49-2.167,0.743-3.084
		c0.144-0.517,0.422-1.18,0.531-1.7c0.179-0.849,0.316-2.006,0.321-2.871c0.003-0.965-0.2-2.235-0.321-3.187
		c-0.132-1.058-0.028-2.572-0.531-3.511c-0.204-0.375-0.652-0.835-1.062-0.954c-0.404-0.123-1,0.038-1.383,0.211
		c-0.64,0.288-1.188,1.161-1.807,1.49c-0.913,0.479-2.394,0.459-3.295,0.957c-0.635,0.348-1.215,1.181-1.809,1.593
		c-0.386,0.27-0.956,0.545-1.383,0.744c-0.776,0.362-1.852,0.767-2.658,1.062c-0.852,0.312-2.005,0.683-2.87,0.957
		c-0.952,0.3-2.235,0.664-3.189,0.954c-0.512,0.159-1.189,0.377-1.699,0.534c-0.732,0.226-1.689,0.614-2.445,0.742
		c-0.692,0.12-1.648,0.239-2.337,0.107c-0.31-0.058-0.66-0.327-0.957-0.423c-0.991-0.324-2.439-0.344-3.401-0.742
		c-0.599-0.25-1.225-0.893-1.805-1.172c-0.729-0.351-1.768-0.664-2.553-0.851c-1.066-0.253-2.528-0.388-3.615-0.533
		c-0.797-0.105-1.879-0.115-2.657-0.317c-0.568-0.149-1.306-0.439-1.809-0.747c-0.462-0.281-0.982-0.799-1.382-1.168
		c-0.266-0.245-0.722-0.513-0.851-0.849c-0.205-0.54-0.075-1.369,0.105-1.915c0.146-0.438,0.52-0.956,0.852-1.276
		c0.35-0.338,0.935-0.653,1.382-0.85c0.638-0.278,1.549-0.507,2.232-0.635c0.631-0.121,1.494-0.107,2.125-0.215
		c0.68-0.113,1.59-0.288,2.232-0.533c0.509-0.189,1.339-0.372,1.595-0.85c0.151-0.285,0.135-0.853-0.107-1.062
		c-0.695-0.608-2.156,0.09-3.081,0.107c-1.054,0.017-2.458-0.046-3.51,0c-0.733,0.032-1.71,0.181-2.445,0.214
		c-0.86,0.035-2.015,0.113-2.869,0c-0.722-0.097-1.616-0.559-2.337-0.639c-1.304-0.144-3.052,0.248-4.359,0.213
		c-0.608-0.017-1.412-0.182-2.02-0.213c-0.795-0.043-1.911-0.283-2.657,0c-0.677,0.256-1.297,1.083-1.807,1.596
		c-0.447,0.449-1.003,1.091-1.383,1.596c-0.634,0.849-1.308,2.104-1.913,2.976c-0.272,0.395-0.69,0.877-0.957,1.275
		c-0.519,0.77-1.073,1.888-1.595,2.656c-0.383,0.565-0.98,1.259-1.383,1.811c-0.527,0.721-1.006,1.882-1.7,2.443
		c-0.511,0.414-1.416,0.593-2.02,0.85c-0.671,0.283-1.593,0.611-2.232,0.957c-0.506,0.273-1.064,0.84-1.594,1.062
		c-0.423,0.178-1.038,0.256-1.49,0.318c-0.474,0.067-1.115,0.094-1.596,0.108c-0.636,0.021-1.493,0.088-2.125,0
		C357.362,368.115,356.491,368.19,356.332,367.756z"/>
	<path id="lake_zug" fill="#CCD3DB" d="M419.265,324.599c0.576-0.017,1.237-0.691,1.504-1.205c0.331-0.64,0.175-1.681,0.148-2.403
		c-0.046-1.411-0.361-3.272-0.602-4.662c-0.181-1.045-0.21-2.544-0.752-3.457c-0.456-0.771-1.624-1.316-2.255-1.955
		c-0.832-0.841-1.833-2.07-2.555-3.006c-0.337-0.437-0.819-1.005-1.052-1.504c-0.296-0.636-0.563-1.558-0.602-2.256
		c-0.032-0.593,0.139-1.384,0.298-1.955c0.16-0.563,0.487-1.278,0.754-1.804c0.237-0.469,0.686-1.021,0.9-1.502
		c0.251-0.561,0.421-1.369,0.602-1.954c0.183-0.587,0.463-1.358,0.604-1.954c0.187-0.801,0.303-1.896,0.451-2.706
		c0.126-0.68,0.273-1.588,0.45-2.255c0.109-0.414,0.28-0.962,0.45-1.353c0.226-0.518,0.763-1.107,0.902-1.655
		c0.069-0.262,0-0.631,0-0.901c0-0.315,0.132-0.766,0-1.053c-0.175-0.379-0.701-0.681-1.054-0.903
		c-0.375-0.237-0.931-0.461-1.352-0.6c-0.965-0.322-2.331-0.469-3.308-0.754c-0.645-0.188-1.484-0.501-2.105-0.753
		c-0.507-0.204-1.196-0.455-1.652-0.752c-0.456-0.296-0.812-1.141-1.353-1.202c-0.562-0.064-1.179,0.597-1.656,0.901
		c-0.378,0.244-0.843,0.63-1.202,0.902c-0.409,0.312-0.995,0.682-1.354,1.052c-0.269,0.28-0.617,0.689-0.751,1.054
		c-0.187,0.51-0.211,1.264-0.149,1.804c0.098,0.893,0.796,1.963,0.9,2.855c0.073,0.628-0.091,1.474-0.15,2.105
		c-0.072,0.768-0.307,1.784-0.299,2.555c0.003,0.682-0.095,1.698,0.299,2.255c0.236,0.33,0.945,0.291,1.204,0.603
		c0.209,0.253,0.318,0.724,0.3,1.052c-0.024,0.485-0.434,1.049-0.601,1.502c-0.146,0.401-0.419,0.925-0.45,1.353
		c-0.058,0.774,0.161,1.831,0.45,2.554c0.181,0.453,0.593,0.977,0.902,1.353c0.281,0.346,0.661,0.836,1.054,1.052
		c0.524,0.292,1.361,0.334,1.952,0.451c0.539,0.107,1.295,0.094,1.802,0.302c0.191,0.078,0.482,0.206,0.565,0.396
		c0.097,0.224,0.001,0.591-0.113,0.807c-0.256,0.479-0.94,0.85-1.353,1.204c-0.486,0.415-1.177,0.922-1.653,1.354
		c-0.331,0.299-0.749,0.723-1.052,1.054c-0.283,0.305-0.73,0.672-0.903,1.053c-0.132,0.29-0.195,0.737-0.15,1.054
		c0.076,0.538,0.412,1.229,0.75,1.654c0.426,0.528,1.237,0.985,1.806,1.352c0.477,0.307,1.213,0.548,1.653,0.902
		c0.375,0.3,0.45,0.901,1.053,1.203c0.603,0.299,1.387,1.162,1.804,1.804c0.341,0.527,0.41,1.428,0.752,1.952
		c0.138,0.215,0.389,0.463,0.602,0.604c0.404,0.267,1.044,0.441,1.502,0.602c0.445,0.155,1.06,0.296,1.504,0.45
		c0.458,0.16,1.076,0.368,1.502,0.601C418.553,324.032,418.875,324.608,419.265,324.599z"/>
	<path id="lake_sempach" fill="#CCD3DB" d="M329.97,303.702c0.541-0.072,1.042-0.758,1.354-1.204c0.28-0.397,0.485-1.03,0.602-1.502
		c0.116-0.483,0.146-1.157,0.148-1.653c0.005-0.633,0.017-1.495-0.148-2.105c-0.188-0.682-0.62-1.548-1.054-2.104
		c-0.512-0.655-1.43-1.316-2.104-1.804c-0.641-0.462-1.623-0.885-2.256-1.352c-1.024-0.762-2.194-2.017-3.157-2.856
		c-0.843-0.736-2.216-1.488-2.857-2.405c-0.301-0.434-0.369-1.181-0.601-1.653c-0.188-0.383-0.486-0.87-0.752-1.204
		c-0.278-0.351-0.688-0.796-1.054-1.052c-0.691-0.487-1.724-1.375-2.554-1.204c-0.469,0.099-0.884,0.755-1.051,1.204
		c-0.349,0.926-0.014,2.315,0,3.308c0.023,1.532-0.456,3.702,0.149,5.111c0.278,0.645,1.222,1.101,1.655,1.653
		c0.483,0.622,0.815,1.677,1.351,2.256c0.638,0.688,1.786,1.27,2.554,1.805c0.854,0.592,1.998,1.372,2.855,1.954
		c0.541,0.364,1.275,0.825,1.804,1.204c0.601,0.43,1.374,1.044,1.956,1.504c0.502,0.397,1.114,1.002,1.655,1.352
		C328.891,303.225,329.47,303.77,329.97,303.702z"/>
	<path id="lake_baldegg" fill="#CCD3DB" d="M354.774,279.349c0.652-0.182,1.17-1.152,1.354-1.804
		c0.137-0.479-0.059-1.165-0.148-1.653c-0.15-0.784-0.475-1.806-0.752-2.555c-0.345-0.926-0.949-2.103-1.354-3.006
		c-0.363-0.81-0.822-1.901-1.202-2.705c-0.257-0.546-0.459-1.393-0.901-1.806c-0.43-0.401-1.227-0.658-1.805-0.752
		c-0.624-0.101-1.557-0.168-2.104,0.15c-0.281,0.164-0.48,0.6-0.604,0.901c-0.199,0.511-0.254,1.256-0.299,1.804
		c-0.031,0.404-0.092,0.957,0,1.353c0.209,0.882,0.956,1.89,1.354,2.706c0.413,0.853,0.949,1.998,1.351,2.855
		c0.318,0.676,0.581,1.677,1.053,2.256c0.428,0.524,1.213,1.021,1.804,1.354C353.156,278.806,354.073,279.548,354.774,279.349z"/>
	<path id="lake_hallwil" fill="#CCD3DB" d="M342.748,251.993c0.6-0.66,0.967-1.852,1.205-2.706c0.195-0.701,0.28-1.678,0.299-2.405
		c0.037-1.311-0.127-3.061-0.299-4.359c-0.151-1.14-0.491-2.639-0.751-3.759c-0.319-1.363-0.8-3.169-1.204-4.51
		c-0.367-1.229-0.766-2.917-1.351-4.057c-0.28-0.547-0.879-1.133-1.203-1.653c-0.46-0.735-0.771-1.911-1.353-2.556
		c-0.327-0.361-0.866-0.924-1.354-0.902c-0.289,0.013-0.594,0.361-0.75,0.602c-0.283,0.431-0.417,1.143-0.45,1.654
		c-0.1,1.404,0.447,3.258,0.6,4.659c0.107,0.991,0.155,2.323,0.301,3.308c0.194,1.32,0.734,3.033,0.901,4.359
		c0.124,0.986-0.043,2.332,0.148,3.307c0.104,0.518,0.38,1.176,0.604,1.654c0.417,0.897,1.267,1.945,1.652,2.856
		c0.256,0.604,0.428,1.472,0.604,2.105c0.186,0.675,0.251,1.647,0.602,2.255c0.159,0.276,0.437,0.708,0.75,0.751
		C342.057,252.641,342.505,252.261,342.748,251.993z"/>
	<path id="lake_aegeri" fill="#CCD3DB" d="M449.339,309.824c0.722-0.096,1.771-0.186,2.34-0.638c0.628-0.496,0.905-1.63,1.275-2.338
		c0.132-0.254,0.459-0.568,0.426-0.852c-0.072-0.583-0.951-0.997-1.275-1.488c-0.236-0.355-0.406-0.915-0.636-1.275
		c-0.441-0.688-1.116-1.558-1.703-2.125c-0.457-0.444-1.128-0.992-1.699-1.276c-0.83-0.413-2.127-0.473-2.977-0.851
		c-0.549-0.245-1.194-0.735-1.7-1.062c-0.386-0.251-0.82-0.777-1.276-0.852c-0.719-0.114-1.709,0.274-2.337,0.639
		c-0.469,0.271-1.092,0.766-1.275,1.275c-0.244,0.662,0,1.49,0.211,2.337c0.215,0.85,1.445,1.901,2.34,2.338
		c0.461,0.226,1.221,0.028,1.699,0.212c0.511,0.199,1.007,0.801,1.487,1.064c0.604,0.329,1.597,0.411,2.129,0.85
		c0.638,0.531,1.254,1.54,1.486,2.338c0.144,0.49-0.359,1.34,0,1.7C448.167,310.14,448.897,309.884,449.339,309.824z"/>
	<path id="sihlsee" fill="#CCD3DB" d="M496.531,318.284c0.565,0.235,1.531,0.09,2.023-0.277c0.309-0.229,0.489-0.784,0.531-1.168
		c0.068-0.616-0.248-1.426-0.426-2.019c-0.148-0.494-0.293-1.213-0.638-1.596c-0.41-0.456-1.313-0.593-1.808-0.957
		c-0.398-0.294-0.811-0.828-1.169-1.168c-0.343-0.329-0.919-0.66-1.168-1.064c-0.312-0.508-0.388-1.335-0.531-1.912
		c-0.251-1.016-0.577-2.369-0.743-3.402c-0.146-0.887-0.246-2.08-0.321-2.976c-0.09-1.115-0.194-2.604-0.21-3.721
		c-0.017-1.084,0.18-2.533,0.105-3.614c-0.039-0.58-0.067-1.387-0.318-1.914c-0.167-0.348-0.563-0.701-0.852-0.955
		c-0.29-0.259-0.693-0.617-1.062-0.744c-0.604-0.207-1.505-0.258-2.125-0.107c-0.431,0.104-0.896,0.515-1.275,0.744
		c-0.258,0.156-0.601,0.364-0.852,0.531c-0.555,0.367-1.464,0.709-1.807,1.275c-0.25,0.414-0.215,1.112-0.215,1.596
		c0,0.74,0.072,1.749,0.32,2.444c0.264,0.742,0.99,1.546,1.383,2.232c0.512,0.906,1.214,2.111,1.594,3.084
		c0.396,1.017,0.585,2.482,0.957,3.507c0.288,0.793,0.771,1.808,1.168,2.552c0.315,0.593,0.775,1.368,1.167,1.913
		c0.464,0.642,1.188,1.416,1.7,2.02c0.571,0.671,1.354,1.55,1.914,2.232c0.359,0.438,0.823,1.037,1.168,1.487
		C495.498,316.894,495.846,317.999,496.531,318.284z"/>
	<path id="lake_zurich" fill="#CCD3DB" d="M528.851,262.362c0.626-0.015,1.447,0.383,1.954,0.754
		c0.23,0.172,0.523,0.475,0.602,0.753c0.098,0.352,0.011,0.875-0.151,1.202c-0.307,0.63-1.141,1.175-1.652,1.654
		c-0.698,0.656-1.609,1.569-2.405,2.105c-0.838,0.562-2.053,1.176-3.006,1.502c-1.089,0.372-2.609,0.72-3.76,0.753
		c-0.636,0.018-1.47-0.243-2.104-0.301c-1.08-0.099-2.525-0.195-3.609-0.15c-1.091,0.046-2.528,0.292-3.606,0.451
		c-0.545,0.078-1.335,0.019-1.805,0.299c-0.441,0.264-0.765,0.928-1.054,1.353c-0.297,0.433-0.577,1.089-0.902,1.502
		c-0.234,0.3-0.542,0.771-0.9,0.903c-0.981,0.356-2.429-0.148-3.459-0.3c-1.093-0.161-2.542-0.464-3.607-0.754
		c-0.827-0.222-1.927-0.553-2.706-0.901c-0.664-0.296-1.496-0.805-2.105-1.202c-0.893-0.582-1.866-1.714-2.855-2.105
		c-0.718-0.283-1.784-0.307-2.554-0.302c-0.684,0.005-1.585,0.173-2.254,0.302c-0.366,0.068-0.834,0.265-1.205,0.302
		c-0.854,0.082-2.002-0.086-2.856-0.15c-1.356-0.103-3.203-0.073-4.51-0.452c-0.289-0.084-0.602-0.468-0.901-0.45
		c-0.487,0.032-0.992,0.576-1.354,0.904c-0.475,0.43-0.751,1.438-1.353,1.653c-0.433,0.156-1.082-0.116-1.504-0.3
		c-0.712-0.31-1.542-0.968-2.105-1.504c-0.58-0.555-1.12-1.504-1.655-2.105c-0.929-1.051-2.297-2.332-3.306-3.308
		c-0.618-0.599-1.408-1.445-2.105-1.954c-0.96-0.703-2.521-1.216-3.457-1.954c-0.677-0.534-1.485-1.382-1.954-2.105
		c-0.375-0.575-0.549-1.516-0.902-2.105c-0.443-0.742-1.213-1.62-1.802-2.255c-0.587-0.633-1.339-1.566-2.105-1.954
		c-0.86-0.434-2.194-0.533-3.157-0.601c-0.991-0.071-2.318,0.258-3.307,0.15c-0.696-0.075-1.615-0.318-2.255-0.602
		c-0.835-0.369-1.776-1.18-2.555-1.654c-0.62-0.378-1.543-0.737-2.105-1.203c-0.639-0.53-1.238-1.494-1.802-2.105
		c-0.649-0.701-1.889-1.371-2.254-2.254c-0.33-0.793,0.16-2.016,0-2.857c-0.186-0.954-0.781-2.132-1.204-3.006
		c-0.473-0.984-1.235-2.227-1.802-3.157c-0.561-0.919-1.42-2.073-1.956-3.006c-0.501-0.875-1.132-2.07-1.504-3.006
		c-0.348-0.876-0.581-2.121-0.901-3.008c-0.317-0.874-0.927-1.969-1.204-2.855c-0.259-0.836-0.232-2.062-0.602-2.856
		c-0.217-0.467-0.752-0.937-1.052-1.352c-0.383-0.526-0.905-1.227-1.205-1.806c-0.289-0.557-0.477-1.389-0.75-1.953
		c-0.23-0.474-0.84-0.982-0.904-1.504c-0.057-0.467,0.279-1.064,0.454-1.502c0.297-0.749,0.776-1.719,1.202-2.404
		c0.235-0.383,0.45-1.205,0.901-1.205c0.902,0,1.224,1.715,1.804,2.405c0.72,0.854,1.941,1.774,2.555,2.706
		c0.623,0.944,1.09,2.404,1.503,3.457c0.351,0.89,0.838,2.075,1.054,3.008c0.175,0.752,0.066,1.819,0.299,2.554
		c0.173,0.539,0.646,1.148,0.903,1.654c0.383,0.756,0.831,1.791,1.204,2.554c0.352,0.726,0.851,1.68,1.203,2.405
		c0.369,0.763,0.881,1.772,1.202,2.555c0.311,0.753,0.515,1.841,0.903,2.554c0.458,0.849,1.288,1.856,1.952,2.555
		c0.817,0.86,2.115,1.779,3.008,2.554c0.866,0.757,2.009,1.779,2.855,2.555c0.87,0.799,1.879,2.045,2.855,2.705
		c0.988,0.668,2.487,1.253,3.609,1.654c1.009,0.359,2.42,0.628,3.458,0.903c0.677,0.178,1.597,0.362,2.255,0.601
		c0.606,0.219,1.394,0.581,1.954,0.903c0.761,0.433,1.723,1.104,2.407,1.653c0.87,0.701,1.871,1.812,2.706,2.554
		c0.572,0.511,1.372,1.155,1.953,1.654c0.681,0.583,1.503,1.467,2.254,1.954c0.625,0.405,1.578,0.741,2.255,1.052
		c0.496,0.227,1.157,0.528,1.655,0.752c0.81,0.364,1.858,0.941,2.705,1.203c0.481,0.147,1.156,0.216,1.654,0.299
		c1.125,0.193,2.619,0.512,3.756,0.602c1.035,0.083,2.421,0.029,3.459,0c0.857-0.022,2.049,0.145,2.855-0.149
		c0.426-0.155,0.798-0.703,1.204-0.9c0.462-0.227,1.208-0.193,1.652-0.452c0.497-0.288,0.836-1.107,1.354-1.353
		c0.409-0.194,1.052-0.156,1.502-0.149c0.364,0.005,0.852,0.065,1.205,0.149c0.654,0.156,1.614,0.295,2.105,0.754
		c0.576,0.536,0.752,1.677,1.054,2.405c0.334,0.804,0.558,1.989,1.054,2.706c0.344,0.499,1.027,0.977,1.502,1.352
		c0.561,0.441,1.292,1.092,1.955,1.353c0.89,0.351,2.199,0.442,3.156,0.452c0.729,0.004,1.741-0.008,2.405-0.302
		c0.382-0.167,0.652-0.787,1.054-0.903c0.571-0.163,1.383,0.146,1.955,0.301c0.469,0.128,1.041,0.452,1.502,0.603
		c0.709,0.228,1.665,0.656,2.406,0.6c0.585-0.044,1.238-0.594,1.802-0.75c0.573-0.161,1.374-0.181,1.956-0.302
		c0.686-0.144,1.581-0.405,2.255-0.602c0.729-0.21,1.692-0.499,2.406-0.75c0.685-0.245,1.572-0.642,2.254-0.902
		c0.491-0.189,1.165-0.404,1.652-0.602C527.909,262.799,528.406,262.377,528.851,262.362z"/>
	<path id="lake_walen" fill="#CCD3DB" d="M600.599,306.423c0.896-0.016,2.083,0.147,2.974,0.213c0.83,0.062,1.938,0.282,2.766,0.215
		c0.655-0.057,1.477-0.438,2.127-0.533c0.728-0.105,1.712-0.119,2.445-0.107c0.798,0.016,1.866,0.348,2.655,0.215
		c0.55-0.094,1.162-0.608,1.701-0.743c0.37-0.095,0.903-0.191,1.277-0.106c0.432,0.096,0.841,0.655,1.275,0.742
		c0.504,0.103,1.188-0.189,1.701-0.215c0.986-0.044,2.312,0.228,3.294,0.107c0.462-0.055,1.041-0.299,1.488-0.426
		c0.351-0.096,0.883-0.095,1.17-0.318c0.26-0.203,0.334-0.695,0.536-0.957c0.216-0.288,0.723-0.513,0.847-0.85
		c0.159-0.42,0.11-1.095-0.104-1.49c-0.231-0.419-0.85-0.739-1.277-0.955c-0.596-0.3-1.468-0.531-2.127-0.639
		c-1.131-0.183-2.68-0.159-3.825-0.107c-1.059,0.049-2.454,0.531-3.508,0.425c-0.604-0.062-1.329-0.485-1.914-0.638
		c-0.504-0.132-1.184-0.271-1.699-0.318c-0.606-0.055-1.432-0.133-2.02,0c-0.585,0.13-1.227,0.711-1.808,0.85
		c-1.025,0.245-2.454,0.092-3.509,0.107c-0.35,0.005-0.822,0.049-1.17,0c-0.46-0.064-1.043-0.292-1.488-0.424
		c-0.512-0.155-1.204-0.337-1.7-0.533c-0.692-0.271-1.515-0.884-2.232-1.061c-0.682-0.172-1.655,0.061-2.339-0.107
		c-0.513-0.126-1.074-0.646-1.594-0.743c-0.5-0.095-1.2,0.005-1.701,0.107c-0.563,0.113-1.234,0.582-1.805,0.637
		c-0.418,0.039-0.986-0.085-1.383-0.214c-0.34-0.109-0.713-0.466-1.063-0.531c-0.346-0.064-0.817,0.075-1.168,0.106
		c-0.766,0.066-1.796,0.357-2.553,0.213c-0.278-0.053-0.594-0.297-0.848-0.424c-0.387-0.191-0.881-0.475-1.277-0.639
		c-0.186-0.076-0.442-0.165-0.636-0.214c-0.629-0.148-1.486-0.256-2.13-0.318c-0.73-0.072-1.712-0.172-2.442-0.107
		c-0.586,0.052-1.41,0.124-1.914,0.424c-0.289,0.173-0.512,0.604-0.746,0.852c-0.092,0.097-0.238,0.21-0.318,0.318
		c-0.208,0.288-0.402,0.729-0.531,1.062c-0.084,0.218-0.299,0.528-0.213,0.743c0.097,0.237,0.518,0.302,0.743,0.426
		c0.537,0.294,1.243,0.718,1.807,0.957c0.587,0.245,1.397,0.511,2.02,0.637c0.69,0.138,1.639,0.132,2.339,0.211
		c0.67,0.078,1.57,0.166,2.229,0.32c0.59,0.138,1.342,0.445,1.914,0.637c0.671,0.223,1.546,0.59,2.233,0.743
		c0.783,0.176,1.866,0.188,2.656,0.318c0.453,0.075,1.049,0.202,1.49,0.318c0.712,0.19,1.64,0.51,2.34,0.744
		c0.801,0.272,1.833,0.755,2.656,0.957c0.688,0.169,1.631,0.308,2.337,0.318C599.187,306.645,599.99,306.432,600.599,306.423z"/>
	<path id="lake_constance_west" fill="#CCD3DB" d="M526.295,96.105c0.15-1.526,3.262-1.516,4.51-2.405
		c1.404-1,2.937-2.746,4.206-3.909c0.898-0.818,1.989-2.047,3.011-2.706c1.321-0.853,3.462-1.289,4.81-2.104
		c1.483-0.896,3.519-2.188,4.51-3.608c0.486-0.703,1.028-1.86,0.903-2.708c-0.233-1.535-1.852-3.175-3.009-4.208
		c-1.383-1.237-3.813-2.055-5.41-3.006c-1.013-0.601-2.232-1.629-3.31-2.105c-0.939-0.417-2.346-0.536-3.307-0.903
		c-0.756-0.288-1.982-0.516-2.406-1.202c-0.283-0.461-0.182-1.295,0-1.804c0.242-0.662,0.917-1.415,1.502-1.804
		c0.787-0.52,2.072-0.806,3.006-0.9c0.992-0.102,2.353,0.029,3.311,0.298c1.164,0.331,2.51,1.295,3.607,1.804
		c1.245,0.579,3.054,1.058,4.208,1.805c1.234,0.796,2.229,3.809,3.608,3.306c0.246-0.089,0.182-0.611,0.109-0.864
		c-0.087-0.308-0.448-0.599-0.674-0.825c-0.351-0.352-0.914-0.713-1.278-1.052c-0.467-0.437-1.009-1.092-1.465-1.541
		c-0.329-0.326-0.794-0.73-1.127-1.054c-0.322-0.311-0.76-0.715-1.053-1.052c-0.11-0.127-0.271-0.295-0.338-0.452
		c-0.07-0.158-0.103-0.392-0.113-0.563c-0.013-0.17-0.023-0.404,0.036-0.563c0.067-0.173,0.227-0.38,0.379-0.489
		c0.462-0.338,1.28-0.875,1.802-0.638c0.057,0.024-0.413-0.302,0.077,0.187c0.486,0.488,1.605,1.822,2.405,2.479
		c0.445,0.368,1.141,0.72,1.617,1.054c0.542,0.384,1.238,0.94,1.764,1.352c0.809,0.634,1.755,1.675,2.668,2.142
		c0.416,0.213,1.055,0.279,1.502,0.414c0.486,0.146,1.146,0.328,1.618,0.523c0.269,0.115,0.611,0.304,0.86,0.452
		c0.387,0.227,0.856,0.6,1.241,0.827c0.386,0.224,0.9,0.531,1.318,0.677c0.052,0.019,0.13,0.021,0.185,0.037
		c0.271,0.084,0.617,0.242,0.864,0.377c0.272,0.147,0.62,0.372,0.861,0.563c0.32,0.254,0.674,0.671,0.98,0.938
		c0.432,0.381,1.054,0.842,1.502,1.204c0.282,0.225,0.639,0.55,0.938,0.752c0.215,0.144,0.512,0.32,0.752,0.414
		c0.606,0.239,1.467,0.395,2.104,0.526c0.479,0.098,1.146,0.12,1.616,0.262c0.465,0.141,1.115,0.343,1.466,0.675
		c0.351,0.332,0.491,1.02,0.75,1.427c0.334,0.524,0.983,1.089,1.242,1.654c0.089,0.188,0.172,0.469,0.151,0.677
		c-0.02,0.194-0.095,0.499-0.263,0.602c-0.255,0.15-0.684-0.064-0.978-0.075c-0.496-0.018-1.157-0.018-1.652,0
		c-0.634,0.023-1.507-0.054-2.105,0.15c-0.308,0.104-0.586,0.522-0.9,0.6c-0.44,0.11-1.151,0.132-1.505-0.15
		c-0.277-0.224-0.188-0.826-0.374-1.129c-0.27-0.433-0.828-0.857-1.205-1.202c-0.283-0.26-0.681-0.583-0.979-0.829
		c-0.445-0.366-1.028-0.875-1.502-1.202c-0.366-0.252-0.868-0.579-1.275-0.75c-0.388-0.164-0.989-0.164-1.354-0.377
		c-0.221-0.128-0.409-0.432-0.601-0.604c-0.386-0.338-0.869-1.226-1.354-1.053c-0.196,0.072-0.167,0.469-0.153,0.677
		c0.026,0.314,0.334,0.667,0.38,0.979c0.067,0.493-0.101,1.158-0.153,1.654c-0.038,0.383-0.11,0.894-0.152,1.278
		c-0.026,0.27-0.174,0.648-0.075,0.9c0.103,0.253,0.445,0.463,0.678,0.604c0.391,0.234,0.997,0.371,1.428,0.527
		c0.45,0.161,1.05,0.383,1.503,0.525c0.4,0.126,0.959,0.227,1.35,0.377c0.632,0.237,1.37,0.837,2.03,0.977
		c0.574,0.121,1.377,0.027,1.954-0.074c0.583-0.103,1.303-0.467,1.879-0.602c0.6-0.141,1.415-0.277,2.03-0.3
		c1.017-0.04,2.458-0.207,3.381,0.225c0.534,0.253,0.966,0.983,1.353,1.429c0.286,0.326,0.615,0.804,0.903,1.128
		c0.553,0.619,1.535,1.239,1.953,1.956c0.296,0.507,0.326,1.329,0.527,1.879c0.187,0.51,0.833,1.115,0.752,1.654
		c-0.038,0.268-0.368,0.541-0.602,0.675c-0.358,0.213-0.939,0.274-1.353,0.301c-0.813,0.055-1.912-0.052-2.709-0.227
		c-0.516-0.112-1.159-0.412-1.652-0.6c-0.614-0.237-1.415-0.6-2.027-0.829c-0.402-0.148-0.946-0.318-1.354-0.45
		c-0.562-0.184-1.297-0.485-1.879-0.603c-0.534-0.107-1.265-0.087-1.804-0.15c-1.086-0.124-2.529-0.335-3.607-0.525
		c-0.769-0.136-1.778-0.438-2.556-0.527c-0.984-0.11-2.313-0.072-3.306-0.073c-1.423-0.005-3.317,0.103-4.736,0.073
		c-0.812-0.015-1.916-0.338-2.707-0.148c-0.304,0.073-0.622,0.386-0.9,0.528c-0.31,0.153-0.754,0.298-1.054,0.449
		c-0.301,0.15-1.951,1.096-2.779,1.577c-0.499,0.289-1.148,0.703-1.654,0.977c-0.798,0.435-1.941,0.865-2.708,1.352
		c-0.581,0.371-1.184,1.126-1.803,1.429c-0.167,0.083-0.427,0.087-0.602,0.15c-0.447,0.159-0.974,0.546-1.431,0.677
		c-0.564,0.164-1.372,0.113-1.95,0.225c-0.599,0.115-1.399,0.283-1.954,0.525c-0.585,0.256-1.199,0.925-1.806,1.129
		c-0.729,0.243-1.794,0.11-2.554,0.225c-0.525,0.078-1.215,0.5-1.73,0.375C526.811,96.708,526.263,96.423,526.295,96.105z"/>
	<path id="lake_constance_main" fill="#CCD3DB" d="M593.95,93.431c-0.013-0.054-0.016-0.127-0.009-0.184
		c0.031-0.458,0.327-1.044,0.3-1.502c-0.026-0.427-0.674-0.988-0.452-1.352c0.31-0.508,1.38-0.449,1.952-0.3
		c0.498,0.128,0.884,0.845,1.353,1.052c0.502,0.221,1.256,0.292,1.806,0.3c1.046,0.02,2.623,0.181,3.457-0.45
		c0.548-0.415,0.752-1.436,0.903-2.105c0.24-1.056,0.345-2.543,0.152-3.607c-0.126-0.675-0.525-1.531-0.905-2.105
		c-0.611-0.933-1.682-2.011-2.555-2.706c-0.488-0.391-1.223-0.818-1.804-1.054c-0.173-0.07-0.483-0.003-0.604-0.15
		c-0.165-0.214-0.142-0.672,0-0.902c0.16-0.257,0.646-0.292,0.904-0.452c0.575-0.357,1.718-0.683,1.802-1.353
		c0.037-0.288-0.326-0.661-0.601-0.753c-0.354-0.12-0.832,0.259-1.203,0.3c-0.406,0.046-0.952,0.017-1.359-0.034
		c-0.453-0.052-1.088-0.101-1.49-0.318c-0.239-0.128-0.504-0.403-0.637-0.637c-0.194-0.344-0.294-0.882-0.322-1.275
		c-0.033-0.546,0.163-1.265,0.215-1.809c0.084-0.859,0.256-2.007,0.213-2.869c-0.045-0.907-0.108-2.171-0.533-2.977
		c-0.352-0.68-1.278-1.251-1.807-1.807c-0.62-0.655-1.396-1.579-2.017-2.232c-0.531-0.555-1.257-1.274-1.807-1.806
		c-0.475-0.455-1.104-1.057-1.594-1.49c-0.188-0.166-0.422-0.414-0.641-0.533c-0.381-0.205-0.952-0.347-1.381-0.424
		c-0.534-0.097-1.267-0.046-1.807-0.107c-0.387-0.043-0.9-0.11-1.276-0.214c-0.594-0.162-1.405-0.395-1.914-0.744
		c-0.351-0.242-0.67-0.744-0.957-1.061c-0.349-0.383-0.736-0.989-1.168-1.275c-0.479-0.315-1.271-0.434-1.809-0.637
		c-0.868-0.331-2.028-0.771-2.871-1.168c-0.785-0.372-1.833-0.888-2.549-1.382c-0.765-0.527-1.605-1.457-2.34-2.02
		c-0.673-0.518-1.671-1.069-2.337-1.594c-0.676-0.531-1.513-1.312-2.129-1.914c-0.467-0.458-1.017-1.141-1.488-1.594
		c-0.456-0.439-1.277-0.834-1.593-1.383c-0.165-0.282-0.252-0.741-0.214-1.062c0.054-0.454,0.75-0.939,0.637-1.383
		c-0.079-0.309-0.571-0.481-0.85-0.637c-0.448-0.254-1.173-0.344-1.594-0.638c-0.466-0.32-0.886-0.976-1.274-1.383
		c-0.283-0.291-0.801-0.582-0.957-0.957c-0.108-0.265-0.021-0.671,0-0.956c0.032-0.481,0.037-1.144,0.21-1.594
		c0.143-0.365,0.431-0.836,0.747-1.064c0.35-0.256,0.949-0.38,1.381-0.424c0.7-0.073,1.652,0.044,2.339,0.213
		c0.734,0.181,1.695,0.553,2.338,0.957c0.8,0.508,1.819,1.331,2.337,2.125c0.275,0.421,0.372,1.116,0.533,1.596
		c0.127,0.381,0.189,0.948,0.424,1.275c0.186,0.259,0.596,0.449,0.852,0.639c0.348,0.257,0.809,0.606,1.17,0.85
		c0.496,0.337,1.128,0.873,1.699,1.063c0.73,0.243,1.833-0.06,2.551,0.214c0.449,0.168,0.996,0.568,1.276,0.955
		c0.292,0.409,0.244,1.181,0.532,1.596c0.372,0.541,1.092,1.13,1.7,1.383c0.592,0.245,1.521,0,2.127,0.213
		c0.607,0.213,1.443,0.635,1.807,1.168c0.274,0.403,0.11,1.151,0.318,1.595c0.345,0.74,1.011,1.689,1.703,2.125
		c0.58,0.368,1.566,0.355,2.229,0.533c0.77,0.204,1.785,0.532,2.551,0.743c0.73,0.204,1.755,0.329,2.445,0.638
		c0.628,0.282,1.345,0.885,1.912,1.276c0.644,0.439,1.495,1.033,2.127,1.486c0.838,0.599,1.946,1.398,2.766,2.021
		c0.614,0.467,1.374,1.168,2.017,1.594c0.396,0.259,0.957,0.542,1.383,0.744c0.531,0.252,1.256,0.543,1.807,0.744
		c0.692,0.252,1.758,0.292,2.339,0.743c0.475,0.369,0.64,1.272,1.061,1.701c0.372,0.378,1.049,0.662,1.49,0.957
		c0.323,0.217,0.882,0.399,1.062,0.744c0.16,0.312,0.02,0.819,0,1.17c-0.048,0.897-0.23,2.081-0.317,2.975
		c-0.07,0.701-0.345,1.646-0.215,2.338c0.053,0.28,0.231,0.64,0.425,0.85c0.329,0.358,0.979,0.577,1.381,0.852
		c0.396,0.27,0.949,0.606,1.274,0.957c0.439,0.473,0.788,1.286,1.17,1.807c0.415,0.567,0.934,1.375,1.489,1.807
		c0.528,0.41,1.432,0.634,2.019,0.956c1.154,0.634,2.606,1.635,3.721,2.338c0.701,0.444,1.66,1.006,2.338,1.488
		c1.293,0.922,2.883,2.332,4.145,3.295c0.817,0.624,1.896,1.468,2.765,2.018c1.073,0.68,2.582,1.458,3.722,2.02
		c0.845,0.417,2.042,0.825,2.869,1.275c0.87,0.475,1.882,1.354,2.764,1.805c0.7,0.363,1.665,0.847,2.445,0.957
		c1.016,0.144,2.386-0.181,3.402-0.318c0.705-0.098,1.641-0.275,2.339-0.426c1.028-0.22,2.382-0.585,3.399-0.851
		c1.057-0.276,2.443-0.732,3.508-0.957c0.629-0.132,1.49-0.532,2.127-0.319s2.174-0.089,2.975,0.319
		c0.422,0.216,0.724,0.837,1.063,1.168c0.663,0.648,1.616,1.439,2.337,2.02c0.619,0.5,1.413,1.239,2.128,1.596
		c0.622,0.309,1.569,0.419,2.231,0.637c0.871,0.288,1.99,0.804,2.871,1.061c1.001,0.294,2.364,0.632,3.4,0.743
		c0.951,0.104,2.231-0.02,3.189,0c0.733,0.017,1.741-0.107,2.442,0.107c0.821,0.25,1.747,0.991,2.445,1.487
		c0.571,0.406,1.331,0.972,1.806,1.49c0.531,0.573,1.113,1.445,1.49,2.127c0.674,1.213,1.141,3.035,1.808,4.252
		c0.351,0.643,1.048,1.367,1.382,2.02c0.513,0.996,0.955,2.435,1.275,3.508c0.199,0.66,0.237,1.609,0.533,2.232
		c0.359,0.763,1.053,1.697,1.701,2.231c0.491,0.409,1.375,0.606,1.914,0.956c0.834,0.545,1.751,1.531,2.551,2.127
		c0.55,0.414,1.246,1.093,1.912,1.275c0.555,0.15,1.34-0.075,1.914-0.107c0.608-0.032,1.423-0.016,2.019-0.106
		c1.04-0.156,2.351-0.86,3.402-0.851c0.493,0.003,1.197,0.128,1.593,0.426c0.928,0.693,1.424,2.301,2.018,3.295
		c0.422,0.7,0.844,1.728,1.383,2.338c0.239,0.272,0.662,0.531,0.956,0.743c0.561,0.403,1.262,1.053,1.914,1.275
		c0.456,0.155,1.061,0,1.596,0.107c0.534,0.107,1.471,0.733,2.018,1.168c0.547,0.435,1.037,1.277,1.594,1.701
		c0.773,0.585,1.96,1.153,2.871,1.487c0.798,0.294,1.933,0.464,2.765,0.638c0.667,0.14,1.585,0.207,2.23,0.426
		c0.677,0.227,1.601,0.582,2.127,1.061c0.582,0.532,0.813,1.689,1.382,2.233c0.475,0.453,1.271,1.197,1.914,1.062
		c0.511-0.107,0.607-1.125,1.062-1.383c0.502-0.283,1.338-0.146,1.912-0.214c0.766-0.09,1.801-0.495,2.551-0.318
		c0.337,0.08,0.681,0.432,0.957,0.639c0.4,0.297,0.973,0.666,1.276,1.061c0.468,0.614,0.922,1.582,1.061,2.338
		c0.103,0.535-0.284,1.296-0.105,1.809c0.126,0.364,0.525,0.755,0.85,0.956c0.312,0.193,0.821,0.224,1.17,0.32
		c0.673,0.187,1.649,0.256,2.231,0.637c0.38,0.251,0.731,0.778,0.957,1.17c0.272,0.472,0.488,1.176,0.637,1.7
		c0.179,0.625,0.545,1.487,0.426,2.125c-0.076,0.41-0.464,0.865-0.742,1.168c-0.218,0.236-0.554,0.522-0.852,0.639
		c-0.896,0.351-2.227,0.322-3.189,0.32c-0.899-0.003-2.081-0.229-2.976-0.32c-0.669-0.069-1.563-0.133-2.231-0.213
		c-0.897-0.105-2.108-0.67-2.974-0.426c-0.72,0.204-1.303,1.166-1.914,1.596c-0.514,0.361-1.427,0.562-1.809,1.061
		c-0.298,0.394-0.351,1.105-0.425,1.596c-0.123,0.821,0.287,2.033-0.103,2.762c-0.336,0.625-1.248,1.15-1.916,1.383
		c-0.692,0.24-1.714,0.123-2.445,0.105c-1.057-0.023-2.485-0.045-3.508-0.318c-0.813-0.217-2.059-0.486-2.55-1.168
		c-0.325-0.441-0.291-1.268-0.215-1.807c0.104-0.72,0.87-1.508,0.957-2.231c0.069-0.579,0.126-1.538-0.318-1.914
		c-0.27-0.228-0.822-0.046-1.171,0c-0.488,0.064-1.164,0.179-1.593,0.424c-0.547,0.315-1.067,1.017-1.491,1.49
		c-0.649,0.73-1.371,1.822-2.02,2.552c-0.601,0.674-1.431,1.548-2.124,2.127c-0.477,0.396-1.115,0.974-1.701,1.169
		c-0.819,0.271-2.011,0.179-2.871,0.107c-0.778-0.066-1.832-0.226-2.55-0.533c-0.571-0.244-1.219-0.779-1.703-1.168
		c-0.545-0.44-1.326-1.004-1.699-1.596c-0.394-0.622-0.342-1.723-0.744-2.338c-0.186-0.283-0.541-0.612-0.852-0.743
		c-0.351-0.15-0.938-0.289-1.274-0.107c-0.478,0.259-0.609,1.107-0.851,1.595c-0.204,0.409-0.468,0.959-0.639,1.381
		c-0.218,0.531-0.337,1.317-0.636,1.809c-0.435,0.712-1.24,1.53-1.915,2.019c-0.601,0.436-1.521,0.853-2.23,1.062
		c-1.173,0.346-2.828,0.37-4.042,0.531c-0.957,0.127-2.229,0.308-3.187,0.426c-0.574,0.068-1.338,0.252-1.916,0.213
		c-1.05-0.072-2.432-0.445-3.399-0.852c-1.243-0.52-2.713-1.585-3.829-2.337c-1.151-0.779-2.599-1.937-3.721-2.766
		c-1.429-1.056-3.389-2.402-4.781-3.506c-0.462-0.366-0.977-0.991-1.488-1.275c-0.47-0.259-1.493-0.039-1.702-0.531
		c-0.195-0.459,0.599-1.011,0.745-1.487c0.141-0.463,0.38-1.144,0.212-1.596c-0.267-0.721-1.279-1.271-1.914-1.7
		c-0.59-0.401-1.512-0.697-2.124-1.063c-1.005-0.597-2.283-1.496-3.191-2.231c-0.983-0.794-2.095-2.081-3.084-2.871
		c-0.571-0.458-1.467-0.897-2.019-1.382c-0.61-0.536-1.308-1.377-1.807-2.019c-0.351-0.455-0.855-1.057-1.062-1.595
		c-0.231-0.602-0.346-1.481-0.318-2.125c0.029-0.688,0.264-1.599,0.532-2.231c0.207-0.489,0.737-1.005,0.956-1.49
		c0.097-0.213,0.225-0.513,0.214-0.744c-0.027-0.514-0.347-1.167-0.635-1.594c-0.474-0.692-1.337-1.441-2.02-1.914
		c-0.848-0.582-2.164-1.031-3.084-1.488c-1.315-0.656-3.095-1.487-4.358-2.233c-1.029-0.608-2.34-1.518-3.295-2.232
		c-0.765-0.571-1.666-1.473-2.445-2.02c-0.819-0.576-2.029-1.158-2.87-1.701c-0.33-0.211-0.761-0.501-1.062-0.743
		c-0.404-0.326-0.89-0.823-1.274-1.168c-0.538-0.484-1.203-1.199-1.807-1.596c-0.442-0.288-1.136-0.482-1.596-0.744
		c-0.736-0.419-1.602-1.171-2.338-1.594c-0.704-0.404-1.69-0.859-2.442-1.168c-0.625-0.257-1.477-0.563-2.129-0.744
		c-0.597-0.166-1.438-0.201-2.016-0.424c-0.933-0.364-1.985-1.239-2.873-1.701c-0.683-0.357-1.607-0.818-2.338-1.062
		c-0.682-0.23-1.713-0.175-2.339-0.533c-0.606-0.348-1.068-1.237-1.593-1.7c-0.443-0.394-1.099-0.844-1.597-1.168
		c-0.587-0.383-1.394-0.853-2.015-1.169c-0.561-0.285-1.336-0.611-1.916-0.852c-0.82-0.338-2.055-0.527-2.764-1.061
		c-0.507-0.386-0.806-1.27-1.277-1.701c-0.526-0.484-1.55-0.732-2.019-1.275C594.31,94.611,594.073,93.931,593.95,93.431z"/>
</g>
</svg>
