<?xml version="1.0" encoding="utf-8"?>
<!-- Generator: Adobe Illustrator 16.0.0, SVG Export Plug-In . SVG Version: 6.00 Build 0)  -->
<!DOCTYPE svg PUBLIC "-//W3C//DTD SVG 1.1//EN" "http://www.w3.org/Graphics/SVG/1.1/DTD/svg11.dtd">
<svg version="1.1" id="Calque_1" xmlns="http://www.w3.org/2000/svg" xmlns:xlink="http://www.w3.org/1999/xlink" x="0px" y="0px"
	 width="595.279px" height="496.062px" viewBox="-0.004 172.914 595.279 496.062"
	 enable-background="new -0.004 172.914 595.279 496.062" xml:space="preserve">
<path id="BE" fill="#999999" d="M204.976,542.337l3.874-5.021l6.586-5.122l4.881-2.684l7.317,0.731l4.879-2.929l-4.637-7.316
	l0.488-9.517l0.488-7.318l0.733-3.659l4.146-2.683l5.124,2.195l2.195-0.487l4.147,0.243l0.733-6.831l-0.244-10.978l-3.661-3.662
	l-5.853-5.122l-3.904-2.439l-6.864-2.544c-0.819-0.854-2.855-0.91-3.454-1.926c-0.58-0.987-0.343-2.727,0-3.818
	c0.42-1.335,2.094-2.547,2.675-3.82c0.392-0.858,0.959-2.13,0.764-3.055c-0.269-1.278-2.023-2.304-2.673-3.436
	c-0.92-1.607-2.042-3.897-2.291-5.731c-0.141-1.027-0.147-2.546,0.38-3.438c0.715-1.202,3.107-1.469,3.82-2.672
	c0.529-0.893,0.278-2.405,0.381-3.438c0.126-1.259-0.012-2.997,0.381-4.201c0.414-1.271,1.752-2.597,2.291-3.817
	c0.484-1.093,0.706-2.708,1.146-3.818c0.567-1.428,1.472-3.282,2.293-4.584c0.695-1.105,1.686-2.581,2.671-3.437l-1.034-0.667
	l-3.171-1.952c0,0-3.66-2.928-3.416-3.904c0.243-0.976,1.22-3.171,1.22-3.171l2.684-3.66l0.976,2.195l3.415,2.684l1.236,1.982
	c0.875-2.007,4.036-3.213,5.349-4.966c0.306-0.41,0.845-1.022,0.763-1.527c-0.129-0.8-1.559-1.179-1.91-1.91
	c-0.447-0.935-0.323-2.4-0.38-3.438c-0.057-1.029,0.396-2.484,0-3.438c-0.496-1.196-1.943-2.389-3.056-3.055
	c-1.026-0.614-2.625-1.091-3.819-1.146c-1.166-0.056-2.864,0.091-3.819,0.763c-0.546,0.386-0.508,1.71-1.146,1.91
	c-1.075,0.341-2.416-1.046-3.436-1.528c-0.694-0.329-1.529-1.052-2.292-1.146c-1.048-0.13-2.465,0.349-3.436,0.763
	c-0.379,0.163-0.741,0.682-1.146,0.764c-1.254,0.259-3.021-0.264-4.2-0.764c-1.817-0.768-3.428-3.374-5.348-3.818
	c-0.678-0.156-1.605,0.512-2.291,0.382c-0.656-0.125-1.418-0.692-1.91-1.146c-0.723-0.669-1.91-2.673-1.867-2.659l-5.834-0.422
	l1.464-11.223l-0.488-8.051l-2.195-8.051l2.439-3.171l5.61-3.661l-0.976-4.878l-4.878-5.367l-3.172,1.951l-12.441,5.855
	l-13.417,2.196l-6.099,0.244l-9.461,2.795l-1.029-0.6l-5.367-1.708l-7.212-3.659l-7.18-6.7c0,0.031,1.208-2.632,1.751-3.764
	c0.509-1.059,1.242-2.443,1.751-3.502c0.543-1.13,1.035-2.765,1.751-3.793c0.638-0.914,1.765-1.92,2.627-2.627
	c0.977-0.8,2.431-1.666,3.502-2.334c1.034-0.645,2.4-1.528,3.503-2.043c0.927-0.436,2.209-0.945,3.21-1.168
	c0.944-0.211,2.252-0.161,3.21-0.292c0.97-0.132,3.183-0.596,3.183-0.596l4.008-1.895l1.29-6.665l0.43-5.16l-1.29-4.517l-9.029-6.02
	l-9.676-5.16l-2.365-1.505l-8.17,0.215l-11.611,1.504l-7.095,3.439l-6.021,3.011l-4.73,2.15l-4.944,2.149l-0.86-5.161l3.009-3.87
	l1.506-5.805l-0.644-8.171l-2.417-5.213l8.007-0.913l4.515-2.903l6.559-5.805l3.764-3.656l8.17,0.859l4.3-0.43l2.149-3.44
	l0.43-3.439l8.17-1.289l5.161-6.881l4.299-9.459l0.861-4.73l10.319,2.15l18.06-1.29l-1.72-9.031l5.161-3.009l-0.43-6.021l2.15-4.73
	l5.16-0.859h5.589l4.301,4.729l8.169,1.721l9.891-0.431l8.601-1.719l7.31-3.871l7.311-6.021l5.16-6.879l2.149,0.86l1.292,6.88
	l6.02-0.429l12.471,1.289l7.31,0.859l8.601,3.011l4.73-3.44l4.299-5.16h9.03l2.479,0.28l-3.123,4.772l-2.797,2.473l-2.041,3.01
	l-3.225,2.15l-8.386,2.366l-3.979,1.504l-3.439,2.904l-0.967,3.977l-0.86,1.504l-1.935,0.646l-5.914,1.29l-5.052,0.645l-0.108,4.301
	l-4.836,4.084l-5.483,3.333l-8.279,3.764l-7.417,3.009l1.183,9.461l2.258,2.687l4.622,1.398l1.827,0.861l1.612,6.557l1.252,2.374
	c0.594-0.493,1.686-0.682,2.31-1.131c0.524-0.379,0.992-1.161,1.526-1.527c0.931-0.639,2.532-0.854,3.438-1.528
	c0.848-0.631,1.806-1.735,2.291-2.673c0.435-0.839,0.3-2.234,0.764-3.056c0.321-0.563,0.918-1.313,1.53-1.528
	c0.979-0.344,2.406,0.51,3.437,0.382c0.971-0.121,2.208-0.653,3.055-1.146c0.774-0.45,1.555-1.404,2.292-1.909
	c0.973-0.667,2.336-1.484,3.437-1.91c0.932-0.361,2.451-0.155,3.176-0.816l0.412,5.761l0.43,5.589l4.193,6.45l-2.58,5.052
	l-2.258,0.646l-3.976-0.216l-5.59-0.323l-2.794,3.655l-2.044,3.01v3.979l-0.967,2.903l-6.341,0.429l-3.119,0.323l-1.935-1.613
	l-3.978-0.646l-1.505,1.076l-0.214,3.117l1.396,3.333l1.828,3.978l3.117,5.268l0.753,0.968l1.184-0.86l4.193-3.01l3.333-1.827
	l3.333-0.967l-0.107,3.226l-0.323,2.472l1.827,2.472l3.87-0.216l3.979-1.504l2.364-1.827l0.538-2.903l-1.505-2.149l-1.397-2.58
	l0.643-1.505l5.161-2.474l4.299-2.473l4.193-2.796l2.903-5.481l1.505-6.02l0.753-4.623l4.193-1.289l2.902-1.075l3.547,0.753
	l3.549,2.258l3.01,2.902l7.417,1.398l7.418,0.43l4.193-1.29l5.052-4.3l3.225-4.299l0.107-3.119l-0.537-3.977l-3.224-3.117
	l-3.439-1.721l-2.582-2.687l-2.256-3.333l-3.548-6.988l0.215-1.721l-0.752-2.794l-2.903-1.612l-1.936-1.506l-2.58,0.108l-2.58-0.537
	v-3.762l-1.182-3.656l0.536-3.225l-0.108-2.258l-0.324-2.58l3.333,0.323l10.43,1.074l2.794-0.429l4.193-1.719l4.192-1.396
	l2.797-1.614l4.729,0.537l1.503,1.827l3.871,5.375l2.473,6.128l4.729,0.645l4.837-0.538l4.947-2.364l1.827-1.184l2.526,3.886
	c0.809-0.685,1.765-1.813,2.616-2.499c0.658-0.529,1.684-1.038,2.31-1.604c0.555-0.5,0.999-1.473,1.62-1.89
	c0.426-0.286,1.111-0.485,1.619-0.541c1.54-0.168,3.585,0.514,5.132,0.541c1.137,0.018,2.646-0.23,3.78-0.27
	c1.052-0.038,2.537,0.404,3.5,0l-0.629,1.445l-1.065,4.562l0.074,7.525l0.609,4.789v1.521l-0.305,3.346l1.52,5.777l3.65,7.603
	l2.736,3.648l2.281,3.345l0.457,2.433l-0.913,6.994v4.561l3.041,4.562l1.367,3.497l-1.367,3.497l-2.585,2.888l-1.217,3.497
	l1.064,5.17l0.304,2.888l0.152,3.953l-0.76,3.345l-0.607,6.233l-1.521,3.801l3.041,2.89l3.192,3.8l1.216,2.738l0.457,4.104
	l1.064,4.409l4.409-0.607l4.865,0.303l3.345,1.063l0.911,4.105l1.824,5.169l0.306,3.192l-2.13,4.409l-2.888,4.712l-1.064,4.713
	l-1.521,2.889l-3.193,3.345l-5.17-0.607l-2.736,2.583l-3.648,1.976l-3.953,3.192l2.433,1.825l1.368,2.889l-0.153,6.994l-1.672,3.497
	l-4.865-0.152l0.607,9.882l1.826,5.017l1.367,2.888l8.058,5.778l7.604,4.408l8.664,7.299l5.474,6.538l4.942,7.825l4.031-1.882
	l9.137-2.688l6.239-0.904l2.794,0.42l10.75,1.505l3.868,1.076l9.675,7.74l8.601,3.011l7.525-3.225l4.085-1.291l7.74-0.215l4.73-0.86
	l6.448,2.58l6.666,4.301l8.816-6.45l4.729-4.301l4.998-2.096l5.481-2.363l0.973-1.564l7.897,5.003l1.889,1.89l2.036,2.625
	l5.645-4.461l7.851,3.753l-2.904,5.492l-0.323,2.688l0.646,7.312l2.472,4.622l1.613,5.268l0.214,4.192v4.193l-1.182,2.256
	l-2.581,1.612l-3.547-0.429l-3.548-1.289l-4.301-0.754l-2.903-0.321l0.322,2.688l0.859,4.837l1.292,3.334l2.693,4.42l-5.38,6.008
	l-3.442,4.73l-3.223,5.589l-1.721,7.741v7.311l-1.076,4.299l-4.946,4.515l-4.299,3.012l-4.946,2.579l-1.936,3.225l-10.319,6.449
	l-6.665,2.365l-14.189,3.655l-7.312,1.29l-4.945-4.73l-8.815-1.72l-8.171-5.375l-6.233-2.365l-5.377,0.43l-6.881-3.225l-5.16-2.797
	l-4.301,0.217l-3.869,2.58l-5.376,2.795l-6.02,2.365l-1.075,13.76l-9.675,4.73l-3.01,4.085l-7.31,6.021l-7.955,1.289l-13.115,0.645
	l-17.847,15.482l-20.427,16.77l-6.234-9.462l-10.75-7.738l-7.741-1.507l-3.656,3.656l-3.008,5.589l-4.086,5.16l-6.882-0.214h-6.233
	l-3.226,1.721l-2.582,2.578l6.236,4.087l-1.504,2.365l-3.657,3.869l-5.807,2.795l-6.02,1.936l-11.18-3.655l-6.665-1.505
	c0,0-10.965,2.795-11.825,3.225c-0.859,0.429-9.245,6.881-9.245,6.881l-6.236,4.3l-6.234,3.87l-3.871-1.505l-1.935-3.009v-8.815
	l-5.591-1.078l-5.374,3.441l-3.654,2.796l-1.076,6.021l-1.719,5.376l-4.085,2.795l-8.086-0.174l1.496-3.983l-1.95-8.782l0.243-3.903
	l-4.636-4.149v-10.244l2.44-4.391l-0.244-4.637l-2.928-4.146l-0.244-4.878l1.708-2.195c0,0,4.146,0,5.122-0.734
	c0.977-0.731,3.415-3.414,3.415-3.414s-0.244-4.634,0-6.098s-0.732-7.319-0.732-7.319l4.393-5.61l3.17-4.636l-0.487-7.806
	l-0.977-8.538L204.976,542.337z M339.6,272.161l1.827-1.56l2.203-1.29l1.773,0.27l2.096,2.096l-0.107,1.505l-1.236,2.58
	c0,0-1.772,1.827-1.99,1.882c-0.214,0.053-3.008,1.236-3.008,1.236l-1.881-0.161l-0.968-1.344v-2.902L339.6,272.161z"/>
<path id="lake_neuchatel" fill="#CCD3DB" d="M19.053,437.644c1.803,0.859,4.667,1.107,6.621,0.696
	c0.827-0.174,1.71-0.976,2.44-1.394c0.733-0.419,1.677-1.036,2.44-1.394c0.809-0.379,1.999-0.626,2.789-1.046
	c0.793-0.424,1.708-1.219,2.439-1.742c0.733-0.522,1.708-1.221,2.439-1.743c0.733-0.522,1.62-1.372,2.44-1.741
	c1.272-0.574,3.137-0.986,4.53-1.045c0.739-0.032,1.728,0.147,2.44,0.347c0.766,0.215,1.691,0.774,2.439,1.047
	c1.027,0.371,2.405,0.886,3.486,1.044c1.138,0.168,2.773,0.439,3.834,0c0.819-0.339,1.506-1.425,2.091-2.092
	c1.132-1.287,2.383-3.215,3.486-4.53c0.997-1.19,2.72-2.479,3.486-3.832c0.537-0.951,0.42-2.592,1.044-3.486
	c0.599-0.857,1.876-1.58,2.789-2.092c1.473-0.828,3.733-1.306,5.228-2.091c2.336-1.229,5.278-3.208,7.32-4.878
	c1.372-1.125,2.906-2.95,4.182-4.183c1.544-1.49,3.785-3.292,5.229-4.878c1.152-1.27,2.352-3.242,3.485-4.532
	c0.682-0.776,1.852-1.585,2.439-2.439c0.583-0.849,0.72-2.358,1.393-3.137c1.54-1.777,4.673-2.872,6.624-4.183
	c2.239-1.505,5.231-3.516,7.318-5.228c1.775-1.454,3.911-3.652,5.578-5.229c2.202-2.082,5.148-4.852,7.32-6.97
	c1.269-1.239,2.756-3.123,4.182-4.182c1.238-0.922,3.148-1.75,4.53-2.439c1.339-0.669,3.327-1.199,4.53-2.091
	c1.011-0.75,2.102-2.081,2.789-3.136c0.689-1.06,1.28-2.657,1.743-3.834c0.362-0.923,0.885-2.157,1.044-3.135
	c0.202-1.238,0.379-2.986,0-4.183c-0.382-1.217-1.352-2.816-2.439-3.485c-0.631-0.387-1.702-0.33-2.439-0.349
	c-1.156-0.03-2.696,0.155-3.834,0.349c-0.852,0.145-1.936,0.824-2.789,0.697c-0.603-0.09-1.25-0.686-1.744-1.045
	c-0.897-0.655-1.824-1.887-2.787-2.439c-0.573-0.329-1.439-0.591-2.09-0.698c-0.929-0.151-2.232-0.252-3.139,0
	c-1.175,0.325-2.479,1.402-3.485,2.091c-0.982,0.674-2.137,1.789-3.135,2.439c-1.293,0.843-3.36,1.433-4.53,2.439
	c-0.396,0.342-0.702,0.999-1.045,1.394c-0.29,0.336-0.646,0.854-1.044,1.045c-0.855,0.41-2.201,0.204-3.138,0.35
	c-1.054,0.163-2.544,0.193-3.485,0.697c-0.913,0.489-1.6,1.834-2.439,2.439c-0.758,0.546-1.877,1.18-2.789,1.393
	c-0.914,0.216-2.245-0.297-3.135,0c-0.496,0.167-1,0.704-1.395,1.045c-0.558,0.486-1.31,1.144-1.742,1.744
	c-0.546,0.758-1.069,1.911-1.394,2.789c-0.299,0.809-0.592,1.933-0.697,2.787c-0.166,1.35,0,3.172,0,4.531
	c0,0.628,0.218,1.504,0,2.092c-0.333,0.905-1.215,2.037-2.091,2.44c-0.38,0.174-0.976,0-1.394,0c-0.627,0-1.465-0.039-2.091,0
	c-0.842,0.052-2.193-0.248-2.789,0.349c-0.596,0.595-0.296,1.946-0.348,2.787c-0.052,0.834,0.243,1.988,0,2.789
	c-0.109,0.361-0.349,0.901-0.697,1.045c-0.494,0.204-1.21-0.348-1.742-0.348c-0.534,0-1.25,0.144-1.743,0.348
	c-0.697,0.289-1.463,0.976-2.091,1.395c-0.628,0.418-1.369,1.176-2.092,1.394c-0.501,0.152-1.27-0.224-1.741,0
	c-1.344,0.635-2.12,2.752-3.138,3.834c-1.268,1.346-3.291,2.809-4.531,4.183c-1.751,1.94-4.228,4.556-5.229,6.971
	c-0.282,0.683-0.018,1.778-0.347,2.439c-0.53,1.059-2.097,1.83-2.79,2.79c-0.682,0.947-1.157,2.475-1.742,3.486
	c-0.567,0.977-1.427,2.22-2.091,3.135c-1.092,1.507-2.16,4.065-3.833,4.878c-0.66,0.321-1.744-0.223-2.44,0
	c-0.857,0.274-1.806,1.104-2.44,1.743c-0.897,0.907-1.585,2.535-2.439,3.486c-0.744,0.828-1.866,1.82-2.789,2.439
	c-0.971,0.652-2.627,0.95-3.486,1.744c-0.447,0.414-0.689,1.247-1.044,1.743c-0.564,0.783-1.414,1.755-2.092,2.439
	c-0.782,0.79-1.748,2.048-2.789,2.44c-0.488,0.182-1.231-0.112-1.742,0c-1.462,0.32-3.354,1.168-4.532,2.092
	c-0.527,0.412-0.972,1.221-1.392,1.742c-0.936,1.155-2.638,2.436-3.137,3.833c-0.246,0.688-0.279,1.764,0,2.442
	C17.885,436.796,18.519,437.388,19.053,437.644z"/>
<path id="lake_biel" fill="#CCD3DB" d="M162.465,320.718c0.083-0.4,0.705-0.649,1.044-0.872c0.392-0.256,0.98-0.481,1.395-0.697
	c0.683-0.354,1.629-0.781,2.265-1.22c0.854-0.588,1.88-1.531,2.612-2.265c0.735-0.733,1.487-1.926,2.266-2.614
	c0.707-0.623,1.909-1.117,2.614-1.744c0.36-0.318,0.877-0.767,1.044-1.22c0.308-0.834,0.701-2.416,0-2.962
	c-0.34-0.266-1.104,0.03-1.394,0.348c-0.463,0.508-0.083,1.632-0.35,2.266c-0.202,0.481-0.675,1.025-1.043,1.395
	c-1.109,1.108-2.929,2.196-4.183,3.137c-0.628,0.47-1.47,1.09-2.091,1.568c-0.737,0.566-2.091,1.045-2.439,1.917
	c-0.35,0.871-2.203,1.703-3.311,2.09c-0.894,0.313-2.193,0.4-3.139,0.35c-0.479-0.025-1.187-0.052-1.566-0.35
	c-0.276-0.215-0.331-0.751-0.522-1.045c-0.224-0.342-0.841-0.637-0.872-1.045c-0.024-0.304,0.318-0.646,0.522-0.872
	c0.351-0.388,0.955-0.764,1.395-1.045c0.65-0.416,1.561-0.904,2.266-1.22c1.115-0.5,2.708-0.909,3.832-1.394
	c0.967-0.416,2.356-0.863,3.138-1.568c0.506-0.456,0.892-1.318,1.22-1.917c0.359-0.657,0.563-1.692,1.043-2.266
	c0.533-0.632,1.536-1.182,2.266-1.568c0.644-0.34,1.644-0.494,2.266-0.871c1.013-0.615,2.073-1.831,2.962-2.615
	c0.888-0.784,1.925-2.041,2.961-2.614c0.811-0.449,2.091-0.562,2.962-0.872c0.642-0.228,1.52-0.505,2.091-0.871
	c0.717-0.458,1.478-1.328,2.091-1.917c0.586-0.562,1.534-1.199,1.918-1.917c0.251-0.471,0.001-1.339,0.348-1.743
	c0.398-0.464,1.421-0.34,1.918-0.697c0.815-0.584,1.454-1.835,2.09-2.614c0.517-0.632,1.172-1.507,1.743-2.092
	c0.776-0.795,1.951-1.707,2.788-2.439c0.836-0.732,1.85-1.844,2.789-2.44c0.771-0.49,1.923-0.925,2.789-1.22
	c0.612-0.209,1.595-0.937,2.09-0.522c0.604,0.504-0.008,1.845-0.174,2.614c-0.095,0.437-0.231,1.057-0.522,1.395
	c-0.43,0.494-1.427,0.611-1.917,1.045c-1.01,0.895-2.003,2.456-2.614,3.659c-0.451,0.884-0.761,2.187-1.047,3.137
	c-0.292,0.984-0.396,2.399-0.87,3.311c-0.411,0.79-1.457,1.504-1.917,2.265c-0.79,1.304-1.251,3.334-1.918,4.706
	c-0.367,0.757-0.941,1.728-1.394,2.439c-0.583,0.917-1.486,2.057-2.091,2.962c-0.652,0.978-1.146,2.612-2.09,3.31
	c-0.481,0.354-1.368,0.292-1.918,0.524c-0.667,0.28-1.621,0.665-2.091,1.22c-0.576,0.683-0.676,1.975-1.044,2.789
	c-0.321,0.703-0.656,1.737-1.22,2.265c-0.461,0.431-1.299,0.737-1.917,0.872c-0.767,0.166-1.851-0.181-2.614,0
	c-0.568,0.133-1.259,0.542-1.743,0.87c-0.581,0.396-1.123,1.234-1.743,1.568c-0.903,0.488-2.338,0.537-3.31,0.872
	c-0.754,0.258-1.674,0.826-2.439,1.045c-0.661,0.189-1.579,0.396-2.265,0.349c-0.544-0.038-1.325-0.171-1.743-0.524
	C163.058,322.63,162.297,321.518,162.465,320.718z"/>
<path id="lake_thun" fill="#CCD3DB" d="M383.246,487.48c0.541,0.657,0.102,2.047,0.523,2.787c0.275,0.482,1.002,0.828,1.394,1.221
	c0.393,0.393,0.963,0.9,1.22,1.394c0.2,0.381,0.516,0.997,0.349,1.393c-0.282,0.67-1.396,1.008-2.092,1.222
	c-0.802,0.242-1.961,0.313-2.79,0.173c-0.669-0.112-1.417-0.771-2.09-0.871c-1.038-0.152-2.454,0.145-3.484,0.349
	c-1.071,0.213-2.463,0.666-3.485,1.044c-0.967,0.358-2.136,1.159-3.137,1.395c-1.172,0.275-2.835,0.444-4.007,0.175
	c-0.753-0.174-1.608-0.817-2.266-1.22c-0.705-0.432-1.578-1.109-2.267-1.568c-0.723-0.481-1.651-1.2-2.438-1.568
	c-0.795-0.372-1.933-0.692-2.79-0.872c-0.927-0.193-2.229-0.079-3.138-0.349c-0.445-0.132-1.015-0.423-1.392-0.695
	c-0.422-0.303-0.854-0.854-1.219-1.221c-0.316-0.312-0.861-0.642-1.047-1.047c-0.284-0.618-0.148-1.583-0.176-2.264
	c-0.018-0.47,0.29-1.197,0-1.569c-0.396-0.509-1.512-0.234-2.091-0.521c-0.599-0.298-1.259-0.933-1.743-1.394
	c-0.401-0.386-0.813-1.017-1.221-1.395c-0.574-0.532-1.463-1.099-2.09-1.567c-0.629-0.471-1.38-1.238-2.092-1.568
	c-0.633-0.294-1.584-0.377-2.266-0.523c-0.521-0.114-1.271-0.096-1.744-0.348c-0.65-0.35-1.237-1.201-1.741-1.744
	c-0.708-0.759-1.614-1.806-2.267-2.612c-0.328-0.406-0.785-0.939-1.045-1.395c-0.336-0.589-0.54-1.495-0.871-2.091
	c-0.218-0.392-0.497-0.971-0.871-1.22c-0.581-0.387-1.621-0.256-2.267-0.523c-0.454-0.188-1.154-0.438-1.394-0.87
	c-0.354-0.642-0.168-1.729,0-2.441c0.164-0.682,0.945-1.397,1.047-2.091c0.129-0.893-0.445-2.063-0.523-2.961
	c-0.078-0.886-0.362-2.15,0-2.962c0.284-0.644,1.04-1.599,1.743-1.568c1.293,0.051,2.091,2.181,2.961,3.136
	c1.174,1.287,2.545,3.186,3.835,4.356c0.859,0.779,2.098,1.743,3.136,2.266c0.932,0.469,2.455,0.451,3.311,1.045
	c0.979,0.681,1.581,2.311,2.44,3.137c0.324,0.312,0.98,0.489,1.22,0.871c0.335,0.539-0.088,1.629,0.35,2.092
	c0.477,0.508,1.599,0.313,2.264,0.524c1.075,0.335,2.44,0.976,3.484,1.393c1.045,0.418,2.533,0.793,3.486,1.394
	c1.501,0.946,3.271,2.6,4.355,4.008c0.685,0.89,1.376,2.25,1.743,3.311c0.189,0.553-0.012,1.455,0.35,1.918
	c0.636,0.809,2.129,1.18,3.136,1.393c0.868,0.183,2.075,0.065,2.962,0c1.054-0.077,2.429-0.562,3.484-0.523
	c0.964,0.033,2.183,0.563,3.137,0.697c0.884,0.122,2.077,0.262,2.963,0.173c1.023-0.101,2.286-0.939,3.31-0.87
	c0.679,0.047,1.462,0.615,2.092,0.87C382.025,486.995,382.889,487.044,383.246,487.48z"/>
<path id="lake_brienz" fill="#CCD3DB" d="M405.028,480.684c-0.059,0.708,0.192,1.765,0.696,2.266
	c0.388,0.385,1.215,0.391,1.742,0.524c0.778,0.191,1.815,0.564,2.614,0.523c0.875-0.048,1.967-0.569,2.789-0.873
	c1.121-0.413,2.604-1.008,3.66-1.567c0.768-0.41,1.754-1.032,2.438-1.567c1.137-0.892,2.475-2.285,3.486-3.312
	c0.597-0.607,1.192-1.641,1.916-2.09c0.325-0.201,0.854-0.245,1.221-0.349c0.732-0.21,1.708-0.489,2.44-0.697
	c0.732-0.21,1.747-0.377,2.439-0.698c0.855-0.396,1.818-1.237,2.612-1.741c0.774-0.49,2.07-0.835,2.614-1.569
	c0.385-0.521,0.127-1.582,0.523-2.092c0.474-0.608,1.55-0.928,2.266-1.22c0.857-0.352,2.131-0.462,2.961-0.871
	c0.639-0.314,1.321-1.007,1.917-1.394c0.607-0.397,1.458-0.866,2.091-1.22c0.674-0.378,1.605-0.818,2.267-1.22
	c1.026-0.627,2.273-1.655,3.31-2.267c0.504-0.296,1.33-0.458,1.743-0.871c0.413-0.412,0.965-1.165,0.871-1.743
	c-0.082-0.512-0.808-0.908-1.22-1.221c-0.429-0.323-1.075-0.655-1.568-0.87c-0.454-0.2-1.104-0.35-1.569-0.523
	c-0.635-0.238-1.428-0.717-2.09-0.872c-0.765-0.18-1.828-0.173-2.614-0.175c-0.838-0.001-1.977-0.032-2.788,0.175
	c-0.839,0.215-1.835,0.843-2.613,1.22c-0.842,0.407-1.961,0.958-2.789,1.394c-0.95,0.503-2.321,1.039-3.135,1.744
	c-0.847,0.729-1.592,2.07-2.267,2.961c-0.473,0.626-1.065,1.489-1.569,2.093c-0.591,0.711-1.396,1.653-2.09,2.263
	c-1.154,1.018-2.995,1.989-4.183,2.963c-1.057,0.869-2.139,2.434-3.31,3.137c-0.709,0.427-1.918,0.427-2.613,0.871
	c-0.966,0.62-1.716,2.074-2.613,2.791c-0.898,0.713-2.314,1.347-3.312,1.916c-0.833,0.475-1.929,1.139-2.789,1.568
	c-0.815,0.407-2.125,0.59-2.788,1.219C405.385,479.612,405.067,480.218,405.028,480.684z"/>
</svg>
