<?xml version="1.0" encoding="utf-8"?>
<!-- Generator: Adobe Illustrator 14.0.0, SVG Export Plug-In  -->
<!DOCTYPE svg PUBLIC "-//W3C//DTD SVG 1.1//EN" "http://www.w3.org/Graphics/SVG/1.1/DTD/svg11.dtd" [
	<!ENTITY ns_flows "http://ns.adobe.com/Flows/1.0/">
]>
<svg version="1.1"
	 xmlns="http://www.w3.org/2000/svg" xmlns:xlink="http://www.w3.org/1999/xlink" xmlns:a="http://ns.adobe.com/AdobeSVGViewerExtensions/3.0/"
	 x="0px" y="0px" viewBox="-121.899 -17.231 545 388"
	 enable-background="new -121.899 -17.231 545 388" xml:space="preserve">
<defs>
</defs>
<polygon fill="#00ACDF" stroke="#FFFFFF" stroke-width="0.25" points="205.599,35.912 197.962,35.912 177.058,47.971 167.41,56.414 
	169.019,64.855 173.038,68.071 177.546,68.989 187.51,61.639 204.393,50.383 209.217,44.354 "/>
<path fill="#00ACDF" stroke="#FFFFFF" stroke-width="0.25" d="M0.157,136.81l3.713,6.869c0,0,5.294,0.828,6.517,0
	c1.221-0.828,25.563-15.534,25.563-15.534l15.389,4.491l21.937-21.153l8.283-7.834l9.625-9.625c0,0,23.78-22.419,25.408-22.833
	c1.627-0.414,11.986-9.356,13.208-10.185c0.8-0.541,2.238-1.007,11.728-8.003l11.404-11.179l11.405-7.453
	c0,0,7.737-9.937,8.959-10.766c1.221-0.828,4.48-9.108,4.48-9.108l-8.146-7.868l-9.772,1.243L154.561,2.9
	c0,0,1.222-3.312-4.886-1.655c-6.11,1.655-11.135,5.702-11.135,5.702l-13.302,6.305l-15.068,7.453l-9.367,4.968l0.406,11.594
	l-2.444,4.968l-10.18,3.728c0,0-2.037,8.28-3.259,8.695c-1.221,0.414-8.553,3.312-8.553,3.312s-4.073,4.969-6.923,8.696
	c-2.852,3.726-8.96,12.42-11.811,14.905c-2.851,2.485-6.496,9.229-6.496,9.229s-3.687,6.505-4.908,7.333
	C45.413,98.961,36.045,106,36.045,106s-11.243,12.239-12.953,13.158c-1.709,0.92-11.077,7.13-13.928,9.616
	C6.313,131.256,0.157,136.81,0.157,136.81z"/>
<polygon id="1002" name="District de Glâne" fill="#4D4D4D" stroke="#FFFFFF" stroke-width="0.25" points="172.043,205.952 164.961,195.508 164.514,195.101 
	163.869,193.899 158.401,185.835 160.713,178.668 147.997,166.414 146.84,159.477 148.227,144.679 148.497,144.352 133.994,135.909 
	126.363,141.92 111.333,154.638 112.722,163.655 126.132,169.898 119.889,176.141 98.848,192.327 90.062,213.367 69.483,221.692 
	68.096,227.933 66.939,271.866 76.419,267.705 86.593,270.941 88.378,265.578 87.288,264.236 92.837,255.449 100.005,250.131 
	105.092,241.344 113.184,243.888 118.502,247.125 132.375,247.357 132.587,248.049 132.406,247.457 133.993,246.663 134.455,244.12 
	135.149,236.72 133.993,232.328 133.857,230.3 133.762,230.014 133.824,229.794 133.761,228.859 133.761,224.466 140.236,220.536 
	144.397,219.148 155.728,222.384 173.555,205.438 "/>
<polygon id="1007" name="District de la Veveyse" fill="#4D4D4D" stroke="#FFFFFF" stroke-width="0.25" points="87.288,264.236 92.837,255.449 100.005,250.131 
	105.092,241.344 113.184,243.888 118.502,247.125 132.375,247.357 135.844,258.687 140.237,256.605 144.63,264.698 155.96,274.64 
	148.098,284.583 155.96,291.75 159.428,292.675 155.728,301.231 156.653,308.167 157.116,314.873 155.96,318.11 152.723,321.809 
	151.335,331.057 145.555,337.3 141.855,319.959 115.034,306.548 110.873,309.786 107.635,309.092 108.791,304.467 96.306,318.11 
	84.05,312.33 81.739,307.705 77.114,305.162 74.57,299.843 81.739,290.132 85.438,292.675 94.456,291.519 96.536,294.756 
	112.953,278.802 112.953,276.49 104.166,279.265 90.293,267.935 "/>
<path id="1003" name="District de la Gruyère" fill="#4D4D4D" stroke="#FFFFFF" stroke-width="0.25" d="M300.239,232.79l-3.931-7.63l-11.561-11.793l-6.475,3.469
	l-4.162,1.388l-7.168-6.013l-0.925-11.329l-4.625-6.705l-0.924-6.243l-9.018,8.786l-10.001-2.954l-0.967,0.396l-15.955-7.399
	l-10.866,0.23l-6.013-2.773c0,0-5.779,4.393-7.167,4.623c-1.389,0.231-9.711,5.319-9.711,5.319l-6.475,7.63l-10.743,3.647
	l-17.827,16.946l-11.331-3.236l-4.161,1.388l-6.475,3.931v4.393l0.231,3.469l1.156,4.393l-0.694,7.399l-0.462,2.543l-1.587,0.794
	l3.438,11.23l4.393-2.082l4.393,8.093l11.33,9.942l-7.862,9.942l7.862,7.168l3.468,0.925l-3.7,8.556l0.926,6.936l0.463,6.706
	l-1.156,3.237l-3.237,3.699l-1.388,9.248l-5.78,6.243l-0.114-0.533l-0.58,3.771c0,0-0.462,1.388,0,5.549s0.462,9.479,0.462,9.479
	l18.615-6.655l12.369-19.703l13.872-4.394l18.036-3.931l7.167-12.948l16.186-16.417l7.168,2.081l2.08,2.774
	c0,0,10.176-9.018,10.405-9.942c0.23-0.924,3.236,3.007,3.236,3.007l15.029-7.862l8.323-13.872l9.48,2.543l8.093-6.474l0.462-17.111
	l-2.544-10.173L300.239,232.79z"/>
<path id="1006" name="District de la Singine" fill="#4D4D4D" stroke="#FFFFFF" stroke-width="0.25" d="M305.919,193.929l1.156-5.78l-20.348-5.318l0.462-17.341
	l-1.387-13.179l-1.156-7.399l9.249-21.966l6.937-10.405l-12.717-12.485l6.705-8.093l10.867,6.937l6.243-10.405l-1.156-13.18
	l-18.729-1.387l-17.11-0.694l-13.642-5.318l-4.856-2.081L244.818,78.72l-5.028,1.912l-14.798,20.81l-3.217,4.595l0.442,0.028
	l11.792,11.561l3.006,15.029l2.543,5.087l5.318,6.706c0,0-1.156,8.092-2.08,8.786c-0.925,0.693,0.924,7.63,0.924,7.63l9.249,9.943
	l1.156,11.329l-3.468,7.861l-9.207,3.768l10.001,2.954l9.018-8.786l0.924,6.243l4.625,6.705l0.925,11.329l7.168,6.013l4.162-1.388
	l6.475-3.469l10.313,10.522l11.088-1.751l6.475,9.249l6.938-6.474l2.774-24.973L305.919,193.929z"/>
<path id="1005" name="District du Lac" fill="#4D4D4D" stroke="#FFFFFF" stroke-width="0.25" d="M243.489,57.741c-0.23-2.775,3.007-12.718,3.007-12.718l-0.463-12.717
	l-4.624-6.012l11.098-5.318c0,0,4.856-5.087,4.625-6.706c-0.231-1.618-6.012-14.104-6.012-14.104l-32.37,15.26l-20.348,2.543
	l-14.567,0.231l-0.693,11.33l-0.925,7.167l0.644,7.925l15.102-8.713h7.637l3.618,8.442l-4.824,6.029l-16.441,10.961l-1.109,7.032
	l-9.481,12.254l2.291,10.096l-3.193,4.151l5.108,2.235l-0.636,6.656l1.303-0.467l12.932-4.636l3.931,5.549l5.78-4.624l10.174,6.012
	l5.624,0.363l1.299-0.21l3.02-4.313l14.798-20.81l5.028-1.912l10.957-12.151l-16.679,1.577
	C239.097,68.146,243.72,60.517,243.489,57.741z"/>
<path id="1004" name="District de la Sarine" fill="#4D4D4D" stroke="#FFFFFF" stroke-width="0.25" d="M180.931,103.769l-4.494,8.077l-5.55,3.237l-9.479,14.567l1.85,3.237
	l-8.555,3.931l-6.475,7.862l-1.387,14.798l1.156,6.937l12.716,12.255l-2.312,7.167l13.642,20.116l12.255-4.161l6.475-7.63
	c0,0,8.322-5.088,9.711-5.319c1.388-0.23,7.167-4.623,7.167-4.623l6.013,2.773l10.866-0.23l15.955,7.399l10.174-4.163l3.468-7.861
	l-1.156-11.329l-9.249-9.943c0,0-1.849-6.937-0.924-7.63c0.924-0.693,2.08-8.786,2.08-8.786l-5.318-6.706l-2.543-5.087
	l-3.006-15.029l-11.792-11.561l-7.168-0.462l-10.174-6.012l-5.78,4.624l-3.931-5.549L180.931,103.769z"/>
<polygon name="part Broye" fill="#4D4D4D" stroke="#FFFFFF" stroke-width="0.25" points="65.553,162.268 59.772,163.424 60.003,163.424 
	46.862,177.782 55.147,182.384 62.546,174.753 65.09,169.436 "/>
<polygon name="part Broye" fill="#4D4D4D" stroke="#FFFFFF" stroke-width="0.25" points="95.148,153.712 90.524,148.626 88.443,149.088 
	77.345,168.511 65.553,172.441 63.934,177.297 67.633,178.916 76.419,174.753 85.437,174.291 97.874,180.869 105.786,162.268 
	103.472,160.418 "/>
<path id="1001" name="District de la Broye" fill="#4D4D4D" stroke="#FFFFFF" stroke-width="0.25" d="M117.345,112.093l8.555-12.023l-6.153-6.469l-7.892-0.176l6.84-4.91
	l-10.724-10.04c-7.386,6.684-16.788,15.547-16.788,15.547l-9.625,9.625l-8.283,7.834l-15.483,14.93l8.312,8.087l-4.945,4.184
	l8.431,5.601l13.679,4.91l4.735-2.63l7.144-3.719l11.33,5.549l6.429-1.129l5.131-3.958l8.786-15.723l0.463-2.312h-10.636
	L117.345,112.093z"/>
<path name="part Broye" fill="#4D4D4D" stroke="#FFFFFF" stroke-width="0.25" d="M177.918,95.517l-0.569-0.25l-9.193,9.509l-4.15-8.94l2.235-9.26
	l-5.428-1.596l-8.941,0.638l4.15-9.26l-3.85-6.578c0,0-1.325-4.058-3.175-6.833c-1.85-2.774-0.756-7.041-0.756-7.041l-6.576-3.041
	l-0.138,0.135c-9.49,6.996-10.928,7.462-11.728,8.003c-0.94,0.638-7.281,6.07-10.9,8.733l21.476,23.225l2.236-0.958l-1.261-4.542
	l3.176-7.911l8.622,9.898l-8.992,10.464l0.701,3.508l4.735-0.351l-0.175,4.56l2.28,6.489l-2.631,3.858l-11.224-0.877l0.877,6.489
	l0.273,5.614l-2.335,8.256l11.84,6.892l6.205-7.534l8.555-3.931l-1.85-3.237l9.479-14.567l5.55-3.237l4.408-7.921l0.086-0.155
	l0.636-6.656L177.918,95.517z"/>
</svg>
