<?xml version="1.0" encoding="utf-8"?>
<!-- Generator: Adobe Illustrator 16.0.0, SVG Export Plug-In . SVG Version: 6.00 Build 0)  -->
<!DOCTYPE svg PUBLIC "-//W3C//DTD SVG 1.1//EN" "http://www.w3.org/Graphics/SVG/1.1/DTD/svg11.dtd">
<svg version="1.1" id="Calque_1" xmlns="http://www.w3.org/2000/svg" xmlns:xlink="http://www.w3.org/1999/xlink" x="0px" y="0px"
	 width="595.279px" height="841.891px" viewBox="0 0 595.279 841.891" enable-background="new 0 0 595.279 841.891"
	 xml:space="preserve">
<path id="ofsnbr2226" fill="#807F7F" d="M364.951,452.956l-9.666,2.33l-2.146,8.32l3.51,3.195l-5.245,7.73l-5.77,13.983
	c-5.226,0-8.417-0.839-13.398-4.94c-3.552-2.926-5.851-5.225-9.4-2.926c-2.679,1.732-5.214,0.144-6.478-1.044
	c-3.137-2.952-6.83-4.562-10.446-6.06c-6.059-2.507-10.913-3.128-15.718-3.128l19.479-21.314l10.063-16.595l-5.413-2.047l1.88-6.477
	l6.269,6.06l4.597-4.18l6.116,1.606l1.464-5.33l12.548,1.327l-0.49,10.753l6.215-5.596l7.693,5.775l4.214-4.938l13.177,11.153
	l7.513-5.901c-0.003,0-1.051,8.536-1.051,8.536c-4.435,3.73-10.051,6.993-12.535,14.206c-0.484,1.407-1.397,1.9-2.157,1.854
	c-1.145-0.074-2.353-1.554-3.483-3.941C365.84,454.425,365.404,453.634,364.951,452.956z"/>
<path id="ofsnbr2221" fill="#807F7F" d="M410.848,602.525c2.119,2.971,3.823,4.975,5.01,7.856
	c1.949,4.736,2.87,7.319,4.123,11.497c1.254,4.178,1.831,6.013,7.104,9.401c1.785,1.148,2.993,4.735,3.43,8.499l15.461-9.019
	l2.416,4.203l13.863-12.254l2.949-7.512l2.485-0.829l4.761-1.587l14.396-16.813l0.806-9.124l1.074-7.688l5.771-5.771l6.842-6.839
	v-15.473l-10.735-13.417l-12.127,0.234l-8.98,0.628l-2.718-13.58l-3.134-3.971l-9.19-1.463l-6.687,7.104l-0.208-9.191l-8.774-2.507
	l-13.162-0.21l0.416-9.191l-15.458,4.596l-5.433,4.597l-7.939,7.312l-3.55-0.417c-0.55,2.639-1.046,6.269-2.092,7.312
	c-1.521,1.521-3.341,1.254-10.027,0.627c-4.789-0.45-10.235,0-14.205,0.627c0,0,4.597,4.806,8.564,8.774
	c3.971,3.97,4.598,5.433,3.552,9.819c-1.562,6.566,1.481,9.694,6.896,11.908c4.596,1.88,6.268,2.715,7.312,9.818
	c1.043,7.104,3.397,11.206,7.994,18.728C404.794,594.355,407.774,597.684,410.848,602.525z"/>
<path id="ofsnbr2230" fill="#989898" d="M405.147,514.704l5.433-4.597l15.458-4.596l-0.416,9.191l13.162,0.21l8.774,2.507
	l0.208,9.191l6.687-7.104l9.19,1.463l3.134,3.971l2.718,13.579l8.98-0.627l12.127-0.234l4.562-11.182l0.268-6.976l-6.974-10.194
	l6.974-4.024l8.051-1.074l-0.803-20.033l5.898-13.862l1.613-10.729l-3.761-12.075l-6.704,4.025l-2.147,5.9l-5.902-5.1
	l-20.033,11.539l-5.098,7.513l-10.912,10.105c-10.573-1.739-18.176,0.943-22.809,8.051l-6.855,12.626l-10.865,3.474L412.6,494.37
	l1.948-11.142l-22.563-14.486l-12.535-4.733l-10.583,13.927l-12.219-11.133l-5.245,7.73l-5.77,13.983
	c5.223,0,11.697,2.04,15.849,6.341c5.853,6.059,7.55,7.786,15.669,9.817c5.016,1.254,8.774,2.298,11.7,6.06
	c1.462,1.881,5.352,8.229,4.807,10.863l3.551,0.417L405.147,514.704z"/>
<path id="ofsnbr2225" fill="#989898" d="M319.736,432.511l-5.413-2.047l-14.415-10.655l-5.2,7.261l2.274,5.9l-5.617,3.188
	l-9.547-4.926l-0.063-6.107l-10.105-3.597l-4.541,10.606l5.172,2.979l-3.974,12.528l11.717,0.633l-0.171,6.844l-3.638,5.089
	l-4.929-1.538l-1.727,5.27c1.828,0.418,5.454,1.717,8.355,3.135c5.475,2.669,7.473,3.349,12.277,3.349l19.479-21.314
	L319.736,432.511z"/>
<path id="ofsnbr2224" fill="#666666" d="M126.296,453.236l8.475,5.765l8.184-11.986l11.49-9.817l11.128-14.253l11.336-13.896
	l6.374-7.217l0.412-16.864l5.278-3.179l2.507,3.551l10.309-3.584l14.135,7.971l10.237-7.104l15.613,0.674l5.488-8.612l6.159-2.03
	l4.286,1.132l-0.626,12.179l7.938,2.09l3.552,0.417l2.66-6.639l0.892-9.239l12.02-0.891l1.505-9.091l5.014-19.017l13.217,18.344
	l4.807-7.317l5.819-1.334l0.184,7.862l20.594-6.184l-4.504-4.306l9.648-10.338l3.513-10.821l6.817-7.123l-12.164-11.562
	c-5.327,4.492-8.549,3.708-12.205,2.488c-4.387-1.463-8.356-0.418-25.697,8.356c-4.532,2.292-6.458,1.365-8.094-0.052
	c-0.441-0.382-0.861-0.8-1.308-1.202c-2.09-1.88-2.09-3.76,1.671-7.103c3.762-3.343,26.323-19.429,32.175-23.608
	c3.687-2.634,7.124-5.517,9.791-8.591l-6.904-6.882l-2.412-16.746l-5.033-12.058l-15.161,10.68l-13.303,12.268l-19.986,8.615
	l-17.094,9.857l-20.539,3.444l-7.271-3.584l-12.535,21.728l1.811,5.712l8.356,6.127l-2.368,10.305l-8.356,8.083l-12.117,3.339
	l-4.456,9.751l-21.45,11.704l-18.942,9.47l-12.256,15.042l-46.798,42.343l15.597,15.907l5.817,7.282L126.296,453.236z"/>
<path id="ofsnbr2229" fill="#666666" d="M276.215,460.206l3.638-5.089l0.171-6.844l-11.717-0.633l3.974-12.528l-5.172-2.979
	l-15.251,8.984l-4.028,0.581c0.393,1.175,1.14,2.282,2.511,3.435c3.97,3.343,6.269,5.224,6.06,9.818
	c-0.165,3.637-0.193,10.682-2.925,14.207c2.464,0.173,4.387,0.627,5.85,0.208c3.394-0.968,6.669-6.244,10.237-5.432l1.727-5.27
	L276.215,460.206z"/>
<path id="ofsnbr2228" fill="#807F7F" d="M184.375,485.527l-3.142-6.231l-5.215-6.422l-17.34,6.687l0.836-22.771l-16.561-9.773
	l-8.184,11.986l-8.475-5.765l-6.774,0.255l-5.817-7.282c-1,1.041-1.903,1.955-2.562,2.669c-1.745,1.891-3.697,3.849-6.298,6.408
	c-2.113,2.08-4.34,5.168-6.406,7.1l-6.46,18.058l-8.914,8.354l3.898,11.978l-9.471,13.094l13.65,3.897l26.741,21.729l-17.271,27.3
	l17.062,12.257c3.121-3.979,6.544-8.585,8.984-13.788c1.567-3.342,2.56-6.476,3.499-9.349l-12.064-7.991l4.544-6.075l10.707,6.284
	c2.716-4.597,9.609-10.864,11.907-13.998s3.979-5.851,6.269-5.641c4.597,0.417,7.312,0.209,7.104-3.344
	c-0.136-2.294,0.627-7.521,5.015-12.534c2.256-2.579,6.685-6.269,10.444-11.699c3.033-4.382,5.642-7.312,11.282-8.774
	c5.641-1.462,8.984-2.09,10.175-1.092l-4.687-7.911L184.375,485.527z"/>
<path id="ofsnbr2227" fill="#989898" d="M246.159,415.05c2.298,3.343,2.842,10.577,2.842,16.007
	c0,3.56-1.916,8.416-1.174,10.644c0.393,1.175,1.14,2.282,2.511,3.435c3.97,3.343,6.269,5.224,6.06,9.818
	c-0.165,3.637-0.193,10.682-2.925,14.207c-1.693-0.121-3.344-1.688-5.642-3.134c-5.233-3.294-8.146-2.09-14.415,7.521
	c-4.087,6.264-10.236,11.072-25.487,17.967c-7.415,3.353-8.367,2.908-12.39-0.465l-4.687-7.911l-6.478,2.39l-3.142-6.231
	l-5.215-6.422l-17.34,6.687l0.836-22.771l-16.561-9.773l11.49-9.817l11.128-14.253l11.336-13.896l6.374-7.217l0.412-16.864
	l5.278-3.179l2.507,3.551l10.309-3.584l14.135,7.971l10.237-7.104l15.613,0.674l5.488-8.612l6.159-2.03l4.286,1.132l-0.626,12.179
	l7.938,2.09l-8.356,12.116l-4.86-2.252l-8.72,3.833l3.201,7.88C244.869,411.586,244.864,413.163,246.159,415.05z"/>
<path id="ofsnbr2223" fill="#807F7F" d="M246.159,415.05c2.298,3.343,2.842,10.577,2.842,16.007
	c0,3.56-1.916,8.416-1.174,10.644l4.028-0.581l15.251-8.984l4.541-10.606l10.105,3.597l0.063,6.107l9.547,4.926l5.617-3.188
	l-2.274-5.9l5.2-7.261l14.415,10.655l1.88-6.477l2.09-6.477l7.73-8.356l9.401-20.474l-4.175-5.635l19.442-12.002l-7.421-6.437
	l6.991-9.567l-5.396-1.224l3.229-4.07l-5.354-1.039l-5.464,8.176l-1.999-1.917l-20.594,6.184l-0.185-7.862l-5.818,1.334
	l-4.807,7.317l-13.217-18.344l-5.014,19.017l-1.505,9.091l-12.02,0.891l-0.892,9.239l-2.66,6.639l-3.552-0.417l-8.356,12.116
	l-4.861-2.252l-8.719,3.833l3.201,7.88C244.869,411.586,244.864,413.163,246.159,415.05z"/>
<path id="ofsnbr2222" fill="#989898" d="M425.396,267.64l-16.132-19.077c6.181-5.347,12.658-10.762,15.73-12.77
	c5.431-3.552,7.729-4.806,11.07-10.238c0.654-1.06,1.23-1.958,1.715-2.755c2.567,0.601,4.811,1.655,6.019,3.382l1.837,17.935
	c-2.558,1.795-5.407,4.113-9.15,7.554c-1.345,1.234-2.181,2.109-2.436,2.944c-0.407,1.326,0.655,2.556,3.48,4.995
	c4.596,3.969,7.548,3.192,10.862,0c1.086-1.044,2.18-2.05,3.296-3.029l4.043,5.033l-11.663,9.858l2.361,7.472l-7.654,11.683
	l-4.59,4.708l0.062-18.222l-6.674-3.872l-1.979,4.971l-3.876-4.244C423.095,271.929,424.314,269.797,425.396,267.64z
	 M365.785,389.806l20.885-23.294l13.31-21.5l-10.51-5.321l14.498-20.977l3.932-5.689l-2.487-4.992l3.003-5.641l5.875,2.057
	l4.749-6.376l-5.11-15.3c1.681-1.404,3.225-2.964,4.641-4.635l-5.623-7.241l-6.881,7.244L394.6,261.477
	c-4.069,3.493-8.145,6.708-11.824,10.374l12.562,14.252l-7.893,9.512l0.257,12.587l6.354,5.014
	c-0.135,0.666-0.269,1.323-0.398,1.966c-0.71,3.454-2.205,7.129-4.602,11.347l-12.704,2.48l-6.087-7.507l-11.37,8.618l-8.142-7.743
	l-6.817,7.123l-3.513,10.821l3.027,3.835l-0.71,4.55l5.354,1.039l3.732,0.483l15.921-18.261l11.316,9.172
	c-1.548,2.024-3.229,4.159-5.049,6.424c-2.596,3.232-4.177,5.432-4.387,8.148l-10.061-6.088l-9.308,5.416l-6.991,9.567l7.421,6.437
	l-19.442,12.002l4.175,5.635l-9.401,20.474l-7.729,8.356l-2.091,6.477l6.269,6.06l4.597-4.18l6.116,1.606l1.464-5.329l12.548,1.326
	l0.923-25.749L365.785,389.806z"/>
<g>
	<path id="ID_x5F_9151_Lac_de_Neuchâtel" fill="#CCD3DA" d="M358.348,293.246c10.027-6.477,15.669-11.282,20.894-17.549
		c1.126-1.353,2.309-2.622,3.534-3.846c3.681-3.666,7.755-6.881,11.824-10.374c0.872-0.744,1.741-1.505,2.606-2.286
		c2.726-2.451,7.304-6.519,12.058-10.628c6.181-5.347,12.658-10.762,15.73-12.77c5.431-3.552,7.729-4.806,11.07-10.238
		c0.654-1.06,1.23-1.958,1.715-2.755c1.986-3.28,2.362-4.814-0.25-8.735c-2.385-3.575-3.544-5.041-4.604-5.333
		c-0.8-0.219-1.54,0.229-2.708,0.946c-2.715,1.672-4.181,2.089-9.401-0.418c-5.221-2.507-6.883-2.768-11.908,1.253
		c-8.354,6.687-9.819,6.896-11.907,7.312c-2.09,0.418-4.181,0.626-7.313,3.134c-1.566,1.253-3.393,2.612-5.116,3.969
		c-1.724,1.358-3.345,2.716-4.493,3.97c-2.299,2.507-3.553,3.134-3.761,6.477c-0.104,1.671-0.364,3.134-1.07,4.414
		c-0.703,1.28-1.854,2.376-3.734,3.317c-3.761,1.88-11.489,6.476-17.339,12.952c-5.853,6.477-12.953,14.207-15.461,19.43
		c-0.928,1.933-2.226,3.806-3.788,5.615c-2.667,3.074-6.104,5.957-9.791,8.591c-5.852,4.179-28.413,20.265-32.175,23.608
		c-3.761,3.343-3.761,5.223-1.671,7.103c0.445,0.402,0.865,0.819,1.308,1.202c1.636,1.417,3.562,2.343,8.094,0.052
		c17.341-8.774,21.312-9.819,25.697-8.356c3.656,1.221,6.878,2.004,12.205-2.488c1.063-0.897,2.213-2.004,3.463-3.362
		C347.298,301.772,348.32,299.722,358.348,293.246z"/>
	<path id="ID_x5F_9294_Lac_de_Morat_x2F_Murtensee" fill="#CCD3DA" d="M445.635,244.117c4.438-3.114,8-4.648,13.832-7.697
		c2.434-1.41,3.688-1.956,5.02-1.492c0.839,0.294,1.706,0.989,2.917,2.119c3.134,2.925,4.74,5.083,0.838,7.521
		c-6.749,4.218-11.862,7.893-16.553,12.013c-1.116,0.979-2.21,1.984-3.296,3.029c-3.314,3.192-6.268,3.969-10.862,0
		c-2.825-2.438-3.889-3.669-3.48-4.995c0.255-0.835,1.091-1.71,2.436-2.944C440.228,248.229,443.078,245.912,445.635,244.117z"/>
	<path id="ID_x5F_9757_Le_Léman_x2F_Genfersee" fill="#CCD3DA" d="M127.582,595.967c-2.524,0.842-3.788,4.979-3.367,8.134
		c0.56,4.209-0.211,6.178-2.104,9.544c-1.896,3.367-4.914,7.855-9.26,11.924c-1.103,1.028-3.878,2.439-4.492,1.824
		c-0.815-0.812-0.703-1.404,0.704-3.931c1.82-3.277-0.98-6.757-0.565-9.681c1.264-8.84,1.532-11.699,3.934-15.152
		c3.07-4.413,3.926-6.029,3.643-11.502c-0.257-5.047,0.283-6.596,1.052-7.579c3.145-4.009,6.594-8.647,9.049-13.891
		c1.578-3.367,2.578-6.523,3.525-9.418s1.841-5.523,3.209-7.839c2.735-4.632,9.681-10.943,11.996-14.102s4.012-5.893,6.312-5.683
		c4.631,0.421,7.366,0.211,7.155-3.367c-0.134-2.312,0.632-7.576,5.051-12.627c2.275-2.599,6.734-6.313,10.522-11.786
		c3.059-4.412,5.683-7.365,11.365-8.838c5.683-1.475,9.05-2.105,10.253-1.1c4.051,3.396,5.008,3.845,12.476,0.468
		c15.363-6.945,21.559-11.789,25.675-18.1c6.313-9.682,9.25-10.895,14.521-7.576c2.314,1.456,3.979,3.034,5.682,3.155
		c2.486,0.176,4.42,0.632,5.893,0.212c3.42-0.977,6.722-6.291,10.312-5.473c1.842,0.422,5.499,1.729,8.418,3.157
		c5.519,2.689,7.53,3.374,12.371,3.374s9.729,0.625,15.83,3.149c3.644,1.511,7.366,3.131,10.522,6.104
		c1.275,1.196,3.828,2.799,6.523,1.053c3.577-2.315,5.894,0,9.471,2.946c5.018,4.133,8.237,4.979,13.499,4.979
		s11.785,2.056,15.965,6.386c5.894,6.104,7.604,7.848,15.785,9.893c5.051,1.262,8.84,2.314,11.785,6.103
		c1.474,1.896,5.394,8.29,4.841,10.943c-0.553,2.658-1.053,6.314-2.104,7.366c-1.532,1.532-3.368,1.263-10.103,0.632
		c-4.819-0.454-10.312,0-14.312,0.631c-0.625,0.099-0.421,1.263-1.263,2.525c-0.842,1.264-3.577,0.422-7.156,0.422
		c-3.578,0-6.751-0.558-9.95-1.929c-1.474-0.631-2.888-1.439-6.675-1.439c-3.789,0-5.473-0.21-9.05-2.314
		c-3.578-2.104-12.628-5.052-20.204-5.052s-21.677,1.265-29.884,1.686c-8.208,0.421-18.521,0.631-24.203,2.104
		c-5.683,1.474-10.732,3.367-14.521,1.052c-3.788-2.313-4.841-3.366-10.521-0.21c-5.684,3.156-6.314,3.998-6.945,7.997
		s-1.263,4.841-10.944,9.26c-5.648,2.584-8.628,4.209-11.996,4.632c-3.366,0.42-4.63,1.472-7.365,5.261
		c-2.735,3.788-4.209,4.841-7.365,2.946c-3.157-1.896-4.841-3.368-6.945-7.787c-2.104-4.419-2.735-6.734-7.998-6.524
		c-10.903,0.438-17.733,1.593-24.202,14.942c-2.93,6.054-5.563,11.086-8.188,15.691c-1.914,3.464,0.052,5.005-2.191,7.391
		c-3.648,3.508-4.09,5.639-6.175,8.7C131.791,594.703,130.108,595.125,127.582,595.967z"/>
</g>
</svg>
