<?xml version="1.0" encoding="utf-8"?>
<!-- Generator: Adobe Illustrator 16.0.0, SVG Export Plug-In . SVG Version: 6.00 Build 0)  -->
<!DOCTYPE svg PUBLIC "-//W3C//DTD SVG 1.1//EN" "http://www.w3.org/Graphics/SVG/1.1/DTD/svg11.dtd">
<svg version="1.1" id="Calque_1" xmlns="http://www.w3.org/2000/svg" xmlns:xlink="http://www.w3.org/1999/xlink" x="0px" y="0px"
	 width="1052px" height="694.488px" viewBox="0 0 1052 694.488" enable-background="new 0 0 1052 694.488" xml:space="preserve">
<path id="ofsnbr2226" fill="#807F7F" d="M627.556,392.736l-14.407,3.474l-3.198,12.401l5.231,4.761l-7.817,11.522l-8.6,20.84
	c-7.79,0-12.545-1.25-19.97-7.362c-5.293-4.361-8.72-7.789-14.01-4.361c-3.994,2.582-7.772,0.215-9.655-1.558
	c-4.676-4.398-10.18-6.798-15.57-9.031c-9.03-3.735-16.266-4.662-23.428-4.662l29.034-31.767l14.997-24.734l-8.068-3.051
	l2.802-9.652l9.344,9.031l6.853-6.229l9.115,2.393l2.182-7.945l18.702,1.978l-0.73,16.027l9.264-8.34l11.465,8.608l6.281-7.361
	l19.641,16.624l11.198-8.796c-0.005,0-1.567,12.723-1.567,12.723c-6.61,5.561-14.979,10.423-18.683,21.173
	c-0.723,2.098-2.083,2.832-3.216,2.763c-1.707-0.11-3.507-2.314-5.19-5.873C628.882,394.924,628.231,393.747,627.556,392.736z"/>
<path id="ofsnbr2221" fill="#807F7F" d="M695.965,615.665c3.158,4.429,5.699,7.414,7.467,11.709
	c2.905,7.06,4.278,10.909,6.146,17.136c1.869,6.227,2.729,8.961,10.589,14.012c2.658,1.712,4.459,7.058,5.112,12.668l23.044-13.442
	l3.6,6.264l20.663-18.265l4.395-11.196l3.706-1.235l7.096-2.365l21.457-25.06l1.2-13.599l1.602-11.458l8.602-8.602l10.198-10.193
	v-23.062l-16.002-19.999l-18.073,0.349l-13.386,0.938l-4.052-20.241l-4.671-5.92l-13.698-2.181l-9.966,10.59l-0.311-13.7
	l-13.078-3.735l-19.617-0.314l0.62-13.698l-23.04,6.851l-8.097,6.852l-11.833,10.897l-5.291-0.621
	c-0.819,3.934-1.559,9.345-3.119,10.898c-2.266,2.267-4.979,1.87-14.945,0.936c-7.138-0.671-15.253,0-21.171,0.935
	c0,0,6.852,7.163,12.764,13.078c5.918,5.917,6.853,8.097,5.294,14.634c-2.327,9.787,2.209,14.449,10.279,17.75
	c6.85,2.801,9.342,4.046,10.898,14.634c1.554,10.587,5.063,16.701,11.915,27.913C686.943,603.487,691.383,608.448,695.965,615.665z"
	/>
<path id="ofsnbr2230" fill="#989898" d="M687.469,484.769l8.097-6.851l23.039-6.851l-0.62,13.699l19.618,0.313l13.077,3.736
	l0.311,13.698l9.967-10.588l13.697,2.181l4.672,5.919l4.051,20.238l13.385-0.935l18.075-0.349l6.801-16.667l0.398-10.396
	l-10.394-15.194l10.394-5.997l11.999-1.602l-1.195-29.858l8.789-20.662l2.404-15.99l-5.605-17.998l-9.991,6l-3.2,8.794l-8.797-7.603
	l-29.858,17.199l-7.599,11.197l-16.263,15.062c-15.76-2.592-27.092,1.405-33.998,12l-10.217,18.819l-16.194,5.178l-3.733-16.8
	l2.904-16.608l-33.631-21.589l-18.684-7.056l-15.774,20.757l-18.211-16.593l-7.817,11.521l-8.6,20.84
	c7.784,0,17.432,3.041,23.622,9.454c8.725,9.029,11.253,11.603,23.354,14.631c7.478,1.869,13.078,3.426,17.438,9.032
	c2.179,2.804,7.977,12.266,7.164,16.19l5.295,0.621L687.469,484.769z"/>
<path id="ofsnbr2225" fill="#989898" d="M560.165,362.262l-8.068-3.051l-21.485-15.881l-7.75,10.823l3.391,8.794l-8.372,4.751
	l-14.23-7.342l-0.094-9.104l-15.061-5.36l-6.769,15.807l7.709,4.442l-5.924,18.671l17.464,0.945l-0.254,10.2l-5.423,7.585
	l-7.347-2.292l-2.573,7.855c2.724,0.621,8.129,2.558,12.451,4.672c8.161,3.978,11.14,4.99,18.3,4.99l29.033-31.768L560.165,362.262z
	"/>
<path id="ofsnbr2224" fill="#666666" d="M271.848,393.154l12.633,8.591l12.197-17.864l17.125-14.632l16.587-21.242l16.896-20.713
	l9.501-10.757l0.614-25.136l7.866-4.738l3.737,5.292l15.365-5.342l21.067,11.881l15.259-10.588l23.271,1.004l8.181-12.836
	l9.178-3.025l6.389,1.688l-0.933,18.152l11.832,3.115l5.294,0.621l3.965-9.896l1.328-13.771l17.917-1.327l2.242-13.55l7.473-28.344
	l19.699,27.341l7.166-10.906l8.674-1.987l0.272,11.717l30.695-9.216l-6.713-6.418l14.382-15.41l5.234-16.128l10.16-10.617
	l-18.13-17.232c-7.94,6.695-12.741,5.526-18.191,3.708c-6.538-2.182-12.455-0.624-38.301,12.454
	c-6.755,3.416-9.625,2.035-12.063-0.078c-0.657-0.569-1.283-1.191-1.949-1.792c-3.115-2.802-3.115-5.604,2.49-10.587
	c5.607-4.983,39.233-28.958,47.956-35.187c5.495-3.926,10.619-8.223,14.595-12.804l-10.291-10.257l-3.595-24.96l-7.502-17.972
	l-22.598,15.919l-19.827,18.285l-29.792,12.84l-25.478,14.692l-30.613,5.133l-10.837-5.342l-18.684,32.384l2.699,8.514l12.455,9.133
	l-3.529,15.359l-12.455,12.048l-18.06,4.977l-6.642,14.535l-31.971,17.443l-28.233,14.115l-18.268,22.42l-69.752,63.111
	l23.247,23.709l8.671,10.854L271.848,393.154z"/>
<path id="ofsnbr2229" fill="#666666" d="M495.298,403.541l5.423-7.585l0.254-10.2l-17.464-0.944l5.923-18.672l-7.708-4.441
	l-22.731,13.392l-6.003,0.865c0.587,1.751,1.7,3.402,3.742,5.12c5.919,4.983,9.344,7.787,9.033,14.634
	c-0.246,5.421-0.288,15.92-4.359,21.175c3.673,0.258,6.538,0.935,8.719,0.311c5.06-1.442,9.939-9.308,15.259-8.097l2.573-7.854
	L495.298,403.541z"/>
<path id="ofsnbr2228" fill="#807F7F" d="M358.411,441.282l-4.683-9.287l-7.772-9.571l-25.844,9.965l1.246-33.938l-24.685-14.567
	l-12.197,17.865l-12.633-8.593l-10.096,0.381l-8.671-10.855c-1.491,1.552-2.838,2.915-3.817,3.978
	c-2.601,2.82-5.512,5.736-9.388,9.553c-3.148,3.1-6.469,7.703-9.547,10.582l-9.629,26.915l-13.286,12.45l5.809,17.854
	l-14.116,19.517l20.346,5.808l39.855,32.388l-25.741,40.689l25.43,18.269c4.651-5.93,9.753-12.796,13.391-20.551
	c2.336-4.981,3.815-9.651,5.215-13.934l-17.981-11.91l6.772-9.056l15.959,9.366c4.05-6.851,14.322-16.193,17.747-20.863
	c3.426-4.672,5.932-8.721,9.345-8.407c6.852,0.621,10.898,0.312,10.588-4.984c-0.203-3.419,0.935-11.209,7.476-18.682
	c3.362-3.844,9.964-9.345,15.565-17.437c4.521-6.532,8.41-10.898,16.816-13.078c8.407-2.179,13.392-3.115,15.166-1.628
	l-6.985-11.791L358.411,441.282z"/>
<path id="ofsnbr2227" fill="#989898" d="M450.5,336.237c3.426,4.982,4.235,15.765,4.235,23.858c0,5.307-2.856,12.544-1.75,15.865
	c0.585,1.751,1.698,3.402,3.742,5.119c5.919,4.983,9.345,7.788,9.033,14.635c-0.246,5.421-0.288,15.921-4.359,21.175
	c-2.523-0.181-4.985-2.517-8.409-4.671c-7.8-4.909-12.141-3.116-21.485,11.208c-6.091,9.337-15.256,16.504-37.986,26.779
	c-11.053,4.998-12.471,4.335-18.469-0.692l-6.984-11.792l-9.656,3.564l-4.683-9.288l-7.772-9.572l-25.845,9.968l1.246-33.94
	l-24.685-14.567l17.127-14.63l16.585-21.243l16.896-20.713l9.5-10.757l0.614-25.135l7.866-4.739l3.737,5.293l15.365-5.343
	l21.067,11.881l15.259-10.589l23.271,1.005l8.18-12.836l9.179-3.025l6.389,1.688l-0.933,18.153l11.832,3.115l-12.455,18.058
	l-7.244-3.356l-12.997,5.713l4.772,11.745C448.577,331.074,448.571,333.426,450.5,336.237z"/>
<path id="ofsnbr2223" fill="#807F7F" d="M450.5,336.237c3.426,4.982,4.235,15.765,4.235,23.858c0,5.307-2.856,12.544-1.75,15.865
	l6.003-0.865l22.731-13.392l6.769-15.807l15.06,5.36l0.095,9.103l14.23,7.342l8.371-4.752l-3.39-8.793l7.751-10.823l21.485,15.882
	l2.802-9.653l3.114-9.653l11.522-12.454l14.013-30.517l-6.225-8.399l28.979-17.889l-11.061-9.594l10.421-14.26l-8.044-1.824
	l4.813-6.066l-7.981-1.549l-8.144,12.186l-2.979-2.856l-30.694,9.216l-0.276-11.717l-8.671,1.987l-7.167,10.906l-19.699-27.341
	l-7.473,28.344l-2.242,13.55l-17.916,1.329l-1.329,13.77l-3.965,9.896l-5.294-0.622l-12.455,18.059l-7.245-3.356L445.9,316.42
	l4.772,11.745C448.577,331.074,448.571,333.426,450.5,336.237z"/>
<path id="ofsnbr2222" fill="#989898" d="M717.649,116.527l-24.043-28.434c9.212-7.969,18.865-16.041,23.443-19.033
	c8.096-5.294,11.521-7.164,16.502-15.26c0.975-1.58,1.833-2.918,2.555-4.107c3.827,0.896,7.17,2.468,8.972,5.042l2.738,26.732
	c-3.813,2.675-8.06,6.129-13.639,11.258c-2.004,1.839-3.25,3.144-3.629,4.388c-0.608,1.976,0.976,3.809,5.186,7.444
	c6.851,5.917,11.25,4.758,16.189,0c1.62-1.555,3.249-3.055,4.913-4.514l6.026,7.501l-17.384,14.693l3.52,11.136l-11.407,17.414
	l-6.842,7.018l0.093-27.159l-9.947-5.771l-2.948,7.409l-5.777-6.326C714.219,122.919,716.035,119.741,717.649,116.527z
	 M628.799,298.612l31.131-34.719l19.838-32.045l-15.665-7.931l21.608-31.265l5.859-8.479l-3.707-7.44l4.476-8.408l8.756,3.066
	l7.078-9.503l-7.614-22.805c2.505-2.092,4.806-4.418,6.917-6.908l-8.382-10.792l-10.256,10.797l-17.09-24.837
	c-6.064,5.206-12.141,9.999-17.624,15.462l18.725,21.243l-11.766,14.177l0.383,18.76l9.472,7.472
	c-0.201,0.993-0.402,1.973-0.595,2.931c-1.058,5.148-3.285,10.625-6.858,16.912l-18.934,3.696l-9.072-11.189l-16.947,12.845
	l-12.135-11.541l-10.16,10.617L591,224.854l4.512,5.717l-1.059,6.78l7.981,1.549l5.562,0.719l23.73-27.218l16.866,13.671
	c-2.308,3.016-4.812,6.199-7.525,9.575c-3.867,4.817-6.225,8.097-6.538,12.145l-14.996-9.074l-13.873,8.072l-10.42,14.259
	l11.06,9.595l-28.979,17.889l6.224,8.398l-14.013,30.517l-11.521,12.454l-3.116,9.654l9.345,9.031l6.851-6.229l9.115,2.393
	l2.182-7.943l18.703,1.977l1.376-38.378L628.799,298.612z"/>
<g>
	<path id="ID_x5F_9151_Lac_de_Neuchâtel" fill="#CCD3DA" d="M617.716,154.692c14.946-9.654,23.354-16.816,31.141-26.155
		c1.678-2.018,3.441-3.909,5.268-5.733c5.486-5.464,11.56-10.257,17.624-15.462c1.299-1.109,2.596-2.243,3.884-3.408
		c4.062-3.653,10.887-9.716,17.972-15.841c9.213-7.97,18.866-16.041,23.444-19.033c8.096-5.294,11.521-7.163,16.502-15.26
		c0.975-1.58,1.832-2.918,2.555-4.107c2.961-4.888,3.521-7.175-0.372-13.019c-3.555-5.328-5.281-7.513-6.861-7.949
		c-1.192-0.327-2.296,0.342-4.037,1.41c-4.047,2.493-6.233,3.114-14.013-0.623c-7.781-3.737-10.258-4.125-17.749,1.868
		c-12.451,9.967-14.634,10.28-17.745,10.899c-3.117,0.623-6.233,0.934-10.901,4.671c-2.335,1.868-5.057,3.892-7.625,5.915
		c-2.569,2.024-4.985,4.048-6.697,5.917c-3.427,3.737-5.295,4.671-5.605,9.654c-0.154,2.491-0.543,4.67-1.595,6.579
		c-1.047,1.908-2.763,3.542-5.565,4.943c-5.605,2.803-17.125,9.653-25.843,19.305c-8.726,9.653-19.307,21.175-23.044,28.959
		c-1.385,2.881-3.319,5.672-5.646,8.37c-3.975,4.582-9.099,8.878-14.594,12.804c-8.724,6.229-42.349,30.205-47.957,35.187
		c-5.604,4.983-5.604,7.785-2.49,10.587c0.664,0.6,1.29,1.222,1.95,1.792c2.438,2.112,5.308,3.493,12.063,0.078
		c25.845-13.078,31.766-14.636,38.3-12.455c5.451,1.82,10.252,2.988,18.192-3.708c1.583-1.337,3.298-2.986,5.161-5.011
		C601.245,167.399,602.769,164.344,617.716,154.692z"/>
	<path id="ID_x5F_9294_Lac_de_Morat_x2F_Murtensee" fill="#CCD3DA" d="M747.815,81.467c6.613-4.643,11.924-6.928,20.616-11.472
		c3.627-2.102,5.496-2.916,7.481-2.224c1.25,0.439,2.543,1.475,4.348,3.158c4.671,4.36,7.066,7.577,1.249,11.209
		c-10.06,6.287-17.679,11.765-24.672,17.906c-1.663,1.458-3.293,2.958-4.911,4.514c-4.939,4.757-9.343,5.916-16.191,0
		c-4.209-3.633-5.796-5.468-5.185-7.445c0.379-1.245,1.626-2.549,3.63-4.388C739.755,87.595,744.003,84.143,747.815,81.467z"/>
	<path id="ID_x5F_9757_Le_Léman_x2F_Genfersee" fill="#CCD3DA" d="M273.765,605.89c-3.762,1.256-5.646,7.421-5.02,12.124
		c0.836,6.273-0.314,9.21-3.136,14.225c-2.827,5.019-7.324,11.708-13.802,17.773c-1.645,1.531-5.78,3.635-6.695,2.718
		c-1.216-1.21-1.048-2.093,1.049-5.858c2.711-4.886-1.461-10.071-0.843-14.429c1.886-13.177,2.285-17.438,5.864-22.584
		c4.574-6.577,5.852-8.986,5.43-17.143c-0.383-7.521,0.422-9.831,1.567-11.297c4.689-5.976,9.829-12.888,13.487-20.703
		c2.352-5.02,3.843-9.724,5.254-14.038c1.412-4.315,2.744-8.232,4.784-11.684c4.077-6.904,14.429-16.311,17.88-21.021
		s5.979-8.781,9.406-8.47c6.903,0.628,10.979,0.315,10.665-5.019c-0.199-3.446,0.941-11.292,7.528-18.821
		c3.392-3.873,10.038-9.409,15.684-17.566c4.56-6.576,8.47-10.979,16.939-13.173c8.471-2.199,13.489-3.138,15.282-1.64
		c6.038,5.062,7.464,5.731,18.595,0.698c22.898-10.352,32.134-17.571,38.268-26.978c9.41-14.431,13.787-16.238,21.645-11.292
		c3.448,2.17,5.93,4.521,8.469,4.701c3.705,0.263,6.587,0.942,8.783,0.316c5.098-1.456,10.019-9.377,15.369-8.157
		c2.745,0.629,8.195,2.577,12.546,4.706c8.228,4.008,11.225,5.029,18.439,5.029c7.216,0,14.502,0.932,23.595,4.691
		c5.432,2.253,10.978,4.667,15.682,9.099c1.901,1.781,5.706,4.172,9.723,1.57c5.331-3.452,8.784,0,14.117,4.392
		c7.479,6.159,12.276,7.42,20.12,7.42c7.843,0,17.565,3.064,23.796,9.518c8.783,9.099,11.333,11.697,23.526,14.747
		c7.529,1.879,13.177,3.447,17.566,9.095c2.197,2.827,8.04,12.356,7.217,16.311c-0.826,3.962-1.572,9.411-3.137,10.979
		c-2.284,2.283-5.021,1.882-15.058,0.941c-7.183-0.677-15.371,0-21.333,0.941c-0.931,0.148-0.626,1.882-1.881,3.764
		c-1.255,1.884-5.331,0.629-10.666,0.629c-5.333,0-10.062-0.832-14.831-2.875c-2.196-0.941-4.304-2.146-9.948-2.146
		c-5.647,0-8.157-0.313-13.489-3.449c-5.332-3.137-18.821-7.529-30.113-7.529s-32.309,1.886-44.541,2.514
		c-12.234,0.626-27.605,0.94-36.073,3.136c-8.472,2.197-15.996,5.019-21.645,1.568c-5.646-3.448-7.215-5.017-15.68-0.314
		c-8.473,4.704-9.411,5.958-10.352,11.92c-0.94,5.959-1.882,7.216-16.312,13.801c-8.418,3.853-12.859,6.274-17.878,6.905
		c-5.017,0.627-6.902,2.193-10.979,7.841s-6.273,7.216-10.978,4.393c-4.706-2.826-7.216-5.021-10.352-11.605
		c-3.136-6.587-4.075-10.038-11.921-9.726c-16.249,0.654-26.43,2.374-36.072,22.271c-4.366,9.023-8.29,16.523-12.203,23.386
		c-2.853,5.164,0.077,7.461-3.267,11.018c-5.437,5.228-6.096,8.404-9.204,12.967C280.037,604.006,277.53,604.635,273.765,605.89z"/>
</g>
</svg>
