<?xml version="1.0" encoding="utf-8"?>
<!-- Generator: Adobe Illustrator 16.0.0, SVG Export Plug-In . SVG Version: 6.00 Build 0)  -->
<!DOCTYPE svg PUBLIC "-//W3C//DTD SVG 1.1//EN" "http://www.w3.org/Graphics/SVG/1.1/DTD/svg11.dtd">
<svg version="1.1" id="Calque_1" xmlns="http://www.w3.org/2000/svg" xmlns:xlink="http://www.w3.org/1999/xlink" x="0px" y="0px"
	 width="595.279px" height="841.891px" viewBox="0 0 595.279 841.891" enable-background="new 0 0 595.279 841.891"
	 xml:space="preserve">
<path id="_x32_311" fill="#999999" d="M331.247,450.202l-1.986-3.213l0.919-3.673l1.683-4.133l-3.366-2.911l-1.837-2.449
	l0.918-2.754l0.462-11.17l0.612-3.214l-4.438-5.511l0.152-2.447l-6.274-1.685l-7.347-8.419l0.306-2.6l-4.591,0.918l-1.684-6.122
	l-2.909-1.836l-3.52-10.257l5.968-3.367l0.152-7.652l-3.521-1.686l0.306-4.285l3.062-1.225l1.988-3.521l-3.979,0.459l-3.183-1.767
	l-1.574,2.165l-8.386,1.57l-6.093,2.556l-2.163-6.485l-5.438,3.733l-5.832,5.184l-7.007,3.255l4.015,3.106
	c3.522,3.523,5.359,9.033,3.214,13.162l-1.442,2.767c-1.333,2.587-2.229,4.606-2.692,7.49c-0.612,3.824-1.684,6.427-3.061,8.265
	c-0.856,1.143-1.121,1.987-1.014,2.872c0.065,0.535,0.265,1.083,0.557,1.719c0.764,1.685,2.265,4.683,2.265,4.683
	c1.093-0.474,2.25-1.22,4.011-2.234c0.801-0.461,2.185-1.203,3.915-2.104l0.982,5.165l2.755,3.211l4.438,1.075l3.673,7.346
	l2.908,1.072l5.509-1.53l-0.306,3.061l1.687,2.143l-3.673,3.52l-0.919,7.959l0.612,3.826l-1.224,3.673l3.21,2.907l3.367,6.429
	l2.912,6.583l6.732,7.346l0.612,4.592l3.674,4.135l4.285,3.061v4.133l1.836,4.285l2.295-0.766l2.603,2.911l9.946-4.592l2.754-5.359
	l6.276-9.795l2.907-8.721l-0.359-4.681l-6.069-2.36L331.247,450.202z"/>
<path id="_x32_313" fill="#666666" d="M425.667,460.162l3.584,4.987l-3.674,11.63l2.448,9.593l-3.673,3.47l-1.836,8.977l-6.123,6.94
	l-17.955-0.612l-4.286,1.631l-6.53,7.958L384.356,528l2.45,5.713l-3.47,2.448l-12.857-3.061l-4.488,3.879l-10.203-8.777l-4.285,0.41
	l-2.652,4.695h-5.713l-2.246-3.674l0.715-6.122l-8.061-3.47l-5.712-6.325l-6.938,2.242l-7.549,0.206l-6.123-1.633l-2.244-4.897
	l6.068-6.325l2.448-4.898l0.463-3.979l1.53-3.061l2.295-0.766l2.602,2.911l9.946-4.592l2.755-5.359l6.275-9.794l2.907-8.722
	l-0.359-4.681l2.505-2.506h5.014l-1.255-14.41l-0.208-13.162l4.178-4.175l2.09-5.85l6.682-1.253l2.298-8.982l6.476-1.674
	l4.804-3.758l2.925-3.549l0.416-4.389l-3.969-1.044l2.506-10.654l8.145-1.463l10.03,1.671l0.555,3.329
	c1.459-0.033,2.886-0.203,4.285-0.545l1.218,5.572l6.056,7.937l8.356-0.834l-1.043,3.759l1.253,4.801l-1.253,6.895l0.417,5.431
	l2.924,3.551l-0.627,7.311l1.254,4.805l2.924,2.714l-0.629,4.597l2.925,9.816L425.667,460.162z M380.13,356.558l0.628,4.175
	l-1.463,5.433l7.311,6.681l7.099-11.696l1.466-16.083l-5.641-1.883l-10.864,7.102L380.13,356.558z"/>
<path id="_x32_302" fill="#999999" d="M218.453,432.731c0,0,0.002,1.555,0,1.555l1.987,4.897l4.285,2.448l4.438,1.073l-0.153,10.714
	l-1.072,2.91l-2.602,2.755l0.612,6.272l5.971,8.265l4.898-1.074l5.356,7.041l3.979,0.461l0.152-4.285l1.987-2.449l-0.917-5.359
	l-0.612-10.558l-2.143-3.366l-0.151-2.299l6.122-15.764l-2.449-3.979l-3.826-2.603l-4.898-0.612l1.827-6.785
	c-2.953,0.697-4.84,1.382-6.636,2.104l-2.537-4.651l2.754-2.909l-0.918-6.581l0.462-3.215l1.986-3.672l3.214-7.194l-0.306-7.652
	l-3.978-0.918l-2.911-3.673l-8.418,0.307l-13.621,1.224l-4.336-2.31l-4.23,4.229l-0.784,5.632l-0.591,6.684l-10.546,12.315
	l-3.489,1.162l5.457,8.104l5.969,4.286l13.163,3.061l0.217,7.075c1.906-0.021,3.472-0.4,5.383-1.571
	C217.106,433.486,217.747,433.119,218.453,432.731z"/>
<path id="_x32_312" fill="#666666" d="M261.669,405.324l-4.802,0.648l-0.306-5.357l1.531-4.591l-1.837-3.366l0.306-8.877
	l-3.211-3.061l0.918-4.592l-5.51-2.601l-1.902-4.339l-10.548,3.143l-3.343-4.257l1.575-7.667l-7.078,1.179l-7.076,6.483
	c2.066,6.624-1.057,9.881-9.37,9.764l-5.01,5.01l4.336,2.313l13.621-1.225l8.418-0.306l2.91,3.672l3.979,0.919l0.306,7.652
	l-3.214,7.196l-1.986,3.672l-0.462,3.212l0.918,6.584l-2.754,2.907l2.537,4.653c1.798-0.722,3.685-1.408,6.636-2.105l-1.827,6.787
	l4.897,0.612l4.285-1.988l-0.762-3.062l5.048-4.286l7.958-3.061l3.642-5.26c0,0-1.499-3.003-2.265-4.688
	C261.937,406.407,261.734,405.859,261.669,405.324z"/>
<path id="_x32_308" fill="#7F7F7F" d="M117.289,449.438l7.499-3.673l6.885-4.744l0.918-1.837l3.062-0.918l0.765-3.979l-1.378-2.91
	l0.613-5.661l7.807-10.56l1.268-10.967c-2.253-3.543-4.436-5.982-6.737-9.748c-3.367-5.511-5.091-8.517-5.856-13.72
	c-0.768-5.204-1.99-5.816-5.359-7.195c-3.965-1.622-6.193-3.912-5.048-8.722c0.763-3.213,0.306-4.285-2.602-7.195
	c-2.905-2.91-6.272-6.428-6.272-6.428c-0.455,0.072-0.306,0.918-0.918,1.836c-0.612,0.919-2.602,0.307-5.203,0.307
	c-2.604,0-4.91-0.405-7.239-1.399l0.811,4.869l-8.979,6.122L90.1,366.79l4.286,8.162l7.958,6.734l6.531,9.186l4.082,4.284v9.999
	l-4.694,1.631l-4.898,6.734l-5.712,11.226l0.612,10.201l-3.673,5.306l2.245,10.816l4.489,2.039h5.713l5.356-4.135L117.289,449.438z"
	/>
<path id="_x32_307" fill="#7F7F7F" d="M164.504,450.626c-2.755,2.295-3.951,4.931-5.89,7.842c-1.224,1.836-3.515,3.668-6.122,6.272
	c-1.375,1.374-2.143,2.599-2.754,4.591c-0.612,1.991-5.417,4.689-7.05,7.138c-0.344,0.517-3.678,4.572-6.117,7.6l3.652,5.615
	l6.812,13.217l3.877,1.834l4.896,6.531l6.631-2.911l-1.836-3.673l-0.611-7.346l2.142-3.366l14.386-13.469l2.908,0.612l-0.612-12.551
	l10.869-5.356l1.986-3.673l12.856-0.152l7.807-3.521l4.286,2.296l5.204,6.733l4.132,0.463l-0.612-6.273l2.602-2.754l1.071-2.912
	l0.153-10.713l-4.438-1.072l-4.285-2.449l-1.987-4.897v-1.555c-0.706,0.388-1.347,0.758-1.897,1.09
	c-1.908,1.168-3.477,1.55-5.38,1.573c0,0-0.222-7.077-0.22-7.077l-13.162-3.061l-5.97-4.286l-5.456-8.102l-1.82,0.607l-2.165,5.5
	l-10.154,8.977l0.921,4.035l-0.612,5.509l0.306,6.122l-1.686,3.979l-1.071,3.211l0.349,5.803c-0.667-0.341-1.275-0.866-1.88-1.517
	C167.409,453.861,165.888,452.389,164.504,450.626z"/>
<path id="_x32_310" fill="#999999" d="M144.73,404.188l-1.268,10.967l-7.807,10.56l-0.612,5.661l1.377,2.91l-0.765,3.979
	l-3.062,0.918l-0.918,1.837l-6.885,4.744l-7.499,3.673l-4.898-0.46l-5.356,4.132l16.834,3.471l-3.57,6.938l-0.815,10.815
	l-4.083,9.387l5.51,3.265l11.069-9.387l4.587,6.476c2.439-3.027,5.773-7.086,6.117-7.602c1.633-2.449,6.438-5.149,7.05-7.138
	c0.612-1.99,1.377-3.215,2.754-4.592c2.607-2.606,4.898-4.438,6.122-6.274c1.939-2.909,3.135-5.547,5.89-7.839
	c1.384,1.762,2.905,3.232,4.058,4.472c0.605,0.652,1.21,1.176,1.88,1.516l-0.349-5.802l1.07-3.211l1.686-3.979l-0.306-6.122
	l0.612-5.51l-0.921-4.034l-1.772-3.08l-11.325,6.607c-0.318-2.758-1.2-5.383-2.511-6.227c-3.862-2.482-4.286-3.825-5.204-6.885
	c-0.918-3.061-1.592-4.953-3.021-8.422C147.532,407.838,146.284,406.366,144.73,404.188z"/>
<path id="_x32_304" fill="#666666" d="M466.434,363.669c0,0-1.496,6.884-1.498,6.884l9.821,14.403l5.307-11.632l7.959-4.285l1.938-5
	l7.041-1.837l7.345-7.958l-2.45-6.122l-3.67-2.143l0.75-5.428l7.971-2.379l9.797-9.03l4.271-1.263l-0.503-3.632l1.411-3.713
	l0.354-8.124l6.715,1.239l6.34-2.475l9.897-13.076l-4.326-3.54l-2.161,2.361l-8.778-5.895l1.769-3.081l-5.7-11.401l0.196-6.418
	l3.735-7.275v-9.235l-2.361-3.276l-4.128,0.392l-7.276,8.384l-2.357,12.321c-0.588,8.843-0.784,10.612-6.222,12.774
	c-3.531,1.402-5.701,2.819-7.08,5.113c-1.372,2.291-2.747,3.273-2.747,3.273l-6.42,3.934l-6.097,2.75l-15.462,2.75l-4.128,1.573
	l-2.948-5.308l-4.521,0.392l-8.581-5.892l-11.6-2.884l-2.751,0.919l-9.566-4.456l-3.929,0.39l-6.685,4.848l-5.829,1.576
	l-0.982,3.142c2.562,5.467,1.449,9.203-3.341,11.206l-2.948,1.378l-1.525,1.564l1.166,6.607l7.104,6.265l3.969,0.419l3.762,1.043
	l3.757-3.131l5.642-1.881l19.216,16.71l-4.388,7.938l4.178,2.714l3.544,10.734c4.438-0.909,10.049-4.139,10.462,2.624
	c0.103,1.681,2.386,5.644,6.418,3.721C465.677,364.061,466.055,363.87,466.434,363.669z"/>
<path id="_x32_305" fill="#7F7F7F" d="M269.001,354.314l6.487,4.912l-5.832,5.184l-7.007,3.257l4.015,3.104
	c3.522,3.521,5.359,9.03,3.214,13.163l-1.442,2.766c-1.333,2.59-2.229,4.604-2.692,7.488c-0.612,3.826-1.684,6.427-3.061,8.265
	c-0.856,1.145-1.121,1.989-1.014,2.874l-4.802,0.649l-0.306-5.36l1.531-4.591l-1.837-3.366l0.306-8.877l-3.211-3.061l0.918-4.592
	l-5.51-2.599l-1.902-4.341l5.898-5.242L269.001,354.314z M313.494,498.411l0.462-3.979l1.53-3.061l-1.836-4.285v-4.133l-4.285-3.061
	l-3.674-4.135l-0.612-4.591l-6.732-7.347l-2.912-6.583l-3.367-6.429l-3.21-2.907l1.224-3.673l-0.612-3.826l0.919-7.959l3.673-3.52
	l-1.687-2.143l0.306-3.062l-5.509,1.531l-2.908-1.073l-3.673-7.345l-4.438-1.074l-2.755-3.211l-0.982-5.166
	c-1.732,0.901-3.114,1.644-3.915,2.104c-1.758,1.014-2.918,1.76-4.011,2.234l-3.642,5.263l-7.958,3.061l-5.048,4.285l0.762,3.062
	l-4.284,1.987l3.826,2.602l2.449,3.979l-6.122,15.763l0.151,2.298l2.143,3.368l0.612,10.558l0.917,5.358l-1.987,2.449l-0.152,4.285
	l1.531,9.796l3.825,9.794l3.368,1.837l1.374,2.911l5.359,4.744l1.376-1.225l4.592,0.458l4.896-0.458l4.591,2.143l2.298,4.132
	l2.928,3.939l-0.376,3.764l5.51-2.245l5.713,2.245l3.876-2.858v-7.346l4.082-2.04h3.877l6.068-6.325L313.494,498.411z"/>
<path id="_x32_301" fill="#7F7F7F" d="M441.539,376.193l-13.057-5.72c-1.341,1.351-2.312,2.7-2.958,3.666
	c-0.986,1.478-1.847,2.324-3.278,3.19l-4.517-6.777l0.834-13.994l3.758-5.849l14.414-12.531l-7.729-7.729l-12.53-5.643l-3.762-1.042
	l-3.97-0.419l-3.135,2.506l-1.88,4.178l-14.205,13.158l5.643,1.881l-1.465,16.082l-7.099,11.698l0.207,5.849l-2.298,4.802
	l10.029,1.672l0.556,3.329c1.458-0.036,2.886-0.203,4.285-0.543l1.217,5.57l6.057,7.937l8.356-0.837l-1.044,3.76l1.254,4.806
	l-1.254,6.893l0.417,5.433l2.924,3.549l-0.626,7.31l1.254,4.806l2.923,2.711l-0.628,4.597l2.925,9.819l2.505,5.849l3.583,4.986
	l18.978-3.877l2.857-8.367l9.999-5.304l-2.04-6.328l4.489-7.753l-3.674-5.715l-4.795-12.039l-7.243-7.345l-7.347-6.122
	l16.326-15.305l-3.771-3.073L441.539,376.193z"/>
<polygon id="_x32_303" fill="#666666" points="279.366,514.176 277.07,510.044 272.478,507.901 267.581,508.359 262.99,507.901 
	261.614,509.125 256.255,504.382 254.881,501.473 251.513,499.636 247.685,489.842 246.155,480.046 242.175,479.588 
	236.821,472.547 231.923,473.618 225.952,465.354 221.822,464.895 216.618,458.161 212.333,455.865 204.526,459.386 
	191.669,459.538 189.683,463.212 178.814,468.567 179.427,481.118 176.52,480.506 162.134,493.974 159.992,497.341 160.603,504.687 
	162.44,508.359 155.808,511.268 151.93,515.553 155.603,521.062 160.704,521.47 159.276,527.185 162.134,533.92 167.031,541.06 
	170.704,549.019 174.99,554.122 176.214,559.63 181.519,559.63 187.64,552.897 192.131,552.285 197.844,557.793 202.13,558.61 
	204.169,553.303 211.515,545.957 217.025,546.569 219.883,547.999 229.677,534.938 237.024,539.224 244.37,538.203 253.756,544.938 
	258.45,540.244 263.144,539.02 273.345,529.428 278.041,529.021 278.449,524.736 281.917,521.878 282.295,518.115 "/>
<path id="_x32_309" fill="#999999" d="M466.434,363.669l-1.498,6.884l9.821,14.403l-13.571,6.019l-4.389-3.979l-3.77-3.073
	l-11.489-7.729l-13.057-5.72c-1.341,1.354-2.312,2.703-2.958,3.666c-0.986,1.48-1.847,2.324-3.278,3.192l-4.517-6.779l0.834-13.994
	l3.758-5.851l14.414-12.531l-7.729-7.727l-12.53-5.64l3.757-3.134l5.642-1.879l19.216,16.708l-4.388,7.938l4.178,2.716l3.544,10.732
	c4.438-0.909,10.049-4.139,10.462,2.626c0.104,1.679,2.386,5.642,6.418,3.718C465.677,364.061,466.055,363.87,466.434,363.669z
	 M386.736,320.441l-11.562-0.022l-14.709,11.354l-19.985,13.171l-4.842,8.48l3.551,1.674l1.672,4.802l0.208,4.386l5.221-2.295
	l6.181,0.318c-0.091,3.876-0.055,8.054,0.051,9.846c0.15,2.599-0.153,5.048-1.378,6.58c-1.224,1.533-1.096,3.013,0.281,6.687
	l1.132,11.246l-4.386,1.672l3.97,11.695l-2.925,3.76l5.016,6.475l6.682-1.253l2.297-8.982l6.477-1.671l4.804-3.759l2.925-3.55
	l0.416-4.389l-3.97-1.042l2.507-10.656l8.145-1.464l2.298-4.802l-0.207-5.849l-7.311-6.684l1.463-5.431l-0.629-4.178l-1.462-6.267
	l10.864-7.103l14.202-13.157l1.88-4.178l3.136-2.504l-7.103-6.268l-1.167-6.607l-3.585,3.675L386.736,320.441z"/>
<path id="_x32_306" fill="#7F7F7F" d="M352.14,410.03l-3.97-11.696l4.386-1.672l-1.132-11.246c-1.377-3.673-1.505-5.155-0.281-6.687
	c1.225-1.53,1.53-3.979,1.378-6.581c-0.105-1.789-0.14-5.969-0.051-9.845l-6.181-0.318l-5.221,2.295l-0.208-4.385l-1.672-4.802
	l-3.551-1.674l4.842-8.479l-4.651-3.932l-18.672-9.828l-5.238,13.564l-3.735-1.378l-7.667,2.152l-5.632,1.583l-2.754,3.869
	l7.011,4.718l3.183,1.767l3.979-0.459l-1.989,3.521l-3.061,1.224l-0.307,4.285l3.521,1.686l-0.152,7.652l-5.968,3.368l3.52,10.256
	l2.909,1.837l1.685,6.122l4.591-0.918l-0.306,2.599l7.347,8.42l6.273,1.685l-0.152,2.447l4.438,5.511l-0.612,3.214l-0.462,11.169
	l-0.918,2.756l1.838,2.448l3.365,2.911l-1.683,4.132l-0.918,3.674l1.986,3.213l4.591,7.806l6.069,2.359l2.505-2.503h5.014
	l-1.255-14.415l-0.208-13.157l4.178-4.18l2.09-5.848l-5.014-6.478L352.14,410.03z"/>
<g>
	<path fill="#CDD4DB" d="M128.615,336.948c-2.143-2.754-4.897-3.521-8.571-4.438c-5.949-1.488-7.193-2.757-11.478-7.193
		c-3.042-3.149-7.789-4.644-11.612-4.644c-3.824,0-6.166-0.615-9.814-3.621c-2.602-2.143-4.286-3.829-6.888-2.143
		c-1.96,1.27-3.818,0.106-4.744-0.765c-0.441-0.414-0.9-0.783-1.368-1.132v32.524c5.339,0.183,11.436,2.195,13.92,3.656
		c2.602,1.535,3.826,1.686,6.581,1.686c2.755,0,3.779,0.588,4.853,1.05c2.329,0.995,4.634,1.399,7.239,1.399
		c2.601,0,4.591,0.611,5.203-0.306c0.612-0.918,0.464-1.766,0.918-1.837c2.908-0.461,6.896-0.792,10.407-0.461
		c4.898,0.459,6.232,0.655,7.347-0.459c0.765-0.766,1.128-3.424,1.53-5.357C132.537,342.975,129.688,338.323,128.615,336.948z"/>
</g>
</svg>
