<?xml version="1.0" encoding="utf-8"?>
<!-- Generator: Adobe Illustrator 16.0.0, SVG Export Plug-In . SVG Version: 6.00 Build 0)  -->
<!DOCTYPE svg PUBLIC "-//W3C//DTD SVG 1.1//EN" "http://www.w3.org/Graphics/SVG/1.1/DTD/svg11.dtd">
<svg version="1.1" id="Calque_1" xmlns="http://www.w3.org/2000/svg" xmlns:xlink="http://www.w3.org/1999/xlink" x="0px" y="0px"
	 width="595.279px" height="651.968px" viewBox="0 94.961 595.279 651.968" enable-background="new 0 94.961 595.279 651.968"
	 xml:space="preserve">
<path id="ofsnbr2500" fill="#989898" d="M273.917,320.75l66.487,47.767c-2.982,3.806-5.074,9.797-4.069,29.324
	c1.087,21.168-2.226,27.428-14.112,44.499c-9.283,13.357-10.316,24.426-15.198,58.622c-1.615,11.309,9.226,24.768,2.172,37.453
	c-5.432,9.77-5.875,12.057-2.715,15.198c2.382,2.382,13.115-3.078,17.37-7.061c16.823-15.737,28.497-33.101,35.824-46.128
	c7.327-13.029,10.31-20.638,8.145-36.918c-1.628-12.213,3.254-28.216,13.027-31.475c9.77-3.258,16.283-4.885,28.219-24.426
	c8.069-11.846,9.772-20.09,23.884-33.662c8.683-9.224,1.082-15.189,8.473-28.585l15.957,36.179l-23.885,24.959l44.506,65.134
	l35.821-34.729l20.627,27.136l-23.885,54.281l-70.559,39.084l-16.282-5.435l-68.393,56.444l8.683,20.635l-87.931,53.185
	l-48.852-3.253l-6.514-19.541l-58.62,1.082l-4.338,19.54l-19.538,13.027l-54.282-17.365l-54.28,33.648l-3.883-15.545
	c5.729-4.946,10.972-12.087,15.825-22.442c11.916-25.416,17.742-43.149,27.956-51.304l17.639-32.289l-47.761-26.055l23.879-41.256
	l24.971,3.256l17.371-22.797l41.79-11.934l73.276-24.972l21.712,20.622l28.227-31.477l-31.483-65.132l27.139-27.146L273.917,320.75z
	 M342.035,247.208l47.02,31.143c3.665-11.196,7.124-21.373,12.416-30.329l-41.727-24.488L342.035,247.208z"/>
<g display="none">
	<path display="inline" fill="#1A171B" d="M191.051,519.214v-3.204l11.569-0.015v10.135c-1.777,1.415-3.605,2.48-5.496,3.196
		c-1.889,0.716-3.827,1.063-5.812,1.063c-2.685,0-5.119-0.572-7.312-1.721c-2.192-1.147-3.849-2.81-4.966-4.985
		c-1.118-2.169-1.677-4.598-1.677-7.278c0-2.66,0.555-5.145,1.666-7.444c1.114-2.303,2.712-4.009,4.799-5.127
		s4.49-1.685,7.209-1.685c1.975,0,3.759,0.319,5.354,0.962c1.598,0.641,2.85,1.533,3.755,2.675c0.903,1.141,1.595,2.631,2.066,4.471
		l-3.26,0.896c-0.41-1.396-0.92-2.481-1.528-3.278c-0.605-0.798-1.479-1.431-2.606-1.908c-1.129-0.477-2.385-0.715-3.765-0.715
		c-1.648,0-3.079,0.245-4.283,0.753c-1.204,0.499-2.178,1.162-2.914,1.981c-0.741,0.817-1.315,1.722-1.727,2.704
		c-0.695,1.686-1.043,3.519-1.043,5.491c0,2.438,0.421,4.473,1.256,6.11c0.844,1.639,2.062,2.854,3.663,3.651
		c1.604,0.797,3.307,1.19,5.104,1.19c1.563,0,3.093-0.299,4.583-0.901c1.49-0.604,2.619-1.243,3.391-1.931v-5.09L191.051,519.214
		L191.051,519.214z"/>
	<path display="inline" fill="#1A171B" d="M221.063,523.559l3.465,0.427c-0.548,2.024-1.558,3.6-3.037,4.717
		c-1.479,1.117-3.364,1.677-5.663,1.677c-2.895,0-5.188-0.895-6.882-2.675c-1.699-1.781-2.544-4.277-2.544-7.497
		c0-3.331,0.855-5.909,2.571-7.749c1.714-1.841,3.938-2.758,6.669-2.758c2.646,0,4.806,0.9,6.481,2.705
		c1.678,1.796,2.517,4.33,2.517,7.601c0,0.194-0.009,0.492-0.021,0.896h-14.754c0.123,2.168,0.738,3.83,1.844,4.99
		c1.106,1.147,2.485,1.729,4.138,1.729c1.229,0,2.278-0.32,3.146-0.969C219.863,526.003,220.552,524.975,221.063,523.559z
		 M210.053,518.142H221.1c-0.149-1.67-0.57-2.913-1.269-3.747c-1.067-1.289-2.452-1.938-4.152-1.938
		c-1.539,0-2.835,0.514-3.888,1.542C210.746,515.034,210.164,516.412,210.053,518.142z"/>
	<path display="inline" fill="#1A171B" d="M228.738,529.93v-19.782h3.018v2.81c1.453-2.169,3.553-3.257,6.299-3.257
		c1.19,0,2.286,0.217,3.289,0.641c0.998,0.435,1.747,0.991,2.242,1.691c0.496,0.691,0.848,1.521,1.043,2.475
		c0.123,0.618,0.188,1.706,0.188,3.265v12.16h-3.354v-12.033c0-1.362-0.13-2.386-0.391-3.062c-0.261-0.679-0.723-1.223-1.39-1.625
		c-0.663-0.402-1.442-0.604-2.336-0.604c-1.429,0-2.66,0.455-3.7,1.362c-1.036,0.902-1.556,2.623-1.556,5.157v10.805L228.738,529.93
		L228.738,529.93z"/>
	<path display="inline" fill="#1A171B" d="M263.5,523.559l3.465,0.427c-0.547,2.024-1.557,3.6-3.035,4.717
		c-1.479,1.117-3.364,1.677-5.663,1.677c-2.896,0-5.19-0.895-6.883-2.675c-1.697-1.781-2.545-4.277-2.545-7.497
		c0-3.331,0.857-5.909,2.571-7.749c1.714-1.841,3.938-2.758,6.669-2.758c2.646,0,4.808,0.9,6.483,2.705
		c1.677,1.796,2.515,4.33,2.515,7.601c0,0.194-0.007,0.492-0.019,0.896h-14.754c0.122,2.168,0.736,3.83,1.844,4.99
		c1.105,1.147,2.483,1.729,4.136,1.729c1.229,0,2.28-0.32,3.148-0.969C262.3,526.003,262.99,524.975,263.5,523.559z M252.49,518.142
		h11.047c-0.147-1.67-0.57-2.913-1.267-3.747c-1.069-1.289-2.452-1.938-4.154-1.938c-1.539,0-2.835,0.514-3.886,1.542
		C253.183,515.034,252.602,516.412,252.49,518.142z M260.221,507.688h-2.701l-4.305-5.217h4.49L260.221,507.688z"/>
	<path display="inline" fill="#1A171B" d="M276.671,529.93l-7.524-19.782h3.54l4.248,11.848c0.458,1.282,0.883,2.606,1.267,3.987
		c0.298-1.045,0.715-2.297,1.249-3.765l4.396-12.07h3.444L279.8,529.93H276.671z"/>
	<path display="inline" fill="#1A171B" d="M303.794,523.559l3.467,0.427c-0.547,2.024-1.559,3.6-3.036,4.717
		c-1.479,1.117-3.364,1.677-5.663,1.677c-2.896,0-5.19-0.895-6.882-2.675c-1.699-1.781-2.546-4.277-2.546-7.497
		c0-3.331,0.857-5.909,2.571-7.749c1.714-1.841,3.938-2.758,6.669-2.758c2.646,0,4.809,0.9,6.483,2.705
		c1.676,1.796,2.515,4.33,2.515,7.601c0,0.194-0.007,0.492-0.019,0.896h-14.754c0.123,2.168,0.736,3.83,1.844,4.99
		c1.104,1.147,2.485,1.729,4.136,1.729c1.229,0,2.28-0.32,3.148-0.969C302.595,526.003,303.284,524.975,303.794,523.559z
		 M292.785,518.142h11.046c-0.146-1.67-0.567-2.913-1.266-3.747c-1.07-1.289-2.452-1.938-4.154-1.938
		c-1.54,0-2.836,0.514-3.887,1.542C293.478,515.034,292.897,516.412,292.785,518.142z"/>
</g>
<path fill="#CCD3DA" d="M499.988,158.464c0.813,13.841-9.775,14.654-27.686,13.026c-8.92-0.814-15.47,9.77-24.426,21.984
	c-8.956,12.211-35.823,36.636-46.408,54.548c-5.295,8.956-8.753,19.134-12.416,30.329c-3.66,11.194-7.532,23.407-13.637,36.434
	c-9.507,20.278-22.85,38.229-35.012,53.735c-2.982,3.805-5.074,9.796-4.069,29.324c1.087,21.168-2.226,27.427-14.112,44.499
	c-9.283,13.357-10.316,24.426-15.198,58.621c-1.615,11.309,9.226,24.769,2.172,37.454c-5.432,9.77-5.875,12.057-2.715,15.197
	c2.378,2.383,13.115-3.077,17.37-7.061c16.823-15.736,28.497-33.1,35.824-46.127c7.327-13.029,10.31-20.639,8.145-36.919
	c-1.628-12.212,3.254-28.215,13.027-31.475c9.77-3.258,16.283-4.885,28.219-24.426c8.069-11.845,9.772-20.089,23.884-33.661
	c8.683-9.224,1.082-15.189,8.473-28.586c10.153-17.823,20.349-37.287,31.69-60.708c25.014-51.649,51.439-56.113,93.629-57.806
	c0.964-0.038,1.876-0.047,2.761-0.042L508.68,125.177C501.116,139.197,499.599,151.905,499.988,158.464z"/>
</svg>
