<?xml version="1.0" encoding="utf-8"?>
<!-- Generator: Adobe Illustrator 16.0.0, SVG Export Plug-In . SVG Version: 6.00 Build 0)  -->
<!DOCTYPE svg PUBLIC "-//W3C//DTD SVG 1.1//EN" "http://www.w3.org/Graphics/SVG/1.1/DTD/svg11.dtd">
<svg version="1.1" id="Calque_1" xmlns="http://www.w3.org/2000/svg" xmlns:xlink="http://www.w3.org/1999/xlink" x="0px" y="0px"
	 width="566.929px" height="841.891px" viewBox="14.175 0 566.929 841.891" enable-background="new 14.175 0 566.929 841.891"
	 xml:space="preserve">
<path id="TI" fill="#999999" d="M232.918,77.749l-4.573,7.97l-9.113,7.69l-13.102,0.855l-3.418-5.126l-7.974-3.417l-22.503-2.28
	l-6.265-4.557l-13.103-3.13l-15.952,3.13l-9.971,9.684l-4.272,10.255l1.997,12.819l-0.855,7.689l-3.702,4.558l-15.197,4.989
	l-11.339,0.68l-4.8,10.167l-11.086,10.143l-2.83,8.019l-3.776,6.843l-4.717,1.412l-9.198-0.943H45.374l-6.132-1.65l0.708,12.972
	l-0.237,8.729l-4.8,19.188l18.607-8.941l15.372-2.564l12.806,4.483l10.247,19.212l1.28,8.325l-1.28,16.648v17.932v19.854
	l1.922,21.772l-2.564,16.647l-8.324,16.014l-8.966,10.884l-2.562,14.729l10.889,14.729l3.842,11.526l-1.281,6.406l2.561,8.966
	l14.09,12.167l17.928,10.247l17.932,9.604l10.247,15.372l17.29,25.613l10.246,9.607l1.284,11.527l12.774,13.477l5.887,12.226
	l7.243,0.904l9.057,1.812l6.339,5.437l8.604,4.979l11.772,1.356l6.793,4.984l5.181,2.464l8.856,3.877l17.21-14.945l10.505,7.231
	l9.419,4.995l9.055,7.696l4.983-2.716l6.791-5.887l3.173-3.62l4.525,1.356l15.396,15.85l10.868,13.133l6.339,9.054l0.906,9.51
	l-5.889,6.341l-4.981,3.622l-2.388,0.606l-0.639,4.805l-1.604,10.885l-4.803,4.163l-12.167,7.686l-7.686,6.726l-2.881,8.004
	l3.841,8.324h4.162l8.326,1.28l11.207,4.163l7.366,8.004l9.285,8.003l7.362,8.005l6.562,1.521l6.886,3.925l1.278,8.641l1.28,16.332
	l8.328,11.847l5.095,6.705l3.87,4.819v6.405l5.125,13.449l8.965,14.729l-1.28,8.323l-8.323,7.686l-7.686,12.169v6.401l4.48,0.642
	l7.682-7.685l10.25,0.642l7.682,7.682l8.966,1.923l9.607-0.642l5.765,2.564l1.278,9.603l8.326,2.564l11.525-5.768l2.562-15.367
	l1.919-8.966l5.126-10.889l3.201-12.808l9.604-6.404l6.404-7.043l2.562-8.966l-2.562-1.919c0,0-7.043-8.966-9.605-12.168
	c-2.562-3.203-10.246-7.685-10.246-7.685h-13.448l-6.403-5.124l-1.921-7.047l1.279-9.604l-4.48-7.685l-5.122-6.401l-3.844-10.889
	l-1.28-5.124l4.481-5.766l5.765-5.763l7.043-1.919l0.165-6.564l-0.804-15.85l-3.201-3.844l-3.84-7.682l0.639-12.811l5.126-13.448
	l7.043-4.48l12.167-4.481l12.806-4.482l5.765-3.844l4.481-7.043l2.562-9.607l-0.639-10.243l-5.126-10.889l-1.917-7.685l4.48-10.885
	l18.57-7.686l12.808-12.166l7.685-7.687l5.763-2.56l6.404-10.889l6.516-3.06l-11.743-11.217l-12.535-17.66l-10.823-10.255
	l-14.812-10.823l-2.278-11.393l2.278-15.382l-5.697-15.379l-9.113-15.382l-3.989-10.823l5.127-9.113l5.126-14.812l-0.566-15.953
	l3.415-9.113l6.836-5.7l6.266-10.251l-3.417-17.66l0.571-13.103l4.555-11.966l1.709-9.112l-8.546-10.254l-2.277-10.255l5.697-11.395
	l1.426-15.951l-9.968-11.11l-10.539-3.417l-6.554-0.568l-9.969-9.971l-7.406-11.107l-8.261-18.8l-1.138-15.096l2.563-21.933
	l6.551-4.844l9.113-9.683l-1.709-6.266l-3.133-1.709L465.9,77.741l-9.397-12.248l-5.699-5.698l-13.671,3.99l-11.392-1.138
	l-1.709-7.121l-1.141-9.687l-1.424-14.24l-1.709-9.684l-1.993,2.28l-5.126,3.701l-17.946,1.425l-9.968,7.975l-3.418,7.404
	l5.982,12.248l2.563,5.126l-0.286,7.974l-7.688,7.409l-8.264,5.694l-8.26,3.702l-11.678,1.996l-11.679,3.13h-5.982l-4.556-2.564
	l-11.393,8.546l-10.255-1.709l-9.969-5.696l-6.837-3.705l-13.957-2.563l-10.823,2.279l-10.946-0.497l-12.486-5.639L232.918,77.749z
	 M433.272,664.575l3.201,3.202l3.201-0.643l2.562-3.198l2.56-3.843l-0.637-4.804l-2.564-0.961l-5.123,5.124L433.272,664.575z"/>
<g>
	<path id="lake_lugano" fill="#CCD3DB" d="M374.713,683.107c0.536,0.976,1.608,2.105,1.907,3.176c0.403,1.471-0.066,3.56,0,5.084
		c0.142,3.344,0.674,7.782,0.951,11.116c0.197,2.384,0.717,5.557,0.638,7.944c-0.069,1.924-1.317,4.459-0.958,6.351
		c0.393,2.054,2.107,4.473,3.495,6.035c0.634,0.713,1.823,1.284,2.543,1.905c0.511,0.442,1.329,0.967,1.588,1.59
		c0.767,1.848-1.147,5.033,0,6.672c0.641,0.911,2.389,1.417,3.492,1.27c1.968-0.261,3.905-2.513,5.401-3.815
		c1.783-1.541,3.774-4.006,5.403-5.716c2.185-2.292,5.003-5.444,7.304-7.622c1.277-1.211,3.469-2.354,4.446-3.815
		c0.676-0.998,0.456-2.924,1.272-3.812c0.979-1.067,3.025-1.615,4.446-1.904c0.935-0.189,2.289-0.35,3.177,0
		c1.694,0.668,3.138,2.865,4.448,4.128c2.039,1.965,5.292,4.198,6.67,6.672c0.812,1.455,1.044,3.753,1.272,5.399
		c0.31,2.267-0.684,5.564,0.316,7.628c0.386,0.79,1.383,1.659,2.223,1.902c0.647,0.188,1.655,0.047,2.224-0.315
		c1.627-1.042,2.9-3.566,3.495-5.401c0.535-1.634,0.687-4.044,0.316-5.718c-0.346-1.583-1.662-3.406-2.539-4.766
		c-0.849-1.316-2.148-2.956-3.177-4.129c-1.247-1.417-3.409-2.874-4.446-4.447c-1.13-1.712-1.949-4.39-2.545-6.353
		c-0.536-1.771-1.08-4.194-1.267-6.038c-0.269-2.558-0.198-6.008,0-8.574c0.187-2.499,0.508-5.87,1.267-8.26
		c0.324-1.014,1.135-2.212,1.587-3.177c0.804-1.697,1.662-4.062,2.546-5.719c1.009-1.889,2.501-4.341,3.812-6.035
		c1.277-1.651,3.161-3.74,4.763-5.083c1.746-1.457,4.338-3.081,6.355-4.128c1.822-0.946,4.436-1.81,6.352-2.543
		c2.085-0.795,4.873-1.833,6.989-2.541c2.173-0.726,5.271-1.169,7.304-2.225c1.931-0.998,4.089-3.01,5.719-4.446
		c1.515-1.335,3.163-3.531,4.763-4.765c1.051-0.811,2.553-1.828,3.812-2.224c2.191-0.692,5.334-0.541,7.628-0.635
		c3.904-0.163,9.117-0.098,13.021,0c1.907,0.047,4.45,0.439,6.355,0.315c3.187-0.205,7.558-0.61,10.481-1.902
		c1.864-0.825,3.807-2.858,5.4-4.131c1.746-1.393,4.124-3.198,5.715-4.765c1.352-1.325,2.907-3.325,4.131-4.768
		c0.48-0.564,1.449-1.175,1.588-1.902c0.226-1.187-0.494-2.891-1.271-3.812c-0.903-1.077-2.721-2.203-4.127-2.224
		c-1.489-0.026-3.208,1.392-4.447,2.224c-0.84,0.564-1.737,1.608-2.542,2.224c-1.365,1.042-3.291,2.294-4.767,3.176
		c-1.392,0.829-3.252,1.969-4.764,2.54c-1.56,0.59-3.765,0.966-5.4,1.271c-1.987,0.375-4.663,0.722-6.672,0.951
		c-2.188,0.253-5.106,0.671-7.307,0.636c-2.492-0.035-5.766-0.993-8.259-0.951c-2.604,0.042-6.12,0.42-8.579,1.272
		c-1.452,0.502-3.099,1.8-4.446,2.539c-1.606,0.886-3.803,1.958-5.399,2.86c-0.482,0.271-1.098,0.69-1.589,0.951
		c-1.395,0.741-3.433,1.38-4.764,2.224c-1.256,0.798-2.688,2.203-3.812,3.178c-0.97,0.839-2.07,2.213-3.18,2.858
		c-1.04,0.606-2.69,0.827-3.812,1.271c-1.27,0.503-2.812,1.558-4.128,1.904c-1.11,0.292-2.677,0.159-3.812,0.319
		c-0.966,0.136-2.213,0.537-3.181,0.637c-1.988,0.195-4.701,0.363-6.672,0c-1.305-0.244-2.812-1.408-4.126-1.588
		c-1.044-0.146-2.487,0.616-3.496,0.315c-0.581-0.175-0.984-1.175-1.586-1.271c-0.805-0.126-1.977,0.368-2.541,0.956
		c-1.047,1.084-1.617,3.258-1.59,4.763c0.017,0.815,0.637,1.795,0.955,2.543c0.609,1.454,1.732,3.266,2.223,4.767
		c0.606,1.845,1.293,4.409,1.271,6.353c-0.021,1.756-0.839,4.015-1.271,5.719c-0.513,2.017-1.21,4.709-1.907,6.67
		c-0.728,2.05-2.161,4.608-2.856,6.672c-0.754,2.231-1.048,5.423-1.906,7.623c-0.869,2.224-2.669,4.891-3.813,6.989
		c-1.143,2.096-2.729,4.858-3.812,6.989c-0.909,1.783-1.637,4.448-2.858,6.035c-0.989,1.287-2.935,2.398-4.129,3.492
		c-1.585,1.462-3.091,4.259-5.08,5.084c-0.969,0.399-2.553,0.455-3.496,0c-1.65-0.792-2.718-3.298-3.812-4.767
		c-0.897-1.208-2.28-2.737-2.858-4.129c-0.599-1.43-0.944-3.532-0.953-5.082c-0.008-1.646,0.849-3.761,0.953-5.399
		c0.126-2-0.136-4.677-0.317-6.674c-0.13-1.432-0.352-3.348-0.636-4.763c-0.217-1.065-0.76-2.425-0.954-3.495
		c-0.361-1.977-0.634-4.66-0.634-6.672c0-2.007,0.219-4.699,0.634-6.67c0.312-1.471,0.928-3.408,1.59-4.765
		c0.753-1.543,2.329-3.268,3.176-4.767c0.881-1.56,2.149-3.653,2.541-5.401c0.17-0.742,0.447-1.922,0-2.541
		c-0.702-0.978-2.615-1.122-3.813-1.271c-1.231-0.15-2.978-0.154-4.125,0.319c-1.503,0.615-3.396,2.046-4.131,3.492
		c-1.21,2.387-0.643,6.222-0.636,8.894c0.002,1.247,0.721,2.955,0.321,4.133c-0.464,1.338-2.261,2.413-3.177,3.494
		c-0.793,0.928-2.048,2.057-2.544,3.176c-0.739,1.678-1.233,4.224-0.953,6.035C373.288,680.984,374.202,682.173,374.713,683.107z"/>
	<path id="lake_maggiore" fill="#CCD3DB" d="M246.063,569.385c0,0-0.272-0.64-0.341-0.931c-0.358-1.499-0.743-3.566-0.611-5.104
		c0.139-1.683,1.156-3.767,1.588-5.399c0.75-2.839,1.588-6.666,2.224-9.531c0.4-1.807,0.586-4.317,1.269-6.034
		c1.284-3.221,4.405-6.793,6.038-9.849c1.286-2.404,2.689-5.771,3.813-8.26c1.065-2.373,2.26-5.646,3.49-7.942
		c0.753-1.395,1.849-3.225,2.86-4.446c1.508-1.815,3.948-3.837,5.719-5.4c1.573-1.39,3.726-3.181,5.398-4.446
		c1.202-0.909,2.812-2.124,4.129-2.86c1.456-0.81,3.491-1.741,5.084-2.224c1.576-0.476,3.757-1.023,5.399-0.952
		c1.479,0.062,3.4,0.7,4.766,1.271c1.22,0.51,2.638,1.608,3.813,2.224c1.396,0.731,3.224,1.881,4.763,2.224
		c1.396,0.308,3.445,0.546,4.768,0c1.121-0.466,2.016-1.99,2.857-2.859c1.548-1.598,3.603-3.742,5.082-5.4
		c1.082-1.212,2.856-2.638,3.495-4.13c0.716-1.675,0.151-4.278,0.636-6.034c0.361-1.318,1.047-3.07,1.904-4.131
		c0.896-1.109,2.553-2.177,3.814-2.857c0.977-0.532,2.452-0.875,3.49-1.272c1.92-0.732,4.314-2.339,6.354-2.539
		c1.544-0.154,3.735,0.182,5.08,0.951c1.762,1.004,3.133,3.544,4.448,5.084c0.967,1.129,2.345,2.578,3.179,3.812
		c0.786,1.166,1.665,2.837,2.223,4.127c0.478,1.106,1.077,2.622,1.27,3.812c0.124,0.755-0.258,1.827,0,2.546
		c0.252,0.696,1.241,1.247,1.588,1.903c0.326,0.614,0.583,1.53,0.635,2.223c0.06,0.767,0.144,1.925-0.317,2.545
		c-0.558,0.753-2.017,0.854-2.856,1.267c-1.265,0.622-2.767,1.881-4.13,2.224c-1.203,0.304-2.903-0.172-4.131,0
		c-1.374,0.193-3.113,0.893-4.446,1.272c-2,0.569-4.657,1.374-6.672,1.907c-2.749,0.721-6.546,1.227-9.211,2.22
		c-2.916,1.089-6.813,2.785-9.215,4.768c-1.776,1.466-3.127,4.405-4.765,6.035c-1.973,1.965-5.064,4.065-7.307,5.719
		c-2.146,1.585-5.183,3.459-7.304,5.081c-2.474,1.892-5.924,4.306-7.942,6.67c-0.721,0.845-0.988,2.551-1.906,3.18
		c-0.959,0.65-2.701,0.301-3.813,0.632c-0.897,0.272-2.05,0.793-2.855,1.271c-1.346,0.799-2.986,2.114-4.131,3.177
		c-1.78,1.652-3.959,4.08-5.399,6.035c-1.319,1.788-2.792,4.379-3.812,6.354c-1.198,2.312-2.677,5.471-3.496,7.942
		c-0.403,1.205-0.951,4.126-0.951,4.126h-15.565V569.385z"/>
</g>
</svg>
