<?xml version="1.0" encoding="utf-8"?>
<!-- Generator: Adobe Illustrator 14.0.0, SVG Export Plug-In  -->
<!DOCTYPE svg PUBLIC "-//W3C//DTD SVG 1.1//EN" "http://www.w3.org/Graphics/SVG/1.1/DTD/svg11.dtd" [
	<!ENTITY ns_flows "http://ns.adobe.com/Flows/1.0/">
]>
<svg version="1.1"
	 xmlns="http://www.w3.org/2000/svg" xmlns:xlink="http://www.w3.org/1999/xlink" xmlns:a="http://ns.adobe.com/AdobeSVGViewerExtensions/3.0/"
	 x="0px" y="0px" viewBox="-71.451 -21.294 545 388" enable-background="new -71.451 -21.294 545 388"
	 xml:space="preserve">
<defs>
</defs>
<polygon id="2406" name="District du Val-de-Travers" fill="#4D4D4D" stroke="#FFFFFF" stroke-width="0.25" points="185.737,186.44 158.483,168.269 139.016,171.514 
	110.605,190.201 60.497,195.524 31.944,177.355 0.147,210.45 14.424,244.193 19.383,281.511 28.051,287.67 96.836,251.98 
	115.655,248.086 129.282,227.97 170.97,210.105 195.472,196.822 186.756,185.784 "/>
<path id="2401" name="District de Boudry" fill="#4D4D4D" stroke="#FFFFFF" stroke-width="0.25" d="M177.302,259.118l-2.068,7.089l10.989,0.254
	c0.499-0.854,0.818-1.415,0.818-1.415s4.881-9.031,8.699-12.358c3.817-3.327,11.998-14.971,15.817-19.962
	c3.817-4.989,9.271-11.645,9.271-11.645s9.819-3.881,11.454-4.436c1.637-0.555,4.365-11.643,4.365-11.643l13.632-4.993l3.273-6.652
	l-0.543-15.525l12.543-6.654l20.179-9.98l1.123-0.532l0.109-0.083l-0.644-1.397l-1.298-6.488l4.959-10.54l-8.853,0.806
	l-25.308,14.275l-31.148-24.009l-18.169,16.222l6.489,19.467l-26.236,16.866l8.716,11.038l-24.502,13.283l-1.69,0.726l-0.414,0.268
	l-3.245,20.117l14.819,13.059L177.302,259.118z"/>
<path id="2402" name="District de Neuchâtel" fill="#4D4D4D" stroke="#FFFFFF" stroke-width="0.25" d="M380.412,56.007l-6.489-4.542l-7.788-2.595l-19.071,40.866
	l-1.044,2.61l-0.758,1.255l-10.923,23.404l-9.733,1.299l-29.201,23.36l-5.424,0.493l-4.959,10.54l1.298,6.488l0.663,1.419
	l16.563-7.85c0,0,6.728-5.42,14.91-7.636c8.18-2.218,6.544,2.216,6.544,2.216l1.184,1.111l18.538-10.674l17.521,10.383
	l10.383-19.468l7.787-18.818l14.925-5.191l1.947-13.627l5.84-8.438l0.649-12.977L380.412,56.007z"/>
<polygon id="2403" name="District du Locle" fill="#4D4D4D" stroke="#FFFFFF" stroke-width="0.25" points="196.119,117.654 220.778,96.24 211.046,85.209 
	205.854,70.284 174.104,70.261 157.833,87.804 175.355,103.378 161.079,113.761 136.419,124.792 113.708,152.047 102.676,153.994 
	45.572,176.056 39.731,170.865 31.944,177.355 60.497,195.524 110.605,190.201 139.016,171.514 158.483,168.269 185.737,186.44 
	186.756,185.784 212.992,168.917 206.503,149.451 224.672,133.229 "/>
<polygon id="2404" name="District de la Chaux-de-Fonds" fill="#4D4D4D" stroke="#FFFFFF" stroke-width="0.25" points="174.104,70.261 194.173,59.251 190.929,50.816 
	235.056,26.157 263.608,0.2 279.182,29.402 270.745,70.932 245.438,102.081 236.353,120.25 224.672,133.229 196.119,117.654 
	220.778,96.24 211.046,85.209 205.854,70.284 "/>
<polygon id="2405" name="District du Val-de-Ruz" fill="#4D4D4D" stroke="#FFFFFF" stroke-width="0.25" points="327.851,45.625 303.841,48.219 281.128,68.985 270.439,71.31 
	245.438,102.081 236.353,120.25 224.672,133.229 255.82,157.238 281.128,142.963 295.404,141.664 324.605,118.304 334.339,117.005 
	366.135,48.87 371.977,35.242 "/>
<path fill="#00ACDF" stroke="#FFFFFF" stroke-width="0.25" d="M118.227,326.662l4.972,9.2c0,0,7.09,1.107,8.728,0
	c1.635-1.11,34.234-20.805,34.234-20.805l20.608,6.015l29.377-28.329l11.091-10.491l12.892-12.89c0,0,31.846-30.021,34.024-30.576
	c2.179-0.556,16.053-12.53,17.687-13.641c1.071-0.725,2.998-1.349,15.708-10.718l15.271-14.972l15.273-9.979
	c0,0,10.361-13.309,11.998-14.418c1.634-1.108,5.999-12.197,5.999-12.197l-10.908-10.536l-13.088,1.665L325,147.334
	c0,0,1.636-4.435-6.544-2.216c-8.183,2.216-14.91,7.636-14.91,7.636l-17.815,8.443l-20.179,9.98l-12.543,6.654l0.543,15.525
	l-3.273,6.652l-13.632,4.993c0,0-2.729,11.088-4.365,11.643c-1.635,0.555-11.454,4.436-11.454,4.436s-5.453,6.655-9.271,11.645
	c-3.819,4.991-12,16.635-15.817,19.962c-3.818,3.327-8.699,12.358-8.699,12.358s-4.938,8.713-6.573,9.821
	c-1.636,1.109-14.18,10.535-14.18,10.535s-15.057,16.39-17.347,17.62c-2.29,1.232-14.833,9.55-18.652,12.878
	C126.472,319.226,118.227,326.662,118.227,326.662z"/>
</svg>
