<?xml version="1.0" encoding="utf-8"?>
<!-- Generator: Adobe Illustrator 16.0.0, SVG Export Plug-In . SVG Version: 6.00 Build 0)  -->
<!DOCTYPE svg PUBLIC "-//W3C//DTD SVG 1.1//EN" "http://www.w3.org/Graphics/SVG/1.1/DTD/svg11.dtd">
<svg version="1.1" id="Calque_1" xmlns="http://www.w3.org/2000/svg" xmlns:xlink="http://www.w3.org/1999/xlink" x="0px" y="0px"
	 width="1052px" height="694.488px" viewBox="0 0 1052 694.488" enable-background="new 0 0 1052 694.488" xml:space="preserve">
<path id="BE" fill="#999999" d="M396.273,519.107l5.423-7.029l9.221-7.171l6.833-3.758l10.244,1.023l6.831-4.101l-6.492-10.242
	l0.684-13.324l0.683-10.245l1.026-5.123l5.805-3.756l7.174,3.073l3.072-0.682l5.807,0.34l1.025-9.563l-0.342-15.369l-5.125-5.127
	l-8.194-7.171l-5.466-3.414l-9.609-3.562c-1.146-1.195-3.997-1.273-4.836-2.696c-0.812-1.382-0.479-3.817,0-5.345
	c0.589-1.869,2.932-3.566,3.745-5.348c0.549-1.202,1.343-2.982,1.07-4.277c-0.377-1.789-2.833-3.226-3.742-4.811
	c-1.288-2.25-2.859-5.456-3.208-8.023c-0.197-1.438-0.205-3.564,0.532-4.813c1.001-1.683,4.35-2.057,5.348-3.74
	c0.741-1.251,0.39-3.367,0.534-4.813c0.176-1.763-0.018-4.195,0.533-5.882c0.579-1.779,2.453-3.636,3.207-5.344
	c0.678-1.53,0.988-3.791,1.604-5.345c0.794-1.999,2.061-4.595,3.21-6.418c0.974-1.547,2.36-3.613,3.74-4.812l-1.448-0.934
	l-4.439-2.733c0,0-5.124-4.099-4.782-5.465c0.34-1.367,1.708-4.439,1.708-4.439l3.758-5.124l1.366,3.072l4.781,3.758l1.73,2.775
	c1.225-2.811,5.65-4.499,7.488-6.953c0.429-0.573,1.183-1.431,1.068-2.138c-0.181-1.12-2.183-1.65-2.674-2.674
	c-0.626-1.309-0.452-3.36-0.532-4.813c-0.08-1.44,0.555-3.478,0-4.812c-0.694-1.675-2.721-3.345-4.278-4.277
	c-1.437-0.859-3.675-1.527-5.347-1.604c-1.633-0.078-4.01,0.128-5.347,1.068c-0.765,0.54-0.711,2.394-1.604,2.674
	c-1.505,0.478-3.382-1.464-4.811-2.139c-0.972-0.461-2.141-1.474-3.209-1.604c-1.467-0.183-3.45,0.488-4.81,1.067
	c-0.531,0.229-1.038,0.955-1.604,1.07c-1.756,0.362-4.229-0.37-5.88-1.07c-2.544-1.075-4.8-4.723-7.487-5.345
	c-0.949-0.219-2.247,0.717-3.208,0.535c-0.918-0.176-1.985-0.969-2.674-1.604c-1.012-0.937-2.674-3.742-2.614-3.723l-8.167-0.591
	l2.05-15.712l-0.684-11.271l-3.073-11.271l3.415-4.439l7.854-5.126l-1.366-6.829l-6.829-7.514l-4.44,2.731l-17.418,8.197
	l-18.783,3.074l-8.539,0.342l-13.245,3.913l-1.441-0.841l-7.514-2.391l-10.097-5.123l-10.052-9.38c0,0.044,1.691-3.685,2.451-5.27
	c0.713-1.482,1.739-3.42,2.452-4.902c0.76-1.582,1.448-3.871,2.451-5.311c0.894-1.279,2.471-2.688,3.678-3.678
	c1.368-1.12,3.403-2.332,4.902-3.268c1.448-0.903,3.36-2.14,4.904-2.86c1.298-0.61,3.093-1.323,4.494-1.636
	c1.321-0.295,3.152-0.225,4.494-0.408c1.357-0.186,4.456-0.834,4.456-0.834l5.611-2.653l1.806-9.331l0.603-7.225l-1.807-6.323
	l-12.641-8.428l-13.546-7.224l-3.311-2.107l-11.438,0.301l-16.256,2.105l-9.933,4.814l-8.43,4.215l-6.622,3.01l-6.921,3.009
	l-1.204-7.226l4.212-5.418l2.108-8.127l-0.901-11.439l-3.384-7.298l11.21-1.278l6.321-4.064l9.183-8.127l5.27-5.119l11.438,1.203
	l6.021-0.602l3.009-4.816l0.602-4.814l11.438-1.805l7.226-9.634l6.019-13.242l1.206-6.622l14.446,3.01l25.284-1.806l-2.408-12.644
	l7.226-4.213l-0.603-8.429l3.011-6.622l7.224-1.203h7.824l6.021,6.621l11.437,2.41l13.848-0.604l12.042-2.407l10.233-5.419
	l10.235-8.429l7.225-9.631l3.009,1.204l1.809,9.632l8.428-0.601l17.46,1.805l10.233,1.203l12.042,4.215l6.622-4.816l6.019-7.224
	h12.642l3.471,0.392l-4.372,6.681l-3.916,3.462l-2.857,4.214l-4.515,3.01l-11.74,3.312l-5.571,2.105l-4.814,4.065l-1.354,5.568
	l-1.204,2.106l-2.709,0.904l-8.279,1.806l-7.073,0.903l-0.151,6.021l-6.771,5.717l-7.676,4.667l-11.591,5.27l-10.384,4.212
	l1.656,13.246l3.161,3.762l6.471,1.957l2.558,1.206l2.257,9.18l1.753,3.324c0.832-0.69,2.36-0.955,3.234-1.583
	c0.733-0.531,1.389-1.625,2.136-2.138c1.304-0.895,3.545-1.196,4.813-2.139c1.188-0.884,2.528-2.429,3.208-3.742
	c0.608-1.175,0.42-3.128,1.069-4.278c0.449-0.789,1.285-1.838,2.142-2.14c1.371-0.481,3.368,0.714,4.812,0.535
	c1.359-0.169,3.091-0.915,4.276-1.604c1.084-0.63,2.177-1.966,3.209-2.673c1.362-0.934,3.271-2.078,4.812-2.674
	c1.305-0.505,3.432-0.217,4.446-1.143l0.577,8.065l0.602,7.825l5.871,9.03l-3.612,7.073l-3.161,0.904l-5.566-0.302l-7.826-0.453
	l-3.912,5.117l-2.861,4.214v5.571l-1.354,4.064l-8.878,0.601l-4.366,0.452l-2.709-2.258l-5.569-0.904l-2.106,1.506l-0.3,4.364
	l1.954,4.666l2.56,5.569l4.363,7.375l1.055,1.355l1.657-1.204l5.87-4.214l4.666-2.558l4.667-1.354l-0.15,4.516l-0.452,3.461
	l2.558,3.461l5.418-0.303l5.571-2.105l3.31-2.558l0.753-4.064l-2.107-3.008l-1.955-3.612l0.899-2.107l7.226-3.463l6.019-3.462
	l5.871-3.914l4.063-7.674l2.107-8.428l1.054-6.472l5.87-1.805l4.063-1.505l4.966,1.054l4.969,3.161l4.214,4.062l10.384,1.958
	l10.385,0.602l5.87-1.806l7.073-6.02l4.515-6.019l0.15-4.367l-0.752-5.568l-4.514-4.364l-4.814-2.409l-3.615-3.762l-3.158-4.666
	l-4.967-9.783l0.301-2.409l-1.053-3.912l-4.064-2.257l-2.711-2.108l-3.611,0.151l-3.612-0.751v-5.267l-1.655-5.118l0.751-4.515
	l-0.151-3.161l-0.453-3.612l4.666,0.452l14.602,1.503l3.912-0.601l5.87-2.407l5.868-1.954l3.916-2.26l6.621,0.752l2.104,2.558
	l5.42,7.525l3.462,8.58l6.621,0.903l6.771-0.753l6.926-3.31l2.558-1.657l3.537,5.44c1.132-0.959,2.471-2.539,3.662-3.499
	c0.921-0.74,2.357-1.453,3.234-2.246c0.776-0.7,1.398-2.062,2.268-2.646c0.597-0.4,1.556-0.679,2.267-0.757
	c2.156-0.235,5.019,0.72,7.185,0.757c1.592,0.025,3.704-0.322,5.292-0.378c1.473-0.053,3.552,0.565,4.9,0l-0.881,2.023l-1.491,6.387
	l0.104,10.535l0.853,6.705v2.129l-0.427,4.685l2.128,8.088l5.11,10.644l3.83,5.107l3.193,4.683l0.64,3.406l-1.277,9.792v6.385
	l4.257,6.387l1.914,4.896l-1.914,4.896l-3.619,4.043l-1.703,4.896l1.489,7.238l0.426,4.043l0.213,5.534l-1.064,4.683l-0.85,8.727
	l-2.13,5.321l4.258,4.046l4.469,5.32l1.702,3.833l0.64,5.745l1.49,6.173l6.172-0.85l6.812,0.424l4.683,1.488l1.275,5.747
	l2.554,7.237l0.429,4.469l-2.982,6.172l-4.043,6.598l-1.489,6.598l-2.13,4.045l-4.47,4.683l-7.238-0.85l-3.83,3.616l-5.107,2.767
	l-5.534,4.469l3.406,2.555l1.915,4.045l-0.214,9.791l-2.341,4.896l-6.812-0.213l0.85,13.835l2.557,7.023l1.914,4.043l11.281,8.09
	l10.646,6.171l12.13,10.219l7.663,9.153l6.919,10.955l5.644-2.635l12.792-3.764l8.734-1.266l3.912,0.588l15.05,2.107l5.415,1.507
	l13.545,10.836l12.041,4.215l10.535-4.515l5.72-1.808l10.836-0.301l6.622-1.204l9.027,3.612l9.332,6.021l12.343-9.03l6.62-6.021
	l6.997-2.935l7.674-3.309l1.362-2.189l11.056,7.004l2.645,2.646l2.851,3.675l7.902-6.245l10.992,5.254l-4.066,7.689l-0.452,3.763
	l0.905,10.237l3.46,6.471l2.259,7.375l0.299,5.869v5.87l-1.654,3.158l-3.613,2.257l-4.966-0.601l-4.968-1.805l-6.021-1.056
	l-4.064-0.449l0.45,3.763l1.203,6.772l1.809,4.667l3.771,6.188l-7.532,8.411l-4.818,6.622l-4.513,7.824l-2.409,10.838v10.235
	l-1.507,6.019l-6.924,6.321l-6.019,4.217l-6.925,3.61l-2.71,4.515l-14.447,9.029l-9.331,3.311l-19.864,5.117l-10.237,1.806
	l-6.923-6.622l-12.341-2.407l-11.439-7.525l-8.727-3.311l-7.527,0.602l-9.634-4.515l-7.224-3.916l-6.021,0.304l-5.417,3.612
	l-7.526,3.913l-8.428,3.311l-1.505,19.264l-13.545,6.622l-4.214,5.72l-10.234,8.429l-11.137,1.805l-18.361,0.903l-24.985,21.675
	l-28.599,23.478l-8.728-13.246l-15.05-10.833l-10.837-2.11l-5.119,5.118l-4.211,7.825l-5.721,7.224l-9.635-0.3h-8.726l-4.517,2.41
	l-3.615,3.608l8.73,5.722l-2.105,3.312l-5.12,5.417l-8.13,3.912l-8.428,2.711l-15.651-5.117l-9.331-2.107
	c0,0-15.352,3.913-16.556,4.516c-1.202,0.601-12.942,9.633-12.942,9.633l-8.73,6.021l-8.728,5.418l-5.42-2.107l-2.709-4.212v-12.342
	l-7.827-1.509l-7.523,4.817l-5.116,3.914l-1.506,8.43l-2.407,7.526l-5.719,3.913l-11.32-0.243l2.095-5.576l-2.73-12.295l0.34-5.465
	l-6.49-5.809v-14.342l3.416-6.147l-0.342-6.491l-4.099-5.805l-0.342-6.829l2.392-3.073c0,0,5.804,0,7.171-1.027
	c1.367-1.023,4.78-4.779,4.78-4.779s-0.341-6.488,0-8.537c0.342-2.05-1.024-10.247-1.024-10.247l6.15-7.854l4.438-6.491
	l-0.682-10.928l-1.368-11.953L396.273,519.107z M584.746,140.86l2.558-2.184l3.084-1.806l2.482,0.378l2.935,2.935l-0.15,2.107
	l-1.729,3.612c0,0-2.481,2.558-2.786,2.635c-0.3,0.074-4.212,1.73-4.212,1.73l-2.633-0.226l-1.355-1.881v-4.063L584.746,140.86z"/>
<path id="lake_neuchatel" fill="#CCD3DB" d="M135.98,372.537c2.524,1.202,6.534,1.549,9.27,0.974
	c1.158-0.243,2.394-1.366,3.416-1.951c1.026-0.587,2.348-1.45,3.416-1.952c1.133-0.53,2.799-0.876,3.904-1.464
	c1.11-0.594,2.392-1.707,3.415-2.438c1.026-0.731,2.391-1.71,3.414-2.44c1.026-0.731,2.269-1.921,3.416-2.438
	c1.781-0.804,4.393-1.381,6.343-1.463c1.034-0.045,2.419,0.205,3.416,0.485c1.072,0.301,2.367,1.084,3.414,1.466
	c1.438,0.52,3.367,1.24,4.881,1.462c1.593,0.235,3.882,0.614,5.367,0c1.146-0.475,2.108-1.995,2.928-2.929
	c1.585-1.802,3.336-4.501,4.88-6.343c1.396-1.666,3.809-3.47,4.881-5.364c0.752-1.331,0.588-3.629,1.462-4.881
	c0.838-1.199,2.626-2.212,3.904-2.929c2.062-1.159,5.227-1.828,7.319-2.927c3.271-1.721,7.389-4.491,10.248-6.829
	c1.921-1.575,4.068-4.131,5.854-5.856c2.162-2.086,5.299-4.609,7.32-6.829c1.613-1.778,3.293-4.539,4.879-6.345
	c0.955-1.087,2.593-2.22,3.415-3.415c0.816-1.188,1.008-3.301,1.95-4.392c2.156-2.488,6.542-4.021,9.273-5.856
	c3.135-2.107,7.323-4.922,10.245-7.319c2.485-2.035,5.476-5.112,7.81-7.32c3.083-2.915,7.207-6.793,10.248-9.758
	c1.776-1.735,3.858-4.372,5.854-5.855c1.733-1.29,4.407-2.45,6.342-3.414c1.875-0.937,4.658-1.679,6.343-2.928
	c1.415-1.05,2.942-2.913,3.904-4.391c0.964-1.483,1.792-3.72,2.44-5.367c0.506-1.292,1.238-3.02,1.461-4.39
	c0.283-1.732,0.531-4.18,0-5.855c-0.534-1.704-1.893-3.942-3.414-4.879c-0.884-0.542-2.383-0.462-3.415-0.489
	c-1.618-0.042-3.774,0.218-5.367,0.489c-1.193,0.203-2.711,1.153-3.904,0.976c-0.845-0.126-1.75-0.961-2.442-1.463
	c-1.256-0.917-2.554-2.642-3.901-3.415c-0.803-0.461-2.015-0.827-2.926-0.977c-1.301-0.212-3.125-0.354-4.395,0
	c-1.646,0.454-3.471,1.962-4.879,2.927c-1.375,0.943-2.992,2.505-4.39,3.415c-1.81,1.18-4.704,2.006-6.342,3.414
	c-0.555,0.479-0.982,1.398-1.463,1.952c-0.406,0.47-0.904,1.195-1.462,1.463c-1.197,0.574-3.081,0.285-4.393,0.49
	c-1.476,0.228-3.562,0.27-4.88,0.976c-1.277,0.685-2.239,2.567-3.414,3.414c-1.062,0.765-2.628,1.652-3.904,1.95
	c-1.28,0.303-3.144-0.415-4.39,0c-0.694,0.234-1.399,0.986-1.953,1.464c-0.781,0.68-1.834,1.602-2.438,2.441
	c-0.765,1.061-1.497,2.675-1.951,3.904c-0.419,1.133-0.829,2.706-0.977,3.901c-0.232,1.891,0,4.441,0,6.344
	c0,0.879,0.306,2.105,0,2.929c-0.466,1.268-1.7,2.852-2.927,3.416c-0.532,0.244-1.367,0-1.952,0c-0.878,0-2.051-0.055-2.927,0
	c-1.18,0.073-3.07-0.347-3.905,0.489c-0.834,0.833-0.414,2.724-0.487,3.901c-0.072,1.168,0.341,2.783,0,3.904
	c-0.152,0.506-0.488,1.262-0.976,1.463c-0.691,0.286-1.694-0.486-2.438-0.486c-0.748,0-1.75,0.201-2.44,0.486
	c-0.976,0.405-2.048,1.367-2.928,1.953c-0.879,0.586-1.916,1.646-2.929,1.952c-0.701,0.213-1.777-0.313-2.438,0
	c-1.881,0.889-2.968,3.853-4.393,5.367c-1.775,1.885-4.607,3.933-6.344,5.856c-2.451,2.716-5.919,6.379-7.32,9.76
	c-0.396,0.956-0.025,2.489-0.486,3.414c-0.742,1.482-2.936,2.562-3.905,3.906c-0.955,1.326-1.62,3.465-2.439,4.881
	c-0.794,1.367-1.998,3.107-2.927,4.389c-1.529,2.109-3.024,5.69-5.366,6.829c-0.925,0.449-2.442-0.312-3.416,0
	c-1.2,0.384-2.529,1.546-3.416,2.44c-1.256,1.27-2.22,3.549-3.415,4.88c-1.042,1.159-2.612,2.548-3.904,3.415
	c-1.359,0.913-3.678,1.33-4.881,2.441c-0.626,0.58-0.965,1.746-1.462,2.44c-0.789,1.096-1.979,2.457-2.929,3.414
	c-1.095,1.106-2.447,2.867-3.904,3.416c-0.684,0.255-1.724-0.156-2.438,0c-2.047,0.448-4.696,1.636-6.345,2.929
	c-0.738,0.577-1.361,1.71-1.949,2.439c-1.311,1.617-3.693,3.41-4.392,5.366c-0.345,0.963-0.391,2.47,0,3.419
	C134.345,371.35,135.233,372.178,135.98,372.537z"/>
<path id="lake_biel" fill="#CCD3DB" d="M336.757,208.84c0.116-0.561,0.986-0.908,1.461-1.221c0.549-0.358,1.372-0.674,1.953-0.976
	c0.956-0.496,2.281-1.094,3.171-1.708c1.196-0.823,2.633-2.144,3.657-3.172c1.029-1.025,2.082-2.695,3.172-3.659
	c0.99-0.872,2.673-1.563,3.66-2.441c0.504-0.445,1.228-1.073,1.462-1.708c0.431-1.168,0.981-3.383,0-4.146
	c-0.477-0.373-1.546,0.041-1.952,0.486c-0.648,0.712-0.116,2.285-0.49,3.173c-0.282,0.673-0.944,1.435-1.46,1.953
	c-1.553,1.552-4.101,3.074-5.856,4.392c-0.879,0.658-2.058,1.526-2.927,2.195c-1.032,0.793-2.928,1.463-3.415,2.684
	c-0.49,1.22-3.084,2.385-4.636,2.926c-1.251,0.438-3.069,0.561-4.395,0.49c-0.67-0.035-1.661-0.072-2.192-0.49
	c-0.386-0.301-0.463-1.051-0.73-1.463c-0.313-0.479-1.178-0.892-1.221-1.463c-0.033-0.426,0.445-0.904,0.73-1.221
	c0.491-0.543,1.337-1.069,1.953-1.463c0.91-0.582,2.186-1.266,3.173-1.708c1.561-0.7,3.791-1.272,5.364-1.952
	c1.354-0.582,3.299-1.208,4.394-2.195c0.708-0.638,1.249-1.845,1.708-2.684c0.503-0.92,0.788-2.368,1.46-3.172
	c0.746-0.885,2.15-1.654,3.173-2.195c0.901-0.477,2.302-0.691,3.172-1.219c1.419-0.861,2.902-2.564,4.147-3.662
	c1.243-1.098,2.694-2.857,4.146-3.659c1.135-0.628,2.927-0.786,4.146-1.221c0.898-0.319,2.128-0.707,2.928-1.22
	c1.003-0.641,2.068-1.859,2.927-2.684c0.82-0.787,2.147-1.679,2.686-2.684c0.352-0.66,0.001-1.875,0.487-2.44
	c0.557-0.649,1.989-0.476,2.685-0.976c1.142-0.818,2.036-2.569,2.927-3.66c0.724-0.885,1.641-2.11,2.439-2.929
	c1.087-1.113,2.731-2.39,3.903-3.415c1.171-1.024,2.59-2.582,3.905-3.416c1.079-0.686,2.691-1.295,3.904-1.708
	c0.856-0.292,2.233-1.312,2.926-0.73c0.846,0.706-0.011,2.583-0.243,3.66c-0.133,0.612-0.324,1.479-0.731,1.953
	c-0.602,0.692-1.997,0.855-2.684,1.463c-1.414,1.253-2.804,3.438-3.659,5.123c-0.632,1.237-1.065,3.062-1.466,4.392
	c-0.409,1.377-0.555,3.359-1.218,4.635c-0.576,1.106-2.04,2.106-2.685,3.172c-1.105,1.825-1.751,4.667-2.685,6.588
	c-0.515,1.06-1.317,2.419-1.952,3.414c-0.816,1.284-2.08,2.881-2.927,4.147c-0.913,1.369-1.604,3.657-2.927,4.634
	c-0.673,0.496-1.915,0.408-2.685,0.733c-0.935,0.392-2.27,0.931-2.928,1.708c-0.807,0.957-0.946,2.766-1.462,3.904
	c-0.449,0.984-0.918,2.432-1.708,3.172c-0.646,0.604-1.818,1.031-2.684,1.221c-1.074,0.232-2.592-0.254-3.659,0
	c-0.796,0.186-1.763,0.758-2.44,1.218c-0.813,0.554-1.572,1.728-2.44,2.195c-1.264,0.683-3.273,0.751-4.634,1.221
	c-1.056,0.361-2.344,1.156-3.415,1.463c-0.925,0.265-2.21,0.555-3.171,0.489c-0.762-0.054-1.854-0.24-2.44-0.734
	C337.587,211.517,336.522,209.96,336.757,208.84z"/>
<path id="lake_thun" fill="#CCD3DB" d="M645.851,442.307c0.757,0.92,0.143,2.866,0.732,3.902c0.385,0.675,1.402,1.159,1.951,1.709
	c0.55,0.551,1.349,1.261,1.708,1.952c0.28,0.533,0.723,1.396,0.488,1.95c-0.395,0.938-1.954,1.411-2.929,1.711
	c-1.122,0.339-2.745,0.438-3.905,0.242c-0.938-0.157-1.984-1.08-2.927-1.22c-1.453-0.213-3.436,0.203-4.877,0.488
	c-1.5,0.299-3.448,0.933-4.879,1.462c-1.354,0.501-2.991,1.623-4.393,1.953c-1.641,0.385-3.969,0.621-5.609,0.245
	c-1.055-0.244-2.251-1.144-3.173-1.708c-0.986-0.605-2.209-1.553-3.174-2.195c-1.012-0.674-2.311-1.68-3.413-2.195
	c-1.112-0.521-2.706-0.969-3.905-1.221c-1.298-0.271-3.121-0.11-4.394-0.488c-0.623-0.186-1.421-0.593-1.949-0.974
	c-0.591-0.424-1.195-1.195-1.706-1.709c-0.442-0.437-1.206-0.899-1.466-1.466c-0.397-0.865-0.207-2.217-0.247-3.17
	c-0.024-0.658,0.406-1.676,0-2.196c-0.554-0.713-2.116-0.328-2.927-0.729c-0.839-0.417-1.763-1.307-2.44-1.952
	c-0.562-0.54-1.138-1.423-1.709-1.952c-0.804-0.745-2.049-1.539-2.927-2.194c-0.88-0.659-1.932-1.733-2.929-2.195
	c-0.886-0.411-2.218-0.527-3.172-0.731c-0.729-0.16-1.779-0.135-2.441-0.487c-0.91-0.49-1.732-1.682-2.438-2.442
	c-0.991-1.062-2.26-2.528-3.174-3.656c-0.46-0.568-1.1-1.314-1.463-1.953c-0.471-0.824-0.757-2.093-1.22-2.928
	c-0.306-0.549-0.696-1.359-1.22-1.708c-0.813-0.541-2.27-0.358-3.174-0.731c-0.636-0.264-1.615-0.613-1.951-1.219
	c-0.496-0.898-0.235-2.42,0-3.417c0.229-0.955,1.323-1.956,1.466-2.928c0.181-1.25-0.623-2.888-0.732-4.146
	c-0.109-1.24-0.507-3.01,0-4.146c0.397-0.901,1.456-2.238,2.44-2.195c1.81,0.071,2.927,3.054,4.146,4.391
	c1.644,1.802,3.562,4.46,5.368,6.099c1.203,1.09,2.938,2.439,4.391,3.172c1.305,0.657,3.438,0.632,4.636,1.463
	c1.37,0.954,2.213,3.235,3.416,4.392c0.453,0.438,1.372,0.686,1.708,1.22c0.469,0.755-0.123,2.28,0.49,2.929
	c0.668,0.711,2.238,0.438,3.169,0.733c1.505,0.47,3.416,1.367,4.878,1.95c1.463,0.586,3.546,1.11,4.881,1.952
	c2.101,1.324,4.579,3.64,6.097,5.611c0.959,1.246,1.927,3.149,2.44,4.635c0.265,0.774-0.018,2.037,0.49,2.686
	c0.89,1.133,2.98,1.652,4.39,1.95c1.216,0.256,2.905,0.091,4.147,0c1.476-0.107,3.4-0.787,4.877-0.732
	c1.35,0.047,3.057,0.788,4.392,0.977c1.238,0.17,2.908,0.366,4.148,0.242c1.433-0.142,3.2-1.315,4.634-1.219
	c0.951,0.066,2.047,0.861,2.93,1.219C644.141,441.628,645.351,441.696,645.851,442.307z"/>
<path id="lake_brienz" fill="#CCD3DB" d="M676.346,432.793c-0.083,0.991,0.269,2.471,0.974,3.172
	c0.544,0.539,1.701,0.548,2.439,0.733c1.089,0.268,2.541,0.79,3.659,0.732c1.226-0.067,2.754-0.796,3.904-1.222
	c1.57-0.578,3.646-1.411,5.125-2.194c1.074-0.573,2.455-1.444,3.413-2.193c1.592-1.249,3.465-3.199,4.88-4.637
	c0.836-0.85,1.669-2.298,2.683-2.927c0.455-0.281,1.195-0.343,1.709-0.488c1.025-0.294,2.392-0.685,3.416-0.976
	c1.025-0.294,2.446-0.528,3.415-0.978c1.197-0.554,2.545-1.731,3.656-2.438c1.084-0.686,2.898-1.169,3.66-2.196
	c0.539-0.729,0.178-2.215,0.732-2.929c0.663-0.852,2.17-1.299,3.172-1.708c1.2-0.493,2.983-0.646,4.146-1.22
	c0.895-0.439,1.85-1.409,2.684-1.951c0.851-0.556,2.042-1.213,2.928-1.708c0.943-0.529,2.247-1.146,3.174-1.708
	c1.437-0.878,3.183-2.317,4.634-3.174c0.706-0.414,1.862-0.642,2.44-1.22c0.578-0.576,1.351-1.631,1.22-2.44
	c-0.115-0.717-1.132-1.271-1.708-1.709c-0.601-0.452-1.505-0.917-2.195-1.218c-0.636-0.28-1.546-0.49-2.197-0.732
	c-0.889-0.333-1.999-1.004-2.926-1.221c-1.071-0.252-2.559-0.242-3.659-0.245c-1.174-0.001-2.768-0.045-3.903,0.245
	c-1.175,0.301-2.569,1.18-3.658,1.708c-1.179,0.569-2.745,1.341-3.904,1.951c-1.33,0.704-3.25,1.455-4.39,2.441
	c-1.186,1.021-2.229,2.898-3.174,4.146c-0.662,0.877-1.491,2.085-2.196,2.931c-0.827,0.995-1.954,2.314-2.926,3.168
	c-1.616,1.426-4.193,2.785-5.856,4.148c-1.479,1.217-2.995,3.407-4.634,4.392c-0.993,0.598-2.686,0.598-3.658,1.22
	c-1.353,0.868-2.402,2.903-3.658,3.907c-1.258,0.998-3.24,1.886-4.637,2.683c-1.167,0.665-2.701,1.595-3.905,2.195
	c-1.141,0.569-2.975,0.825-3.903,1.706C676.845,431.292,676.4,432.141,676.346,432.793z"/>
</svg>
