<?xml version="1.0" encoding="utf-8"?>
<!-- Generator: Adobe Illustrator 14.0.0, SVG Export Plug-In  -->
<!DOCTYPE svg PUBLIC "-//W3C//DTD SVG 1.1//EN" "http://www.w3.org/Graphics/SVG/1.1/DTD/svg11.dtd" [
	<!ENTITY ns_flows "http://ns.adobe.com/Flows/1.0/">
]>
<svg version="1.1"
	 xmlns="http://www.w3.org/2000/svg" xmlns:xlink="http://www.w3.org/1999/xlink" xmlns:a="http://ns.adobe.com/AdobeSVGViewerExtensions/3.0/"
	 x="0px" y="0px" viewBox="-91.606 -6.24 545 388" enable-background="new -91.606 -6.24 545 388"
	 xml:space="preserve">
<defs>
</defs>
<path id="VS" name="Canton du Valais" fill="#4D4D4D" stroke="#FFFFFF" stroke-width="0.25" d="M374.908,241.677l-1.752-9.393l1.752-10.985l-2.547-3.024
	l-6.209,6.209l-2.069,12.896l-7.642,3.979l-14.169,2.708l-10.666-3.025l-11.94-4.139l-5.094-1.911l-3.025,1.115l-5.253,2.706
	l0.638,4.457l-0.479,1.114l-5.572,3.025l-10.348,4.138l-3.184-0.317l-21.194,13.188c0,0-10.229-7.124-10.645-8.094
	c-0.479-1.115-1.923,3.502-1.923,3.502l-12.724,3.185l2.865,4.616l-0.43,1.719l-7.849,2.261l-2.865-3.343l-3.344,2.387l0.638-0.795
	h-7.005l-10.984,5.094l-4.777,0.478l0.319-4.615l-7.324,1.592l-1.114,5.253l-3.328,0.616l-2.849,2.834l-0.248,0.352l-0.197,0.093
	l-1.607,1.599l0.763,3.751l-0.89,4.333c0,0-3.743,3.172-3.996,3.56c-0.254,0.387-1.396,1.876-1.396,1.876l-3.807,2.132l-0.952,2.719
	c0,0-7.361,4.981-7.616,4.981c-0.253,0-5.71,2.716-5.71,2.716l-2.158-2.977l-2.791-6.015l-2.475-6.081l-4.315-6.468l-2.602-2.459
	l-0.99-5.776l-0.461-1.387l-1.53-2.474l-3.236-0.13l-2.284-3.815l0.317-4.465l-3.807-4.141l-0.239,2.068l-4.605,0.171l-4.052-1.104
	l-5.214,5.849l12.099,15.92l-9.393,17.672l-0.796,13.372l6.521,0.263l7.012,2.921l-4.298,14.488l3.662,3.023l6.161-2.927
	l7.372,11.364l4.298,5.414l-2.07,3.342l4.776,9.552l7.96,13.532l8.756-2.706l8.279,3.343l9.393-4.935l7.003-4.458l9.394,4.14
	l11.145-6.846l4.139-2.706l1.272-3.502l8.279,1.75l0.477-5.253l4.468-2.307l0.946,4.058l13.152,0.796l4.996,6.368l3.502,3.661
	l2.866-2.069l11.303,3.661h8.597l5.572-15.282l13.214-0.955l5.731-11.623v-8.623l9.232-1.565l3.98-5.571l4.616-0.477l2.071-7.643
	l-3.026-10.188l-7.642-7.801l9.234-8.915l8.611-1.022l1.418-0.888l6.526-6.209l3.663-4.298l5.57-1.911c0,0-0.477-7.323-1.433-7.8
	c-0.955-0.478,0.319-2.707,0.319-2.707l2.388,0.478l9.075-7.482l1.75-7.801l6.686-0.159l5.255-6.846L374.908,241.677z"/>
<path id="GE" name="Canton de Genève" fill="#4D4D4D" stroke="#FFFFFF" stroke-width="0.25" d="M59.503,295.341l0.495-1.376l-2.048,0.493l-0.636-0.529l0.636-1.767
	l-0.989,0.178l-4.237,3.636l-0.918-0.988v-0.707l-3.744-5.226l0.248-1.342l1.978-1.129l0.529-0.955l-0.353-0.528l-0.354-2.438
	l-1.455-0.637l0,0l-0.132,0.187l-0.531,3.292l-1.699,1.274L43,291.452l-0.916,0.116l-0.252,2.007l-5.204,11.046l-1.414,0.396
	l-1.133,0.319c0,0.001-0.001,0.002-0.002,0.003c0-0.001,0.001-0.002,0.001-0.003l-0.851,0.239l-0.205-0.522l0,0
	c-0.113-0.288-0.791-2.02-0.791-2.02l-0.293-4.559l1.028-4.558l1.962-8.405l-5.298-3.284l-1.773-1.584l-0.039,1.677l-0.027,1.576
	l-2.871,2.369v1.823l2.509,3.281l-0.14,4.694l-2.552,1.505l-2.46-2.37l-2.781,1.412l-1.413-1.14l-3.145,3.646l-1.869-1.822
	l-3.737,2.049l-3.6,1.779l-0.091,1.139L4.05,302.31l-1.959,2.825l-0.958,2.052l4.331,2.733l0.364,0.638l-0.415,1.952l-0.12-0.007
	l-0.428,0.729l0.365,0.07l-0.125,0.595l-0.742-0.706l-0.212,0.211l-0.423,1.625l-2.649,5.085l0.106,2.084l-0.564,0.459
	c0,0-0.495,0.989-0.495,1.096c0,0.104,1.483,0.246,1.66,0.246s2.26-1.624,2.26-1.624l0.106-1.448l2.225-0.07l4.944,0.707
	l1.341,0.952l0.459,0.636l0.6-1.165l1.553-0.741l0.517-2.028l3.757,0.263l0.458,0.317l2.719-0.776l0.812,0.848l-0.495,1.129
	l0.459,0.494l1.024-0.528l5.438,1.059l1.307-0.953l0.918-0.284l0.593-1.342l1.455-0.562l2.472-0.884l2.437-2.048l-0.07-1.413
	l-0.247-1.978l1.676-0.864l1.518-2.083l1.271-0.106l3.496-3.285l1.554,0.601l0.423-0.423l0.671,0.316l7.945-4.626l2.401-4.272
	c0,0,0.742-0.918,0.812-1.023c0.07-0.106-0.385-1.235-0.385-1.235L59.503,295.341z"/>
<path id="BE" name="Canton de Berne" fill="#4D4D4D" stroke="#FFFFFF" stroke-width="0.25" d="M149.82,94.058l-2.304,11.342l-0.084,0.103l2.919-0.635l6.203-5.671
	l6.557-0.708l12.051-2.836l-1.596,3.722l2.127,0.709l1.771,1.24l6.381,3.722l-0.178,3.544l-1.595,2.304l-0.532,3.721l-4.076,1.418
	l-2.126,5.139l-2.835,5.317l-4.786-2.835l-1.15,4.137l1.275-0.162l2.979,2.877c0,0-1.192,3.028-1.638,3.331
	c-0.448,0.303-3.277,3.938-3.277,3.938l-4.171,2.726l-4.12,4.039l2.404,1.112c0,0-0.4,1.56,0.277,2.575
	c0.677,1.015,1.161,2.5,1.161,2.5l1.408,2.405l-1.519,3.387l3.27-0.234l1.985,0.584l-0.817,3.387l1.518,3.27l3.362-3.478
	l-0.326-0.142l1.169-1.519l-0.838-3.692l3.468-4.481l0.405-2.571l-3.805,2.795l-1.649-0.335l-1.47-1.177l-0.588-3.087l3.528-3.088
	l2.122-1.224l-0.235-2.898l0.337-2.622l0.254-4.144l5.328-0.084l7.442-0.931l11.838-5.581c0,0,2.114,4.566,2.198,5.158
	c0.085,0.592-1.691,2.452-1.691,2.452l-4.059,1.945l1.691,2.199l0.169,4.651c0,0-1.183,3.636-1.099,4.651s-1.606,3.805-1.606,3.805
	l6.1-0.577l0.242-0.269l1.776,0.761l4.989,1.945l6.257,0.253l6.85,0.508l0.423,4.82l-2.283,3.805l-3.975-2.536l-2.451,2.959
	l4.65,4.566l-2.538,3.806l-3.381,8.033l0.422,2.707l0.507,4.82l-0.169,6.341l7.442,1.944l-0.424,2.116l6.004,2.197l-1.015,9.134
	l-2.536,2.366l-2.368-3.382l-4.055,0.641l0.456,0.465l1.438,2.79l-2.537,1.353l0.93,3.721l-0.169,6.259l-2.96,2.368l-3.466-0.931
	l-3.045,5.073l-5.497,2.875l0.299-0.155l0.639,1.136l0.32,6.156l-1.86,3.554l0.129,0.951l-2.055,0.634l1.027,4.253l-1.22,5.71
	l-4.107,0.316l-0.513,1.206l2.182,3.363v1.968l-1.858,6.124l2.404,0.12l0.698,2.845l1.775,0.13l-0.697,8.539l-0.366,0.362
	l3.328-0.616l1.114-5.253l7.324-1.592l-0.319,4.615l4.777-0.478l10.984-5.094h7.005l-0.638,0.795l3.344-2.387l2.865,3.343
	l7.849-2.261l0.43-1.719l-2.865-4.616l12.724-3.185c0,0,1.444-4.617,1.923-3.502c0.415,0.97,10.645,8.094,10.645,8.094
	l21.194-13.188l3.184,0.317l10.348-4.138l5.572-3.025l0.479-1.114l-0.638-4.457l5.253-2.706l3.025-1.115l5.094,1.911l11.94,4.139
	l10.666,3.025l14.169-2.708l7.642-3.979l2.069-12.896l4.446-4.446l-1.343-3.691l0.528-5.817l3.701,1.058l6.876,0.528l-2.644-6.874
	l-2.115-7.404l3.174-4.23l-6.137-1.034l-7.992-2.821l-11.283,6.817l-14.104-3.292l-6.581,3.763l-12.224-6.583
	c0,0-8.933-0.939-9.637-0.705c-0.706,0.236-3.527,4.468-3.527,4.468l-6.581-9.639l-12.93-9.401v-4.936l2.352-3.057l-0.47-6.111
	l1.88-3.996l5.173-0.235l6.345-14.339l-1.409-1.88l-7.522-0.236l-5.642-9.167l0.471-15.279l3.996-2.116l0.234-4.231l-2.585-2.351
	l0.234-5.171l-8.227-9.402l-1.646-10.578l-3.526,2.586l-3.995-3.526l-1.882,1.646h-4.936l-7.287-6.817l-14.574,4.702l14.339,17.395
	l-0.705,6.346l-8.227,3.526h-4.231l-2.351-3.056l-15.045,11.988l1.176,6.347l-3.29,1.646l-3.292-4.467l-2.586-0.235l-3.525,0.705
	l-4.466-4.936l4.231-3.056l2.35,3.761l3.526-2.586l-0.47-3.761l3.995-2.821l6.817-3.996l-2.585-2.586l-6.817-0.235l-6.816,4.701
	l-5.407-11.988l9.637-5.876l-1.409-4.701l17.395-6.347l1.174-4.231l9.168-7.992l0.705-8.697l3.135-4.89l-12.938-1.418l-12.937,1.418
	l-9.038,5.139l-10.811-1.241l-2.127-1.063l-5.232,2.125l0.803,2.305l-4.607,2.658l1.063,4.608l-9.925,3.19l-5.139-1.595
	l-2.836,3.368l-3.721,7.62l-4.784,1.596l-1.772,3.721l-6.557-2.658l-7.443,8.506l-3.898,0.177l-1.418-5.139l-2.563,2.083
	l-0.036,0.25l0.296-0.206L149.82,94.058z"/>
<path id="VD" name="Canton de Vaud" fill="#4D4D4D" stroke="#FFFFFF" stroke-width="0.25" d="M199.806,232.04l-0.639-1.136l-0.299,0.155c0,0-1.1-1.438-1.183-1.099
	c-0.084,0.338-3.806,3.637-3.806,3.637l-0.762-1.016l-2.621-0.761l-5.919,6.004l-2.623,4.735l-6.595,1.437l-5.073,1.608
	l-4.524,7.205l-6.807,2.435c0,0,0-1.945-0.169-3.467c-0.169-1.522,0-2.03,0-2.03l0.212-1.379l-0.128-0.599l-0.197-0.36l0.034-0.408
	l-1.02-4.78l-9.81-4.904l-1.522,1.185l-1.184-0.254l0.423-1.691l-4.566,4.989l-2.183-1.029l-0.671-0.211l-0.148-0.177l-1.479-0.698
	l-0.845-1.69l-1.691-0.93l-0.93-1.944l2.622-3.553l1.353,0.93l3.298-0.422l0.761,1.183l6.004-5.835v-0.846l-3.213,1.016
	l-5.074-4.143l-0.7-0.862l-0.653,1.962l-0.826-0.263c-0.003,0.004-0.008,0.01-0.008,0.01l-0.052-0.029l-2.834-0.902l-2.656,1.166
	l-0.039,0.03l0.002-0.015l-0.775,0.34l0.423-16.066l0.508-2.283l7.526-3.044l3.213-7.696l7.695-5.919l2.284-2.283l-4.905-2.283
	l-0.508-3.298l3.63-3.071l-0.782-1.78l-0.396,0.708l-1.876,1.447l-2.352,0.413l-4.144-2.03l-2.496,1.3h-0.001l-0.025,0.013
	l0.831,0.801l1.691,1.86l3.044,2.452l0.846,0.677l-2.893,6.802l-4.549-2.405l-3.297,0.17l-3.214,1.521l-1.353-0.592l-0.507-0.93
	l-2.706,2.79l-3.03-1.683l4.806-5.251h-0.084l2.114-0.423l-0.169,2.621l-0.29,0.607l4.771-0.945l2.597-6.917l-0.43-0.147
	l-5.003-1.796l-3.083-2.048l1.031-0.873l0.652-0.78l-3.002-2.922l0.075-0.073l-0.125-0.104l-2.508,2.34l-2.059-1.348l-3.15-0.496
	l-9.84,5.955h-1.094l-1.158-0.994l-0.579-1.487l-0.153-0.014l-0.097-0.384l3.881-2.646l4.398-3.621l3.493-2.786l3.106-3.342
	l3.75-2.647v-1.951l-3.362,0.976l1.292-1.949c0,0,0.129-3.204,0.129-4.041c0-0.836-3.493-3.898-3.493-3.898l0.907-5.432
	l-1.165-1.394l-10.479,5.85l-3.364,5.432l-3.492,0.975l-2.329-0.139l-6.34,4.178l-11.643,5.434l-2.587-0.836l-2.847,8.636
	l-1.294,0.696l0.518,2.646l0.847-1.094l3.302,2.697c0,0-0.583,2.796-0.778,3.129c-0.194,0.333-1.687,1.864-1.687,1.864l-1.232,1.929
	l-3.825,1.132l-3.113,1.998l0.454,1.665l-0.713,1.13h-2.269l-0.129,2.064l-2.206,0.797l-7.912,5.06l0.004,0.002l-5.285,3.075
	l-0.254,1.014l-7.931,8.059l-6.028,5.202l-0.127,1.079l-6.98,4.378l-1.459,2.159l-1.46,1.712l6.258,6.425l-0.68,0.721l0.508,1.08
	l-1.397,1.715l-0.633-0.573l-0.507,0.191l-0.761,1.142l-1.84,1.841l-3.427,7.741l-3.617,3.363l0.38,2.918l1.523,1.84l-3.3,5.966
	l4.887,1.522l0.825,2.156l1.966,0.509l5.266,4.568l1.523,0.127l1.396,2.411l-1.586,1.968l-1.079,3.489l-2.029,1.015l-2.285,4.569
	l1.777,1.587c0,0,4.228,2.608,5.298,3.284l0.096-0.415l1.385-1.826c0.006-0.017,0.01-0.027,0.01-0.027l0.049-0.049l1.79-2.36
	l1.765-4.559l0.258-0.612l1.595-3.778l1.675-2.812l3.528-4.705l2.206-1.028l1.617,0.441l0.882-2.354l1.617-2.94l0.495-0.898
	l0.138-0.415l0.143-0.095l0.842-1.531l5.146-6.027l0.933-0.444l0.113-0.134l0.313-0.07l1.729-0.823l3.381-0.293l1.069-0.315
	l2.901,0.903l0.009-0.008l1.182-1.066l0.396-0.116l0.764-0.573l3.235-0.599l2.5-3.59l4.263-3.235c0,0,0.033-0.033,0.092-0.094
	l0.07-0.191l0.137-0.02c0.445-0.454,1.315-1.342,2.102-2.146l0.025-0.07l0.113-0.07c0.677-0.689,1.268-1.288,1.431-1.453
	c0.425-0.426,1.665,0.92,1.755,1.021l0.052,0.022l3.191,1.015l3.087,0.147l2.94-2.059l0.479,1.277l1.708,1.213l1.642-0.135
	l2.494,1.468l7.645,0.146l4.999,1.618l2.499,2.351l2.94-0.587l3.235,2.205l5.292,1.028l5.227,1.306l-0.193,2.148l2.317-0.366
	l2.478,2.913l0.147,0.059l6.405,1.633l0.709,2.214l1.289,0.091l2.058,4.411l-1.291,2.39l-9.2,0.388l3.807,4.141l-0.317,4.465
	l2.284,3.815l3.236,0.13l1.84,2.976l1.142,6.661l2.602,2.459l4.315,6.468l2.475,6.081l2.791,6.015l2.158,2.977
	c0,0,5.457-2.716,5.71-2.716c0.254,0,7.616-4.981,7.616-4.981l0.952-2.719l3.807-2.132c0,0,1.143-1.489,1.396-1.876
	c0.253-0.388,3.996-3.56,3.996-3.56l0.89-4.333l-0.763-3.751l5.268-5.239l0.697-8.539l-1.775-0.13l-0.698-2.845l-2.404-0.12
	l1.858-6.124v-1.968l-2.182-3.363l0.513-1.206l4.107-0.316l1.22-5.71l-1.027-4.253l2.055-0.634l-0.129-0.951l1.86-3.554
	L199.806,232.04z M59.222,205.342l-1.172,2.201l-1.705,1.4l-9.409,6.616l-0.736-0.441l0.775-2.284l10.423-7.722l0.262-0.358
	l-0.097-0.413l0.717-0.883c0,0,0.442-1.286,0.882-1.434l0.71,0.89L59.222,205.342z"/>
<path fill="#4D4D4D" stroke="#FFFFFF" stroke-width="0.25" d="M145.202,153.819l0.419,0.393l0.083,0.077l3.513,3.288l-2.502,1.796
	l2.887,0.064l2.25,2.366l-3.128,4.397l-0.254,4.821h3.89l-0.169,0.845l-2.466,4.413c0.901,0.326,2.297,0.83,2.297,0.83l2.791-2.199
	l0.974,0.567l0.854-3.02l-0.101-2.053l-0.321-2.374l4.105,0.322l0.962-1.412l-0.833-2.374l0.01-0.28l-0.004-0.013l0.009-0.098
	l0.049-1.276l-1.627,0.121l-0.079,0.012l-0.001-0.007l-0.025,0.002l-0.256-1.282l2.892-4.095l-2.845-3.131l-1.073,2.671l0.896,2.115
	l-1.236,0.276l-7.637-8.603l-2.325-0.17l-2.452,2.621l0.444,0.398L145.202,153.819z"/>
<path id="FR" name="Canton de Fribourg" fill="#4D4D4D" stroke="#FFFFFF" stroke-width="0.25" d="M217.688,196.131l0.424-2.116l-7.442-1.944l0.169-6.341l-0.507-4.82
	l-0.422-2.707l3.381-8.033l2.538-3.806l-4.65-4.566l2.451-2.959l3.975,2.536l2.283-3.805l-0.423-4.82l-6.85-0.508l-6.257-0.253
	l-4.989-1.945l-1.776-0.761l-0.242,0.269l-6.1,0.577c0,0,1.69-2.79,1.606-3.805s1.099-4.651,1.099-4.651l-0.169-4.651l-1.691-2.199
	l4.059-1.945c0,0,1.776-1.86,1.691-2.452c-0.084-0.592-2.198-5.158-2.198-5.158l-11.838,5.581l-7.442,0.931l-5.328,0.084
	l-0.254,4.144l-0.337,2.622l0.235,2.898l5.523-3.187h2.792l1.324,3.087l-1.765,2.205l-6.014,4.01l-0.405,2.571l-3.468,4.481
	l0.838,3.692l-1.169,1.519l0.326,0.142l-3.362,3.478l-1.518-3.27l0.817-3.387l-1.985-0.584l-3.27,0.234l1.519-3.387l-1.408-2.405
	c0,0-0.484-1.484-1.161-2.5c-0.677-1.015-0.277-2.575-0.277-2.575l-2.697-1.247l-8.187,6.14l8.024,9.039l1.236-0.276l-0.896-2.115
	l1.073-2.671l2.845,3.131l-2.892,4.095l0.256,1.282l1.732-0.128l-0.064,1.667l0.833,2.374l-0.962,1.412l-4.105-0.322l0.321,2.374
	l0.101,2.053l-0.854,3.02l-0.974-0.567l-2.791,2.199c0,0-1.396-0.504-2.297-0.83l2.466-4.413l0.169-0.845h-3.89l0.254-4.821
	l3.128-4.397l-2.25-2.366l-2.887-0.064l2.502-1.796l-4.015-3.758l-18.348,17.532l3.128,3.043l-1.809,1.531l3.083,2.048l5.003,1.796
	l0.43,0.147l-2.597,6.917l-4.771,0.945l0.29-0.607l0.169-2.621l-2.114,0.423h0.084l-4.806,5.251l3.03,1.683l2.706-2.79l0.507,0.93
	l1.353,0.592l3.214-1.521l3.297-0.17l4.549,2.405l2.893-6.802l-0.846-0.677l-3.044-2.452l-1.691-1.86l-0.831-0.801l2.522-1.313
	l4.144,2.03l2.352-0.413l1.876-1.447l0.396-0.708l0.782,1.78l-3.63,3.071l0.508,3.298l4.905,2.283l-2.284,2.283l-7.695,5.919
	l-3.213,7.696l-7.526,3.044l-0.508,2.283l-0.423,16.066l3.468-1.521l3.72,1.185l0.653-1.962l0.7,0.862l5.074,4.143l3.213-1.016
	v0.846l-6.004,5.835l-0.761-1.183l-3.298,0.422l-1.353-0.93l-2.622,3.553l0.93,1.944l1.691,0.93l0.845,1.69l4.482,2.115l4.566-4.989
	l-0.423,1.691l1.184,0.254l1.522-1.185l9.81,4.904l1.311,6.147l-0.212,1.379c0,0-0.169,0.508,0,2.03
	c0.169,1.521,0.169,3.467,0.169,3.467l6.807-2.435l4.524-7.205l5.073-1.608l6.595-1.437l2.623-4.735l5.919-6.004l2.621,0.761
	l0.762,1.016c0,0,3.722-3.299,3.806-3.637c0.083-0.339,1.183,1.099,1.183,1.099l5.497-2.875l3.045-5.073l3.466,0.931l2.96-2.368
	l0.169-6.259l-0.93-3.721l2.537-1.353l-1.438-2.79l-0.456-0.465l4.055-0.641l2.368,3.382l2.536-2.366l1.015-9.134L217.688,196.131z"
	/>
<path id="JU" name="Canton du Jura" fill="#4D4D4D" stroke="#FFFFFF" stroke-width="0.25" d="M261.469,40.716l-4.747-7.62l-18.293-1.418l-6.733-7.621l-6.557-6.734
	l-14.001,2.835l-3.012-3.942l-3.9,0.93l-5.671-1.95l5.671-10.633h-3.012l-8.507-4.431l-9.924,2.481c0,0-7.443-1.595-8.861-1.772
	c-1.418-0.177-8.33,1.949-8.861,1.949c-0.531,0,1.773,11.874,1.773,11.874s-6.38,3.012-6.912,3.012
	c-0.532,0-5.317,6.912-5.317,6.912l-7.797,15.772l30.658-2.835l-0.531,7.266v0.284l-5.67,1.134l-1.241,5.848l-10.987,4.431
	l0.531,6.557l-1.063,5.849l-15.949,15.595l2.481,1.772l2.835-2.304l1.418,5.139l3.898-0.177l7.443-8.506l6.557,2.658l1.772-3.721
	l4.784-1.596l3.721-7.62l2.836-3.368l5.139,1.595l9.925-3.19l-1.063-4.608l4.607-2.658l-0.803-2.305l5.232-2.125l2.127,1.063
	l10.811,1.241l9.038-5.139l12.937-1.418l12.938,1.418l9.214-4.077l-2.304-1.063L261.469,40.716z"/>
<path id="NE" name="Canton de Neuchâtel" fill="#4D4D4D" stroke="#FFFFFF" stroke-width="0.25" d="M177.466,101.324l-1.771-1.24l-2.127-0.709l1.596-3.722l-12.051,2.836
	l-6.557,0.708l-6.203,5.671l-2.919,0.635l0.084-0.103l2.304-11.342l-4.252-7.975l-19.849,13.823l0.886,2.304l-5.48,3.007
	l-4.443,4.792l4.785,4.252l-3.899,2.836l-6.734,3.012l-6.203,7.444l-3.013,0.532l-15.595,6.025l-1.595-1.418l-2.126,1.772
	l-8.684,9.038l3.898,9.215l1.354,10.191l2.587,0.836l11.643-5.434l6.34-4.178l2.329,0.139l3.492-0.975l3.364-5.432l10.479-5.85
	l1.165,1.394l-0.907,5.432c0,0,3.493,3.062,3.493,3.898c0,0.837-0.129,4.041-0.129,4.041l-1.292,1.949l3.362-0.976l1.204-1.502
	c0.245-0.344,0.501-0.67,0.75-0.936l4.872-6.078c1.011-1.305,2.263-2.832,2.263-2.832s2.682-1.061,3.128-1.212
	c0.447-0.152,1.192-3.18,1.192-3.18l3.723-1.363l0.894-1.817l-0.148-4.24l3.426-1.817l5.511-2.726l4.865-2.305
	c0,0,1.838-1.481,4.072-2.086c2.234-0.606,1.787,0.605,1.787,0.605l1.937,1.818l2.298-0.292l1.15-4.137l4.786,2.835l2.835-5.317
	l2.126-5.139l4.076-1.418l0.532-3.721l1.595-2.304l0.178-3.544L177.466,101.324z"/>
<path fill="#00ACDF" stroke="#FFFFFF" stroke-width="0.25" d="M59.163,202.024c-0.44,0.147-0.882,1.434-0.882,1.434l-0.717,0.883
	l0.097,0.413l-0.262,0.358l-10.423,7.722l-0.775,2.284l0.736,0.441l9.409-6.616l1.705-1.4l1.172-2.201l0.651-2.428L59.163,202.024z"
	/>
<path fill="#00ACDF" stroke="#FFFFFF" stroke-width="0.25" d="M33.23,305.576l3.398-0.955l5.204-11.046l0.252-2.007L43,291.452
	l3.292-4.673l1.699-1.274l0.531-3.292l9.146-12.846l4.264,0.146l2.058,4.706l3.823,1.175l3.234-3.528l6.175-1.322l4.264-4.117
	l1.176,0.441l0.294-2.94l1.323-1.617l3.381-0.883l3.382,2.059l3.97,0.146l9.115-2.059h5.733l6.175-0.882l7.645,0.441l5.734,2.353
	l6.571,1.782l4.605-0.171l0.239-2.068l9.2-0.388l1.291-2.39l-2.058-4.411l-1.289-0.091l-0.709-2.214l-6.53-1.664l-2.499-2.94
	l-2.317,0.366l0.193-2.148l-5.227-1.306l-5.292-1.028l-3.235-2.205l-2.94,0.587l-2.499-2.351l-4.999-1.618l-7.645-0.146
	l-2.494-1.468l-1.642,0.135l-1.708-1.213l-0.479-1.277l-2.94,2.059l-3.087-0.147l-3.234-1.028c0,0-1.324-1.471-1.764-1.029
	c-0.441,0.441-3.97,4.044-3.97,4.044l-4.263,3.235l-2.5,3.59l-3.235,0.599l-2.351,1.764l-2.901-0.903l-1.069,0.315l-3.381,0.293
	l-3.088,1.472l-5.146,6.027l-1.617,2.939l-1.617,2.94l-0.882,2.354l-1.617-0.441l-2.206,1.028l-3.528,4.705l-1.675,2.812
	l-1.853,4.391l-1.765,4.559l-3.234,4.263l-2.059,8.82l-1.028,4.558l0.294,4.559L33.23,305.576z"/>
<path fill="#00ACDF" stroke="#1A181B" stroke-width="0.25" points="180.999,138.339 178.207,138.339 170.562,142.749 
	167.033,145.837 167.621,148.924 169.091,150.101 170.74,150.436 174.384,147.748 180.559,143.631 182.323,141.426 "/>
<path fill="#00ACDF" stroke="#1A181B" stroke-width="0.25" d="M105.864,175.239l1.358,2.513c0,0,1.937,0.302,2.383,0
	c0.447-0.303,9.35-5.681,9.35-5.681l5.627,1.642l8.023-7.736l3.029-2.866l3.521-3.52c0,0,8.696-8.199,9.292-8.35
	c0.594-0.151,4.383-3.422,4.83-3.724c0.292-0.199,0.819-0.37,4.289-2.928l4.171-4.088l4.171-2.726c0,0,2.829-3.635,3.277-3.938
	c0.445-0.303,1.638-3.331,1.638-3.331l-2.979-2.877l-3.574,0.455l-1.937-1.818c0,0,0.447-1.211-1.787-0.605
	c-2.234,0.605-4.072,2.086-4.072,2.086l-4.865,2.305l-5.511,2.726l-3.426,1.817l0.148,4.24l-0.894,1.817l-3.723,1.363
	c0,0-0.745,3.028-1.192,3.18c-0.447,0.151-3.128,1.212-3.128,1.212s-1.489,1.817-2.531,3.18c-1.043,1.363-3.277,4.542-4.319,5.451
	c-1.043,0.909-2.376,3.375-2.376,3.375s-1.348,2.379-1.794,2.682c-0.447,0.303-3.873,2.877-3.873,2.877s-4.112,4.476-4.737,4.812
	c-0.625,0.338-4.051,2.608-5.094,3.517C108.116,173.208,105.864,175.239,105.864,175.239z"/>
<polygon fill="#00ACDF" stroke="#FFFFFF" stroke-width="0.25" points="180.999,138.339 178.207,138.339 170.562,142.749 
	167.033,145.837 167.621,148.924 169.091,150.101 170.74,150.436 174.384,147.748 180.559,143.631 182.323,141.426 "/>
<path class="LAC" fill="#00ACDF" stroke="#FFFFFF" stroke-width="0.25" d="M105.864,175.239l1.358,2.513c0,0,1.937,0.302,2.383,0
	c0.447-0.303,9.35-5.681,9.35-5.681l5.627,1.642l8.023-7.736l3.029-2.866l3.521-3.52c0,0,8.696-8.199,9.292-8.35
	c0.594-0.151,4.383-3.422,4.83-3.724c0.292-0.199,0.819-0.37,4.289-2.928l4.171-4.088l4.171-2.726c0,0,2.829-3.635,3.277-3.938
	c0.445-0.303,1.638-3.331,1.638-3.331l-2.979-2.877l-3.574,0.455l-1.937-1.818c0,0,0.447-1.211-1.787-0.605
	c-2.234,0.605-4.072,2.086-4.072,2.086l-4.865,2.305l-5.511,2.726l-3.426,1.817l0.148,4.24l-0.894,1.817l-3.723,1.363
	c0,0-0.745,3.028-1.192,3.18c-0.447,0.151-3.128,1.212-3.128,1.212s-1.489,1.817-2.531,3.18c-1.043,1.363-3.277,4.542-4.319,5.451
	c-1.043,0.909-2.376,3.375-2.376,3.375s-1.348,2.379-1.794,2.682c-0.447,0.303-3.873,2.877-3.873,2.877s-4.112,4.476-4.737,4.812
	c-0.625,0.338-4.051,2.608-5.094,3.517C108.116,173.208,105.864,175.239,105.864,175.239z"/>
</svg>
